<svg width="414" height="344" viewBox="0 0 414 344" fill="none" xmlns="http://www.w3.org/2000/svg">
<g clip-path="url(#clip0_89_28077)">
<path d="M409.721 105.442V116.674H5.34863V105.977C13.4789 103.837 15.5114 97.9535 15.5114 95.2791H399.558C400.842 103.409 406.868 105.442 409.721 105.442Z" fill="#5FDABC" stroke="#FFEBA2"/>
<path d="M0 115.605V344H414V115.605C394.316 113.037 389.395 98.1318 389.395 91H24.6047C24.1767 108.972 8.02326 114.891 0 115.605Z" fill="url(#paint0_linear_89_28077)" stroke="#32DBB2"/>
<path d="M30.4896 97.9535C27.0012 113.5 13.3733 119.884 6.4198 120.419L6.41841 344H407.581C407.581 287.302 407.583 135.716 407.583 119.884C389.002 116 384.226 104.194 384.048 97.9535H30.4896Z" stroke="#32DBB2"/>
<path d="M397.875 99.4393L407.013 97.6987L405.49 107.054L395.699 109.012L397.875 99.4393Z" fill="url(#paint1_linear_89_28077)"/>
<path d="M405.056 106.616L396.136 108.574L398.312 99.8714L406.579 98.1309L405.056 106.616Z" fill="#D9D9D9"/>
<path d="M401.575 103.135L396.136 108.574L405.056 106.616L401.575 103.135Z" fill="url(#paint2_linear_89_28077)"/>
<path d="M396.136 108.575L401.576 103.135L398.312 99.8717L396.136 108.575Z" fill="url(#paint3_linear_89_28077)"/>
<path d="M398.316 99.8684L401.579 103.132L406.583 98.1278L398.316 99.8684Z" fill="url(#paint4_linear_89_28077)"/>
<path d="M405.06 106.613L401.578 103.132L406.583 98.1274L405.06 106.613Z" fill="url(#paint5_linear_89_28077)"/>
<path d="M400.524 102.446L402.625 102.036L402.265 104.186L400.014 104.647L400.524 102.446Z" fill="url(#paint6_linear_89_28077)"/>
<path d="M16.054 98.4393L6.91605 96.6987L8.43905 106.054L18.2298 108.012L16.054 98.4393Z" fill="url(#paint7_linear_89_28077)"/>
<path d="M8.87224 105.616L17.7927 107.574L15.617 98.8714L7.34924 97.1309L8.87224 105.616Z" fill="#D9D9D9"/>
<path d="M12.3534 102.135L17.7927 107.574L8.87224 105.616L12.3534 102.135Z" fill="url(#paint8_linear_89_28077)"/>
<path d="M17.7925 107.575L12.3532 102.135L15.6168 98.8717L17.7925 107.575Z" fill="url(#paint9_linear_89_28077)"/>
<path d="M15.6132 98.8684L12.3496 102.132L7.34547 97.1278L15.6132 98.8684Z" fill="url(#paint10_linear_89_28077)"/>
<path d="M8.86914 105.613L12.3503 102.132L7.34614 97.1274L8.86914 105.613Z" fill="url(#paint11_linear_89_28077)"/>
<path d="M13.4045 101.446L11.3038 101.036L11.6639 103.186L13.9147 103.647L13.4045 101.446Z" fill="url(#paint12_linear_89_28077)"/>
<path opacity="0.4" fill-rule="evenodd" clip-rule="evenodd" d="M123.223 34.0979C124.081 34.0979 124.772 33.4074 124.772 32.5489C124.772 31.6905 124.081 31 123.223 31C122.365 31 121.674 31.6905 121.674 32.5489C121.674 33.4074 122.365 34.0979 123.223 34.0979ZM160.696 54.1406C161.872 54.1406 162.823 53.1888 162.823 52.0131C162.823 50.8374 161.872 49.8857 160.696 49.8857C159.52 49.8857 158.568 50.8374 158.568 52.0131C158.568 53.1888 159.52 54.1406 160.696 54.1406ZM59.8288 76.4788C59.6422 76.4042 59.6422 76.1615 59.8288 76.0869C59.9638 76.0329 60.1119 75.9762 60.2706 75.9154C61.4281 75.4719 63.153 74.811 64.5316 73.3996C65.5453 72.3425 66.0196 70.3864 66.3905 68.8568L66.3905 68.8566L66.3906 68.8564L66.3907 68.856L66.3908 68.8554L66.3909 68.8551L66.391 68.8547C66.4979 68.4139 66.5962 68.0085 66.6964 67.6704C66.7524 67.4651 67.0696 67.4651 67.1069 67.6891C67.1543 67.9628 67.1961 68.2776 67.2413 68.6185L67.2414 68.6189C67.4461 70.1604 67.7218 72.2365 68.8985 73.4743C70.4661 75.1352 72.7615 75.8443 73.8625 76.1429C74.0678 76.1989 74.0678 76.4788 73.8625 76.5348C73.6859 76.5977 73.4866 76.6615 73.2704 76.7308L73.2704 76.7308C72.1391 77.0933 70.5438 77.6044 69.2904 78.9048C68.1192 80.1064 67.667 82.2998 67.3479 83.848C67.2754 84.1994 67.2099 84.5175 67.1443 84.7833C67.0883 84.9886 66.7897 85.0072 66.7337 84.7833C66.6491 84.489 66.5645 84.1293 66.4704 83.7296C66.0874 82.1018 65.5478 79.8088 64.2144 78.5503C63.0903 77.4992 61.6808 77.0648 60.62 76.7378L60.6199 76.7378L60.6197 76.7378L60.6195 76.7377C60.3244 76.6467 60.0563 76.5641 59.8288 76.4788ZM46.4111 137.802C49.3784 139.276 52.7375 140.022 56.3392 140.022L56.3765 139.985C59.0639 139.985 61.8818 139.574 64.793 138.753C67.9842 137.858 70.149 136.645 72.0525 135.562C74.3479 134.256 76.1767 133.248 79.032 133.304C81.8258 133.373 84.6197 134.43 87.3546 136.446C87.1621 137.121 86.9837 137.797 86.8193 138.474C84.4031 137.711 82.0372 137.458 79.7783 137.727C76.1953 138.156 74.0118 139.724 72.0897 141.105C70.1302 142.523 68.4133 143.736 65.4087 143.848C64.4744 143.882 63.6792 143.792 62.9106 143.705L62.9104 143.705L62.6841 143.68L62.6204 143.672C61.0543 143.488 59.4433 143.298 57.1602 144.053C55.35 144.65 53.6705 145.639 52.1402 147.002C51.8416 147.263 51.7296 147.674 51.8229 148.047C51.9163 148.42 52.2335 148.719 52.6067 148.812C54.6595 149.278 56.5444 150.062 58.2613 151.145C59.8102 152.115 60.8739 153.123 61.5084 153.739C62.6612 154.837 63.1707 155.536 63.6579 156.204L63.7105 156.277C64.1211 156.855 64.5503 157.452 65.3154 158.217L65.3288 158.231C66.313 159.215 69.2731 162.175 73.6386 162.547C74.0492 162.603 74.4411 162.603 74.833 162.603L74.8516 162.584C76.9417 162.584 78.7706 162.099 80.2822 161.11C81.0076 160.626 81.5106 160.143 81.9943 159.678L81.9991 159.673C82.5963 159.076 83.1188 158.572 84.1079 158.087C84.6493 157.816 85.2247 157.607 85.826 157.463C86.7004 165.02 89.149 175.13 95.7902 181.545C95.8648 181.638 95.9581 181.731 96.0701 181.825C97.2085 182.889 99.0933 184.699 100.456 187.722C101.435 189.91 101.929 192.341 101.95 194.952C101.926 195.334 101.922 195.705 101.931 196.06L101.93 196.082C101.925 196.167 101.929 196.25 101.941 196.331C101.981 197.22 102.101 197.992 102.191 198.564C102.378 199.777 102.956 203.491 106.185 206.421C106.984 207.145 107.817 207.701 108.64 208.13C109.137 209.548 109.893 210.814 110.869 211.889C114.172 215.528 118.893 215.677 120.965 215.677L121.002 215.696H121.282L121.355 215.695C123.428 215.677 128.129 215.635 131.154 212.038C131.812 211.243 132.344 210.336 132.73 209.336C132.761 209.325 132.792 209.314 132.823 209.303C132.863 209.288 132.905 209.273 132.946 209.258C137.686 207.447 139.646 202.521 139.981 201.55C140.228 200.848 141.059 198.195 140.679 195.18C140.679 195.139 140.676 195.097 140.672 195.056C140.392 192.387 140.728 189.924 141.624 187.703C142.784 184.83 144.653 183.084 145.796 182.016L145.841 181.974C145.925 181.899 146 181.825 146.07 181.755C146.105 181.72 146.138 181.686 146.172 181.654C146.205 181.622 146.238 181.591 146.27 181.563C152.908 175.152 155.357 165.05 156.233 157.494C156.828 157.636 157.398 157.837 157.934 158.105C158.923 158.591 159.446 159.095 160.043 159.692L160.143 159.788C160.596 160.225 161.065 160.677 161.76 161.129C163.29 162.099 165.1 162.603 167.19 162.603L167.209 162.622C167.601 162.622 167.993 162.603 168.403 162.566C172.769 162.194 175.729 159.234 176.713 158.25L176.726 158.236C177.492 157.471 177.921 156.874 178.331 156.295C178.817 155.605 179.339 154.896 180.534 153.757L180.623 153.673C181.266 153.067 182.302 152.09 183.781 151.163C185.498 150.1 187.382 149.316 189.435 148.831C189.827 148.737 190.126 148.439 190.219 148.065C190.312 147.692 190.2 147.282 189.902 147.02C188.371 145.658 186.692 144.669 184.882 144.072C182.589 143.314 180.956 143.508 179.401 143.693L179.358 143.699L179.153 143.722L179.153 143.722C178.375 143.809 177.559 143.901 176.633 143.867C173.629 143.755 171.93 142.542 169.952 141.123C168.03 139.742 165.847 138.175 162.264 137.745C160.009 137.477 157.648 137.729 155.237 138.488C155.074 137.819 154.898 137.152 154.707 136.485C157.458 134.468 160.251 133.41 163.029 133.341C165.876 133.267 167.684 134.288 169.99 135.589L170.008 135.599L170.143 135.675L170.143 135.675L170.143 135.675L170.143 135.675C172.014 136.721 174.152 137.916 177.268 138.791C180.179 139.612 182.997 140.022 185.684 140.022L185.721 140.06C189.323 140.06 192.682 139.313 195.65 137.839C204.047 133.677 206.903 124.813 207.201 123.824C208.731 118.673 207.854 114.698 206.996 110.873C206.175 107.215 205.335 103.427 206.529 98.2945C207.388 94.6555 209.067 91.1657 211.531 87.9372C211.867 87.4894 211.867 86.8735 211.549 86.4256C211.213 85.9591 210.635 85.7725 210.112 85.9591C206.231 87.2654 203.189 89.2996 201.061 91.9869C197.803 96.1012 197.257 100.977 196.773 105.299L196.769 105.33L196.759 105.422C196.222 110.142 195.757 114.231 192.234 116.975C191.488 117.554 190.648 118.039 189.808 118.375C185.594 120.064 181.694 118.042 177.19 115.706L177.118 115.669C172.453 113.243 167.153 110.499 160.453 111.376C158.771 111.595 155.026 112.087 152.172 114.711C147.154 110.473 135.499 102.536 119.117 103.184C105.065 103.763 95.0863 110.312 89.9253 114.707C87.0665 112.054 83.2968 111.559 81.6073 111.339C74.8891 110.462 69.6078 113.205 64.9423 115.631L64.9014 115.653C60.384 117.995 56.4944 120.012 52.2523 118.337C51.4125 118.001 50.5727 117.516 49.8263 116.938C46.2805 114.176 45.814 110.07 45.2914 105.293L45.2879 105.262C44.8036 100.94 44.2572 96.0639 40.9992 91.9495C38.8718 89.2622 35.8299 87.2467 31.9482 85.9218C31.407 85.7538 30.8285 85.9404 30.5113 86.3883C30.1754 86.8549 30.194 87.452 30.5299 87.8999C32.9933 91.1284 34.6729 94.6182 35.5313 98.2572C36.7257 103.389 35.8859 107.178 35.0648 110.835L35.0531 110.887C34.1983 114.715 33.3176 118.659 34.8595 123.787C35.1581 124.776 38.0133 133.64 46.4111 137.802ZM129.689 209.728C128.987 209.686 128.298 209.562 127.571 209.426C126.004 209.127 124.063 208.772 120.778 209.071C119.584 209.183 118.782 209.314 118.072 209.444L118.035 209.451C116.877 209.653 115.946 209.816 114.284 209.65C113.719 209.592 112.946 209.514 112.054 209.328C112.263 209.631 112.49 209.919 112.735 210.191C115.46 213.177 119.509 213.177 121.245 213.158C122.943 213.158 126.899 213.139 129.195 210.396C129.373 210.185 129.538 209.961 129.689 209.728ZM110.291 206.114C111.941 206.853 113.527 207.012 114.527 207.112C115.794 207.236 116.463 207.122 117.482 206.949L117.482 206.949L117.625 206.925C118.352 206.794 119.248 206.645 120.536 206.514C121.469 206.421 122.327 206.402 123.092 206.402L123.13 206.421C125.313 206.421 126.862 206.701 128.057 206.944C129.624 207.242 130.576 207.41 132.05 206.85C135.745 205.432 137.331 201.457 137.593 200.655C137.769 200.161 139.159 195.925 137.194 192.469C134.525 191.192 132.169 190.883 130.165 191.529C127.89 192.256 126.695 194.009 125.539 195.707L125.537 195.709C124.38 197.407 123.279 199.012 121.245 199.18H120.928V199.199C118.763 199.199 117.251 197.407 115.665 195.523C114.004 193.544 112.269 191.492 109.637 191.268C108.167 191.141 106.602 191.618 105.001 192.686C104.701 193.376 104.544 194.085 104.476 194.772C104.481 195.235 104.472 195.703 104.449 196.176L104.448 196.19L104.447 196.206C104.484 196.94 104.587 197.61 104.673 198.154C104.823 199.162 105.289 202.203 107.864 204.536C108.589 205.192 109.354 205.674 110.109 206.031C110.172 206.054 110.233 206.082 110.291 206.114ZM138.379 189.79C138.585 188.734 138.889 187.713 139.291 186.733C140.69 183.299 142.93 181.227 144.143 180.108C144.292 179.977 144.422 179.847 144.534 179.735L144.535 179.735C151.781 172.729 153.592 160.32 154.039 153.978C153.083 155.61 151.675 157.287 149.667 158.199C148.939 158.535 147.446 159.207 145.487 159.095C144.647 159.039 144.087 158.871 143.583 158.703C143.191 158.572 142.837 158.46 142.333 158.404C141.045 158.236 139.646 158.554 138.153 159.319C138.041 159.375 137.929 159.393 137.817 159.393C137.806 159.393 137.794 159.393 137.783 159.392C135.913 163.056 135.128 167.066 134.57 169.937C133.472 175.514 133.516 181.275 134.671 187.077C134.823 187.132 134.97 187.192 135.111 187.255C136.354 187.822 137.451 188.667 138.379 189.79ZM133.107 186.693C132.041 180.95 132.044 175.237 133.133 169.695L133.139 169.664C134.147 164.547 135.834 155.988 142.855 151.499C143.198 151.281 143.529 151.087 143.847 150.914C143.897 150.879 143.951 150.85 144.007 150.828C145.865 149.843 147.216 149.594 147.393 149.562L147.409 149.559C149.742 149.204 151.813 149.279 151.906 149.297H151.944C151.972 149.297 152.002 149.298 152.034 149.298L152.113 149.3C152.508 149.307 153.169 149.32 153.941 149.111C154.012 149.09 154.084 149.069 154.155 149.047C154.036 144.882 153.355 140.702 152.114 136.578C147.99 128.866 147.421 121.385 150.53 116.645C145.778 112.623 134.741 105.092 119.229 105.722C105.565 106.278 95.8255 113.037 91.5601 116.65C94.6356 121.379 94.0578 128.854 89.9459 136.541C88.6992 140.685 88.0185 144.896 87.9037 149.076C87.9631 149.095 88.0228 149.112 88.083 149.129C88.9974 149.372 89.7252 149.335 90.0798 149.316H90.1171C90.1171 149.316 92.2819 149.223 94.6146 149.577C94.6771 149.577 96.0592 149.812 97.9847 150.829C98.0758 150.857 98.1626 150.903 98.2395 150.967C98.5382 151.131 98.8487 151.315 99.1681 151.518C100.932 152.652 102.992 154.978 104.821 158.269C104.839 158.296 104.855 158.325 104.869 158.354C106.543 161.389 108.02 165.233 108.891 169.713C109.968 175.206 109.976 180.865 108.93 186.55C109.415 186.413 109.936 186.298 110.496 186.21C112.264 185.925 113.69 186.169 114.676 186.337L114.807 186.36C116.99 186.751 118.147 187.423 119.062 187.965L119.156 188.019C119.85 188.419 120.333 188.697 121.226 188.804C122.197 188.916 122.645 188.711 123.54 188.282C124.548 187.797 125.929 187.143 128.56 186.77C130.281 186.523 131.815 186.498 133.107 186.693ZM107.302 187.141C108.481 181.345 108.532 175.567 107.435 169.993C106.603 165.734 105.224 162.088 103.67 159.217C102.27 158.526 100.938 158.244 99.6906 158.404C99.2875 158.449 98.98 158.542 98.6724 158.634C98.5955 158.657 98.5187 158.68 98.4403 158.703L98.3068 158.743L98.3067 158.743C97.8364 158.884 97.3031 159.044 96.5368 159.095C96.4265 159.101 96.3175 159.105 96.2101 159.106C96.162 159.113 96.113 159.113 96.0702 159.113L96.0636 159.107C94.3606 159.096 93.0475 158.508 92.3864 158.212L92.3863 158.212L92.3566 158.199C90.3794 157.301 88.9841 155.661 88.0294 154.053C88.4871 160.429 90.3055 172.733 97.5257 179.697C97.6004 179.772 97.6937 179.865 97.8057 179.959L97.8166 179.969C98.9951 181.091 101.207 183.198 102.751 186.658C103.203 187.668 103.568 188.716 103.844 189.802C104.545 188.91 105.643 187.895 107.302 187.141ZM109.787 189.793C108.937 189.726 108.076 189.811 107.207 190.048C108.073 189.453 109.257 188.927 110.869 188.674C112.306 188.431 113.426 188.636 114.34 188.804C116.094 189.122 116.953 189.625 117.774 190.111L117.803 190.127C118.633 190.607 119.489 191.102 120.928 191.268C122.599 191.47 123.547 191.021 124.555 190.544L124.604 190.521C125.5 190.092 126.638 189.551 128.896 189.234C131.882 188.804 133.412 189.215 134.047 189.513C134.431 189.688 134.774 189.891 135.076 190.104C133.14 189.596 131.345 189.606 129.717 190.129C126.973 191.019 125.519 193.144 124.347 194.855L124.324 194.888L124.318 194.897C123.294 196.404 122.474 197.613 121.133 197.706C119.548 197.836 118.28 196.327 116.807 194.575L116.803 194.571L116.789 194.553C115.019 192.449 113.006 190.054 109.787 189.793ZM97.2996 152.123C96.7331 151.821 96.2238 151.6 95.7956 151.437C96.4282 152.491 96.6044 153.766 96.2381 154.933C95.8364 156.203 94.9293 156.943 94.2115 157.347C94.7027 157.495 95.2829 157.613 95.936 157.629C97.1387 157.157 97.998 156.122 98.1603 154.896C98.363 153.51 97.5869 152.462 97.2996 152.123ZM98.9015 157.049C99.0854 157.009 99.2847 156.974 99.504 156.949C100.454 156.826 101.445 156.91 102.464 157.191C101.522 155.755 100.553 154.595 99.6289 153.743C99.6928 154.16 99.7046 154.615 99.6346 155.101C99.533 155.805 99.2792 156.466 98.9015 157.049ZM85.419 148.405C85.5224 145.784 85.8373 143.157 86.3619 140.539C84.1624 139.823 82.0285 139.574 80.0209 139.817C76.9965 140.169 75.2081 141.444 73.3352 142.78L73.3027 142.803L73.2625 142.831C71.683 143.956 70.0655 145.107 67.7653 145.641C68.2334 145.741 68.7783 145.835 69.3839 145.901C70.9764 146.084 71.9225 145.585 72.9268 145.055L72.9856 145.024C74.0306 144.464 75.1317 143.885 76.7739 144.165C77.9869 144.371 78.6028 144.874 79.3306 145.49L79.3797 145.531C80.002 146.044 80.7098 146.627 82.0552 147.263C83.1213 147.769 84.2474 148.154 85.419 148.405ZM64.0433 145.915C63.4577 145.879 62.9221 145.815 62.4228 145.751C60.9486 145.565 59.6796 145.415 57.8134 146.031C56.8803 146.33 55.9845 146.759 55.1261 147.319C56.6377 147.842 58.056 148.513 59.381 149.334C61.0979 150.417 62.2736 151.518 62.964 152.19C64.2903 153.442 64.8893 154.277 65.4071 154.998L65.4274 155.026L65.5414 155.182L65.5414 155.182C65.9039 155.679 66.2352 156.133 66.827 156.725L66.8426 156.74C67.7873 157.685 70.2434 160.141 73.8439 160.438C75.9527 160.625 77.7442 160.252 79.1438 159.337C79.7037 158.964 80.1142 158.572 80.5435 158.161L80.5519 158.153C81.1844 157.539 81.9115 156.834 83.1935 156.202C83.9532 155.822 84.7645 155.545 85.6157 155.366C85.5301 154.361 85.4717 153.42 85.4329 152.563C85.3913 151.667 85.3748 150.77 85.3832 149.872C83.9973 149.595 82.6667 149.151 81.4207 148.551C79.8718 147.823 79.0507 147.133 78.3975 146.573C77.7443 146.031 77.3524 145.714 76.55 145.584C75.393 145.397 74.6465 145.789 73.6947 146.293C72.575 146.89 71.306 147.562 69.2346 147.338C67.1856 147.105 65.7909 146.604 65.462 146.486C65.4224 146.471 65.3982 146.463 65.3902 146.461C65.3436 146.442 65.2923 146.419 65.2409 146.395C65.1896 146.372 65.1383 146.349 65.0916 146.33L65.0312 146.304C64.7533 146.185 64.4365 146.049 64.0433 145.915ZM34.9996 90.1188C36.3756 92.5397 37.3616 95.0721 37.976 97.6974C39.3197 103.389 38.3679 107.644 37.5095 111.395L37.5007 111.435C36.6828 115.096 35.9094 118.559 37.2669 123.059C37.5281 123.954 40.0848 131.848 47.5308 135.543C50.7407 137.148 56.2273 138.585 64.0652 136.365C66.9578 135.543 68.9919 134.405 70.7648 133.397L70.8247 133.364C73.2287 132.014 75.5156 130.729 79.0506 130.803C82.2045 130.878 85.3024 131.979 88.3256 134.088C91.5914 127.314 91.7967 120.819 88.8108 117.274C86.534 114.568 82.8203 114.082 81.2341 113.877C75.3432 113.115 70.6551 115.536 66.1195 117.878L66.062 117.908C61.1913 120.446 56.5818 122.835 51.2632 120.726C50.1995 120.315 49.1544 119.7 48.2213 118.972C43.8358 115.557 43.276 110.499 42.7348 105.61C42.2682 101.43 41.783 97.1002 38.9837 93.5544C37.9263 92.2187 36.5921 91.0673 34.9996 90.1188ZM142.444 153.543C141.041 154.649 139.899 155.957 138.963 157.367C140.187 156.941 141.372 156.802 142.52 156.949C142.751 156.976 142.959 157.013 143.151 157.055C142.768 156.469 142.51 155.8 142.407 155.082C142.327 154.525 142.354 154.009 142.444 153.543ZM146.149 157.627C146.772 157.605 147.332 157.489 147.81 157.346C147.092 156.942 146.187 156.202 145.785 154.933C145.41 153.736 145.605 152.425 146.278 151.356C145.866 151.511 145.376 151.721 144.832 152.003C144.826 152.009 144.821 152.016 144.815 152.022C144.628 152.227 143.658 153.347 143.882 154.877C144.064 156.118 144.925 157.162 146.149 157.627ZM156.677 149.823C156.687 150.745 156.67 151.664 156.628 152.582C156.589 153.44 156.53 154.382 156.444 155.388C157.289 155.568 158.094 155.843 158.848 156.221C160.131 156.852 160.858 157.558 161.49 158.172L161.498 158.18L161.604 158.282C161.996 158.658 162.384 159.031 162.898 159.356C164.298 160.27 166.071 160.625 168.198 160.457C171.798 160.16 174.255 157.704 175.199 156.759L175.215 156.743C175.807 156.151 176.138 155.698 176.5 155.201L176.5 155.201L176.501 155.201L176.615 155.045L176.635 155.017L176.635 155.017C177.153 154.295 177.752 153.461 179.078 152.208L179.106 152.182C179.8 151.525 180.967 150.421 182.661 149.353C183.986 148.513 185.404 147.842 186.916 147.338C186.057 146.778 185.162 146.349 184.229 146.05C182.362 145.434 181.093 145.583 179.619 145.77C179.08 145.839 178.5 145.908 177.859 145.942C177.448 146.085 177.046 146.246 176.652 146.423H176.615L176.606 146.427L176.587 146.434C176.369 146.518 174.922 147.073 172.77 147.3C170.699 147.524 169.43 146.853 168.31 146.255C167.358 145.752 166.612 145.36 165.455 145.546C164.685 145.672 164.293 145.986 163.686 146.472L163.607 146.535L163.572 146.565C162.924 147.102 162.105 147.781 160.584 148.514C159.355 149.106 158.043 149.546 156.677 149.823ZM174.176 145.636C171.904 145.088 170.295 143.939 168.739 142.821C166.854 141.459 165.063 140.19 162.021 139.836C160.002 139.593 157.886 139.84 155.696 140.552C156.218 143.154 156.533 145.767 156.639 148.371C157.798 148.118 158.913 147.745 159.968 147.245C161.314 146.608 162.021 146.025 162.644 145.512L162.693 145.472L162.739 145.434C163.447 144.853 164.062 144.348 165.25 144.147C166.879 143.869 167.958 144.436 169.014 144.992L169.038 145.005L169.044 145.008C170.068 145.548 171.019 146.05 172.64 145.882C173.212 145.817 173.728 145.729 174.176 145.636ZM171.259 133.397C168.907 132.054 166.668 130.803 163.29 130.803H163.271H162.954C159.8 130.878 156.684 131.979 153.679 134.088C150.432 127.314 150.208 120.819 153.194 117.274C155.471 114.568 159.184 114.082 160.771 113.877C166.686 113.093 171.389 115.538 175.943 117.908C180.813 120.446 185.423 122.835 190.741 120.726C191.805 120.315 192.85 119.7 193.783 118.972C198.169 115.557 198.729 110.499 199.27 105.61C199.736 101.43 200.222 97.1002 203.021 93.5544C204.085 92.2108 205.428 91.0538 207.033 90.102C205.671 92.5467 204.663 95.0847 204.047 97.6974C202.722 103.389 203.674 107.644 204.514 111.395L204.523 111.435C205.341 115.096 206.114 118.559 204.756 123.059C204.477 123.936 201.939 131.848 194.492 135.543C191.283 137.148 185.796 138.585 177.958 136.365C175.082 135.548 173.073 134.418 171.289 133.415L171.259 133.397ZM122.029 153.627C123.242 154.429 124.548 155.045 125.91 155.306C126.582 155.437 127.273 155.493 127.944 155.437H127.945C128.15 155.437 128.318 155.437 128.486 155.4C128.598 155.4 128.71 155.383 128.821 155.366C128.877 155.358 128.933 155.35 128.989 155.344C129.325 155.288 129.661 155.213 129.979 155.12C131.304 154.746 132.517 154.037 133.618 153.16C134.737 152.283 135.689 151.238 136.454 150.062C136.861 149.437 137.205 148.758 137.562 148.055C137.875 147.437 138.198 146.799 138.582 146.162C138.992 145.49 139.496 144.818 140.075 144.258C140.653 143.68 141.306 143.213 141.997 142.803C142.687 142.392 143.415 142.075 144.162 141.832C144.908 141.571 145.673 141.422 146.438 141.31C147.203 141.198 147.969 141.142 148.752 141.142C149.517 141.142 150.283 141.179 151.029 141.273C151.253 141.291 151.421 141.497 151.384 141.72C151.365 141.926 151.197 142.075 150.992 142.075C149.517 142.112 148.062 142.224 146.662 142.523C145.263 142.822 143.919 143.325 142.743 144.053C142.165 144.426 141.605 144.856 141.138 145.322C140.653 145.807 140.261 146.349 139.907 146.946C139.654 147.371 139.43 147.834 139.201 148.307C139.108 148.499 139.014 148.693 138.918 148.887C138.582 149.558 138.227 150.249 137.798 150.921C137.369 151.574 136.883 152.227 136.342 152.806C135.801 153.384 135.204 153.907 134.588 154.392C133.356 155.362 131.919 156.146 130.352 156.538C129.96 156.631 129.568 156.725 129.157 156.762L129.154 156.762L128.922 156.783C128.833 156.792 128.746 156.8 128.662 156.808L128.56 156.818H127.982C127.179 156.837 126.358 156.743 125.574 156.519C124.025 156.071 122.644 155.213 121.581 154.093C121.45 153.963 121.469 153.757 121.581 153.627C121.693 153.515 121.861 153.515 121.991 153.589L122.029 153.627ZM157.971 130.075C158.12 130.281 158.344 130.393 158.587 130.393C158.718 130.393 158.867 130.355 158.998 130.262C159.333 130.038 159.408 129.572 159.184 129.236C157.803 127.22 157.15 124.682 157.374 122.256C157.598 119.83 158.736 117.46 160.472 115.743C160.752 115.463 160.752 114.997 160.472 114.698C160.192 114.418 159.725 114.418 159.427 114.698C157.449 116.658 156.161 119.364 155.9 122.126C155.638 124.887 156.404 127.78 157.971 130.075ZM162.954 129.217C162.656 129.217 162.376 129.03 162.264 128.732C161.424 126.362 161.349 123.749 162.077 121.342C162.805 118.934 164.298 116.788 166.295 115.277C166.612 115.034 167.078 115.09 167.321 115.426C167.564 115.743 167.508 116.21 167.172 116.452C165.417 117.777 164.111 119.662 163.477 121.771C162.842 123.88 162.898 126.175 163.645 128.247C163.775 128.639 163.589 129.049 163.197 129.18C163.122 129.217 163.029 129.217 162.954 129.217ZM167.209 128.527C167.284 128.863 167.582 129.086 167.918 129.086C167.946 129.086 167.974 129.082 168.002 129.077C168.03 129.072 168.058 129.068 168.086 129.068C168.478 128.975 168.72 128.583 168.627 128.191C167.843 124.869 169.262 121.174 172.061 119.214C172.397 118.972 172.471 118.524 172.248 118.188C172.005 117.852 171.557 117.777 171.221 118.001C167.955 120.297 166.294 124.626 167.209 128.527ZM124.66 185.669C124.455 185.669 124.231 185.576 124.082 185.389C123.82 185.072 123.876 184.605 124.194 184.344C126.097 182.795 128.896 182.385 131.173 183.355C131.546 183.523 131.714 183.952 131.565 184.325C131.397 184.699 130.968 184.867 130.595 184.717C128.822 183.952 126.62 184.269 125.127 185.482C124.996 185.594 124.828 185.65 124.66 185.65V185.669ZM120.424 154.131C119.36 155.25 117.998 156.127 116.43 156.557C115.665 156.781 114.844 156.874 114.023 156.855H113.444C113.239 156.855 113.034 156.837 112.847 156.799C112.436 156.762 112.045 156.669 111.653 156.575L111.653 156.575C110.085 156.183 108.648 155.4 107.416 154.429C106.801 153.944 106.203 153.421 105.662 152.843C105.121 152.264 104.636 151.63 104.207 150.958C103.777 150.286 103.423 149.596 103.087 148.924C102.996 148.742 102.907 148.561 102.82 148.382L102.818 148.377L102.817 148.375L102.816 148.373L102.816 148.373C102.582 147.895 102.355 147.429 102.098 146.983C101.743 146.386 101.351 145.826 100.866 145.36C100.4 144.893 99.8397 144.464 99.2612 144.091C98.0855 143.363 96.7418 142.859 95.3422 142.56C93.9426 142.243 92.4869 142.15 91.0127 142.112C90.7887 142.112 90.6021 141.926 90.6208 141.702C90.6208 141.497 90.7887 141.329 90.9753 141.31C91.7218 141.235 92.4869 141.179 93.2521 141.179C94.0172 141.179 94.7823 141.235 95.5661 141.347C96.3313 141.459 97.0964 141.627 97.8429 141.87C98.5893 142.112 99.3172 142.43 100.008 142.84C100.698 143.251 101.351 143.717 101.93 144.296C102.508 144.856 103.012 145.527 103.423 146.199C103.807 146.837 104.13 147.474 104.443 148.092L104.443 148.092L104.443 148.092L104.443 148.092L104.443 148.092L104.443 148.092L104.443 148.093L104.443 148.093L104.443 148.093L104.443 148.093L104.443 148.093L104.443 148.093L104.443 148.093L104.443 148.093L104.444 148.093L104.444 148.093L104.444 148.093L104.444 148.094L104.444 148.094L104.444 148.094L104.444 148.094L104.444 148.094L104.444 148.094L104.444 148.094L104.444 148.094L104.444 148.094L104.444 148.094L104.444 148.094L104.444 148.095L104.444 148.095L104.444 148.095L104.444 148.095L104.444 148.095L104.444 148.095L104.444 148.095L104.444 148.095L104.445 148.095L104.445 148.095L104.445 148.095L104.445 148.096L104.445 148.096L104.445 148.096C104.8 148.798 105.144 149.475 105.55 150.1C106.315 151.275 107.267 152.302 108.387 153.197C109.488 154.075 110.701 154.784 112.026 155.157C112.362 155.25 112.679 155.325 113.015 155.381L113.519 155.437C113.66 155.437 113.802 155.45 113.966 155.465L114.06 155.474C114.732 155.53 115.422 155.474 116.094 155.344C117.438 155.082 118.744 154.466 119.976 153.664C120.125 153.571 120.33 153.608 120.424 153.757C120.517 153.888 120.48 154.056 120.386 154.168L120.424 154.131ZM83.0254 130.262C83.1374 130.356 83.2867 130.393 83.436 130.393C83.6786 130.393 83.9025 130.281 84.0518 130.076C85.6381 127.799 86.3846 124.906 86.1233 122.126C85.862 119.345 84.5744 116.639 82.5962 114.698C82.2976 114.4 81.8311 114.4 81.5511 114.698C81.2526 114.997 81.2526 115.463 81.5511 115.743C83.2867 117.46 84.4251 119.83 84.649 122.256C84.8729 124.682 84.2198 127.22 82.8388 129.236C82.6149 129.572 82.6895 130.038 83.0254 130.262ZM79.0693 129.217C79.0693 129.217 78.9013 129.217 78.8267 129.18C78.4348 129.049 78.2481 128.62 78.3788 128.247C79.1252 126.175 79.1812 123.88 78.5467 121.771C77.9122 119.662 76.6059 117.777 74.8517 116.453C74.5344 116.21 74.4598 115.743 74.7024 115.426C74.945 115.109 75.4115 115.034 75.7288 115.277C77.7256 116.788 79.2372 118.935 79.9464 121.342C80.6742 123.749 80.5995 126.362 79.7597 128.732C79.6478 129.031 79.3679 129.217 79.0693 129.217ZM73.9373 129.068C73.9933 129.087 74.1052 129.087 74.1052 129.087C74.4412 129.087 74.7397 128.863 74.8144 128.527C75.7475 124.626 74.0866 120.297 70.8021 118.001C70.4662 117.777 69.9996 117.852 69.7757 118.188C69.5518 118.524 69.6264 118.99 69.9623 119.214C72.7616 121.174 74.1799 124.869 73.3961 128.191C73.3028 128.583 73.5454 128.975 73.9373 129.068ZM117.363 185.669C117.195 185.669 117.027 185.613 116.897 185.501C115.404 184.288 113.202 183.971 111.429 184.736C111.056 184.904 110.626 184.736 110.458 184.344C110.29 183.971 110.458 183.542 110.85 183.374C113.108 182.403 115.926 182.814 117.83 184.363C118.147 184.624 118.184 185.091 117.942 185.408C117.792 185.594 117.587 185.688 117.363 185.688V185.669ZM123.914 199.871C123.335 199.908 122.645 200.151 122.365 200.71C122.104 201.197 122.313 201.749 122.358 201.867C122.361 201.876 122.363 201.882 122.365 201.886C122.85 202.987 124.623 203.174 125.257 203.23C127.683 203.472 129.568 202.334 130.445 201.793C131.416 201.196 132.218 200.692 132.722 199.665C132.946 199.236 133.562 197.855 132.853 196.586C132.33 195.634 131.136 195.075 130.109 195.392C129.102 195.709 128.486 196.679 127.945 197.594C127.403 198.49 126.769 199.46 125.761 199.759C125.363 199.871 124.948 199.866 124.534 199.862C124.326 199.86 124.119 199.858 123.914 199.871ZM119.808 200.71C119.528 200.151 118.838 199.908 118.259 199.871C118.054 199.858 117.846 199.86 117.639 199.862C117.224 199.866 116.81 199.871 116.412 199.759C115.404 199.46 114.769 198.49 114.228 197.594C113.687 196.679 113.071 195.709 112.063 195.392C111.037 195.075 109.843 195.634 109.32 196.586C108.611 197.855 109.227 199.236 109.451 199.665C109.955 200.692 110.757 201.196 111.727 201.793C112.605 202.334 114.489 203.472 116.915 203.23C117.55 203.174 119.323 202.987 119.808 201.886C119.809 201.882 119.812 201.876 119.815 201.867C119.86 201.749 120.069 201.197 119.808 200.71ZM141.381 115.314C141.269 115.314 141.138 115.295 141.045 115.221C135.372 112.216 128.971 110.462 122.57 110.163C116.393 109.865 110.066 110.891 104.3 113.149C103.927 113.299 103.497 113.112 103.348 112.739C103.199 112.366 103.385 111.936 103.759 111.787C109.73 109.454 116.262 108.391 122.644 108.708C129.269 109.044 135.857 110.854 141.735 113.952C142.09 114.138 142.239 114.586 142.034 114.941C141.903 115.183 141.642 115.333 141.381 115.333V115.314ZM173.573 197.127C173.386 197.202 173.386 197.445 173.573 197.519V197.501C173.799 197.586 174.067 197.668 174.361 197.759L174.363 197.759L174.363 197.76L174.364 197.76L174.364 197.76L174.364 197.76C175.425 198.087 176.834 198.521 177.958 199.572C179.292 200.831 179.831 203.124 180.214 204.751L180.214 204.752L180.215 204.753C180.309 205.152 180.393 205.511 180.478 205.805C180.534 206.029 180.832 206.011 180.888 205.805C180.954 205.54 181.019 205.222 181.091 204.871L181.092 204.87L181.092 204.87C181.411 203.322 181.863 201.128 183.034 199.927C184.288 198.626 185.883 198.115 187.014 197.753C187.23 197.683 187.43 197.62 187.606 197.557C187.812 197.501 187.812 197.221 187.606 197.165C186.505 196.866 184.21 196.138 182.642 194.496C181.465 193.273 181.19 191.199 180.985 189.658C180.94 189.318 180.898 189.003 180.851 188.73C180.813 188.506 180.496 188.506 180.44 188.711C180.34 189.049 180.242 189.455 180.135 189.896L180.134 189.897L180.134 189.897C179.763 191.427 179.289 193.383 178.275 194.44C176.897 195.852 175.172 196.512 174.014 196.956L174.014 196.956L173.906 196.997C173.788 197.043 173.677 197.086 173.573 197.127ZM46.4671 179.791C46.2805 179.865 46.2805 180.108 46.4671 180.182V180.164C46.6947 180.249 46.9629 180.332 47.2582 180.423C48.319 180.75 49.7286 181.184 50.8526 182.235C52.1861 183.494 52.7256 185.787 53.1087 187.415L53.1087 187.415C53.2027 187.814 53.2874 188.174 53.372 188.468C53.428 188.692 53.7266 188.674 53.7825 188.468C53.8481 188.202 53.9137 187.884 53.9861 187.533C54.3053 185.985 54.7575 183.791 55.9286 182.59C57.182 181.289 58.7775 180.778 59.9087 180.416L59.9088 180.416L59.9092 180.416C60.1252 180.346 60.3243 180.283 60.5008 180.22C60.7061 180.164 60.7061 179.884 60.5008 179.828C59.3997 179.529 57.1043 178.801 55.5367 177.159C54.3598 175.936 54.0842 173.862 53.8795 172.321C53.8343 171.981 53.7925 171.666 53.7452 171.393C53.7079 171.169 53.3906 171.169 53.3347 171.374C53.2343 171.713 53.1358 172.119 53.0288 172.56C52.6579 174.09 52.1836 176.046 51.1699 177.103C49.7913 178.515 48.0664 179.176 46.9089 179.619L46.9087 179.619L46.9076 179.619L46.9007 179.622L46.9004 179.622L46.8959 179.624L46.8903 179.626C46.7386 179.684 46.5968 179.739 46.4671 179.791ZM161.778 87.3028C161.778 88.4785 160.827 89.4302 159.651 89.4302C158.475 89.4302 157.524 88.4785 157.524 87.3028C157.524 86.1271 158.475 85.1753 159.651 85.1753C160.827 85.1753 161.778 86.1271 161.778 87.3028ZM186.692 76.9453C186.692 78.121 185.74 79.0727 184.564 79.0727C183.389 79.0727 182.437 78.121 182.437 76.9453C182.437 75.7696 183.389 74.8178 184.564 74.8178C185.74 74.8178 186.692 75.7696 186.692 76.9453ZM88.4748 58.6382C89.6505 58.6382 90.6023 57.6865 90.6023 56.5108C90.6023 55.3351 89.6505 54.3833 88.4748 54.3833C87.2991 54.3833 86.3474 55.3351 86.3474 56.5108C86.3474 57.6865 87.2991 58.6382 88.4748 58.6382ZM31.2762 150.174C31.2762 151.35 30.3244 152.302 29.1488 152.302C27.9731 152.302 27.0213 151.35 27.0213 150.174C27.0213 148.999 27.9731 148.047 29.1488 148.047C30.3244 148.047 31.2762 148.999 31.2762 150.174ZM77.0164 217.879C78.1921 217.879 79.1439 216.928 79.1439 215.752C79.1439 214.576 78.1921 213.624 77.0164 213.624C75.8408 213.624 74.889 214.576 74.889 215.752C74.889 216.928 75.8408 217.879 77.0164 217.879ZM123.97 233.872C123.97 235.048 123.018 236 121.842 236C120.666 236 119.715 235.048 119.715 233.872C119.715 232.697 120.666 231.745 121.842 231.745C123.018 231.745 123.97 232.697 123.97 233.872ZM213.863 152.731C213.863 153.906 212.911 154.858 211.736 154.858C210.561 154.858 209.609 153.906 209.609 152.731C209.609 151.556 210.561 150.604 211.736 150.604C212.911 150.604 213.863 151.556 213.863 152.731ZM208.451 185.37C209.626 185.37 210.579 184.418 210.579 183.243C210.579 182.068 209.626 181.115 208.451 181.115C207.276 181.115 206.324 182.068 206.324 183.243C206.324 184.418 207.276 185.37 208.451 185.37ZM163.925 186.415C165.1 186.415 166.052 185.464 166.052 184.288C166.052 183.112 165.1 182.16 163.925 182.16C162.749 182.16 161.797 183.112 161.797 184.288C161.797 185.464 162.749 186.415 163.925 186.415ZM91.2554 94.5435C92.1109 94.5435 92.8044 93.85 92.8044 92.9946C92.8044 92.1391 92.1109 91.4456 91.2554 91.4456C90.4 91.4456 89.7065 92.1391 89.7065 92.9946C89.7065 93.85 90.4 94.5435 91.2554 94.5435ZM133.524 94.9727C134.383 94.9727 135.073 94.2822 135.073 93.4238C135.073 92.5654 134.383 91.8749 133.524 91.8749C132.666 91.8749 131.975 92.5654 131.975 93.4238C131.975 94.2822 132.666 94.9727 133.524 94.9727ZM151.57 68.7155C151.57 69.5739 150.88 70.2644 150.021 70.2644C149.163 70.2644 148.472 69.5739 148.472 68.7155C148.472 67.857 149.163 67.1665 150.021 67.1665C150.88 67.1665 151.57 67.857 151.57 68.7155ZM64.0278 52.8904C64.0278 53.7488 63.3373 54.4393 62.4788 54.4393C61.6204 54.4393 60.9299 53.7488 60.9299 52.8904C60.9299 52.0319 61.6204 51.3415 62.4788 51.3415C63.3373 51.3415 64.0278 52.0319 64.0278 52.8904ZM77.2777 190.745C78.1361 190.745 78.8266 190.054 78.8266 189.196C78.8266 188.337 78.1361 187.647 77.2777 187.647C76.4192 187.647 75.7288 188.337 75.7288 189.196C75.7288 190.054 76.4192 190.745 77.2777 190.745ZM49.8075 202.726C49.8075 203.584 49.117 204.275 48.2586 204.275C47.4001 204.275 46.7097 203.584 46.7097 202.726C46.7097 201.867 47.4001 201.177 48.2586 201.177C49.117 201.177 49.8075 201.867 49.8075 202.726ZM159.931 228.031C159.931 228.887 159.237 229.58 158.382 229.58C157.526 229.58 156.833 228.887 156.833 228.031C156.833 227.176 157.526 226.482 158.382 226.482C159.237 226.482 159.931 227.176 159.931 228.031ZM96.1821 231.857C97.0375 231.857 97.731 231.163 97.731 230.308C97.731 229.452 97.0375 228.759 96.1821 228.759C95.3266 228.759 94.6331 229.452 94.6331 230.308C94.6331 231.163 95.3266 231.857 96.1821 231.857ZM187.196 171.075C188.054 171.075 188.744 170.385 188.744 169.526C188.744 168.668 188.054 167.978 187.196 167.978C186.337 167.978 185.647 168.668 185.647 169.526C185.647 170.385 186.337 171.075 187.196 171.075ZM221.739 124.626C221.739 125.485 221.048 126.175 220.19 126.175C219.331 126.175 218.641 125.485 218.641 124.626C218.641 123.768 219.331 123.077 220.19 123.077C221.048 123.077 221.739 123.768 221.739 124.626ZM18.5489 124.645C19.4074 124.645 20.0979 123.954 20.0979 123.096C20.0979 122.238 19.4074 121.547 18.5489 121.547C17.6905 121.547 17 122.238 17 123.096C17 123.954 17.6905 124.645 18.5489 124.645ZM69.8316 100.049C69.8316 100.646 69.3464 101.131 68.7492 101.131C68.152 101.131 67.6668 100.646 67.6668 100.049C67.6668 99.4515 68.152 98.9663 68.7492 98.9663C69.3464 98.9663 69.8316 99.4515 69.8316 100.049ZM143.49 35.3855C144.087 35.3855 144.572 34.9003 144.572 34.3031C144.572 33.7059 144.087 33.2207 143.49 33.2207C142.893 33.2207 142.407 33.7059 142.407 34.3031C142.407 34.9003 142.893 35.3855 143.49 35.3855ZM154.724 205.17C154.724 205.768 154.239 206.253 153.642 206.253C153.045 206.253 152.56 205.768 152.56 205.17C152.56 204.573 153.045 204.088 153.642 204.088C154.239 204.088 154.724 204.573 154.724 205.17ZM30.2313 173.763C30.8285 173.763 31.3137 173.278 31.3137 172.68C31.3137 172.083 30.8285 171.598 30.2313 171.598C29.6341 171.598 29.1489 172.083 29.1489 172.68C29.1489 173.278 29.6341 173.763 30.2313 173.763Z" fill="url(#paint13_linear_89_28077)"/>
<path opacity="0.4" fill-rule="evenodd" clip-rule="evenodd" d="M329.123 269.965C326.448 261.027 322.56 252.529 317.518 244.665C311.563 235.374 304.154 227.208 295.522 220.341C295.018 219.934 294.882 219.255 295.173 218.693C295.464 218.15 296.104 217.878 296.705 218.053C307.218 221.175 316.956 226.742 324.869 234.171C336.527 245.111 341.958 257.641 344.499 266.738C346.904 265.594 350.26 264.488 354.333 264.411C358.718 264.331 362.329 265.48 364.91 266.696C367.47 257.612 372.906 245.164 384.495 234.288C392.428 226.82 402.166 221.253 412.678 218.13C413.28 217.956 413.92 218.227 414.211 218.79C414.502 219.352 414.347 220.031 413.862 220.419C405.211 227.286 397.821 235.471 391.866 244.742C386.824 252.607 382.936 261.105 380.261 270.043C381.865 269.528 383.477 269.189 385.097 269.027C387.036 268.833 388.937 268.891 391.129 268.968C394.097 269.065 397.801 269.182 403.213 268.716C406.413 268.445 409.633 268.037 412.775 267.475C413.435 267.359 414.075 267.746 414.269 268.387C414.463 269.027 414.133 269.705 413.532 269.977C411.127 271.005 409.187 272.46 407.791 274.302C406.763 275.66 406.355 276.727 405.928 277.891L405.889 277.995C405.436 279.205 404.962 280.471 403.737 281.828C400.691 285.262 396.308 285.824 393.689 286.134C388.491 286.794 384.03 285.32 381.101 283.904C381.217 285.843 381.644 287.667 382.342 289.374C383.284 291.643 384.493 293.035 385.761 294.495L385.795 294.533L385.815 294.556C387.069 296.004 388.361 297.494 389.403 299.809C391.51 304.545 390.92 309.089 390.723 310.598L390.722 310.613C390.531 312.036 390.191 313.327 389.739 314.51C393.978 324.045 393.933 332.08 393.107 337.206C391.381 348.01 384.515 358.93 375.165 365.738C374.196 366.436 373.206 367.096 372.159 367.775L372.138 367.789C369.059 369.822 365.594 372.11 361.568 376.503C359.321 378.955 357.288 381.655 355.518 384.502C355.486 384.719 355.363 384.918 355.167 385.038L355.152 385.048C355.012 385.178 354.823 385.251 354.624 385.251V385.232C354.489 385.232 354.353 385.193 354.236 385.115C353.977 384.965 353.843 384.681 353.867 384.404C352.097 381.541 350.064 378.858 347.816 376.406C343.801 372.023 340.31 369.714 337.226 367.697C336.999 367.546 336.775 367.398 336.553 367.251C335.751 366.719 334.979 366.208 334.219 365.661C324.87 358.872 318.004 347.932 316.277 337.128C315.453 332.014 315.407 323.987 319.616 314.497C319.149 313.292 318.799 311.974 318.605 310.516L318.599 310.474C318.4 308.939 317.81 304.402 319.924 299.712C320.971 297.365 322.271 295.872 323.532 294.437L323.565 294.398C324.833 292.938 326.042 291.546 326.984 289.277C327.702 287.57 328.109 285.747 328.226 283.807C325.297 285.243 320.836 286.697 315.637 286.038L315.614 286.035C312.993 285.705 308.626 285.155 305.59 281.732C304.348 280.316 303.863 279.036 303.398 277.794C302.971 276.65 302.564 275.564 301.536 274.206C300.139 272.383 298.2 270.928 295.794 269.88C295.174 269.609 294.863 268.93 295.057 268.29C295.251 267.65 295.891 267.262 296.551 267.378C299.693 267.941 302.913 268.348 306.113 268.62C311.545 269.085 315.23 268.969 318.198 268.872C320.389 268.794 322.29 268.736 324.23 268.93C325.868 269.094 327.5 269.44 329.123 269.965ZM360.463 375.436C358.351 377.751 356.431 380.242 354.727 382.884C353.011 380.209 351.074 377.679 348.941 375.359C344.818 370.849 341.236 368.483 338.099 366.411L338.099 366.411L338.079 366.398C337.032 365.719 336.062 365.079 335.131 364.4C326.247 357.941 319.439 347.137 317.81 336.876C317.06 332.199 316.984 324.977 320.483 316.387C321.548 318.38 322.928 320.042 324.378 321.533C322.425 326.367 321.642 331.311 322.077 336.255C322.135 336.876 323.512 351.288 334.976 359.9C337.118 361.502 339.082 362.532 340.97 363.522L341.202 363.643L341.209 363.647C344.465 365.333 347.275 366.788 350.202 370.607C351.725 372.571 352.954 374.778 353.886 377.162C353.798 377.475 353.915 377.828 354.198 378.016C354.324 378.107 354.451 378.147 354.594 378.152C354.584 378.152 354.575 378.152 354.566 378.152H354.624C354.614 378.152 354.604 378.152 354.594 378.152C354.724 378.147 354.848 378.105 354.959 378.036C354.976 378.03 354.994 378.024 355.012 378.016C355.291 377.905 355.479 377.643 355.506 377.361C357.216 374.868 359.132 372.516 361.239 370.355C364.6 366.898 367.058 365.359 369.41 363.887L369.521 363.818L369.566 363.79C371.411 362.637 373.146 361.553 375.224 359.667C383.7 352.006 385.814 341.473 386.338 337.303C386.991 332.094 386.507 326.835 384.885 321.683C386.379 320.15 387.802 318.442 388.888 316.385C392.421 325.01 392.346 332.263 391.594 336.954C389.965 347.214 383.157 358.018 374.273 364.477C373.33 365.151 372.367 365.787 371.347 366.46L371.325 366.475C368.183 368.551 364.614 370.917 360.463 375.436ZM354.895 375.628C356.494 373.382 358.275 371.253 360.191 369.288C363.667 365.717 366.203 364.12 368.631 362.59L368.745 362.519L368.793 362.489C370.579 361.375 372.254 360.33 374.234 358.542C382.323 351.23 384.359 341.124 384.844 337.128C385.43 332.388 385.036 327.603 383.662 322.893C383.21 323.327 382.758 323.749 382.313 324.164L382.313 324.164L382.265 324.21L382.238 324.235C381.491 324.932 380.766 325.608 380.084 326.29C381.327 330.593 381.581 335.149 380.829 339.514C380.48 341.551 379.646 346.303 376.174 350.958C373.711 354.255 371.286 355.729 368.726 357.281L368.619 357.346C366.324 358.742 363.93 360.198 361.103 363.178C358.969 365.408 357.127 367.949 355.614 370.723C355.478 370.975 355.206 371.13 354.935 371.13L354.915 371.111C354.799 371.111 354.663 371.072 354.547 371.014C354.434 370.955 354.343 370.87 354.277 370.77C354.202 370.711 354.136 370.637 354.081 370.549C352.471 367.6 350.473 364.924 348.165 362.577C345.295 359.667 342.909 358.27 340.601 356.932C338.079 355.458 335.693 354.061 333.23 350.9C332.279 349.678 329.098 345.178 328.284 338.602C327.68 333.706 328.609 329.515 329.668 326.614C328.858 325.78 327.977 324.962 327.062 324.113L327.054 324.106C326.562 323.649 326.06 323.183 325.559 322.702C323.865 327.126 323.208 331.63 323.59 336.12L323.591 336.13C323.662 336.842 325.023 350.515 335.887 358.658C338.001 360.249 339.98 361.277 341.9 362.266L342.037 362.338C345.245 364.018 348.306 365.621 351.405 369.656C352.796 371.464 353.963 373.468 354.895 375.628ZM359.978 362.111C358.043 364.13 356.327 366.383 354.88 368.831C353.301 366.149 351.417 363.691 349.271 361.51C346.265 358.485 343.699 356.972 341.441 355.64L341.396 355.613L341.36 355.592C338.873 354.127 336.73 352.864 334.452 349.949C333.56 348.805 330.573 344.596 329.816 338.408C329.3 334.218 329.981 330.583 330.844 327.908C332.516 329.894 333.698 332.088 333.909 335.053C334.025 336.624 333.831 337.924 333.637 339.165C333.308 341.241 332.978 343.413 334.258 346.342C335.073 348.223 337.536 352.723 342.734 353.868C343.18 353.965 344.053 354.12 345.159 354.12L345.101 354.101C346.943 354.101 349.465 353.674 351.792 351.87C353.108 350.853 354.014 349.66 354.638 348.473C355.264 349.692 356.183 350.922 357.534 351.967C359.862 353.77 362.364 354.197 364.226 354.197L364.168 354.217C365.273 354.217 366.146 354.061 366.592 353.964C371.771 352.82 374.254 348.32 375.068 346.438C376.349 343.51 376.019 341.357 375.689 339.262C375.495 338.02 375.301 336.721 375.418 335.15C375.655 331.985 376.99 329.7 378.839 327.607C379.803 331.423 379.96 335.415 379.297 339.242L379.297 339.243C378.967 341.163 378.191 345.682 374.933 350.027C372.644 353.092 370.452 354.43 367.911 355.962C365.603 357.359 363.004 358.949 359.978 362.111ZM330.439 273.252C328.287 272.319 326.125 271.743 323.958 271.529C322.283 271.363 320.642 271.407 318.605 271.462L318.275 271.471C315.23 271.568 311.467 271.684 305.881 271.219L305.88 271.219C304.6 271.102 303.32 270.986 302.04 270.831C302.603 271.374 303.146 271.956 303.611 272.577C303.861 272.902 304.081 273.215 304.277 273.519C306.122 274.606 308.061 275.407 310.051 275.913C312.417 276.514 314.182 276.533 316.064 276.553L316.069 276.553C317.988 276.572 319.965 276.592 322.484 277.271C324.775 277.898 326.991 278.912 329.094 280.324C329.439 280.2 329.834 280.22 330.165 280.393C330.573 280.607 330.844 281.034 330.864 281.499C330.964 283.529 330.787 285.486 330.341 287.342C331.596 288.094 332.898 288.758 334.239 289.335C336.43 290.266 338.079 290.654 339.514 290.984C340.543 291.216 341.512 291.449 342.56 291.837C345.818 293.059 348.728 295.503 351.191 299.111C351.424 299.46 351.346 299.945 350.997 300.177C350.862 300.274 350.706 300.313 350.571 300.313L350.551 300.294C350.299 300.294 350.066 300.177 349.911 299.964C347.622 296.628 344.965 294.378 341.997 293.272C341.047 292.923 340.155 292.71 339.146 292.477C337.652 292.128 335.946 291.721 333.637 290.751C332.362 290.212 331.107 289.58 329.903 288.878C329.749 289.342 329.578 289.798 329.389 290.247C328.287 292.89 326.904 294.489 325.571 296.031L325.491 296.124C324.308 297.482 323.182 298.781 322.29 300.76C320.478 304.809 321.004 308.782 321.182 310.124L321.185 310.148C321.941 315.753 325.277 318.876 328.827 322.174L328.884 322.227C332.416 325.527 336.064 328.936 336.489 334.84C336.624 336.721 336.392 338.215 336.178 339.534C335.868 341.493 335.635 343.025 336.605 345.275C337.264 346.788 339.223 350.415 343.239 351.288C344.15 351.482 347.37 351.986 350.183 349.794C352.614 347.918 353.211 345.229 353.349 343.75C353.331 343.495 353.323 343.275 353.321 343.099C352.831 343.033 352.35 342.928 351.87 342.773C350.706 342.404 349.64 341.784 348.767 340.988C347.157 339.514 346.168 337.323 346.109 335.131C346.109 334.549 346.206 333.812 346.788 333.501C347.082 333.349 347.397 333.367 347.695 333.457C347.98 333.524 348.264 333.675 348.514 333.831C349.62 334.51 350.609 335.363 351.482 336.314C352.737 337.701 353.922 339.495 354.498 341.351C354.539 341.344 354.582 341.34 354.624 341.338C354.688 341.334 354.751 341.335 354.812 341.341C355.344 339.665 356.399 337.884 357.825 336.314C358.717 335.344 359.706 334.491 360.812 333.812C361.216 333.554 361.829 333.245 362.371 333.46C362.421 333.476 362.47 333.496 362.519 333.521C363.043 333.773 363.14 334.471 363.14 335.034L363.139 335.055L363.139 335.083L363.14 335.131C363.081 337.323 362.092 339.514 360.482 340.988C359.609 341.784 358.543 342.404 357.379 342.773C356.923 342.92 356.468 343.022 356.004 343.089C356 343.274 355.99 343.5 355.97 343.759C356.092 345.216 356.664 347.976 359.144 349.891C361.956 352.063 365.176 351.579 366.088 351.385C370.103 350.512 372.062 346.885 372.721 345.372C373.691 343.122 373.459 341.589 373.148 339.63C372.935 338.311 372.702 336.798 372.838 334.936C373.265 329.001 376.95 325.568 380.5 322.27C384.049 318.973 387.385 315.869 388.142 310.244L388.144 310.225C388.322 308.886 388.851 304.891 387.036 300.856C386.17 298.936 385.085 297.674 383.94 296.342L383.836 296.221L383.756 296.128L383.756 296.128L383.754 296.127L383.754 296.126C383.467 295.795 383.178 295.46 382.89 295.113C382.971 295.247 383.041 295.39 383.099 295.542C383.972 297.811 381.334 300.372 380.15 301.38C376.562 304.425 371.771 304.29 369.211 303.94C367.969 307.18 367.814 310.283 367.698 312.708C367.523 316.451 367.95 320.253 368.978 323.958C369.094 324.365 368.862 324.792 368.454 324.908C368.415 324.908 368.382 324.913 368.348 324.918C368.316 324.922 368.285 324.927 368.249 324.928C367.924 324.923 367.619 324.71 367.523 324.365C366.437 320.486 365.991 316.548 366.185 312.63L366.19 312.538C366.363 309.152 366.599 304.558 369.54 299.906L369.552 299.887C370.612 298.22 373.767 293.253 378.405 293.214H378.444C379.552 293.214 381.35 293.511 382.414 294.525C381.529 293.4 380.671 292.103 379.937 290.343C379.749 289.896 379.579 289.441 379.427 288.98C378.246 289.665 377.016 290.281 375.767 290.809C373.472 291.784 371.8 292.175 370.322 292.52L370.322 292.52L370.258 292.535C369.23 292.768 368.357 292.981 367.407 293.331C364.439 294.436 361.782 296.686 359.493 300.022C359.338 300.236 359.105 300.352 358.853 300.352L358.834 300.371C358.678 300.371 358.543 300.333 358.407 300.236C358.058 300.003 357.961 299.518 358.213 299.169C360.676 295.561 363.586 293.117 366.844 291.895C367.892 291.507 368.862 291.274 369.89 291.042C371.325 290.712 372.954 290.324 375.165 289.393C376.478 288.844 377.766 288.186 378.993 287.449C378.549 285.59 378.374 283.63 378.463 281.596C378.482 281.13 378.754 280.723 379.161 280.49C379.497 280.314 379.899 280.296 380.247 280.426C382.336 279.023 384.552 277.995 386.842 277.368C389.38 276.69 391.357 276.669 393.256 276.65L393.262 276.65C395.144 276.631 396.928 276.611 399.275 276.01C401.264 275.505 403.202 274.704 405.046 273.618C405.244 273.314 405.465 272.999 405.715 272.673C406.2 272.052 406.724 271.471 407.286 270.927C406.006 271.083 404.726 271.218 403.446 271.315C397.879 271.781 394.097 271.665 391.051 271.568L390.721 271.559C388.684 271.504 387.044 271.46 385.368 271.626C383.215 271.845 381.066 272.417 378.927 273.341C378.852 273.383 378.773 273.417 378.691 273.444C374.281 275.401 369.914 278.85 365.642 283.768C365.176 284.311 364.342 284.369 363.799 283.904C363.256 283.419 363.198 282.604 363.663 282.061C368.043 277.013 372.564 273.402 377.173 271.257C377.427 270.339 377.693 269.425 377.972 268.516C377.398 268.024 376.765 267.612 376.077 267.281C375.01 266.757 373.846 266.486 372.644 266.428C372.217 266.428 371.887 266.059 371.907 265.632C371.907 265.206 372.275 264.876 372.702 264.895C374.118 264.954 375.456 265.283 376.737 265.885C377.348 266.175 377.929 266.528 378.471 266.936C379.129 264.908 379.849 262.903 380.63 260.925C380.033 260.579 379.409 260.281 378.754 260.046C377.765 259.677 376.717 259.445 375.67 259.348C375.243 259.309 374.933 258.94 374.972 258.514C375.01 258.087 375.379 257.777 375.806 257.815C376.989 257.932 378.153 258.184 379.278 258.591C379.946 258.84 380.594 259.136 381.215 259.478C382.045 257.467 382.94 255.483 383.897 253.53C383.187 253.138 382.457 252.789 381.702 252.482C380.849 252.152 379.976 251.861 379.103 251.648C378.696 251.551 378.443 251.124 378.54 250.716C378.637 250.309 379.064 250.057 379.471 250.154C380.422 250.387 381.372 250.697 382.284 251.046C383.069 251.358 383.847 251.726 384.595 252.134C385.385 250.585 386.214 249.056 387.083 247.547C386.659 247.287 386.223 247.051 385.775 246.837C385.096 246.527 384.379 246.255 383.642 246.061C383.234 245.945 382.982 245.538 383.099 245.13C383.215 244.723 383.622 244.471 384.03 244.587C384.844 244.801 385.64 245.092 386.415 245.441C386.908 245.671 387.395 245.931 387.865 246.215C388.445 245.243 389.041 244.28 389.655 243.327C394.465 235.82 400.206 228.992 406.782 222.999C399.217 226.122 392.234 230.622 386.299 236.169C374.662 247.085 369.453 259.673 367.146 268.496C367.179 268.766 367.128 269.048 366.979 269.298C366.885 269.467 366.755 269.607 366.605 269.714C366.498 269.813 366.375 269.895 366.243 269.958C365.874 270.113 365.428 270.094 365.079 269.9C362.946 268.678 359.454 267.204 354.993 267.126C350.221 267.049 346.478 268.581 344.17 269.9C343.549 270.249 342.734 270.036 342.385 269.415C342.223 269.127 342.182 268.797 342.247 268.492C339.936 259.663 334.733 247.015 323.065 236.053C317.15 230.486 310.167 226.005 302.583 222.882C309.158 228.876 314.9 235.704 319.71 243.21C320.331 244.18 320.936 245.159 321.523 246.147C321.986 245.867 322.462 245.611 322.95 245.382C323.726 245.033 324.521 244.742 325.335 244.529C325.743 244.413 326.17 244.665 326.267 245.072C326.383 245.479 326.131 245.906 325.723 246.003C324.986 246.197 324.269 246.449 323.59 246.779C323.151 246.988 322.717 247.22 322.298 247.474C323.171 248.994 324.004 250.536 324.797 252.098C325.552 251.685 326.328 251.322 327.12 251.008C328.032 250.639 328.963 250.348 329.932 250.115C330.34 250.018 330.767 250.27 330.864 250.678C330.961 251.085 330.708 251.512 330.301 251.609C329.409 251.822 328.536 252.113 327.702 252.443C326.944 252.738 326.204 253.093 325.491 253.491C326.441 255.434 327.33 257.408 328.155 259.409C328.775 259.063 329.421 258.762 330.088 258.514C331.213 258.106 332.377 257.835 333.56 257.738C333.986 257.699 334.355 258.009 334.394 258.436C334.433 258.863 334.122 259.231 333.696 259.27C332.648 259.367 331.601 259.6 330.611 259.968C329.955 260.204 329.331 260.494 328.733 260.84C329.52 262.831 330.246 264.849 330.909 266.89C331.453 266.478 332.039 266.12 332.667 265.826C333.928 265.225 335.286 264.895 336.702 264.837C337.129 264.818 337.478 265.147 337.497 265.574C337.497 266.001 337.187 266.35 336.76 266.369C335.577 266.408 334.394 266.699 333.327 267.223C332.631 267.558 331.99 267.976 331.411 268.477C331.687 269.374 331.951 270.277 332.203 271.183C336.794 273.331 341.299 276.935 345.663 281.965C346.129 282.508 346.07 283.342 345.527 283.807C344.984 284.273 344.15 284.234 343.685 283.671C339.436 278.78 335.093 275.334 330.708 273.371C330.613 273.342 330.523 273.302 330.439 273.252ZM368.249 324.928L368.26 324.928H368.241L368.249 324.928ZM322.116 278.764C323.987 279.273 325.824 280.071 327.573 281.158C324.988 282.495 320.827 284.003 315.967 283.4L315.902 283.392C313.497 283.081 309.913 282.619 307.549 279.947C306.637 278.919 306.288 278.008 305.861 276.844L305.82 276.735C305.718 276.467 305.613 276.191 305.497 275.906C306.857 276.545 308.258 277.048 309.682 277.406C312.22 278.046 314.177 278.066 316.057 278.085L316.064 278.085C317.965 278.105 319.769 278.124 322.116 278.764ZM381.76 281.258C384.345 282.594 388.503 284.099 393.359 283.496L393.424 283.488C395.83 283.178 399.413 282.716 401.778 280.044C402.689 278.996 403.038 278.085 403.465 276.94C403.575 276.638 403.69 276.327 403.821 276.004C402.463 276.643 401.068 277.145 399.644 277.503C397.105 278.143 395.166 278.163 393.266 278.182L393.262 278.182C391.362 278.202 389.558 278.221 387.211 278.861C385.327 279.369 383.501 280.177 381.76 281.258ZM373.109 298.199C373.109 299.994 374.708 301.477 376.298 301.843C373.969 302.694 371.52 302.656 369.851 302.466C370.122 301.884 370.452 301.303 370.821 300.721L370.824 300.715C371.251 300.04 372.067 298.748 373.192 297.538C373.14 297.748 373.111 297.968 373.109 298.199ZM341.124 324.85L341.115 324.85C341.441 324.845 341.746 324.614 341.842 324.288C342.928 320.428 343.374 316.471 343.18 312.553C343.025 309.178 342.792 304.522 339.825 299.828C338.797 298.18 335.635 293.175 330.961 293.137H330.922C329.506 293.137 326.984 293.622 326.267 295.464C325.394 297.734 328.032 300.294 329.215 301.303C332.803 304.348 337.594 304.212 340.155 303.863C341.396 307.102 341.551 310.206 341.667 312.63C341.861 316.374 341.415 320.176 340.387 323.88C340.271 324.288 340.504 324.714 340.911 324.831C340.976 324.847 341.083 324.85 341.115 324.85L341.105 324.85H341.124ZM336.198 297.488C337.313 298.694 338.123 299.976 338.545 300.643C338.913 301.225 339.223 301.807 339.514 302.389C337.855 302.579 335.393 302.617 333.054 301.759C334.656 301.369 336.275 299.912 336.275 298.122C336.273 297.901 336.246 297.69 336.198 297.488Z" fill="url(#paint14_linear_89_28077)" fill-opacity="0.3"/>
</g>
<g opacity="0.7">
<path d="M267 0L241 94.5H181.5L146 0H267Z" fill="url(#paint15_linear_89_28077)"/>
<path d="M149 95L123 33H291.5L271 95H149Z" fill="url(#paint16_linear_89_28077)"/>
<path d="M160.5 95L131.5 24H283.5L260.5 95H160.5Z" fill="url(#paint17_linear_89_28077)"/>
<path d="M275 15L252 94.5H171L139.5 15H275Z" fill="url(#paint18_linear_89_28077)"/>
</g>
<path d="M341 105.625C350.6 106.825 362 115.125 366.5 119.125C368.1 110.325 364.167 102.792 362 100.125C364.167 98.4587 369.4 94.2253 373 90.6253C342.5 75.6254 341 85.6253 340 89.1253C336 88.7253 333 86.6253 332 85.6253C324.833 90.1253 310 100.225 308 104.625C319.6 115.825 334.167 113.292 340 110.625C339.167 110.459 336.9 109.925 334.5 109.125C335.5 106.625 338.5 105.125 341 105.625Z" fill="url(#paint19_linear_89_28077)"/>
<path d="M78 105.625C68.4 106.825 57 115.125 52.5 119.125C50.9 110.325 54.8333 102.792 57 100.125C54.8333 98.4587 49.6 94.2253 46 90.6253C76.5 75.6254 78 85.6253 79 89.1253C83 88.7253 86 86.6253 87 85.6253C94.1667 90.1253 109 100.225 111 104.625C99.4 115.825 84.8333 113.292 79 110.625C79.8333 110.459 82.1 109.925 84.5 109.125C83.5 106.625 80.5 105.125 78 105.625Z" fill="url(#paint20_linear_89_28077)"/>
<path d="M337 81.6253L319.5 107.625C316 98.1253 297 100.125 295 100.625C285.8 103.025 274.5 103.292 270 103.125C235.5 103.292 163.3 103.525 150.5 103.125C136 102.625 119 100.125 113.5 100.125C105.1 100.125 100.667 105.125 99.5 107.625C94.6667 100.292 84.4 84.7253 82 81.1253C88 66.1253 115 67.1253 130.5 69.1253C183.5 74.1253 275.5 71.1253 293 69.1253C321 66.3253 334 76.292 337 81.6253Z" fill="url(#paint21_linear_89_28077)"/>
<path d="M319 108.5C320.6 106.1 316 102 311 101C309.5 102 308.5 103.5 308 104.5C317.5 111 318.5 109 319 108.5Z" fill="#17786D"/>
<path d="M100 108C102.4 110.4 108.334 106.667 111 104.5C109.5 102 108.5 101.5 108 101C98.5003 104 99.5003 107.5 100 108Z" fill="#17786D"/>
<path fill-rule="evenodd" clip-rule="evenodd" d="M318.897 106.343C314.227 98.3126 296.905 100.149 295 100.625C285.8 103.025 274.5 103.292 270 103.125C235.5 103.292 163.3 103.525 150.5 103.125C142.239 102.841 133.166 101.906 125.871 101.155C120.362 100.588 115.866 100.125 113.5 100.125C108.699 100.125 105.194 101.759 102.854 103.625C101.763 104.262 100.798 105.047 100 106.004C100.667 102.837 106.2 97.2038 123 100.004C123.406 100.044 123.945 100.102 124.606 100.172C132.08 100.965 155.235 103.423 180.5 102.504H274.5C278.667 102.337 288.8 101.504 296 99.5038C300.705 98.5627 317.367 98.0645 318.897 106.343Z" fill="url(#paint22_linear_89_28077)"/>
<defs>
<linearGradient id="paint0_linear_89_28077" x1="207" y1="91" x2="207" y2="309.767" gradientUnits="userSpaceOnUse">
<stop stop-color="#1BB8AD"/>
<stop offset="1" stop-color="#136761"/>
</linearGradient>
<linearGradient id="paint1_linear_89_28077" x1="395.808" y1="109.121" x2="407.121" y2="97.8075" gradientUnits="userSpaceOnUse">
<stop stop-color="white" stop-opacity="0"/>
<stop offset="1" stop-color="#F7B02D"/>
</linearGradient>
<linearGradient id="paint2_linear_89_28077" x1="401.575" y1="106.616" x2="401.793" y2="102.917" gradientUnits="userSpaceOnUse">
<stop stop-color="#F7DA95"/>
<stop offset="1" stop-color="white"/>
</linearGradient>
<linearGradient id="paint3_linear_89_28077" x1="401.285" y1="103.194" x2="397.473" y2="102.458" gradientUnits="userSpaceOnUse">
<stop stop-color="#F8E49D"/>
<stop offset="1" stop-color="#E3C56C"/>
</linearGradient>
<linearGradient id="paint4_linear_89_28077" x1="401.797" y1="102.914" x2="403.537" y2="96.3873" gradientUnits="userSpaceOnUse">
<stop stop-color="#FDF6AE"/>
<stop offset="1" stop-color="#F9E697"/>
</linearGradient>
<linearGradient id="paint5_linear_89_28077" x1="403.319" y1="104.872" x2="408.323" y2="99.868" gradientUnits="userSpaceOnUse">
<stop stop-color="#E5C974"/>
<stop offset="1" stop-color="white"/>
</linearGradient>
<linearGradient id="paint6_linear_89_28077" x1="400.039" y1="104.671" x2="402.65" y2="102.061" gradientUnits="userSpaceOnUse">
<stop stop-color="#FFC65E"/>
<stop offset="1" stop-color="#F7B02D"/>
</linearGradient>
<linearGradient id="paint7_linear_89_28077" x1="18.121" y1="108.121" x2="6.80727" y2="96.8075" gradientUnits="userSpaceOnUse">
<stop stop-color="white" stop-opacity="0"/>
<stop offset="1" stop-color="#F7B02D"/>
</linearGradient>
<linearGradient id="paint8_linear_89_28077" x1="12.3534" y1="105.616" x2="12.1358" y2="101.917" gradientUnits="userSpaceOnUse">
<stop stop-color="#F7DA95"/>
<stop offset="1" stop-color="white"/>
</linearGradient>
<linearGradient id="paint9_linear_89_28077" x1="12.6438" y1="102.194" x2="16.4552" y2="101.458" gradientUnits="userSpaceOnUse">
<stop stop-color="#F8E49D"/>
<stop offset="1" stop-color="#E3C56C"/>
</linearGradient>
<linearGradient id="paint10_linear_89_28077" x1="12.132" y1="101.914" x2="10.3915" y2="95.3873" gradientUnits="userSpaceOnUse">
<stop stop-color="#FDF6AE"/>
<stop offset="1" stop-color="#F9E697"/>
</linearGradient>
<linearGradient id="paint11_linear_89_28077" x1="10.6097" y1="103.872" x2="5.60557" y2="98.868" gradientUnits="userSpaceOnUse">
<stop stop-color="#E5C974"/>
<stop offset="1" stop-color="white"/>
</linearGradient>
<linearGradient id="paint12_linear_89_28077" x1="13.8898" y1="103.671" x2="11.279" y2="101.061" gradientUnits="userSpaceOnUse">
<stop stop-color="#FFC65E"/>
<stop offset="1" stop-color="#F7B02D"/>
</linearGradient>
<linearGradient id="paint13_linear_89_28077" x1="119" y1="26.5" x2="119" y2="236" gradientUnits="userSpaceOnUse">
<stop offset="0.05" stop-color="white"/>
<stop offset="0.405" stop-color="white" stop-opacity="0.38"/>
<stop offset="0.875" stop-color="white" stop-opacity="0"/>
</linearGradient>
<linearGradient id="paint14_linear_89_28077" x1="354.679" y1="218" x2="354.679" y2="385.251" gradientUnits="userSpaceOnUse">
<stop stop-color="white"/>
<stop offset="1" stop-color="white" stop-opacity="0"/>
</linearGradient>
<linearGradient id="paint15_linear_89_28077" x1="206.5" y1="0" x2="206.5" y2="94.5" gradientUnits="userSpaceOnUse">
<stop stop-color="#F1FD8A" stop-opacity="0"/>
<stop offset="1" stop-color="#FCFF4C"/>
</linearGradient>
<linearGradient id="paint16_linear_89_28077" x1="207.25" y1="33" x2="207.25" y2="95" gradientUnits="userSpaceOnUse">
<stop stop-color="#F1FD8A" stop-opacity="0"/>
<stop offset="1" stop-color="#FCFF4C"/>
</linearGradient>
<linearGradient id="paint17_linear_89_28077" x1="207.5" y1="24" x2="207.5" y2="95" gradientUnits="userSpaceOnUse">
<stop stop-color="#F1FD8A" stop-opacity="0"/>
<stop offset="1" stop-color="#FCFF4C"/>
</linearGradient>
<linearGradient id="paint18_linear_89_28077" x1="207.25" y1="15" x2="207.25" y2="94.5" gradientUnits="userSpaceOnUse">
<stop stop-color="#F1FD8A" stop-opacity="0"/>
<stop offset="1" stop-color="#FCFF4C"/>
</linearGradient>
<linearGradient id="paint19_linear_89_28077" x1="318.5" y1="86" x2="366.5" y2="101" gradientUnits="userSpaceOnUse">
<stop offset="0.075" stop-color="#127079"/>
<stop offset="0.195" stop-color="#18938A"/>
<stop offset="0.433362" stop-color="#0C6C74"/>
<stop offset="0.455039" stop-color="#178F87"/>
<stop offset="0.625" stop-color="#15766F"/>
<stop offset="0.755" stop-color="#0B636B"/>
<stop offset="1" stop-color="#146761"/>
</linearGradient>
<linearGradient id="paint20_linear_89_28077" x1="100.5" y1="86" x2="52.5" y2="101" gradientUnits="userSpaceOnUse">
<stop offset="0.075" stop-color="#127079"/>
<stop offset="0.195" stop-color="#18938A"/>
<stop offset="0.433362" stop-color="#0C6C74"/>
<stop offset="0.455039" stop-color="#178F87"/>
<stop offset="0.625" stop-color="#15766F"/>
<stop offset="0.755" stop-color="#0B636B"/>
<stop offset="1" stop-color="#146761"/>
</linearGradient>
<linearGradient id="paint21_linear_89_28077" x1="82" y1="87.8127" x2="337" y2="87.8127" gradientUnits="userSpaceOnUse">
<stop stop-color="#127079"/>
<stop offset="0.155" stop-color="#129AA6"/>
<stop offset="0.305" stop-color="#19A298"/>
<stop offset="0.455" stop-color="#24B5A4"/>
<stop offset="0.775" stop-color="#179F9F"/>
<stop offset="0.89" stop-color="#0C6E77"/>
<stop offset="1" stop-color="#127079"/>
</linearGradient>
<linearGradient id="paint22_linear_89_28077" x1="100" y1="102.672" x2="318.897" y2="102.672" gradientUnits="userSpaceOnUse">
<stop stop-color="#19A281"/>
<stop offset="0.125" stop-color="#32DBB2"/>
<stop offset="0.89" stop-color="#32DBB2"/>
<stop offset="1" stop-color="#19A281"/>
</linearGradient>
<clipPath id="clip0_89_28077">
<rect width="414" height="253" fill="white" transform="translate(0 91)"/>
</clipPath>
</defs>
</svg>
