<svg width="80" height="102" viewBox="0 0 80 102" fill="none" xmlns="http://www.w3.org/2000/svg">
<g filter="url(#filter0_d_3536_9640)">
<path d="M6 14.3721L14.3692 6H65.6308L74 14.3721V87.6279L66.1539 96H14.3692L6 87.6279V14.3721Z" fill="url(#paint0_linear_3536_9640)"/>
<path d="M6 14.3721L14.3692 6H65.6308L74 14.3721V87.6279L66.1539 96H14.3692L6 87.6279V14.3721Z" stroke="#FFD15A"/>
</g>
<path d="M8.61536 15.4184L14.3692 9.66254H32.1538L34.2461 8.09277L40.5231 14.3718L46.8 8.09277L48.3692 9.66254H66.1538L71.9077 15.4184V86.0579L66.1538 92.337H48.3692L46.8 93.9067L40.5231 87.1044L34.2461 93.9067L32.6769 92.337H14.8923L8.61536 86.0579V15.4184Z" stroke="url(#paint1_linear_3536_9640)" stroke-width="0.3"/>
<path d="M12.2769 14.3715V87.6273H15.4154V86.0576H13.8461V89.1971H34.7692L37.9077 92.8599L40.5231 90.2436L42.6154 92.8599L46.2769 89.1971H67.2V86.0576H65.1077V87.6273H68.7692V14.3715H65.1077V15.9413H67.2V12.2785H45.7538L42.6154 9.13898L40.5231 11.232L37.9077 8.61572L34.7692 12.2785H13.8461V15.9413H15.4154V14.3715H12.2769Z" stroke="url(#paint2_linear_3536_9640)" stroke-width="0.3"/>
<defs>
<filter id="filter0_d_3536_9640" x="0.6" y="0.6" width="78.8" height="100.8" filterUnits="userSpaceOnUse" color-interpolation-filters="sRGB">
<feFlood flood-opacity="0" result="BackgroundImageFix"/>
<feColorMatrix in="SourceAlpha" type="matrix" values="0 0 0 0 0 0 0 0 0 0 0 0 0 0 0 0 0 0 127 0" result="hardAlpha"/>
<feOffset/>
<feGaussianBlur stdDeviation="2.45"/>
<feComposite in2="hardAlpha" operator="out"/>
<feColorMatrix type="matrix" values="0 0 0 0 0.8 0 0 0 0 1 0 0 0 0 0 0 0 0 1 0"/>
<feBlend mode="normal" in2="BackgroundImageFix" result="effect1_dropShadow_3536_9640"/>
<feBlend mode="normal" in="SourceGraphic" in2="effect1_dropShadow_3536_9640" result="shape"/>
</filter>
<linearGradient id="paint0_linear_3536_9640" x1="40" y1="6" x2="40" y2="96" gradientUnits="userSpaceOnUse">
<stop stop-color="#32DCB3"/>
<stop offset="1" stop-color="#073C43"/>
</linearGradient>
<linearGradient id="paint1_linear_3536_9640" x1="40.2615" y1="8.09277" x2="40.2615" y2="93.9067" gradientUnits="userSpaceOnUse">
<stop stop-color="#68FFDB"/>
<stop offset="1" stop-color="#0A5358"/>
</linearGradient>
<linearGradient id="paint2_linear_3536_9640" x1="40.5231" y1="8.61572" x2="40.5231" y2="92.8599" gradientUnits="userSpaceOnUse">
<stop stop-color="#68FFDB"/>
<stop offset="1" stop-color="#0A5358"/>
</linearGradient>
</defs>
</svg>
