<svg width="223" height="40" viewBox="0 0 223 40" fill="none" xmlns="http://www.w3.org/2000/svg">
<g filter="url(#filter0_d_3417_6143)">
<path d="M213.619 28L207.139 17.6455L207.082 17.668L207.206 28H203.039V10.9746H206.79L213.371 21.6772L213.416 21.6323L213.225 10.9746H217.392V28H213.619Z" fill="#FFF8F2"/>
</g>
<g filter="url(#filter1_d_3417_6143)">
<path d="M197.502 28L196.671 25.5405H190.764L189.865 28H185.193L192.021 10.9746H195.447L202.219 28H197.502ZM193.773 16.2754H193.706L191.954 22.0928H195.525L193.773 16.2754ZM191.887 10.1548L190.809 7.89746L196.323 4.93262L197.547 7.65039L191.887 10.1548Z" fill="#FFF8F2"/>
</g>
<g filter="url(#filter2_d_3417_6143)">
<path d="M185.103 19.4873C185.103 21.988 184.227 24.0918 182.475 25.7988C180.73 27.4834 178.604 28.3257 176.096 28.3257C173.655 28.3257 171.562 27.4984 169.818 25.8438C168.036 24.1667 167.145 22.119 167.145 19.7007C167.145 18.4129 167.366 17.2 167.808 16.062C168.04 15.4556 168.41 14.8192 168.919 14.1528C170.686 11.8244 173.086 10.6602 176.118 10.6602C178.619 10.6602 180.738 11.5062 182.475 13.1982C184.227 14.8978 185.103 16.9941 185.103 19.4873ZM180.756 19.5098C180.756 18.1396 180.337 16.9717 179.499 16.0059C178.608 14.9876 177.488 14.4785 176.141 14.4785C174.778 14.4785 173.655 14.9727 172.772 15.9609C171.918 16.9118 171.491 18.0723 171.491 19.4424C171.491 20.8424 171.922 22.0254 172.783 22.9912C173.674 24.002 174.808 24.5073 176.186 24.5073C177.511 24.5073 178.615 23.9982 179.499 22.98C180.337 22.0142 180.756 20.8574 180.756 19.5098Z" fill="#FFF8F2"/>
</g>
<g filter="url(#filter3_d_3417_6143)">
<path d="M166.448 19.4424C166.448 22.0329 165.718 24.0993 164.258 25.6416C162.761 27.2139 160.724 28 158.149 28H151.725V21.1943H150.186V17.376H151.725V10.9746H157.452C158.283 10.9746 159.013 11.0195 159.642 11.1094C160.368 11.1992 161.02 11.3527 161.596 11.5698C162.884 12.0565 163.981 12.9175 164.887 14.1528C165.928 15.5978 166.448 17.361 166.448 19.4424ZM162.102 19.5098C162.102 18.0798 161.772 16.9567 161.113 16.1406C160.402 15.2422 159.35 14.793 157.958 14.793H156.071V17.376H158.553V21.1943H156.071V24.1816H157.935C159.358 24.1816 160.425 23.7474 161.136 22.8789C161.78 22.0853 162.102 20.9622 162.102 19.5098Z" fill="#FFF8F2"/>
</g>
<g filter="url(#filter4_d_3417_6143)">
<path d="M134.383 33.5142V30.0439H138.044V33.5142H134.383ZM142.739 13.8833V21.2617C142.739 22.4222 142.641 23.3618 142.447 24.0806C142.185 25.0015 141.717 25.8026 141.043 26.4839C139.837 27.7118 138.25 28.3257 136.281 28.3257C135.33 28.3257 134.447 28.1872 133.631 27.9102C132.717 27.5957 131.969 27.1278 131.385 26.5063C130.666 25.7502 130.187 24.9416 129.947 24.0806C129.842 23.6912 129.771 23.2533 129.734 22.7666C129.696 22.3773 129.678 21.8757 129.678 21.2617V10.9746H134.024V21.2617C134.024 21.7109 134.046 22.0965 134.091 22.4185C134.151 22.8302 134.252 23.1784 134.394 23.4629C134.739 24.1592 135.353 24.5073 136.236 24.5073C137.15 24.5073 137.763 24.1667 138.078 23.4854C138.213 23.2083 138.303 22.8639 138.347 22.4521C138.377 22.1527 138.392 21.7559 138.392 21.2617V10.9746H142.739V11.8843C143.046 11.5623 143.199 11.1693 143.199 10.7051H142.301V8.14453H144.872V10.7837C144.768 11.8693 144.412 12.6779 143.805 13.2095C143.469 13.494 143.113 13.7186 142.739 13.8833Z" fill="#FFF8F2"/>
</g>
<g filter="url(#filter5_d_3417_6143)">
<path d="M128.059 19.4424C128.059 25.1475 125.136 28 119.288 28H113.336V10.9746H118.974C119.813 10.9746 120.546 11.0158 121.175 11.0981C121.909 11.1955 122.571 11.3527 123.163 11.5698C124.488 12.049 125.596 12.91 126.487 14.1528C127.535 15.6053 128.059 17.3685 128.059 19.4424ZM123.713 19.5098C123.713 18.0798 123.384 16.9567 122.725 16.1406C122.006 15.2422 120.954 14.793 119.569 14.793H117.682V24.1816H119.547C120.969 24.1816 122.032 23.7474 122.736 22.8789C123.388 22.0853 123.713 20.9622 123.713 19.5098Z" fill="#FFF8F2"/>
</g>
<g filter="url(#filter6_d_3417_6143)">
<path d="M105.271 21.2617C105.271 22.4222 105.174 23.3618 104.979 24.0806C104.717 25.0015 104.249 25.8026 103.575 26.4839C102.37 27.7118 100.783 28.3257 98.8135 28.3257C97.8551 28.3257 96.9717 28.1872 96.1631 27.9102C95.2497 27.5957 94.501 27.1278 93.917 26.5063C93.1982 25.7502 92.7191 24.9416 92.4795 24.0806C92.3747 23.6912 92.2998 23.2533 92.2549 22.7666C92.2249 22.3773 92.21 21.8757 92.21 21.2617V10.9746H96.5562V21.2617C96.5562 21.7109 96.5786 22.0965 96.6235 22.4185C96.6834 22.8302 96.7845 23.1784 96.9268 23.4629C97.2712 24.1592 97.8851 24.5073 98.7686 24.5073C99.682 24.5073 100.296 24.1667 100.61 23.4854C100.738 23.2083 100.827 22.8639 100.88 22.4521C100.91 22.1527 100.925 21.7559 100.925 21.2617V10.9746H105.271V21.2617ZM101.778 6.40381C101.778 6.81559 101.67 7.19743 101.453 7.54932C101.37 7.69157 101.262 7.83757 101.127 7.9873C101.03 8.1071 100.902 8.23812 100.745 8.38037L100.363 8.73975C100.221 8.87451 100.105 8.99056 100.015 9.08789C99.7905 9.34993 99.667 9.60449 99.6445 9.85156H97.6904C97.6904 9.50716 97.7952 9.17025 98.0049 8.84082C98.0872 8.71354 98.1883 8.57878 98.3081 8.43652C98.3979 8.33171 98.5177 8.20817 98.6675 8.06592L99.0156 7.71777C99.1429 7.58301 99.244 7.46696 99.3188 7.36963C99.521 7.11507 99.6221 6.87174 99.6221 6.63965C99.6221 6.17546 99.4049 5.94336 98.9707 5.94336C98.6637 5.94336 98.4504 6.05566 98.3306 6.28027C98.2482 6.43001 98.2033 6.67708 98.1958 7.02148H96.1406C96.1331 6.99154 96.1294 6.95785 96.1294 6.92041V6.81934C96.1294 5.99577 96.4176 5.3182 96.9941 4.78662C97.5482 4.27751 98.2445 4.02295 99.083 4.02295C100.221 4.02295 101.03 4.47217 101.509 5.37061C101.688 5.70752 101.778 6.05192 101.778 6.40381Z" fill="#FFF8F2"/>
</g>
<g filter="url(#filter7_d_3417_6143)">
<path d="M85.7516 28V21.1943H80.1813V28H75.8351V10.9746H80.1813V17.376H85.7516V10.9746H90.0978V28H85.7516Z" fill="#FFF8F2"/>
</g>
<g filter="url(#filter8_d_3417_6143)">
<path d="M71.6677 14.793V28H67.3215V14.793H63.9636V10.9746H75.0031V14.793H71.6677Z" fill="#FFF8F2"/>
</g>
<g filter="url(#filter9_d_3417_6143)">
<path d="M57.6727 19.4873C57.6727 21.988 56.7967 24.0918 55.0447 25.7988C53.3003 27.4834 51.174 28.3257 48.6658 28.3257C46.2251 28.3257 44.1325 27.4984 42.388 25.8438C40.6061 24.1667 39.7151 22.119 39.7151 19.7007C39.7151 18.4129 39.936 17.2 40.3777 16.062C40.6098 15.4556 40.9804 14.8192 41.4896 14.1528C43.2565 11.8244 45.6561 10.6602 48.6883 10.6602C51.1889 10.6602 53.3078 11.5062 55.0447 13.1982C56.7967 14.8978 57.6727 16.9941 57.6727 19.4873ZM53.3265 19.5098C53.3265 18.1396 52.9072 16.9717 52.0687 16.0059C51.1777 14.9876 50.0584 14.4785 48.7108 14.4785C47.3481 14.4785 46.2251 14.9727 45.3416 15.9609C44.4881 16.9118 44.0613 18.0723 44.0613 19.4424C44.0613 20.8424 44.4918 22.0254 45.3528 22.9912C46.2438 24.002 47.3781 24.5073 48.7557 24.5073C50.0809 24.5073 51.1852 23.9982 52.0687 22.98C52.9072 22.0142 53.3265 20.8574 53.3265 19.5098Z" fill="#FFF8F2"/>
</g>
<g filter="url(#filter10_d_3417_6143)">
<path d="M35.3232 28L34.4921 25.5405H28.5849L27.6865 28H23.0146L29.8427 10.9746H33.268L40.04 28H35.3232ZM31.5947 16.2754H31.5273L29.7753 22.0928H33.3466L31.5947 16.2754Z" fill="#FFF8F2"/>
</g>
<g filter="url(#filter11_d_3417_6143)">
<path d="M23.418 21.6323C22.9238 23.6313 21.8794 25.2485 20.2847 26.4839C18.7049 27.7118 16.8818 28.3257 14.8154 28.3257C12.3298 28.3257 10.2147 27.4722 8.47021 25.7651C6.71826 24.0506 5.84229 21.9505 5.84229 19.4648C5.84229 16.9867 6.71077 14.894 8.44775 13.187C10.1772 11.5024 12.2848 10.6602 14.7705 10.6602C18.0049 10.6602 20.5018 11.9928 22.2612 14.6582C22.8752 15.5791 23.2607 16.5075 23.418 17.4434H18.8584C18.1022 15.4668 16.7321 14.4785 14.748 14.4785C13.4079 14.4785 12.3035 14.9764 11.4351 15.9722C10.604 16.9305 10.1885 18.0872 10.1885 19.4424C10.1885 20.8125 10.604 21.9842 11.4351 22.9575C12.311 23.9907 13.4229 24.5073 14.7705 24.5073C16.6273 24.5073 17.9899 23.549 18.8584 21.6323H23.418Z" fill="#FFF8F2"/>
</g>
<g filter="url(#filter12_d_3417_6143)">
<path fill-rule="evenodd" clip-rule="evenodd" d="M200.039 28C200.039 29.6569 201.383 31 203.039 31H207.206C208.008 31 208.776 30.679 209.34 30.1086C209.85 29.5925 210.154 28.9112 210.2 28.1922L211.075 29.5915C211.624 30.4678 212.585 31 213.619 31H217.392C219.049 31 220.392 29.6569 220.392 28V10.9746C220.392 9.31775 219.049 7.97461 217.392 7.97461H213.225C212.421 7.97461 211.649 8.2981 211.085 8.87237C210.566 9.40137 210.262 10.1023 210.229 10.8386L209.346 9.40321C208.8 8.51546 207.833 7.97461 206.79 7.97461H203.039C201.383 7.97461 200.039 9.31775 200.039 10.9746V22.5211L202.219 28H200.039ZM213.416 21.6323L213.371 21.6772L206.79 10.9746H203.039V28H207.206L207.082 17.668L207.139 17.6455L213.619 28H217.392V10.9746H213.225L213.416 21.6323Z" fill="url(#paint0_linear_3417_6143)"/>
</g>
<g filter="url(#filter13_d_3417_6143)">
<path fill-rule="evenodd" clip-rule="evenodd" d="M197.502 31C196.215 31 195.072 30.1794 194.66 28.9604L194.518 28.5405H192.862L192.683 29.0294C192.251 30.2128 191.125 31 189.865 31H185.193C184.197 31 183.266 30.5057 182.708 29.6808C182.15 28.8558 182.038 27.8077 182.409 26.8833L183.124 25.1007C184.289 23.7116 184.94 22.0893 185.076 20.2338L188.864 10.7875L188.101 9.1904C187.411 7.74556 187.978 6.01345 189.388 5.25519L194.902 2.29034C195.635 1.89626 196.499 1.82432 197.287 2.09172C198.075 2.35912 198.716 2.94183 199.058 3.70059L200.282 6.41836C200.61 7.14696 200.634 7.97638 200.349 8.72269C200.063 9.469 199.491 10.0705 198.761 10.3938L198.492 10.5129L203.039 21.9464V28H205.219C205.219 28.5923 205.043 29.1802 204.701 29.6843C204.143 30.5072 203.213 31 202.219 31H197.502ZM197.547 7.65039L196.323 4.93262L190.809 7.89747L191.887 10.1548L197.547 7.65039ZM185.193 28H189.865L190.764 25.5405H196.671L197.502 28H202.219L195.447 10.9746H192.021L185.193 28ZM195.525 22.0928L193.773 16.2754H193.706L191.954 22.0928H195.525Z" fill="url(#paint1_linear_3417_6143)"/>
</g>
<g filter="url(#filter14_d_3417_6143)">
<path fill-rule="evenodd" clip-rule="evenodd" d="M166.445 19.7007C166.447 19.6152 166.448 19.5291 166.448 19.4424C166.448 17.8327 166.137 16.4133 165.514 15.1843C165.512 15.1791 165.509 15.1739 165.506 15.1687C165.404 14.9678 165.293 14.772 165.174 14.5814C165.523 13.7933 165.992 13.0441 166.533 12.3345C168.892 9.22968 172.191 7.66016 176.118 7.66016C179.373 7.66016 182.25 8.79214 184.566 11.0471C186.913 13.3248 188.103 16.2033 188.103 19.4873C188.103 19.9837 188.076 20.4708 188.022 20.9481L185.743 26.6292C185.391 27.088 184.999 27.5279 184.568 27.9475L184.559 27.9569C182.234 30.2018 179.352 31.3257 176.096 31.3257C172.902 31.3257 170.068 30.2138 167.757 28.0241C166.636 26.9674 165.767 25.7771 165.163 24.4721C165.982 23.1627 166.41 21.5723 166.445 19.7007ZM169.818 25.8438C171.562 27.4984 173.655 28.3257 176.096 28.3257C178.604 28.3257 180.73 27.4834 182.475 25.7988C184.227 24.0918 185.103 21.988 185.103 19.4873C185.103 16.9941 184.227 14.8978 182.475 13.1982C180.738 11.5062 178.619 10.6602 176.118 10.6602C173.086 10.6602 170.686 11.8244 168.919 14.1528C168.41 14.8192 168.04 15.4556 167.808 16.062C167.366 17.2 167.145 18.4129 167.145 19.7007C167.145 22.119 168.036 24.1667 169.818 25.8438ZM175.008 17.9603L175.004 17.9649C174.682 18.3234 174.491 18.7538 174.491 19.4424C174.491 20.1718 174.693 20.6257 175.022 20.9949L175.033 21.0074C175.34 21.3557 175.647 21.5073 176.186 21.5073C176.624 21.5073 176.908 21.3884 177.233 21.0139L177.233 21.0132C177.571 20.6241 177.756 20.1769 177.756 19.5098C177.756 18.8092 177.564 18.3554 177.237 17.9769C176.915 17.6101 176.617 17.4785 176.141 17.4785C175.605 17.4785 175.305 17.6287 175.008 17.9603Z" fill="url(#paint2_linear_3417_6143)"/>
</g>
<g filter="url(#filter15_d_3417_6143)">
<path fill-rule="evenodd" clip-rule="evenodd" d="M164.258 25.6416C165.718 24.0993 166.448 22.0329 166.448 19.4424C166.448 17.361 165.928 15.5978 164.887 14.1528C163.981 12.9175 162.884 12.0565 161.596 11.5698C161.02 11.3527 160.368 11.1992 159.642 11.1094C159.013 11.0195 158.283 10.9746 157.452 10.9746H151.725V17.376H150.186V21.1943H151.725V28H158.149C160.724 28 162.761 27.2139 164.258 25.6416ZM156.071 14.793V17.376H158.553V21.1943H156.071V24.1816H157.935C158.149 24.1816 158.355 24.1718 158.553 24.1522C158.732 24.1344 158.905 24.1085 159.071 24.0746C159.626 23.9612 160.107 23.7579 160.514 23.4647C160.745 23.2983 160.952 23.1031 161.136 22.8789C161.78 22.0853 162.102 20.9622 162.102 19.5098C162.102 18.3648 161.891 17.4167 161.468 16.6653C161.363 16.4782 161.245 16.3033 161.113 16.1406C160.606 15.4997 159.925 15.0873 159.071 14.9036C158.905 14.8679 158.732 14.8408 158.553 14.8224C158.362 14.8028 158.163 14.793 157.958 14.793H156.071ZM148.725 23.8149C147.807 23.3019 147.186 22.3206 147.186 21.1943V17.376C147.186 16.2497 147.807 15.2684 148.725 14.7554V10.9746C148.725 9.31775 150.068 7.97461 151.725 7.97461H157.452C158.374 7.97461 159.242 8.02343 160.038 8.13555C160.948 8.24988 161.827 8.45083 162.654 8.76234L162.657 8.76353C164.548 9.47822 166.097 10.7298 167.306 12.3787L167.321 12.3996C167.831 13.107 168.243 13.8585 168.564 14.6471C168.234 15.1356 167.982 15.6072 167.808 16.062C167.396 17.1236 167.176 18.2504 167.148 19.4424C167.146 19.5281 167.145 19.6142 167.145 19.7007C167.145 21.459 167.616 23.0214 168.558 24.3878C168.07 25.6021 167.371 26.7173 166.437 27.704L166.43 27.7106C164.262 29.9874 161.38 31 158.149 31H151.725C150.068 31 148.725 29.6569 148.725 28V23.8149Z" fill="url(#paint3_linear_3417_6143)"/>
</g>
<g filter="url(#filter16_d_3417_6143)">
<path fill-rule="evenodd" clip-rule="evenodd" d="M127.948 21.2617C128.022 20.6915 128.059 20.085 128.059 19.4424C128.059 17.4981 127.599 15.8269 126.678 14.4288V10.9746C126.678 9.31775 128.021 7.97461 129.678 7.97461H134.024C134.885 7.97461 135.661 8.33729 136.208 8.91821C136.755 8.33729 137.531 7.97461 138.392 7.97461H139.305C139.393 6.39681 140.701 5.14453 142.301 5.14453H144.872C146.529 5.14453 147.872 6.48768 147.872 8.14453V10.7837C147.872 10.88 147.868 10.9762 147.858 11.072C147.707 12.6451 147.141 14.2748 145.783 15.4655C145.769 15.4776 145.755 15.4897 145.741 15.5016C145.74 15.5022 145.739 15.5029 145.739 15.5036V21.2617C145.739 22.5572 145.633 23.7897 145.342 24.8648L145.332 24.9016C144.932 26.3075 144.206 27.5506 143.179 28.5903C142.53 29.25 141.814 29.7832 141.044 30.1975V33.5142C141.044 35.171 139.701 36.5142 138.044 36.5142H134.383C132.726 36.5142 131.383 35.171 131.383 33.5142V30.2035C130.577 29.7844 129.841 29.2434 129.204 28.5668C128.207 27.5158 127.448 26.2895 127.057 24.8848L127.05 24.8605C127.013 24.724 126.98 24.5862 126.95 24.4473C127.204 23.9986 127.414 23.5074 127.581 22.9736C127.585 22.9595 127.59 22.9454 127.594 22.9312C127.753 22.4142 127.871 21.8578 127.948 21.2617ZM129.734 22.7666C129.771 23.2533 129.842 23.6912 129.947 24.0806C130.187 24.9416 130.666 25.7502 131.385 26.5063C131.767 26.9136 132.221 27.2549 132.745 27.5303C133.021 27.6752 133.316 27.8018 133.631 27.9102C133.875 27.9932 134.126 28.0639 134.383 28.122C134.983 28.2578 135.615 28.3257 136.281 28.3257C136.907 28.3257 137.495 28.2636 138.044 28.1393C138.632 28.0062 139.176 27.8018 139.676 27.5261C140.176 27.2501 140.632 26.9027 141.043 26.4839C141.717 25.8026 142.185 25.0015 142.447 24.0806C142.641 23.3618 142.739 22.4222 142.739 21.2617V13.8833C142.859 13.8301 142.978 13.7707 143.095 13.7051C143.13 13.6856 143.165 13.6655 143.199 13.6449C143.407 13.52 143.61 13.3748 143.805 13.2095C143.861 13.1605 143.915 13.1091 143.967 13.0554C144.266 12.7441 144.494 12.3537 144.65 11.8843C144.726 11.6563 144.785 11.4098 144.827 11.1445C144.836 11.0887 144.844 11.0321 144.851 10.9746C144.859 10.912 144.866 10.8483 144.872 10.7837V8.14453H142.301V10.7051H143.199C143.199 10.7315 143.199 10.7577 143.198 10.7837C143.195 10.8488 143.189 10.9124 143.181 10.9746C143.173 11.0325 143.162 11.0891 143.148 11.1445C143.08 11.4228 142.943 11.6694 142.739 11.8843V10.9746H138.392V21.2617C138.392 21.7559 138.377 22.1527 138.347 22.4521C138.303 22.8639 138.213 23.2083 138.078 23.4854C137.763 24.1667 137.15 24.5073 136.236 24.5073C135.353 24.5073 134.739 24.1592 134.394 23.4629C134.252 23.1784 134.151 22.8302 134.091 22.4185C134.046 22.0965 134.024 21.7109 134.024 21.2617V10.9746H129.678V21.2617C129.678 21.8757 129.696 22.3773 129.734 22.7666ZM134.383 33.5142H138.044V30.0439H134.383V33.5142Z" fill="url(#paint4_linear_3417_6143)"/>
</g>
<g filter="url(#filter17_d_3417_6143)">
<path fill-rule="evenodd" clip-rule="evenodd" d="M119.288 28C125.136 28 128.059 25.1475 128.059 19.4424C128.059 17.3685 127.535 15.6053 126.487 14.1528C125.596 12.91 124.488 12.049 123.163 11.5698C122.571 11.3527 121.909 11.1955 121.175 11.0981C120.546 11.0158 119.813 10.9746 118.974 10.9746H113.336V28H119.288ZM122.725 16.1406C122.213 15.5008 121.532 15.0888 120.682 14.9046C120.339 14.8302 119.968 14.793 119.569 14.793H117.682V24.1816H119.547C119.955 24.1816 120.334 24.1459 120.682 24.0744C121.55 23.8967 122.234 23.4982 122.736 22.8789C123.388 22.0853 123.713 20.9622 123.713 19.5098C123.713 18.0798 123.384 16.9567 122.725 16.1406ZM120.682 20.109C120.701 19.9406 120.713 19.7424 120.713 19.5098C120.713 19.2855 120.702 19.0928 120.682 18.9274V20.109ZM124.19 8.75106C126.13 9.45408 127.712 10.7133 128.923 12.4011C129.203 12.7903 129.455 13.1926 129.678 13.607V21.2617C129.678 21.8757 129.696 22.3773 129.734 22.7666C129.771 23.2533 129.842 23.6912 129.947 24.0806C130.004 24.2836 130.073 24.4837 130.157 24.6809C129.661 25.9237 128.945 27.0489 127.962 28.0079C125.737 30.1789 122.656 31 119.288 31H113.336C111.679 31 110.336 29.6569 110.336 28V10.9746C110.336 9.31775 111.679 7.97461 113.336 7.97461H118.974C119.904 7.97461 120.773 8.01989 121.565 8.12354L121.57 8.12419C122.482 8.24526 123.362 8.44766 124.19 8.75106Z" fill="url(#paint5_linear_3417_6143)"/>
</g>
<g filter="url(#filter18_d_3417_6143)">
<path fill-rule="evenodd" clip-rule="evenodd" d="M107.875 24.8648L107.864 24.9016C107.464 26.3075 106.739 27.5507 105.711 28.5903C103.86 30.4739 101.459 31.3257 98.8135 31.3257C97.564 31.3257 96.3478 31.1446 95.1908 30.7482L95.1865 30.7468C93.8768 30.2959 92.6952 29.5849 91.7365 28.5668C91.0714 27.8659 90.5123 27.0871 90.0977 26.2295V10.9746H89.21C89.21 9.31775 90.5531 7.97461 92.21 7.97461H93.296C93.2713 7.90081 93.2493 7.82561 93.2302 7.74909C93.1522 7.43714 93.1294 7.15315 93.1294 6.92041V6.81934C93.1294 5.20537 93.734 3.71205 94.9605 2.58111L94.9643 2.57764C96.1368 1.50022 97.5856 1.02295 99.083 1.02295C100.046 1.02295 101.058 1.21428 102 1.73739C102.96 2.27054 103.673 3.05321 104.156 3.95884C104.547 4.69237 104.778 5.51829 104.778 6.40381C104.778 6.94441 104.696 7.47146 104.536 7.97461H105.271C106.928 7.97461 108.271 9.31775 108.271 10.9746V21.2617C108.271 22.5572 108.166 23.7897 107.875 24.8648ZM92.21 10.9746V21.2617C92.21 21.8757 92.2249 22.3773 92.2549 22.7666C92.2998 23.2533 92.3747 23.6912 92.4795 24.0806C92.7191 24.9416 93.1982 25.7502 93.917 26.5063C94.501 27.1278 95.2497 27.5957 96.1631 27.9102C96.9717 28.1872 97.8551 28.3257 98.8135 28.3257C100.783 28.3257 102.37 27.7118 103.575 26.4839C104.249 25.8026 104.717 25.0015 104.979 24.0806C105.174 23.3618 105.271 22.4222 105.271 21.2617V10.9746H100.925V21.2617C100.925 21.7559 100.91 22.1527 100.88 22.4521C100.827 22.8639 100.738 23.2083 100.61 23.4854C100.296 24.1667 99.682 24.5073 98.7686 24.5073C97.8851 24.5073 97.2712 24.1592 96.9268 23.4629C96.7845 23.1784 96.6834 22.8302 96.6235 22.4185C96.5786 22.0965 96.5562 21.7109 96.5562 21.2617V10.9746H92.21ZM99.6445 9.85156C99.6514 9.77631 99.6676 9.70037 99.6932 9.62373C99.6935 9.62284 99.6938 9.62195 99.6941 9.62106C99.6956 9.61657 99.6971 9.61207 99.6987 9.60756C99.7332 9.50919 99.7831 9.40968 99.8484 9.30902C99.8565 9.29661 99.8648 9.28418 99.8733 9.27173C99.915 9.21087 99.9623 9.14959 100.015 9.08789C100.067 9.0315 100.128 8.96881 100.198 8.89985C100.209 8.88884 100.22 8.87767 100.232 8.86633C100.273 8.82615 100.317 8.78396 100.363 8.73975L100.745 8.38037C100.81 8.32155 100.87 8.26464 100.925 8.20966C100.941 8.19368 100.956 8.17786 100.971 8.1622C101.03 8.10146 101.082 8.04317 101.127 7.9873C101.131 7.98307 101.135 7.97884 101.138 7.97461C101.268 7.82931 101.373 7.68755 101.453 7.54932C101.628 7.26557 101.732 6.96234 101.766 6.63965C101.774 6.56216 101.778 6.48354 101.778 6.40381C101.778 6.05192 101.688 5.70752 101.509 5.37061C101.03 4.47217 100.221 4.02295 99.083 4.02295C99.0453 4.02295 99.0079 4.02346 98.9707 4.02449C98.6967 4.03209 98.4384 4.06771 98.1958 4.13135C97.74 4.2509 97.3394 4.46932 96.9941 4.78662C96.8216 4.94572 96.6749 5.11789 96.554 5.30315C96.5492 5.31047 96.5445 5.31781 96.5398 5.32518C96.3475 5.62643 96.2229 5.96188 96.1657 6.33155C96.155 6.40097 96.1466 6.47162 96.1406 6.54346C96.1397 6.55444 96.1389 6.56545 96.1381 6.57648C96.1373 6.58675 96.1366 6.59703 96.136 6.60735C96.1316 6.6769 96.1294 6.74756 96.1294 6.81934V6.92041C96.1294 6.9402 96.1304 6.95894 96.1325 6.97663C96.1344 6.99241 96.1371 7.00737 96.1406 7.02148H98.1958C98.1964 6.99567 98.1971 6.9704 98.1981 6.94568C98.1984 6.93719 98.1988 6.92877 98.1992 6.92041C98.1995 6.91432 98.1998 6.90826 98.2001 6.90224C98.201 6.88507 98.202 6.86818 98.203 6.85156C98.2038 6.8407 98.2045 6.82996 98.2053 6.81934C98.2102 6.75509 98.2167 6.6952 98.225 6.63965C98.2253 6.63725 98.2257 6.63486 98.226 6.63248C98.2309 6.60067 98.2362 6.57032 98.2422 6.5414C98.2437 6.53366 98.2454 6.52602 98.247 6.51849C98.2489 6.51001 98.2508 6.50165 98.2528 6.49344C98.2733 6.40829 98.2992 6.33724 98.3306 6.28027C98.335 6.27197 98.3395 6.26383 98.3442 6.25583C98.3448 6.25481 98.3454 6.25378 98.346 6.25276C98.4683 6.04649 98.6765 5.94336 98.9707 5.94336C99.0099 5.94336 99.0473 5.94525 99.083 5.94903C99.3639 5.97884 99.5351 6.12601 99.5964 6.39056C99.5974 6.39494 99.5984 6.39936 99.5993 6.40381C99.5995 6.40457 99.5997 6.40533 99.5998 6.40609C99.6051 6.43112 99.6095 6.45715 99.6129 6.4842C99.6188 6.53076 99.6218 6.58033 99.6221 6.6329C99.6221 6.63514 99.6221 6.63739 99.6221 6.63965C99.6221 6.67866 99.6192 6.71798 99.6135 6.75763C99.609 6.78874 99.6028 6.82006 99.5948 6.85156C99.5873 6.88092 99.5783 6.91045 99.5678 6.94015C99.5658 6.94587 99.5637 6.9516 99.5616 6.95734C99.5519 6.98345 99.5409 7.0097 99.5288 7.03608C99.5267 7.04082 99.5245 7.04557 99.5222 7.05032C99.519 7.05707 99.5157 7.06383 99.5124 7.0706C99.4639 7.16849 99.3994 7.26817 99.3188 7.36963C99.2859 7.41244 99.2479 7.45887 99.2049 7.50892C99.2037 7.51032 99.2024 7.51172 99.2012 7.51313C99.1472 7.57573 99.0854 7.64394 99.0156 7.71777L98.6675 8.06592C98.5177 8.20817 98.3979 8.33171 98.3081 8.43652C98.2898 8.45828 98.2719 8.47986 98.2545 8.50127C98.2343 8.52597 98.2148 8.55045 98.1958 8.57469C98.151 8.63189 98.1095 8.68779 98.0713 8.7424C98.0479 8.77569 98.0258 8.8085 98.0049 8.84082C97.8313 9.11366 97.7295 9.39164 97.6997 9.67476C97.6935 9.73347 97.6904 9.79241 97.6904 9.85156H99.6445Z" fill="url(#paint6_linear_3417_6143)"/>
</g>
<g filter="url(#filter19_d_3417_6143)">
<path fill-rule="evenodd" clip-rule="evenodd" d="M72.8351 14.793V28C72.8351 29.6569 74.1782 31 75.8351 31H80.1813C81.4433 31 82.5234 30.2207 82.9664 29.117C83.4095 30.2207 84.4895 31 85.7516 31H90.0978C91.7546 31 93.0978 29.6569 93.0978 28V25.4624C92.8183 25.0179 92.6122 24.5573 92.4795 24.0806C92.3747 23.6912 92.2999 23.2533 92.2549 22.7666C92.225 22.3773 92.21 21.8757 92.21 21.2617V10.9746H93.0978C93.0978 9.31775 91.7546 7.97461 90.0978 7.97461H85.7516C84.4895 7.97461 83.4095 8.75394 82.9664 9.85761C82.5234 8.75394 81.4433 7.97461 80.1813 7.97461H75.8351C74.1782 7.97461 72.8351 9.31775 72.8351 10.9746H75.0031V14.793H72.8351ZM80.1813 10.9746H75.8351V28H80.1813V21.1943H85.7516V28H90.0978V10.9746H85.7516V17.376H80.1813V10.9746Z" fill="url(#paint7_linear_3417_6143)"/>
</g>
<g filter="url(#filter20_d_3417_6143)">
<path fill-rule="evenodd" clip-rule="evenodd" d="M71.6677 14.793H75.0031V10.9746H63.9636V14.793H67.3215V28H71.6677V14.793ZM64.3215 17.793V28C64.3215 29.6569 65.6646 31 67.3215 31H71.6677C73.3245 31 74.6677 29.6569 74.6677 28V17.793H75.0031C75.2918 17.793 75.5709 17.7522 75.8351 17.6761V10.9746H78.0031C78.0031 9.31775 76.66 7.97461 75.0031 7.97461H63.9636C62.3067 7.97461 60.9636 9.31775 60.9636 10.9746V14.793C60.9636 16.4498 62.3067 17.793 63.9636 17.793H64.3215Z" fill="url(#paint8_linear_3417_6143)"/>
</g>
<g filter="url(#filter21_d_3417_6143)">
<path fill-rule="evenodd" clip-rule="evenodd" d="M39.869 27.5701C40.0169 27.7243 40.1699 27.8758 40.328 28.0247C42.6383 30.214 45.4719 31.3257 48.6658 31.3257C51.9219 31.3257 54.804 30.2018 57.1287 27.9569L57.1383 27.9475C59.4842 25.6618 60.6727 22.7768 60.6727 19.4873C60.6727 16.2033 59.4827 13.3248 57.1358 11.0471C54.8199 8.79214 51.9427 7.66016 48.6883 7.66016C44.7604 7.66016 41.461 9.22999 39.1027 12.3354C38.4699 13.1642 37.9377 14.047 37.5786 14.9827C37.0039 16.4657 36.722 18.0264 36.7153 19.6415L39.869 27.5701ZM41.4896 14.1528C40.9804 14.8192 40.6098 15.4556 40.3777 16.062C39.936 17.2 39.7151 18.4129 39.7151 19.7007C39.7151 22.119 40.6061 24.1667 42.388 25.8438C44.1325 27.4984 46.2251 28.3257 48.6658 28.3257C51.174 28.3257 53.3003 27.4834 55.0447 25.7988C56.7967 24.0918 57.6727 21.988 57.6727 19.4873C57.6727 16.9941 56.7967 14.8978 55.0447 13.1982C53.3078 11.5062 51.1889 10.6602 48.6883 10.6602C45.6561 10.6602 43.2565 11.8244 41.4896 14.1528ZM52.0687 22.98C52.9072 22.0142 53.3265 20.8574 53.3265 19.5098C53.3265 18.1396 52.9072 16.9717 52.0687 16.0059C51.1777 14.9876 50.0584 14.4785 48.7108 14.4785C47.3481 14.4785 46.2251 14.9727 45.3416 15.9609C44.4881 16.9118 44.0613 18.0723 44.0613 19.4424C44.0613 20.8424 44.4918 22.0254 45.3528 22.9912C46.2438 24.002 47.3781 24.5073 48.7557 24.5073C50.0809 24.5073 51.1852 23.9982 52.0687 22.98ZM49.807 17.9769C49.4846 17.6101 49.1874 17.4785 48.7108 17.4785C48.1749 17.4785 47.8747 17.6287 47.5782 17.9603L47.5741 17.9649C47.2523 18.3234 47.0613 18.7538 47.0613 19.4424C47.0613 20.1718 47.263 20.6257 47.5922 20.9949L47.6033 21.0074C47.9103 21.3557 48.2172 21.5073 48.7557 21.5073C49.1943 21.5073 49.4777 21.3884 49.8027 21.0139C50.1405 20.6249 50.3265 20.1769 50.3265 19.5098C50.3265 18.8092 50.1342 18.3555 49.807 17.9769Z" fill="url(#paint9_linear_3417_6143)"/>
</g>
<g filter="url(#filter22_d_3417_6143)">
<path fill-rule="evenodd" clip-rule="evenodd" d="M20.4394 26.3614C21.9471 25.1423 22.94 23.5659 23.4179 21.6323H22.3361L27.0582 9.8579C27.5145 8.72027 28.6169 7.97461 29.8427 7.97461H33.268C34.4968 7.97461 35.6014 8.72401 36.0555 9.86583L39.7311 19.1066C39.7205 19.3028 39.7151 19.5008 39.7151 19.7007C39.7151 22.119 40.6061 24.1667 42.388 25.8438C42.4002 25.8553 42.4124 25.8668 42.4246 25.8783L42.8275 26.8912C43.195 27.8153 43.0808 28.8614 42.5225 29.6843C41.9642 30.5072 41.0344 31 40.0399 31H35.3231C34.0364 31 32.8929 30.1794 32.481 28.9604L32.3391 28.5405H30.6829L30.5043 29.0294C30.072 30.2128 28.9463 31 27.6864 31H23.0145C22.0186 31 21.0876 30.5057 20.5296 29.6808C19.9716 28.8558 19.8594 27.8077 20.2301 26.8833L20.4394 26.3614ZM28.5849 25.5405H34.4921L35.3231 28H40.0399L33.268 10.9746H29.8427L23.0145 28H27.6864L28.5849 25.5405ZM31.5946 16.2754H31.5272L29.7753 22.0928H33.3466L31.5946 16.2754Z" fill="url(#paint10_linear_3417_6143)"/>
</g>
<g filter="url(#filter23_d_3417_6143)">
<path fill-rule="evenodd" clip-rule="evenodd" d="M22.0695 24.6323C22.6917 23.7521 23.1412 22.7521 23.418 21.6323H18.8584C17.9899 23.549 16.6273 24.5073 14.7705 24.5073C13.4229 24.5073 12.311 23.9907 11.4351 22.9575C10.604 21.9842 10.1885 20.8125 10.1885 19.4424C10.1885 18.0872 10.604 16.9305 11.4351 15.9722C12.3035 14.9764 13.4079 14.4785 14.748 14.4785C16.7321 14.4785 18.1022 15.4668 18.8584 17.4434H23.418C23.2607 16.5075 22.8752 15.5791 22.2612 14.6582C22.2133 14.5856 22.1648 14.514 22.1158 14.4434C20.3652 11.9212 17.9168 10.6602 14.7705 10.6602C12.2848 10.6602 10.1772 11.5024 8.44775 13.187C6.71077 14.894 5.84229 16.9867 5.84229 19.4648C5.84229 21.9505 6.71826 24.0506 8.47021 25.7651C10.2147 27.4722 12.3298 28.3257 14.8154 28.3257C16.8818 28.3257 18.7049 27.7118 20.2847 26.4839C20.9861 25.9406 21.581 25.3234 22.0695 24.6323ZM22.1252 28.853C20.0007 30.504 17.5248 31.3257 14.8154 31.3257C11.5615 31.3257 8.68856 30.1762 6.37203 27.9093C4.03435 25.6216 2.84229 22.7447 2.84229 19.4648C2.84229 16.1979 4.0228 13.3295 6.34496 11.0473L6.35451 11.0379C8.66235 8.79005 11.5286 7.66016 14.7705 7.66016C18.9949 7.66016 22.438 9.48409 24.7611 12.9997C25.5691 14.2131 26.1388 15.5316 26.3765 16.9463C26.5227 17.8167 26.2783 18.7072 25.7083 19.381C25.6625 19.4351 25.615 19.4874 25.5658 19.5378C25.6412 19.6152 25.7128 19.6969 25.7801 19.783C25.9064 19.9442 26.0146 20.1163 26.1041 20.2964L23.0146 28H23.1123C22.8026 28.2985 22.4735 28.583 22.1252 28.853ZM16.7104 19.5378C16.4305 19.2509 16.2057 18.9054 16.0565 18.5153C15.8345 17.9352 15.6125 17.7277 15.5087 17.6528C15.4193 17.5884 15.2233 17.4785 14.748 17.4785C14.262 17.4785 13.9872 17.6113 13.6988 17.9408C13.3764 18.3139 13.1885 18.7578 13.1885 19.4424C13.1885 20.1528 13.3834 20.6193 13.7165 21.0095L13.7233 21.0175C14.0327 21.3823 14.3095 21.5073 14.7705 21.5073C15.155 21.5073 15.3405 21.4182 15.4592 21.3347C15.6013 21.2348 15.8553 20.9913 16.1258 20.3941C16.2722 20.0711 16.4714 19.7829 16.7104 19.5378Z" fill="url(#paint11_linear_3417_6143)"/>
</g>
<g filter="url(#filter24_d_3417_6143)">
<path d="M213.619 27.9771L207.139 17.6226L207.082 17.645L207.206 27.9771H203.039V10.9517H206.79L213.371 21.6543L213.416 21.6094L213.225 10.9517H217.392V27.9771H213.619Z" fill="#F2FBFF"/>
</g>
<g filter="url(#filter25_d_3417_6143)">
<path d="M197.502 27.9771L196.671 25.5176H190.764L189.865 27.9771H185.193L192.021 10.9517H195.447L202.219 27.9771H197.502ZM193.773 16.2524H193.706L191.954 22.0698H195.525L193.773 16.2524ZM191.887 10.1318L190.809 7.87451L196.323 4.90967L197.547 7.62744L191.887 10.1318Z" fill="#F2FBFF"/>
</g>
<g filter="url(#filter26_d_3417_6143)">
<path d="M185.103 19.4644C185.103 21.965 184.227 24.0688 182.475 25.7759C180.73 27.4604 178.604 28.3027 176.096 28.3027C173.655 28.3027 171.562 27.4754 169.818 25.8208C168.036 24.1437 167.145 22.096 167.145 19.6777C167.145 18.39 167.366 17.1771 167.808 16.0391C168.04 15.4326 168.41 14.7962 168.919 14.1299C170.686 11.8014 173.086 10.6372 176.118 10.6372C178.619 10.6372 180.738 11.4832 182.475 13.1753C184.227 14.8748 185.103 16.9712 185.103 19.4644ZM180.756 19.4868C180.756 18.1167 180.337 16.9487 179.499 15.9829C178.608 14.9647 177.488 14.4556 176.141 14.4556C174.778 14.4556 173.655 14.9497 172.772 15.938C171.918 16.8888 171.491 18.0493 171.491 19.4194C171.491 20.8195 171.922 22.0024 172.783 22.9683C173.674 23.979 174.808 24.4844 176.186 24.4844C177.511 24.4844 178.615 23.9753 179.499 22.957C180.337 21.9912 180.756 20.8345 180.756 19.4868Z" fill="#F2FBFF"/>
</g>
<g filter="url(#filter27_d_3417_6143)">
<path d="M166.448 19.4194C166.448 22.0099 165.718 24.0763 164.258 25.6187C162.761 27.1909 160.724 27.9771 158.149 27.9771H151.725V21.1714H150.186V17.353H151.725V10.9517H157.452C158.283 10.9517 159.013 10.9966 159.642 11.0864C160.368 11.1763 161.02 11.3298 161.596 11.5469C162.884 12.0335 163.981 12.8945 164.887 14.1299C165.928 15.5749 166.448 17.3381 166.448 19.4194ZM162.102 19.4868C162.102 18.0568 161.772 16.9338 161.113 16.1177C160.402 15.2192 159.35 14.77 157.958 14.77H156.071V17.353H158.553V21.1714H156.071V24.1587H157.935C159.358 24.1587 160.425 23.7244 161.136 22.856C161.78 22.0623 162.102 20.9393 162.102 19.4868Z" fill="#F2FBFF"/>
</g>
<g filter="url(#filter28_d_3417_6143)">
<path d="M134.383 33.4912V30.021H138.044V33.4912H134.383ZM142.739 13.8604V21.2388C142.739 22.3993 142.641 23.3389 142.447 24.0576C142.185 24.9785 141.717 25.7796 141.043 26.4609C139.837 27.6888 138.25 28.3027 136.281 28.3027C135.33 28.3027 134.447 28.1642 133.631 27.8872C132.717 27.5728 131.969 27.1048 131.385 26.4834C130.666 25.7272 130.187 24.9186 129.947 24.0576C129.842 23.6683 129.771 23.2303 129.734 22.7437C129.696 22.3543 129.678 21.8527 129.678 21.2388V10.9517H134.024V21.2388C134.024 21.688 134.046 22.0736 134.091 22.3955C134.151 22.8073 134.252 23.1554 134.394 23.4399C134.739 24.1362 135.353 24.4844 136.236 24.4844C137.15 24.4844 137.763 24.1437 138.078 23.4624C138.213 23.1854 138.303 22.841 138.347 22.4292C138.377 22.1297 138.392 21.7329 138.392 21.2388V10.9517H142.739V11.8613C143.046 11.5394 143.199 11.1463 143.199 10.6821H142.301V8.12158H144.872V10.7607C144.768 11.8464 144.412 12.6549 143.805 13.1865C143.469 13.471 143.113 13.6956 142.739 13.8604Z" fill="#F2FBFF"/>
</g>
<g filter="url(#filter29_d_3417_6143)">
<path d="M128.059 19.4194C128.059 25.1245 125.136 27.9771 119.288 27.9771H113.336V10.9517H118.974C119.813 10.9517 120.546 10.9928 121.175 11.0752C121.909 11.1725 122.571 11.3298 123.163 11.5469C124.488 12.026 125.596 12.887 126.487 14.1299C127.535 15.5824 128.059 17.3455 128.059 19.4194ZM123.713 19.4868C123.713 18.0568 123.384 16.9338 122.725 16.1177C122.006 15.2192 120.954 14.77 119.569 14.77H117.682V24.1587H119.547C120.969 24.1587 122.032 23.7244 122.736 22.856C123.388 22.0623 123.713 20.9393 123.713 19.4868Z" fill="#F2FBFF"/>
</g>
<g filter="url(#filter30_d_3417_6143)">
<path d="M105.271 21.2388C105.271 22.3993 105.174 23.3389 104.979 24.0576C104.717 24.9785 104.249 25.7796 103.575 26.4609C102.37 27.6888 100.783 28.3027 98.8135 28.3027C97.8551 28.3027 96.9717 28.1642 96.1631 27.8872C95.2497 27.5728 94.501 27.1048 93.917 26.4834C93.1982 25.7272 92.7191 24.9186 92.4795 24.0576C92.3747 23.6683 92.2998 23.2303 92.2549 22.7437C92.2249 22.3543 92.21 21.8527 92.21 21.2388V10.9517H96.5562V21.2388C96.5562 21.688 96.5786 22.0736 96.6235 22.3955C96.6834 22.8073 96.7845 23.1554 96.9268 23.4399C97.2712 24.1362 97.8851 24.4844 98.7686 24.4844C99.682 24.4844 100.296 24.1437 100.61 23.4624C100.738 23.1854 100.827 22.841 100.88 22.4292C100.91 22.1297 100.925 21.7329 100.925 21.2388V10.9517H105.271V21.2388ZM101.778 6.38086C101.778 6.79264 101.67 7.17448 101.453 7.52637C101.37 7.66862 101.262 7.81462 101.127 7.96436C101.03 8.08415 100.902 8.21517 100.745 8.35742L100.363 8.7168C100.221 8.85156 100.105 8.96761 100.015 9.06494C99.7905 9.32699 99.667 9.58154 99.6445 9.82861H97.6904C97.6904 9.48421 97.7952 9.1473 98.0049 8.81787C98.0872 8.69059 98.1883 8.55583 98.3081 8.41357C98.3979 8.30876 98.5177 8.18522 98.6675 8.04297L99.0156 7.69482C99.1429 7.56006 99.244 7.44401 99.3188 7.34668C99.521 7.09212 99.6221 6.8488 99.6221 6.6167C99.6221 6.15251 99.4049 5.92041 98.9707 5.92041C98.6637 5.92041 98.4504 6.03271 98.3306 6.25732C98.2482 6.40706 98.2033 6.65413 98.1958 6.99854H96.1406C96.1331 6.96859 96.1294 6.9349 96.1294 6.89746V6.79639C96.1294 5.97282 96.4176 5.29525 96.9941 4.76367C97.5482 4.25456 98.2445 4 99.083 4C100.221 4 101.03 4.44922 101.509 5.34766C101.688 5.68457 101.778 6.02897 101.778 6.38086Z" fill="#F2FBFF"/>
</g>
<g filter="url(#filter31_d_3417_6143)">
<path d="M85.7516 27.9771V21.1714H80.1813V27.9771H75.8351V10.9517H80.1813V17.353H85.7516V10.9517H90.0978V27.9771H85.7516Z" fill="#F2FBFF"/>
</g>
<g filter="url(#filter32_d_3417_6143)">
<path d="M71.6677 14.77V27.9771H67.3215V14.77H63.9636V10.9517H75.0031V14.77H71.6677Z" fill="#F2FBFF"/>
</g>
<g filter="url(#filter33_d_3417_6143)">
<path d="M57.6727 19.4644C57.6727 21.965 56.7967 24.0688 55.0447 25.7759C53.3003 27.4604 51.174 28.3027 48.6658 28.3027C46.2251 28.3027 44.1325 27.4754 42.388 25.8208C40.6061 24.1437 39.7151 22.096 39.7151 19.6777C39.7151 18.39 39.936 17.1771 40.3777 16.0391C40.6098 15.4326 40.9804 14.7962 41.4896 14.1299C43.2565 11.8014 45.6561 10.6372 48.6883 10.6372C51.1889 10.6372 53.3078 11.4832 55.0447 13.1753C56.7967 14.8748 57.6727 16.9712 57.6727 19.4644ZM53.3265 19.4868C53.3265 18.1167 52.9072 16.9487 52.0687 15.9829C51.1777 14.9647 50.0584 14.4556 48.7108 14.4556C47.3481 14.4556 46.2251 14.9497 45.3416 15.938C44.4881 16.8888 44.0613 18.0493 44.0613 19.4194C44.0613 20.8195 44.4918 22.0024 45.3528 22.9683C46.2438 23.979 47.3781 24.4844 48.7557 24.4844C50.0809 24.4844 51.1852 23.9753 52.0687 22.957C52.9072 21.9912 53.3265 20.8345 53.3265 19.4868Z" fill="#F2FBFF"/>
</g>
<g filter="url(#filter34_d_3417_6143)">
<path d="M35.3232 27.9771L34.4921 25.5176H28.5849L27.6865 27.9771H23.0146L29.8427 10.9517H33.268L40.04 27.9771H35.3232ZM31.5947 16.2524H31.5273L29.7753 22.0698H33.3466L31.5947 16.2524Z" fill="#F2FBFF"/>
</g>
<g filter="url(#filter35_d_3417_6143)">
<path d="M23.418 21.6094C22.9238 23.6084 21.8794 25.2256 20.2847 26.4609C18.7049 27.6888 16.8818 28.3027 14.8154 28.3027C12.3298 28.3027 10.2147 27.4492 8.47021 25.7422C6.71826 24.0277 5.84229 21.9276 5.84229 19.4419C5.84229 16.9637 6.71077 14.8711 8.44775 13.1641C10.1772 11.4795 12.2848 10.6372 14.7705 10.6372C18.0049 10.6372 20.5018 11.9699 22.2612 14.6353C22.8752 15.5562 23.2607 16.4845 23.418 17.4204H18.8584C18.1022 15.4438 16.7321 14.4556 14.748 14.4556C13.4079 14.4556 12.3035 14.9535 11.4351 15.9492C10.604 16.9076 10.1885 18.0643 10.1885 19.4194C10.1885 20.7896 10.604 21.9613 11.4351 22.9346C12.311 23.9678 13.4229 24.4844 14.7705 24.4844C16.6273 24.4844 17.9899 23.526 18.8584 21.6094H23.418Z" fill="#F2FBFF"/>
</g>
<defs>
<filter id="filter0_d_3417_6143" x="201.039" y="9.97461" width="18.3525" height="21.0254" filterUnits="userSpaceOnUse" color-interpolation-filters="sRGB">
<feFlood flood-opacity="0" result="BackgroundImageFix"/>
<feColorMatrix in="SourceAlpha" type="matrix" values="0 0 0 0 0 0 0 0 0 0 0 0 0 0 0 0 0 0 127 0" result="hardAlpha"/>
<feOffset dy="1"/>
<feGaussianBlur stdDeviation="1"/>
<feComposite in2="hardAlpha" operator="out"/>
<feColorMatrix type="matrix" values="0 0 0 0 0.0240789 0 0 0 0 0.198568 0 0 0 0 0.217432 0 0 0 1 0"/>
<feBlend mode="normal" in2="BackgroundImageFix" result="effect1_dropShadow_3417_6143"/>
<feBlend mode="normal" in="SourceGraphic" in2="effect1_dropShadow_3417_6143" result="shape"/>
</filter>
<filter id="filter1_d_3417_6143" x="183.193" y="3.93262" width="21.0254" height="27.0674" filterUnits="userSpaceOnUse" color-interpolation-filters="sRGB">
<feFlood flood-opacity="0" result="BackgroundImageFix"/>
<feColorMatrix in="SourceAlpha" type="matrix" values="0 0 0 0 0 0 0 0 0 0 0 0 0 0 0 0 0 0 127 0" result="hardAlpha"/>
<feOffset dy="1"/>
<feGaussianBlur stdDeviation="1"/>
<feComposite in2="hardAlpha" operator="out"/>
<feColorMatrix type="matrix" values="0 0 0 0 0.0240789 0 0 0 0 0.198568 0 0 0 0 0.217432 0 0 0 1 0"/>
<feBlend mode="normal" in2="BackgroundImageFix" result="effect1_dropShadow_3417_6143"/>
<feBlend mode="normal" in="SourceGraphic" in2="effect1_dropShadow_3417_6143" result="shape"/>
</filter>
<filter id="filter2_d_3417_6143" x="165.145" y="9.66016" width="21.9575" height="21.6655" filterUnits="userSpaceOnUse" color-interpolation-filters="sRGB">
<feFlood flood-opacity="0" result="BackgroundImageFix"/>
<feColorMatrix in="SourceAlpha" type="matrix" values="0 0 0 0 0 0 0 0 0 0 0 0 0 0 0 0 0 0 127 0" result="hardAlpha"/>
<feOffset dy="1"/>
<feGaussianBlur stdDeviation="1"/>
<feComposite in2="hardAlpha" operator="out"/>
<feColorMatrix type="matrix" values="0 0 0 0 0.0240789 0 0 0 0 0.198568 0 0 0 0 0.217432 0 0 0 1 0"/>
<feBlend mode="normal" in2="BackgroundImageFix" result="effect1_dropShadow_3417_6143"/>
<feBlend mode="normal" in="SourceGraphic" in2="effect1_dropShadow_3417_6143" result="shape"/>
</filter>
<filter id="filter3_d_3417_6143" x="148.186" y="9.97461" width="20.2617" height="21.0254" filterUnits="userSpaceOnUse" color-interpolation-filters="sRGB">
<feFlood flood-opacity="0" result="BackgroundImageFix"/>
<feColorMatrix in="SourceAlpha" type="matrix" values="0 0 0 0 0 0 0 0 0 0 0 0 0 0 0 0 0 0 127 0" result="hardAlpha"/>
<feOffset dy="1"/>
<feGaussianBlur stdDeviation="1"/>
<feComposite in2="hardAlpha" operator="out"/>
<feColorMatrix type="matrix" values="0 0 0 0 0.0240789 0 0 0 0 0.198568 0 0 0 0 0.217432 0 0 0 1 0"/>
<feBlend mode="normal" in2="BackgroundImageFix" result="effect1_dropShadow_3417_6143"/>
<feBlend mode="normal" in="SourceGraphic" in2="effect1_dropShadow_3417_6143" result="shape"/>
</filter>
<filter id="filter4_d_3417_6143" x="127.678" y="7.14453" width="19.1948" height="29.3696" filterUnits="userSpaceOnUse" color-interpolation-filters="sRGB">
<feFlood flood-opacity="0" result="BackgroundImageFix"/>
<feColorMatrix in="SourceAlpha" type="matrix" values="0 0 0 0 0 0 0 0 0 0 0 0 0 0 0 0 0 0 127 0" result="hardAlpha"/>
<feOffset dy="1"/>
<feGaussianBlur stdDeviation="1"/>
<feComposite in2="hardAlpha" operator="out"/>
<feColorMatrix type="matrix" values="0 0 0 0 0.0240789 0 0 0 0 0.198568 0 0 0 0 0.217432 0 0 0 1 0"/>
<feBlend mode="normal" in2="BackgroundImageFix" result="effect1_dropShadow_3417_6143"/>
<feBlend mode="normal" in="SourceGraphic" in2="effect1_dropShadow_3417_6143" result="shape"/>
</filter>
<filter id="filter5_d_3417_6143" x="111.336" y="9.97461" width="18.7231" height="21.0254" filterUnits="userSpaceOnUse" color-interpolation-filters="sRGB">
<feFlood flood-opacity="0" result="BackgroundImageFix"/>
<feColorMatrix in="SourceAlpha" type="matrix" values="0 0 0 0 0 0 0 0 0 0 0 0 0 0 0 0 0 0 127 0" result="hardAlpha"/>
<feOffset dy="1"/>
<feGaussianBlur stdDeviation="1"/>
<feComposite in2="hardAlpha" operator="out"/>
<feColorMatrix type="matrix" values="0 0 0 0 0.0240789 0 0 0 0 0.198568 0 0 0 0 0.217432 0 0 0 1 0"/>
<feBlend mode="normal" in2="BackgroundImageFix" result="effect1_dropShadow_3417_6143"/>
<feBlend mode="normal" in="SourceGraphic" in2="effect1_dropShadow_3417_6143" result="shape"/>
</filter>
<filter id="filter6_d_3417_6143" x="90.21" y="3.02295" width="17.061" height="28.3027" filterUnits="userSpaceOnUse" color-interpolation-filters="sRGB">
<feFlood flood-opacity="0" result="BackgroundImageFix"/>
<feColorMatrix in="SourceAlpha" type="matrix" values="0 0 0 0 0 0 0 0 0 0 0 0 0 0 0 0 0 0 127 0" result="hardAlpha"/>
<feOffset dy="1"/>
<feGaussianBlur stdDeviation="1"/>
<feComposite in2="hardAlpha" operator="out"/>
<feColorMatrix type="matrix" values="0 0 0 0 0.0240789 0 0 0 0 0.198568 0 0 0 0 0.217432 0 0 0 1 0"/>
<feBlend mode="normal" in2="BackgroundImageFix" result="effect1_dropShadow_3417_6143"/>
<feBlend mode="normal" in="SourceGraphic" in2="effect1_dropShadow_3417_6143" result="shape"/>
</filter>
<filter id="filter7_d_3417_6143" x="73.8351" y="9.97461" width="18.2627" height="21.0254" filterUnits="userSpaceOnUse" color-interpolation-filters="sRGB">
<feFlood flood-opacity="0" result="BackgroundImageFix"/>
<feColorMatrix in="SourceAlpha" type="matrix" values="0 0 0 0 0 0 0 0 0 0 0 0 0 0 0 0 0 0 127 0" result="hardAlpha"/>
<feOffset dy="1"/>
<feGaussianBlur stdDeviation="1"/>
<feComposite in2="hardAlpha" operator="out"/>
<feColorMatrix type="matrix" values="0 0 0 0 0.0240789 0 0 0 0 0.198568 0 0 0 0 0.217432 0 0 0 1 0"/>
<feBlend mode="normal" in2="BackgroundImageFix" result="effect1_dropShadow_3417_6143"/>
<feBlend mode="normal" in="SourceGraphic" in2="effect1_dropShadow_3417_6143" result="shape"/>
</filter>
<filter id="filter8_d_3417_6143" x="61.9636" y="9.97461" width="15.0396" height="21.0254" filterUnits="userSpaceOnUse" color-interpolation-filters="sRGB">
<feFlood flood-opacity="0" result="BackgroundImageFix"/>
<feColorMatrix in="SourceAlpha" type="matrix" values="0 0 0 0 0 0 0 0 0 0 0 0 0 0 0 0 0 0 127 0" result="hardAlpha"/>
<feOffset dy="1"/>
<feGaussianBlur stdDeviation="1"/>
<feComposite in2="hardAlpha" operator="out"/>
<feColorMatrix type="matrix" values="0 0 0 0 0.0240789 0 0 0 0 0.198568 0 0 0 0 0.217432 0 0 0 1 0"/>
<feBlend mode="normal" in2="BackgroundImageFix" result="effect1_dropShadow_3417_6143"/>
<feBlend mode="normal" in="SourceGraphic" in2="effect1_dropShadow_3417_6143" result="shape"/>
</filter>
<filter id="filter9_d_3417_6143" x="37.7151" y="9.66016" width="21.9575" height="21.6655" filterUnits="userSpaceOnUse" color-interpolation-filters="sRGB">
<feFlood flood-opacity="0" result="BackgroundImageFix"/>
<feColorMatrix in="SourceAlpha" type="matrix" values="0 0 0 0 0 0 0 0 0 0 0 0 0 0 0 0 0 0 127 0" result="hardAlpha"/>
<feOffset dy="1"/>
<feGaussianBlur stdDeviation="1"/>
<feComposite in2="hardAlpha" operator="out"/>
<feColorMatrix type="matrix" values="0 0 0 0 0.0240789 0 0 0 0 0.198568 0 0 0 0 0.217432 0 0 0 1 0"/>
<feBlend mode="normal" in2="BackgroundImageFix" result="effect1_dropShadow_3417_6143"/>
<feBlend mode="normal" in="SourceGraphic" in2="effect1_dropShadow_3417_6143" result="shape"/>
</filter>
<filter id="filter10_d_3417_6143" x="21.0146" y="9.97461" width="21.0254" height="21.0254" filterUnits="userSpaceOnUse" color-interpolation-filters="sRGB">
<feFlood flood-opacity="0" result="BackgroundImageFix"/>
<feColorMatrix in="SourceAlpha" type="matrix" values="0 0 0 0 0 0 0 0 0 0 0 0 0 0 0 0 0 0 127 0" result="hardAlpha"/>
<feOffset dy="1"/>
<feGaussianBlur stdDeviation="1"/>
<feComposite in2="hardAlpha" operator="out"/>
<feColorMatrix type="matrix" values="0 0 0 0 0.0240789 0 0 0 0 0.198568 0 0 0 0 0.217432 0 0 0 1 0"/>
<feBlend mode="normal" in2="BackgroundImageFix" result="effect1_dropShadow_3417_6143"/>
<feBlend mode="normal" in="SourceGraphic" in2="effect1_dropShadow_3417_6143" result="shape"/>
</filter>
<filter id="filter11_d_3417_6143" x="3.84229" y="9.66016" width="21.5757" height="21.6655" filterUnits="userSpaceOnUse" color-interpolation-filters="sRGB">
<feFlood flood-opacity="0" result="BackgroundImageFix"/>
<feColorMatrix in="SourceAlpha" type="matrix" values="0 0 0 0 0 0 0 0 0 0 0 0 0 0 0 0 0 0 127 0" result="hardAlpha"/>
<feOffset dy="1"/>
<feGaussianBlur stdDeviation="1"/>
<feComposite in2="hardAlpha" operator="out"/>
<feColorMatrix type="matrix" values="0 0 0 0 0.0240789 0 0 0 0 0.198568 0 0 0 0 0.217432 0 0 0 1 0"/>
<feBlend mode="normal" in2="BackgroundImageFix" result="effect1_dropShadow_3417_6143"/>
<feBlend mode="normal" in="SourceGraphic" in2="effect1_dropShadow_3417_6143" result="shape"/>
</filter>
<filter id="filter12_d_3417_6143" x="198.039" y="6.97461" width="24.3525" height="27.0254" filterUnits="userSpaceOnUse" color-interpolation-filters="sRGB">
<feFlood flood-opacity="0" result="BackgroundImageFix"/>
<feColorMatrix in="SourceAlpha" type="matrix" values="0 0 0 0 0 0 0 0 0 0 0 0 0 0 0 0 0 0 127 0" result="hardAlpha"/>
<feOffset dy="1"/>
<feGaussianBlur stdDeviation="1"/>
<feComposite in2="hardAlpha" operator="out"/>
<feColorMatrix type="matrix" values="0 0 0 0 0.0240789 0 0 0 0 0.198568 0 0 0 0 0.217432 0 0 0 1 0"/>
<feBlend mode="normal" in2="BackgroundImageFix" result="effect1_dropShadow_3417_6143"/>
<feBlend mode="normal" in="SourceGraphic" in2="effect1_dropShadow_3417_6143" result="shape"/>
</filter>
<filter id="filter13_d_3417_6143" x="180.193" y="0.932617" width="27.0254" height="33.0674" filterUnits="userSpaceOnUse" color-interpolation-filters="sRGB">
<feFlood flood-opacity="0" result="BackgroundImageFix"/>
<feColorMatrix in="SourceAlpha" type="matrix" values="0 0 0 0 0 0 0 0 0 0 0 0 0 0 0 0 0 0 127 0" result="hardAlpha"/>
<feOffset dy="1"/>
<feGaussianBlur stdDeviation="1"/>
<feComposite in2="hardAlpha" operator="out"/>
<feColorMatrix type="matrix" values="0 0 0 0 0.0240789 0 0 0 0 0.198568 0 0 0 0 0.217432 0 0 0 1 0"/>
<feBlend mode="normal" in2="BackgroundImageFix" result="effect1_dropShadow_3417_6143"/>
<feBlend mode="normal" in="SourceGraphic" in2="effect1_dropShadow_3417_6143" result="shape"/>
</filter>
<filter id="filter14_d_3417_6143" x="163.163" y="6.66016" width="26.9392" height="27.6655" filterUnits="userSpaceOnUse" color-interpolation-filters="sRGB">
<feFlood flood-opacity="0" result="BackgroundImageFix"/>
<feColorMatrix in="SourceAlpha" type="matrix" values="0 0 0 0 0 0 0 0 0 0 0 0 0 0 0 0 0 0 127 0" result="hardAlpha"/>
<feOffset dy="1"/>
<feGaussianBlur stdDeviation="1"/>
<feComposite in2="hardAlpha" operator="out"/>
<feColorMatrix type="matrix" values="0 0 0 0 0.0240789 0 0 0 0 0.198568 0 0 0 0 0.217432 0 0 0 1 0"/>
<feBlend mode="normal" in2="BackgroundImageFix" result="effect1_dropShadow_3417_6143"/>
<feBlend mode="normal" in="SourceGraphic" in2="effect1_dropShadow_3417_6143" result="shape"/>
</filter>
<filter id="filter15_d_3417_6143" x="145.186" y="6.97461" width="25.3774" height="27.0254" filterUnits="userSpaceOnUse" color-interpolation-filters="sRGB">
<feFlood flood-opacity="0" result="BackgroundImageFix"/>
<feColorMatrix in="SourceAlpha" type="matrix" values="0 0 0 0 0 0 0 0 0 0 0 0 0 0 0 0 0 0 127 0" result="hardAlpha"/>
<feOffset dy="1"/>
<feGaussianBlur stdDeviation="1"/>
<feComposite in2="hardAlpha" operator="out"/>
<feColorMatrix type="matrix" values="0 0 0 0 0.0240789 0 0 0 0 0.198568 0 0 0 0 0.217432 0 0 0 1 0"/>
<feBlend mode="normal" in2="BackgroundImageFix" result="effect1_dropShadow_3417_6143"/>
<feBlend mode="normal" in="SourceGraphic" in2="effect1_dropShadow_3417_6143" result="shape"/>
</filter>
<filter id="filter16_d_3417_6143" x="124.678" y="4.14453" width="25.1948" height="35.3696" filterUnits="userSpaceOnUse" color-interpolation-filters="sRGB">
<feFlood flood-opacity="0" result="BackgroundImageFix"/>
<feColorMatrix in="SourceAlpha" type="matrix" values="0 0 0 0 0 0 0 0 0 0 0 0 0 0 0 0 0 0 127 0" result="hardAlpha"/>
<feOffset dy="1"/>
<feGaussianBlur stdDeviation="1"/>
<feComposite in2="hardAlpha" operator="out"/>
<feColorMatrix type="matrix" values="0 0 0 0 0.0240789 0 0 0 0 0.198568 0 0 0 0 0.217432 0 0 0 1 0"/>
<feBlend mode="normal" in2="BackgroundImageFix" result="effect1_dropShadow_3417_6143"/>
<feBlend mode="normal" in="SourceGraphic" in2="effect1_dropShadow_3417_6143" result="shape"/>
</filter>
<filter id="filter17_d_3417_6143" x="108.336" y="6.97461" width="23.8202" height="27.0254" filterUnits="userSpaceOnUse" color-interpolation-filters="sRGB">
<feFlood flood-opacity="0" result="BackgroundImageFix"/>
<feColorMatrix in="SourceAlpha" type="matrix" values="0 0 0 0 0 0 0 0 0 0 0 0 0 0 0 0 0 0 127 0" result="hardAlpha"/>
<feOffset dy="1"/>
<feGaussianBlur stdDeviation="1"/>
<feComposite in2="hardAlpha" operator="out"/>
<feColorMatrix type="matrix" values="0 0 0 0 0.0240789 0 0 0 0 0.198568 0 0 0 0 0.217432 0 0 0 1 0"/>
<feBlend mode="normal" in2="BackgroundImageFix" result="effect1_dropShadow_3417_6143"/>
<feBlend mode="normal" in="SourceGraphic" in2="effect1_dropShadow_3417_6143" result="shape"/>
</filter>
<filter id="filter18_d_3417_6143" x="87.21" y="0.0229492" width="23.061" height="34.3027" filterUnits="userSpaceOnUse" color-interpolation-filters="sRGB">
<feFlood flood-opacity="0" result="BackgroundImageFix"/>
<feColorMatrix in="SourceAlpha" type="matrix" values="0 0 0 0 0 0 0 0 0 0 0 0 0 0 0 0 0 0 127 0" result="hardAlpha"/>
<feOffset dy="1"/>
<feGaussianBlur stdDeviation="1"/>
<feComposite in2="hardAlpha" operator="out"/>
<feColorMatrix type="matrix" values="0 0 0 0 0.0240789 0 0 0 0 0.198568 0 0 0 0 0.217432 0 0 0 1 0"/>
<feBlend mode="normal" in2="BackgroundImageFix" result="effect1_dropShadow_3417_6143"/>
<feBlend mode="normal" in="SourceGraphic" in2="effect1_dropShadow_3417_6143" result="shape"/>
</filter>
<filter id="filter19_d_3417_6143" x="70.8351" y="6.97461" width="24.2627" height="27.0254" filterUnits="userSpaceOnUse" color-interpolation-filters="sRGB">
<feFlood flood-opacity="0" result="BackgroundImageFix"/>
<feColorMatrix in="SourceAlpha" type="matrix" values="0 0 0 0 0 0 0 0 0 0 0 0 0 0 0 0 0 0 127 0" result="hardAlpha"/>
<feOffset dy="1"/>
<feGaussianBlur stdDeviation="1"/>
<feComposite in2="hardAlpha" operator="out"/>
<feColorMatrix type="matrix" values="0 0 0 0 0.0240789 0 0 0 0 0.198568 0 0 0 0 0.217432 0 0 0 1 0"/>
<feBlend mode="normal" in2="BackgroundImageFix" result="effect1_dropShadow_3417_6143"/>
<feBlend mode="normal" in="SourceGraphic" in2="effect1_dropShadow_3417_6143" result="shape"/>
</filter>
<filter id="filter20_d_3417_6143" x="58.9636" y="6.97461" width="21.0396" height="27.0254" filterUnits="userSpaceOnUse" color-interpolation-filters="sRGB">
<feFlood flood-opacity="0" result="BackgroundImageFix"/>
<feColorMatrix in="SourceAlpha" type="matrix" values="0 0 0 0 0 0 0 0 0 0 0 0 0 0 0 0 0 0 127 0" result="hardAlpha"/>
<feOffset dy="1"/>
<feGaussianBlur stdDeviation="1"/>
<feComposite in2="hardAlpha" operator="out"/>
<feColorMatrix type="matrix" values="0 0 0 0 0.0240789 0 0 0 0 0.198568 0 0 0 0 0.217432 0 0 0 1 0"/>
<feBlend mode="normal" in2="BackgroundImageFix" result="effect1_dropShadow_3417_6143"/>
<feBlend mode="normal" in="SourceGraphic" in2="effect1_dropShadow_3417_6143" result="shape"/>
</filter>
<filter id="filter21_d_3417_6143" x="34.7153" y="6.66016" width="27.9574" height="27.6655" filterUnits="userSpaceOnUse" color-interpolation-filters="sRGB">
<feFlood flood-opacity="0" result="BackgroundImageFix"/>
<feColorMatrix in="SourceAlpha" type="matrix" values="0 0 0 0 0 0 0 0 0 0 0 0 0 0 0 0 0 0 127 0" result="hardAlpha"/>
<feOffset dy="1"/>
<feGaussianBlur stdDeviation="1"/>
<feComposite in2="hardAlpha" operator="out"/>
<feColorMatrix type="matrix" values="0 0 0 0 0.0240789 0 0 0 0 0.198568 0 0 0 0 0.217432 0 0 0 1 0"/>
<feBlend mode="normal" in2="BackgroundImageFix" result="effect1_dropShadow_3417_6143"/>
<feBlend mode="normal" in="SourceGraphic" in2="effect1_dropShadow_3417_6143" result="shape"/>
</filter>
<filter id="filter22_d_3417_6143" x="18.0145" y="6.97461" width="27.0254" height="27.0254" filterUnits="userSpaceOnUse" color-interpolation-filters="sRGB">
<feFlood flood-opacity="0" result="BackgroundImageFix"/>
<feColorMatrix in="SourceAlpha" type="matrix" values="0 0 0 0 0 0 0 0 0 0 0 0 0 0 0 0 0 0 127 0" result="hardAlpha"/>
<feOffset dy="1"/>
<feGaussianBlur stdDeviation="1"/>
<feComposite in2="hardAlpha" operator="out"/>
<feColorMatrix type="matrix" values="0 0 0 0 0.0240789 0 0 0 0 0.198568 0 0 0 0 0.217432 0 0 0 1 0"/>
<feBlend mode="normal" in2="BackgroundImageFix" result="effect1_dropShadow_3417_6143"/>
<feBlend mode="normal" in="SourceGraphic" in2="effect1_dropShadow_3417_6143" result="shape"/>
</filter>
<filter id="filter23_d_3417_6143" x="0.842285" y="6.66016" width="27.5757" height="27.6655" filterUnits="userSpaceOnUse" color-interpolation-filters="sRGB">
<feFlood flood-opacity="0" result="BackgroundImageFix"/>
<feColorMatrix in="SourceAlpha" type="matrix" values="0 0 0 0 0 0 0 0 0 0 0 0 0 0 0 0 0 0 127 0" result="hardAlpha"/>
<feOffset dy="1"/>
<feGaussianBlur stdDeviation="1"/>
<feComposite in2="hardAlpha" operator="out"/>
<feColorMatrix type="matrix" values="0 0 0 0 0.0240789 0 0 0 0 0.198568 0 0 0 0 0.217432 0 0 0 1 0"/>
<feBlend mode="normal" in2="BackgroundImageFix" result="effect1_dropShadow_3417_6143"/>
<feBlend mode="normal" in="SourceGraphic" in2="effect1_dropShadow_3417_6143" result="shape"/>
</filter>
<filter id="filter24_d_3417_6143" x="203.039" y="10.9517" width="15.6525" height="18.3254" filterUnits="userSpaceOnUse" color-interpolation-filters="sRGB">
<feFlood flood-opacity="0" result="BackgroundImageFix"/>
<feColorMatrix in="SourceAlpha" type="matrix" values="0 0 0 0 0 0 0 0 0 0 0 0 0 0 0 0 0 0 127 0" result="hardAlpha"/>
<feOffset dx="1" dy="1"/>
<feGaussianBlur stdDeviation="0.15"/>
<feComposite in2="hardAlpha" operator="out"/>
<feColorMatrix type="matrix" values="0 0 0 0 0.113725 0 0 0 0 0.345098 0 0 0 0 0.4 0 0 0 1 0"/>
<feBlend mode="normal" in2="BackgroundImageFix" result="effect1_dropShadow_3417_6143"/>
<feBlend mode="normal" in="SourceGraphic" in2="effect1_dropShadow_3417_6143" result="shape"/>
</filter>
<filter id="filter25_d_3417_6143" x="185.193" y="4.90967" width="18.3254" height="24.3674" filterUnits="userSpaceOnUse" color-interpolation-filters="sRGB">
<feFlood flood-opacity="0" result="BackgroundImageFix"/>
<feColorMatrix in="SourceAlpha" type="matrix" values="0 0 0 0 0 0 0 0 0 0 0 0 0 0 0 0 0 0 127 0" result="hardAlpha"/>
<feOffset dx="1" dy="1"/>
<feGaussianBlur stdDeviation="0.15"/>
<feComposite in2="hardAlpha" operator="out"/>
<feColorMatrix type="matrix" values="0 0 0 0 0.113725 0 0 0 0 0.345098 0 0 0 0 0.4 0 0 0 1 0"/>
<feBlend mode="normal" in2="BackgroundImageFix" result="effect1_dropShadow_3417_6143"/>
<feBlend mode="normal" in="SourceGraphic" in2="effect1_dropShadow_3417_6143" result="shape"/>
</filter>
<filter id="filter26_d_3417_6143" x="167.145" y="10.6372" width="19.2575" height="18.9655" filterUnits="userSpaceOnUse" color-interpolation-filters="sRGB">
<feFlood flood-opacity="0" result="BackgroundImageFix"/>
<feColorMatrix in="SourceAlpha" type="matrix" values="0 0 0 0 0 0 0 0 0 0 0 0 0 0 0 0 0 0 127 0" result="hardAlpha"/>
<feOffset dx="1" dy="1"/>
<feGaussianBlur stdDeviation="0.15"/>
<feComposite in2="hardAlpha" operator="out"/>
<feColorMatrix type="matrix" values="0 0 0 0 0.113725 0 0 0 0 0.345098 0 0 0 0 0.4 0 0 0 1 0"/>
<feBlend mode="normal" in2="BackgroundImageFix" result="effect1_dropShadow_3417_6143"/>
<feBlend mode="normal" in="SourceGraphic" in2="effect1_dropShadow_3417_6143" result="shape"/>
</filter>
<filter id="filter27_d_3417_6143" x="150.186" y="10.9517" width="17.5617" height="18.3254" filterUnits="userSpaceOnUse" color-interpolation-filters="sRGB">
<feFlood flood-opacity="0" result="BackgroundImageFix"/>
<feColorMatrix in="SourceAlpha" type="matrix" values="0 0 0 0 0 0 0 0 0 0 0 0 0 0 0 0 0 0 127 0" result="hardAlpha"/>
<feOffset dx="1" dy="1"/>
<feGaussianBlur stdDeviation="0.15"/>
<feComposite in2="hardAlpha" operator="out"/>
<feColorMatrix type="matrix" values="0 0 0 0 0.113725 0 0 0 0 0.345098 0 0 0 0 0.4 0 0 0 1 0"/>
<feBlend mode="normal" in2="BackgroundImageFix" result="effect1_dropShadow_3417_6143"/>
<feBlend mode="normal" in="SourceGraphic" in2="effect1_dropShadow_3417_6143" result="shape"/>
</filter>
<filter id="filter28_d_3417_6143" x="129.678" y="8.12158" width="16.4948" height="26.6696" filterUnits="userSpaceOnUse" color-interpolation-filters="sRGB">
<feFlood flood-opacity="0" result="BackgroundImageFix"/>
<feColorMatrix in="SourceAlpha" type="matrix" values="0 0 0 0 0 0 0 0 0 0 0 0 0 0 0 0 0 0 127 0" result="hardAlpha"/>
<feOffset dx="1" dy="1"/>
<feGaussianBlur stdDeviation="0.15"/>
<feComposite in2="hardAlpha" operator="out"/>
<feColorMatrix type="matrix" values="0 0 0 0 0.113725 0 0 0 0 0.345098 0 0 0 0 0.4 0 0 0 1 0"/>
<feBlend mode="normal" in2="BackgroundImageFix" result="effect1_dropShadow_3417_6143"/>
<feBlend mode="normal" in="SourceGraphic" in2="effect1_dropShadow_3417_6143" result="shape"/>
</filter>
<filter id="filter29_d_3417_6143" x="113.336" y="10.9517" width="16.0231" height="18.3254" filterUnits="userSpaceOnUse" color-interpolation-filters="sRGB">
<feFlood flood-opacity="0" result="BackgroundImageFix"/>
<feColorMatrix in="SourceAlpha" type="matrix" values="0 0 0 0 0 0 0 0 0 0 0 0 0 0 0 0 0 0 127 0" result="hardAlpha"/>
<feOffset dx="1" dy="1"/>
<feGaussianBlur stdDeviation="0.15"/>
<feComposite in2="hardAlpha" operator="out"/>
<feColorMatrix type="matrix" values="0 0 0 0 0.113725 0 0 0 0 0.345098 0 0 0 0 0.4 0 0 0 1 0"/>
<feBlend mode="normal" in2="BackgroundImageFix" result="effect1_dropShadow_3417_6143"/>
<feBlend mode="normal" in="SourceGraphic" in2="effect1_dropShadow_3417_6143" result="shape"/>
</filter>
<filter id="filter30_d_3417_6143" x="92.21" y="4" width="14.361" height="25.6027" filterUnits="userSpaceOnUse" color-interpolation-filters="sRGB">
<feFlood flood-opacity="0" result="BackgroundImageFix"/>
<feColorMatrix in="SourceAlpha" type="matrix" values="0 0 0 0 0 0 0 0 0 0 0 0 0 0 0 0 0 0 127 0" result="hardAlpha"/>
<feOffset dx="1" dy="1"/>
<feGaussianBlur stdDeviation="0.15"/>
<feComposite in2="hardAlpha" operator="out"/>
<feColorMatrix type="matrix" values="0 0 0 0 0.113725 0 0 0 0 0.345098 0 0 0 0 0.4 0 0 0 1 0"/>
<feBlend mode="normal" in2="BackgroundImageFix" result="effect1_dropShadow_3417_6143"/>
<feBlend mode="normal" in="SourceGraphic" in2="effect1_dropShadow_3417_6143" result="shape"/>
</filter>
<filter id="filter31_d_3417_6143" x="75.8351" y="10.9517" width="15.5627" height="18.3254" filterUnits="userSpaceOnUse" color-interpolation-filters="sRGB">
<feFlood flood-opacity="0" result="BackgroundImageFix"/>
<feColorMatrix in="SourceAlpha" type="matrix" values="0 0 0 0 0 0 0 0 0 0 0 0 0 0 0 0 0 0 127 0" result="hardAlpha"/>
<feOffset dx="1" dy="1"/>
<feGaussianBlur stdDeviation="0.15"/>
<feComposite in2="hardAlpha" operator="out"/>
<feColorMatrix type="matrix" values="0 0 0 0 0.113725 0 0 0 0 0.345098 0 0 0 0 0.4 0 0 0 1 0"/>
<feBlend mode="normal" in2="BackgroundImageFix" result="effect1_dropShadow_3417_6143"/>
<feBlend mode="normal" in="SourceGraphic" in2="effect1_dropShadow_3417_6143" result="shape"/>
</filter>
<filter id="filter32_d_3417_6143" x="63.9636" y="10.9517" width="12.3396" height="18.3254" filterUnits="userSpaceOnUse" color-interpolation-filters="sRGB">
<feFlood flood-opacity="0" result="BackgroundImageFix"/>
<feColorMatrix in="SourceAlpha" type="matrix" values="0 0 0 0 0 0 0 0 0 0 0 0 0 0 0 0 0 0 127 0" result="hardAlpha"/>
<feOffset dx="1" dy="1"/>
<feGaussianBlur stdDeviation="0.15"/>
<feComposite in2="hardAlpha" operator="out"/>
<feColorMatrix type="matrix" values="0 0 0 0 0.113725 0 0 0 0 0.345098 0 0 0 0 0.4 0 0 0 1 0"/>
<feBlend mode="normal" in2="BackgroundImageFix" result="effect1_dropShadow_3417_6143"/>
<feBlend mode="normal" in="SourceGraphic" in2="effect1_dropShadow_3417_6143" result="shape"/>
</filter>
<filter id="filter33_d_3417_6143" x="39.7151" y="10.6372" width="19.2575" height="18.9655" filterUnits="userSpaceOnUse" color-interpolation-filters="sRGB">
<feFlood flood-opacity="0" result="BackgroundImageFix"/>
<feColorMatrix in="SourceAlpha" type="matrix" values="0 0 0 0 0 0 0 0 0 0 0 0 0 0 0 0 0 0 127 0" result="hardAlpha"/>
<feOffset dx="1" dy="1"/>
<feGaussianBlur stdDeviation="0.15"/>
<feComposite in2="hardAlpha" operator="out"/>
<feColorMatrix type="matrix" values="0 0 0 0 0.113725 0 0 0 0 0.345098 0 0 0 0 0.4 0 0 0 1 0"/>
<feBlend mode="normal" in2="BackgroundImageFix" result="effect1_dropShadow_3417_6143"/>
<feBlend mode="normal" in="SourceGraphic" in2="effect1_dropShadow_3417_6143" result="shape"/>
</filter>
<filter id="filter34_d_3417_6143" x="23.0146" y="10.9517" width="18.3254" height="18.3254" filterUnits="userSpaceOnUse" color-interpolation-filters="sRGB">
<feFlood flood-opacity="0" result="BackgroundImageFix"/>
<feColorMatrix in="SourceAlpha" type="matrix" values="0 0 0 0 0 0 0 0 0 0 0 0 0 0 0 0 0 0 127 0" result="hardAlpha"/>
<feOffset dx="1" dy="1"/>
<feGaussianBlur stdDeviation="0.15"/>
<feComposite in2="hardAlpha" operator="out"/>
<feColorMatrix type="matrix" values="0 0 0 0 0.113725 0 0 0 0 0.345098 0 0 0 0 0.4 0 0 0 1 0"/>
<feBlend mode="normal" in2="BackgroundImageFix" result="effect1_dropShadow_3417_6143"/>
<feBlend mode="normal" in="SourceGraphic" in2="effect1_dropShadow_3417_6143" result="shape"/>
</filter>
<filter id="filter35_d_3417_6143" x="5.84229" y="10.6372" width="18.8757" height="18.9655" filterUnits="userSpaceOnUse" color-interpolation-filters="sRGB">
<feFlood flood-opacity="0" result="BackgroundImageFix"/>
<feColorMatrix in="SourceAlpha" type="matrix" values="0 0 0 0 0 0 0 0 0 0 0 0 0 0 0 0 0 0 127 0" result="hardAlpha"/>
<feOffset dx="1" dy="1"/>
<feGaussianBlur stdDeviation="0.15"/>
<feComposite in2="hardAlpha" operator="out"/>
<feColorMatrix type="matrix" values="0 0 0 0 0.113725 0 0 0 0 0.345098 0 0 0 0 0.4 0 0 0 1 0"/>
<feBlend mode="normal" in2="BackgroundImageFix" result="effect1_dropShadow_3417_6143"/>
<feBlend mode="normal" in="SourceGraphic" in2="effect1_dropShadow_3417_6143" result="shape"/>
</filter>
<linearGradient id="paint0_linear_3417_6143" x1="125.111" y1="38.4737" x2="122.361" y2="1.288" gradientUnits="userSpaceOnUse">
<stop stop-color="#1D5666"/>
<stop offset="1" stop-color="#5FDABC"/>
</linearGradient>
<linearGradient id="paint1_linear_3417_6143" x1="125.111" y1="38.4737" x2="122.361" y2="1.288" gradientUnits="userSpaceOnUse">
<stop stop-color="#1D5666"/>
<stop offset="1" stop-color="#5FDABC"/>
</linearGradient>
<linearGradient id="paint2_linear_3417_6143" x1="125.111" y1="38.4737" x2="122.361" y2="1.288" gradientUnits="userSpaceOnUse">
<stop stop-color="#1D5666"/>
<stop offset="1" stop-color="#5FDABC"/>
</linearGradient>
<linearGradient id="paint3_linear_3417_6143" x1="125.111" y1="38.4737" x2="122.361" y2="1.288" gradientUnits="userSpaceOnUse">
<stop stop-color="#1D5666"/>
<stop offset="1" stop-color="#5FDABC"/>
</linearGradient>
<linearGradient id="paint4_linear_3417_6143" x1="125.111" y1="38.4737" x2="122.361" y2="1.288" gradientUnits="userSpaceOnUse">
<stop stop-color="#1D5666"/>
<stop offset="1" stop-color="#5FDABC"/>
</linearGradient>
<linearGradient id="paint5_linear_3417_6143" x1="125.111" y1="38.4737" x2="122.361" y2="1.288" gradientUnits="userSpaceOnUse">
<stop stop-color="#1D5666"/>
<stop offset="1" stop-color="#5FDABC"/>
</linearGradient>
<linearGradient id="paint6_linear_3417_6143" x1="125.111" y1="38.4737" x2="122.361" y2="1.288" gradientUnits="userSpaceOnUse">
<stop stop-color="#1D5666"/>
<stop offset="1" stop-color="#5FDABC"/>
</linearGradient>
<linearGradient id="paint7_linear_3417_6143" x1="125.111" y1="38.4737" x2="122.361" y2="1.288" gradientUnits="userSpaceOnUse">
<stop stop-color="#1D5666"/>
<stop offset="1" stop-color="#5FDABC"/>
</linearGradient>
<linearGradient id="paint8_linear_3417_6143" x1="125.111" y1="38.4737" x2="122.361" y2="1.288" gradientUnits="userSpaceOnUse">
<stop stop-color="#1D5666"/>
<stop offset="1" stop-color="#5FDABC"/>
</linearGradient>
<linearGradient id="paint9_linear_3417_6143" x1="125.111" y1="38.4737" x2="122.361" y2="1.28801" gradientUnits="userSpaceOnUse">
<stop stop-color="#1D5666"/>
<stop offset="1" stop-color="#5FDABC"/>
</linearGradient>
<linearGradient id="paint10_linear_3417_6143" x1="125.111" y1="38.4737" x2="122.361" y2="1.28801" gradientUnits="userSpaceOnUse">
<stop stop-color="#1D5666"/>
<stop offset="1" stop-color="#5FDABC"/>
</linearGradient>
<linearGradient id="paint11_linear_3417_6143" x1="125.111" y1="38.4737" x2="122.361" y2="1.288" gradientUnits="userSpaceOnUse">
<stop stop-color="#1D5666"/>
<stop offset="1" stop-color="#5FDABC"/>
</linearGradient>
</defs>
</svg>
