<svg width="382" height="611" viewBox="0 0 382 611" fill="none" xmlns="http://www.w3.org/2000/svg">
<path d="M20.9037 5.74829L6.27167 20.3803L6.27148 589.823L21.9486 604.5H361.098L375.207 589.823L375.207 20.9029L361.098 5.74829H20.9037Z" stroke="#32DAB1"/>
<path d="M382 65.3214L378.342 67.9343V18.29L369.458 9.40625H374.684L382 17.2448V65.3214Z" fill="#32DBB2"/>
<path d="M365.278 0L372.071 6.79343H367.368L363.71 3.13543H266.512L264.422 0H365.278Z" fill="#32DBB2"/>
<path d="M373.116 0H368.936L377.819 9.40629H382L373.116 0Z" fill="#32DBB2"/>
<path d="M0 65.3214L3.658 67.9343V18.29L12.5417 9.40625H7.31601L0 17.2448V65.3214Z" fill="#32DBB2"/>
<path d="M16.7221 0L9.92871 6.79343H14.6319L18.2899 3.13543H115.488L117.578 0H16.7221Z" fill="#32DBB2"/>
<path d="M8.88372 0H13.0643L4.18057 9.40629H0L8.88372 0Z" fill="#32DBB2"/>
<path d="M4.88826e-06 545.613L3.65801 543L3.658 592.645L12.5417 601.528L7.31601 601.528L6.8527e-07 593.69L4.88826e-06 545.613Z" fill="#32DBB2"/>
<path d="M16.7221 610.935L9.92871 604.141L14.6319 604.141L18.2899 607.799L115.488 607.799L117.578 610.935L16.7221 610.935Z" fill="#32DBB2"/>
<path d="M8.88372 610.935L13.0643 610.935L4.18058 601.528L8.22324e-07 601.528L8.88372 610.935Z" fill="#32DBB2"/>
<path d="M382 545.613L378.342 543L378.342 592.645L369.458 601.528L374.684 601.528L382 593.69L382 545.613Z" fill="#32DBB2"/>
<path d="M365.278 610.935L372.071 604.141L367.368 604.141L363.71 607.799L266.512 607.799L264.422 610.935L365.278 610.935Z" fill="#32DBB2"/>
<path d="M373.116 610.935L368.936 610.935L377.819 601.528L382 601.528L373.116 610.935Z" fill="#32DBB2"/>
</svg>
