<svg width="414" height="253" viewBox="0 0 414 253" fill="none" xmlns="http://www.w3.org/2000/svg">
<g clip-path="url(#clip0_89_27904)">
<path d="M409.721 14.4418V25.6744H5.34863V14.9767C13.4789 12.8372 15.5114 6.95347 15.5114 4.27905H399.558C400.842 12.4093 406.868 14.4418 409.721 14.4418Z" fill="#5FDABC" stroke="#FFEBA2"/>
<path d="M0 24.6047V253H414V24.6047C394.316 22.0372 389.395 7.13178 389.395 0H24.6047C24.1767 17.9721 8.02326 23.8915 0 24.6047Z" fill="url(#paint0_linear_89_27904)" stroke="#32DBB2"/>
<path d="M30.4896 6.95349C27.0012 22.5 13.3733 28.8837 6.4198 29.4186L6.41841 253H407.581C407.581 196.302 407.583 44.7163 407.583 28.8837C389.002 25 384.226 13.1938 384.048 6.95349H30.4896Z" stroke="#32DBB2"/>
<path d="M397.875 8.43929L407.013 6.69872L405.49 16.0543L395.699 18.0124L397.875 8.43929Z" fill="url(#paint1_linear_89_27904)"/>
<path d="M405.056 15.6161L396.136 17.5743L398.312 8.87143L406.579 7.13086L405.056 15.6161Z" fill="#D9D9D9"/>
<path d="M401.575 12.135L396.136 17.5743L405.056 15.6161L401.575 12.135Z" fill="url(#paint2_linear_89_27904)"/>
<path d="M396.136 17.5746L401.576 12.1353L398.312 8.87173L396.136 17.5746Z" fill="url(#paint3_linear_89_27904)"/>
<path d="M398.316 8.86839L401.579 12.132L406.583 7.12782L398.316 8.86839Z" fill="url(#paint4_linear_89_27904)"/>
<path d="M405.06 15.6127L401.578 12.1315L406.583 7.12739L405.06 15.6127Z" fill="url(#paint5_linear_89_27904)"/>
<path d="M400.524 11.4455L402.625 11.0357L402.265 13.1861L400.014 13.6466L400.524 11.4455Z" fill="url(#paint6_linear_89_27904)"/>
<path d="M16.054 7.43929L6.91605 5.69872L8.43905 15.0543L18.2298 17.0124L16.054 7.43929Z" fill="url(#paint7_linear_89_27904)"/>
<path d="M8.87224 14.6161L17.7927 16.5743L15.617 7.87143L7.34924 6.13086L8.87224 14.6161Z" fill="#D9D9D9"/>
<path d="M12.3534 11.135L17.7927 16.5743L8.87224 14.6161L12.3534 11.135Z" fill="url(#paint8_linear_89_27904)"/>
<path d="M17.7925 16.5746L12.3532 11.1353L15.6168 7.87173L17.7925 16.5746Z" fill="url(#paint9_linear_89_27904)"/>
<path d="M15.6132 7.86839L12.3496 11.132L7.34547 6.12782L15.6132 7.86839Z" fill="url(#paint10_linear_89_27904)"/>
<path d="M8.86914 14.6127L12.3503 11.1315L7.34614 6.12739L8.86914 14.6127Z" fill="url(#paint11_linear_89_27904)"/>
<path d="M13.4045 10.4455L11.3038 10.0357L11.6639 12.1861L13.9147 12.6466L13.4045 10.4455Z" fill="url(#paint12_linear_89_27904)"/>
<path opacity="0.4" fill-rule="evenodd" clip-rule="evenodd" d="M123.223 -56.9021C124.081 -56.9021 124.772 -57.5926 124.772 -58.4511C124.772 -59.3095 124.081 -60 123.223 -60C122.365 -60 121.674 -59.3095 121.674 -58.4511C121.674 -57.5926 122.365 -56.9021 123.223 -56.9021ZM160.696 -36.8594C161.872 -36.8594 162.823 -37.8112 162.823 -38.9869C162.823 -40.1626 161.872 -41.1143 160.696 -41.1143C159.52 -41.1143 158.568 -40.1626 158.568 -38.9869C158.568 -37.8112 159.52 -36.8594 160.696 -36.8594ZM59.8288 -14.5212C59.6422 -14.5958 59.6422 -14.8385 59.8288 -14.9131C59.9638 -14.9671 60.1119 -15.0238 60.2706 -15.0846C61.4281 -15.5281 63.153 -16.189 64.5316 -17.6004C65.5453 -18.6575 66.0196 -20.6136 66.3905 -22.1432L66.3905 -22.1434L66.3906 -22.1436L66.3907 -22.144L66.3908 -22.1446L66.3909 -22.1449L66.391 -22.1453C66.4979 -22.5861 66.5962 -22.9915 66.6964 -23.3296C66.7524 -23.5349 67.0696 -23.5349 67.1069 -23.3109C67.1543 -23.0372 67.1961 -22.7224 67.2413 -22.3815L67.2414 -22.3811C67.4461 -20.8396 67.7218 -18.7635 68.8985 -17.5257C70.4661 -15.8648 72.7615 -15.1557 73.8625 -14.8571C74.0678 -14.8011 74.0678 -14.5212 73.8625 -14.4652C73.6859 -14.4023 73.4866 -14.3385 73.2704 -14.2692L73.2704 -14.2692C72.1391 -13.9067 70.5438 -13.3956 69.2904 -12.0952C68.1192 -10.8936 67.667 -8.70021 67.3479 -7.15195C67.2754 -6.80061 67.2099 -6.48248 67.1443 -6.2167C67.0883 -6.01143 66.7897 -5.99276 66.7337 -6.2167C66.6491 -6.51105 66.5645 -6.87068 66.4704 -7.27043C66.0874 -8.89824 65.5478 -11.1912 64.2144 -12.4497C63.0903 -13.5008 61.6808 -13.9352 60.62 -14.2622L60.6199 -14.2622L60.6197 -14.2622L60.6195 -14.2623C60.3244 -14.3533 60.0563 -14.4359 59.8288 -14.5212ZM46.4111 46.8015C49.3784 48.2758 52.7375 49.0223 56.3392 49.0223L56.3765 48.985C59.0639 48.985 61.8818 48.5744 64.793 47.7533C67.9842 46.8575 70.149 45.6445 72.0525 44.5621C74.3479 43.2558 76.1767 42.2481 79.032 42.3041C81.8258 42.373 84.6197 43.4301 87.3546 45.4459C87.1621 46.1211 86.9837 46.7973 86.8193 47.4743C84.4031 46.7112 82.0372 46.4583 79.7783 46.7268C76.1953 47.156 74.0118 48.7236 72.0897 50.1046C70.1302 51.5229 68.4133 52.7359 65.4087 52.8479C64.4744 52.8819 63.6792 52.7921 62.9106 52.7054L62.9104 52.7053L62.6841 52.6799L62.6204 52.6724C61.0543 52.488 59.4433 52.2983 57.1602 53.0532C55.35 53.6503 53.6705 54.6394 52.1402 56.0017C51.8416 56.263 51.7296 56.6736 51.8229 57.0468C51.9163 57.42 52.2335 57.7186 52.6067 57.8119C54.6595 58.2785 56.5444 59.0623 58.2613 60.1446C59.8102 61.1151 60.8739 62.1228 61.5084 62.7386C62.6612 63.8374 63.1707 64.5363 63.6579 65.2045L63.7105 65.2766C64.1211 65.8551 64.5503 66.4523 65.3154 67.2175L65.3288 67.2309C66.313 68.2151 69.2731 71.1755 73.6386 71.547C74.0492 71.603 74.4411 71.603 74.833 71.603L74.8516 71.5843C76.9417 71.5843 78.7706 71.0991 80.2822 70.11C81.0076 69.6264 81.5106 69.1428 81.9943 68.6777L81.9991 68.6731C82.5963 68.0759 83.1188 67.572 84.1079 67.0868C84.6493 66.8161 85.2247 66.6068 85.826 66.4629C86.7004 74.0201 89.149 84.1296 95.7902 90.5448C95.8648 90.6382 95.9581 90.7315 96.0701 90.8248C97.2085 91.8885 99.0933 93.6987 100.456 96.7219C101.435 98.9099 101.929 101.341 101.95 103.952C101.926 104.334 101.922 104.705 101.931 105.06L101.93 105.082C101.925 105.167 101.929 105.25 101.941 105.331C101.981 106.22 102.101 106.992 102.191 107.564C102.378 108.777 102.956 112.491 106.185 115.421C106.984 116.145 107.817 116.701 108.64 117.13C109.137 118.548 109.893 119.814 110.869 120.889C114.172 124.528 118.893 124.677 120.965 124.677L121.002 124.696H121.282L121.355 124.695C123.428 124.677 128.129 124.635 131.154 121.038C131.812 120.243 132.344 119.336 132.73 118.336C132.761 118.325 132.792 118.314 132.823 118.303C132.863 118.288 132.905 118.273 132.946 118.258C137.686 116.447 139.646 111.521 139.981 110.55C140.228 109.848 141.059 107.195 140.679 104.18C140.679 104.139 140.676 104.097 140.672 104.056C140.392 101.387 140.728 98.9239 141.624 96.7031C142.784 93.8298 144.653 92.0836 145.796 91.0159L145.841 90.9739C145.925 90.8993 146 90.8246 146.07 90.7546C146.105 90.7197 146.138 90.6859 146.172 90.6538C146.205 90.6217 146.238 90.5914 146.27 90.5634C152.908 84.1516 155.357 74.0496 156.233 66.4938C156.828 66.6361 157.398 66.8374 157.934 67.1055C158.923 67.5907 159.446 68.0946 160.043 68.6918L160.143 68.7885C160.596 69.2252 161.065 69.677 161.76 70.1287C163.29 71.0991 165.1 71.603 167.19 71.603L167.209 71.6217C167.601 71.6217 167.993 71.603 168.403 71.5657C172.769 71.1941 175.729 68.2338 176.713 67.2496L176.726 67.2361C177.492 66.471 177.921 65.8738 178.331 65.2953C178.817 64.6048 179.339 63.8957 180.534 62.7573L180.623 62.6732C181.266 62.0668 182.302 61.0896 183.781 60.1633C185.498 59.0996 187.382 58.3158 189.435 57.8306C189.827 57.7373 190.126 57.4387 190.219 57.0655C190.312 56.6922 190.2 56.2817 189.902 56.0204C188.371 54.6581 186.692 53.669 184.882 53.0718C182.589 52.3137 180.956 52.5083 179.401 52.6934L179.358 52.6986L179.153 52.7216L179.153 52.7216C178.375 52.8091 177.559 52.9008 176.633 52.8666C173.629 52.7546 171.93 51.5416 169.952 50.1233C168.03 48.7423 165.847 47.1747 162.264 46.7455C160.009 46.4775 157.648 46.7289 155.237 47.4883C155.074 46.8195 154.898 46.1516 154.707 45.4853C157.458 43.4682 160.251 42.4104 163.029 42.3414C165.876 42.2669 167.684 43.2877 169.99 44.589L170.008 44.5995L170.143 44.6747L170.143 44.6748L170.143 44.6749L170.143 44.6751C172.014 45.7211 174.152 46.916 177.268 47.7906C180.179 48.6117 182.997 49.0223 185.684 49.0223L185.721 49.0596C189.323 49.0596 192.682 48.3132 195.65 46.8389C204.047 42.6773 206.903 33.813 207.201 32.8239C208.731 27.6732 207.854 23.6983 206.996 19.8726C206.175 16.2149 205.335 12.4265 206.529 7.29454C207.388 3.65549 209.067 0.16573 211.531 -3.06276C211.867 -3.51065 211.867 -4.12648 211.549 -4.57436C211.213 -5.04091 210.635 -5.22753 210.112 -5.04091C206.231 -3.73458 203.189 -1.70045 201.061 0.986851C197.803 5.10124 197.257 9.97711 196.773 14.299L196.769 14.33L196.759 14.4223C196.222 19.1421 195.757 23.2309 192.234 25.975C191.488 26.5535 190.648 27.0387 189.808 27.3746C185.594 29.0639 181.694 27.0416 177.19 24.7058L177.118 24.6687C172.453 22.2426 167.153 19.4994 160.453 20.3765C158.771 20.5951 155.026 21.0868 152.172 23.7106C147.154 19.4733 135.499 11.5363 119.117 12.1839C105.065 12.7629 95.0863 19.312 89.9253 23.7072C87.0665 21.0537 83.2968 20.5588 81.6073 20.3391C74.8891 19.462 69.6078 22.2053 64.9423 24.6313L64.9014 24.6525C60.384 26.9949 56.4944 29.0118 52.2523 27.3373C51.4125 27.0014 50.5727 26.5162 49.8263 25.9377C46.2805 23.1757 45.814 19.0701 45.2914 14.2927L45.2879 14.2616C44.8036 9.93973 44.2572 5.06389 40.9992 0.94952C38.8718 -1.73778 35.8299 -3.75325 31.9482 -5.07824C31.407 -5.2462 30.8285 -5.05958 30.5113 -4.61169C30.1754 -4.14515 30.194 -3.54797 30.5299 -3.10009C32.9933 0.128403 34.6729 3.61816 35.5313 7.25721C36.7257 12.3892 35.8859 16.1775 35.0648 19.8353L35.0531 19.8874C34.1983 23.7154 33.3176 27.6592 34.8595 32.7865C35.1581 33.7756 38.0133 42.64 46.4111 46.8015ZM129.689 118.728C128.987 118.686 128.298 118.562 127.571 118.426C126.004 118.127 124.063 117.772 120.778 118.071C119.584 118.183 118.782 118.314 118.072 118.444L118.035 118.451C116.877 118.653 115.946 118.816 114.284 118.65C113.719 118.592 112.946 118.514 112.054 118.328C112.263 118.631 112.49 118.919 112.735 119.191C115.46 122.177 119.509 122.177 121.245 122.158C122.943 122.158 126.899 122.139 129.195 119.396C129.373 119.185 129.538 118.961 129.689 118.728ZM110.291 115.114C111.941 115.853 113.527 116.012 114.527 116.112C115.794 116.236 116.463 116.122 117.482 115.949L117.482 115.949L117.625 115.925C118.352 115.794 119.248 115.645 120.536 115.514C121.469 115.421 122.327 115.402 123.092 115.402L123.13 115.421C125.313 115.421 126.862 115.701 128.057 115.944C129.624 116.242 130.576 116.41 132.05 115.85C135.745 114.432 137.331 110.457 137.593 109.655C137.769 109.161 139.159 104.925 137.194 101.469C134.525 100.192 132.169 99.8832 130.165 100.529C127.89 101.256 126.695 103.009 125.539 104.707L125.537 104.709C124.38 106.407 123.279 108.012 121.245 108.18H120.928V108.199C118.763 108.199 117.251 106.407 115.665 104.523C114.004 102.544 112.269 100.492 109.637 100.268C108.167 100.141 106.602 100.618 105.001 101.686C104.701 102.376 104.544 103.085 104.476 103.772C104.481 104.235 104.472 104.703 104.449 105.176L104.448 105.19L104.447 105.206C104.484 105.94 104.587 106.61 104.673 107.154C104.823 108.162 105.289 111.203 107.864 113.536C108.589 114.192 109.354 114.674 110.109 115.031C110.172 115.054 110.233 115.082 110.291 115.114ZM138.379 98.7903C138.585 97.7338 138.889 96.7132 139.291 95.7327C140.69 92.2989 142.93 90.2275 144.143 89.1078C144.292 88.9773 144.422 88.8468 144.534 88.7349L144.535 88.7345C151.781 81.729 153.592 69.3204 154.039 62.9776C153.083 64.6095 151.675 66.2869 149.667 67.199C148.939 67.5349 147.446 68.2067 145.487 68.0947C144.647 68.0387 144.087 67.8708 143.583 67.7028C143.191 67.5722 142.837 67.4602 142.333 67.4042C141.045 67.2363 139.646 67.5535 138.153 68.3186C138.041 68.3746 137.929 68.3933 137.817 68.3933C137.806 68.3933 137.794 68.393 137.783 68.3925C135.913 72.0564 135.128 76.0663 134.57 78.9373C133.472 84.5136 133.516 90.2746 134.671 96.077C134.823 96.1321 134.97 96.1915 135.111 96.2554C136.354 96.8218 137.451 97.6668 138.379 98.7903ZM133.107 95.6927C132.041 89.9504 132.044 84.2373 133.133 78.6947L133.139 78.6642C134.147 73.5473 135.834 64.988 142.855 60.4994C143.198 60.2814 143.529 60.0872 143.847 59.9142C143.897 59.8785 143.951 59.8498 144.007 59.8281C145.865 58.8433 147.216 58.5942 147.393 58.5616L147.409 58.5586C149.742 58.204 151.813 58.2786 151.906 58.2973H151.944C151.972 58.2973 152.002 58.2977 152.034 58.2982L152.113 58.2996C152.508 58.3071 153.169 58.3196 153.941 58.1107C154.012 58.0902 154.084 58.0692 154.155 58.0472C154.036 53.8821 153.355 49.7025 152.114 45.5778C147.99 37.8664 147.421 30.3845 150.53 25.645C145.778 21.6235 134.741 14.0924 119.229 14.7219C105.565 15.2775 95.8255 22.0366 91.5601 25.6501C94.6356 30.3794 94.0578 37.8542 89.9459 45.5411C88.6992 49.6854 88.0185 53.8962 87.9037 58.0763C87.9631 58.0945 88.0228 58.1122 88.083 58.1293C88.9974 58.3719 89.7252 58.3346 90.0798 58.316H90.1171C90.1171 58.316 92.2819 58.2226 94.6146 58.5772C94.6771 58.5772 96.0592 58.8124 97.9847 59.8294C98.0758 59.8574 98.1626 59.9033 98.2395 59.9669C98.5382 60.1315 98.8487 60.3146 99.1681 60.5181C100.932 61.6517 102.992 63.9777 104.821 67.2688C104.839 67.2963 104.855 67.3248 104.869 67.3542C106.543 70.3885 108.02 74.2334 108.891 78.7133C109.968 84.2057 109.976 89.8653 108.93 95.5497C109.415 95.4128 109.936 95.2979 110.496 95.2103C112.264 94.9246 113.69 95.1686 114.676 95.3373L114.807 95.3596C116.99 95.7515 118.147 96.4233 119.062 96.9645L119.156 97.0189C119.85 97.4189 120.333 97.6971 121.226 97.8043C122.197 97.9163 122.645 97.711 123.54 97.2818C124.548 96.7966 125.929 96.1434 128.56 95.7702C130.281 95.5227 131.815 95.4985 133.107 95.6927ZM107.302 96.1415C108.481 90.3447 108.532 84.5672 107.435 78.9932C106.603 74.7339 105.224 71.088 103.67 68.2171C102.27 67.5257 100.938 67.2439 99.6906 67.4042C99.2875 67.449 98.98 67.5416 98.6724 67.6342C98.5955 67.6573 98.5187 67.6804 98.4403 67.7028L98.3068 67.7427L98.3067 67.7428C97.8364 67.8838 97.3031 68.0436 96.5368 68.0947C96.4265 68.101 96.3175 68.1048 96.2101 68.1062C96.162 68.1133 96.113 68.1133 96.0702 68.1133L96.0636 68.1067C94.3606 68.096 93.0475 67.5083 92.3864 67.2123L92.3863 67.2123L92.3566 67.199C90.3794 66.301 88.9841 64.6612 88.0294 63.0533C88.4871 69.4294 90.3055 81.7331 97.5257 88.6973C97.6004 88.772 97.6937 88.8653 97.8057 88.9586L97.8166 88.969C98.9951 90.0914 101.207 92.1978 102.751 95.6582C103.203 96.6677 103.568 97.7163 103.844 98.8017C104.545 97.91 105.643 96.8954 107.302 96.1415ZM109.787 98.7934C108.937 98.7263 108.076 98.8109 107.207 99.0483C108.073 98.453 109.257 97.9265 110.869 97.6737C112.306 97.431 113.426 97.6363 114.34 97.8043C116.094 98.1215 116.953 98.6254 117.774 99.1106L117.803 99.1273C118.633 99.6073 119.489 100.102 120.928 100.268C122.599 100.47 123.547 100.021 124.555 99.5444L124.604 99.5212C125.5 99.092 126.638 98.5508 128.896 98.2335C131.882 97.8043 133.412 98.2149 134.047 98.5134C134.431 98.6877 134.774 98.8908 135.076 99.1043C133.14 98.5958 131.345 98.6055 129.717 99.1293C126.973 100.019 125.519 102.144 124.347 103.855L124.324 103.888L124.318 103.897C123.294 105.404 122.474 106.613 121.133 106.706C119.548 106.836 118.28 105.327 116.807 103.575L116.803 103.571L116.789 103.553C115.019 101.449 113.006 99.0539 109.787 98.7934ZM97.2996 61.123C96.7331 60.8214 96.2238 60.5995 95.7956 60.4371C96.4282 61.4911 96.6044 62.7663 96.2381 63.9331C95.8364 65.2034 94.9293 65.9431 94.2115 66.347C94.7027 66.4949 95.2829 66.6129 95.936 66.629C97.1387 66.1565 97.998 65.122 98.1603 63.8957C98.363 62.5104 97.5869 61.4616 97.2996 61.123ZM98.9015 66.049C99.0854 66.0092 99.2847 65.9744 99.504 65.9486C100.454 65.8256 101.445 65.9103 102.464 66.1906C101.522 64.7548 100.553 63.5949 99.6289 62.7428C99.6928 63.1601 99.7046 63.6151 99.6346 64.101C99.533 64.8047 99.2792 65.466 98.9015 66.049ZM85.419 57.4052C85.5224 54.7839 85.8373 52.1574 86.3619 49.5388C84.1624 48.8228 82.0285 48.5741 80.0209 48.8169C76.9965 49.1695 75.2081 50.4444 73.3352 51.7797L73.3027 51.8028L73.2625 51.8315C71.683 52.9557 70.0655 54.107 67.7653 54.6407C68.2334 54.7412 68.7783 54.8354 69.3839 54.9008C70.9764 55.0839 71.9225 54.5847 72.9268 54.0548L72.9856 54.0237C74.0306 53.4639 75.1317 52.8854 76.7739 53.1653C77.9869 53.3706 78.6028 53.8744 79.3306 54.4903L79.3797 54.5308C80.002 55.0436 80.7098 55.6268 82.0552 56.2632C83.1213 56.7689 84.2474 57.1544 85.419 57.4052ZM64.0433 54.9151C63.4577 54.8789 62.9221 54.8151 62.4228 54.7514C60.9486 54.5648 59.6796 54.4155 57.8134 55.0313C56.8803 55.3299 55.9845 55.7591 55.1261 56.319C56.6377 56.8415 58.056 57.5133 59.381 58.3345C61.0979 59.4168 62.2736 60.5179 62.964 61.1897C64.2903 62.4423 64.8893 63.2767 65.4071 63.998L65.4274 64.0263L65.5414 64.1822L65.5414 64.1823C65.9039 64.6788 66.2352 65.1327 66.827 65.7245L66.8426 65.7401C67.7873 66.6849 70.2434 69.1413 73.8439 69.4382C75.9527 69.6248 77.7442 69.2516 79.1438 68.3372C79.7037 67.9639 80.1142 67.572 80.5435 67.1615L80.5519 67.1533C81.1844 66.5394 81.9115 65.8337 83.1935 65.202C83.9532 64.8221 84.7645 64.5453 85.6157 64.3659C85.5301 63.3607 85.4717 62.4203 85.4329 61.5631C85.3913 60.6672 85.3748 59.7698 85.3832 58.8716C83.9973 58.5948 82.6667 58.1513 81.4207 57.5508C79.8718 56.823 79.0507 56.1325 78.3975 55.5727C77.7443 55.0315 77.3524 54.7142 76.55 54.5836C75.393 54.397 74.6465 54.7889 73.6947 55.2927C72.575 55.8899 71.306 56.5617 69.2346 56.3378C67.1856 56.1046 65.7909 55.6037 65.462 55.4856C65.4224 55.4714 65.3982 55.4627 65.3902 55.4607C65.3436 55.442 65.2923 55.4187 65.2409 55.3954C65.1896 55.3721 65.1383 55.3487 65.0916 55.3301L65.0312 55.3042C64.7533 55.1849 64.4365 55.0489 64.0433 54.9151ZM34.9996 -0.881241C36.3756 1.53972 37.3616 4.0721 37.976 6.69736C39.3197 12.3892 38.3679 16.6441 37.5095 20.3951L37.5007 20.4345C36.6828 24.0963 35.9094 27.5587 37.2669 32.0587C37.5281 32.9545 40.0848 40.8484 47.5308 44.5435C50.7407 46.1484 56.2273 47.5853 64.0652 45.3646C66.9578 44.5435 68.9919 43.4051 70.7648 42.3974L70.8247 42.3637C73.2287 41.0136 75.5156 39.7293 79.0506 39.8034C82.2045 39.878 85.3024 40.9791 88.3256 43.0879C91.5914 36.3136 91.7967 29.8193 88.8108 26.2736C86.534 23.5676 82.8203 23.0824 81.2341 22.8771C75.3432 22.1152 70.6551 24.5362 66.1195 26.8784L66.062 26.9081C61.1913 29.4461 56.5818 31.8348 51.2632 29.726C50.1995 29.3154 49.1544 28.6996 48.2213 27.9718C43.8358 24.5567 43.276 19.4993 42.7348 14.6099C42.2682 10.4297 41.783 6.10017 38.9837 2.55444C37.9263 1.21866 36.5921 0.0673256 34.9996 -0.881241ZM142.444 62.5432C141.041 63.6491 139.899 64.9566 138.963 66.3667C140.187 65.9412 141.372 65.8018 142.52 65.9486C142.751 65.9758 142.959 66.0129 143.151 66.0554C142.768 65.4691 142.51 64.8002 142.407 64.0823C142.327 63.5253 142.354 63.0088 142.444 62.5432ZM146.149 66.6269C146.772 66.6047 147.332 66.4891 147.81 66.3457C147.092 65.9416 146.187 65.2021 145.785 63.9331C145.41 62.7364 145.605 61.4254 146.278 60.3563C145.866 60.511 145.376 60.721 144.832 61.0031C144.826 61.0094 144.821 61.0156 144.815 61.0218C144.628 61.2271 143.658 62.3468 143.882 63.877C144.064 65.1179 144.925 66.1625 146.149 66.6269ZM156.677 58.8232C156.687 59.7446 156.67 60.6643 156.628 61.5816C156.589 62.4399 156.53 63.3817 156.444 64.3884C157.289 64.568 158.094 64.8435 158.848 65.2207C160.131 65.8524 160.858 66.5581 161.49 67.1721L161.498 67.1802L161.604 67.2817C161.996 67.6581 162.384 68.0305 162.898 68.3558C164.298 69.2703 166.071 69.6248 168.198 69.4569C171.798 69.16 174.255 66.7036 175.199 65.7588L175.215 65.7432C175.807 65.1514 176.138 64.6975 176.5 64.2011L176.5 64.201L176.501 64.2009L176.615 64.045L176.635 64.0168L176.635 64.0166C177.153 63.2953 177.752 62.4609 179.078 61.2084L179.106 61.1817C179.8 60.525 180.967 59.4209 182.661 58.3531C183.986 57.5133 185.404 56.8415 186.916 56.3376C186.057 55.7778 185.162 55.3486 184.229 55.05C182.362 54.4341 181.093 54.5834 179.619 54.7701C179.08 54.8388 178.5 54.9076 177.859 54.9418C177.448 55.085 177.046 55.2456 176.652 55.4234H176.615L176.606 55.4267L176.587 55.4336C176.369 55.5175 174.922 56.073 172.77 56.3005C170.699 56.5244 169.43 55.8526 168.31 55.2554C167.358 54.7516 166.612 54.3597 165.455 54.5463C164.685 54.6716 164.293 54.9857 163.686 55.4722L163.607 55.5354L163.572 55.5648C162.924 56.1015 162.105 56.7805 160.584 57.5135C159.355 58.1061 158.043 58.5457 156.677 58.8232ZM174.176 54.6361C171.904 54.088 170.295 52.9387 168.739 51.8215C166.854 50.4592 165.063 49.1902 162.021 48.8356C160.002 48.5934 157.886 48.8403 155.696 49.5521C156.218 52.154 156.533 54.767 156.639 57.3711C157.798 57.1184 158.913 56.7453 159.968 56.2445C161.314 55.6082 162.021 55.025 162.644 54.5122L162.693 54.4716L162.739 54.4342C163.447 53.8527 164.062 53.3476 165.25 53.1466C166.879 52.8689 167.958 53.4365 169.014 53.9923L169.038 54.0051L169.044 54.0083C170.068 54.5483 171.019 55.0498 172.64 54.8822C173.212 54.8168 173.728 54.7292 174.176 54.6361ZM171.259 42.3974C168.907 41.0537 166.668 39.8034 163.29 39.8034H163.271H162.954C159.8 39.878 156.684 40.9791 153.679 43.0879C150.432 36.3136 150.208 29.8193 153.194 26.2736C155.471 23.5676 159.184 23.0824 160.771 22.8771C166.686 22.0933 171.389 24.538 175.943 26.9081C180.813 29.4461 185.423 31.8348 190.741 29.726C191.805 29.3155 192.85 28.6996 193.783 27.9718C198.169 24.5567 198.729 19.4994 199.27 14.61C199.736 10.4297 200.222 6.10018 203.021 2.55444C204.085 1.21079 205.428 0.0537567 207.033 -0.897995C205.671 1.5467 204.663 4.08471 204.047 6.69736C202.722 12.3892 203.674 16.6441 204.514 20.3951L204.523 20.4346C205.341 24.0964 206.114 27.5587 204.756 32.0587C204.477 32.9359 201.939 40.8484 194.492 44.5435C191.283 46.1484 185.796 47.5854 177.958 45.3646C175.082 44.5482 173.073 43.4181 171.289 42.4146L171.259 42.3974ZM122.029 62.6267C123.242 63.4292 124.548 64.045 125.91 64.3063C126.582 64.4369 127.273 64.4929 127.944 64.4369H127.945C128.15 64.4369 128.318 64.4369 128.486 64.3996C128.598 64.3996 128.71 64.383 128.821 64.3664C128.877 64.3581 128.933 64.3498 128.989 64.3436C129.325 64.2876 129.661 64.213 129.979 64.1197C131.304 63.7464 132.517 63.0373 133.618 62.1602C134.737 61.2831 135.689 60.238 136.454 59.0623C136.861 58.4366 137.205 57.758 137.562 57.0547C137.875 56.4365 138.198 55.7992 138.582 55.162C138.992 54.4902 139.496 53.8183 140.075 53.2585C140.653 52.68 141.306 52.2134 141.997 51.8029C142.687 51.3923 143.415 51.075 144.162 50.8324C144.908 50.5712 145.673 50.4219 146.438 50.3099C147.203 50.1979 147.969 50.142 148.752 50.142C149.517 50.142 150.283 50.1793 151.029 50.2726C151.253 50.2912 151.421 50.4965 151.384 50.7205C151.365 50.9258 151.197 51.075 150.992 51.075C149.517 51.1124 148.062 51.2243 146.662 51.5229C145.263 51.8215 143.919 52.3254 142.743 53.0532C142.165 53.4264 141.605 53.8557 141.138 54.3222C140.653 54.8074 140.261 55.3486 139.907 55.9458C139.654 56.3708 139.43 56.8335 139.201 57.3072C139.108 57.4992 139.014 57.6929 138.918 57.8866C138.582 58.5584 138.227 59.2489 137.798 59.9207C137.369 60.5739 136.883 61.2271 136.342 61.8056C135.801 62.3841 135.204 62.9066 134.588 63.3918C133.356 64.3623 131.919 65.146 130.352 65.5379C129.96 65.6312 129.568 65.7246 129.157 65.7619L129.154 65.7622L128.922 65.7834C128.833 65.7916 128.746 65.7997 128.662 65.8079L128.56 65.8179H127.982C127.179 65.8365 126.358 65.7432 125.574 65.5193C124.025 65.0714 122.644 64.213 121.581 63.0932C121.45 62.9626 121.469 62.7573 121.581 62.6267C121.693 62.5147 121.861 62.5147 121.991 62.5894L122.029 62.6267ZM157.971 39.0754C158.12 39.2807 158.344 39.3927 158.587 39.3927C158.718 39.3927 158.867 39.3554 158.998 39.2621C159.333 39.0381 159.408 38.5716 159.184 38.2357C157.803 36.2202 157.15 33.6822 157.374 31.2561C157.598 28.8301 158.736 26.4601 160.472 24.7432C160.752 24.4632 160.752 23.9967 160.472 23.6981C160.192 23.4182 159.725 23.4182 159.427 23.6981C157.449 25.6576 156.161 28.3636 155.9 31.1255C155.638 33.8875 156.404 36.78 157.971 39.0754ZM162.954 38.2171C162.656 38.2171 162.376 38.0304 162.264 37.7318C161.424 35.3618 161.349 32.7492 162.077 30.3418C162.805 27.9344 164.298 25.7883 166.295 24.2767C166.612 24.0341 167.078 24.0901 167.321 24.426C167.564 24.7432 167.508 25.2098 167.172 25.4524C165.417 26.7774 164.111 28.6622 163.477 30.771C162.842 32.8798 162.898 35.1752 163.645 37.2467C163.775 37.6385 163.589 38.0491 163.197 38.1797C163.122 38.2171 163.029 38.2171 162.954 38.2171ZM167.209 37.5266C167.284 37.8625 167.582 38.0865 167.918 38.0865C167.946 38.0865 167.974 38.0818 168.002 38.0772C168.03 38.0725 168.058 38.0678 168.086 38.0678C168.478 37.9745 168.72 37.5826 168.627 37.1907C167.843 33.8689 169.262 30.1739 172.061 28.2144C172.397 27.9718 172.471 27.5239 172.248 27.188C172.005 26.8521 171.557 26.7774 171.221 27.0014C167.955 29.2968 166.294 33.6263 167.209 37.5266ZM124.66 94.669C124.455 94.669 124.231 94.5757 124.082 94.3891C123.82 94.0718 123.876 93.6053 124.194 93.344C126.097 91.7951 128.896 91.3845 131.173 92.3549C131.546 92.5229 131.714 92.9521 131.565 93.3254C131.397 93.6986 130.968 93.8666 130.595 93.7173C128.822 92.9521 126.62 93.2694 125.127 94.4824C124.996 94.5944 124.828 94.6504 124.66 94.6504V94.669ZM120.424 63.1306C119.36 64.2503 117.998 65.1274 116.43 65.5566C115.665 65.7806 114.844 65.8739 114.023 65.8552H113.444C113.239 65.8552 113.034 65.8365 112.847 65.7992C112.436 65.7619 112.045 65.6686 111.653 65.5753L111.653 65.5753C110.085 65.1834 108.648 64.3996 107.416 63.4292C106.801 62.944 106.203 62.4214 105.662 61.8429C105.121 61.2644 104.636 60.6299 104.207 59.9581C103.777 59.2862 103.423 58.5958 103.087 57.9239C102.996 57.7418 102.907 57.561 102.82 57.382L102.818 57.3775L102.817 57.3749L102.816 57.3735L102.816 57.3732C102.582 56.895 102.355 56.4293 102.098 55.9831C101.743 55.3859 101.351 54.8261 100.866 54.3595C100.4 53.893 99.8397 53.4638 99.2612 53.0905C98.0855 52.3627 96.7418 51.8588 95.3422 51.5603C93.9426 51.243 92.4869 51.1497 91.0127 51.1124C90.7887 51.1124 90.6021 50.9258 90.6208 50.7018C90.6208 50.4965 90.7887 50.3286 90.9753 50.3099C91.7218 50.2353 92.4869 50.1793 93.2521 50.1793C94.0172 50.1793 94.7823 50.2353 95.5661 50.3472C96.3313 50.4592 97.0964 50.6272 97.8429 50.8698C98.5893 51.1124 99.3172 51.4296 100.008 51.8402C100.698 52.2507 101.351 52.7173 101.93 53.2958C102.508 53.8557 103.012 54.5275 103.423 55.1993C103.807 55.8366 104.13 56.4738 104.443 57.092L104.443 57.0921L104.443 57.0922L104.443 57.0923L104.443 57.0924L104.443 57.0924L104.443 57.0925L104.443 57.0926L104.443 57.0927L104.443 57.0928L104.443 57.0929L104.443 57.093L104.443 57.0931L104.443 57.0932L104.444 57.0933L104.444 57.0934L104.444 57.0935L104.444 57.0935L104.444 57.0936L104.444 57.0937L104.444 57.0938L104.444 57.0939L104.444 57.094L104.444 57.0941L104.444 57.0942L104.444 57.0943L104.444 57.0944L104.444 57.0945L104.444 57.0946L104.444 57.0946L104.444 57.0947L104.444 57.0948L104.444 57.0949L104.444 57.095L104.444 57.0951L104.444 57.0952L104.445 57.0953L104.445 57.0954L104.445 57.0955L104.445 57.0956L104.445 57.0956L104.445 57.0957C104.8 57.7978 105.144 58.4751 105.55 59.0996C106.315 60.2753 107.267 61.3017 108.387 62.1975C109.488 63.0746 110.701 63.7837 112.026 64.157C112.362 64.2503 112.679 64.3249 113.015 64.3809L113.519 64.4369C113.66 64.4369 113.802 64.4502 113.966 64.4655L114.06 64.4742C114.732 64.5302 115.422 64.4742 116.094 64.3436C117.438 64.0823 118.744 63.4665 119.976 62.664C120.125 62.5707 120.33 62.608 120.424 62.7573C120.517 62.888 120.48 63.0559 120.386 63.1679L120.424 63.1306ZM83.0254 39.2622C83.1374 39.3555 83.2867 39.3929 83.436 39.3929C83.6786 39.3929 83.9025 39.2809 84.0518 39.0756C85.6381 36.7989 86.3846 33.9063 86.1233 31.1257C85.862 28.3451 84.5744 25.6391 82.5962 23.6983C82.2976 23.3997 81.8311 23.3997 81.5511 23.6983C81.2526 23.9969 81.2526 24.4634 81.5511 24.7433C83.2867 26.4602 84.4251 28.8303 84.649 31.2563C84.8729 33.6824 84.2198 36.2204 82.8388 38.2358C82.6149 38.5717 82.6895 39.0383 83.0254 39.2622ZM79.0693 38.2172C79.0693 38.2172 78.9013 38.2172 78.8267 38.1799C78.4348 38.0492 78.2481 37.62 78.3788 37.2468C79.1252 35.1753 79.1812 32.8799 78.5467 30.7711C77.9122 28.6623 76.6059 26.7775 74.8517 25.4525C74.5344 25.2099 74.4598 24.7434 74.7024 24.4261C74.945 24.1089 75.4115 24.0342 75.7288 24.2768C77.7256 25.7884 79.2372 27.9345 79.9464 30.3419C80.6742 32.7493 80.5995 35.3619 79.7597 37.732C79.6478 38.0306 79.3679 38.2172 79.0693 38.2172ZM73.9373 38.0679C73.9933 38.0865 74.1052 38.0865 74.1052 38.0865C74.4412 38.0865 74.7397 37.8626 74.8144 37.5267C75.7475 33.6263 74.0866 29.2968 70.8021 27.0014C70.4662 26.7775 69.9996 26.8521 69.7757 27.188C69.5518 27.5239 69.6264 27.9905 69.9623 28.2144C72.7616 30.1739 74.1799 33.869 73.3961 37.1908C73.3028 37.5827 73.5454 37.9745 73.9373 38.0679ZM117.363 94.669C117.195 94.669 117.027 94.6131 116.897 94.5011C115.404 93.2881 113.202 92.9708 111.429 93.7359C111.056 93.9039 110.626 93.7359 110.458 93.344C110.29 92.9708 110.458 92.5416 110.85 92.3736C113.108 91.4032 115.926 91.8138 117.83 93.3627C118.147 93.624 118.184 94.0905 117.942 94.4078C117.792 94.5944 117.587 94.6877 117.363 94.6877V94.669ZM123.914 108.871C123.335 108.908 122.645 109.151 122.365 109.71C122.104 110.197 122.313 110.749 122.358 110.867C122.361 110.876 122.363 110.882 122.365 110.886C122.85 111.987 124.623 112.174 125.257 112.23C127.683 112.472 129.568 111.334 130.445 110.793C131.416 110.196 132.218 109.692 132.722 108.665C132.946 108.236 133.562 106.855 132.853 105.586C132.33 104.634 131.136 104.075 130.109 104.392C129.102 104.709 128.486 105.679 127.945 106.594C127.403 107.49 126.769 108.46 125.761 108.759C125.363 108.871 124.948 108.866 124.534 108.862C124.326 108.86 124.119 108.858 123.914 108.871ZM119.808 109.71C119.528 109.151 118.838 108.908 118.259 108.871C118.054 108.858 117.846 108.86 117.639 108.862C117.224 108.866 116.81 108.871 116.412 108.759C115.404 108.46 114.769 107.49 114.228 106.594C113.687 105.679 113.071 104.709 112.063 104.392C111.037 104.075 109.843 104.634 109.32 105.586C108.611 106.855 109.227 108.236 109.451 108.665C109.955 109.692 110.757 110.196 111.727 110.793C112.605 111.334 114.489 112.472 116.915 112.23C117.55 112.174 119.323 111.987 119.808 110.886C119.809 110.882 119.812 110.876 119.815 110.867C119.86 110.749 120.069 110.197 119.808 109.71ZM141.381 24.3141C141.269 24.3141 141.138 24.2954 141.045 24.2208C135.372 21.2162 128.971 19.462 122.57 19.1634C116.393 18.8648 110.066 19.8912 104.3 22.1493C103.927 22.2986 103.497 22.112 103.348 21.7388C103.199 21.3655 103.385 20.9363 103.759 20.787C109.73 18.4543 116.262 17.3906 122.644 17.7078C129.269 18.0437 135.857 19.8539 141.735 22.9518C142.09 23.1384 142.239 23.5863 142.034 23.9408C141.903 24.1834 141.642 24.3327 141.381 24.3327V24.3141ZM173.573 106.127C173.386 106.202 173.386 106.445 173.573 106.519V106.501C173.799 106.586 174.067 106.668 174.361 106.759L174.363 106.759L174.363 106.76L174.364 106.76L174.364 106.76L174.364 106.76C175.425 107.087 176.834 107.521 177.958 108.572C179.292 109.831 179.831 112.124 180.214 113.751L180.214 113.752L180.215 113.753C180.309 114.152 180.393 114.511 180.478 114.805C180.534 115.029 180.832 115.011 180.888 114.805C180.954 114.54 181.019 114.222 181.091 113.871L181.092 113.87L181.092 113.87C181.411 112.322 181.863 110.128 183.034 108.927C184.288 107.626 185.883 107.115 187.014 106.753C187.23 106.683 187.43 106.62 187.606 106.557C187.812 106.501 187.812 106.221 187.606 106.165C186.505 105.866 184.21 105.138 182.642 103.496C181.465 102.273 181.19 100.199 180.985 98.6581C180.94 98.3176 180.898 98.0032 180.851 97.7297C180.813 97.5057 180.496 97.5058 180.44 97.711C180.34 98.0494 180.242 98.4552 180.135 98.8963L180.134 98.8971L180.134 98.8973C179.763 100.427 179.289 102.383 178.275 103.44C176.897 104.852 175.172 105.512 174.014 105.956L174.014 105.956L173.906 105.997C173.788 106.043 173.677 106.086 173.573 106.127ZM46.4671 88.7905C46.2805 88.8652 46.2805 89.1078 46.4671 89.1824V89.1638C46.6947 89.2491 46.9629 89.3318 47.2582 89.4228C48.319 89.7497 49.7286 90.1842 50.8526 91.2352C52.1861 92.4937 52.7256 94.7867 53.1087 96.4145L53.1087 96.4147C53.2027 96.8144 53.2874 97.1739 53.372 97.4682C53.428 97.6922 53.7266 97.6735 53.7825 97.4682C53.8481 97.2025 53.9137 96.8843 53.9861 96.533C54.3053 94.9847 54.7575 92.7914 55.9286 91.5898C57.182 90.2894 58.7775 89.7782 59.9087 89.4157L59.9088 89.4157L59.9092 89.4156C60.1252 89.3464 60.3243 89.2826 60.5008 89.2197C60.7061 89.1638 60.7061 88.8838 60.5008 88.8279C59.3997 88.5293 57.1043 87.8014 55.5367 86.1592C54.3598 84.9364 54.0842 82.8623 53.8795 81.3211C53.8343 80.9807 53.7925 80.6662 53.7452 80.3927C53.7079 80.1688 53.3906 80.1688 53.3347 80.3741C53.2343 80.7127 53.1358 81.1188 53.0288 81.5604C52.6579 83.0901 52.1836 85.0461 51.1699 86.1032C49.7913 87.5146 48.0664 88.1755 46.9089 88.619L46.9087 88.6191L46.9076 88.6195L46.9007 88.6221L46.9004 88.6223L46.8959 88.624L46.8903 88.6261C46.7386 88.6843 46.5968 88.7386 46.4671 88.7905ZM161.778 -3.69723C161.778 -2.52154 160.827 -1.56978 159.651 -1.56978C158.475 -1.56978 157.524 -2.52154 157.524 -3.69723C157.524 -4.87292 158.475 -5.82468 159.651 -5.82468C160.827 -5.82468 161.778 -4.87292 161.778 -3.69723ZM186.692 -14.0547C186.692 -12.879 185.74 -11.9273 184.564 -11.9273C183.389 -11.9273 182.437 -12.879 182.437 -14.0547C182.437 -15.2304 183.389 -16.1822 184.564 -16.1822C185.74 -16.1822 186.692 -15.2304 186.692 -14.0547ZM88.4748 -32.3618C89.6505 -32.3618 90.6023 -33.3135 90.6023 -34.4892C90.6023 -35.6649 89.6505 -36.6167 88.4748 -36.6167C87.2991 -36.6167 86.3474 -35.6649 86.3474 -34.4892C86.3474 -33.3135 87.2991 -32.3618 88.4748 -32.3618ZM31.2762 59.1742C31.2762 60.3499 30.3244 61.3017 29.1488 61.3017C27.9731 61.3017 27.0213 60.3499 27.0213 59.1742C27.0213 57.9986 27.9731 57.0468 29.1488 57.0468C30.3244 57.0468 31.2762 57.9986 31.2762 59.1742ZM77.0164 126.879C78.1921 126.879 79.1439 125.928 79.1439 124.752C79.1439 123.576 78.1921 122.624 77.0164 122.624C75.8408 122.624 74.889 123.576 74.889 124.752C74.889 125.928 75.8408 126.879 77.0164 126.879ZM123.97 142.872C123.97 144.048 123.018 145 121.842 145C120.666 145 119.715 144.048 119.715 142.872C119.715 141.697 120.666 140.745 121.842 140.745C123.018 140.745 123.97 141.697 123.97 142.872ZM213.863 61.731C213.863 62.906 212.911 63.8585 211.736 63.8585C210.561 63.8585 209.609 62.906 209.609 61.731C209.609 60.5561 210.561 59.6036 211.736 59.6036C212.911 59.6036 213.863 60.5561 213.863 61.731ZM208.451 94.3702C209.626 94.3702 210.579 93.4177 210.579 92.2428C210.579 91.0678 209.626 90.1153 208.451 90.1153C207.276 90.1153 206.324 91.0678 206.324 92.2428C206.324 93.4177 207.276 94.3702 208.451 94.3702ZM163.925 95.4154C165.1 95.4154 166.052 94.4636 166.052 93.2879C166.052 92.1122 165.1 91.1605 163.925 91.1605C162.749 91.1605 161.797 92.1122 161.797 93.2879C161.797 94.4636 162.749 95.4154 163.925 95.4154ZM91.2554 3.5435C92.1109 3.5435 92.8044 2.85002 92.8044 1.99457C92.8044 1.13912 92.1109 0.445637 91.2554 0.445637C90.4 0.445637 89.7065 1.13912 89.7065 1.99457C89.7065 2.85002 90.4 3.5435 91.2554 3.5435ZM133.524 3.97272C134.383 3.97272 135.073 3.28224 135.073 2.4238C135.073 1.56535 134.383 0.874863 133.524 0.874863C132.666 0.874863 131.975 1.56535 131.975 2.4238C131.975 3.28224 132.666 3.97272 133.524 3.97272ZM151.57 -22.2845C151.57 -21.4261 150.88 -20.7356 150.021 -20.7356C149.163 -20.7356 148.472 -21.4261 148.472 -22.2845C148.472 -23.143 149.163 -23.8335 150.021 -23.8335C150.88 -23.8335 151.57 -23.143 151.57 -22.2845ZM64.0278 -38.1096C64.0278 -37.2512 63.3373 -36.5607 62.4788 -36.5607C61.6204 -36.5607 60.9299 -37.2512 60.9299 -38.1096C60.9299 -38.9681 61.6204 -39.6585 62.4788 -39.6585C63.3373 -39.6585 64.0278 -38.9681 64.0278 -38.1096ZM77.2777 99.7448C78.1361 99.7448 78.8266 99.0543 78.8266 98.1958C78.8266 97.3374 78.1361 96.6469 77.2777 96.6469C76.4192 96.6469 75.7288 97.3374 75.7288 98.1958C75.7288 99.0543 76.4192 99.7448 77.2777 99.7448ZM49.8075 111.726C49.8075 112.584 49.117 113.275 48.2586 113.275C47.4001 113.275 46.7097 112.584 46.7097 111.726C46.7097 110.867 47.4001 110.177 48.2586 110.177C49.117 110.177 49.8075 110.867 49.8075 111.726ZM159.931 137.031C159.931 137.887 159.237 138.58 158.382 138.58C157.526 138.58 156.833 137.887 156.833 137.031C156.833 136.176 157.526 135.482 158.382 135.482C159.237 135.482 159.931 136.176 159.931 137.031ZM96.1821 140.857C97.0375 140.857 97.731 140.163 97.731 139.308C97.731 138.452 97.0375 137.759 96.1821 137.759C95.3266 137.759 94.6331 138.452 94.6331 139.308C94.6331 140.163 95.3266 140.857 96.1821 140.857ZM187.196 80.0754C188.054 80.0754 188.744 79.3849 188.744 78.5265C188.744 77.668 188.054 76.9776 187.196 76.9776C186.337 76.9776 185.647 77.668 185.647 78.5265C185.647 79.3849 186.337 80.0754 187.196 80.0754ZM221.739 33.6262C221.739 34.4846 221.048 35.1751 220.19 35.1751C219.331 35.1751 218.641 34.4846 218.641 33.6262C218.641 32.7677 219.331 32.0772 220.19 32.0772C221.048 32.0772 221.739 32.7677 221.739 33.6262ZM18.5489 33.645C19.4074 33.645 20.0979 32.9545 20.0979 32.0961C20.0979 31.2376 19.4074 30.5471 18.5489 30.5471C17.6905 30.5471 17 31.2376 17 32.0961C17 32.9545 17.6905 33.645 18.5489 33.645ZM69.8316 9.04871C69.8316 9.64588 69.3464 10.1311 68.7492 10.1311C68.152 10.1311 67.6668 9.64588 67.6668 9.04871C67.6668 8.45152 68.152 7.96632 68.7492 7.96632C69.3464 7.96632 69.8316 8.45152 69.8316 9.04871ZM143.49 -55.6145C144.087 -55.6145 144.572 -56.0997 144.572 -56.6969C144.572 -57.2941 144.087 -57.7793 143.49 -57.7793C142.893 -57.7793 142.407 -57.2941 142.407 -56.6969C142.407 -56.0997 142.893 -55.6145 143.49 -55.6145ZM154.724 114.17C154.724 114.768 154.239 115.253 153.642 115.253C153.045 115.253 152.56 114.768 152.56 114.17C152.56 113.573 153.045 113.088 153.642 113.088C154.239 113.088 154.724 113.573 154.724 114.17ZM30.2313 82.7627C30.8285 82.7627 31.3137 82.2775 31.3137 81.6803C31.3137 81.0832 30.8285 80.5979 30.2313 80.5979C29.6341 80.5979 29.1489 81.0832 29.1489 81.6803C29.1489 82.2775 29.6341 82.7627 30.2313 82.7627Z" fill="url(#paint13_linear_89_27904)"/>
<path opacity="0.4" fill-rule="evenodd" clip-rule="evenodd" d="M329.123 178.965C326.448 170.027 322.56 161.529 317.518 153.665C311.563 144.374 304.154 136.208 295.522 129.341C295.018 128.934 294.882 128.255 295.173 127.693C295.464 127.15 296.104 126.878 296.705 127.053C307.218 130.175 316.956 135.742 324.869 143.171C336.527 154.111 341.958 166.641 344.499 175.738C346.904 174.594 350.26 173.488 354.333 173.411C358.718 173.331 362.329 174.48 364.91 175.696C367.47 166.612 372.906 154.164 384.495 143.288C392.428 135.82 402.166 130.253 412.678 127.13C413.28 126.956 413.92 127.227 414.211 127.79C414.502 128.352 414.347 129.031 413.862 129.419C405.211 136.286 397.821 144.471 391.866 153.742C386.824 161.607 382.936 170.105 380.261 179.043C381.865 178.528 383.477 178.189 385.097 178.027C387.036 177.833 388.937 177.891 391.129 177.968C394.097 178.065 397.801 178.182 403.213 177.716C406.413 177.445 409.633 177.037 412.775 176.475C413.435 176.359 414.075 176.746 414.269 177.387C414.463 178.027 414.133 178.705 413.532 178.977C411.127 180.005 409.187 181.46 407.791 183.302C406.763 184.66 406.355 185.727 405.928 186.891L405.889 186.995C405.436 188.205 404.962 189.471 403.737 190.828C400.691 194.262 396.308 194.824 393.689 195.134C388.491 195.794 384.03 194.32 381.101 192.904C381.217 194.843 381.644 196.667 382.342 198.374C383.284 200.643 384.493 202.035 385.761 203.495L385.795 203.533L385.815 203.556C387.069 205.004 388.361 206.494 389.403 208.809C391.51 213.545 390.92 218.089 390.723 219.598L390.722 219.613C390.531 221.036 390.191 222.327 389.739 223.51C393.978 233.045 393.933 241.08 393.107 246.206C391.381 257.01 384.515 267.93 375.165 274.738C374.196 275.436 373.206 276.096 372.159 276.775L372.138 276.789C369.059 278.822 365.594 281.11 361.568 285.503C359.321 287.955 357.288 290.655 355.518 293.502C355.486 293.719 355.363 293.918 355.167 294.038L355.152 294.048C355.012 294.178 354.823 294.251 354.624 294.251V294.232C354.489 294.232 354.353 294.193 354.236 294.115C353.977 293.965 353.843 293.681 353.867 293.404C352.097 290.541 350.064 287.858 347.816 285.406C343.801 281.023 340.31 278.714 337.226 276.697C336.999 276.546 336.775 276.398 336.553 276.251C335.751 275.719 334.979 275.208 334.219 274.661C324.87 267.872 318.004 256.932 316.277 246.128C315.453 241.014 315.407 232.987 319.616 223.497C319.149 222.292 318.799 220.974 318.605 219.516L318.599 219.474C318.4 217.939 317.81 213.402 319.924 208.712C320.971 206.365 322.271 204.872 323.532 203.437L323.565 203.398C324.833 201.938 326.042 200.546 326.984 198.277C327.702 196.57 328.109 194.747 328.226 192.807C325.297 194.243 320.836 195.697 315.637 195.038L315.614 195.035C312.993 194.705 308.626 194.155 305.59 190.732C304.348 189.316 303.863 188.036 303.398 186.794C302.971 185.65 302.564 184.564 301.536 183.206C300.139 181.383 298.2 179.928 295.794 178.88C295.174 178.609 294.863 177.93 295.057 177.29C295.251 176.65 295.891 176.262 296.551 176.378C299.693 176.941 302.913 177.348 306.113 177.62C311.545 178.085 315.23 177.969 318.198 177.872C320.389 177.794 322.29 177.736 324.23 177.93C325.868 178.094 327.5 178.44 329.123 178.965ZM360.463 284.436C358.351 286.751 356.431 289.242 354.727 291.884C353.011 289.209 351.074 286.679 348.941 284.359C344.818 279.849 341.236 277.483 338.099 275.411L338.099 275.411L338.079 275.398C337.032 274.719 336.062 274.079 335.131 273.4C326.247 266.941 319.439 256.137 317.81 245.876C317.06 241.199 316.984 233.977 320.483 225.387C321.548 227.38 322.928 229.042 324.378 230.533C322.425 235.367 321.642 240.311 322.077 245.255C322.135 245.876 323.512 260.288 334.976 268.9C337.118 270.502 339.082 271.532 340.97 272.522L341.202 272.643L341.209 272.647C344.465 274.333 347.275 275.788 350.202 279.607C351.725 281.571 352.954 283.778 353.886 286.162C353.798 286.475 353.915 286.828 354.198 287.016C354.324 287.107 354.451 287.147 354.594 287.152C354.584 287.152 354.575 287.152 354.566 287.152H354.624C354.614 287.152 354.604 287.152 354.594 287.152C354.724 287.147 354.848 287.105 354.959 287.036C354.976 287.03 354.994 287.024 355.012 287.016C355.291 286.905 355.479 286.643 355.506 286.361C357.216 283.868 359.132 281.516 361.239 279.355C364.6 275.898 367.058 274.359 369.41 272.887L369.521 272.818L369.566 272.79C371.411 271.637 373.146 270.553 375.224 268.667C383.7 261.006 385.814 250.473 386.338 246.303C386.991 241.094 386.507 235.835 384.885 230.683C386.379 229.15 387.802 227.442 388.888 225.385C392.421 234.01 392.346 241.263 391.594 245.954C389.965 256.214 383.157 267.018 374.273 273.477C373.33 274.151 372.367 274.787 371.347 275.46L371.325 275.475C368.183 277.551 364.614 279.917 360.463 284.436ZM354.895 284.628C356.494 282.382 358.275 280.253 360.191 278.288C363.667 274.717 366.203 273.12 368.631 271.59L368.745 271.519L368.793 271.489C370.579 270.375 372.254 269.33 374.234 267.542C382.323 260.23 384.359 250.124 384.844 246.128C385.43 241.388 385.036 236.603 383.662 231.893C383.21 232.327 382.758 232.749 382.313 233.164L382.313 233.164L382.265 233.21L382.238 233.235C381.491 233.932 380.766 234.608 380.084 235.29C381.327 239.593 381.581 244.149 380.829 248.514C380.48 250.551 379.646 255.303 376.174 259.958C373.711 263.255 371.286 264.729 368.726 266.281L368.619 266.346C366.324 267.742 363.93 269.198 361.103 272.178C358.969 274.408 357.127 276.949 355.614 279.723C355.478 279.975 355.206 280.13 354.935 280.13L354.915 280.111C354.799 280.111 354.663 280.072 354.547 280.014C354.434 279.955 354.343 279.87 354.277 279.77C354.202 279.711 354.136 279.637 354.081 279.549C352.471 276.6 350.473 273.924 348.165 271.577C345.295 268.667 342.909 267.27 340.601 265.932C338.079 264.458 335.693 263.061 333.23 259.9C332.279 258.678 329.098 254.178 328.284 247.602C327.68 242.706 328.609 238.515 329.668 235.614C328.858 234.78 327.977 233.962 327.062 233.113L327.054 233.106C326.562 232.649 326.06 232.183 325.559 231.702C323.865 236.126 323.208 240.63 323.59 245.12L323.591 245.13C323.662 245.842 325.023 259.515 335.887 267.658C338.001 269.249 339.98 270.277 341.9 271.266L342.037 271.338C345.245 273.018 348.306 274.621 351.405 278.656C352.796 280.464 353.963 282.468 354.895 284.628ZM359.978 271.111C358.043 273.13 356.327 275.383 354.88 277.831C353.301 275.149 351.417 272.691 349.271 270.51C346.265 267.485 343.699 265.972 341.441 264.64L341.396 264.613L341.36 264.592C338.873 263.127 336.73 261.864 334.452 258.949C333.56 257.805 330.573 253.596 329.816 247.408C329.3 243.218 329.981 239.583 330.844 236.908C332.516 238.894 333.698 241.088 333.909 244.053C334.025 245.624 333.831 246.924 333.637 248.165C333.308 250.241 332.978 252.413 334.258 255.342C335.073 257.223 337.536 261.723 342.734 262.868C343.18 262.965 344.053 263.12 345.159 263.12L345.101 263.101C346.943 263.101 349.465 262.674 351.792 260.87C353.108 259.853 354.014 258.66 354.638 257.473C355.264 258.692 356.183 259.922 357.534 260.967C359.862 262.77 362.364 263.197 364.226 263.197L364.168 263.217C365.273 263.217 366.146 263.061 366.592 262.964C371.771 261.82 374.254 257.32 375.068 255.438C376.349 252.51 376.019 250.357 375.689 248.262C375.495 247.02 375.301 245.721 375.418 244.15C375.655 240.985 376.99 238.7 378.839 236.607C379.803 240.423 379.96 244.415 379.297 248.242L379.297 248.243C378.967 250.163 378.191 254.682 374.933 259.027C372.644 262.092 370.452 263.43 367.911 264.962C365.603 266.359 363.004 267.949 359.978 271.111ZM330.439 182.252C328.287 181.319 326.125 180.743 323.958 180.529C322.283 180.363 320.642 180.407 318.605 180.462L318.275 180.471C315.23 180.568 311.467 180.684 305.881 180.219L305.88 180.219C304.6 180.102 303.32 179.986 302.04 179.831C302.603 180.374 303.146 180.956 303.611 181.577C303.861 181.902 304.081 182.215 304.277 182.519C306.122 183.606 308.061 184.407 310.051 184.913C312.417 185.514 314.182 185.533 316.064 185.553L316.069 185.553C317.988 185.572 319.965 185.592 322.484 186.271C324.775 186.898 326.991 187.912 329.094 189.324C329.439 189.2 329.834 189.22 330.165 189.393C330.573 189.607 330.844 190.034 330.864 190.499C330.964 192.529 330.787 194.486 330.341 196.342C331.596 197.094 332.898 197.758 334.239 198.335C336.43 199.266 338.079 199.654 339.514 199.984C340.543 200.216 341.512 200.449 342.56 200.837C345.818 202.059 348.728 204.503 351.191 208.111C351.424 208.46 351.346 208.945 350.997 209.177C350.862 209.274 350.706 209.313 350.571 209.313L350.551 209.294C350.299 209.294 350.066 209.177 349.911 208.964C347.622 205.628 344.965 203.378 341.997 202.272C341.047 201.923 340.155 201.71 339.146 201.477C337.652 201.128 335.946 200.721 333.637 199.751C332.362 199.212 331.107 198.58 329.903 197.878C329.749 198.342 329.578 198.798 329.389 199.247C328.287 201.89 326.904 203.489 325.571 205.031L325.491 205.124C324.308 206.482 323.182 207.781 322.29 209.76C320.478 213.809 321.004 217.782 321.182 219.124L321.185 219.148C321.941 224.753 325.277 227.876 328.827 231.174L328.884 231.227C332.416 234.527 336.064 237.936 336.489 243.84C336.624 245.721 336.392 247.215 336.178 248.534C335.868 250.493 335.635 252.025 336.605 254.275C337.264 255.788 339.223 259.415 343.239 260.288C344.15 260.482 347.37 260.986 350.183 258.794C352.614 256.918 353.211 254.229 353.349 252.75C353.331 252.495 353.323 252.275 353.321 252.099C352.831 252.033 352.35 251.928 351.87 251.773C350.706 251.404 349.64 250.784 348.767 249.988C347.157 248.514 346.168 246.323 346.109 244.131C346.109 243.549 346.206 242.812 346.788 242.501C347.082 242.349 347.397 242.367 347.695 242.457C347.98 242.524 348.264 242.675 348.514 242.831C349.62 243.51 350.609 244.363 351.482 245.314C352.737 246.701 353.922 248.495 354.498 250.351C354.539 250.344 354.582 250.34 354.624 250.338C354.688 250.334 354.751 250.335 354.812 250.341C355.344 248.665 356.399 246.884 357.825 245.314C358.717 244.344 359.706 243.491 360.812 242.812C361.216 242.554 361.829 242.245 362.371 242.46C362.421 242.476 362.47 242.496 362.519 242.521C363.043 242.773 363.14 243.471 363.14 244.034L363.139 244.055L363.139 244.083L363.14 244.131C363.081 246.323 362.092 248.514 360.482 249.988C359.609 250.784 358.543 251.404 357.379 251.773C356.923 251.92 356.468 252.022 356.004 252.089C356 252.274 355.99 252.5 355.97 252.759C356.092 254.216 356.664 256.976 359.144 258.891C361.956 261.063 365.176 260.579 366.088 260.385C370.103 259.512 372.062 255.885 372.721 254.372C373.691 252.122 373.459 250.589 373.148 248.63C372.935 247.311 372.702 245.798 372.838 243.936C373.265 238.001 376.95 234.568 380.5 231.27C384.049 227.973 387.385 224.869 388.142 219.244L388.144 219.225C388.322 217.886 388.851 213.891 387.036 209.856C386.17 207.936 385.085 206.674 383.94 205.342L383.836 205.221L383.756 205.128L383.756 205.128L383.754 205.127L383.754 205.126C383.467 204.795 383.178 204.46 382.89 204.113C382.971 204.247 383.041 204.39 383.099 204.542C383.972 206.811 381.334 209.372 380.15 210.38C376.562 213.425 371.771 213.29 369.211 212.94C367.969 216.18 367.814 219.283 367.698 221.708C367.523 225.451 367.95 229.253 368.978 232.958C369.094 233.365 368.862 233.792 368.454 233.908C368.415 233.908 368.382 233.913 368.348 233.918C368.316 233.922 368.285 233.927 368.249 233.928C367.924 233.923 367.619 233.71 367.523 233.365C366.437 229.486 365.991 225.548 366.185 221.63L366.19 221.538C366.363 218.152 366.599 213.558 369.54 208.906L369.552 208.887C370.612 207.22 373.767 202.253 378.405 202.214H378.444C379.552 202.214 381.35 202.511 382.414 203.525C381.529 202.4 380.671 201.103 379.937 199.343C379.749 198.896 379.579 198.441 379.427 197.98C378.246 198.665 377.016 199.281 375.767 199.809C373.472 200.784 371.8 201.175 370.322 201.52L370.322 201.52L370.258 201.535C369.23 201.768 368.357 201.981 367.407 202.331C364.439 203.436 361.782 205.686 359.493 209.022C359.338 209.236 359.105 209.352 358.853 209.352L358.834 209.371C358.678 209.371 358.543 209.333 358.407 209.236C358.058 209.003 357.961 208.518 358.213 208.169C360.676 204.561 363.586 202.117 366.844 200.895C367.892 200.507 368.862 200.274 369.89 200.042C371.325 199.712 372.954 199.324 375.165 198.393C376.478 197.844 377.766 197.186 378.993 196.449C378.549 194.59 378.374 192.63 378.463 190.596C378.482 190.13 378.754 189.723 379.161 189.49C379.497 189.314 379.899 189.296 380.247 189.426C382.336 188.023 384.552 186.995 386.842 186.368C389.38 185.69 391.357 185.669 393.256 185.65L393.262 185.65C395.144 185.631 396.928 185.611 399.275 185.01C401.264 184.505 403.202 183.704 405.046 182.618C405.244 182.314 405.465 181.999 405.715 181.673C406.2 181.052 406.724 180.471 407.286 179.927C406.006 180.083 404.726 180.218 403.446 180.315C397.879 180.781 394.097 180.665 391.051 180.568L390.721 180.559C388.684 180.504 387.044 180.46 385.368 180.626C383.215 180.845 381.066 181.417 378.927 182.341C378.852 182.383 378.773 182.417 378.691 182.444C374.281 184.401 369.914 187.85 365.642 192.768C365.176 193.311 364.342 193.369 363.799 192.904C363.256 192.419 363.198 191.604 363.663 191.061C368.043 186.013 372.564 182.402 377.173 180.257C377.427 179.339 377.693 178.425 377.972 177.516C377.398 177.024 376.765 176.612 376.077 176.281C375.01 175.757 373.846 175.486 372.644 175.428C372.217 175.428 371.887 175.059 371.907 174.632C371.907 174.206 372.275 173.876 372.702 173.895C374.118 173.954 375.456 174.283 376.737 174.885C377.348 175.175 377.929 175.528 378.471 175.936C379.129 173.908 379.849 171.903 380.63 169.925C380.033 169.579 379.409 169.281 378.754 169.046C377.765 168.677 376.717 168.445 375.67 168.348C375.243 168.309 374.933 167.94 374.972 167.514C375.01 167.087 375.379 166.777 375.806 166.815C376.989 166.932 378.153 167.184 379.278 167.591C379.946 167.84 380.594 168.136 381.215 168.478C382.045 166.467 382.94 164.483 383.897 162.53C383.187 162.138 382.457 161.789 381.702 161.482C380.849 161.152 379.976 160.861 379.103 160.648C378.696 160.551 378.443 160.124 378.54 159.716C378.637 159.309 379.064 159.057 379.471 159.154C380.422 159.387 381.372 159.697 382.284 160.046C383.069 160.358 383.847 160.726 384.595 161.134C385.385 159.585 386.214 158.056 387.083 156.547C386.659 156.287 386.223 156.051 385.775 155.837C385.096 155.527 384.379 155.255 383.642 155.061C383.234 154.945 382.982 154.538 383.099 154.13C383.215 153.723 383.622 153.471 384.03 153.587C384.844 153.801 385.64 154.092 386.415 154.441C386.908 154.671 387.395 154.931 387.865 155.215C388.445 154.243 389.041 153.28 389.655 152.327C394.465 144.82 400.206 137.992 406.782 131.999C399.217 135.122 392.234 139.622 386.299 145.169C374.662 156.085 369.453 168.673 367.146 177.496C367.179 177.766 367.128 178.048 366.979 178.298C366.885 178.467 366.755 178.607 366.605 178.714C366.498 178.813 366.375 178.895 366.243 178.958C365.874 179.113 365.428 179.094 365.079 178.9C362.946 177.678 359.454 176.204 354.993 176.126C350.221 176.049 346.478 177.581 344.17 178.9C343.549 179.249 342.734 179.036 342.385 178.415C342.223 178.127 342.182 177.797 342.247 177.492C339.936 168.663 334.733 156.015 323.065 145.053C317.15 139.486 310.167 135.005 302.583 131.882C309.158 137.876 314.9 144.704 319.71 152.21C320.331 153.18 320.936 154.159 321.523 155.147C321.986 154.867 322.462 154.611 322.95 154.382C323.726 154.033 324.521 153.742 325.335 153.529C325.743 153.413 326.17 153.665 326.267 154.072C326.383 154.479 326.131 154.906 325.723 155.003C324.986 155.197 324.269 155.449 323.59 155.779C323.151 155.988 322.717 156.22 322.298 156.474C323.171 157.994 324.004 159.536 324.797 161.098C325.552 160.685 326.328 160.322 327.12 160.008C328.032 159.639 328.963 159.348 329.932 159.115C330.34 159.018 330.767 159.27 330.864 159.678C330.961 160.085 330.708 160.512 330.301 160.609C329.409 160.822 328.536 161.113 327.702 161.443C326.944 161.738 326.204 162.093 325.491 162.491C326.441 164.434 327.33 166.408 328.155 168.409C328.775 168.063 329.421 167.762 330.088 167.514C331.213 167.106 332.377 166.835 333.56 166.738C333.986 166.699 334.355 167.009 334.394 167.436C334.433 167.863 334.122 168.231 333.696 168.27C332.648 168.367 331.601 168.6 330.611 168.968C329.955 169.204 329.331 169.494 328.733 169.84C329.52 171.831 330.246 173.849 330.909 175.89C331.453 175.478 332.039 175.12 332.667 174.826C333.928 174.225 335.286 173.895 336.702 173.837C337.129 173.818 337.478 174.147 337.497 174.574C337.497 175.001 337.187 175.35 336.76 175.369C335.577 175.408 334.394 175.699 333.327 176.223C332.631 176.558 331.99 176.976 331.411 177.477C331.687 178.374 331.951 179.277 332.203 180.183C336.794 182.331 341.299 185.935 345.663 190.965C346.129 191.508 346.07 192.342 345.527 192.807C344.984 193.273 344.15 193.234 343.685 192.671C339.436 187.78 335.093 184.334 330.708 182.371C330.613 182.342 330.523 182.302 330.439 182.252ZM368.249 233.928L368.26 233.928H368.241L368.249 233.928ZM322.116 187.764C323.987 188.273 325.824 189.071 327.573 190.158C324.988 191.495 320.827 193.003 315.967 192.4L315.902 192.392C313.497 192.081 309.913 191.619 307.549 188.947C306.637 187.919 306.288 187.008 305.861 185.844L305.82 185.735C305.718 185.467 305.613 185.191 305.497 184.906C306.857 185.545 308.258 186.048 309.682 186.406C312.22 187.046 314.177 187.066 316.057 187.085L316.064 187.085C317.965 187.105 319.769 187.124 322.116 187.764ZM381.76 190.258C384.345 191.594 388.503 193.099 393.359 192.496L393.424 192.488C395.83 192.178 399.413 191.716 401.778 189.044C402.689 187.996 403.038 187.085 403.465 185.94C403.575 185.638 403.69 185.327 403.821 185.004C402.463 185.643 401.068 186.145 399.644 186.503C397.105 187.143 395.166 187.163 393.266 187.182L393.262 187.182C391.362 187.202 389.558 187.221 387.211 187.861C385.327 188.369 383.501 189.177 381.76 190.258ZM373.109 207.199C373.109 208.994 374.708 210.477 376.298 210.843C373.969 211.694 371.52 211.656 369.851 211.466C370.122 210.884 370.452 210.303 370.821 209.721L370.824 209.715C371.251 209.04 372.067 207.748 373.192 206.538C373.14 206.748 373.111 206.968 373.109 207.199ZM341.124 233.85L341.115 233.85C341.441 233.845 341.746 233.614 341.842 233.288C342.928 229.428 343.374 225.471 343.18 221.553C343.025 218.178 342.792 213.522 339.825 208.828C338.797 207.18 335.635 202.175 330.961 202.137H330.922C329.506 202.137 326.984 202.622 326.267 204.464C325.394 206.734 328.032 209.294 329.215 210.303C332.803 213.348 337.594 213.212 340.155 212.863C341.396 216.102 341.551 219.206 341.667 221.63C341.861 225.374 341.415 229.176 340.387 232.88C340.271 233.288 340.504 233.714 340.911 233.831C340.976 233.847 341.083 233.85 341.115 233.85L341.105 233.85H341.124ZM336.198 206.488C337.313 207.694 338.123 208.976 338.545 209.643C338.913 210.225 339.223 210.807 339.514 211.389C337.855 211.579 335.393 211.617 333.054 210.759C334.656 210.369 336.275 208.912 336.275 207.122C336.273 206.901 336.246 206.69 336.198 206.488Z" fill="url(#paint14_linear_89_27904)" fill-opacity="0.3"/>
</g>
<defs>
<linearGradient id="paint0_linear_89_27904" x1="207" y1="0" x2="207" y2="218.767" gradientUnits="userSpaceOnUse">
<stop stop-color="#1BB8AD"/>
<stop offset="1" stop-color="#136761"/>
</linearGradient>
<linearGradient id="paint1_linear_89_27904" x1="395.808" y1="18.1212" x2="407.121" y2="6.8075" gradientUnits="userSpaceOnUse">
<stop stop-color="white" stop-opacity="0"/>
<stop offset="1" stop-color="#F7B02D"/>
</linearGradient>
<linearGradient id="paint2_linear_89_27904" x1="401.575" y1="15.6161" x2="401.793" y2="11.9174" gradientUnits="userSpaceOnUse">
<stop stop-color="#F7DA95"/>
<stop offset="1" stop-color="white"/>
</linearGradient>
<linearGradient id="paint3_linear_89_27904" x1="401.285" y1="12.1943" x2="397.473" y2="11.4578" gradientUnits="userSpaceOnUse">
<stop stop-color="#F8E49D"/>
<stop offset="1" stop-color="#E3C56C"/>
</linearGradient>
<linearGradient id="paint4_linear_89_27904" x1="401.797" y1="11.9144" x2="403.537" y2="5.38725" gradientUnits="userSpaceOnUse">
<stop stop-color="#FDF6AE"/>
<stop offset="1" stop-color="#F9E697"/>
</linearGradient>
<linearGradient id="paint5_linear_89_27904" x1="403.319" y1="13.8721" x2="408.323" y2="8.86796" gradientUnits="userSpaceOnUse">
<stop stop-color="#E5C974"/>
<stop offset="1" stop-color="white"/>
</linearGradient>
<linearGradient id="paint6_linear_89_27904" x1="400.039" y1="13.6715" x2="402.65" y2="11.0606" gradientUnits="userSpaceOnUse">
<stop stop-color="#FFC65E"/>
<stop offset="1" stop-color="#F7B02D"/>
</linearGradient>
<linearGradient id="paint7_linear_89_27904" x1="18.121" y1="17.1212" x2="6.80727" y2="5.8075" gradientUnits="userSpaceOnUse">
<stop stop-color="white" stop-opacity="0"/>
<stop offset="1" stop-color="#F7B02D"/>
</linearGradient>
<linearGradient id="paint8_linear_89_27904" x1="12.3534" y1="14.6161" x2="12.1358" y2="10.9174" gradientUnits="userSpaceOnUse">
<stop stop-color="#F7DA95"/>
<stop offset="1" stop-color="white"/>
</linearGradient>
<linearGradient id="paint9_linear_89_27904" x1="12.6438" y1="11.1943" x2="16.4552" y2="10.4578" gradientUnits="userSpaceOnUse">
<stop stop-color="#F8E49D"/>
<stop offset="1" stop-color="#E3C56C"/>
</linearGradient>
<linearGradient id="paint10_linear_89_27904" x1="12.132" y1="10.9144" x2="10.3915" y2="4.38725" gradientUnits="userSpaceOnUse">
<stop stop-color="#FDF6AE"/>
<stop offset="1" stop-color="#F9E697"/>
</linearGradient>
<linearGradient id="paint11_linear_89_27904" x1="10.6097" y1="12.8721" x2="5.60557" y2="7.86796" gradientUnits="userSpaceOnUse">
<stop stop-color="#E5C974"/>
<stop offset="1" stop-color="white"/>
</linearGradient>
<linearGradient id="paint12_linear_89_27904" x1="13.8898" y1="12.6715" x2="11.279" y2="10.0606" gradientUnits="userSpaceOnUse">
<stop stop-color="#FFC65E"/>
<stop offset="1" stop-color="#F7B02D"/>
</linearGradient>
<linearGradient id="paint13_linear_89_27904" x1="119" y1="-64.5" x2="119" y2="145" gradientUnits="userSpaceOnUse">
<stop offset="0.05" stop-color="white"/>
<stop offset="0.405" stop-color="white" stop-opacity="0.38"/>
<stop offset="0.875" stop-color="white" stop-opacity="0"/>
</linearGradient>
<linearGradient id="paint14_linear_89_27904" x1="354.679" y1="127" x2="354.679" y2="294.251" gradientUnits="userSpaceOnUse">
<stop stop-color="white"/>
<stop offset="1" stop-color="white" stop-opacity="0"/>
</linearGradient>
<clipPath id="clip0_89_27904">
<rect width="414" height="253" fill="white"/>
</clipPath>
</defs>
</svg>
