<svg width="76" height="98" viewBox="0 0 76 98" fill="none" xmlns="http://www.w3.org/2000/svg">
<path d="M4 12.3721L12.3692 4H63.6308L72 12.3721V85.6279L64.1539 94H12.3692L4 85.6279V12.3721Z" fill="url(#paint0_linear_73_9)"/>
<path d="M6.61536 13.4186L12.3692 7.66279H30.1538L32.2461 6.09302L38.5231 12.3721L44.8 6.09302L46.3692 7.66279H64.1538L69.9077 13.4186V84.0582L64.1538 90.3372H46.3692L44.8 91.907L38.5231 85.1047L32.2461 91.907L30.6769 90.3372H12.8923L6.61536 84.0582V13.4186Z" stroke="url(#paint1_linear_73_9)" stroke-width="0.3"/>
<path d="M10.2769 12.372V85.6278H13.4154V84.058H11.8461V87.1975H32.7692L35.9077 90.8603L38.5231 88.244L40.6154 90.8603L44.2769 87.1975H65.2V84.058H63.1077V85.6278H66.7692V12.372H63.1077V13.9417H65.2V10.2789H43.7538L40.6154 7.13941L38.5231 9.23243L35.9077 6.61615L32.7692 10.2789H11.8461V13.9417H13.4154V12.372H10.2769Z" stroke="url(#paint2_linear_73_9)" stroke-width="0.3"/>
<defs>
<linearGradient id="paint0_linear_73_9" x1="38" y1="4" x2="38" y2="94" gradientUnits="userSpaceOnUse">
<stop stop-color="#32DCB3"/>
<stop offset="1" stop-color="#0C634F"/>
</linearGradient>
<linearGradient id="paint1_linear_73_9" x1="38.2615" y1="6.09302" x2="38.2615" y2="91.907" gradientUnits="userSpaceOnUse">
<stop stop-color="#68FFDB"/>
<stop offset="1" stop-color="#16A17F"/>
</linearGradient>
<linearGradient id="paint2_linear_73_9" x1="38.5231" y1="6.61615" x2="38.5231" y2="90.8603" gradientUnits="userSpaceOnUse">
<stop stop-color="#68FFDB"/>
<stop offset="1" stop-color="#16A17F"/>
</linearGradient>
</defs>
</svg>
