<svg width="45" height="45" viewBox="0 0 45 45" fill="none" xmlns="http://www.w3.org/2000/svg">
<circle cx="22.5" cy="22.5" r="22.5" fill="#F3F1F4"/>
<path d="M30.6061 26.6912C29.5732 25.572 28.3196 24.6788 26.9245 24.0679C25.5293 23.457 24.0228 23.1416 22.4997 23.1416C20.9767 23.1416 19.4701 23.457 18.075 24.0679C16.6798 24.6788 15.4263 25.572 14.3933 26.6912C14.2333 26.8672 14.144 27.0962 14.1426 27.334V31.1912C14.146 31.4447 14.249 31.6867 14.4295 31.8647C14.61 32.0428 14.8533 32.1426 15.1069 32.1426H29.8926C30.1483 32.1426 30.3936 32.041 30.5744 31.8602C30.7553 31.6793 30.8569 31.4341 30.8569 31.1783V27.3212C30.8523 27.0877 30.7632 26.8639 30.6061 26.6912Z" fill="white"/>
<path d="M22.5 21.8574C24.9853 21.8574 27 19.8427 27 17.3574C27 14.8721 24.9853 12.8574 22.5 12.8574C20.0147 12.8574 18 14.8721 18 17.3574C18 19.8427 20.0147 21.8574 22.5 21.8574Z" fill="white"/>
</svg>
