<svg width="244" height="52" viewBox="0 0 244 52" fill="none" xmlns="http://www.w3.org/2000/svg">
<path d="M212 37.6254C221.6 38.8254 233 47.1254 237.5 51.1254C239.1 42.3254 235.167 34.7921 233 32.1255C235.167 30.4588 240.4 26.2255 244 22.6255C213.5 7.62549 212 17.6255 211 21.1255C207 20.7255 204 18.6255 203 17.6255C195.833 22.1255 181 32.2255 179 36.6255C190.6 47.8255 205.167 45.2921 211 42.6255C210.167 42.4588 207.9 41.9254 205.5 41.1254C206.5 38.6254 209.5 37.1254 212 37.6254Z" fill="url(#paint0_linear_104_45288)"/>
<path d="M32 37.6254C22.4 38.8254 11 47.1254 6.5 51.1254C4.9 42.3254 8.83333 34.7921 11 32.1255C8.83333 30.4588 3.6 26.2255 0 22.6255C30.5 7.62549 32 17.6255 33 21.1255C37 20.7255 40 18.6255 41 17.6255C48.1667 22.1255 63 32.2255 65 36.6255C53.4 47.8255 38.8333 45.2921 33 42.6255C33.8333 42.4588 36.1 41.9254 38.5 41.1254C37.5 38.6254 34.5 37.1254 32 37.6254Z" fill="url(#paint1_linear_104_45288)"/>
<path d="M208 13.6253L190.5 39.6253C187 30.1253 168 32.1254 166 32.6254C156.8 35.0254 145.5 35.292 141 35.1254C106.5 35.292 117.3 35.5254 104.5 35.1254C90 34.6254 73 32.1254 67.5 32.1254C59.1 32.1254 54.6667 37.1254 53.5 39.6254C48.6667 32.292 38.4 16.7253 36 13.1253C42 -1.87466 69 -0.874656 84.5 1.12533C137.5 6.12532 146.5 3.12533 164 1.12533C192 -1.67467 205 8.292 208 13.6253Z" fill="url(#paint2_linear_104_45288)"/>
<path d="M190 40.5C191.6 38.1 187 34 182 33C180.5 34 179.5 35.5 179 36.5C188.5 43 189.5 41 190 40.5Z" fill="#7C7C7C"/>
<path d="M54.0003 40C56.4003 42.4 62.3336 38.6667 65.0003 36.5C63.5003 34 62.5003 33.5 62.0003 33C52.5003 36 53.5003 39.5 54.0003 40Z" fill="#7C7C7C"/>
<defs>
<linearGradient id="paint0_linear_104_45288" x1="189.5" y1="18.0001" x2="237.5" y2="33.0001" gradientUnits="userSpaceOnUse">
<stop offset="0.075" stop-color="#8E8E8E"/>
<stop offset="0.195" stop-color="#919191"/>
<stop offset="0.433362" stop-color="#9B9B9B"/>
<stop offset="0.455039" stop-color="#A7A7A7"/>
<stop offset="0.625" stop-color="#9B9B9B"/>
<stop offset="0.755" stop-color="#777777"/>
<stop offset="1" stop-color="#858585"/>
</linearGradient>
<linearGradient id="paint1_linear_104_45288" x1="54.5" y1="18.0001" x2="6.5" y2="33.0001" gradientUnits="userSpaceOnUse">
<stop stop-color="#878787"/>
<stop offset="0.166667" stop-color="#8E8E8E"/>
<stop offset="0.333333" stop-color="#828282"/>
<stop offset="0.5" stop-color="#ADADAD"/>
<stop offset="0.666667" stop-color="#939393"/>
<stop offset="0.833333" stop-color="#7D7D7D"/>
<stop offset="1" stop-color="#7F7F7F"/>
</linearGradient>
<linearGradient id="paint2_linear_104_45288" x1="36" y1="19.8127" x2="205" y2="20" gradientUnits="userSpaceOnUse">
<stop stop-color="#7E8787"/>
<stop offset="0.155" stop-color="#7D7D7D"/>
<stop offset="0.305" stop-color="#A4AEAD"/>
<stop offset="0.455" stop-color="#A4AEAD"/>
<stop offset="0.675" stop-color="#BDBDBD"/>
<stop offset="0.89" stop-color="#818181"/>
<stop offset="1" stop-color="#7E8787"/>
</linearGradient>
</defs>
</svg>
