<svg width="327" height="52" viewBox="0 0 327 52" fill="none" xmlns="http://www.w3.org/2000/svg">
<path d="M295 37.6253C304.6 38.8253 316 47.1253 320.5 51.1253C322.1 42.3253 318.167 34.792 316 32.1254C318.167 30.4587 323.4 26.2253 327 22.6253C296.5 7.62536 295 17.6253 294 21.1253C290 20.7253 287 18.6253 286 17.6253C278.833 22.1253 264 32.2253 262 36.6253C273.6 47.8253 288.167 45.292 294 42.6253C293.167 42.4587 290.9 41.9253 288.5 41.1253C289.5 38.6253 292.5 37.1253 295 37.6253Z" fill="url(#paint0_linear_89_28065)"/>
<path d="M32 37.6253C22.4 38.8253 11 47.1253 6.5 51.1253C4.9 42.3253 8.83333 34.792 11 32.1254C8.83333 30.4587 3.6 26.2253 0 22.6253C30.5 7.62536 32 17.6253 33 21.1253C37 20.7253 40 18.6253 41 17.6253C48.1667 22.1253 63 32.2253 65 36.6253C53.4 47.8253 38.8333 45.292 33 42.6253C33.8333 42.4587 36.1 41.9253 38.5 41.1253C37.5 38.6253 34.5 37.1253 32 37.6253Z" fill="url(#paint1_linear_89_28065)"/>
<path d="M291 13.6253L273.5 39.6253C270 30.1253 251 32.1254 249 32.6254C239.8 35.0254 228.5 35.292 224 35.1254C189.5 35.292 117.3 35.5254 104.5 35.1254C90 34.6254 73 32.1254 67.5 32.1254C59.1 32.1254 54.6667 37.1254 53.5 39.6254C48.6667 32.292 38.4 16.7253 36 13.1253C42 -1.87466 69 -0.874656 84.5 1.12533C137.5 6.12532 229.5 3.12533 247 1.12533C275 -1.67467 288 8.292 291 13.6253Z" fill="url(#paint2_linear_89_28065)"/>
<path d="M273 40.5C274.6 38.1 270 34 265 33C263.5 34 262.5 35.5 262 36.5C271.5 43 272.5 41 273 40.5Z" fill="#17786D"/>
<path d="M54.0003 40C56.4003 42.4 62.3336 38.6667 65.0003 36.5C63.5003 34 62.5003 33.5 62.0003 33C52.5003 36 53.5003 39.5 54.0003 40Z" fill="#17786D"/>
<path fill-rule="evenodd" clip-rule="evenodd" d="M272.897 38.3434C268.227 30.3126 250.905 32.1492 249 32.6254C239.8 35.0254 228.5 35.292 224 35.1254C189.5 35.292 117.3 35.5254 104.5 35.1254C96.2389 34.8405 87.1662 33.9064 79.8712 33.1554C74.3619 32.5882 69.8665 32.1254 67.5 32.1254C62.6991 32.1254 59.194 33.7586 56.8539 35.6249C55.7629 36.2617 54.7975 37.0468 54 38.0038C54.6667 34.8372 60.2 29.2038 77 32.0038C77.4064 32.0445 77.9449 32.1016 78.6061 32.1718C86.0802 32.965 109.235 35.4225 134.5 34.5038H228.5C232.667 34.3372 242.8 33.5038 250 31.5038C254.705 30.5627 271.367 30.0645 272.897 38.3434Z" fill="url(#paint3_linear_89_28065)"/>
<defs>
<linearGradient id="paint0_linear_89_28065" x1="272.5" y1="18" x2="320.5" y2="33" gradientUnits="userSpaceOnUse">
<stop offset="0.075" stop-color="#127079"/>
<stop offset="0.195" stop-color="#18938A"/>
<stop offset="0.433362" stop-color="#0C6C74"/>
<stop offset="0.455039" stop-color="#178F87"/>
<stop offset="0.625" stop-color="#15766F"/>
<stop offset="0.755" stop-color="#0B636B"/>
<stop offset="1" stop-color="#146761"/>
</linearGradient>
<linearGradient id="paint1_linear_89_28065" x1="54.5" y1="18" x2="6.5" y2="33" gradientUnits="userSpaceOnUse">
<stop offset="0.075" stop-color="#127079"/>
<stop offset="0.195" stop-color="#18938A"/>
<stop offset="0.433362" stop-color="#0C6C74"/>
<stop offset="0.455039" stop-color="#178F87"/>
<stop offset="0.625" stop-color="#15766F"/>
<stop offset="0.755" stop-color="#0B636B"/>
<stop offset="1" stop-color="#146761"/>
</linearGradient>
<linearGradient id="paint2_linear_89_28065" x1="36" y1="19.8127" x2="291" y2="19.8127" gradientUnits="userSpaceOnUse">
<stop stop-color="#127079"/>
<stop offset="0.155" stop-color="#129AA6"/>
<stop offset="0.305" stop-color="#19A298"/>
<stop offset="0.455" stop-color="#24B5A4"/>
<stop offset="0.775" stop-color="#179F9F"/>
<stop offset="0.89" stop-color="#0C6E77"/>
<stop offset="1" stop-color="#127079"/>
</linearGradient>
<linearGradient id="paint3_linear_89_28065" x1="54" y1="34.6717" x2="272.897" y2="34.6717" gradientUnits="userSpaceOnUse">
<stop stop-color="#19A281"/>
<stop offset="0.125" stop-color="#32DBB2"/>
<stop offset="0.89" stop-color="#32DBB2"/>
<stop offset="1" stop-color="#19A281"/>
</linearGradient>
</defs>
</svg>
