<svg width="382" height="611" viewBox="0 0 382 611" fill="none" xmlns="http://www.w3.org/2000/svg">
<path d="M20.9037 5.74805L6.27167 20.3801L6.27148 589.823L21.9486 604.5H361.098L375.207 589.823L375.207 20.9026L361.098 5.74805H20.9037Z" fill="#136761" stroke="#32DAB1"/>
<path d="M382 65.3214L378.342 67.9343V18.29L369.458 9.40625H374.684L382 17.2448V65.3214Z" fill="#32DBB2"/>
<path d="M365.278 0L372.071 6.79343H367.368L363.71 3.13543H266.512L264.422 0H365.278Z" fill="#32DBB2"/>
<path d="M373.116 0H368.936L377.819 9.40629H382L373.116 0Z" fill="#32DBB2"/>
<path d="M0 65.3214L3.658 67.9343V18.29L12.5417 9.40625H7.31601L0 17.2448V65.3214Z" fill="#32DBB2"/>
<path d="M16.7221 0L9.92871 6.79343H14.6319L18.2899 3.13543H115.488L117.578 0H16.7221Z" fill="#32DBB2"/>
<path d="M8.88372 0H13.0643L4.18057 9.40629H0L8.88372 0Z" fill="#32DBB2"/>
<path d="M4.88826e-06 545.613L3.65801 543L3.658 592.645L12.5417 601.528L7.31601 601.528L6.8527e-07 593.69L4.88826e-06 545.613Z" fill="#32DBB2"/>
<path d="M16.7221 610.935L9.92871 604.141L14.6319 604.141L18.2899 607.799L115.488 607.799L117.578 610.935L16.7221 610.935Z" fill="#32DBB2"/>
<path d="M8.88372 610.935L13.0643 610.935L4.18058 601.528L8.22324e-07 601.528L8.88372 610.935Z" fill="#32DBB2"/>
<path d="M382 545.613L378.342 543L378.342 592.645L369.458 601.528L374.684 601.528L382 593.69L382 545.613Z" fill="#32DBB2"/>
<path d="M365.278 610.935L372.071 604.141L367.368 604.141L363.71 607.799L266.512 607.799L264.422 610.935L365.278 610.935Z" fill="#32DBB2"/>
<path d="M373.116 610.935L368.936 610.935L377.819 601.528L382 601.528L373.116 610.935Z" fill="#32DBB2"/>
<g opacity="0.5">
<path d="M235.352 13L209.058 63.5283" stroke="url(#paint0_linear_139_15077)" stroke-width="0.3"/>
<path d="M142.604 13.4907C144.517 17.8077 162.206 48.648 170.811 63.5285" stroke="url(#paint1_linear_139_15077)" stroke-width="0.3"/>
<path d="M14 19.8677L19.737 13.981H60.1137L73.5 27.7168H303.5L314.974 13.981H357.263L363 19.8677" stroke="#28B598" stroke-width="0.3"/>
<path d="M306.5 24L372 24" stroke="#28B598" stroke-width="0.3"/>
<path d="M3 24H136" stroke="#28B598" stroke-width="0.3"/>
<path d="M4 33H372" stroke="#28B598" stroke-width="0.3"/>
<path d="M4 39H372" stroke="#28B598" stroke-opacity="0.55" stroke-width="0.3"/>
<path d="M4 43H372" stroke="#28B598" stroke-opacity="0.45" stroke-width="0.3"/>
<path d="M4 48H372" stroke="#28B598" stroke-opacity="0.35" stroke-width="0.3"/>
<path d="M4 52H372" stroke="#28B598" stroke-opacity="0.25" stroke-width="0.3"/>
<path d="M4 56H372" stroke="#28B598" stroke-opacity="0.15" stroke-width="0.3"/>
<path d="M4 61H372" stroke="#28B598" stroke-opacity="0.1" stroke-width="0.3"/>
<path d="M51 13L106 66" stroke="url(#paint2_linear_139_15077)" stroke-width="0.3"/>
<path d="M324.5 13.5L276.5 65" stroke="url(#paint3_linear_139_15077)" stroke-width="0.3"/>
</g>
<path d="M22 604.5H46V56H6.5V590L22 604.5Z" fill="url(#paint4_linear_139_15077)" fill-opacity="0.4"/>
<defs>
<linearGradient id="paint0_linear_139_15077" x1="235.5" y1="12" x2="249.714" y2="47.864" gradientUnits="userSpaceOnUse">
<stop stop-color="#28B598" stop-opacity="0"/>
<stop offset="0.19" stop-color="#28B598"/>
<stop offset="0.915" stop-color="#28B598" stop-opacity="0"/>
</linearGradient>
<linearGradient id="paint1_linear_139_15077" x1="143.438" y1="14.7629" x2="182.138" y2="25.7344" gradientUnits="userSpaceOnUse">
<stop stop-color="#28B598" stop-opacity="0"/>
<stop offset="0.19" stop-color="#28B598"/>
<stop offset="0.915" stop-color="#28B598" stop-opacity="0"/>
</linearGradient>
<linearGradient id="paint2_linear_139_15077" x1="52.6251" y1="14.3475" x2="116.698" y2="47.7871" gradientUnits="userSpaceOnUse">
<stop stop-color="#28B598" stop-opacity="0"/>
<stop offset="0.19" stop-color="#28B598"/>
<stop offset="0.915" stop-color="#28B598" stop-opacity="0"/>
</linearGradient>
<linearGradient id="paint3_linear_139_15077" x1="323.082" y1="14.8093" x2="264.75" y2="42.1522" gradientUnits="userSpaceOnUse">
<stop stop-color="#28B598" stop-opacity="0"/>
<stop offset="0.19" stop-color="#28B598"/>
<stop offset="0.915" stop-color="#28B598" stop-opacity="0"/>
</linearGradient>
<linearGradient id="paint4_linear_139_15077" x1="26" y1="56" x2="26.25" y2="604.5" gradientUnits="userSpaceOnUse">
<stop stop-color="#1CB3A8" stop-opacity="0"/>
<stop offset="0.109446" stop-color="#1CB3A8"/>
<stop offset="1" stop-color="#1CB3A8"/>
</linearGradient>
</defs>
</svg>
