<svg width="382" height="158" viewBox="0 0 382 158" fill="none" xmlns="http://www.w3.org/2000/svg">
<rect x="0.15" y="0.15" width="381.7" height="157.7" rx="9.85" fill="#054254" stroke="#32DAB1" stroke-width="0.3"/>
<path d="M10 0.15H372C377.44 0.15 381.85 4.56 381.85 10V37.85H0.15V10C0.15 4.56 4.56 0.15 10 0.15Z" fill="#094147" stroke="#0D808A" stroke-width="0.3"/>
<path fill-rule="evenodd" clip-rule="evenodd" d="M375.103 38.0001H357.637L382 10.7068V30.2734L375.103 38.0001Z" fill="#0A5158"/>
<path fill-rule="evenodd" clip-rule="evenodd" d="M322.06 38L355.98 0H372C372.462 0 372.918 0.0313933 373.363 0.0921652L339.526 38H322.06Z" fill="#0A5158"/>
<path fill-rule="evenodd" clip-rule="evenodd" d="M288.06 38L321.98 0H339.446L305.526 38H288.06Z" fill="#0A5158"/>
<path fill-rule="evenodd" clip-rule="evenodd" d="M254.06 38L287.98 0H305.446L271.526 38H254.06Z" fill="#0A5158"/>
<path fill-rule="evenodd" clip-rule="evenodd" d="M220.06 38L253.98 0H271.446L237.526 38H220.06Z" fill="#0A5158"/>
<path fill-rule="evenodd" clip-rule="evenodd" d="M186.06 38L219.98 0H237.446L203.526 38H186.06Z" fill="#0A5158"/>
<path fill-rule="evenodd" clip-rule="evenodd" d="M152.06 38L185.98 0H203.446L169.526 38H152.06Z" fill="#0A5158"/>
<path fill-rule="evenodd" clip-rule="evenodd" d="M118.06 38L151.98 0H169.446L135.526 38H118.06Z" fill="#0A5158"/>
<path fill-rule="evenodd" clip-rule="evenodd" d="M84.0601 38L117.98 0H135.446L101.526 38H84.0601Z" fill="#0A5158"/>
<path fill-rule="evenodd" clip-rule="evenodd" d="M50.0601 38L83.9799 0H101.446L67.5257 38H50.0601Z" fill="#0A5158"/>
<path fill-rule="evenodd" clip-rule="evenodd" d="M16.0601 38L49.9799 0H67.4456L33.5257 38H16.0601Z" fill="#0A5158"/>
<path fill-rule="evenodd" clip-rule="evenodd" d="M0 17.9022L15.98 0H33.4457L0 37.4688V17.9022Z" fill="#0A5158"/>
</svg>
