<svg width="176" height="131" viewBox="0 0 176 131" fill="none" xmlns="http://www.w3.org/2000/svg">
<path opacity="0.4" fill-rule="evenodd" clip-rule="evenodd" d="M77.223 -70.9021C78.0815 -70.9021 78.772 -71.5926 78.772 -72.4511C78.772 -73.3095 78.0815 -74 77.223 -74C76.3646 -74 75.6741 -73.3095 75.6741 -72.4511C75.6741 -71.5926 76.3646 -70.9021 77.223 -70.9021ZM114.696 -50.8594C115.872 -50.8594 116.823 -51.8112 116.823 -52.9869C116.823 -54.1626 115.872 -55.1143 114.696 -55.1143C113.52 -55.1143 112.568 -54.1626 112.568 -52.9869C112.568 -51.8112 113.52 -50.8594 114.696 -50.8594ZM13.8288 -28.5212C13.6422 -28.5958 13.6422 -28.8385 13.8288 -28.9131C13.9638 -28.9671 14.1119 -29.0238 14.2706 -29.0846C15.4281 -29.5281 17.153 -30.189 18.5316 -31.6004C19.5453 -32.6575 20.0196 -34.6136 20.3905 -36.1432L20.3905 -36.1434L20.3906 -36.1436L20.3907 -36.144L20.3908 -36.1446L20.3909 -36.1449L20.391 -36.1453C20.4979 -36.5861 20.5962 -36.9915 20.6964 -37.3296C20.7524 -37.5349 21.0696 -37.5349 21.1069 -37.3109C21.1543 -37.0372 21.1961 -36.7224 21.2413 -36.3815L21.2414 -36.3811C21.4461 -34.8396 21.7218 -32.7635 22.8985 -31.5257C24.4661 -29.8648 26.7615 -29.1557 27.8625 -28.8571C28.0678 -28.8011 28.0678 -28.5212 27.8625 -28.4652C27.6859 -28.4023 27.4866 -28.3385 27.2704 -28.2692L27.2704 -28.2692C26.1391 -27.9067 24.5438 -27.3956 23.2904 -26.0952C22.1192 -24.8936 21.667 -22.7002 21.3479 -21.152C21.2754 -20.8006 21.2099 -20.4825 21.1443 -20.2167C21.0883 -20.0114 20.7897 -19.9928 20.7337 -20.2167C20.6491 -20.511 20.5645 -20.8707 20.4704 -21.2704C20.0874 -22.8982 19.5478 -25.1912 18.2144 -26.4497C17.0903 -27.5008 15.6808 -27.9352 14.62 -28.2622L14.6199 -28.2622L14.6197 -28.2622L14.6195 -28.2623C14.3244 -28.3533 14.0563 -28.4359 13.8288 -28.5212ZM0.41114 32.8015C3.37837 34.2758 6.7375 35.0223 10.3392 35.0223L10.3765 34.985C13.0639 34.985 15.8818 34.5744 18.793 33.7533C21.9842 32.8575 24.149 31.6445 26.0525 30.5621C28.3479 29.2558 30.1767 28.2481 33.032 28.3041C35.8258 28.373 38.6197 29.4301 41.3546 31.4459C41.1621 32.1211 40.9837 32.7973 40.8193 33.4743C38.4031 32.7112 36.0372 32.4583 33.7783 32.7268C30.1953 33.156 28.0118 34.7236 26.0897 36.1046C24.1302 37.5229 22.4133 38.7359 19.4087 38.8479C18.4744 38.8819 17.6792 38.7921 16.9106 38.7054L16.9104 38.7053L16.6841 38.6799L16.6204 38.6724C15.0543 38.488 13.4433 38.2983 11.1602 39.0532C9.35002 39.6503 7.67046 40.6394 6.14019 42.0017C5.8416 42.263 5.72963 42.6736 5.82294 43.0468C5.91625 43.42 6.2335 43.7186 6.60674 43.8119C8.65954 44.2785 10.5444 45.0623 12.2613 46.1446C13.8102 47.1151 14.8739 48.1228 15.5084 48.7386C16.6612 49.8374 17.1707 50.5363 17.6579 51.2045L17.7105 51.2766C18.1211 51.8551 18.5503 52.4523 19.3154 53.2175L19.3288 53.2309C20.313 54.2151 23.2731 57.1755 27.6386 57.547C28.0492 57.603 28.4411 57.603 28.833 57.603L28.8516 57.5843C30.9417 57.5843 32.7706 57.0991 34.2822 56.11C35.0076 55.6264 35.5106 55.1428 35.9943 54.6777L35.9991 54.6731C36.5963 54.0759 37.1188 53.572 38.1079 53.0868C38.6493 52.8161 39.2247 52.6068 39.826 52.4629C40.7004 60.0201 43.149 70.1296 49.7902 76.5448C49.8648 76.6382 49.9581 76.7315 50.0701 76.8248C51.2085 77.8885 53.0933 79.6987 54.4556 82.7219C55.4353 84.9099 55.9293 87.3409 55.95 89.9521C55.9259 90.3344 55.9216 90.7051 55.9309 91.0595L55.9299 91.0824C55.9254 91.1674 55.9293 91.2505 55.9407 91.331C55.9814 92.2201 56.1009 92.9923 56.1913 93.5644C56.3779 94.7774 56.9564 98.4911 60.1849 101.421C60.9842 102.145 61.8169 102.701 62.6397 103.13C63.1368 104.548 63.8928 105.814 64.8689 106.889C68.172 110.528 72.8935 110.677 74.9649 110.677L75.0023 110.696H75.2822L75.3545 110.695C77.4276 110.677 82.1295 110.635 85.1543 107.038C85.8116 106.243 86.3437 105.336 86.7301 104.336C86.7608 104.325 86.7917 104.314 86.8226 104.303C86.8635 104.288 86.9046 104.273 86.9459 104.258C91.686 102.447 93.6455 97.5207 93.9814 96.5503C94.2278 95.8483 95.0594 93.1954 94.679 90.1796C94.6786 90.1387 94.6762 90.0974 94.6717 90.0559C94.3918 87.3872 94.7277 84.9239 95.6235 82.7031C96.7839 79.8298 98.6532 78.0836 99.7962 77.0159L99.8411 76.9739C99.9251 76.8993 99.9997 76.8246 100.07 76.7546C100.105 76.7197 100.138 76.6859 100.172 76.6538C100.205 76.6217 100.238 76.5914 100.27 76.5634C106.908 70.1516 109.357 60.0496 110.233 52.4938C110.828 52.6361 111.398 52.8374 111.934 53.1055C112.923 53.5907 113.446 54.0946 114.043 54.6918L114.143 54.7885C114.596 55.2252 115.065 55.677 115.76 56.1287C117.29 57.0991 119.1 57.603 121.19 57.603L121.209 57.6217C121.601 57.6217 121.993 57.603 122.403 57.5657C126.769 57.1941 129.729 54.2338 130.713 53.2496L130.726 53.2361C131.492 52.471 131.921 51.8738 132.331 51.2953C132.817 50.6048 133.339 49.8957 134.534 48.7573L134.623 48.6732C135.266 48.0668 136.302 47.0896 137.781 46.1633C139.498 45.0996 141.382 44.3158 143.435 43.8306C143.827 43.7373 144.126 43.4387 144.219 43.0655C144.312 42.6922 144.2 42.2817 143.902 42.0204C142.371 40.6581 140.692 39.669 138.882 39.0718C136.589 38.3137 134.956 38.5083 133.401 38.6934L133.358 38.6986L133.153 38.7216L133.153 38.7216C132.375 38.8091 131.559 38.9008 130.633 38.8666C127.629 38.7546 125.93 37.5416 123.952 36.1233C122.03 34.7423 119.847 33.1747 116.264 32.7455C114.009 32.4775 111.648 32.7289 109.237 33.4883C109.074 32.8195 108.898 32.1516 108.707 31.4853C111.458 29.4682 114.251 28.4104 117.029 28.3414C119.876 28.2669 121.684 29.2877 123.99 30.589L124.008 30.5995L124.143 30.6747L124.143 30.6748L124.143 30.6749L124.143 30.6751C126.014 31.7211 128.152 32.916 131.268 33.7906C134.179 34.6117 136.997 35.0223 139.684 35.0223L139.721 35.0596C143.323 35.0596 146.682 34.3132 149.65 32.8389C158.047 28.6773 160.903 19.813 161.201 18.8239C162.731 13.6732 161.854 9.69826 160.996 5.87259C160.175 2.21487 159.335 -1.57346 160.529 -6.70546C161.388 -10.3445 163.067 -13.8343 165.531 -17.0628C165.867 -17.5106 165.867 -18.1265 165.549 -18.5744C165.213 -19.0409 164.635 -19.2275 164.112 -19.0409C160.231 -17.7346 157.189 -15.7004 155.061 -13.0131C151.803 -8.89876 151.257 -4.02289 150.773 0.29895L150.769 0.33004L150.759 0.422318C150.222 5.14211 149.757 9.23092 146.234 11.975C145.488 12.5535 144.648 13.0387 143.808 13.3746C139.594 15.0639 135.694 13.0416 131.19 10.7058L131.118 10.6687C126.453 8.24264 121.153 5.49935 114.453 6.37646C112.771 6.59515 109.026 7.08681 106.172 9.71058C101.154 5.47334 89.4992 -2.46365 73.1174 -1.81608C59.0651 -1.23714 49.0863 5.31195 43.9253 9.70719C41.0665 7.05371 37.2968 6.55875 35.6073 6.33912C28.8891 5.46201 23.6078 8.2053 18.9423 10.6313L18.9014 10.6525C14.384 12.9949 10.4944 15.0118 6.25229 13.3373C5.41251 13.0014 4.57272 12.5162 3.82625 11.9377C0.280508 9.17571 -0.186035 5.07012 -0.708565 0.292702L-0.712055 0.261551C-1.19638 -4.06027 -1.7428 -8.93611 -5.00078 -13.0505C-7.12823 -15.7378 -10.1701 -17.7533 -14.0518 -19.0782C-14.593 -19.2462 -15.1715 -19.0596 -15.4887 -18.6117C-15.8246 -18.1451 -15.806 -17.548 -15.4701 -17.1001C-13.0067 -13.8716 -11.3271 -10.3818 -10.4687 -6.74279C-9.27434 -1.6108 -10.1141 2.17754 -10.9352 5.83525L-10.9469 5.88743C-11.8017 9.7154 -12.6824 13.6592 -11.1405 18.7865C-10.8419 19.7756 -7.98668 28.64 0.41114 32.8015ZM83.6893 104.728C82.9869 104.686 82.2975 104.562 81.5713 104.426C80.0037 104.127 78.0629 103.772 74.7784 104.071C73.5841 104.183 72.7816 104.314 72.0725 104.444L72.0347 104.451C70.8766 104.653 69.9456 104.816 68.2841 104.65C67.7187 104.592 66.9456 104.514 66.0539 104.328C66.2629 104.631 66.4903 104.919 66.7351 105.191C69.4597 108.177 73.5093 108.177 75.2449 108.158C76.9431 108.158 80.8994 108.139 83.1948 105.396C83.3729 105.185 83.5377 104.961 83.6893 104.728ZM64.2907 101.114C65.9411 101.853 67.5269 102.012 68.5267 102.112C69.7936 102.236 70.4633 102.122 71.482 101.949L71.4822 101.949L71.6246 101.925C72.3524 101.794 73.2482 101.645 74.5358 101.514C75.4689 101.421 76.3274 101.402 77.0925 101.402L77.1298 101.421C79.3133 101.421 80.8622 101.701 82.0565 101.944C83.6241 102.242 84.5759 102.41 86.0502 101.85C89.7452 100.432 91.3315 96.457 91.5927 95.6545C91.7689 95.1612 93.1594 90.9251 91.1941 87.4693C88.5247 86.1923 86.1687 85.8832 84.1653 86.5289C81.8896 87.2564 80.6953 89.0093 79.5388 90.7068L79.5371 90.7092C78.3801 92.4074 77.2791 94.0123 75.2449 94.1802H74.9277V94.1989C72.7629 94.1989 71.2513 92.4074 69.6651 90.5225C68.0042 88.5444 66.2686 86.4916 63.6373 86.2676C62.1667 86.1411 60.6023 86.6176 59.0008 87.6857C58.7012 88.3762 58.5444 89.0847 58.4764 89.772C58.4813 90.2349 58.4723 90.7029 58.4493 91.1757L58.4484 91.1902L58.4472 91.206C58.4837 91.9404 58.5867 92.6096 58.6733 93.1539C58.8226 94.1616 59.2891 97.2035 61.8645 99.5362C62.5891 100.192 63.3539 100.674 64.1092 101.031C64.172 101.054 64.2327 101.082 64.2907 101.114ZM92.3795 84.7903C92.5853 83.7338 92.8887 82.7132 93.2908 81.7327C94.6904 78.2989 96.9298 76.2275 98.1428 75.1078C98.2919 74.9773 98.4224 74.8468 98.5343 74.7349L98.5347 74.7345C105.781 67.729 107.592 55.3204 108.039 48.9776C107.083 50.6095 105.675 52.2869 103.667 53.199C102.939 53.5349 101.446 54.2067 99.4867 54.0947C98.647 54.0387 98.0871 53.8708 97.5832 53.7028C97.1913 53.5722 96.8368 53.4602 96.3329 53.4042C95.0452 53.2363 93.6456 53.5535 92.1526 54.3186C92.0407 54.3746 91.9287 54.3933 91.8167 54.3933C91.8055 54.3933 91.7944 54.393 91.7832 54.3925C89.9125 58.0564 89.1284 62.0663 88.5696 64.9373C87.472 70.5136 87.5164 76.2746 88.6708 82.077C88.8229 82.1321 88.9696 82.1915 89.1107 82.2554C90.3537 82.8218 91.4507 83.6668 92.3795 84.7903ZM87.107 81.6927C86.0406 75.9504 86.0445 70.2373 87.1326 64.6947L87.1386 64.6642C88.147 59.5473 89.8339 50.988 96.8554 46.4994C97.1976 46.2814 97.5292 46.0872 97.8469 45.9142C97.8972 45.8785 97.9511 45.8498 98.0071 45.8281C99.8653 44.8433 101.216 44.5942 101.393 44.5616L101.409 44.5586C103.742 44.204 105.813 44.2786 105.906 44.2973H105.944C105.972 44.2973 106.002 44.2977 106.034 44.2982L106.113 44.2996C106.508 44.3071 107.169 44.3196 107.941 44.1107C108.012 44.0902 108.084 44.0692 108.155 44.0472C108.036 39.8821 107.355 35.7025 106.114 31.5778C101.99 23.8664 101.421 16.3845 104.53 11.645C99.7784 7.62348 88.7407 0.0923843 73.2294 0.721924C59.5646 1.27755 49.8255 8.03656 45.5601 11.6501C48.6356 16.3794 48.0578 23.8542 43.9459 31.5411C42.6992 35.6854 42.0185 39.8962 41.9037 44.0763C41.9631 44.0945 42.0228 44.1122 42.083 44.1293C42.9974 44.3719 43.7252 44.3346 44.0798 44.316H44.1171C44.1171 44.316 46.2819 44.2226 48.6146 44.5772C48.6771 44.5772 50.0592 44.8124 51.9847 45.8294C52.0758 45.8574 52.1626 45.9033 52.2395 45.9669C52.5382 46.1315 52.8487 46.3146 53.1681 46.5181C54.9316 47.6517 56.9919 49.9777 58.8214 53.2688C58.839 53.2963 58.8548 53.3248 58.8687 53.3542C60.5433 56.3885 62.0198 60.2334 62.8909 64.7133C63.9682 70.2057 63.9759 75.8653 62.9297 81.5497C63.4152 81.4128 63.9365 81.2979 64.4958 81.2103C66.2636 80.9246 67.6898 81.1686 68.676 81.3373L68.8066 81.3596C70.9901 81.7515 72.1471 82.4233 73.0615 82.9645L73.156 83.0189C73.8504 83.4189 74.3332 83.6971 75.2263 83.8043C76.1967 83.9163 76.6446 83.711 77.5404 83.2818C78.5481 82.7966 79.9291 82.1434 82.5604 81.7702C84.2807 81.5227 85.815 81.4985 87.107 81.6927ZM61.3016 82.1415C62.4808 76.3447 62.5315 70.5672 61.4353 64.9932C60.6029 60.7339 59.2243 57.088 57.6702 54.2171C56.2695 53.5257 54.9376 53.2439 53.6906 53.4042C53.2875 53.449 52.98 53.5416 52.6724 53.6342C52.5955 53.6573 52.5187 53.6804 52.4403 53.7028L52.3068 53.7427L52.3067 53.7428C51.8364 53.8838 51.3031 54.0436 50.5368 54.0947C50.4265 54.101 50.3175 54.1048 50.2101 54.1062C50.162 54.1133 50.113 54.1133 50.0702 54.1133L50.0636 54.1067C48.3606 54.096 47.0475 53.5083 46.3864 53.2123L46.3863 53.2123L46.3566 53.199C44.3794 52.301 42.9841 50.6612 42.0294 49.0533C42.4871 55.4294 44.3055 67.7331 51.5257 74.6973C51.6004 74.772 51.6937 74.8653 51.8057 74.9586L51.8166 74.969C52.9951 76.0914 55.2069 78.1978 56.751 81.6582C57.2033 82.6677 57.5681 83.7163 57.8438 84.8017C58.5447 83.91 59.6425 82.8954 61.3016 82.1415ZM63.7866 84.7934C62.9374 84.7263 62.0763 84.8109 61.2069 85.0483C62.0732 84.453 63.2569 83.9265 64.869 83.6737C66.306 83.431 67.4257 83.6363 68.3401 83.8043C70.0943 84.1215 70.9528 84.6254 71.7739 85.1106L71.8027 85.1273C72.6334 85.6073 73.4887 86.1016 74.9277 86.2676C76.5988 86.4697 77.5471 86.0211 78.555 85.5444L78.6041 85.5212C79.4999 85.092 80.6382 84.5508 82.8963 84.2335C85.8822 83.8043 87.4125 84.2149 88.047 84.5134C88.4312 84.6877 88.7737 84.8908 89.0762 85.1043C87.1402 84.5958 85.3454 84.6055 83.7174 85.1293C80.9732 86.0193 79.5186 88.1436 78.3468 89.8549L78.3241 89.888L78.318 89.897C77.2945 91.4044 76.474 92.6128 75.133 92.706C73.548 92.8365 72.2798 91.3275 70.8071 89.5751L70.8034 89.5708L70.7886 89.5531C69.0193 87.4486 67.0061 85.0539 63.7866 84.7934ZM51.2996 47.123C50.7331 46.8214 50.2238 46.5995 49.7956 46.4371C50.4282 47.4911 50.6044 48.7663 50.2381 49.9331C49.8364 51.2034 48.9293 51.9431 48.2115 52.347C48.7027 52.4949 49.2829 52.6129 49.936 52.629C51.1387 52.1565 51.998 51.122 52.1603 49.8957C52.363 48.5104 51.5869 47.4616 51.2996 47.123ZM52.9015 52.049C53.0854 52.0092 53.2847 51.9744 53.504 51.9486C54.4544 51.8256 55.445 51.9103 56.4638 52.1906C55.5221 50.7548 54.5528 49.5949 53.6289 48.7428C53.6928 49.1601 53.7046 49.6151 53.6346 50.101C53.533 50.8047 53.2792 51.466 52.9015 52.049ZM39.419 43.4052C39.5224 40.7839 39.8373 38.1574 40.3619 35.5388C38.1624 34.8228 36.0285 34.5741 34.0209 34.8169C30.9965 35.1695 29.2081 36.4444 27.3352 37.7797L27.3027 37.8028L27.2625 37.8315C25.683 38.9557 24.0655 40.107 21.7653 40.6407C22.2334 40.7412 22.7783 40.8354 23.3839 40.9008C24.9764 41.0839 25.9225 40.5847 26.9268 40.0548L26.9856 40.0237C28.0306 39.4639 29.1317 38.8854 30.7739 39.1653C31.9869 39.3706 32.6028 39.8744 33.3306 40.4903L33.3797 40.5308C34.002 41.0436 34.7098 41.6268 36.0552 42.2632C37.1213 42.7689 38.2474 43.1544 39.419 43.4052ZM18.0433 40.9151C17.4577 40.8789 16.9221 40.8151 16.4228 40.7514C14.9486 40.5648 13.6796 40.4155 11.8134 41.0313C10.8803 41.3299 9.98452 41.7591 9.12608 42.319C10.6377 42.8415 12.056 43.5133 13.381 44.3345C15.0979 45.4168 16.2736 46.5179 16.964 47.1897C18.2903 48.4423 18.8893 49.2767 19.4071 49.998L19.4274 50.0263L19.5414 50.1822L19.5414 50.1823C19.9039 50.6788 20.2352 51.1327 20.827 51.7245L20.8426 51.7401C21.7873 52.6849 24.2434 55.1413 27.8439 55.4382C29.9527 55.6248 31.7442 55.2516 33.1438 54.3372C33.7037 53.9639 34.1142 53.572 34.5435 53.1615L34.5519 53.1533C35.1844 52.5394 35.9115 51.8337 37.1935 51.202C37.9532 50.8221 38.7645 50.5453 39.6157 50.3659C39.5301 49.3607 39.4717 48.4203 39.4329 47.5631C39.3913 46.6672 39.3748 45.7698 39.3832 44.8716C37.9973 44.5948 36.6667 44.1513 35.4207 43.5508C33.8718 42.823 33.0507 42.1325 32.3975 41.5727C31.7443 41.0315 31.3524 40.7142 30.55 40.5836C29.393 40.397 28.6465 40.7889 27.6947 41.2927C26.575 41.8899 25.306 42.5617 23.2346 42.3378C21.1856 42.1046 19.7909 41.6037 19.462 41.4856C19.4224 41.4714 19.3982 41.4627 19.3902 41.4607C19.3436 41.442 19.2923 41.4187 19.2409 41.3954C19.1896 41.3721 19.1383 41.3487 19.0916 41.3301L19.0312 41.3042C18.7533 41.1849 18.4365 41.0489 18.0433 40.9151ZM-11.0004 -14.8812C-9.62436 -12.4603 -8.63842 -9.9279 -8.024 -7.30264C-6.68035 -1.6108 -7.6321 2.64409 -8.49054 6.39511L-8.49934 6.4345C-9.31723 10.0963 -10.0906 13.5587 -8.73315 18.0587C-8.47188 18.9545 -5.91521 26.8484 1.53085 30.5435C4.74068 32.1484 10.2273 33.5853 18.0652 31.3646C20.9578 30.5435 22.9919 29.4051 24.7648 28.3974L24.8247 28.3637C27.2287 27.0136 29.5156 25.7293 33.0506 25.8034C36.2045 25.878 39.3024 26.9791 42.3256 29.0879C45.5914 22.3136 45.7967 15.8193 42.8108 12.2736C40.534 9.56761 36.8203 9.08241 35.2341 8.87713C29.3432 8.11521 24.6551 10.5362 20.1195 12.8784L20.062 12.9081C15.1913 15.4461 10.5818 17.8348 5.26321 15.726C4.19949 15.3154 3.15443 14.6996 2.22134 13.9718C-2.16419 10.5567 -2.72404 5.49934 -3.26524 0.609947C-3.73178 -3.57029 -4.21699 -7.89983 -7.01626 -11.4456C-8.07375 -12.7813 -9.40789 -13.9327 -11.0004 -14.8812ZM96.4444 48.5432C95.0407 49.6491 93.8994 50.9566 92.9631 52.3667C94.1867 51.9412 95.3722 51.8018 96.5195 51.9486C96.7506 51.9758 96.9595 52.0129 97.1515 52.0554C96.7677 51.4691 96.5099 50.8002 96.4074 50.0823C96.3271 49.5253 96.3544 49.0088 96.4444 48.5432ZM100.149 52.6269C100.772 52.6047 101.332 52.4891 101.81 52.3457C101.092 51.9416 100.187 51.2021 99.7854 49.9331C99.4096 48.7364 99.6046 47.4254 100.278 46.3563C99.8657 46.511 99.3756 46.721 98.8317 47.0031C98.8262 47.0094 98.8205 47.0156 98.8148 47.0218C98.6281 47.2271 97.6577 48.3468 97.8817 49.877C98.0641 51.1179 98.9246 52.1625 100.149 52.6269ZM110.677 44.8232C110.687 45.7446 110.67 46.6643 110.628 47.5816C110.589 48.4399 110.53 49.3817 110.444 50.3884C111.289 50.568 112.094 50.8435 112.848 51.2207C114.131 51.8524 114.858 52.5581 115.49 53.1721L115.498 53.1802L115.604 53.2817C115.996 53.6581 116.384 54.0305 116.898 54.3558C118.298 55.2703 120.071 55.6248 122.198 55.4569C125.798 55.16 128.255 52.7036 129.199 51.7588L129.215 51.7432C129.807 51.1514 130.138 50.6975 130.5 50.2011L130.5 50.201L130.501 50.2009L130.615 50.045L130.635 50.0168L130.635 50.0166C131.153 49.2953 131.752 48.4609 133.078 47.2084L133.106 47.1817C133.8 46.525 134.967 45.4209 136.661 44.3531C137.986 43.5133 139.404 42.8415 140.916 42.3376C140.057 41.7778 139.162 41.3486 138.229 41.05C136.362 40.4341 135.093 40.5834 133.619 40.7701C133.08 40.8388 132.5 40.9076 131.859 40.9418C131.448 41.085 131.046 41.2456 130.652 41.4234H130.615L130.606 41.4267L130.587 41.4336C130.369 41.5175 128.922 42.073 126.77 42.3005C124.699 42.5244 123.43 41.8526 122.31 41.2554C121.358 40.7516 120.612 40.3597 119.455 40.5463C118.685 40.6716 118.293 40.9857 117.686 41.4722L117.607 41.5354L117.572 41.5648C116.924 42.1015 116.105 42.7805 114.584 43.5135C113.355 44.1061 112.043 44.5457 110.677 44.8232ZM128.176 40.6361C125.904 40.088 124.295 38.9387 122.739 37.8215C120.854 36.4592 119.063 35.1902 116.021 34.8356C114.002 34.5934 111.886 34.8403 109.696 35.5521C110.218 38.154 110.533 40.767 110.639 43.3711C111.798 43.1184 112.913 42.7453 113.968 42.2445C115.314 41.6082 116.021 41.025 116.644 40.5122L116.693 40.4716L116.739 40.4342C117.447 39.8527 118.062 39.3476 119.25 39.1466C120.879 38.8689 121.958 39.4365 123.014 39.9923L123.038 40.0051L123.044 40.0083C124.068 40.5483 125.019 41.0498 126.64 40.8822C127.212 40.8168 127.728 40.7292 128.176 40.6361ZM125.259 28.3974C122.907 27.0537 120.668 25.8034 117.29 25.8034H117.271H116.954C113.8 25.878 110.684 26.9791 107.679 29.0879C104.432 22.3136 104.208 15.8193 107.194 12.2736C109.471 9.56762 113.184 9.08242 114.771 8.87714C120.686 8.09334 125.389 10.538 129.943 12.9081C134.813 15.4461 139.423 17.8348 144.741 15.726C145.805 15.3155 146.85 14.6996 147.783 13.9718C152.169 10.5567 152.729 5.49935 153.27 0.609962C153.736 -3.57028 154.222 -7.89982 157.021 -11.4456C158.085 -12.7892 159.428 -13.9462 161.033 -14.898C159.671 -12.4533 158.663 -9.91529 158.047 -7.30264C156.722 -1.61079 157.674 2.6441 158.514 6.39512L158.523 6.43457C159.341 10.0964 160.114 13.5587 158.756 18.0587C158.477 18.9359 155.939 26.8484 148.492 30.5435C145.283 32.1484 139.796 33.5854 131.958 31.3646C129.082 30.5482 127.073 29.4181 125.289 28.4146L125.259 28.3974ZM76.0286 48.6267C77.2416 49.4292 78.548 50.045 79.9103 50.3063C80.5821 50.4369 81.2726 50.4929 81.9444 50.4369H81.9445C82.1497 50.4369 82.3177 50.4369 82.4856 50.3996C82.5976 50.3996 82.7095 50.383 82.8215 50.3664C82.8775 50.3581 82.9335 50.3498 82.9895 50.3436C83.3254 50.2876 83.6613 50.213 83.9786 50.1197C85.3035 49.7464 86.5165 49.0373 87.6176 48.1602C88.7373 47.2831 89.689 46.238 90.4542 45.0623C90.8614 44.4366 91.2052 43.758 91.5615 43.0547C91.8747 42.4365 92.1975 41.7992 92.5816 41.162C92.9922 40.4902 93.4961 39.8183 94.0746 39.2585C94.6531 38.68 95.3063 38.2134 95.9967 37.8029C96.6872 37.3923 97.4151 37.075 98.1615 36.8324C98.908 36.5712 99.6731 36.4219 100.438 36.3099C101.203 36.1979 101.969 36.142 102.752 36.142C103.517 36.142 104.283 36.1793 105.029 36.2726C105.253 36.2912 105.421 36.4965 105.384 36.7205C105.365 36.9258 105.197 37.075 104.992 37.075C103.517 37.1124 102.062 37.2243 100.662 37.5229C99.2626 37.8215 97.9189 38.3254 96.7432 39.0532C96.1647 39.4264 95.6049 39.8557 95.1383 40.3222C94.6531 40.8074 94.2612 41.3486 93.9066 41.9458C93.6543 42.3708 93.4303 42.8335 93.201 43.3072C93.1082 43.4992 93.0144 43.6929 92.9175 43.8866C92.5816 44.5584 92.2271 45.2489 91.7978 45.9207C91.3686 46.5739 90.8834 47.2271 90.3422 47.8056C89.801 48.3841 89.2038 48.9066 88.588 49.3918C87.3563 50.3623 85.9194 51.146 84.3518 51.5379C83.9599 51.6312 83.568 51.7246 83.1574 51.7619L83.1544 51.7622L82.9216 51.7834C82.8332 51.7916 82.7461 51.7997 82.662 51.8079L82.5602 51.8179H81.9817C81.1793 51.8365 80.3581 51.7432 79.5744 51.5193C78.0254 51.0714 76.6444 50.213 75.5807 49.0932C75.4501 48.9626 75.4688 48.7573 75.5807 48.6267C75.6927 48.5147 75.8607 48.5147 75.9913 48.5894L76.0286 48.6267ZM111.971 25.0754C112.12 25.2807 112.344 25.3927 112.587 25.3927C112.718 25.3927 112.867 25.3554 112.998 25.2621C113.333 25.0381 113.408 24.5716 113.184 24.2357C111.803 22.2202 111.15 19.6822 111.374 17.2561C111.598 14.8301 112.736 12.4601 114.472 10.7432C114.752 10.4632 114.752 9.9967 114.472 9.6981C114.192 9.41817 113.725 9.41817 113.427 9.6981C111.449 11.6576 110.161 14.3636 109.9 17.1255C109.638 19.8875 110.404 22.78 111.971 25.0754ZM116.954 24.2171C116.656 24.2171 116.376 24.0304 116.264 23.7318C115.424 21.3618 115.349 18.7492 116.077 16.3418C116.805 13.9344 118.298 11.7883 120.295 10.2767C120.612 10.0341 121.078 10.0901 121.321 10.426C121.564 10.7432 121.508 11.2098 121.172 11.4524C119.417 12.7774 118.111 14.6622 117.477 16.771C116.842 18.8798 116.898 21.1752 117.645 23.2467C117.775 23.6385 117.589 24.0491 117.197 24.1797C117.122 24.2171 117.029 24.2171 116.954 24.2171ZM121.209 23.5266C121.284 23.8625 121.582 24.0865 121.918 24.0865C121.946 24.0865 121.974 24.0818 122.002 24.0772C122.03 24.0725 122.058 24.0678 122.086 24.0678C122.478 23.9745 122.72 23.5826 122.627 23.1907C121.843 19.8689 123.262 16.1739 126.061 14.2144C126.397 13.9718 126.471 13.5239 126.248 13.188C126.005 12.8521 125.557 12.7774 125.221 13.0014C121.955 15.2968 120.294 19.6263 121.209 23.5266ZM78.6602 80.669C78.4549 80.669 78.231 80.5757 78.0817 80.3891C77.8204 80.0718 77.8764 79.6053 78.1936 79.344C80.0972 77.7951 82.8964 77.3845 85.1732 78.3549C85.5464 78.5229 85.7144 78.9521 85.5651 79.3254C85.3971 79.6986 84.9679 79.8666 84.5946 79.7173C82.8218 78.9521 80.6197 79.2694 79.1267 80.4824C78.9961 80.5944 78.8281 80.6504 78.6602 80.6504V80.669ZM74.4237 49.1306C73.3599 50.2503 71.9976 51.1274 70.43 51.5566C69.6649 51.7806 68.8438 51.8739 68.0227 51.8552H67.4441C67.2389 51.8552 67.0336 51.8365 66.847 51.7992C66.4365 51.7619 66.0446 51.6686 65.6527 51.5753L65.6526 51.5753C64.085 51.1834 62.6481 50.3996 61.4164 49.4292C60.8005 48.944 60.2034 48.4214 59.6622 47.8429C59.121 47.2644 58.6358 46.6299 58.2066 45.9581C57.7773 45.2862 57.4228 44.5958 57.0868 43.9239C56.9958 43.7418 56.9075 43.561 56.82 43.382L56.8178 43.3775L56.8165 43.3749L56.8158 43.3735L56.8157 43.3732C56.5821 42.895 56.3546 42.4293 56.0978 41.9831C55.7432 41.3859 55.3513 40.8261 54.8661 40.3595C54.3995 39.893 53.8397 39.4638 53.2612 39.0905C52.0855 38.3627 50.7418 37.8588 49.3422 37.5603C47.9426 37.243 46.4869 37.1497 45.0127 37.1124C44.7887 37.1124 44.6021 36.9258 44.6208 36.7018C44.6208 36.4965 44.7887 36.3286 44.9753 36.3099C45.7218 36.2353 46.4869 36.1793 47.2521 36.1793C48.0172 36.1793 48.7823 36.2353 49.5661 36.3472C50.3313 36.4592 51.0964 36.6272 51.8429 36.8698C52.5893 37.1124 53.3172 37.4296 54.0076 37.8402C54.6981 38.2507 55.3513 38.7173 55.9298 39.2958C56.5083 39.8557 57.0122 40.5275 57.4228 41.1993C57.8069 41.8366 58.1297 42.4738 58.4429 43.092L58.4429 43.0921L58.443 43.0922L58.443 43.0923L58.4431 43.0924L58.4431 43.0924L58.4431 43.0925L58.4432 43.0926L58.4432 43.0927L58.4433 43.0928L58.4433 43.0929L58.4434 43.093L58.4434 43.0931L58.4435 43.0932L58.4435 43.0933L58.4436 43.0934L58.4436 43.0935L58.4436 43.0935L58.4437 43.0936L58.4437 43.0937L58.4438 43.0938L58.4438 43.0939L58.4439 43.094L58.4439 43.0941L58.444 43.0942L58.444 43.0943L58.4441 43.0944L58.4441 43.0945L58.4442 43.0946L58.4442 43.0946L58.4442 43.0947L58.4443 43.0948L58.4443 43.0949L58.4444 43.095L58.4444 43.0951L58.4445 43.0952L58.4445 43.0953L58.4446 43.0954L58.4446 43.0955L58.4447 43.0956L58.4447 43.0956L58.4447 43.0957C58.8004 43.7978 59.1436 44.4751 59.5502 45.0996C60.3153 46.2753 61.2671 47.3017 62.3868 48.1975C63.4878 49.0746 64.7009 49.7837 66.0258 50.157C66.3618 50.2503 66.679 50.3249 67.0149 50.3809L67.5188 50.4369C67.6604 50.4369 67.8019 50.4502 67.9658 50.4655L68.06 50.4742C68.7318 50.5302 69.4223 50.4742 70.0941 50.3436C71.4378 50.0823 72.7441 49.4665 73.9758 48.664C74.1251 48.5707 74.3304 48.608 74.4237 48.7573C74.517 48.888 74.4796 49.0559 74.3863 49.1679L74.4237 49.1306ZM37.0254 25.2622C37.1374 25.3555 37.2867 25.3929 37.436 25.3929C37.6786 25.3929 37.9025 25.2809 38.0518 25.0756C39.6381 22.7989 40.3846 19.9063 40.1233 17.1257C39.862 14.3451 38.5744 11.6391 36.5962 9.69828C36.2976 9.3997 35.8311 9.3997 35.5511 9.69828C35.2526 9.99687 35.2526 10.4634 35.5511 10.7433C37.2867 12.4602 38.4251 14.8303 38.649 17.2563C38.8729 19.6824 38.2198 22.2204 36.8388 24.2358C36.6149 24.5717 36.6895 25.0383 37.0254 25.2622ZM33.0693 24.2172C33.0693 24.2172 32.9013 24.2172 32.8267 24.1799C32.4348 24.0492 32.2481 23.62 32.3788 23.2468C33.1252 21.1753 33.1812 18.8799 32.5467 16.7711C31.9122 14.6623 30.6059 12.7775 28.8517 11.4525C28.5344 11.2099 28.4598 10.7434 28.7024 10.4261C28.945 10.1089 29.4115 10.0342 29.7288 10.2768C31.7256 11.7884 33.2372 13.9345 33.9464 16.3419C34.6742 18.7493 34.5995 21.3619 33.7597 23.732C33.6478 24.0306 33.3679 24.2172 33.0693 24.2172ZM27.9373 24.0679C27.9933 24.0865 28.1052 24.0865 28.1052 24.0865C28.4412 24.0865 28.7397 23.8626 28.8144 23.5267C29.7475 19.6263 28.0866 15.2968 24.8021 13.0014C24.4662 12.7775 23.9996 12.8521 23.7757 13.188C23.5518 13.5239 23.6264 13.9905 23.9623 14.2144C26.7616 16.1739 28.1799 19.869 27.3961 23.1908C27.3028 23.5827 27.5454 23.9745 27.9373 24.0679ZM71.3633 80.669C71.1953 80.669 71.0274 80.6131 70.8967 80.5011C69.4038 79.2881 67.2017 78.9708 65.4288 79.7359C65.0556 79.9039 64.6264 79.7359 64.4584 79.344C64.2904 78.9708 64.4584 78.5416 64.8503 78.3736C67.1084 77.4032 69.9263 77.8138 71.8298 79.3627C72.1471 79.624 72.1844 80.0905 71.9418 80.4078C71.7925 80.5944 71.5872 80.6877 71.3633 80.6877V80.669ZM77.9136 94.8706C77.3351 94.9079 76.6446 95.1505 76.3647 95.7104C76.1038 96.1973 76.3129 96.7491 76.3577 96.8673C76.361 96.8759 76.3634 96.8823 76.3647 96.8861C76.8499 97.9871 78.6227 98.1738 79.2572 98.2297C81.6833 98.4723 83.5681 97.334 84.4452 96.7928C85.4156 96.1956 86.2181 95.6917 86.722 94.6653C86.9459 94.2361 87.5617 92.8551 86.8526 91.5861C86.3301 90.6344 85.1357 90.0745 84.1093 90.3918C83.1016 90.709 82.4857 91.6794 81.9445 92.5939C81.4034 93.4896 80.7689 94.4601 79.7611 94.7586C79.363 94.8706 78.9483 94.8665 78.5336 94.8623C78.3262 94.8602 78.1189 94.8582 77.9136 94.8706ZM73.808 95.7104C73.5281 95.1505 72.8376 94.9079 72.2591 94.8706C72.0538 94.8582 71.8465 94.8602 71.6391 94.8623C71.2244 94.8665 70.8097 94.8706 70.4116 94.7586C69.4038 94.4601 68.7693 93.4896 68.2281 92.5939C67.687 91.6794 67.0711 90.709 66.0634 90.3918C65.037 90.0745 63.8426 90.6344 63.3201 91.5861C62.6109 92.8551 63.2268 94.2361 63.4507 94.6653C63.9546 95.6917 64.757 96.1956 65.7275 96.7928C66.6046 97.334 68.4894 98.4723 70.9154 98.2297C71.5499 98.1738 73.3228 97.9871 73.808 96.8861C73.8093 96.8823 73.8117 96.8759 73.815 96.8673C73.8598 96.7491 74.0689 96.1973 73.808 95.7104ZM95.3809 10.3141C95.2689 10.3141 95.1383 10.2954 95.045 10.2208C89.3718 7.21623 82.9708 5.46201 76.5698 5.16343C70.3927 4.86484 64.0664 5.89124 58.2999 8.14931C57.9267 8.29861 57.4974 8.11199 57.3481 7.73875C57.1989 7.36552 57.3855 6.9363 57.7587 6.78701C63.7305 4.45428 70.2621 3.39056 76.6445 3.70781C83.2694 4.04372 89.857 5.85392 95.7355 8.95177C96.0901 9.1384 96.2394 9.58627 96.0341 9.94085C95.9035 10.1834 95.6422 10.3327 95.3809 10.3327V10.3141ZM127.573 92.1275C127.386 92.2021 127.386 92.4448 127.573 92.5194V92.5007C127.799 92.5858 128.067 92.6682 128.361 92.7589L128.363 92.7594L128.363 92.7596L128.364 92.7597L128.364 92.7597L128.364 92.7598C129.425 93.0867 130.834 93.5211 131.958 94.5722C133.292 95.8307 133.831 98.1237 134.214 99.7514L134.214 99.7519L134.215 99.7528C134.309 100.152 134.393 100.511 134.478 100.805C134.534 101.029 134.832 101.011 134.888 100.805C134.954 100.54 135.019 100.222 135.091 99.8711L135.092 99.8702L135.092 99.8699C135.411 98.3217 135.863 96.1284 137.034 94.9268C138.288 93.6264 139.883 93.1152 141.014 92.7527C141.23 92.6834 141.43 92.6196 141.606 92.5567C141.812 92.5007 141.812 92.2208 141.606 92.1648C140.505 91.8662 138.21 91.1384 136.642 89.4962C135.465 88.2734 135.19 86.1992 134.985 84.6581C134.94 84.3176 134.898 84.0032 134.851 83.7297C134.813 83.5057 134.496 83.5058 134.44 83.711C134.34 84.0494 134.242 84.4552 134.135 84.8963L134.134 84.8971L134.134 84.8973C133.763 86.427 133.289 88.3831 132.275 89.4402C130.897 90.8516 129.172 91.5125 128.014 91.956L128.014 91.9562L127.906 91.9975C127.788 92.0428 127.677 92.086 127.573 92.1275ZM0.467104 74.7905C0.280487 74.8652 0.280487 75.1078 0.467104 75.1824V75.1638C0.69467 75.2491 0.96294 75.3318 1.25823 75.4228C2.31903 75.7497 3.72857 76.1842 4.85263 77.2352C6.18607 78.4937 6.72563 80.7867 7.10866 82.4145L7.1087 82.4147C7.20274 82.8144 7.28736 83.1739 7.37198 83.4682C7.42796 83.6922 7.72655 83.6735 7.78254 83.4682C7.84812 83.2025 7.9137 82.8843 7.98613 82.533C8.3053 80.9847 8.75746 78.7914 9.92864 77.5898C11.182 76.2894 12.7775 75.7782 13.9087 75.4157L13.9088 75.4157L13.9092 75.4156C14.1252 75.3464 14.3243 75.2826 14.5008 75.2197C14.7061 75.1638 14.7061 74.8838 14.5008 74.8279C13.3997 74.5293 11.1043 73.8014 9.53675 72.1592C8.35979 70.9364 8.08423 68.8623 7.87949 67.3211C7.83426 66.9807 7.79248 66.6662 7.74521 66.3927C7.70789 66.1688 7.39064 66.1688 7.33465 66.3741C7.23431 66.7127 7.13585 67.1188 7.02876 67.5604C6.65785 69.0901 6.18355 71.0461 5.16988 72.1032C3.79133 73.5146 2.0664 74.1755 0.908913 74.619L0.908672 74.6191L0.907585 74.6195L0.900684 74.6221L0.900358 74.6223L0.895905 74.624L0.890297 74.6261C0.7386 74.6843 0.59684 74.7386 0.467104 74.7905ZM115.778 -17.6972C115.778 -16.5215 114.827 -15.5698 113.651 -15.5698C112.475 -15.5698 111.524 -16.5215 111.524 -17.6972C111.524 -18.8729 112.475 -19.8247 113.651 -19.8247C114.827 -19.8247 115.778 -18.8729 115.778 -17.6972ZM140.692 -28.0547C140.692 -26.879 139.74 -25.9273 138.564 -25.9273C137.389 -25.9273 136.437 -26.879 136.437 -28.0547C136.437 -29.2304 137.389 -30.1822 138.564 -30.1822C139.74 -30.1822 140.692 -29.2304 140.692 -28.0547ZM42.4748 -46.3618C43.6505 -46.3618 44.6023 -47.3135 44.6023 -48.4892C44.6023 -49.6649 43.6505 -50.6167 42.4748 -50.6167C41.2991 -50.6167 40.3474 -49.6649 40.3474 -48.4892C40.3474 -47.3135 41.2991 -46.3618 42.4748 -46.3618ZM-14.7238 45.1742C-14.7238 46.3499 -15.6756 47.3017 -16.8512 47.3017C-18.0269 47.3017 -18.9787 46.3499 -18.9787 45.1742C-18.9787 43.9986 -18.0269 43.0468 -16.8512 43.0468C-15.6756 43.0468 -14.7238 43.9986 -14.7238 45.1742ZM31.0164 112.879C32.1921 112.879 33.1439 111.928 33.1439 110.752C33.1439 109.576 32.1921 108.624 31.0164 108.624C29.8408 108.624 28.889 109.576 28.889 110.752C28.889 111.928 29.8408 112.879 31.0164 112.879ZM77.9696 128.872C77.9696 130.048 77.0179 131 75.8422 131C74.6665 131 73.7147 130.048 73.7147 128.872C73.7147 127.697 74.6665 126.745 75.8422 126.745C77.0179 126.745 77.9696 127.697 77.9696 128.872ZM167.863 47.731C167.863 48.906 166.911 49.8585 165.736 49.8585C164.561 49.8585 163.609 48.906 163.609 47.731C163.609 46.5561 164.561 45.6036 165.736 45.6036C166.911 45.6036 167.863 46.5561 167.863 47.731ZM162.451 80.3702C163.626 80.3702 164.579 79.4177 164.579 78.2428C164.579 77.0678 163.626 76.1153 162.451 76.1153C161.276 76.1153 160.324 77.0678 160.324 78.2428C160.324 79.4177 161.276 80.3702 162.451 80.3702ZM117.925 81.4154C119.1 81.4154 120.052 80.4636 120.052 79.2879C120.052 78.1122 119.1 77.1605 117.925 77.1605C116.749 77.1605 115.797 78.1122 115.797 79.2879C115.797 80.4636 116.749 81.4154 117.925 81.4154ZM45.2554 -10.4565C46.1109 -10.4565 46.8044 -11.15 46.8044 -12.0054C46.8044 -12.8609 46.1109 -13.5544 45.2554 -13.5544C44.4 -13.5544 43.7065 -12.8609 43.7065 -12.0054C43.7065 -11.15 44.4 -10.4565 45.2554 -10.4565ZM87.5242 -10.0273C88.3827 -10.0273 89.0732 -10.7178 89.0732 -11.5762C89.0732 -12.4346 88.3827 -13.1251 87.5242 -13.1251C86.6658 -13.1251 85.9753 -12.4346 85.9753 -11.5762C85.9753 -10.7178 86.6658 -10.0273 87.5242 -10.0273ZM105.57 -36.2845C105.57 -35.4261 104.88 -34.7356 104.021 -34.7356C103.163 -34.7356 102.472 -35.4261 102.472 -36.2845C102.472 -37.143 103.163 -37.8335 104.021 -37.8335C104.88 -37.8335 105.57 -37.143 105.57 -36.2845ZM18.0278 -52.1096C18.0278 -51.2512 17.3373 -50.5607 16.4788 -50.5607C15.6204 -50.5607 14.9299 -51.2512 14.9299 -52.1096C14.9299 -52.9681 15.6204 -53.6585 16.4788 -53.6585C17.3373 -53.6585 18.0278 -52.9681 18.0278 -52.1096ZM31.2777 85.7448C32.1361 85.7448 32.8266 85.0543 32.8266 84.1958C32.8266 83.3374 32.1361 82.6469 31.2777 82.6469C30.4192 82.6469 29.7288 83.3374 29.7288 84.1958C29.7288 85.0543 30.4192 85.7448 31.2777 85.7448ZM3.80751 97.7258C3.80751 98.5842 3.11703 99.2747 2.25858 99.2747C1.40014 99.2747 0.709652 98.5842 0.709652 97.7258C0.709652 96.8674 1.40014 96.1769 2.25858 96.1769C3.11703 96.1769 3.80751 96.8674 3.80751 97.7258ZM113.931 123.031C113.931 123.887 113.237 124.58 112.382 124.58C111.526 124.58 110.833 123.887 110.833 123.031C110.833 122.176 111.526 121.482 112.382 121.482C113.237 121.482 113.931 122.176 113.931 123.031ZM50.1821 126.857C51.0375 126.857 51.731 126.163 51.731 125.308C51.731 124.452 51.0375 123.759 50.1821 123.759C49.3266 123.759 48.6331 124.452 48.6331 125.308C48.6331 126.163 49.3266 126.857 50.1821 126.857ZM141.196 66.0754C142.054 66.0754 142.744 65.3849 142.744 64.5265C142.744 63.668 142.054 62.9776 141.196 62.9776C140.337 62.9776 139.647 63.668 139.647 64.5265C139.647 65.3849 140.337 66.0754 141.196 66.0754ZM175.739 19.6262C175.739 20.4846 175.048 21.1751 174.19 21.1751C173.331 21.1751 172.641 20.4846 172.641 19.6262C172.641 18.7677 173.331 18.0772 174.19 18.0772C175.048 18.0772 175.739 18.7677 175.739 19.6262ZM-27.4511 19.645C-26.5926 19.645 -25.9021 18.9545 -25.9021 18.0961C-25.9021 17.2376 -26.5926 16.5471 -27.4511 16.5471C-28.3095 16.5471 -29 17.2376 -29 18.0961C-29 18.9545 -28.3095 19.645 -27.4511 19.645ZM23.8316 -4.95129C23.8316 -4.35412 23.3464 -3.8689 22.7492 -3.8689C22.152 -3.8689 21.6668 -4.35412 21.6668 -4.95129C21.6668 -5.54848 22.152 -6.03368 22.7492 -6.03368C23.3464 -6.03368 23.8316 -5.54848 23.8316 -4.95129ZM97.4897 -69.6145C98.0869 -69.6145 98.5721 -70.0997 98.5721 -70.6969C98.5721 -71.2941 98.0869 -71.7793 97.4897 -71.7793C96.8925 -71.7793 96.4073 -71.2941 96.4073 -70.6969C96.4073 -70.0997 96.8925 -69.6145 97.4897 -69.6145ZM108.724 100.17C108.724 100.768 108.239 101.253 107.642 101.253C107.045 101.253 106.56 100.768 106.56 100.17C106.56 99.5733 107.045 99.0881 107.642 99.0881C108.239 99.0881 108.724 99.5733 108.724 100.17ZM-15.7687 68.7627C-15.1715 68.7627 -14.6863 68.2775 -14.6863 67.6803C-14.6863 67.0832 -15.1715 66.5979 -15.7687 66.5979C-16.3659 66.5979 -16.8511 67.0832 -16.8511 67.6803C-16.8511 68.2775 -16.3659 68.7627 -15.7687 68.7627Z" fill="url(#paint0_linear_2_277)"/>
<defs>
<linearGradient id="paint0_linear_2_277" x1="73" y1="-78.5" x2="73" y2="131" gradientUnits="userSpaceOnUse">
<stop offset="0.05" stop-color="white"/>
<stop offset="0.405" stop-color="white" stop-opacity="0.38"/>
<stop offset="0.875" stop-color="white" stop-opacity="0"/>
</linearGradient>
</defs>
</svg>
