<svg width="52" height="46" viewBox="0 0 52 46" fill="none" xmlns="http://www.w3.org/2000/svg">
<g opacity="0.5">
<path d="M19.9135 40.0317H16.361C19.406 36.0921 17.9017 30.5497 16.33 25.8274L21.5207 24.3586C23.2136 29.4482 22.3999 35.2675 19.9126 40.0317H19.9135Z" fill="white"/>
<path d="M36.6644 34.4393L32.876 30.6509L42.9803 24.9108C42.9803 24.9108 40.3709 31.9938 41.6109 34.3363C41.6109 34.3363 37.981 37.333 37.7058 40.019H34.3748C34.3748 40.019 34.7256 36.5549 36.6653 34.4402L36.6644 34.4393Z" fill="white"/>
<path d="M42.7653 26.7925C43.5306 27.7702 44.1338 28.8717 44.5893 30.0261C44.8672 30.7304 45.105 31.462 45.2681 32.2019C45.3073 32.3777 45.5715 34.1608 45.6043 34.1307C45.6043 34.1307 43.773 35.8017 43.5944 38.4959L41.0669 38.4385C41.0669 38.4385 40.0374 36.9497 41.8988 34.7667L40.5576 33.5193C40.5576 33.5193 38.5814 31.5495 36.2325 31.6224C34.065 31.6898 32.0523 32.4388 29.9558 32.9882C28.201 33.4474 26.3988 33.8237 24.6194 33.6168C24.1383 33.5594 23.7119 33 23.2381 32.8488C21.3093 32.241 19.3613 31.0338 18.165 29.3783C17.8944 29.0038 17.5245 28.5756 17.7094 28.1455C17.8725 27.7665 18.5058 27.4449 18.852 27.2727C19.7585 26.8226 20.7927 26.6777 21.7812 26.5219C24.3214 26.1201 26.8261 25.4887 29.2533 24.6386C31.3453 23.9061 33.4481 22.9995 35.664 23.025C38.1632 23.0542 40.5603 24.3188 42.2405 26.1693C42.4236 26.3707 42.5985 26.5784 42.7653 26.7925Z" fill="#1D8E7C"/>
<path d="M47.8329 25.4507C47.9358 25.1611 48.0087 24.9754 48.0269 24.9235C47.9704 25.1065 47.9076 25.2823 47.8329 25.4507Z" fill="white"/>
<path d="M48.0363 24.9108C48.0363 24.921 48.0313 24.9294 48.0262 24.9345C48.0313 24.9345 48.0245 24.9243 48.0363 24.9108Z" fill="white"/>
<path d="M26.1374 40.0317H22.2479C25.2928 36.0921 24.1257 30.5497 22.554 25.8274L27.7447 24.3586C29.4375 29.4482 28.6239 35.2675 26.1365 40.0317H26.1374Z" fill="white"/>
<path d="M48.3375 21.4734C48.3994 22.4739 48.3994 24.154 47.8272 25.4541C47.2204 27.1761 45.4683 32.5208 46.5025 34.4724C46.5025 34.4724 43.011 37.3306 42.735 40.0166H39.4258C39.4258 40.0166 39.7766 36.5525 41.7136 34.4396L40.4198 33.1458C40.4198 33.1458 38.5156 31.104 36.1667 31.0931C33.9964 31.0794 31.961 31.7573 29.8444 32.2283C28.0751 32.6256 26.2583 32.9362 24.4898 32.6629C24.0115 32.5891 23.5359 32.4743 23.0712 32.3058C21.1296 31.6151 19.3374 30.6111 17.7329 29.33C17.578 29.2089 17.4395 29.0667 17.2783 28.9592C16.2378 28.2649 13.0233 25.0478 11.9136 24.6833C12.0831 24.184 12.2197 23.6738 12.3227 23.1572C12.412 22.7126 12.5869 22.1167 12.5067 21.6648C12.3637 20.8539 12.1587 20.074 12.1086 19.2385C12.0184 17.7315 12.3227 16.2536 13.0589 14.9325C20.3952 4.62773 25.4355 2.70071 35.0752 7.49229C41.0184 10.5199 48.2053 13.7225 48.3375 21.4734Z" fill="white"/>
<path d="M50.713 29.4919C50.3613 28.9808 49.8164 28.6127 49.216 28.4578C49.1312 29.0537 49.1185 29.6906 49.3718 30.2363C49.6861 30.9151 50.3512 31.4572 51.0355 31.7615C51.2842 31.0099 51.1612 30.1443 50.713 29.4919Z" fill="white"/>
<path d="M42.0118 11.4328C43.6254 12.3185 45.1697 13.3918 46.469 14.732C47.1159 15.4053 47.709 16.1133 48.2065 16.9369C48.6894 17.7551 49.0347 18.6398 49.2616 19.5446C49.7208 21.3513 49.7026 23.2492 49.4374 25.0286C49.329 25.9169 49.227 26.7953 49.3217 27.6563C49.4137 28.5118 49.6962 29.3664 50.2811 29.9915L50.0406 30.2275C49.3563 29.5587 49.0065 28.6293 48.8662 27.7164C48.7213 26.7916 48.7905 25.865 48.858 24.9703C48.9336 24.0719 48.9864 23.2009 48.9181 22.3262C48.8607 21.4543 48.7122 20.5905 48.4644 19.7623C48.2174 18.935 47.8639 18.146 47.4011 17.4362C46.9391 16.7401 46.3424 16.085 45.7173 15.4937C44.4563 14.3065 42.973 13.3708 41.4041 12.6L42.0109 11.4319L42.0118 11.4328Z" fill="white"/>
<path d="M16.8705 39.6263H19.9155C19.9155 39.6263 18.0149 38.584 16.8705 39.6263Z" fill="#1D8E7C"/>
<path d="M22.7561 39.6263H25.801C25.801 39.6263 23.9004 38.584 22.7561 39.6263Z" fill="#1D8E7C"/>
<path d="M34.6599 39.5164H37.4461C37.4461 39.5164 35.7067 38.5087 34.6599 39.5164Z" fill="#1D8E7C"/>
<path d="M39.6967 39.5164H42.4829C42.4829 39.5164 40.7436 38.5087 39.6967 39.5164Z" fill="#1D8E7C"/>
<path d="M19.5959 16.9777C19.3309 16.8511 19.1179 16.7218 18.994 16.5889C18.9257 16.8666 18.8784 17.1452 18.8347 17.4202C19.1443 17.2718 19.4038 17.1225 19.5968 16.9777H19.5959Z" fill="#1D8E7C"/>
<path d="M19.7871 17.8015C19.4238 17.674 19.1014 17.5483 18.8346 17.4208C18.7937 17.6967 18.7581 17.9708 18.7281 18.2404C19.1187 18.0974 19.4757 17.9499 19.7871 17.8006V17.8015Z" fill="#1D8E7C"/>
<path d="M19.9109 18.6413C19.4866 18.5002 19.0895 18.3699 18.7271 18.2416L18.6397 19.0447C19.0914 18.92 19.5148 18.7843 19.9109 18.6413Z" fill="#1D8E7C"/>
<path d="M19.9674 19.5001C19.5048 19.3353 19.0604 19.1832 18.6398 19.0448C18.6051 19.307 18.5851 19.5702 18.546 19.8252C19.034 19.735 19.5167 19.6239 19.9674 19.501V19.5001Z" fill="#1D8E7C"/>
<path d="M19.9372 20.3768C19.4747 20.1729 19.0002 19.9907 18.5458 19.825C18.5185 20.0836 18.4703 20.3313 18.4338 20.5826C18.9365 20.5362 19.4401 20.4679 19.9363 20.3768H19.9372Z" fill="#1D8E7C"/>
<path d="M19.8014 21.2622C19.3507 21.0109 18.8945 20.785 18.4346 20.5838L18.36 20.9517C18.3399 21.0755 18.3071 21.1948 18.2753 21.315C18.7779 21.3241 19.2942 21.3068 19.8014 21.2631V21.2622Z" fill="#1D8E7C"/>
<path d="M19.5491 22.1335C19.1521 21.8394 18.7123 21.5625 18.2752 21.3149C18.2415 21.4332 18.2215 21.558 18.1796 21.6736L18.0667 22.0269C18.5393 22.0852 19.0355 22.1226 19.5491 22.1344V22.1335Z" fill="#1D8E7C"/>
<path d="M19.1702 22.9614C18.8278 22.6309 18.4672 22.3213 18.0674 22.0262C18.031 22.1446 17.9782 22.2566 17.9354 22.3732C17.8917 22.4897 17.8489 22.6072 17.7915 22.7183C18.2323 22.8184 18.6885 22.8995 19.1711 22.9614H19.1702Z" fill="#1D8E7C"/>
<path d="M18.6828 23.7231C18.4187 23.3798 18.1182 23.042 17.7895 22.7178L17.632 23.0611C17.5746 23.174 17.51 23.2842 17.4508 23.3971C17.8259 23.5064 18.2412 23.6202 18.6828 23.7222V23.7231Z" fill="#1D8E7C"/>
<path d="M18.0941 24.3931C17.9256 24.0753 17.7062 23.7356 17.4503 23.3996C17.3902 23.5134 17.3347 23.63 17.2609 23.7374L17.0578 24.0743L18.0941 24.394V24.3931Z" fill="#1D8E7C"/>
<path d="M17.4312 24.966C17.3493 24.6919 17.2327 24.3969 17.0579 24.0736C16.996 24.192 16.9122 24.294 16.8403 24.4078L16.619 24.7483C16.8457 24.7902 17.118 24.8676 17.4312 24.9669V24.966Z" fill="#1D8E7C"/>
<path d="M16.707 25.4424C16.7234 25.2512 16.6952 25.019 16.6187 24.7485C16.4621 24.9707 16.3027 25.1956 16.1507 25.4369C16.2854 25.3859 16.473 25.3932 16.707 25.4415V25.4424Z" fill="#1D8E7C"/>
<path d="M15.4434 23.3729C15.3788 23.3729 15.3269 23.3201 15.3269 23.2564C15.3269 23.1926 15.3797 23.1398 15.4434 23.1398C15.5072 23.1398 15.56 23.1926 15.56 23.2564C15.56 23.3201 15.5081 23.3729 15.4434 23.3729Z" fill="#1D8E7C"/>
<path d="M15.9365 22.6648C15.8026 22.6648 15.6942 22.5564 15.6942 22.4225C15.6942 22.2887 15.8026 22.1803 15.9365 22.1803C16.0703 22.1803 16.1787 22.2887 16.1787 22.4225C16.1787 22.5564 16.0703 22.6648 15.9365 22.6648Z" fill="#1D8E7C"/>
<path d="M16.3527 21.8555C16.1824 21.8555 16.044 21.717 16.044 21.5468C16.044 21.3765 16.1824 21.2381 16.3527 21.2381C16.523 21.2381 16.6614 21.3765 16.6614 21.5468C16.6614 21.717 16.523 21.8555 16.3527 21.8555Z" fill="#1D8E7C"/>
<path d="M16.6695 20.9641C16.4855 20.9641 16.3353 20.8147 16.3353 20.6299C16.3353 20.445 16.4846 20.2957 16.6695 20.2957C16.8543 20.2957 17.0037 20.445 17.0037 20.6299C17.0037 20.8147 16.8543 20.9641 16.6695 20.9641Z" fill="#1D8E7C"/>
<path d="M16.8738 20.0048C17.0513 20.0048 17.1953 19.8609 17.1953 19.6834C17.1953 19.5058 17.0513 19.3619 16.8738 19.3619C16.6963 19.3619 16.5524 19.5058 16.5524 19.6834C16.5524 19.8609 16.6963 20.0048 16.8738 20.0048Z" fill="#1D8E7C"/>
<path d="M16.9696 18.9755C16.8275 18.9755 16.7128 18.8607 16.7128 18.7187C16.7128 18.5766 16.8275 18.4619 16.9696 18.4619C17.1116 18.4619 17.2263 18.5766 17.2263 18.7187C17.2263 18.8607 17.1116 18.9755 16.9696 18.9755Z" fill="#1D8E7C"/>
<path d="M16.9696 17.8643C16.905 17.8643 16.8531 17.8115 16.8531 17.7478C16.8531 17.684 16.9059 17.6312 16.9696 17.6312C17.0334 17.6312 17.0862 17.684 17.0862 17.7478C17.0862 17.8115 17.0334 17.8643 16.9696 17.8643Z" fill="#1D8E7C"/>
<path d="M44.0185 30.6053C43.982 30.5871 43.8063 30.4468 43.616 30.3412C43.4284 30.2328 43.2399 30.1618 43.2399 30.1618C43.2399 30.1618 43.4366 30.2073 43.6533 30.2201C43.8673 30.2365 44.095 30.2174 44.1341 30.2219C44.2133 30.2301 44.2652 30.3394 44.2297 30.4605C44.2115 30.5197 44.1751 30.567 44.1368 30.5925C44.0959 30.618 44.054 30.6235 44.0176 30.6062L44.0185 30.6053Z" fill="#1D8E7C"/>
<path d="M43.6605 31.054C43.6369 31.023 43.5358 30.8172 43.4119 30.6406C43.2927 30.4639 43.1506 30.3146 43.1506 30.3146C43.1506 30.3146 43.1898 30.3465 43.2535 30.3911C43.3172 30.4366 43.4047 30.494 43.4975 30.5468C43.6824 30.6542 43.8982 30.738 43.931 30.759C43.9975 30.8008 43.9984 30.922 43.9128 31.0139C43.8281 31.1068 43.7079 31.1177 43.6605 31.054Z" fill="#1D8E7C"/>
<path d="M43.1424 31.3037C43.1342 31.2646 43.1333 31.0351 43.0987 30.8248C43.0668 30.6099 43.004 30.4168 43.004 30.4168C43.004 30.4168 43.0259 30.4633 43.0632 30.5316C43.1005 30.5989 43.1542 30.6882 43.2162 30.7765C43.3382 30.9559 43.4939 31.1207 43.5148 31.1544C43.5576 31.2218 43.5048 31.3302 43.3883 31.3775C43.2708 31.4249 43.1579 31.3802 43.1424 31.3037Z" fill="#1D8E7C"/>
<path d="M42.5684 31.3039C42.5775 31.2665 42.6759 31.0589 42.736 30.8522C42.7997 30.6482 42.827 30.4443 42.827 30.4443C42.827 30.4443 42.827 30.6482 42.8625 30.8613C42.8944 31.0726 42.9627 31.292 42.9673 31.3312C42.9764 31.4086 42.8826 31.486 42.7569 31.476C42.6322 31.4669 42.5475 31.3813 42.5675 31.3039H42.5684Z" fill="#1D8E7C"/>
<path d="M42.0501 31.0545C42.0755 31.0236 42.254 30.8797 42.397 30.7213C42.5454 30.5628 42.6574 30.3934 42.6574 30.3934C42.6574 30.3934 42.6347 30.4399 42.6046 30.5109C42.5746 30.5819 42.539 30.6794 42.5081 30.7832C42.4434 30.9899 42.4116 31.2148 42.3988 31.2521C42.3724 31.3277 42.2549 31.3541 42.1457 31.2922C42.0355 31.2303 42 31.1137 42.051 31.0545H42.0501Z" fill="#1D8E7C"/>
<path d="M41.6919 30.6055C41.7283 30.5882 41.9486 30.5381 42.149 30.4553C42.3502 30.377 42.5241 30.2732 42.5241 30.2732C42.5241 30.2732 42.3657 30.3988 42.2209 30.5609C42.0752 30.7175 41.9477 30.9078 41.9195 30.9361C41.864 30.9925 41.7465 30.9661 41.6746 30.8623C41.64 30.8113 41.6254 30.754 41.629 30.7075C41.6345 30.6602 41.6563 30.6237 41.6928 30.6064L41.6919 30.6055Z" fill="#1D8E7C"/>
<path d="M41.5634 30.0449C41.6025 30.0449 41.8284 30.095 42.0414 30.1087C42.148 30.1168 42.2527 30.1178 42.331 30.115C42.4093 30.1123 42.4594 30.1077 42.4594 30.1077C42.4594 30.1077 42.4102 30.1187 42.3347 30.1405C42.2591 30.1624 42.1598 30.1942 42.0606 30.2343C41.8612 30.3126 41.6617 30.4292 41.6253 30.441C41.5506 30.4674 41.4559 30.3918 41.4377 30.2671C41.4168 30.1423 41.486 30.0431 41.5634 30.0449Z" fill="#1D8E7C"/>
<path d="M41.6918 29.485C41.7282 29.5032 41.9039 29.6434 42.0942 29.7491C42.2818 29.8574 42.4703 29.9284 42.4703 29.9284C42.4703 29.9284 42.2736 29.8829 42.0569 29.8702C41.8429 29.8538 41.6153 29.8729 41.5761 29.8683C41.4969 29.8601 41.445 29.7509 41.4805 29.6298C41.4987 29.5706 41.5351 29.5232 41.5734 29.4977C41.6144 29.4722 41.6562 29.4668 41.6927 29.4841L41.6918 29.485Z" fill="#1D8E7C"/>
<path d="M42.0496 29.0353C42.0732 29.0662 42.1743 29.272 42.2982 29.4487C42.4175 29.6254 42.5595 29.7747 42.5595 29.7747C42.5595 29.7747 42.5204 29.7428 42.4566 29.6982C42.3929 29.6527 42.3055 29.5953 42.2126 29.5425C42.0277 29.435 41.8119 29.3513 41.7791 29.3303C41.7126 29.2884 41.7117 29.1673 41.7973 29.0753C41.882 28.9825 42.0022 28.9715 42.0496 29.0353Z" fill="#1D8E7C"/>
<path d="M42.5683 28.7859C42.5765 28.825 42.5774 29.0545 42.612 29.2648C42.6439 29.4797 42.7067 29.6728 42.7067 29.6728C42.7067 29.6728 42.6848 29.6263 42.6475 29.5581C42.6102 29.4907 42.5564 29.4014 42.4945 29.3131C42.3725 29.1337 42.2168 28.9689 42.1958 28.9352C42.153 28.8678 42.2059 28.7595 42.3224 28.7121C42.4399 28.6647 42.5528 28.7094 42.5683 28.7859Z" fill="#1D8E7C"/>
<path d="M43.1422 28.7856C43.1331 28.823 43.0347 29.0306 42.9746 29.2373C42.9109 29.4413 42.8836 29.6452 42.8836 29.6452C42.8836 29.6452 42.8835 29.4413 42.848 29.2282C42.8162 29.0169 42.7479 28.7975 42.7433 28.7583C42.7342 28.6809 42.828 28.6035 42.9537 28.6135C43.0784 28.6226 43.1631 28.7082 43.1431 28.7856H43.1422Z" fill="#1D8E7C"/>
<path d="M43.6604 29.0353C43.6349 29.0662 43.4565 29.2101 43.3135 29.3685C43.1651 29.527 43.0531 29.6964 43.0531 29.6964C43.0531 29.6964 43.0758 29.6499 43.1059 29.5789C43.1359 29.5079 43.1714 29.4104 43.2024 29.3066C43.2671 29.0999 43.2989 28.875 43.3117 28.8377C43.3381 28.7621 43.4556 28.7357 43.5648 28.7976C43.675 28.8595 43.7105 28.9761 43.6595 29.0353H43.6604Z" fill="#1D8E7C"/>
<path d="M44.0184 29.4844C43.9819 29.5017 43.7616 29.5518 43.5612 29.6346C43.36 29.7129 43.1861 29.8167 43.1861 29.8167C43.1861 29.8167 43.3445 29.6911 43.4893 29.529C43.635 29.3724 43.7625 29.182 43.7907 29.1538C43.8463 29.0974 43.9637 29.1238 44.0357 29.2276C44.0703 29.2786 44.0848 29.3359 44.0812 29.3824C44.0757 29.4297 44.0539 29.4662 44.0174 29.4835L44.0184 29.4844Z" fill="#1D8E7C"/>
<path d="M44.1469 30.0449C44.1077 30.0449 43.8819 29.9949 43.6688 29.9812C43.5623 29.973 43.4576 29.9721 43.3792 29.9748C43.3009 29.9776 43.2509 29.9821 43.2509 29.9821C43.2509 29.9821 43.3 29.9712 43.3756 29.9493C43.4512 29.9275 43.5504 29.8956 43.6497 29.8555C43.8491 29.7772 44.0485 29.6607 44.085 29.6488C44.1596 29.6224 44.2543 29.698 44.2726 29.8228C44.2935 29.9475 44.2243 30.0468 44.1469 30.0449Z" fill="#1D8E7C"/>
<path d="M42.8628 32.0734C42.7954 32.0734 42.7416 32.0197 42.7416 31.9559C42.7416 31.8885 42.7954 31.8347 42.8592 31.8347C42.9266 31.8347 42.9803 31.8885 42.9803 31.9559C42.9803 32.0197 42.9266 32.0734 42.8628 32.0734ZM42.236 31.9787C42.1722 31.9586 42.1385 31.8876 42.1585 31.8274C42.1786 31.7637 42.246 31.7299 42.307 31.75C42.3708 31.77 42.4045 31.8375 42.3881 31.9012C42.3717 31.9523 42.3243 31.9823 42.2733 31.9823C42.2596 31.9823 42.246 31.9823 42.236 31.9787ZM43.3348 31.8985C43.3147 31.8347 43.3484 31.7673 43.4122 31.7463C43.476 31.7263 43.5434 31.76 43.5644 31.8238C43.5844 31.8848 43.5507 31.9523 43.4869 31.976V31.9723C43.4733 31.9787 43.4632 31.9787 43.4496 31.9787C43.3995 31.9787 43.3521 31.9486 43.3348 31.8976V31.8985ZM41.6701 31.6926C41.6164 31.6525 41.6027 31.5778 41.6428 31.524C41.6802 31.4703 41.754 31.4603 41.8114 31.4967C41.8615 31.5341 41.8752 31.6115 41.8387 31.6653C41.815 31.6953 41.7777 31.7126 41.7412 31.7126C41.7139 31.7126 41.6911 31.7063 41.6701 31.6926ZM43.8842 31.6589C43.8441 31.6051 43.8568 31.5304 43.9079 31.4903C43.9616 31.4502 44.0391 31.463 44.0764 31.5177C44.1165 31.5714 44.1038 31.6461 44.0527 31.6862C44.029 31.6999 44.0053 31.7063 43.9817 31.7063C43.9443 31.7063 43.9079 31.6889 43.8842 31.6589ZM41.2182 31.2443C41.1809 31.1906 41.1909 31.1159 41.2447 31.0758C41.2984 31.0384 41.3731 31.0484 41.4132 31.1031C41.4506 31.1569 41.4405 31.2316 41.3868 31.2717C41.3667 31.2881 41.3394 31.2953 41.3157 31.2953C41.2784 31.2953 41.2419 31.2789 41.2182 31.2452V31.2443ZM44.3324 31.2644C44.2787 31.2243 44.265 31.1496 44.3051 31.0958C44.3425 31.0421 44.4163 31.0284 44.47 31.0685C44.5238 31.1058 44.5374 31.1833 44.4974 31.237C44.4737 31.2671 44.4363 31.2844 44.3999 31.2844C44.3762 31.2844 44.3525 31.278 44.3324 31.2644ZM40.9285 30.6822C40.9085 30.6211 40.9422 30.551 41.0023 30.53C41.0661 30.51 41.1335 30.5437 41.1572 30.6074C41.1772 30.6685 41.1435 30.7386 41.0797 30.7596C41.0661 30.7632 41.0561 30.766 41.0424 30.766C40.9914 30.766 40.9449 30.7323 40.9276 30.6822H40.9285ZM44.6358 30.7487C44.5721 30.7286 44.5384 30.6612 44.5584 30.5974C44.5784 30.5336 44.6459 30.4999 44.7106 30.52C44.7716 30.54 44.808 30.6074 44.788 30.6712C44.7716 30.7213 44.7242 30.755 44.6732 30.755C44.6595 30.755 44.6459 30.7514 44.6358 30.7487ZM40.8274 30.058C40.8274 29.9906 40.8775 29.9369 40.9449 29.9369C41.0123 29.9369 41.0661 29.987 41.0661 30.0544C41.0661 30.1218 41.0123 30.1756 40.9449 30.1756C40.8775 30.1756 40.8274 30.1218 40.8274 30.0571V30.058ZM44.6459 30.0444V30.038V30.0243C44.6422 29.9569 44.696 29.9032 44.7643 29.9032C44.8317 29.9032 44.8855 29.9533 44.8855 30.0216V30.0353V30.0453C44.8855 30.1127 44.8317 30.1665 44.7643 30.1665C44.7005 30.1665 44.6459 30.1127 44.6459 30.0453V30.0444ZM40.9996 29.5833C40.9358 29.5597 40.9021 29.4922 40.9221 29.4321C40.9422 29.3683 41.0096 29.331 41.0743 29.3547C41.1353 29.3747 41.1718 29.4385 41.1517 29.5032C41.1353 29.5569 41.0879 29.587 41.0369 29.587C41.0233 29.587 41.0096 29.587 40.9996 29.5833ZM44.5511 29.4749C44.5311 29.4111 44.5648 29.3437 44.6249 29.32C44.6887 29.3 44.7561 29.3337 44.7771 29.3975H44.7807C44.8008 29.4576 44.767 29.5287 44.7033 29.5487C44.6896 29.5524 44.6796 29.5551 44.6659 29.5551C44.6149 29.5551 44.5684 29.5214 44.5511 29.474V29.4749ZM41.2319 29.0303C41.1781 28.9929 41.1681 28.9191 41.2046 28.8654V28.8617C41.2447 28.8116 41.3194 28.798 41.3731 28.8353C41.4269 28.8754 41.4369 28.9501 41.4005 29.0039C41.3768 29.0376 41.3394 29.054 41.303 29.054C41.2793 29.054 41.2556 29.0476 41.2319 29.0303ZM44.2924 28.9802C44.2523 28.9264 44.2659 28.849 44.316 28.8116C44.3698 28.7715 44.4445 28.7816 44.4846 28.8353C44.5247 28.8891 44.5147 28.9638 44.4609 29.0039C44.4409 29.0203 44.4135 29.0276 44.3898 29.0276C44.3525 29.0276 44.316 29.0112 44.2924 28.9802ZM41.6264 28.582C41.5863 28.5283 41.5963 28.4508 41.6501 28.4135C41.7039 28.3734 41.7786 28.3834 41.8187 28.4372C41.8588 28.4909 41.846 28.5656 41.795 28.6057C41.7713 28.6221 41.7476 28.6294 41.7212 28.6294C41.6838 28.6294 41.6501 28.613 41.6273 28.582H41.6264ZM43.8942 28.5893H43.8905C43.8404 28.5492 43.8268 28.4745 43.8632 28.4208C43.9033 28.367 43.978 28.3533 44.0318 28.3907V28.3943C44.0855 28.4317 44.0992 28.5055 44.0591 28.5592C44.0354 28.593 43.999 28.6094 43.9616 28.6094C43.9379 28.6094 43.9142 28.603 43.8942 28.5893ZM42.1385 28.2722C42.1148 28.2085 42.1485 28.141 42.2123 28.121C42.276 28.101 42.3435 28.1347 42.3644 28.1948C42.3845 28.2586 42.3508 28.326 42.2906 28.3497C42.277 28.3533 42.2633 28.3533 42.2505 28.3533C42.1995 28.3533 42.153 28.3233 42.1394 28.2722H42.1385ZM43.3922 28.3397V28.336C43.3284 28.3187 43.2947 28.2522 43.3147 28.1875C43.3348 28.1237 43.4022 28.09 43.4669 28.1101V28.1064C43.527 28.1265 43.5644 28.1939 43.5443 28.2577C43.527 28.3114 43.4805 28.3415 43.4295 28.3415C43.4159 28.3415 43.4058 28.3415 43.3922 28.3378V28.3397ZM42.7179 28.1374C42.7179 28.07 42.7717 28.0162 42.8391 28.0162C42.9029 28.0162 42.9566 28.07 42.9566 28.1338C42.9603 28.2012 42.9065 28.2549 42.8391 28.2549C42.7717 28.2549 42.7179 28.2048 42.7179 28.1365V28.1374Z" fill="#1D8E7C"/>
<path d="M40.2925 20.7893C40.3873 20.9314 40.4948 21.0717 40.6151 21.2193C40.7353 21.3669 40.8693 21.5218 41.0078 21.6831C40.8483 21.5783 40.708 21.4544 40.5823 21.3041C40.4538 21.1501 40.3445 20.9788 40.2488 20.7938C40.4301 21.1628 40.6324 21.5574 40.7918 21.9756C40.5413 21.6284 40.359 21.212 40.2051 20.8011C40.3454 21.2148 40.4593 21.6539 40.4702 22.0813C40.3436 21.6503 40.2588 21.2193 40.1595 20.8175C40.2415 21.2202 40.2479 21.6302 40.1486 21.9929C40.1504 21.5646 40.1458 21.182 40.103 20.8303C40.124 21.182 40.0511 21.4945 39.9181 21.7432C39.9846 21.4289 40.0201 21.172 40.0292 20.9323C39.9727 21.0371 39.9035 21.192 39.8306 21.376C39.7586 21.5674 39.6839 21.7797 39.6639 22.0248C39.6547 22.1459 39.6602 22.2671 39.683 22.3883C39.7067 22.5058 39.7468 22.6215 39.8042 22.7354C39.8607 22.8502 39.9345 22.9596 40.0201 23.0552C40.1058 23.1509 40.2042 23.2511 40.3053 23.3249C40.4365 23.427 40.6123 23.5554 40.7855 23.6684C40.872 23.7276 40.9577 23.7878 41.0351 23.8479C41.1116 23.9071 41.1781 23.9645 41.2255 24.0256C41.231 23.868 41.3021 23.6766 41.3713 23.4789C41.4396 23.2748 41.5153 23.0853 41.5563 22.9158C41.59 22.7883 41.62 22.6635 41.6282 22.5304C41.6373 22.3974 41.6328 22.268 41.6137 22.1459C41.5717 21.8954 41.4624 21.6694 41.3057 21.4881C41.1599 21.3186 40.995 21.1956 40.8483 21.0991C40.7763 21.0526 40.7044 21.008 40.6369 20.9679C40.5695 20.9269 40.5139 20.9004 40.4574 20.8676C40.5312 20.9396 40.6069 21.0025 40.698 21.0763C40.7873 21.1464 40.893 21.2275 41.0005 21.2977C40.8766 21.2649 40.749 21.2048 40.6296 21.1218C40.5057 21.0307 40.3982 20.9296 40.2934 20.7893H40.2925Z" fill="#1D8E7C"/>
<path d="M38.9468 24.7671C39.1791 24.4537 39.3085 24.1639 39.3613 23.8296C39.4169 23.4934 39.3859 23.1125 39.3641 22.5923C39.0433 23.2355 38.6926 24.0127 38.9468 24.7671Z" fill="#1D8E7C"/>
<path d="M39.4243 20.7277C39.2785 21.0229 39.1464 21.3938 39.0079 21.791C39.0161 21.6079 39.0589 21.4138 39.1236 21.2343C39.1901 21.0503 39.2876 20.8644 39.3997 20.6886C39.1701 21.0321 38.9286 21.4038 38.6462 21.75C38.8248 21.3555 39.0872 20.9993 39.3687 20.6558C39.0781 20.9856 38.7628 21.2935 38.3911 21.5259C38.6999 21.2006 39.0325 20.91 39.3341 20.6211C39.1746 20.7614 39.0125 20.8799 38.8421 20.9774C38.6699 21.0758 38.4876 21.1541 38.31 21.2006C38.4931 21.0949 38.6671 20.9938 38.8321 20.8908C38.9988 20.786 39.1537 20.6822 39.2931 20.5792C39.1473 20.674 38.9924 20.7505 38.8475 20.797C38.7737 20.8216 38.6981 20.8407 38.6234 20.8553C38.5523 20.8671 38.4831 20.8735 38.4129 20.8762C38.5624 20.828 38.6972 20.7788 38.822 20.7277C38.9496 20.674 39.0644 20.6202 39.1673 20.5656C39.109 20.5665 39.0325 20.5756 38.956 20.5829C38.8776 20.5911 38.7783 20.6066 38.6845 20.6202C38.4913 20.6512 38.2599 20.6958 38.0394 20.8006C37.8207 20.9036 37.6348 21.063 37.4918 21.2781C37.3597 21.4849 37.2667 21.75 37.2367 22.0051C37.2075 22.1755 37.1957 22.3823 37.1784 22.5928C37.1565 22.806 37.1492 23.0046 37.0891 23.1504C37.2276 23.0766 37.4253 23.0456 37.6348 23.0028C37.7342 22.9846 37.838 22.9655 37.9392 22.9472C38.0366 22.9281 38.1323 22.9035 38.2134 22.8825C38.464 22.8251 38.7173 22.7049 38.9095 22.5491C39.1072 22.3842 39.2448 22.1828 39.3241 21.955C39.3979 21.7436 39.4215 21.5386 39.4343 21.361C39.4425 21.1888 39.4461 21.0266 39.4389 20.91C39.396 21.0913 39.3541 21.3318 39.3377 21.5915C39.3022 21.4749 39.2949 21.3245 39.3049 21.1842C39.3213 21.033 39.3587 20.8826 39.4252 20.7277H39.4243Z" fill="#1D8E7C"/>
<path d="M35.3059 21.5451C35.694 21.5906 36.0047 21.5605 36.3209 21.4394C36.6379 21.3209 36.9605 21.1004 37.3978 20.8234C37.0306 20.8462 36.6489 20.8772 36.279 20.9774C35.9127 21.0777 35.5583 21.2499 35.305 21.546L35.3059 21.5451Z" fill="#1D8E7C"/>
<path d="M39.0434 19.9408C38.8794 19.9526 38.698 19.9754 38.5067 20.0064C38.3208 20.0374 38.1222 20.0756 37.9145 20.1148C37.9965 20.072 38.0821 20.0356 38.1705 20.0055C38.2634 19.9754 38.3582 19.9517 38.4548 19.9344C38.6479 19.8998 38.8484 19.8889 39.0625 19.8989C38.647 19.8725 38.2042 19.8497 37.7641 19.7795C38.1997 19.7367 38.6416 19.785 39.0762 19.8561C38.6397 19.7695 38.2197 19.6529 37.8352 19.4479C38.2707 19.5527 38.6898 19.6948 39.088 19.8096C38.6908 19.6784 38.34 19.4816 38.0721 19.2146C38.4311 19.4251 38.7882 19.6201 39.1017 19.7531C38.7928 19.5991 38.5468 19.3768 38.4065 19.1417C38.6324 19.3495 38.8584 19.518 39.0506 19.6392C39.0251 19.5918 38.9741 19.529 38.9304 19.4652C38.8839 19.4005 38.8265 19.3267 38.7618 19.2474C38.6406 19.0962 38.4876 18.9194 38.2871 18.78C38.0903 18.6434 37.8516 18.5568 37.6001 18.544C37.4762 18.5377 37.3459 18.5477 37.2147 18.5705C37.0872 18.596 36.9633 18.6361 36.8403 18.6844C36.6799 18.7445 36.4968 18.8393 36.3 18.9285C36.1159 19.0206 35.9282 19.1099 35.7733 19.1326C35.9009 19.2146 36.043 19.3732 36.1761 19.5317C36.3045 19.6911 36.4567 19.8524 36.5688 19.9718C36.7537 20.1595 36.9687 20.3189 37.2102 20.4073C37.4425 20.4984 37.6949 20.5157 37.9327 20.4702C38.1541 20.4282 38.3381 20.3481 38.4967 20.2706C38.6616 20.1904 38.7855 20.113 38.8948 20.0465C38.7035 20.1021 38.493 20.185 38.2498 20.3016C38.3436 20.2105 38.4511 20.1303 38.5896 20.0684C38.719 20.0064 38.8794 19.9627 39.0434 19.9417V19.9408Z" fill="#1D8E7C"/>
<path d="M36.2753 16.7862C36.4275 17.1406 36.6115 17.3967 36.8757 17.6117C37.0069 17.7192 37.1591 17.8158 37.3349 17.9133C37.5126 18.0126 37.7176 18.1155 37.9472 18.2367C37.5472 17.6326 37.0488 16.9402 36.2753 16.7853V16.7862Z" fill="#1D8E7C"/>
<path d="M39.5325 19.2197C39.4378 19.0776 39.3303 18.9372 39.21 18.7896C39.0897 18.642 38.9558 18.4871 38.8173 18.3259C38.9768 18.4307 39.1171 18.5546 39.2428 18.7049C39.3713 18.8589 39.4806 19.0302 39.5763 19.2151C39.395 18.8461 39.1927 18.4516 39.0333 18.0334C39.2838 18.3805 39.466 18.7969 39.62 19.2078C39.4797 18.7942 39.3658 18.355 39.3549 17.9277C39.4815 18.3587 39.5663 18.7896 39.6656 19.1914C39.5836 18.7887 39.5772 18.3787 39.6765 18.0161C39.6747 18.4443 39.6792 18.827 39.7221 19.1787C39.7011 18.827 39.774 18.5145 39.907 18.2657C39.8405 18.5801 39.805 18.837 39.7959 19.0766C39.8523 18.9719 39.9216 18.817 39.9945 18.6329C40.0665 18.4416 40.1412 18.2293 40.1612 17.9842C40.1703 17.863 40.1649 17.7419 40.1421 17.6207C40.1184 17.5031 40.0783 17.3874 40.0209 17.2735C39.9644 17.1587 39.8906 17.0494 39.805 16.9537C39.7193 16.8581 39.6209 16.7578 39.5198 16.684C39.3886 16.582 39.2127 16.4535 39.0396 16.3405C38.9531 16.2813 38.8674 16.2212 38.79 16.1611C38.7134 16.1018 38.6469 16.0444 38.5996 15.9834C38.5941 16.141 38.523 16.3323 38.4538 16.5301C38.3854 16.7342 38.3098 16.9237 38.2688 17.0931C38.2351 17.2207 38.205 17.3455 38.1968 17.4785C38.1877 17.6116 38.1923 17.7409 38.2114 17.863C38.2533 18.1136 38.3627 18.3395 38.5194 18.5209C38.6652 18.6903 38.8301 18.8133 38.9768 18.9099C39.0487 18.9564 39.1207 19.001 39.1881 19.0411C39.2556 19.0821 39.3111 19.1085 39.3676 19.1413C39.2938 19.0694 39.2182 19.0065 39.1271 18.9327C39.0378 18.8625 38.9321 18.7814 38.8246 18.7113C38.9485 18.7441 39.0761 18.8042 39.1954 18.8871C39.3193 18.9782 39.4269 19.0794 39.5316 19.2197H39.5325Z" fill="#1D8E7C"/>
<path d="M40.8783 15.2425C40.646 15.5559 40.5166 15.8456 40.4637 16.18C40.4082 16.5162 40.4391 16.8971 40.461 17.4173C40.7817 16.7741 41.1325 15.9969 40.8783 15.2425Z" fill="#1D8E7C"/>
<path d="M40.4009 19.2812C40.5467 18.986 40.6788 18.6152 40.8173 18.218C40.8091 18.4011 40.7662 18.5952 40.7016 18.7747C40.635 18.9587 40.5376 19.1446 40.4255 19.3204C40.6551 18.9769 40.8965 18.6052 41.179 18.259C41.0004 18.6535 40.738 19.0097 40.4565 19.3532C40.7471 19.0234 41.0624 18.7154 41.4341 18.4831C41.1252 18.8084 40.7927 19.099 40.4911 19.3878C40.6505 19.2475 40.8127 19.1291 40.9831 19.0316C41.1553 18.9332 41.3375 18.8548 41.5152 18.8084C41.3321 18.9141 41.158 19.0152 40.9931 19.1181C40.8264 19.2229 40.6715 19.3268 40.5321 19.4297C40.6779 19.335 40.8328 19.2585 40.9776 19.212C41.0514 19.1874 41.127 19.1683 41.2018 19.1537C41.2728 19.1418 41.3421 19.1355 41.4122 19.1327C41.2628 19.181 41.128 19.2302 41.0031 19.2812C40.8756 19.335 40.7608 19.3887 40.6578 19.4434C40.7161 19.4425 40.7927 19.4334 40.8692 19.4261C40.9476 19.4179 41.0469 19.4024 41.1407 19.3887C41.3339 19.3578 41.5653 19.3131 41.7858 19.2083C42.0045 19.1054 42.1903 18.9459 42.3334 18.7309C42.4655 18.5241 42.5584 18.259 42.5885 18.0038C42.6176 17.8335 42.6295 17.6266 42.6468 17.4162C42.6687 17.203 42.676 17.0053 42.7361 16.8586C42.5976 16.9324 42.3999 16.9633 42.1903 17.0062C42.091 17.0244 41.9871 17.0435 41.886 17.0617C41.7885 17.0809 41.6929 17.1055 41.6118 17.1264C41.3612 17.1838 41.1079 17.3041 40.9157 17.4599C40.718 17.6248 40.5804 17.8262 40.5011 18.054C40.4273 18.2653 40.4027 18.4703 40.3909 18.648C40.3827 18.8202 40.379 18.9824 40.3863 19.099C40.4291 18.9177 40.471 18.6772 40.4874 18.4175C40.5239 18.5341 40.5303 18.6845 40.5202 18.8248C40.5038 18.976 40.4665 19.1263 40.4 19.2812H40.4009Z" fill="#1D8E7C"/>
<path d="M44.5192 18.4638C44.1311 18.4182 43.8204 18.4483 43.5043 18.5695C43.1872 18.6879 42.8646 18.9084 42.4273 19.1854C42.7945 19.1626 43.1762 19.1316 43.5453 19.0314C43.9115 18.9312 44.2659 18.759 44.5192 18.4629V18.4638Z" fill="#1D8E7C"/>
<path d="M40.7817 20.0683C40.9457 20.0565 41.127 20.0337 41.3184 20.0027C41.5042 19.9717 41.7028 19.9335 41.9106 19.8943C41.8286 19.9371 41.7429 19.9736 41.6546 20.0036C41.5616 20.0337 41.4669 20.0574 41.3703 20.0747C41.1771 20.1093 40.9767 20.1203 40.7626 20.1102C41.178 20.1367 41.6208 20.1594 42.0609 20.2296C41.6254 20.2724 41.1835 20.2241 40.7489 20.1531C41.1853 20.2396 41.6054 20.3562 41.9898 20.5612C41.5543 20.4565 41.1352 20.3143 40.7371 20.1995C41.1343 20.3307 41.4851 20.5275 41.753 20.7945C41.394 20.584 41.0368 20.389 40.7234 20.256C41.0323 20.41 41.2783 20.6323 41.4186 20.8674C41.1926 20.6596 40.9667 20.4911 40.7744 20.3699C40.7999 20.4173 40.8509 20.4801 40.8947 20.5439C40.9402 20.6086 40.9985 20.6824 41.0632 20.7617C41.1835 20.9129 41.3375 21.0897 41.5379 21.2291C41.7347 21.3658 41.9734 21.4523 42.2249 21.4651C42.3488 21.4714 42.4791 21.4614 42.6103 21.4386C42.7379 21.4131 42.8618 21.373 42.9848 21.3248C43.1451 21.2646 43.3283 21.1699 43.5251 21.0806C43.7091 20.9886 43.8968 20.8993 44.0517 20.8765C43.9242 20.7945 43.782 20.6359 43.6481 20.4774C43.5196 20.318 43.3675 20.1567 43.2554 20.0373C43.0704 19.8496 42.8554 19.6902 42.6149 19.6018C42.3825 19.5107 42.1302 19.4934 41.8924 19.539C41.671 19.5809 41.4869 19.661 41.3284 19.7385C41.1635 19.8187 41.0395 19.8961 40.9302 19.9626C41.1216 19.907 41.332 19.8241 41.5753 19.7075C41.4814 19.7986 41.3739 19.8788 41.2354 19.9408C41.1061 20.0027 40.9457 20.0465 40.7817 20.0674V20.0683Z" fill="#1D8E7C"/>
<path d="M43.5497 23.2224C43.3976 22.8679 43.2135 22.6119 42.9493 22.3969C42.8181 22.2894 42.666 22.1928 42.4901 22.0953C42.3124 21.996 42.1074 21.893 41.8778 21.7719C42.2778 22.3759 42.7762 23.0675 43.5497 23.2233V23.2224Z" fill="#1D8E7C"/>
<path d="M40.1893 20.0046C40.1893 20.1576 40.0654 20.2814 39.9124 20.2814C39.7595 20.2814 39.6356 20.1576 39.6356 20.0046C39.6356 19.8516 39.7595 19.7278 39.9124 19.7278C40.0654 19.7278 40.1893 19.8516 40.1893 20.0046Z" fill="#1D8E7C"/>
<path d="M39.7084 26.4455C39.6246 26.4419 39.5599 26.3745 39.5599 26.2907C39.5635 26.2068 39.6337 26.1394 39.7184 26.1421C39.8022 26.1458 39.8706 26.2132 39.8669 26.3007C39.8633 26.3818 39.7959 26.4492 39.7157 26.4492C39.7157 26.4492 39.712 26.4492 39.7093 26.4455H39.7084ZM40.4774 26.2733C40.4674 26.1895 40.5275 26.1148 40.6122 26.1048C40.696 26.0948 40.7708 26.1549 40.7808 26.2396C40.7908 26.3235 40.7307 26.3982 40.6459 26.4082H40.6295C40.5521 26.4082 40.4874 26.3508 40.4774 26.2733ZM38.7754 26.3517C38.6943 26.3344 38.6369 26.2569 38.6542 26.1731C38.6679 26.0893 38.749 26.0346 38.8292 26.0483C38.913 26.0647 38.9704 26.1421 38.954 26.2269C38.9403 26.3007 38.8765 26.3517 38.8018 26.3517H38.7754ZM41.3803 26.1257C41.3603 26.0446 41.4076 25.9608 41.4915 25.9399C41.5725 25.9162 41.6564 25.9672 41.6764 26.0474C41.7001 26.1285 41.6491 26.2123 41.5689 26.236C41.5552 26.2396 41.5416 26.2396 41.5288 26.2396C41.4614 26.2396 41.4003 26.1959 41.3803 26.1248V26.1257ZM37.8688 26.1184C37.7877 26.0911 37.744 26.0036 37.7713 25.9262C37.7978 25.8451 37.8861 25.8014 37.9636 25.8287C38.0447 25.856 38.0884 25.9435 38.0611 26.021C38.041 26.0847 37.98 26.1257 37.9162 26.1257C37.8998 26.1257 37.8825 26.1257 37.8688 26.1194V26.1184ZM42.2531 25.8488C42.2231 25.7713 42.2568 25.6802 42.3342 25.6465C42.4117 25.6128 42.5028 25.6501 42.5365 25.7276C42.5702 25.805 42.5329 25.8961 42.4554 25.9298C42.4354 25.9362 42.4153 25.9399 42.3944 25.9399C42.337 25.9399 42.2796 25.9062 42.2531 25.8488ZM37.0024 25.7576V25.754C36.9249 25.7166 36.8948 25.6255 36.9349 25.5517C36.9723 25.4743 37.0634 25.4442 37.1409 25.4843C37.2147 25.5217 37.2456 25.6128 37.2083 25.6902C37.1819 25.7403 37.1272 25.774 37.0698 25.774C37.0461 25.774 37.0224 25.7677 37.0024 25.7567V25.7576ZM43.0786 25.4479C43.0349 25.3741 43.0549 25.2793 43.126 25.2356C43.1998 25.1918 43.2946 25.2155 43.3383 25.2857C43.382 25.3568 43.3583 25.4506 43.2873 25.4943C43.2636 25.5107 43.2335 25.518 43.2062 25.518C43.1561 25.518 43.105 25.4943 43.0777 25.447L43.0786 25.4479ZM36.1969 25.2729C36.1295 25.2228 36.1131 25.1281 36.1596 25.0606C36.2097 24.9896 36.3044 24.9732 36.3755 25.0233C36.4429 25.0707 36.4593 25.1682 36.4092 25.2356C36.3819 25.2793 36.3318 25.2994 36.2844 25.2994C36.2543 25.2994 36.2234 25.293 36.1969 25.272V25.2729ZM43.8339 24.9294C43.7802 24.8657 43.7866 24.7673 43.8513 24.7135C43.9187 24.6597 44.0134 24.6698 44.0672 24.7335C44.1209 24.7973 44.1146 24.8957 44.0508 24.9495C44.0207 24.9732 43.987 24.9832 43.9533 24.9832C43.9096 24.9832 43.8658 24.9668 43.8358 24.9294H43.8339ZM35.4726 24.6761C35.4125 24.6187 35.4088 24.5213 35.4662 24.4602C35.5273 24.3992 35.6211 24.3964 35.6821 24.4566C35.7459 24.514 35.7459 24.6087 35.6885 24.6725C35.6585 24.7026 35.6175 24.7199 35.5774 24.7199C35.54 24.7199 35.5036 24.7062 35.4726 24.6761ZM44.5073 24.309C44.4435 24.2516 44.4362 24.1541 44.4936 24.093V24.0894C44.551 24.0283 44.6458 24.022 44.7095 24.0794C44.7733 24.1368 44.777 24.2315 44.7232 24.2953C44.6931 24.329 44.6494 24.3454 44.6084 24.3454C44.571 24.3454 44.5346 24.3317 44.5073 24.3081V24.309ZM34.8421 23.9819C34.7883 23.9181 34.802 23.8197 34.8658 23.7696C34.9332 23.7158 35.028 23.7295 35.0817 23.7933C35.1318 23.8607 35.1218 23.9582 35.0544 24.0092C35.027 24.0329 34.9933 24.0429 34.9596 24.0429C34.9159 24.0429 34.8722 24.0229 34.8421 23.9819ZM45.084 23.5946C45.0129 23.5473 44.9929 23.4534 45.0403 23.3824C45.0876 23.3149 45.1815 23.2949 45.2526 23.3423C45.3236 23.386 45.34 23.4835 45.2963 23.5509C45.2662 23.5983 45.2152 23.622 45.1678 23.622C45.1378 23.622 45.1077 23.612 45.084 23.5946ZM34.3164 23.2074C34.2763 23.1336 34.2991 23.0389 34.3738 22.9988C34.4476 22.955 34.5387 22.9824 34.5824 23.0525C34.6225 23.1263 34.5988 23.2211 34.525 23.2612C34.5013 23.2748 34.4749 23.2812 34.4476 23.2812C34.3975 23.2812 34.3428 23.2539 34.3164 23.2074ZM45.5487 22.8056C45.4749 22.7719 45.4412 22.6808 45.4749 22.6033C45.5122 22.5259 45.6033 22.4958 45.6808 22.5295C45.7582 22.5669 45.7883 22.658 45.7546 22.7355C45.7273 22.7892 45.6735 22.8229 45.6134 22.8229C45.5933 22.8229 45.5733 22.8165 45.5496 22.8065L45.5487 22.8056ZM33.9118 22.361C33.8818 22.2799 33.9182 22.1924 33.9957 22.1624C34.0767 22.1323 34.1642 22.1687 34.1943 22.2498C34.2244 22.3273 34.1879 22.4147 34.1068 22.4448C34.0895 22.4548 34.0695 22.4585 34.0531 22.4585C33.9929 22.4585 33.9355 22.4211 33.9118 22.361ZM45.8958 21.9601C45.8147 21.9337 45.771 21.8489 45.7947 21.7678C45.8184 21.6868 45.9022 21.643 45.9833 21.6667C46.0644 21.6904 46.1117 21.7742 46.0881 21.8553C46.068 21.9227 46.007 21.9665 45.9395 21.9665C45.9259 21.9665 45.9122 21.9628 45.8958 21.9601ZM33.6321 21.4644C33.6157 21.3806 33.6658 21.2995 33.7469 21.2822C33.828 21.2622 33.9118 21.3123 33.9328 21.397C33.9492 21.4781 33.8991 21.5592 33.818 21.5792C33.8043 21.5829 33.7943 21.5829 33.7806 21.5829C33.7132 21.5829 33.6494 21.5355 33.6321 21.4654V21.4644ZM46.1181 21.0708C46.0343 21.0572 45.9769 20.9797 45.9869 20.8959C46.0006 20.8121 46.078 20.7547 46.1619 20.7674C46.2457 20.7811 46.3031 20.8549 46.2903 20.9396C46.2803 21.0171 46.2129 21.0708 46.1382 21.0708H46.1181ZM33.4873 20.5378C33.4809 20.454 33.5447 20.3793 33.6285 20.3729C33.7123 20.3665 33.787 20.4303 33.7934 20.5114C33.7998 20.5952 33.736 20.6699 33.6522 20.6763H33.6421C33.5611 20.6763 33.4936 20.6189 33.4873 20.5378ZM46.0507 20.0057C46.0507 19.9821 46.0571 19.962 46.0644 19.9447C46.0543 19.9247 46.0507 19.9046 46.0507 19.8846C46.0471 19.8007 46.1145 19.7297 46.1992 19.7297C46.283 19.726 46.3541 19.7934 46.3577 19.8782C46.3577 19.9019 46.3514 19.9219 46.3441 19.942C46.3541 19.962 46.3577 19.9821 46.3577 20.0057C46.3577 20.0896 46.2903 20.1579 46.2056 20.1579C46.1218 20.1579 46.0507 20.0905 46.0507 20.0057ZM33.6221 19.7625C33.5383 19.7561 33.4736 19.685 33.4809 19.6003C33.4845 19.5165 33.5583 19.4518 33.6431 19.4554C33.7269 19.4618 33.7916 19.5329 33.7843 19.6176C33.7806 19.6987 33.7132 19.7625 33.6321 19.7625H33.6221ZM45.9705 18.9944C45.9569 18.9106 46.0106 18.8322 46.0953 18.8195C46.1792 18.8058 46.2575 18.8596 46.2703 18.9443C46.2839 19.0281 46.2265 19.1065 46.1455 19.1192C46.1354 19.1229 46.1291 19.1229 46.119 19.1229C46.048 19.1229 45.9805 19.0691 45.9705 18.9944ZM33.7232 18.8532C33.6394 18.8331 33.5884 18.752 33.6048 18.6709C33.6221 18.5871 33.7023 18.5361 33.787 18.5525C33.8681 18.5689 33.9219 18.65 33.9055 18.7311C33.8891 18.8049 33.8244 18.8523 33.7533 18.8523H33.7232V18.8532ZM45.7582 18.1252C45.7345 18.0441 45.7783 17.9603 45.8594 17.9329C45.9405 17.9093 46.0243 17.953 46.0516 18.0341C46.0753 18.1115 46.0316 18.199 45.9505 18.2263C45.9368 18.23 45.9204 18.2327 45.9067 18.2327C45.8393 18.2327 45.7819 18.1926 45.7582 18.1252ZM33.9556 17.963C33.8781 17.9357 33.8344 17.8482 33.8645 17.7671C33.8945 17.6897 33.982 17.6487 34.0631 17.676C34.1405 17.7061 34.1806 17.7945 34.1506 17.8746C34.1305 17.9348 34.0695 17.9721 34.0093 17.9721C33.9929 17.9721 33.972 17.9685 33.9556 17.9621V17.963ZM45.4238 17.2961C45.3865 17.2223 45.4175 17.1312 45.4949 17.0938C45.5687 17.0564 45.6598 17.0874 45.6972 17.1612C45.7373 17.2387 45.7036 17.3298 45.6298 17.3671C45.6061 17.3772 45.586 17.3844 45.5623 17.3844C45.5049 17.3844 45.4512 17.3544 45.4238 17.297V17.2961ZM34.3164 17.1211C34.2426 17.081 34.2152 16.9899 34.2553 16.9152C34.2954 16.8414 34.3865 16.8141 34.4612 16.8542C34.535 16.8943 34.5624 16.9854 34.5223 17.0601C34.495 17.1111 34.4412 17.1412 34.3874 17.1412C34.3638 17.1412 34.3401 17.1348 34.3164 17.1211ZM44.9728 16.528C44.9255 16.4569 44.9428 16.3631 45.0129 16.3157C45.0804 16.2656 45.1751 16.2856 45.2252 16.3531C45.2726 16.4241 45.2553 16.518 45.1851 16.5653C45.1578 16.5854 45.1277 16.5927 45.0977 16.5927C45.0503 16.5927 45.0038 16.5726 44.9728 16.5289V16.528ZM34.7947 16.3385C34.7273 16.2884 34.7136 16.1936 34.7646 16.1262C34.8157 16.0588 34.9095 16.0451 34.9769 16.0961C35.048 16.1462 35.058 16.241 35.007 16.3121V16.3084C34.9769 16.3485 34.9332 16.3695 34.8858 16.3695C34.8558 16.3695 34.822 16.3594 34.7947 16.3394V16.3385ZM44.4134 15.8301C44.356 15.7663 44.3597 15.6715 44.4234 15.6141C44.4845 15.5567 44.582 15.5604 44.6394 15.6205C44.6968 15.6843 44.6931 15.7791 44.6294 15.8365C44.6029 15.8638 44.5619 15.8765 44.5246 15.8765C44.4845 15.8765 44.4435 15.8629 44.4134 15.8292V15.8301ZM35.3815 15.6378C35.3213 15.5768 35.3213 15.4793 35.3815 15.4192C35.4425 15.3618 35.54 15.3618 35.5974 15.4228C35.6585 15.4838 35.6585 15.5777 35.5974 15.6387C35.5673 15.6688 35.53 15.6825 35.4899 15.6825C35.4498 15.6825 35.4125 15.6661 35.3824 15.6387L35.3815 15.6378ZM43.7592 15.2196C43.6955 15.1659 43.6818 15.0711 43.7355 15.0037C43.7893 14.9399 43.8877 14.9299 43.9515 14.98C44.0153 15.0338 44.0289 15.1322 43.9752 15.1959C43.9451 15.2333 43.9014 15.2533 43.8567 15.2533C43.823 15.2533 43.7893 15.2433 43.7592 15.2196ZM36.0621 15.0246C36.012 14.9572 36.0284 14.8597 36.0958 14.8124C36.1632 14.7622 36.258 14.775 36.3081 14.8424C36.3582 14.9098 36.3454 15.0073 36.278 15.0584C36.2507 15.0784 36.217 15.0857 36.1869 15.0857C36.1395 15.0857 36.0931 15.0656 36.0621 15.0256V15.0246ZM43.0249 14.7112C42.9511 14.6675 42.9274 14.5727 42.9711 14.5026C43.0148 14.4288 43.1096 14.4051 43.1798 14.4488C43.2536 14.4926 43.2773 14.5837 43.2335 14.6575C43.2062 14.7048 43.1561 14.7313 43.1023 14.7313C43.075 14.7313 43.0486 14.7249 43.0249 14.7112ZM36.8274 14.519C36.7873 14.4452 36.8138 14.3504 36.8885 14.3103C36.9623 14.273 37.057 14.3003 37.0971 14.3741C37.1345 14.4479 37.1071 14.5427 37.0333 14.58C37.0096 14.5937 36.986 14.6001 36.9623 14.6001C36.9049 14.6001 36.8548 14.57 36.8274 14.519ZM42.2231 14.3167V14.3131C42.1456 14.283 42.1083 14.1919 42.1393 14.1144C42.173 14.037 42.2604 13.9996 42.3415 14.0306C42.419 14.0643 42.4563 14.1518 42.4226 14.2292C42.3989 14.2903 42.3415 14.3267 42.2814 14.3267C42.2641 14.3267 42.244 14.3231 42.224 14.3167H42.2231ZM37.6565 14.1281C37.6265 14.047 37.6666 13.9595 37.7477 13.9322C37.8287 13.9021 37.9126 13.9459 37.9435 14.0233C37.9709 14.1044 37.9299 14.1919 37.8497 14.2192C37.8324 14.2256 37.816 14.2292 37.7987 14.2292C37.7385 14.2292 37.6775 14.1891 37.6575 14.1281H37.6565ZM41.373 14.0406C41.2892 14.0206 41.2418 13.9359 41.2618 13.8557C41.2782 13.7746 41.363 13.7245 41.4441 13.7445C41.5279 13.7646 41.5789 13.8457 41.5589 13.9304C41.5425 13.9978 41.4778 14.0452 41.4104 14.0452C41.3967 14.0452 41.3867 14.0452 41.373 14.0415V14.0406ZM38.5321 13.8621C38.5157 13.781 38.5695 13.6999 38.6506 13.6835C38.7344 13.6671 38.8155 13.7208 38.8328 13.8047C38.8492 13.8857 38.7954 13.9668 38.7116 13.9832C38.7016 13.9832 38.6916 13.9869 38.6816 13.9869C38.6105 13.9869 38.5467 13.9359 38.533 13.8621H38.5321ZM40.4901 13.8921C40.4063 13.8857 40.3453 13.811 40.3553 13.7272C40.3617 13.6434 40.4364 13.5787 40.5202 13.5887C40.604 13.5951 40.6651 13.6698 40.6587 13.7536C40.6487 13.8347 40.5849 13.8921 40.5065 13.8921H40.4901ZM39.4387 13.7272C39.4351 13.6434 39.4997 13.5723 39.5836 13.5687C39.6674 13.565 39.7385 13.6297 39.7421 13.7135C39.7457 13.7974 39.682 13.8684 39.5972 13.8721H39.5909C39.5098 13.8721 39.4423 13.8119 39.4387 13.7272Z" fill="#1D8E7C"/>
<path d="M27.1713 25.9024C26.6301 25.9024 26.1509 26.1739 25.862 26.5875C25.7764 26.5729 25.688 26.5638 25.5987 26.5611C25.9194 26.0254 26.5035 25.6655 27.1713 25.6655C27.8392 25.6655 28.4232 26.0254 28.7439 26.5611C28.6546 26.5638 28.5662 26.572 28.4806 26.5875C28.1918 26.1739 27.7134 25.9024 27.1713 25.9024Z" fill="#1D8E7C"/>
<path d="M27.1713 26.372C26.8424 26.372 26.5472 26.515 26.3404 26.74C26.2657 26.7036 26.1882 26.6717 26.109 26.6462C26.3586 26.3355 26.7422 26.1351 27.1713 26.1351C27.6005 26.1351 27.9841 26.3346 28.2337 26.6462C28.1535 26.6717 28.077 26.7045 28.0023 26.74C27.7964 26.5141 27.5003 26.372 27.1713 26.372Z" fill="#1D8E7C"/>
<path d="M27.1711 26.8419C27.0071 26.8419 26.8578 26.9029 26.7422 27.0022C26.6811 26.9503 26.6174 26.9011 26.55 26.8574C26.7112 26.7017 26.9297 26.6052 27.1701 26.6052C27.4105 26.6052 27.63 26.7017 27.7903 26.8574C27.7229 26.9011 27.6591 26.9503 27.5981 27.0022C27.4834 26.9029 27.3331 26.8419 27.1701 26.8419H27.1711Z" fill="#1D8E7C"/>
<path d="M27.1713 27.3122C27.1285 27.3122 27.0894 27.3277 27.0575 27.3523C27.0129 27.2877 26.9628 27.2266 26.91 27.1684C26.9819 27.111 27.0721 27.0764 27.1704 27.0764C27.2688 27.0764 27.3589 27.1119 27.4309 27.1684C27.3781 27.2266 27.3289 27.2877 27.2834 27.3523C27.2515 27.3277 27.2123 27.3122 27.1695 27.3122H27.1713Z" fill="#1D8E7C"/>
<path d="M30.5581 25.9024C30.0169 25.9024 29.5376 26.1739 29.2488 26.5875C29.1632 26.5729 29.0748 26.5638 28.9855 26.5611C29.3062 26.0254 29.8902 25.6655 30.5581 25.6655C31.226 25.6655 31.81 26.0254 32.1307 26.5611C32.0414 26.5638 31.953 26.572 31.8674 26.5875C31.5786 26.1739 31.1002 25.9024 30.5581 25.9024Z" fill="#1D8E7C"/>
<path d="M30.5581 26.372C30.2292 26.372 29.934 26.515 29.7272 26.74C29.6524 26.7036 29.575 26.6717 29.4957 26.6462C29.7454 26.3355 30.129 26.1351 30.5581 26.1351C30.9872 26.1351 31.3708 26.3346 31.6205 26.6462C31.5403 26.6717 31.4637 26.7045 31.389 26.74C31.1831 26.5141 30.887 26.372 30.5581 26.372Z" fill="#1D8E7C"/>
<path d="M30.5576 26.8419C30.3937 26.8419 30.2444 26.9029 30.1296 27.0022C30.0686 26.9503 30.0049 26.9011 29.9375 26.8574C30.0987 26.7017 30.3172 26.6052 30.5576 26.6052C30.798 26.6052 31.0175 26.7017 31.1777 26.8574C31.1104 26.9011 31.0466 26.9503 30.9856 27.0022C30.8709 26.9029 30.7206 26.8419 30.5576 26.8419Z" fill="#1D8E7C"/>
<path d="M30.5579 27.3122C30.5151 27.3122 30.4759 27.3277 30.444 27.3523C30.3994 27.2877 30.3493 27.2266 30.2965 27.1684C30.3684 27.111 30.4586 27.0764 30.5569 27.0764C30.6553 27.0764 30.7454 27.1119 30.8174 27.1684C30.7646 27.2266 30.7154 27.2877 30.6699 27.3523C30.638 27.3277 30.5988 27.3122 30.556 27.3122H30.5579Z" fill="#1D8E7C"/>
<path d="M25.4784 27.041C24.9372 27.041 24.458 27.3125 24.1692 27.7261C24.0835 27.7115 23.9951 27.7024 23.9059 27.6997C24.2266 27.164 24.8106 26.8041 25.4784 26.8041C26.1463 26.8041 26.7303 27.164 27.051 27.6997C26.9618 27.7024 26.8734 27.7106 26.7877 27.7261C26.4989 27.3125 26.0206 27.041 25.4784 27.041Z" fill="#1D8E7C"/>
<path d="M25.4786 27.5113C25.1497 27.5113 24.8544 27.6543 24.6476 27.8794C24.5729 27.8429 24.4955 27.8111 24.4162 27.7855C24.6658 27.4749 25.0494 27.2744 25.4786 27.2744C25.9077 27.2744 26.2913 27.4739 26.5409 27.7855C26.4608 27.8111 26.3842 27.8439 26.3095 27.8794C26.1036 27.6534 25.8075 27.5113 25.4786 27.5113Z" fill="#1D8E7C"/>
<path d="M25.4783 27.9816C25.3144 27.9816 25.165 28.0426 25.0503 28.1418C24.9893 28.0899 24.9255 28.0408 24.8582 27.9971C25.0193 27.8413 25.2379 27.7448 25.4783 27.7448C25.7187 27.7448 25.9381 27.8413 26.0984 27.9971C26.031 28.0408 25.9673 28.0899 25.9063 28.1418C25.7915 28.0426 25.6413 27.9816 25.4783 27.9816Z" fill="#1D8E7C"/>
<path d="M25.4784 28.4514C25.4356 28.4514 25.3965 28.4669 25.3646 28.4915C25.32 28.4268 25.2699 28.3658 25.2171 28.3075C25.289 28.2501 25.3792 28.2155 25.4775 28.2155C25.5759 28.2155 25.666 28.2511 25.738 28.3084C25.6852 28.3667 25.636 28.4277 25.5904 28.4924C25.5586 28.4678 25.5194 28.4523 25.4766 28.4523L25.4784 28.4514Z" fill="#1D8E7C"/>
<path d="M28.8652 27.041C28.324 27.041 27.8448 27.3125 27.5559 27.7261C27.4703 27.7115 27.3819 27.7024 27.2926 27.6997C27.6133 27.164 28.1974 26.8041 28.8652 26.8041C29.5331 26.8041 30.1171 27.164 30.4378 27.6997C30.3485 27.7024 30.2602 27.7106 30.1745 27.7261C29.8857 27.3125 29.4073 27.041 28.8652 27.041Z" fill="#1D8E7C"/>
<path d="M28.8653 27.5113C28.5364 27.5113 28.2412 27.6543 28.0344 27.8794C27.9597 27.8429 27.8822 27.8111 27.803 27.7855C28.0526 27.4749 28.4362 27.2744 28.8653 27.2744C29.2945 27.2744 29.6781 27.4739 29.9277 27.7855C29.8475 27.8111 29.771 27.8439 29.6963 27.8794C29.4904 27.6534 29.1943 27.5113 28.8653 27.5113Z" fill="#1D8E7C"/>
<path d="M28.8649 27.9816C28.701 27.9816 28.5516 28.0426 28.4369 28.1418C28.3759 28.0899 28.3121 28.0408 28.2448 27.9971C28.4059 27.8413 28.6245 27.7448 28.8649 27.7448C29.1053 27.7448 29.3247 27.8413 29.485 27.9971C29.4176 28.0408 29.3539 28.0899 29.2929 28.1418C29.1781 28.0426 29.0279 27.9816 28.8649 27.9816Z" fill="#1D8E7C"/>
<path d="M28.865 28.4514C28.8222 28.4514 28.7831 28.4669 28.7512 28.4915C28.7066 28.4268 28.6565 28.3658 28.6037 28.3075C28.6756 28.2501 28.7658 28.2155 28.8641 28.2155C28.9624 28.2155 29.0526 28.2511 29.1245 28.3084C29.0717 28.3667 29.0225 28.4277 28.977 28.4924C28.9451 28.4678 28.906 28.4523 28.8632 28.4523L28.865 28.4514Z" fill="#1D8E7C"/>
<path d="M16.3764 9.70179C16.8338 10.592 17.1891 11.5605 17.1991 12.5618C17.2092 13.5631 16.8329 14.6027 16.0457 15.2214C15.5536 15.6077 14.3974 16.0268 13.818 15.5758C13.2922 15.1676 13.5966 14.1043 13.7259 13.5558C14.0913 12.0042 15.0416 10.5838 16.3755 9.70179H16.3764Z" fill="#1D8E7C"/>
<path d="M12.6245 11.8908C11.9065 11.161 10.8669 10.843 9.85378 10.6982C8.7823 10.5442 7.6762 10.5806 6.65665 10.2134C6.22934 10.0595 4.41803 9.39799 4.42896 8.79665C4.41621 9.47725 4.83441 10.1077 5.3738 10.5232C6.14643 11.1173 7.1031 11.2011 7.90034 11.7286C8.71488 12.268 9.33808 13.1099 9.56586 14.0647C9.63329 14.3463 9.68067 14.657 9.89387 14.8529C10.0588 15.0041 10.292 15.0533 10.5153 15.0788C11.3325 15.1708 12.8067 15.056 13.3005 14.2606C13.7488 13.5381 13.1393 12.4165 12.6245 11.8926V11.8908Z" fill="white"/>
<path d="M4.72053 13.9276C3.8003 13.8738 2.86275 13.8957 2.00265 13.6287C1.12889 13.3563 0.29248 12.7659 0.0118547 11.8949C-0.091102 13.0511 0.483816 14.2428 1.45416 14.8806C2.46186 15.543 3.67638 15.6305 4.6768 16.2491C5.25536 16.6063 5.71547 17.2368 5.67447 17.9156C6.75142 17.1548 7.73816 16.2664 8.60737 15.2751C7.81925 14.6346 6.8398 14.2629 5.84394 14.0615C5.47676 13.9877 5.09956 13.9522 4.71962 13.9294L4.72053 13.9276Z" fill="white"/>
<path d="M17.05 15.9579C17.05 15.9579 11.4403 12.2242 8.04087 14.4236C4.64148 16.6231 3.40782 20.6703 2.81195 26.6891C2.81195 26.6891 4.47292 28.4786 6.59492 28.3856L8.17845 26.6827C8.17845 26.6827 10.2768 27.572 12.6256 24.3913C14.9754 21.2106 17.05 15.957 17.05 15.957V15.9579Z" fill="white"/>
<path d="M8.85542 19.1783L7.38123 22.7052C7.38123 22.7052 10.6421 22.4957 8.85542 19.1783Z" fill="#1D8E7C"/>
<path d="M4.81241 27.0167C5.36729 27.2309 5.86202 27.2627 5.92762 27.0924C5.99323 26.922 5.60327 26.6195 5.04839 26.4054C4.4999 26.194 4.00152 26.153 3.93592 26.3234C3.87031 26.4938 4.26392 26.8054 4.81241 27.0167Z" fill="#1D8E7C"/>
<path d="M16.4065 9.74772C16.7336 10.6935 16.9486 11.703 16.8174 12.6952C16.6862 13.6874 16.1668 14.6641 15.3004 15.1652C14.7582 15.4787 13.5556 15.7292 13.0453 15.2017C12.5825 14.7233 13.0344 13.7138 13.2394 13.189C13.8207 11.7048 14.9614 10.4329 16.4065 9.74772Z" fill="white"/>
<mask id="mask0_31_2" style="mask-type:luminance" maskUnits="userSpaceOnUse" x="11" y="5" width="38" height="36">
<path d="M48.3375 21.4734C48.3994 22.4739 48.3994 24.154 47.8272 25.4541C47.2204 27.1761 45.4683 32.5208 46.5025 34.4724C46.5025 34.4724 43.011 37.3306 42.735 40.0166H39.4258C39.4258 40.0166 39.7766 36.5525 41.7136 34.4396L40.4198 33.1458C40.4198 33.1458 38.5156 31.104 36.1667 31.0931C33.9964 31.0794 31.961 31.7573 29.8444 32.2283C28.0751 32.6256 26.2583 32.9362 24.4898 32.6629C24.0115 32.5891 23.5359 32.4743 23.0712 32.3058C21.1296 31.6151 19.3374 30.6111 17.7329 29.33C17.578 29.2089 17.4395 29.0667 17.2783 28.9592C16.2378 28.2649 13.0233 25.0478 11.9136 24.6833C12.0831 24.184 12.2197 23.6738 12.3227 23.1572C12.412 22.7126 12.5869 22.1167 12.5067 21.6648C12.3637 20.8539 12.1587 20.074 12.1086 19.2385C12.0184 17.7315 12.3227 16.2536 13.0589 14.9325C20.3952 4.62773 25.4355 2.70071 35.0752 7.49229C41.0184 10.5199 48.2053 13.7225 48.3375 21.4734Z" fill="white"/>
</mask>
<g mask="url(#mask0_31_2)">
<path d="M36.5551 8.89909C35.9446 8.89909 35.4062 9.20523 35.0809 9.67081C34.9843 9.65441 34.885 9.64439 34.7839 9.64165C35.1447 9.03849 35.8025 8.63304 36.5551 8.63304C37.3077 8.63304 37.9655 9.03849 38.3263 9.64165C38.2252 9.64439 38.1259 9.65441 38.0293 9.67081C37.704 9.20523 37.1646 8.89909 36.5551 8.89909Z" fill="#1D8E7C"/>
<path d="M36.5549 9.42848C36.1841 9.42848 35.8515 9.58884 35.6192 9.84304C35.5345 9.80204 35.4479 9.76559 35.3577 9.73735C35.6392 9.38657 36.0711 9.16152 36.5549 9.16152C37.0387 9.16152 37.4697 9.38657 37.7521 9.73735C37.6619 9.76651 37.5754 9.80295 37.4906 9.84304C37.2583 9.58884 36.9257 9.42848 36.5549 9.42848Z" fill="#1D8E7C"/>
<path d="M36.5546 9.95866C36.3697 9.95866 36.2013 10.027 36.072 10.139C36.0037 10.0798 35.9317 10.0251 35.8553 9.97597C36.0365 9.80022 36.2823 9.69186 36.5546 9.69186C36.8269 9.69186 37.0727 9.80022 37.2539 9.97597C37.1784 10.026 37.1064 10.0807 37.0372 10.139C36.9079 10.027 36.7394 9.95866 36.5546 9.95866Z" fill="#1D8E7C"/>
<path d="M36.5548 10.4876C36.5065 10.4876 36.4628 10.5049 36.4273 10.5323C36.3772 10.4594 36.3208 10.3911 36.2616 10.3246C36.3426 10.2609 36.4437 10.2208 36.5548 10.2208C36.6659 10.2208 36.767 10.2609 36.848 10.3246C36.7888 10.3902 36.7323 10.4594 36.6823 10.5323C36.6468 10.5049 36.603 10.4876 36.5548 10.4876Z" fill="#1D8E7C"/>
<path d="M40.3699 8.89909C39.7595 8.89909 39.221 9.20523 38.8957 9.67081C38.7991 9.65441 38.6998 9.64439 38.5987 9.64165C38.9595 9.03849 39.6173 8.63304 40.3699 8.63304C41.1225 8.63304 41.7803 9.03849 42.1411 9.64165C42.04 9.64439 41.9407 9.65441 41.8441 9.67081C41.5188 9.20523 40.9794 8.89909 40.3699 8.89909Z" fill="#1D8E7C"/>
<path d="M40.3699 9.42848C39.9991 9.42848 39.6665 9.58884 39.4342 9.84304C39.3495 9.80204 39.2629 9.76559 39.1727 9.73735C39.4542 9.38657 39.8861 9.16152 40.3699 9.16152C40.8537 9.16152 41.2847 9.38657 41.5671 9.73735C41.4769 9.76651 41.3904 9.80295 41.3056 9.84304C41.0733 9.58884 40.7407 9.42848 40.3699 9.42848Z" fill="#1D8E7C"/>
<path d="M40.3694 9.95866C40.1845 9.95866 40.0161 10.027 39.8868 10.139C39.8185 10.0798 39.7465 10.0251 39.67 9.97597C39.8513 9.80022 40.0971 9.69186 40.3694 9.69186C40.6417 9.69186 40.8875 9.80022 41.0687 9.97597C40.9932 10.026 40.9212 10.0807 40.852 10.139C40.7227 10.027 40.5542 9.95866 40.3694 9.95866Z" fill="#1D8E7C"/>
<path d="M40.3696 10.4876C40.3214 10.4876 40.2777 10.5049 40.2421 10.5323C40.1921 10.4594 40.1356 10.3911 40.0764 10.3246C40.1575 10.2609 40.2585 10.2208 40.3696 10.2208C40.4807 10.2208 40.5818 10.2609 40.6628 10.3246C40.6037 10.3902 40.5472 10.4594 40.4971 10.5323C40.4616 10.5049 40.4179 10.4876 40.3696 10.4876Z" fill="#1D8E7C"/>
<path d="M34.6481 10.1817C34.0376 10.1817 33.4992 10.4878 33.1739 10.9534C33.0773 10.937 32.978 10.927 32.8769 10.9242C33.2377 10.3211 33.8955 9.91561 34.6481 9.91561C35.4007 9.91561 36.0585 10.3211 36.4193 10.9242C36.3182 10.927 36.2189 10.937 36.1223 10.9534C35.797 10.4878 35.2576 10.1817 34.6481 10.1817Z" fill="#1D8E7C"/>
<path d="M34.6481 10.7113C34.2773 10.7113 33.9447 10.8716 33.7124 11.1258C33.6276 11.0848 33.5411 11.0493 33.4509 11.0201C33.7324 10.6694 34.1643 10.4443 34.6481 10.4443C35.1319 10.4443 35.5628 10.6694 35.8453 11.0201C35.7551 11.0493 35.6685 11.0857 35.5838 11.1258C35.3515 10.8716 35.0189 10.7113 34.6481 10.7113Z" fill="#1D8E7C"/>
<path d="M34.6476 11.2412C34.4628 11.2412 34.2943 11.3095 34.165 11.4215C34.0967 11.3623 34.0248 11.3076 33.9483 11.2585C34.1295 11.0827 34.3753 10.9743 34.6476 10.9743C34.9199 10.9743 35.1657 11.0827 35.347 11.2585C35.2714 11.3085 35.1994 11.3632 35.1302 11.4215C35.0009 11.3095 34.8325 11.2412 34.6476 11.2412Z" fill="#1D8E7C"/>
<path d="M34.6479 11.7705C34.5996 11.7705 34.5559 11.7878 34.5204 11.8151C34.4703 11.7423 34.4138 11.674 34.3546 11.6075C34.4357 11.5438 34.5368 11.5037 34.6479 11.5037C34.759 11.5037 34.86 11.5438 34.9411 11.6075C34.8819 11.6731 34.8254 11.7423 34.7753 11.8151C34.7398 11.7878 34.6961 11.7705 34.6479 11.7705Z" fill="#1D8E7C"/>
<path d="M38.463 10.1817C37.8526 10.1817 37.3141 10.4878 36.9888 10.9534C36.8923 10.937 36.7929 10.927 36.6918 10.9242C37.0526 10.3211 37.7104 9.91561 38.463 9.91561C39.2156 9.91561 39.8734 10.3211 40.2342 10.9242C40.1331 10.927 40.0338 10.937 39.9372 10.9534C39.6119 10.4878 39.0726 10.1817 38.463 10.1817Z" fill="#1D8E7C"/>
<path d="M38.4629 10.7113C38.0921 10.7113 37.7595 10.8716 37.5272 11.1258C37.4425 11.0848 37.3559 11.0493 37.2657 11.0201C37.5473 10.6694 37.9791 10.4443 38.4629 10.4443C38.9467 10.4443 39.3777 10.6694 39.6601 11.0201C39.5699 11.0493 39.4834 11.0857 39.3987 11.1258C39.1663 10.8716 38.8338 10.7113 38.4629 10.7113Z" fill="#1D8E7C"/>
<path d="M38.4625 11.2412C38.2777 11.2412 38.1092 11.3095 37.9799 11.4215C37.9116 11.3623 37.8397 11.3076 37.7632 11.2585C37.9444 11.0827 38.1903 10.9743 38.4625 10.9743C38.7348 10.9743 38.9807 11.0827 39.1619 11.2585C39.0863 11.3085 39.0144 11.3632 38.9451 11.4215C38.8158 11.3095 38.6474 11.2412 38.4625 11.2412Z" fill="#1D8E7C"/>
<path d="M38.4627 11.7705C38.4144 11.7705 38.3707 11.7878 38.3352 11.8151C38.2851 11.7423 38.2287 11.674 38.1695 11.6075C38.2505 11.5438 38.3516 11.5037 38.4627 11.5037C38.5738 11.5037 38.6748 11.5438 38.7559 11.6075C38.6967 11.6731 38.6402 11.7423 38.5902 11.8151C38.5546 11.7878 38.5109 11.7705 38.4627 11.7705Z" fill="#1D8E7C"/>
<path d="M23.0712 14.6768C23.2543 14.8745 23.4247 15.0932 23.5486 15.3501C23.6734 15.6052 23.7463 15.9077 23.7163 16.2184C23.6908 16.5245 23.5504 16.8635 23.2643 17.0876C22.9937 17.3035 22.5956 17.4302 22.1865 17.289L22.1036 17.2607C21.8968 17.1896 21.7865 16.9637 21.8576 16.7569C21.9286 16.55 22.1546 16.4398 22.3614 16.5109C22.4097 16.5273 22.4525 16.5528 22.489 16.5838C22.5737 16.6557 22.7623 16.6703 22.9263 16.5901C23.0876 16.5191 23.2206 16.3532 23.2871 16.14C23.3545 15.9268 23.3555 15.6845 23.2953 15.443C23.2361 15.2016 23.1231 14.9638 22.9883 14.7378C22.9737 14.7132 22.9819 14.6822 23.0056 14.6677C23.0265 14.6549 23.0539 14.6595 23.0694 14.6768H23.0712Z" fill="#1D8E7C"/>
<path d="M23.6079 14.3084C23.8455 14.252 24.0577 14.282 24.2544 14.3448C24.4493 14.4095 24.625 14.5133 24.7762 14.6453C24.9273 14.7774 25.0521 14.9386 25.1413 15.1234C25.2278 15.3101 25.2852 15.5168 25.2588 15.7599C25.022 15.6989 24.8499 15.6142 24.6906 15.5241C24.534 15.4321 24.3956 15.3329 24.269 15.2208C24.1424 15.1088 24.0258 14.985 23.9148 14.8402C23.8055 14.6936 23.6989 14.5333 23.6079 14.3075V14.3084Z" fill="#1D8E7C"/>
<path d="M24.458 17.2537C24.5719 16.7599 24.5282 16.185 24.295 15.6501C24.735 16.0346 25.0776 16.5858 25.2252 17.2309L25.2307 17.2546C25.2799 17.4678 25.1459 17.681 24.9327 17.7293C24.7195 17.7785 24.5063 17.6446 24.458 17.4314C24.4444 17.3712 24.4453 17.3102 24.458 17.2537Z" fill="#1D8E7C"/>
<path d="M23.0129 9.20021C22.684 9.22846 22.4043 9.4043 22.2303 9.65577C22.2047 9.69313 22.1811 9.73231 22.1601 9.7724C22.1628 9.7232 22.1601 9.67491 22.1555 9.62662C22.1145 9.18381 21.7975 8.79659 21.3401 8.68999C20.7688 8.55696 20.1975 8.9123 20.0645 9.48357C20.0454 9.56466 20.0381 9.64575 20.0381 9.72593C20.0381 10.0093 20.152 10.2762 20.3452 10.4721C19.8759 10.2954 19.332 10.4721 19.0632 10.9168C18.7598 11.4188 18.9211 12.0721 19.4231 12.3746C19.7475 12.5704 20.1338 12.5714 20.449 12.4128C20.1356 12.8046 20.1356 13.3768 20.4764 13.7695C20.4937 13.7895 20.5119 13.8078 20.5301 13.8251C20.9201 14.2159 21.5515 14.2442 21.9742 13.877L21.9861 13.8652C22.2631 13.6173 22.3797 13.2565 22.3277 12.913C22.4726 13.1335 22.6913 13.2857 22.9355 13.3522C23.1569 13.4123 23.3992 13.4032 23.627 13.3066C24.1673 13.0789 24.4206 12.4556 24.1928 11.9154C24.0789 11.6457 23.8666 11.4498 23.6152 11.3477C23.5414 11.3177 23.4639 11.2949 23.3847 11.2812C23.453 11.263 23.5177 11.2366 23.5796 11.2047C23.9559 11.0152 24.1983 10.6124 24.16 10.1669C24.1108 9.58197 23.596 9.14919 23.0111 9.19839L23.0129 9.20021ZM22.786 10.7719C22.8088 10.8184 22.7933 10.8721 22.7496 10.8922C22.7068 10.9113 22.6558 10.8967 22.6366 10.8575C22.6202 10.8165 22.6257 10.7701 22.6658 10.7418C22.704 10.7154 22.7651 10.7245 22.786 10.7728V10.7719ZM22.7505 11.1546C22.7387 11.1127 22.766 11.0671 22.8116 11.0525C22.8562 11.0379 22.9045 11.0671 22.9182 11.1172C22.9346 11.1673 22.8999 11.2138 22.8516 11.2202C22.8052 11.2256 22.7651 11.1956 22.7505 11.1546ZM22.9437 11.4853C22.9373 11.5372 22.8936 11.5719 22.8471 11.5646C22.8006 11.5564 22.7669 11.5154 22.7724 11.4716C22.7806 11.4288 22.8188 11.3933 22.8644 11.3924C22.9136 11.3924 22.9528 11.4334 22.9437 11.4853ZM22.4325 10.4885C22.4617 10.4512 22.5173 10.4484 22.5564 10.4831C22.5947 10.5177 22.5984 10.5705 22.561 10.6042C22.5273 10.6343 22.4708 10.638 22.438 10.6088C22.4052 10.5796 22.4025 10.5259 22.4325 10.4885ZM22.2521 10.2708C22.2968 10.2963 22.3141 10.351 22.2895 10.392C22.2649 10.433 22.2148 10.4475 22.1774 10.4257C22.1401 10.4029 22.1173 10.3619 22.1355 10.3163C22.1519 10.2735 22.2075 10.2453 22.253 10.2717L22.2521 10.2708ZM22.8598 11.8452C22.8453 11.8953 22.7915 11.9154 22.7478 11.8935C22.7068 11.8725 22.6895 11.8252 22.7004 11.7823C22.7141 11.7413 22.7624 11.7186 22.8079 11.7322C22.8535 11.7459 22.8772 11.7969 22.8598 11.8452ZM20.3889 9.80338C20.3561 9.41979 20.6404 9.08177 21.0239 9.04988C21.403 9.01708 21.7373 9.29497 21.7765 9.67126C21.6389 9.47355 21.403 9.35237 21.1451 9.37424C20.7615 9.40704 20.4773 9.74415 20.5101 10.1286C20.5101 10.1332 20.511 10.1378 20.5119 10.1414C20.4445 10.0448 20.3998 9.92911 20.3889 9.80246V9.80338ZM21.9715 10.2598C21.9606 10.3063 21.9159 10.3391 21.8722 10.3336C21.8294 10.3282 21.7966 10.2854 21.7993 10.2371C21.8029 10.1897 21.8467 10.1569 21.8977 10.1633C21.9496 10.1706 21.9815 10.2134 21.9706 10.2598H21.9715ZM21.628 10.238C21.6307 10.2854 21.597 10.3264 21.5542 10.3291C21.5105 10.3291 21.4686 10.31 21.4576 10.2617C21.4467 10.2179 21.4777 10.1614 21.5296 10.1596C21.5815 10.156 21.6253 10.1915 21.628 10.2389V10.238ZM21.2909 10.3081C21.3073 10.3528 21.2891 10.4047 21.2508 10.4248C21.2116 10.4439 21.1606 10.4266 21.136 10.3856C21.1114 10.3446 21.1296 10.2926 21.177 10.2699C21.2235 10.2471 21.2754 10.2644 21.2909 10.309V10.3081ZM20.9838 10.5988C20.9538 10.6298 20.9028 10.6316 20.8672 10.5988C20.8326 10.5669 20.8308 10.5086 20.8672 10.4721C20.9082 10.4402 20.9656 10.4457 20.9939 10.4831C21.023 10.5204 21.0185 10.5724 20.9838 10.5988ZM20.6385 10.7637C20.665 10.7191 20.7178 10.7045 20.7561 10.7327C20.7952 10.7601 20.8089 10.8129 20.7861 10.8503C20.7643 10.8876 20.7114 10.9013 20.6686 10.8821C20.6258 10.8621 20.6121 10.8093 20.6376 10.7646L20.6385 10.7637ZM21.3902 12.4046C21.4312 12.4192 21.4567 12.4684 21.4467 12.5149C21.4367 12.5613 21.3884 12.585 21.3392 12.5686C21.29 12.5522 21.2654 12.503 21.2827 12.4593C21.3009 12.4156 21.3492 12.391 21.3902 12.4046ZM20.4973 11.1054C20.5137 11.0562 20.5638 11.0279 20.6094 11.0434C20.654 11.058 20.6795 11.1035 20.665 11.1445C20.6595 11.1874 20.6176 11.2174 20.5702 11.2111C20.5228 11.2047 20.4909 11.1573 20.4973 11.1063V11.1054ZM20.7515 12.0329C20.7916 12.0074 20.8454 12.0138 20.8718 12.0484C20.8982 12.083 20.8909 12.1377 20.8572 12.1705C20.8226 12.2033 20.7688 12.196 20.7369 12.155C20.705 12.114 20.7123 12.0593 20.7515 12.0329ZM20.5492 11.8361C20.5328 11.7869 20.5602 11.735 20.6057 11.7222C20.6522 11.7085 20.6968 11.7322 20.7096 11.7741C20.7296 11.8133 20.7105 11.8616 20.6677 11.8835C20.6249 11.9044 20.572 11.8835 20.5492 11.837V11.8361ZM20.9848 12.2862C21.0166 12.2479 21.0622 12.2488 21.1014 12.268C21.1387 12.2898 21.1506 12.3408 21.1269 12.3818C21.1032 12.4228 21.0485 12.4356 21.0039 12.4092C20.9583 12.3846 20.9556 12.3199 20.9848 12.2853V12.2862ZM20.4736 11.4744C20.47 11.4224 20.5055 11.3814 20.5529 11.3823C20.6003 11.3823 20.6422 11.4197 20.6449 11.4625C20.6486 11.5063 20.6121 11.5473 20.5656 11.5545C20.5192 11.5618 20.4773 11.5263 20.4736 11.4744ZM20.1638 12.1486C20.1638 12.1486 20.1729 12.1504 20.1766 12.1513C20.0636 12.186 19.9397 12.1923 19.8167 12.1632C19.4413 12.0757 19.209 11.7012 19.2955 11.3259C19.3821 10.955 19.7493 10.7236 20.1201 10.8029C19.8896 10.873 19.701 11.0598 19.6427 11.3113C19.5552 11.6867 19.7885 12.0611 20.1638 12.1486ZM21.884 13.4378C21.6854 13.7677 21.2563 13.8734 20.9264 13.6738C20.6003 13.477 20.4937 13.057 20.6841 12.729C20.6795 12.9695 20.7989 13.2064 21.0203 13.3403C21.3501 13.539 21.7783 13.4333 21.9779 13.1035C21.9806 13.0998 21.9815 13.0953 21.9843 13.0916C21.9824 13.2101 21.9505 13.3294 21.8849 13.4378H21.884ZM21.7893 12.5367C21.7938 12.5841 21.7547 12.6251 21.7027 12.6288C21.6508 12.6324 21.6125 12.5814 21.6171 12.5367C21.6216 12.4875 21.6599 12.4611 21.7036 12.4566C21.7474 12.4529 21.7856 12.4894 21.7893 12.5358V12.5367ZM22.069 12.5723C22.0189 12.5859 21.9706 12.5595 21.9606 12.513C21.9505 12.4666 21.977 12.4192 22.0189 12.4083C22.0608 12.3964 22.11 12.4247 22.1264 12.4666C22.1455 12.513 22.1182 12.5586 22.069 12.5732V12.5723ZM21.9569 12.0402C21.7446 11.7951 21.3975 11.7359 21.1205 11.8753C21.1396 11.8525 21.157 11.8279 21.1724 11.8015C21.3401 11.5236 21.2891 11.1755 21.0704 10.955C21.0986 10.966 21.1269 10.9751 21.157 10.9824C21.4731 11.0562 21.7884 10.9004 21.9305 10.6234C21.9296 10.6535 21.9296 10.6835 21.9314 10.7145C21.9587 11.0379 22.2047 11.2903 22.5118 11.3395C22.4826 11.3477 22.4544 11.3568 22.4262 11.3687C22.1273 11.4953 21.9633 11.8069 22.0107 12.114C21.9943 12.0894 21.977 12.0648 21.956 12.0411L21.9569 12.0402ZM22.6749 12.165C22.6403 12.2042 22.5847 12.2087 22.551 12.1759C22.5173 12.1431 22.5127 12.0903 22.5419 12.0575C22.5738 12.0265 22.623 12.0174 22.6612 12.0429C22.7013 12.0693 22.7122 12.1276 22.6749 12.165ZM22.4025 12.4156C22.3624 12.4502 22.3041 12.4301 22.2813 12.39C22.2576 12.3472 22.274 12.3026 22.3059 12.2734C22.3405 12.247 22.3934 12.2552 22.4225 12.2926C22.4526 12.3299 22.4435 12.3846 22.4016 12.4165L22.4025 12.4156ZM23.7354 11.8643C23.9878 12.1559 23.9559 12.596 23.6644 12.8474C23.3765 13.0962 22.9437 13.0679 22.6904 12.7864C22.9182 12.8657 23.1796 12.8247 23.3755 12.6552C23.6662 12.4037 23.6981 11.9627 23.4466 11.6721C23.4439 11.6684 23.4402 11.6657 23.4375 11.6621C23.5496 11.7003 23.6534 11.7678 23.7363 11.8634L23.7354 11.8643ZM23.7245 9.99016C23.873 10.3409 23.7117 10.7446 23.3655 10.8976C23.5113 10.7054 23.5532 10.4439 23.453 10.2052C23.3036 9.85075 22.8945 9.68402 22.54 9.83435C22.5355 9.83617 22.5318 9.838 22.5282 9.83982C22.5993 9.74597 22.6958 9.66762 22.8125 9.61842C23.1669 9.46899 23.576 9.63482 23.7254 9.99016H23.7245Z" fill="#1D8E7C"/>
</g>
<path d="M23.6541 7.42099C23.3755 7.42099 23.1487 7.19516 23.1487 6.91561C23.1487 6.63605 23.3746 6.41022 23.6541 6.41022C23.9337 6.41022 24.1595 6.63605 24.1595 6.91561C24.1595 7.19516 23.9337 7.42099 23.6541 7.42099Z" fill="#1D8E7C"/>
<path d="M25.2568 6.84647C25.0128 6.84647 24.8152 6.64887 24.8152 6.40483C24.8152 6.16079 25.0128 5.96319 25.2568 5.96319C25.5009 5.96319 25.6985 6.16079 25.6985 6.40483C25.6985 6.64887 25.5009 6.84647 25.2568 6.84647Z" fill="#1D8E7C"/>
<path d="M26.9253 6.56321C26.7158 6.56321 26.5464 6.39384 26.5464 6.1844C26.5464 5.97496 26.7158 5.80559 26.9253 5.80559C27.1347 5.80559 27.3041 5.97496 27.3041 6.1844C27.3041 6.39384 27.1347 6.56321 26.9253 6.56321Z" fill="#1D8E7C"/>
<path d="M28.6089 6.56397C28.7834 6.56397 28.9249 6.4225 28.9249 6.24799C28.9249 6.07348 28.7834 5.93201 28.6089 5.93201C28.4344 5.93201 28.2929 6.07348 28.2929 6.24799C28.2929 6.4225 28.4344 6.56397 28.6089 6.56397Z" fill="#1D8E7C"/>
<path d="M30.2582 6.84303C30.1189 6.84303 30.006 6.73011 30.006 6.59079C30.006 6.45147 30.1189 6.33855 30.2582 6.33855C30.3975 6.33855 30.5105 6.45147 30.5105 6.59079C30.5105 6.73011 30.3975 6.84303 30.2582 6.84303Z" fill="#1D8E7C"/>
<path d="M31.8263 7.39361C31.7216 7.39361 31.6369 7.30893 31.6369 7.20421C31.6369 7.09949 31.7216 7.0148 31.8263 7.0148C31.931 7.0148 32.0157 7.09949 32.0157 7.20421C32.0157 7.30893 31.931 7.39361 31.8263 7.39361Z" fill="#1D8E7C"/>
<path d="M33.1766 8.14628C33.1074 8.14628 33.0509 8.08982 33.0509 8.02061C33.0509 7.95141 33.1074 7.89495 33.1766 7.89495C33.2458 7.89495 33.3022 7.95141 33.3022 8.02061C33.3022 8.08982 33.2458 8.14628 33.1766 8.14628Z" fill="#1D8E7C"/>
<path d="M10.7944 24.4683C10.7625 24.4519 10.6068 24.328 10.4384 24.2342C10.2726 24.1377 10.1051 24.0758 10.1051 24.0758C10.1051 24.0758 10.279 24.1158 10.4711 24.1277C10.6605 24.1423 10.8618 24.125 10.8964 24.1295C10.9665 24.1368 11.0129 24.2333 10.9811 24.3399C10.9647 24.3918 10.9328 24.4336 10.8991 24.4573C10.8636 24.4801 10.8254 24.4846 10.7944 24.4692V24.4683Z" fill="#1D8E7C"/>
<path d="M10.4784 24.8648C10.4575 24.8375 10.3682 24.6554 10.259 24.4997C10.1533 24.3431 10.0277 24.2119 10.0277 24.2119C10.0277 24.2119 10.0623 24.2402 10.1187 24.2802C10.1752 24.3203 10.2526 24.3713 10.3346 24.4177C10.4985 24.5124 10.6888 24.5871 10.7179 24.6053C10.7771 24.6417 10.7771 24.7492 10.7015 24.8302C10.6269 24.9122 10.5203 24.9222 10.4784 24.8658V24.8648Z" fill="#1D8E7C"/>
<path d="M10.0205 25.0855C10.0132 25.0509 10.0123 24.8479 9.98221 24.6621C9.95398 24.4718 9.89844 24.3015 9.89844 24.3015C9.89844 24.3015 9.91847 24.3425 9.95125 24.4026C9.98403 24.4627 10.0314 24.541 10.086 24.6193C10.1935 24.7777 10.3319 24.9234 10.3501 24.9535C10.3883 25.0136 10.3419 25.1092 10.2381 25.1511C10.1343 25.193 10.0341 25.1538 10.0205 25.0855Z" fill="#1D8E7C"/>
<path d="M9.51317 25.0855C9.52137 25.0527 9.60787 24.8688 9.6616 24.6858C9.71806 24.5055 9.74264 24.3252 9.74264 24.3252C9.74264 24.3252 9.74264 24.5055 9.7736 24.694C9.80183 24.8806 9.86284 25.0746 9.86649 25.1092C9.87468 25.1775 9.7909 25.2467 9.68072 25.2376C9.57054 25.2303 9.49587 25.1538 9.51317 25.0855Z" fill="#1D8E7C"/>
<path d="M9.05379 24.8653C9.07564 24.838 9.23408 24.7105 9.36066 24.5712C9.49178 24.431 9.59104 24.2816 9.59104 24.2816C9.59104 24.2816 9.57101 24.3226 9.5446 24.3854C9.51819 24.4483 9.48632 24.5348 9.459 24.6258C9.40164 24.8089 9.37432 25.0074 9.36248 25.0402C9.33971 25.1075 9.235 25.1303 9.13847 25.0748C9.04104 25.0201 9.01008 24.9172 9.0547 24.8644L9.05379 24.8653Z" fill="#1D8E7C"/>
<path d="M8.73775 24.4678C8.77053 24.4524 8.96449 24.4077 9.14206 24.3349C9.31963 24.2657 9.47352 24.1737 9.47352 24.1737C9.47352 24.1737 9.33329 24.2848 9.20489 24.4278C9.07558 24.5671 8.96358 24.7346 8.93808 24.7592C8.88891 24.8084 8.7851 24.7856 8.72136 24.6946C8.6904 24.649 8.67765 24.599 8.68038 24.558C8.68494 24.5161 8.70497 24.4833 8.73684 24.4687L8.73775 24.4678Z" fill="#1D8E7C"/>
<path d="M8.62378 23.9725C8.65839 23.9725 8.85781 24.0171 9.0463 24.0289C9.14009 24.0362 9.23298 24.0362 9.30218 24.0344C9.37139 24.0326 9.41601 24.028 9.41601 24.028C9.41601 24.028 9.3723 24.038 9.30582 24.0571C9.23935 24.0763 9.15102 24.1045 9.0636 24.14C8.88695 24.2092 8.71029 24.3121 8.67842 24.323C8.61286 24.3467 8.52908 24.2793 8.51269 24.1691C8.49448 24.059 8.55549 23.9706 8.62378 23.9725Z" fill="#1D8E7C"/>
<path d="M8.73729 23.4768C8.76917 23.4932 8.92488 23.617 9.09334 23.7108C9.25907 23.8073 9.42662 23.8692 9.42662 23.8692C9.42662 23.8692 9.2527 23.8292 9.06056 23.8173C8.87115 23.8028 8.66991 23.8201 8.63531 23.8155C8.56519 23.8082 8.51875 23.7117 8.55062 23.6052C8.56701 23.5533 8.59888 23.5114 8.63258 23.4877C8.66809 23.4649 8.70633 23.4604 8.73729 23.4759V23.4768Z" fill="#1D8E7C"/>
<path d="M9.05335 23.0796C9.0743 23.1069 9.16353 23.289 9.27281 23.4447C9.37844 23.6013 9.5041 23.7325 9.5041 23.7325C9.5041 23.7325 9.4695 23.7042 9.41304 23.6642C9.35658 23.6241 9.27918 23.5731 9.19723 23.5267C9.03332 23.432 8.843 23.3573 8.81386 23.3391C8.75467 23.3027 8.75467 23.1952 8.83025 23.1142C8.90492 23.0322 9.01146 23.0222 9.05335 23.0787V23.0796Z" fill="#1D8E7C"/>
<path d="M9.5127 22.859C9.51998 22.8936 9.52089 23.0967 9.55094 23.2825C9.57917 23.4728 9.63472 23.6431 9.63472 23.6431C9.63472 23.6431 9.61468 23.6021 9.5819 23.542C9.54912 23.4819 9.50177 23.4036 9.44713 23.3253C9.33968 23.1668 9.20127 23.0211 9.18306 22.9911C9.14481 22.931 9.19125 22.8354 9.29506 22.7935C9.39887 22.7516 9.49904 22.7908 9.5127 22.859Z" fill="#1D8E7C"/>
<path d="M10.0202 22.8589C10.0121 22.8916 9.92555 23.0756 9.87182 23.2586C9.81536 23.4389 9.79078 23.6192 9.79078 23.6192C9.79078 23.6192 9.79078 23.4389 9.75982 23.2504C9.73159 23.0637 9.67058 22.8698 9.66694 22.8352C9.65874 22.7669 9.74252 22.6977 9.8527 22.7068C9.96288 22.7141 10.0376 22.7906 10.0202 22.8589Z" fill="#1D8E7C"/>
<path d="M10.4785 23.0796C10.4566 23.107 10.2982 23.2344 10.1716 23.3738C10.0405 23.514 9.94122 23.6633 9.94122 23.6633C9.94122 23.6633 9.96126 23.6224 9.98766 23.5595C10.0141 23.4967 10.0459 23.4102 10.0733 23.3191C10.1306 23.1361 10.1579 22.9376 10.1698 22.9048C10.1925 22.8374 10.2973 22.8147 10.3938 22.8702C10.4912 22.9248 10.5222 23.0277 10.4776 23.0806L10.4785 23.0796Z" fill="#1D8E7C"/>
<path d="M10.7946 23.4769C10.7619 23.4924 10.5679 23.537 10.3903 23.6098C10.2128 23.679 10.0589 23.771 10.0589 23.771C10.0589 23.771 10.1991 23.6599 10.3275 23.517C10.4568 23.3776 10.5688 23.2101 10.5943 23.1855C10.6435 23.1363 10.7473 23.1591 10.811 23.2501C10.842 23.2957 10.8547 23.3458 10.852 23.3867C10.8475 23.4286 10.8274 23.4614 10.7955 23.476L10.7946 23.4769Z" fill="#1D8E7C"/>
<path d="M10.9084 23.9722C10.8738 23.9722 10.6744 23.9276 10.4859 23.9157C10.3921 23.9084 10.2992 23.9084 10.23 23.9103C10.1608 23.9121 10.1162 23.9166 10.1162 23.9166C10.1162 23.9166 10.1599 23.9066 10.2264 23.8875C10.2929 23.8684 10.3812 23.8401 10.4686 23.8046C10.6453 23.7354 10.8219 23.6325 10.8538 23.6216C10.9194 23.5979 11.0031 23.6653 11.0195 23.7755C11.0377 23.8857 10.9767 23.974 10.9084 23.9722Z" fill="#1D8E7C"/>
</g>
</svg>
