<svg width="54" height="27" viewBox="0 0 54 27" fill="none" xmlns="http://www.w3.org/2000/svg">
<path d="M0 20.5L7.2809 27H54V0H7.2809L0 6V20.5Z" fill="url(#paint0_linear_46_88)"/>
<path d="M9.18164 12.3672V15.082C9.08073 15.2155 8.92285 15.362 8.70801 15.5215C8.49642 15.6777 8.21484 15.8128 7.86328 15.9268C7.51172 16.0407 7.07389 16.0977 6.5498 16.0977C6.10384 16.0977 5.69531 16.0228 5.32422 15.873C4.95312 15.7201 4.63249 15.4971 4.3623 15.2041C4.09538 14.9111 3.88867 14.5547 3.74219 14.1348C3.5957 13.7116 3.52246 13.2298 3.52246 12.6895V12.1963C3.52246 11.6592 3.58919 11.1807 3.72266 10.7607C3.85938 10.3376 4.05469 9.97949 4.30859 9.68652C4.5625 9.39355 4.86849 9.1722 5.22656 9.02246C5.58789 8.86947 5.99642 8.79297 6.45215 8.79297C7.03483 8.79297 7.5166 8.89062 7.89746 9.08594C8.28158 9.27799 8.5778 9.54492 8.78613 9.88672C8.99447 10.2285 9.1263 10.6191 9.18164 11.0586H7.98047C7.94141 10.8112 7.86491 10.5898 7.75098 10.3945C7.6403 10.1992 7.48079 10.0462 7.27246 9.93555C7.06738 9.82161 6.80046 9.76465 6.47168 9.76465C6.18848 9.76465 5.93945 9.81836 5.72461 9.92578C5.50977 10.0332 5.33073 10.1911 5.1875 10.3994C5.04753 10.6077 4.94173 10.8617 4.87012 11.1611C4.7985 11.4606 4.7627 11.8024 4.7627 12.1865V12.6895C4.7627 13.0801 4.80339 13.4268 4.88477 13.7295C4.9694 14.0322 5.08984 14.2878 5.24609 14.4961C5.4056 14.7044 5.59928 14.8623 5.82715 14.9697C6.05501 15.0739 6.31217 15.126 6.59863 15.126C6.87858 15.126 7.10807 15.1032 7.28711 15.0576C7.46615 15.0088 7.60775 14.9518 7.71191 14.8867C7.81934 14.8184 7.90234 14.7533 7.96094 14.6914V13.2803H6.48145V12.3672H9.18164ZM13.2006 14.7549V10.7168H14.3822V16H13.2689L13.2006 14.7549ZM13.3666 13.6562L13.7621 13.6465C13.7621 14.0013 13.723 14.3285 13.6449 14.6279C13.5668 14.9242 13.4464 15.1829 13.2836 15.4043C13.1208 15.6224 12.9125 15.7933 12.6586 15.917C12.4047 16.0374 12.1003 16.0977 11.7455 16.0977C11.4883 16.0977 11.2523 16.0602 11.0375 15.9854C10.8227 15.9105 10.6371 15.7949 10.4809 15.6387C10.3279 15.4824 10.209 15.279 10.1244 15.0283C10.0398 14.7777 9.99746 14.4782 9.99746 14.1299V10.7168H11.1742V14.1396C11.1742 14.3317 11.197 14.4928 11.2426 14.623C11.2882 14.75 11.35 14.8525 11.4281 14.9307C11.5062 15.0088 11.5974 15.0641 11.7016 15.0967C11.8057 15.1292 11.9164 15.1455 12.0336 15.1455C12.3689 15.1455 12.6326 15.0804 12.8246 14.9502C13.0199 14.8167 13.1583 14.6377 13.2396 14.4131C13.3243 14.1885 13.3666 13.9362 13.3666 13.6562ZM16.3748 8.5V16H15.1932V8.5H16.3748ZM19.6561 10.7168L17.3562 13.2656L16.0965 14.5547L15.7889 13.5586L16.741 12.3818L18.2352 10.7168H19.6561ZM18.4891 16L16.7752 13.5195L17.5174 12.6943L19.8514 16H18.4891ZM23.1818 14.7549V10.7168H24.3635V16H23.2502L23.1818 14.7549ZM23.3479 13.6562L23.7434 13.6465C23.7434 14.0013 23.7043 14.3285 23.6262 14.6279C23.548 14.9242 23.4276 15.1829 23.2648 15.4043C23.1021 15.6224 22.8937 15.7933 22.6398 15.917C22.3859 16.0374 22.0816 16.0977 21.7268 16.0977C21.4696 16.0977 21.2336 16.0602 21.0187 15.9854C20.8039 15.9105 20.6184 15.7949 20.4621 15.6387C20.3091 15.4824 20.1903 15.279 20.1057 15.0283C20.021 14.7777 19.9787 14.4782 19.9787 14.1299V10.7168H21.1555V14.1396C21.1555 14.3317 21.1783 14.4928 21.2238 14.623C21.2694 14.75 21.3312 14.8525 21.4094 14.9307C21.4875 15.0088 21.5786 15.0641 21.6828 15.0967C21.787 15.1292 21.8977 15.1455 22.0148 15.1455C22.3501 15.1455 22.6138 15.0804 22.8059 14.9502C23.0012 14.8167 23.1395 14.6377 23.2209 14.4131C23.3055 14.1885 23.3479 13.9362 23.3479 13.6562ZM26.3512 11.7227V16H25.1744V10.7168H26.2975L26.3512 11.7227ZM27.9674 10.6826L27.9576 11.7764C27.886 11.7633 27.8079 11.7536 27.7232 11.7471C27.6419 11.7406 27.5605 11.7373 27.4791 11.7373C27.2773 11.7373 27.0999 11.7666 26.9469 11.8252C26.7939 11.8805 26.6653 11.9619 26.5611 12.0693C26.4602 12.1735 26.3821 12.3005 26.3268 12.4502C26.2714 12.5999 26.2389 12.7676 26.2291 12.9531L25.9605 12.9727C25.9605 12.6406 25.9931 12.333 26.0582 12.0498C26.1233 11.7666 26.221 11.5176 26.3512 11.3027C26.4846 11.0879 26.6507 10.9202 26.8492 10.7998C27.051 10.6794 27.2838 10.6191 27.5475 10.6191C27.6191 10.6191 27.6956 10.6257 27.777 10.6387C27.8616 10.6517 27.9251 10.6663 27.9674 10.6826ZM31.1074 14.9404V12.4209C31.1074 12.2321 31.0732 12.0693 31.0049 11.9326C30.9365 11.7959 30.8324 11.6901 30.6924 11.6152C30.5557 11.5404 30.3831 11.5029 30.1748 11.5029C29.9827 11.5029 29.8167 11.5355 29.6768 11.6006C29.5368 11.6657 29.4277 11.7536 29.3496 11.8643C29.2715 11.9749 29.2324 12.1003 29.2324 12.2402H28.0605C28.0605 12.0319 28.111 11.8301 28.2119 11.6348C28.3128 11.4395 28.4593 11.2653 28.6514 11.1123C28.8434 10.9593 29.0729 10.8389 29.3398 10.751C29.6068 10.6631 29.9062 10.6191 30.2383 10.6191C30.6354 10.6191 30.987 10.6859 31.293 10.8193C31.6022 10.9528 31.8447 11.1546 32.0205 11.4248C32.1995 11.6917 32.2891 12.027 32.2891 12.4307V14.7793C32.2891 15.0202 32.3053 15.2367 32.3379 15.4287C32.3737 15.6175 32.4242 15.7819 32.4893 15.9219V16H31.2832C31.2279 15.873 31.1839 15.7119 31.1514 15.5166C31.1221 15.318 31.1074 15.126 31.1074 14.9404ZM31.2783 12.7871L31.2881 13.5146H30.4434C30.2253 13.5146 30.0332 13.5358 29.8672 13.5781C29.7012 13.6172 29.5628 13.6758 29.4521 13.7539C29.3415 13.832 29.2585 13.9264 29.2031 14.0371C29.1478 14.1478 29.1201 14.2731 29.1201 14.4131C29.1201 14.5531 29.1527 14.6816 29.2178 14.7988C29.2829 14.9128 29.3773 15.0023 29.501 15.0674C29.6279 15.1325 29.7809 15.165 29.96 15.165C30.2008 15.165 30.4108 15.1162 30.5898 15.0186C30.7721 14.9176 30.9154 14.7956 31.0195 14.6523C31.1237 14.5059 31.179 14.3675 31.1855 14.2373L31.5664 14.7598C31.5273 14.8932 31.4606 15.0365 31.3662 15.1895C31.2718 15.3424 31.1481 15.4889 30.9951 15.6289C30.8454 15.7656 30.6647 15.8779 30.4531 15.9658C30.2448 16.0537 30.0039 16.0977 29.7305 16.0977C29.3854 16.0977 29.0778 16.0293 28.8076 15.8926C28.5374 15.7526 28.3258 15.5654 28.1729 15.3311C28.0199 15.0934 27.9434 14.8249 27.9434 14.5254C27.9434 14.2454 27.9954 13.998 28.0996 13.7832C28.207 13.5651 28.3633 13.3828 28.5684 13.2363C28.7767 13.0898 29.0306 12.9792 29.3301 12.9043C29.6296 12.8262 29.9714 12.7871 30.3555 12.7871H31.2783ZM34.2963 11.791V16H33.1195V10.7168H34.2279L34.2963 11.791ZM34.1059 13.1631L33.7055 13.1582C33.7055 12.7936 33.751 12.4567 33.8422 12.1475C33.9333 11.8382 34.0668 11.5697 34.2426 11.3418C34.4184 11.1107 34.6365 10.9333 34.8969 10.8096C35.1605 10.6826 35.4649 10.6191 35.81 10.6191C36.0508 10.6191 36.2706 10.6549 36.4691 10.7266C36.671 10.7949 36.8451 10.904 36.9916 11.0537C37.1413 11.2035 37.2553 11.3955 37.3334 11.6299C37.4148 11.8643 37.4555 12.1475 37.4555 12.4795V16H36.2787V12.582C36.2787 12.3249 36.2396 12.123 36.1615 11.9766C36.0867 11.8301 35.9776 11.7259 35.8344 11.6641C35.6944 11.599 35.5268 11.5664 35.3314 11.5664C35.1101 11.5664 34.9213 11.6087 34.765 11.6934C34.612 11.778 34.4867 11.8936 34.3891 12.04C34.2914 12.1865 34.2198 12.3558 34.1742 12.5479C34.1286 12.7399 34.1059 12.945 34.1059 13.1631ZM37.3822 12.8506L36.8305 12.9727C36.8305 12.6536 36.8744 12.3525 36.9623 12.0693C37.0535 11.7829 37.1853 11.5322 37.3578 11.3174C37.5336 11.0993 37.7501 10.9284 38.0072 10.8047C38.2644 10.681 38.559 10.6191 38.891 10.6191C39.1612 10.6191 39.4021 10.6566 39.6137 10.7314C39.8285 10.8031 40.0108 10.917 40.1605 11.0732C40.3103 11.2295 40.4242 11.4329 40.5023 11.6836C40.5805 11.931 40.6195 12.2305 40.6195 12.582V16H39.4379V12.5771C39.4379 12.3102 39.3988 12.1035 39.3207 11.957C39.2458 11.8105 39.1384 11.7096 38.9984 11.6543C38.8585 11.5957 38.6908 11.5664 38.4955 11.5664C38.3132 11.5664 38.1521 11.6006 38.0121 11.6689C37.8754 11.734 37.7598 11.8268 37.6654 11.9473C37.571 12.0645 37.4994 12.1995 37.4506 12.3525C37.405 12.5055 37.3822 12.6715 37.3822 12.8506ZM42.866 14.8281L44.0867 10.7168H44.8387L44.6336 11.9473L43.4031 16H42.7293L42.866 14.8281ZM42.1482 10.7168L43.1004 14.8477L43.1785 16H42.4266L40.9959 10.7168H42.1482ZM45.9813 14.7988L46.9041 10.7168H48.0516L46.6258 16H45.8738L45.9813 14.7988ZM44.9656 10.7168L46.1717 14.7793L46.323 16H45.6492L44.4041 11.9424L44.199 10.7168H44.9656ZM48.2277 13.417V13.3047C48.2277 12.9238 48.2831 12.5706 48.3937 12.2451C48.5044 11.9163 48.6639 11.6315 48.8723 11.3906C49.0839 11.1465 49.341 10.9577 49.6437 10.8242C49.9497 10.6875 50.2948 10.6191 50.6789 10.6191C51.0663 10.6191 51.4113 10.6875 51.7141 10.8242C52.0201 10.9577 52.2788 11.1465 52.4904 11.3906C52.702 11.6315 52.8632 11.9163 52.9738 12.2451C53.0845 12.5706 53.1398 12.9238 53.1398 13.3047V13.417C53.1398 13.7979 53.0845 14.151 52.9738 14.4766C52.8632 14.8021 52.702 15.0869 52.4904 15.3311C52.2788 15.5719 52.0217 15.7607 51.7189 15.8975C51.4162 16.0309 51.0728 16.0977 50.6887 16.0977C50.3013 16.0977 49.9546 16.0309 49.6486 15.8975C49.3459 15.7607 49.0887 15.5719 48.8771 15.3311C48.6656 15.0869 48.5044 14.8021 48.3937 14.4766C48.2831 14.151 48.2277 13.7979 48.2277 13.417ZM49.4045 13.3047V13.417C49.4045 13.6546 49.4289 13.8792 49.4777 14.0908C49.5266 14.3024 49.6031 14.488 49.7072 14.6475C49.8114 14.807 49.9449 14.9323 50.1076 15.0234C50.2704 15.1146 50.4641 15.1602 50.6887 15.1602C50.9068 15.1602 51.0956 15.1146 51.2551 15.0234C51.4178 14.9323 51.5513 14.807 51.6555 14.6475C51.7596 14.488 51.8361 14.3024 51.885 14.0908C51.937 13.8792 51.9631 13.6546 51.9631 13.417V13.3047C51.9631 13.0703 51.937 12.849 51.885 12.6406C51.8361 12.429 51.758 12.2419 51.6506 12.0791C51.5464 11.9163 51.413 11.7894 51.2502 11.6982C51.0907 11.6038 50.9003 11.5566 50.6789 11.5566C50.4576 11.5566 50.2655 11.6038 50.1027 11.6982C49.9432 11.7894 49.8114 11.9163 49.7072 12.0791C49.6031 12.2419 49.5266 12.429 49.4777 12.6406C49.4289 12.849 49.4045 13.0703 49.4045 13.3047Z" fill="white"/>
<defs>
<linearGradient id="paint0_linear_46_88" x1="27" y1="0" x2="27" y2="27" gradientUnits="userSpaceOnUse">
<stop stop-color="#2FCDA9"/>
<stop offset="1" stop-color="#0E5655"/>
</linearGradient>
</defs>
</svg>
