<svg width="52" height="46" viewBox="0 0 52 46" fill="none" xmlns="http://www.w3.org/2000/svg">
<g opacity="0.5">
<path d="M13.3669 7.57366C13.6215 7.91368 13.8408 8.30303 13.9959 8.74082C14.1518 9.17686 14.2407 9.66046 14.2504 10.1582C14.2751 11.1588 13.9941 12.1824 13.5774 13.1038L13.4876 13.3029C13.093 14.1749 12.0668 14.5625 11.1938 14.1688C10.3217 13.7741 9.93415 12.747 10.3279 11.875C10.4935 11.5094 10.7701 11.2293 11.0995 11.0558C11.7082 10.7351 12.2676 10.3326 12.6922 9.76352C13.1185 9.20064 13.374 8.43076 13.3669 7.57455V7.57366Z" fill="white"/>
<path d="M45.3656 18.1528C45.3366 18.1986 45.2811 18.2145 45.2291 18.2048C44.5288 18.0321 43.8611 17.6023 43.359 17.035C42.8507 16.4712 42.4825 15.8097 42.1733 15.1684L41.303 13.3115C41.0097 12.7249 40.7005 12.1814 40.3517 11.7083C39.6576 10.8028 38.6965 10.0629 37.6536 9.65239C37.1321 9.44714 36.5912 9.31677 36.0574 9.27449C35.9235 9.25863 35.7967 9.25864 35.6601 9.25511L35.2364 9.25864C34.9598 9.27801 34.6859 9.29475 34.4252 9.35024C33.376 9.53611 32.5057 10.0276 31.7825 10.7614C31.0558 11.4917 30.5017 12.4879 30.0719 13.5767C29.2218 15.7692 28.8765 18.3308 28.8563 20.8095C28.8563 20.9496 28.843 21.0861 28.814 21.22C30.1371 22.9043 30.9087 24.9312 30.9087 27.114C30.9087 32.9498 25.3865 36.7322 18.5897 36.4618C13.6735 36.2698 7 32.9498 7 27.114C7 24.8202 7.90289 23.3148 8.47282 22.5977C8.47899 22.5845 8.49925 22.5651 8.52832 22.529C8.55474 22.5 8.58733 22.4603 8.62609 22.4119C8.64899 22.3854 8.66838 22.3599 8.6948 22.3308C9.85491 20.9038 15.0547 13.9572 13.3476 5.90602C13.3537 5.93509 13.9589 6.06106 14.0047 6.07603C14.5799 6.26102 15.1331 6.51735 15.6546 6.82037C17.478 7.88183 18.8821 9.53787 19.8238 11.4106C20.2572 12.2721 20.5981 13.1785 20.8623 14.1052C21.1363 15.0654 21.175 16.3294 21.9476 17.0535C22.3871 17.4657 23.0531 17.6093 23.6327 17.4437C24.0758 17.3169 24.4642 17.0165 24.717 16.6333C24.9743 16.2431 24.9875 15.6591 25.1126 15.2063C25.427 14.0673 25.841 12.9592 26.3669 11.9004C27.0646 10.4963 28.0053 9.12122 29.3355 8.02012C29.9935 7.4731 30.7528 7.00976 31.5676 6.69441C32.3824 6.37201 33.2421 6.19231 34.0799 6.14034C34.5036 6.10774 34.914 6.12712 35.3245 6.1465L35.927 6.21169C36.1323 6.24076 36.3437 6.27335 36.5463 6.32268C37.3673 6.49885 38.1424 6.80452 38.856 7.19563C39.5633 7.59643 40.2116 8.08178 40.778 8.64554C41.0617 8.92566 41.3286 9.22252 41.5664 9.5414C41.8042 9.85763 42.0289 10.2091 42.2112 10.5544C42.5856 11.2485 42.8366 11.9656 43.026 12.6588C43.2251 13.3494 43.3652 14.0374 43.5114 14.6883C43.6611 15.3331 43.8276 15.9524 44.1007 16.5162C44.3746 17.0799 44.7781 17.5811 45.3321 17.9722C45.3912 18.011 45.407 18.0929 45.3647 18.1511L45.3656 18.1528Z" fill="white"/>
<path d="M26.4664 24.5981C26.5598 24.1374 26.6417 23.6944 26.8611 23.2398C26.9113 23.128 26.9562 23.017 27.0134 22.9095L27.2169 22.5942L27.4292 22.2885C27.5032 22.1898 27.5948 22.1053 27.6794 22.0163C28.3647 21.2984 29.2244 20.9179 30.0031 20.7461C30.7915 20.5734 31.535 20.5902 32.2423 20.68C32.9497 20.7778 33.6244 20.9522 34.2666 21.2323C35.5914 21.7934 36.6167 22.7677 37.2968 23.8882C37.635 24.4493 37.8905 25.0571 38.042 25.6702C38.1935 26.2656 38.2834 26.8338 38.6533 27.2646L38.656 27.2672C38.7 27.3183 38.6938 27.3958 38.6428 27.4398C38.5996 27.4768 38.537 27.4786 38.4921 27.4469C37.9504 27.0619 37.6835 26.4207 37.4104 25.9124C37.1435 25.4024 36.8044 24.954 36.4159 24.5629C35.639 23.7842 34.6515 23.2601 33.6781 23.1174C32.6792 22.9571 31.5843 23.0786 30.8541 23.4548C30.4947 23.6459 30.2753 23.889 30.1996 24.1013C30.1212 24.3136 30.1282 24.525 30.1626 24.8228C30.2833 25.8543 29.5451 26.7889 28.5127 26.9096C27.4812 27.0302 26.5466 26.2921 26.4259 25.2597C26.4021 25.0597 26.4109 24.8642 26.4479 24.6765L26.4647 24.5981H26.4664Z" fill="white"/>
<path d="M25.2552 21.7126C26.6831 19.6857 28.8281 18.4331 31.0866 18.0684C32.2194 17.8949 33.3936 17.9548 34.4595 18.2561C35.5315 18.5441 36.5093 19.0541 37.3567 19.7051C38.1953 20.3658 38.907 21.1832 39.403 22.102C39.8936 23.0102 40.1746 23.921 40.4732 24.7737C40.771 25.629 41.0784 26.4324 41.5875 27.1291C42.0817 27.8259 42.767 28.4152 43.6338 28.6152H43.6356C43.7016 28.631 43.7422 28.6962 43.7272 28.7623C43.714 28.8204 43.6611 28.8592 43.6039 28.8565C42.6358 28.8248 41.7135 28.3077 41.0167 27.6339C40.2979 26.9644 39.7712 26.1108 39.3096 25.3075C38.8454 24.4997 38.4155 23.714 37.8993 23.0903C37.3946 22.4746 36.7665 21.9954 36.0838 21.6422C35.395 21.3021 34.6559 21.0881 33.9275 21.0423C33.1972 20.985 32.5048 21.1004 31.8547 21.3347C30.5546 21.8166 29.4878 22.8472 29.0271 23.9633C28.5603 25.0952 27.2645 25.6352 26.1317 25.1683C24.9998 24.7014 24.4598 23.4057 24.9267 22.2729C24.9892 22.1213 25.0667 21.9795 25.1566 21.85L25.2544 21.7117L25.2552 21.7126Z" fill="white"/>
<path d="M23.9753 20.5144C24.3039 19.6714 24.695 19.0609 25.1196 18.4936C25.5442 17.9325 26.0031 17.4304 26.4937 16.9662C27.4794 16.0457 28.614 15.2837 29.8974 14.7358C30.5387 14.4654 31.2188 14.2505 31.927 14.128C32.6361 14.0073 33.3716 13.9809 34.093 14.0531C35.5483 14.1835 36.896 14.7807 37.968 15.5533C38.2437 15.7418 38.4877 15.9576 38.7388 16.1637L39.0876 16.4949L39.2603 16.6605L39.44 16.8526C39.9156 17.3696 40.2803 17.9228 40.5772 18.469C41.1665 19.5674 41.5373 20.643 41.9258 21.6639C42.3072 22.6848 42.7018 23.66 43.3044 24.473C43.6021 24.8809 43.958 25.2394 44.3861 25.5213C44.8133 25.8014 45.3119 26.0031 45.8457 26.1176C45.9118 26.1317 45.954 26.1969 45.9399 26.2638C45.9285 26.3184 45.8818 26.3563 45.8289 26.3607C45.259 26.4039 44.6627 26.3387 44.091 26.1405C43.5202 25.9458 42.9749 25.6322 42.5089 25.2394C41.5787 24.4431 40.8996 23.4477 40.2768 22.5043C39.6593 21.5556 39.0964 20.6165 38.4692 19.8616C38.1601 19.4829 37.8332 19.1613 37.5003 18.9217L37.3761 18.8319L37.2263 18.7359L36.9303 18.5447C36.7277 18.4355 36.5331 18.3104 36.3287 18.2223C34.6956 17.4366 33.1452 17.6242 31.7323 18.4928C31.0276 18.92 30.3705 19.5154 29.8208 20.1867C29.5433 20.5179 29.2923 20.8711 29.0888 21.2208C28.888 21.5644 28.7347 21.929 28.6871 22.1272C28.37 23.4723 27.0231 24.3056 25.6789 23.9885C24.3338 23.6714 23.5005 22.3246 23.8176 20.9803C23.8441 20.8702 23.8767 20.7628 23.9163 20.6597L23.9727 20.5152L23.9753 20.5144Z" fill="white"/>
<path d="M45.8069 23.5755C45.4678 23.5297 45.1207 23.4451 44.793 23.2998C44.4706 23.1483 44.1588 22.9606 43.8769 22.7351C43.3176 22.2815 42.8507 21.7301 42.4561 21.1584C42.05 20.5884 41.7109 19.9939 41.3849 19.4081L40.4441 17.6816C40.135 17.124 39.8152 16.591 39.4858 16.1118C39.1554 15.6318 38.796 15.2151 38.4234 14.9156C37.6562 14.2576 36.7251 13.8806 35.7694 13.826C34.8215 13.7669 33.8112 13.9925 32.9567 14.469C32.1023 14.9412 31.3491 15.6282 30.6999 16.4809C29.3927 18.1933 28.5083 20.4352 27.7807 22.7545C27.3808 24.0318 26.0207 24.7426 24.7434 24.3427C23.4662 23.9428 22.7553 22.5827 23.1552 21.3055C23.1596 21.2905 23.1684 21.2641 23.1737 21.2491C23.6247 19.9243 24.17 18.6065 24.8624 17.3248C25.5486 16.0431 26.3898 14.7914 27.453 13.6586C28.5215 12.539 29.8455 11.5278 31.3976 10.9437C32.1666 10.6434 32.9717 10.4619 33.7865 10.3685C34.6031 10.276 35.4434 10.3025 36.2618 10.4663C37.9037 10.7746 39.4276 11.652 40.5005 12.8596C41.0511 13.4921 41.4395 14.166 41.7531 14.8258C42.0729 15.4855 42.301 16.1444 42.5124 16.7892C42.9388 18.0753 43.2409 19.3314 43.6822 20.4986C44.1271 21.6473 44.6997 22.7686 45.8739 23.3429L45.8783 23.3447C45.9391 23.3747 45.9646 23.4478 45.9347 23.5094C45.9109 23.5579 45.8589 23.5843 45.8078 23.5773L45.8069 23.5755Z" fill="white"/>
<path d="M13.241 6.86027L10.5253 8.08997L14.2514 9.25537L14.9191 7.57378L13.241 6.86027Z" fill="white"/>
<path d="M12.6191 3.91645C12.8085 3.46104 13.1819 3.01532 13.6752 3.00035C14.1668 2.98537 14.5781 3.42405 14.7023 3.89972C14.8274 4.37539 14.734 4.87749 14.6398 5.36021C14.7208 5.07569 14.8054 4.78412 14.986 4.5498C15.1666 4.31637 15.4687 4.15077 15.7567 4.2186C16.0783 4.29435 16.28 4.63701 16.3002 4.96734C16.3205 5.29767 16.2007 5.6183 16.0827 5.92661C16.2509 5.45358 16.9345 5.26507 17.3212 5.58571C17.7079 5.90635 17.6497 6.61281 17.2164 6.86563C17.4736 6.63924 17.9263 6.78371 18.0734 7.09289C18.2206 7.40208 18.1025 7.78966 17.8638 8.03454C17.6242 8.27942 17.2877 8.40451 16.9539 8.47762C15.0829 8.88459 12.9652 7.71743 12.4878 5.82883C12.3284 5.19989 12.3707 4.51809 12.6208 3.91734L12.6191 3.91645Z" fill="white"/>
<path d="M11.3392 33.835C13.8206 36.711 22.262 36.2803 23.4864 40.2918C25.0227 37.2378 25.7529 35.9473 27.7305 33.739C26.3405 34.3248 23.0892 35.1299 21.589 35.2981C18.7332 35.6179 14.1967 34.1354 11.3392 33.835Z" fill="white"/>
<path d="M25.76 34.0929L21.7671 43.0317L22.2119 43.2304L26.2048 34.2916L25.76 34.0929Z" fill="white"/>
<path d="M18.5738 42.5162C18.9746 42.6316 19.3754 42.6985 19.7762 42.7514C20.177 42.8034 20.5778 42.8368 20.9786 42.8544C21.3794 42.8712 21.7802 42.8738 22.181 42.85C22.5818 42.8298 22.9826 42.7901 23.3834 42.7003C23.6194 42.6474 23.8538 42.7954 23.9066 43.0324C23.9595 43.2685 23.8115 43.5028 23.5745 43.5556C23.5102 43.5697 23.4433 43.5688 23.3825 43.5556C22.9817 43.4658 22.5809 43.4261 22.1801 43.4059C21.7793 43.3821 21.3785 43.3839 20.9777 43.4015C20.5769 43.4191 20.1761 43.4526 19.7753 43.5045C19.3745 43.5565 18.9737 43.6243 18.5729 43.7397C18.2355 43.8366 17.8832 43.6411 17.7863 43.3037C17.6894 42.9663 17.8849 42.614 18.2223 42.5171C18.3404 42.4827 18.4628 42.4862 18.5729 42.5171L18.5738 42.5162Z" fill="white"/>
<path d="M12.4217 24.6107C12.4032 24.8283 12.3918 25.0485 12.3918 25.2705C12.3918 29.5956 15.8977 33.1015 20.2228 33.1015C22.3184 33.1015 24.2202 32.277 25.6252 30.9363C24.2677 31.8603 22.6293 32.4003 20.864 32.4003C16.4147 32.4003 12.7688 28.9702 12.4208 24.6098L12.4217 24.6107Z" fill="#0D808A"/>
<path d="M14.3236 15.2557C14.1862 15.3385 14.0884 15.4618 14.0347 15.601C13.8708 15.4398 13.6303 15.3631 13.389 15.4195C13.0155 15.5076 12.7829 15.882 12.871 16.2554C12.9071 16.4114 12.9944 16.5426 13.1098 16.6369C12.9054 16.7435 12.7583 16.9478 12.738 17.1945C12.7063 17.5776 12.99 17.9133 13.3731 17.9458C13.5326 17.9591 13.6841 17.9168 13.8092 17.8357C13.8479 18.063 13.9968 18.2665 14.2249 18.3616C14.579 18.5105 14.986 18.3449 15.1349 17.9908C15.1974 17.8428 15.2036 17.686 15.1657 17.5415C15.3939 17.575 15.6326 17.4957 15.7947 17.309C16.0457 17.0183 16.0131 16.5787 15.7224 16.3286C15.6009 16.2237 15.4538 16.1691 15.3049 16.1603C15.4071 15.9542 15.4062 15.7014 15.2776 15.4908C15.0785 15.1623 14.6513 15.0575 14.3227 15.2557H14.3236ZM14.7764 16.0599C14.8248 16.1392 14.831 16.2378 14.7949 16.3242C14.7922 16.3294 14.7896 16.3356 14.7869 16.3409L14.72 16.4757L14.8706 16.4836C14.9367 16.4871 14.9966 16.5118 15.0459 16.5541C15.1419 16.6369 15.1736 16.7716 15.1243 16.8888C15.112 16.917 15.0961 16.9425 15.0759 16.9663C15.0107 17.0421 14.9111 17.0791 14.8116 17.0641L14.6627 17.0421L14.7015 17.1874C14.7182 17.2508 14.7138 17.3151 14.6883 17.3759C14.6583 17.4482 14.602 17.5036 14.5297 17.5336C14.4575 17.5627 14.3782 17.5627 14.306 17.5327C14.2135 17.494 14.1483 17.4112 14.1316 17.3116L14.106 17.1627L13.9792 17.2447C13.9246 17.2799 13.8611 17.2966 13.7959 17.2905C13.6356 17.2773 13.5158 17.1354 13.529 16.9751C13.5317 16.9452 13.5387 16.9152 13.5511 16.887C13.5775 16.8245 13.6251 16.7725 13.6858 16.7417L13.8189 16.6721L13.7017 16.577C13.6506 16.5356 13.6154 16.4801 13.6013 16.4175C13.5872 16.3567 13.5925 16.2942 13.6163 16.2378C13.6524 16.1515 13.7281 16.0872 13.8189 16.0669C13.9166 16.044 14.0179 16.0722 14.0902 16.1436L14.1976 16.2493L14.2522 16.1083L14.2558 16.0995C14.2796 16.0423 14.321 15.9947 14.3738 15.963C14.4408 15.9225 14.5192 15.9101 14.5949 15.9286C14.6707 15.9471 14.7341 15.9947 14.7746 16.0617L14.7764 16.0599Z" fill="#0D808A"/>
<path d="M14.4073 16.4776C14.5156 16.5234 14.5667 16.6485 14.5209 16.7568C14.4751 16.8652 14.35 16.9163 14.2416 16.8705C14.1333 16.8247 14.0822 16.6996 14.128 16.5912C14.1738 16.4829 14.2989 16.4318 14.4073 16.4776Z" fill="#0D808A"/>
<path d="M17.1441 28.6504C18.8336 29.7286 20.9169 30.1743 22.8998 29.8819C21.7837 30.2527 20.6051 30.4817 19.4335 30.3866C18.262 30.2915 17.0939 29.8493 16.2589 29.0221C15.4828 28.2531 15.2256 27.2974 14.8177 26.3469C15.2009 27.2798 16.3108 28.1192 17.1441 28.6513V28.6504Z" fill="#0D808A"/>
<path d="M17.4551 26.7337C17.6189 27.2736 17.9651 27.7608 18.4381 28.07C19.1983 28.5677 20.2474 28.5817 21.0209 28.1052C19.7031 28.3096 18.3104 27.7484 17.4551 26.7337Z" fill="#0D808A"/>
<path d="M11.703 25.0378C11.6792 25.0378 11.6589 25.0184 11.6589 24.9937C11.6589 24.9691 11.6783 24.9497 11.703 24.9497C11.7276 24.9497 11.747 24.9691 11.747 24.9937C11.747 25.0184 11.7276 25.0378 11.703 25.0378Z" fill="#0D808A"/>
<path d="M11.6387 26.4967C11.5576 26.4967 11.4916 26.4306 11.4916 26.3496C11.4916 26.2685 11.5576 26.2025 11.6387 26.2025C11.7197 26.2025 11.7858 26.2685 11.7858 26.3496C11.7858 26.4306 11.7197 26.4967 11.6387 26.4967Z" fill="#0D808A"/>
<path d="M11.8096 27.919C11.6862 27.919 11.5858 27.8186 11.5858 27.6953C11.5858 27.572 11.6862 27.4715 11.8096 27.4715C11.9329 27.4715 12.0333 27.572 12.0333 27.6953C12.0333 27.8186 11.9329 27.919 11.8096 27.919Z" fill="#0D808A"/>
<path d="M12.2033 29.2694C12.0509 29.2694 11.9276 29.1461 11.9276 28.9937C11.9276 28.8413 12.0509 28.718 12.2033 28.718C12.3557 28.718 12.479 28.8413 12.479 28.9937C12.479 29.1461 12.3557 29.2694 12.2033 29.2694Z" fill="#0D808A"/>
<path d="M12.8067 30.5172C12.6376 30.5172 12.5002 30.3798 12.5002 30.2106C12.5002 30.0415 12.6376 29.9041 12.8067 29.9041C12.9759 29.9041 13.1133 30.0415 13.1133 30.2106C13.1133 30.3798 12.9759 30.5172 12.8067 30.5172Z" fill="#0D808A"/>
<path d="M13.6065 31.6276C13.4295 31.6276 13.2859 31.484 13.2859 31.3069C13.2859 31.1299 13.4295 30.9863 13.6065 30.9863C13.7836 30.9863 13.9272 31.1299 13.9272 31.3069C13.9272 31.484 13.7836 31.6276 13.6065 31.6276Z" fill="#0D808A"/>
<path d="M14.5878 32.565C14.4108 32.565 14.2672 32.4214 14.2672 32.2444C14.2672 32.0673 14.4108 31.9237 14.5878 31.9237C14.7649 31.9237 14.9085 32.0673 14.9085 32.2444C14.9085 32.4214 14.7649 32.565 14.5878 32.565Z" fill="#0D808A"/>
<path d="M15.7189 33.2989C15.5498 33.2989 15.4124 33.1615 15.4124 32.9924C15.4124 32.8233 15.5498 32.6858 15.7189 32.6858C15.888 32.6858 16.0254 32.8233 16.0254 32.9924C16.0254 33.1615 15.888 33.2989 15.7189 33.2989Z" fill="#0D808A"/>
<path d="M16.9609 33.8131C16.8085 33.8131 16.6852 33.6897 16.6852 33.5373C16.6852 33.3849 16.8085 33.2616 16.9609 33.2616C17.1133 33.2616 17.2366 33.3849 17.2366 33.5373C17.2366 33.6897 17.1133 33.8131 16.9609 33.8131Z" fill="#0D808A"/>
<path d="M18.2778 34.0949C18.1545 34.0949 18.0541 33.9945 18.0541 33.8712C18.0541 33.7479 18.1545 33.6474 18.2778 33.6474C18.4011 33.6474 18.5016 33.7479 18.5016 33.8712C18.5016 33.9945 18.4011 34.0949 18.2778 34.0949Z" fill="#0D808A"/>
<path d="M19.63 34.1274C19.5489 34.1274 19.4828 34.0614 19.4828 33.9803C19.4828 33.8993 19.5489 33.8332 19.63 33.8332C19.711 33.8332 19.7771 33.8993 19.7771 33.9803C19.7771 34.0614 19.711 34.1274 19.63 34.1274Z" fill="#0D808A"/>
<path d="M20.9822 33.8975C20.9584 33.8975 20.9381 33.8781 20.9381 33.8535C20.9381 33.8288 20.9575 33.8094 20.9822 33.8094C21.0068 33.8094 21.0262 33.8288 21.0262 33.8535C21.0262 33.8781 21.0068 33.8975 20.9822 33.8975Z" fill="#0D808A"/>
<path d="M26.566 14.0807C26.7457 13.8182 26.9527 13.7019 27.1412 13.6728C27.335 13.6429 27.5349 13.686 27.6988 13.8005C27.8706 13.9195 27.9718 14.093 28.0899 14.2771C27.6283 13.9979 27.0866 13.9573 26.566 14.0815V14.0807Z" fill="#0D808A"/>
<path d="M26.802 13.0494C27.0266 12.8204 27.2107 12.7217 27.4036 12.7191C27.5957 12.7138 27.7798 12.7816 27.9172 12.9137C28.0625 13.052 28.1559 13.2432 28.2273 13.4387C27.8362 13.104 27.3217 12.9974 26.802 13.0503V13.0494Z" fill="#0D808A"/>
<path d="M27.1703 12.0659C27.2848 11.9628 27.4063 11.9003 27.5076 11.8589C27.6116 11.8183 27.7067 11.8051 27.7974 11.8139C27.9789 11.8289 28.1463 11.9152 28.2625 12.0632C28.3841 12.2165 28.4299 12.4103 28.4775 12.6155C28.3057 12.4244 28.1145 12.2914 27.889 12.2024C27.6662 12.1134 27.4151 12.0703 27.1694 12.0659H27.1703Z" fill="#0D808A"/>
<path d="M27.6627 11.148C27.9216 10.9789 28.1172 10.926 28.2951 10.9648C28.4695 11 28.6175 11.1013 28.7065 11.2572C28.7928 11.4149 28.8289 11.6228 28.8404 11.828C28.5788 11.4184 28.1427 11.2123 27.6627 11.148Z" fill="#0D808A"/>
<path d="M28.2546 10.2979C28.5339 10.1649 28.733 10.1349 28.8933 10.186C29.0545 10.2353 29.1831 10.349 29.25 10.5119C29.3179 10.6802 29.3143 10.8792 29.2932 11.081C29.1047 10.6573 28.7109 10.4133 28.2546 10.2979Z" fill="#0D808A"/>
<path d="M28.9496 9.53606C29.0905 9.48232 29.2077 9.44973 29.3116 9.44268C29.4173 9.4374 29.5045 9.45237 29.5794 9.48584C29.73 9.55015 29.8393 9.67259 29.8789 9.83555C29.9159 10.0003 29.886 10.1958 29.8446 10.3975C29.7151 9.95975 29.3698 9.68845 28.9496 9.53606Z" fill="#0D808A"/>
<path d="M29.723 8.85885C30.0172 8.7875 30.2084 8.79542 30.3432 8.87206C30.4788 8.94693 30.5678 9.07466 30.5854 9.23762C30.6021 9.40587 30.5449 9.59261 30.47 9.77584C30.4119 9.34597 30.1132 9.05 29.723 8.85885Z" fill="#0D808A"/>
<path d="M30.5757 8.28811C30.8637 8.23437 31.0602 8.27754 31.1791 8.36298C31.3015 8.44931 31.3703 8.58056 31.3623 8.73648C31.3579 8.81663 31.3341 8.89856 31.298 8.98048C31.261 9.05976 31.2205 9.15489 31.1712 9.24121C31.1712 8.81399 30.9245 8.50392 30.5748 8.28811H30.5757Z" fill="#0D808A"/>
<path d="M31.4909 7.82742C31.7878 7.82037 31.9648 7.86353 32.0705 7.95778C32.1789 8.05556 32.2256 8.18505 32.1947 8.33216C32.163 8.48719 32.0564 8.64399 31.934 8.79638C32.0009 8.39734 31.8036 8.07494 31.4909 7.82742Z" fill="#0D808A"/>
<path d="M32.4599 7.49162C32.6035 7.49514 32.7215 7.52774 32.8114 7.56033C32.9021 7.59468 32.9673 7.63696 33.0122 7.68893C33.1038 7.79112 33.1302 7.91973 33.0783 8.0545C33.0245 8.19808 32.8907 8.31171 32.7506 8.45441C32.8739 8.0774 32.7286 7.75412 32.4599 7.49074V7.49162Z" fill="#0D808A"/>
<path d="M33.465 7.29796C33.7495 7.3605 33.9054 7.43185 33.9794 7.54725C34.0551 7.65647 34.0631 7.7798 33.9908 7.89519C33.9151 8.01147 33.7689 8.13126 33.6068 8.23433C33.7865 7.90312 33.6905 7.58248 33.465 7.29796Z" fill="#0D808A"/>
<path d="M34.4815 7.24163C34.6172 7.28567 34.7202 7.34205 34.7977 7.39138C34.8753 7.44247 34.9255 7.49356 34.9545 7.54818C35.0144 7.65653 35.0065 7.77192 34.9193 7.87322C34.8735 7.92519 34.811 7.97099 34.737 8.01239C34.663 8.05556 34.5784 8.08727 34.4903 8.12955C34.6022 7.98421 34.6471 7.84239 34.6392 7.69088C34.6312 7.54289 34.5714 7.38345 34.4815 7.24075V7.24163Z" fill="#0D808A"/>
<path d="M35.4892 7.33327C35.7456 7.44954 35.8759 7.56053 35.92 7.67505C35.9667 7.78516 35.9455 7.89086 35.8469 7.97014C35.7456 8.04677 35.5738 8.10579 35.3879 8.15688C35.6496 7.92081 35.6328 7.62836 35.4901 7.33327H35.4892Z" fill="#0D808A"/>
<path d="M36.4723 7.54448C36.7075 7.69863 36.8255 7.81667 36.859 7.92238C36.8942 8.02808 36.8634 8.12234 36.7559 8.18576C36.6458 8.25006 36.4696 8.27649 36.2811 8.29147C36.5648 8.11617 36.578 7.84222 36.4723 7.54448Z" fill="#0D808A"/>
<path d="M37.413 7.88267C37.635 8.04299 37.7345 8.18129 37.7574 8.28435C37.7821 8.38917 37.7425 8.47198 37.6332 8.5125C37.5769 8.53364 37.5046 8.54245 37.4245 8.54333C37.3434 8.54597 37.2492 8.5495 37.1541 8.54509C37.4553 8.41384 37.4914 8.16543 37.413 7.88179V7.88267Z" fill="#0D808A"/>
<path d="M38.3045 8.32569C38.5009 8.5186 38.5934 8.64985 38.6084 8.74763C38.6251 8.84629 38.5811 8.91676 38.4692 8.94054C38.3538 8.9652 38.1803 8.93966 37.9953 8.9009C38.2983 8.83043 38.3538 8.60405 38.3045 8.32569Z" fill="#0D808A"/>
<path d="M39.1317 8.87302C39.3149 9.07034 39.3809 9.22449 39.3906 9.31522C39.3986 9.41036 39.351 9.46937 39.2426 9.47201C39.129 9.47642 38.974 9.41212 38.789 9.35838C39.0947 9.33196 39.1607 9.13288 39.1317 8.87302Z" fill="#0D808A"/>
<path d="M39.8847 9.51489C40.0354 9.73952 40.1058 9.87605 40.1032 9.96766C40.1032 10.0602 40.0539 10.1068 39.9535 10.0892C39.8469 10.0725 39.6901 10.0003 39.5245 9.91129C39.8134 9.943 39.89 9.76682 39.8847 9.51577V9.51489Z" fill="#0D808A"/>
<path d="M40.5516 10.2427C40.6212 10.3555 40.6555 10.4594 40.6837 10.5352C40.7101 10.6127 40.7207 10.6699 40.7181 10.7122C40.7137 10.7977 40.6652 10.8329 40.571 10.7994C40.5225 10.7818 40.4635 10.7483 40.4001 10.7043C40.3349 10.6611 40.2697 10.603 40.1887 10.551C40.3296 10.5854 40.4089 10.5748 40.467 10.5158C40.5225 10.4585 40.5507 10.3564 40.5516 10.2427Z" fill="#0D808A"/>
<path d="M41.1101 11.0529C41.2105 11.2987 41.2493 11.4449 41.2316 11.5268C41.2193 11.6079 41.1744 11.6325 41.0942 11.5823C41.0167 11.5259 40.8881 11.4123 40.7586 11.2775C41.0008 11.4026 41.0836 11.2749 41.1101 11.0529Z" fill="#0D808A"/>
<path d="M29.4913 12.7415C29.6481 12.7098 29.7882 12.7125 29.9027 12.7292C30.0181 12.7477 30.1123 12.7847 30.1925 12.8402C30.3528 12.9494 30.4647 13.115 30.5026 13.3106C30.5422 13.5149 30.4929 13.7131 30.4453 13.9307C30.3141 13.4066 29.9529 13.0128 29.4913 12.7415Z" fill="#0D808A"/>
<path d="M30.3916 12.1641C30.7105 12.142 30.9184 12.2037 31.0584 12.3288C31.1985 12.4503 31.2831 12.6195 31.2883 12.8071C31.291 12.9049 31.2725 12.9983 31.2452 13.0969C31.2187 13.1973 31.1809 13.2969 31.1386 13.3946C31.0928 12.8837 30.8003 12.4715 30.3916 12.1632V12.1641Z" fill="#0D808A"/>
<path d="M31.3553 11.7091C31.6741 11.7329 31.8644 11.8034 31.9824 11.9355C32.1022 12.0668 32.1595 12.2342 32.1357 12.4103C32.1119 12.5962 32.0133 12.7794 31.8979 12.9521C31.934 12.4676 31.7085 12.0474 31.3544 11.7091H31.3553Z" fill="#0D808A"/>
<path d="M32.3674 11.3879C32.6766 11.4478 32.8554 11.543 32.9514 11.676C33.0492 11.8081 33.0809 11.9711 33.0324 12.1376C32.9813 12.3093 32.8545 12.4626 32.7153 12.6132C32.8245 12.1649 32.6642 11.7473 32.3674 11.3888V11.3879Z" fill="#0D808A"/>
<path d="M33.4094 11.2132C33.7036 11.2908 33.8684 11.4185 33.9441 11.5497C34.0225 11.6854 34.0304 11.8387 33.9591 11.9858C33.8842 12.1399 33.7353 12.2535 33.5759 12.391C33.7486 11.9761 33.649 11.5753 33.4094 11.2141V11.2132Z" fill="#0D808A"/>
<path d="M34.4595 11.1808C34.7387 11.2936 34.8849 11.4204 34.9422 11.5587C35.0012 11.6944 34.9898 11.8371 34.899 11.9604C34.8048 12.0829 34.64 12.1859 34.463 12.2855C34.692 11.9287 34.6462 11.5473 34.4595 11.1808Z" fill="#0D808A"/>
<path d="M35.4997 11.289C35.7587 11.4423 35.89 11.5647 35.9296 11.7004C35.971 11.8343 35.9428 11.9629 35.838 12.0606C35.7288 12.1646 35.5517 12.2395 35.3632 12.3002C35.6363 12.0095 35.6363 11.6537 35.4997 11.289Z" fill="#0D808A"/>
<path d="M36.5092 11.5365C36.7444 11.7162 36.8572 11.8572 36.8836 11.9814C36.9109 12.1064 36.8704 12.2192 36.7541 12.2967C36.6343 12.3769 36.4529 12.4112 36.2582 12.4385C36.5612 12.2165 36.6 11.8906 36.5092 11.5356V11.5365Z" fill="#0D808A"/>
<path d="M37.4676 11.9236C37.6861 12.1086 37.7742 12.2715 37.7891 12.3869C37.8032 12.5067 37.753 12.6027 37.6332 12.6538C37.509 12.7067 37.3311 12.7005 37.1302 12.7067C37.4562 12.542 37.5222 12.2548 37.4676 11.9236Z" fill="#0D808A"/>
<path d="M38.3626 12.4253C38.5546 12.635 38.6286 12.7953 38.633 12.9028C38.6375 13.0138 38.582 13.093 38.4613 13.1204C38.3362 13.1485 38.1618 13.1151 37.9671 13.0851C38.2983 12.9909 38.3846 12.7398 38.3617 12.4253H38.3626Z" fill="#0D808A"/>
<path d="M39.1783 13.0411C39.3395 13.2728 39.4055 13.4243 39.3976 13.5291C39.3932 13.6331 39.3351 13.6965 39.2205 13.6983C39.1034 13.6965 38.9316 13.6445 38.751 13.5758C39.0734 13.552 39.1721 13.3353 39.1783 13.0403V13.0411Z" fill="#0D808A"/>
<path d="M39.898 13.7555C40.0354 13.996 40.0812 14.1545 40.0733 14.247C40.0636 14.343 40.0081 14.3897 39.8997 14.3712C39.7852 14.3536 39.6372 14.2638 39.4655 14.1722C39.7738 14.2065 39.8751 14.0233 39.898 13.7555Z" fill="#0D808A"/>
<path d="M40.5181 14.5508C40.6282 14.8018 40.6643 14.9569 40.6494 15.0441C40.6361 15.1322 40.5842 15.1665 40.4882 15.1278C40.3913 15.0855 40.2547 14.978 40.1032 14.8591C40.3816 14.9507 40.4802 14.7992 40.5181 14.5508Z" fill="#0D808A"/>
<path d="M41.0281 15.415C41.1091 15.6749 41.1356 15.8273 41.1188 15.9065C41.1021 15.9885 41.0563 16.0105 40.977 15.955C40.8916 15.8986 40.7788 15.7691 40.6502 15.6264C40.7744 15.6943 40.8519 15.7013 40.9118 15.659C40.9691 15.6176 41.0087 15.526 41.0272 15.415H41.0281Z" fill="#0D808A"/>
<path d="M41.4201 16.3328C41.4791 16.5944 41.4844 16.7485 41.4703 16.8216C41.4545 16.8965 41.4175 16.9097 41.3532 16.841C41.288 16.7697 41.2025 16.6226 41.0959 16.4623C41.295 16.6428 41.3708 16.5407 41.4201 16.3328Z" fill="#0D808A"/>
<path d="M27.6371 17.6659C27.9445 17.5496 28.1577 17.5364 28.34 17.6139C28.5215 17.6888 28.666 17.8271 28.7444 18.0068C28.8254 18.1935 28.8377 18.4093 28.8298 18.6181C28.5911 18.1468 28.1524 17.835 27.6371 17.6659Z" fill="#0D808A"/>
<path d="M28.384 16.9153C28.6923 16.8334 28.9038 16.8475 29.0676 16.9418C29.2297 17.0316 29.3486 17.1796 29.3953 17.3628C29.4402 17.5478 29.4182 17.7592 29.3785 17.9645C29.2235 17.4791 28.85 17.1347 28.384 16.9153Z" fill="#0D808A"/>
<path d="M29.2183 16.2768C29.5257 16.2266 29.7336 16.2697 29.8754 16.3728C30.019 16.4741 30.1115 16.6274 30.1291 16.8071C30.1458 16.9912 30.0859 17.1841 30.0172 17.3823C29.9423 16.8978 29.6332 16.5331 29.2183 16.2768Z" fill="#0D808A"/>
<path d="M30.1229 15.7571C30.4286 15.7404 30.6268 15.8064 30.7483 15.9148C30.8725 16.0249 30.9404 16.1782 30.9307 16.3508C30.9219 16.5314 30.8294 16.7005 30.7334 16.8864C30.7334 16.416 30.4858 16.0416 30.1229 15.7571Z" fill="#0D808A"/>
<path d="M31.0804 15.359C31.231 15.3678 31.3543 15.3969 31.4503 15.4312C31.5464 15.4665 31.6177 15.5132 31.6706 15.5713C31.7772 15.6885 31.8203 15.8373 31.786 15.9985C31.7498 16.1668 31.6362 16.3227 31.5111 16.4821C31.5455 16.2601 31.5199 16.0611 31.4415 15.8726C31.3649 15.6858 31.2345 15.5096 31.0804 15.359Z" fill="#0D808A"/>
<path d="M32.0793 15.0917C32.3753 15.1516 32.5418 15.23 32.6299 15.3569C32.718 15.4784 32.74 15.622 32.6819 15.7647C32.6211 15.9101 32.4881 16.0536 32.3401 16.184C32.4775 15.7859 32.3445 15.4159 32.0793 15.0926V15.0917Z" fill="#0D808A"/>
<path d="M33.1021 14.9627C33.3857 15.0463 33.5398 15.1494 33.6086 15.2745C33.679 15.396 33.6808 15.5308 33.6024 15.655C33.5214 15.7792 33.369 15.892 33.2034 15.9994C33.3971 15.6462 33.317 15.2921 33.1021 14.9635V14.9627Z" fill="#0D808A"/>
<path d="M34.1291 14.9758C34.3969 15.0859 34.5343 15.2118 34.5863 15.329C34.64 15.4488 34.6242 15.5712 34.5299 15.6743C34.4321 15.78 34.2666 15.8522 34.0869 15.9342C34.3282 15.6338 34.2965 15.3017 34.1291 14.9749V14.9758Z" fill="#0D808A"/>
<path d="M35.1386 15.1313C35.387 15.2732 35.5077 15.4053 35.5465 15.518C35.5852 15.6334 35.5562 15.7418 35.4513 15.8237C35.3412 15.91 35.1686 15.9461 34.9792 15.9964C35.2575 15.7576 35.2628 15.4511 35.1395 15.1313H35.1386Z" fill="#0D808A"/>
<path d="M36.1093 15.4194C36.3348 15.592 36.4432 15.7215 36.4687 15.8316C36.4943 15.9453 36.4564 16.0378 36.3454 16.0932C36.2291 16.1531 36.0512 16.169 35.86 16.1787C36.1595 16.0096 36.1939 15.7321 36.1093 15.4203V15.4194Z" fill="#0D808A"/>
<path d="M37.0272 15.8343C37.2307 16.0272 37.3267 16.1576 37.3399 16.2668C37.3558 16.3734 37.3108 16.4518 37.199 16.4826C37.0845 16.5108 36.9048 16.5055 36.7162 16.4817C37.0254 16.376 37.0809 16.132 37.0272 15.8343Z" fill="#0D808A"/>
<path d="M37.8781 16.3615C38.0622 16.5658 38.1397 16.7085 38.1459 16.8081C38.1547 16.9067 38.1062 16.9701 37.9961 16.9798C37.8843 16.986 37.7151 16.9446 37.5302 16.8961C37.8393 16.8503 37.9072 16.6398 37.8781 16.3623V16.3615Z" fill="#0D808A"/>
<path d="M38.6498 16.9902C38.8118 17.2069 38.87 17.3593 38.8735 17.4474C38.8761 17.539 38.8286 17.5874 38.7237 17.576C38.6145 17.5645 38.4639 17.487 38.2877 17.413C38.5863 17.4262 38.6603 17.2474 38.6498 16.9911V16.9902Z" fill="#0D808A"/>
<path d="M39.3298 17.7126C39.4002 17.8262 39.4381 17.9275 39.469 18.0033C39.4972 18.0799 39.5104 18.1372 39.5086 18.1786C39.5068 18.2631 39.4619 18.2975 39.3668 18.2667C39.2664 18.2358 39.1333 18.1337 38.9748 18.0297C39.1157 18.0623 39.1976 18.0482 39.2523 17.9883C39.3069 17.9302 39.3298 17.8298 39.3298 17.7135V17.7126Z" fill="#0D808A"/>
<path d="M30.0762 20.5296C29.8965 20.5296 29.7503 20.3834 29.7503 20.2037C29.7503 20.024 29.8965 19.8778 30.0762 19.8778C30.2559 19.8778 30.4022 20.024 30.4022 20.2037C30.4022 20.3834 30.2559 20.5296 30.0762 20.5296Z" fill="#0D808A"/>
<path d="M30.9756 20.1346C30.8073 20.1346 30.6717 19.9981 30.6717 19.8307C30.6717 19.6633 30.8082 19.5268 30.9756 19.5268C31.143 19.5268 31.2795 19.6633 31.2795 19.8307C31.2795 19.9981 31.143 20.1346 30.9756 20.1346Z" fill="#0D808A"/>
<path d="M31.9252 19.9006C31.7693 19.9006 31.6433 19.7747 31.6433 19.6188C31.6433 19.4628 31.7693 19.3369 31.9252 19.3369C32.0811 19.3369 32.2071 19.4628 32.2071 19.6188C32.2071 19.7747 32.0811 19.9006 31.9252 19.9006Z" fill="#0D808A"/>
<path d="M32.8968 19.8144C32.7532 19.8144 32.636 19.6981 32.636 19.5537C32.636 19.4092 32.7523 19.2929 32.8968 19.2929C33.0413 19.2929 33.1575 19.4092 33.1575 19.5537C33.1575 19.6981 33.0413 19.8144 32.8968 19.8144Z" fill="#0D808A"/>
<path d="M33.8684 19.8672C33.7362 19.8672 33.6296 19.7606 33.6296 19.6284C33.6296 19.4963 33.7362 19.3897 33.8684 19.3897C34.0005 19.3897 34.1071 19.4963 34.1071 19.6284C34.1071 19.7606 34.0005 19.8672 33.8684 19.8672Z" fill="#0D808A"/>
<path d="M34.8197 20.0546C34.6999 20.0546 34.603 19.9577 34.603 19.8379C34.603 19.7181 34.6999 19.6212 34.8197 19.6212C34.9395 19.6212 35.0364 19.7181 35.0364 19.8379C35.0364 19.9577 34.9395 20.0546 34.8197 20.0546Z" fill="#0D808A"/>
<path d="M35.7332 20.3693C35.6257 20.3693 35.5385 20.2821 35.5385 20.1746C35.5385 20.0671 35.6257 19.9799 35.7332 19.9799C35.8406 19.9799 35.9279 20.0671 35.9279 20.1746C35.9279 20.2821 35.8406 20.3693 35.7332 20.3693Z" fill="#0D808A"/>
<path d="M36.5938 20.8054C36.4978 20.8054 36.4203 20.7279 36.4203 20.6319C36.4203 20.5358 36.4978 20.4583 36.5938 20.4583C36.6898 20.4583 36.7673 20.5358 36.7673 20.6319C36.7673 20.7279 36.6898 20.8054 36.5938 20.8054Z" fill="#0D808A"/>
<path d="M37.3858 21.3494C37.3021 21.3494 37.2343 21.2815 37.2343 21.1978C37.2343 21.1142 37.3021 21.0463 37.3858 21.0463C37.4694 21.0463 37.5373 21.1142 37.5373 21.1978C37.5373 21.2815 37.4694 21.3494 37.3858 21.3494Z" fill="#0D808A"/>
<path d="M38.101 21.9907C38.0296 21.9907 37.9715 21.9325 37.9715 21.8612C37.9715 21.7898 38.0296 21.7317 38.101 21.7317C38.1723 21.7317 38.2305 21.7898 38.2305 21.8612C38.2305 21.9325 38.1723 21.9907 38.101 21.9907Z" fill="#0D808A"/>
<path d="M38.7317 22.7116C38.6718 22.7116 38.6234 22.6631 38.6234 22.6032C38.6234 22.5433 38.6718 22.4949 38.7317 22.4949C38.7916 22.4949 38.84 22.5433 38.84 22.6032C38.84 22.6631 38.7916 22.7116 38.7317 22.7116Z" fill="#0D808A"/>
<path d="M39.2805 23.5006C39.2329 23.5006 39.1942 23.4618 39.1942 23.4143C39.1942 23.3667 39.2329 23.3279 39.2805 23.3279C39.328 23.3279 39.3668 23.3667 39.3668 23.4143C39.3668 23.4618 39.328 23.5006 39.2805 23.5006Z" fill="#0D808A"/>
<path d="M30.0789 22.7069C30.2589 22.7069 30.4048 22.561 30.4048 22.381C30.4048 22.201 30.2589 22.0551 30.0789 22.0551C29.8989 22.0551 29.753 22.201 29.753 22.381C29.753 22.561 29.8989 22.7069 30.0789 22.7069Z" fill="#0D808A"/>
<path d="M31.0928 22.4126C30.9342 22.4126 30.8047 22.284 30.8047 22.1246C30.8047 21.9651 30.9333 21.8365 31.0928 21.8365C31.2522 21.8365 31.3808 21.9651 31.3808 22.1246C31.3808 22.284 31.2522 22.4126 31.0928 22.4126Z" fill="#0D808A"/>
<path d="M32.1366 22.3017C32.2743 22.3017 32.3859 22.1901 32.3859 22.0524C32.3859 21.9147 32.2743 21.8031 32.1366 21.8031C31.9989 21.8031 31.8873 21.9147 31.8873 22.0524C31.8873 22.1901 31.9989 22.3017 32.1366 22.3017Z" fill="#0D808A"/>
<path d="M33.1787 22.3477C33.0615 22.3477 32.9673 22.2526 32.9673 22.1363C32.9673 22.0201 33.0624 21.9249 33.1787 21.9249C33.295 21.9249 33.3901 22.0201 33.3901 22.1363C33.3901 22.2526 33.295 22.3477 33.1787 22.3477Z" fill="#0D808A"/>
<path d="M34.197 22.553C34.101 22.553 34.0235 22.4755 34.0235 22.3795C34.0235 22.2834 34.101 22.2059 34.197 22.2059C34.2931 22.2059 34.3706 22.2834 34.3706 22.3795C34.3706 22.4755 34.2931 22.553 34.197 22.553Z" fill="#0D808A"/>
<path d="M35.1545 22.9362C35.0796 22.9362 35.0189 22.8754 35.0189 22.8006C35.0189 22.7257 35.0796 22.6649 35.1545 22.6649C35.2294 22.6649 35.2902 22.7257 35.2902 22.8006C35.2902 22.8754 35.2294 22.9362 35.1545 22.9362Z" fill="#0D808A"/>
<path d="M36.0081 23.5121C35.9544 23.5121 35.9103 23.4681 35.9103 23.4143C35.9103 23.3606 35.9544 23.3166 36.0081 23.3166C36.0618 23.3166 36.1059 23.3606 36.1059 23.4143C36.1059 23.4681 36.0618 23.5121 36.0081 23.5121Z" fill="#0D808A"/>
<mask id="mask0_31_1071" style="mask-type:luminance" maskUnits="userSpaceOnUse" x="7" y="5" width="39" height="32">
<path d="M45.3656 18.1528C45.3366 18.1986 45.2811 18.2145 45.2291 18.2048C44.5288 18.0321 43.8611 17.6023 43.359 17.035C42.8507 16.4712 42.4825 15.8097 42.1733 15.1684L41.303 13.3115C41.0097 12.7249 40.7005 12.1814 40.3517 11.7083C39.6576 10.8028 38.6965 10.0629 37.6536 9.65239C37.1321 9.44714 36.5912 9.31677 36.0574 9.27449C35.9235 9.25863 35.7967 9.25864 35.6601 9.25511L35.2364 9.25864C34.9598 9.27801 34.6859 9.29475 34.4252 9.35024C33.376 9.53611 32.5057 10.0276 31.7825 10.7614C31.0558 11.4917 30.5017 12.4879 30.0719 13.5767C29.2218 15.7692 28.8765 18.3308 28.8563 20.8095C28.8563 20.9496 28.843 21.0861 28.814 21.22C30.1371 22.9043 30.9087 24.9312 30.9087 27.114C30.9087 32.9498 25.3865 36.7322 18.5897 36.4618C13.6735 36.2698 7 32.9498 7 27.114C7 24.8202 7.90289 23.3148 8.47282 22.5977C8.47899 22.5845 8.49925 22.5651 8.52832 22.529C8.55474 22.5 8.58733 22.4603 8.62609 22.4119C8.64899 22.3854 8.66838 22.3599 8.6948 22.3308C9.85491 20.9038 15.0547 13.9572 13.3476 5.90602C13.3537 5.93509 13.9589 6.06106 14.0047 6.07603C14.5799 6.26102 15.1331 6.51735 15.6546 6.82037C17.478 7.88183 18.8821 9.53787 19.8238 11.4106C20.2572 12.2721 20.5981 13.1785 20.8623 14.1052C21.1363 15.0654 21.175 16.3294 21.9476 17.0535C22.3871 17.4657 23.0531 17.6093 23.6327 17.4437C24.0758 17.3169 24.4642 17.0165 24.717 16.6333C24.9743 16.2431 24.9875 15.6591 25.1126 15.2063C25.427 14.0673 25.841 12.9592 26.3669 11.9004C27.0646 10.4963 28.0053 9.12122 29.3355 8.02012C29.9935 7.4731 30.7528 7.00976 31.5676 6.69441C32.3824 6.37201 33.2421 6.19231 34.0799 6.14034C34.5036 6.10774 34.914 6.12712 35.3245 6.1465L35.927 6.21169C36.1323 6.24076 36.3437 6.27335 36.5463 6.32268C37.3673 6.49885 38.1424 6.80452 38.856 7.19563C39.5633 7.59643 40.2116 8.08178 40.778 8.64554C41.0617 8.92566 41.3286 9.22252 41.5664 9.5414C41.8042 9.85763 42.0289 10.2091 42.2112 10.5544C42.5856 11.2485 42.8366 11.9656 43.026 12.6588C43.2251 13.3494 43.3652 14.0374 43.5114 14.6883C43.6611 15.3331 43.8276 15.9524 44.1007 16.5162C44.3746 17.0799 44.7781 17.5811 45.3321 17.9722C45.3912 18.011 45.407 18.0929 45.3647 18.1511L45.3656 18.1528Z" fill="white"/>
</mask>
<g mask="url(#mask0_31_1071)">
<path d="M22.1713 11.1797C21.84 11.0493 21.485 11.0846 21.1961 11.244C21.153 11.2678 21.1116 11.2942 21.0719 11.3233C21.0984 11.2766 21.1195 11.229 21.138 11.1806C21.3115 10.7331 21.1908 10.2072 20.8006 9.88482C20.3126 9.48138 19.5903 9.55009 19.1877 10.0381C19.1305 10.1077 19.0847 10.1826 19.0459 10.2592C18.9103 10.5331 18.8909 10.845 18.9842 11.1269C18.6152 10.7305 18.0056 10.6397 17.5326 10.941C16.9988 11.2801 16.8411 11.9883 17.1802 12.5222C17.3996 12.8675 17.7722 13.0533 18.1527 13.0524C17.6612 13.2806 17.3863 13.8329 17.5273 14.3755C17.5343 14.4028 17.5431 14.4293 17.5519 14.4548C17.7413 15.0194 18.3368 15.3498 18.9217 15.1991L18.9393 15.193C19.326 15.0873 19.6123 14.7939 19.7268 14.4372C19.7612 14.7191 19.8986 14.971 20.103 15.1533C20.2879 15.3181 20.5258 15.4255 20.7927 15.4414C21.4243 15.481 21.9678 15.0009 22.0074 14.3694C22.0268 14.054 21.9158 13.7624 21.7229 13.5431C21.6656 13.4788 21.6022 13.4189 21.5317 13.3687C21.6066 13.3837 21.6824 13.3898 21.7572 13.3889C22.2109 13.3863 22.6399 13.1141 22.8161 12.6657C23.0486 12.0773 22.7597 11.4123 22.1721 11.1788L22.1713 11.1797ZM21.197 12.5891C21.197 12.6446 21.1556 12.6895 21.1045 12.6878C21.0534 12.686 21.012 12.6472 21.012 12.5997C21.0155 12.5521 21.0437 12.5098 21.0957 12.5019C21.145 12.4949 21.2005 12.5327 21.197 12.5891ZM20.9794 12.9415C20.9882 12.8957 21.0367 12.8648 21.0878 12.8728C21.138 12.8807 21.1706 12.9309 21.16 12.9864C21.1521 13.0428 21.0957 13.0709 21.0464 13.0542C20.9988 13.0375 20.9741 12.989 20.9803 12.9423L20.9794 12.9415ZM21.0076 13.3537C20.9768 13.4004 20.9178 13.4136 20.8764 13.3837C20.835 13.3537 20.8226 13.2973 20.8491 13.2586C20.8781 13.2216 20.9319 13.2048 20.9759 13.226C21.0235 13.2489 21.042 13.3088 21.0085 13.3537H21.0076ZM20.9918 12.1451C21.0376 12.1231 21.0931 12.1478 21.1133 12.1998C21.1336 12.2517 21.1116 12.3046 21.0605 12.3187C21.0138 12.331 20.9574 12.3081 20.9398 12.2641C20.9222 12.22 20.9451 12.1672 20.9918 12.1451ZM20.9222 11.8483C20.953 11.895 20.9433 11.9558 20.9001 11.9831C20.857 12.0104 20.8015 12.0007 20.7759 11.9619C20.7504 11.9223 20.7486 11.8712 20.7874 11.836C20.8235 11.8025 20.8913 11.8016 20.9222 11.8492V11.8483ZM20.753 13.6611C20.7152 13.7025 20.6535 13.6964 20.6218 13.6532C20.5927 13.6136 20.598 13.559 20.6297 13.5228C20.6632 13.4894 20.7205 13.4911 20.7574 13.5264C20.7953 13.5607 20.7927 13.6215 20.753 13.6611ZM19.3472 10.5023C19.5004 10.1165 19.9365 9.92622 20.3232 10.0795C20.7055 10.2301 20.894 10.6591 20.7513 11.0414C20.7134 10.7842 20.5434 10.5543 20.2844 10.4521C19.8977 10.2997 19.4617 10.4882 19.3084 10.8749C19.3067 10.8793 19.3049 10.8837 19.304 10.8881C19.2855 10.7622 19.2978 10.6292 19.348 10.5023H19.3472ZM20.6561 11.7029C20.6236 11.7417 20.5645 11.7523 20.5249 11.7267C20.4861 11.7003 20.4756 11.6439 20.5011 11.599C20.5267 11.555 20.5857 11.5444 20.6324 11.5752C20.679 11.6069 20.6896 11.6642 20.6561 11.7029ZM20.3355 11.5171C20.3152 11.5638 20.2633 11.5876 20.2201 11.5691C20.177 11.5488 20.147 11.51 20.1593 11.4572C20.1699 11.4096 20.2263 11.3691 20.2783 11.3929C20.3302 11.414 20.3558 11.4695 20.3355 11.5171ZM19.9761 11.4228C19.9708 11.4739 19.9285 11.5153 19.881 11.5153C19.8343 11.5153 19.7929 11.473 19.7894 11.4219C19.7858 11.3709 19.8281 11.3295 19.8845 11.3295C19.94 11.3295 19.9814 11.3717 19.9761 11.4219V11.4228ZM19.5392 11.5558C19.4952 11.5717 19.4449 11.5488 19.4264 11.5003C19.4079 11.4528 19.4353 11.3955 19.4872 11.3779C19.5418 11.3665 19.5947 11.399 19.6044 11.4493C19.6141 11.4995 19.585 11.5479 19.5383 11.5558H19.5392ZM19.1278 11.5497C19.1745 11.5188 19.2326 11.5312 19.2564 11.5761C19.2811 11.621 19.2688 11.6792 19.2291 11.7047C19.1895 11.7303 19.1322 11.7188 19.1005 11.6783C19.0688 11.6378 19.0811 11.5805 19.1278 11.5497ZM19.0644 13.4955C19.097 13.529 19.0979 13.5889 19.0653 13.6294C19.0336 13.6691 18.9746 13.6699 18.9358 13.6294C18.8962 13.5898 18.8962 13.5299 18.934 13.4964C18.9728 13.4629 19.0309 13.4621 19.0635 13.4964L19.0644 13.4955ZM18.8266 11.8113C18.8662 11.7717 18.9279 11.769 18.9649 11.8051C19.001 11.8412 19.0036 11.8967 18.9701 11.9293C18.9446 11.969 18.8891 11.9769 18.8468 11.9478C18.8046 11.9188 18.7957 11.8571 18.8274 11.8113H18.8266ZM18.6266 12.8296C18.6777 12.8234 18.7262 12.856 18.735 12.9018C18.7438 12.9485 18.7103 12.9978 18.6618 13.0128C18.6134 13.0278 18.5641 12.9952 18.5535 12.9406C18.5429 12.8851 18.5755 12.8357 18.6266 12.8296ZM18.5253 12.5424C18.5332 12.4869 18.5843 12.4499 18.6345 12.4596C18.6856 12.4684 18.7173 12.5134 18.7103 12.5592C18.7103 12.6067 18.6689 12.6446 18.6178 12.6446C18.5667 12.6446 18.5253 12.5988 18.5253 12.5424ZM18.7306 13.1863C18.7799 13.1643 18.8239 13.1872 18.8521 13.2251C18.8785 13.2639 18.8644 13.3194 18.8222 13.3475C18.7799 13.3766 18.7209 13.3616 18.69 13.3149C18.6574 13.2691 18.6865 13.2057 18.7306 13.1863ZM18.6266 12.1566C18.6478 12.1046 18.7024 12.0817 18.7473 12.1055C18.7931 12.1284 18.8151 12.1839 18.7975 12.2271C18.7799 12.2711 18.7253 12.2931 18.6768 12.2782C18.6284 12.2632 18.6055 12.2086 18.6266 12.1566ZM18.003 12.6596C18.003 12.6596 18.0109 12.6657 18.0144 12.6684C17.8884 12.6472 17.766 12.5944 17.6612 12.5072C17.3405 12.2429 17.2956 11.769 17.5599 11.4484C17.8215 11.1313 18.2875 11.0846 18.6072 11.3391C18.3509 11.296 18.0796 11.3858 17.9016 11.6008C17.6374 11.9214 17.6823 12.3953 18.0021 12.6596H18.003ZM19.0459 14.7305C18.6953 14.9534 18.2302 14.8494 18.0074 14.4988C17.7871 14.1527 17.8858 13.6946 18.2267 13.4691C18.1069 13.6999 18.1087 13.9853 18.2575 14.2205C18.4804 14.5711 18.9455 14.6741 19.2961 14.4513C19.3005 14.4486 19.304 14.446 19.3075 14.4425C19.2485 14.5561 19.1604 14.6556 19.045 14.7296L19.0459 14.7305ZM19.3868 13.8153C19.3683 13.8629 19.3102 13.884 19.2591 13.8629C19.2071 13.8417 19.1948 13.7739 19.2212 13.7325C19.2494 13.6867 19.2996 13.6796 19.3428 13.6972C19.3868 13.7149 19.4062 13.7677 19.3877 13.8153H19.3868ZM19.6396 13.9835C19.5841 13.973 19.5507 13.9236 19.563 13.8743C19.5762 13.825 19.6238 13.7915 19.6696 13.8003C19.7154 13.8091 19.7497 13.8593 19.7462 13.9078C19.7418 13.9615 19.6942 13.9932 19.6396 13.9827V13.9835ZM19.7867 13.4154C19.6995 13.0762 19.393 12.8525 19.0574 12.8543C19.0864 12.841 19.1155 12.8261 19.1437 12.8084C19.4397 12.6208 19.5577 12.2597 19.452 11.9417C19.474 11.9654 19.4969 11.9883 19.5225 12.0095C19.7929 12.2324 20.1725 12.2332 20.4421 12.035C20.4262 12.0632 20.4121 12.0923 20.3998 12.1231C20.2712 12.449 20.3875 12.8102 20.6606 13.0058C20.6288 12.9996 20.5963 12.9952 20.5637 12.9925C20.214 12.9714 19.9065 13.1934 19.8043 13.5131C19.8008 13.4814 19.7955 13.4488 19.7867 13.4171V13.4154ZM20.421 13.8805C20.369 13.9016 20.3126 13.8796 20.2959 13.8311C20.2791 13.7836 20.3003 13.7298 20.3434 13.7122C20.3884 13.6972 20.4412 13.7122 20.4659 13.7563C20.4923 13.8012 20.4747 13.862 20.421 13.8805ZM20.0378 13.9923C19.9832 14.0064 19.9347 13.9597 19.9329 13.9095C19.9303 13.8567 19.9673 13.8215 20.0131 13.8091C20.0598 13.8003 20.1056 13.8338 20.117 13.8831C20.1285 13.9333 20.0924 13.9826 20.0378 13.9923ZM21.589 14.1007C21.6921 14.5033 21.4507 14.9129 21.0481 15.0168C20.6509 15.119 20.2457 14.8838 20.1364 14.49C20.3188 14.6759 20.591 14.7622 20.8614 14.6926C21.2631 14.5896 21.5062 14.1791 21.4023 13.7774C21.4014 13.7721 21.3996 13.7677 21.3978 13.7633C21.4877 13.854 21.5555 13.9694 21.589 14.1016V14.1007ZM22.4796 12.2843C22.454 12.6948 22.1043 13.0066 21.6965 12.9881C21.929 12.8728 22.0955 12.6393 22.1131 12.3618C22.1387 11.9478 21.8242 11.5902 21.4093 11.5646C21.404 11.5646 21.3996 11.5646 21.3952 11.5646C21.5097 11.5083 21.6392 11.4792 21.7757 11.4871C22.1906 11.5127 22.5051 11.8703 22.4796 12.2843Z" fill="#0D808A"/>
</g>
<path d="M13.9933 14.8988C13.8752 14.1747 14.0655 13.3458 14.5949 12.6746L14.6187 12.6446C14.7878 12.4306 15.0979 12.3936 15.312 12.5627C15.526 12.7318 15.563 13.0419 15.3939 13.2559C15.3498 13.3123 15.2926 13.3572 15.2336 13.3889C14.7086 13.6611 14.2487 14.2126 14.0761 14.9023C14.0708 14.9252 14.0479 14.9384 14.025 14.9331C14.0083 14.9287 13.9959 14.9155 13.9933 14.8988Z" fill="#0D808A"/>
<path d="M14.3386 14.9043C14.4681 14.4665 14.8213 14.0499 15.3348 13.8446L15.3674 13.8314C15.5401 13.7627 15.7365 13.8464 15.8052 14.0191C15.8739 14.1917 15.7902 14.3881 15.6176 14.4569C15.563 14.4789 15.5048 14.485 15.4511 14.478C15.0917 14.4331 14.6539 14.5731 14.3386 14.9026V14.9043Z" fill="#0D808A"/>
<path d="M13.0331 18.3131C12.4975 18.7817 12.2165 19.4415 12.2138 20.0335C12.213 20.3065 11.991 20.5259 11.7179 20.525C11.4448 20.5241 11.2255 20.3021 11.2264 20.0291C11.2264 19.9568 11.2422 19.889 11.2704 19.8273L11.2872 19.7903C11.643 19.0134 12.294 18.4664 12.9925 18.2409C13.0146 18.2338 13.0383 18.2462 13.0454 18.2682C13.0507 18.2849 13.0454 18.3025 13.0331 18.3131Z" fill="#0D808A"/>
<path d="M13.1546 18.5467C13.0048 18.9783 13.0797 19.4311 13.2832 19.7306C13.388 19.8847 13.3484 20.0944 13.1942 20.1992C13.0401 20.304 12.8304 20.2644 12.7256 20.1103C12.693 20.0618 12.6745 20.0081 12.6683 19.9535L12.6648 19.9165C12.6137 19.3659 12.8234 18.8621 13.1537 18.5467H13.1546Z" fill="#0D808A"/>
<path d="M20.021 19.7728C19.977 19.7508 19.7638 19.5808 19.5348 19.4531C19.3084 19.3218 19.0793 19.2355 19.0793 19.2355C19.0793 19.2355 19.3172 19.2901 19.5797 19.306C19.8387 19.3253 20.1135 19.3024 20.1619 19.3077C20.2571 19.3183 20.3205 19.4495 20.2773 19.5958C20.2544 19.6671 20.2113 19.7244 20.1655 19.7561C20.1161 19.7869 20.065 19.7931 20.0219 19.7719L20.021 19.7728Z" fill="#0D808A"/>
<path d="M19.5885 20.3154C19.5603 20.2784 19.437 20.0291 19.2882 19.8159C19.1437 19.6019 18.9719 19.4222 18.9719 19.4222C18.9719 19.4222 19.0195 19.4609 19.0961 19.5156C19.1728 19.5702 19.2794 19.6406 19.3921 19.7032C19.6158 19.8327 19.8766 19.934 19.9162 19.9595C19.9973 20.0097 19.9973 20.1568 19.8942 20.2678C19.792 20.3797 19.6467 20.3938 19.5885 20.3163V20.3154Z" fill="#0D808A"/>
<path d="M18.9622 20.6179C18.9525 20.5712 18.9508 20.2929 18.9094 20.0383C18.8706 19.7784 18.7949 19.545 18.7949 19.545C18.7949 19.545 18.8213 19.6014 18.8671 19.6833C18.912 19.7652 18.9772 19.8727 19.0521 19.9802C19.1992 20.1969 19.3877 20.3959 19.4132 20.4373C19.4652 20.5193 19.4018 20.6496 19.26 20.7069C19.1181 20.7641 18.9807 20.7104 18.9631 20.6179H18.9622Z" fill="#0D808A"/>
<path d="M18.268 20.6178C18.2795 20.572 18.3975 20.3219 18.4707 20.0717C18.5473 19.8242 18.5808 19.5784 18.5808 19.5784C18.5808 19.5784 18.5808 19.8251 18.6239 20.0823C18.6627 20.3377 18.7455 20.6029 18.7508 20.6504C18.7613 20.7438 18.6477 20.8381 18.4971 20.8257C18.3456 20.8152 18.2443 20.7112 18.268 20.617V20.6178Z" fill="#0D808A"/>
<path d="M17.6409 20.3153C17.6718 20.2783 17.8876 20.1039 18.0611 19.9128C18.2399 19.7207 18.3756 19.5164 18.3756 19.5164C18.3756 19.5164 18.3483 19.5719 18.3122 19.6591C18.276 19.7454 18.232 19.8634 18.195 19.9876C18.1166 20.2378 18.0787 20.51 18.062 20.5549C18.0303 20.6465 17.8885 20.6782 17.7555 20.6025C17.6224 20.5276 17.5793 20.3867 17.6409 20.3153Z" fill="#0D808A"/>
<path d="M17.2084 19.7728C17.2533 19.7525 17.5185 19.6909 17.7616 19.5913C18.0047 19.4962 18.2152 19.3702 18.2152 19.3702C18.2152 19.3702 18.0241 19.5226 17.8479 19.7182C17.6717 19.9085 17.5176 20.1375 17.4832 20.1718C17.4163 20.2397 17.2736 20.208 17.1864 20.0829C17.1441 20.0212 17.1274 19.9516 17.1309 19.8961C17.1371 19.8389 17.1644 19.7939 17.2075 19.7737L17.2084 19.7728Z" fill="#0D808A"/>
<path d="M17.0525 19.0954C17.1001 19.0954 17.3723 19.1562 17.6312 19.172C17.7598 19.1817 17.8867 19.1826 17.9818 19.1791C18.0761 19.1764 18.1369 19.1703 18.1369 19.1703C18.1369 19.1703 18.077 19.1835 17.9862 19.2099C17.8946 19.2355 17.7748 19.2751 17.655 19.3236C17.4137 19.4178 17.1723 19.5587 17.1283 19.5737C17.0384 19.6063 16.9239 19.5138 16.901 19.3632C16.8754 19.2126 16.96 19.0919 17.0525 19.0945V19.0954Z" fill="#0D808A"/>
<path d="M17.2084 18.4179C17.2525 18.44 17.4656 18.61 17.6947 18.7377C17.9211 18.8689 18.1501 18.9553 18.1501 18.9553C18.1501 18.9553 17.9122 18.9007 17.6497 18.8848C17.3908 18.8654 17.1159 18.8883 17.0675 18.883C16.9724 18.8725 16.9089 18.7412 16.9521 18.595C16.975 18.5236 17.0182 18.4664 17.064 18.4347C17.1133 18.4038 17.1644 18.3977 17.2076 18.4188L17.2084 18.4179Z" fill="#0D808A"/>
<path d="M17.6409 17.8748C17.6691 17.9118 17.7924 18.1611 17.9412 18.3742C18.0857 18.5883 18.2575 18.768 18.2575 18.768C18.2575 18.768 18.2099 18.7292 18.1324 18.6746C18.0558 18.62 17.9492 18.5495 17.8364 18.487C17.6127 18.3575 17.3519 18.2562 17.3123 18.2307C17.2313 18.1805 17.2313 18.0333 17.3343 17.9224C17.4365 17.8105 17.5818 17.7964 17.64 17.8739L17.6409 17.8748Z" fill="#0D808A"/>
<path d="M18.2681 17.5736C18.2778 17.6203 18.2796 17.8987 18.321 18.1533C18.3597 18.4131 18.4355 18.6465 18.4355 18.6465C18.4355 18.6465 18.4091 18.5902 18.3633 18.5082C18.3183 18.4263 18.2531 18.3189 18.1791 18.2114C18.032 17.9947 17.8435 17.7956 17.818 17.7542C17.766 17.6723 17.8294 17.5419 17.9713 17.4847C18.1131 17.4274 18.2505 17.4811 18.2681 17.5736Z" fill="#0D808A"/>
<path d="M18.9622 17.5732C18.9508 17.619 18.8327 17.8692 18.7596 18.1193C18.683 18.3669 18.6495 18.6126 18.6495 18.6126C18.6495 18.6126 18.6495 18.366 18.6063 18.1088C18.5676 17.8533 18.4848 17.5882 18.4795 17.5406C18.4689 17.4472 18.5826 17.353 18.7332 17.3653C18.8847 17.3759 18.986 17.4798 18.9622 17.5741V17.5732Z" fill="#0D808A"/>
<path d="M19.5885 17.8749C19.5577 17.9119 19.3419 18.0863 19.1683 18.2775C18.9895 18.4695 18.8539 18.6738 18.8539 18.6738C18.8539 18.6738 18.8812 18.6184 18.9173 18.5311C18.9534 18.4448 18.9975 18.3268 19.0345 18.2026C19.1129 17.9524 19.1507 17.6802 19.1675 17.6353C19.1992 17.5437 19.341 17.512 19.474 17.5877C19.607 17.6626 19.6502 17.8035 19.5885 17.8749Z" fill="#0D808A"/>
<path d="M20.0211 18.4181C19.9761 18.4383 19.711 18.5 19.4679 18.5995C19.2248 18.6947 19.0142 18.8206 19.0142 18.8206C19.0142 18.8206 19.2054 18.6682 19.3815 18.4727C19.5577 18.2824 19.7119 18.0534 19.7462 18.019C19.8132 17.9512 19.9559 17.9829 20.0431 18.108C20.0854 18.1697 20.1021 18.2393 20.0986 18.2948C20.0924 18.352 20.0651 18.3969 20.0219 18.4172L20.0211 18.4181Z" fill="#0D808A"/>
<path d="M20.177 19.0957C20.1294 19.0957 19.8572 19.0349 19.5982 19.0191C19.4696 19.0094 19.3428 19.0085 19.2476 19.012C19.1534 19.0147 19.0926 19.0208 19.0926 19.0208C19.0926 19.0208 19.1525 19.0076 19.2432 18.9812C19.3348 18.9556 19.4546 18.916 19.5744 18.8676C19.8158 18.7733 20.0572 18.6324 20.1012 18.6174C20.191 18.5848 20.3056 18.6773 20.3285 18.8279C20.354 18.9785 20.2694 19.0992 20.177 19.0966V19.0957Z" fill="#0D808A"/>
<path d="M18.6213 21.5477C18.5429 21.5477 18.4742 21.4825 18.4742 21.4041C18.4742 21.3231 18.5394 21.2579 18.6213 21.2579C18.6997 21.2579 18.7649 21.3231 18.7676 21.4015C18.7676 21.4825 18.7024 21.5486 18.6213 21.5486V21.5477ZM17.8655 21.4297C17.7871 21.4068 17.7449 21.3257 17.7713 21.2473C17.7942 21.1724 17.8752 21.1302 17.9536 21.1557V21.1522C18.0285 21.1786 18.0708 21.2596 18.0479 21.3345C18.0285 21.3962 17.9695 21.4358 17.9078 21.4358C17.8946 21.4358 17.8788 21.4358 17.8655 21.4288V21.4297ZM19.1948 21.3319C19.1684 21.257 19.2115 21.176 19.289 21.1495C19.3639 21.1266 19.4458 21.1654 19.4714 21.2438C19.4978 21.3187 19.4555 21.3997 19.3771 21.4261C19.3639 21.4297 19.3481 21.4332 19.3348 21.4332C19.2732 21.4332 19.2142 21.3944 19.1948 21.3319ZM17.1811 21.0844C17.1159 21.0385 17.1001 20.9478 17.1485 20.8826C17.1943 20.8174 17.2851 20.8016 17.3502 20.85C17.4154 20.8958 17.4286 20.9866 17.3828 21.0518C17.3538 21.0905 17.3115 21.1134 17.2657 21.1134C17.2366 21.1134 17.2066 21.1037 17.1811 21.0844ZM19.8563 21.0456C19.8105 20.9804 19.8237 20.8897 19.8889 20.8439C19.9541 20.7954 20.0457 20.8086 20.0906 20.8729C20.1391 20.9381 20.1232 21.0297 20.0616 21.0782C20.0351 21.0949 20.0025 21.1046 19.9735 21.1046C19.9312 21.1046 19.8854 21.0852 19.8563 21.0465V21.0456ZM16.6376 20.547C16.5892 20.4818 16.605 20.3911 16.6667 20.3418C16.7319 20.296 16.8235 20.3092 16.8719 20.3744C16.9177 20.4396 16.9045 20.5276 16.8393 20.5761C16.8129 20.5955 16.7838 20.6052 16.7548 20.6052C16.709 20.6052 16.6667 20.5858 16.6376 20.5461V20.547ZM20.3972 20.5664C20.332 20.5171 20.3188 20.4263 20.3646 20.3647C20.4139 20.2995 20.5046 20.2836 20.5698 20.3321C20.635 20.3805 20.6482 20.4686 20.6024 20.5338H20.5989C20.5725 20.5726 20.5275 20.5955 20.4817 20.5955C20.4527 20.5955 20.4227 20.5858 20.3972 20.5664ZM16.2853 19.8661C16.2597 19.7877 16.302 19.7067 16.3769 19.6802C16.4553 19.6573 16.5363 19.6961 16.5627 19.7745C16.5856 19.8494 16.5469 19.9313 16.4685 19.9568C16.4553 19.9604 16.4394 19.963 16.4227 19.963C16.3637 19.963 16.3055 19.9242 16.2853 19.8652V19.8661ZM20.7654 19.9445C20.6905 19.9216 20.6482 19.837 20.6747 19.7622C20.6976 19.6873 20.7786 19.645 20.857 19.6679C20.9319 19.6934 20.9742 19.7754 20.9477 19.8538C20.9283 19.9128 20.8728 19.9515 20.8112 19.9515C20.7953 19.9515 20.7821 19.9515 20.7654 19.9454V19.9445ZM16.1619 19.1103C16.1619 19.0293 16.2271 18.9632 16.3055 18.9632C16.3865 18.9632 16.4526 19.0249 16.4526 19.1068C16.4526 19.1878 16.391 19.2539 16.309 19.2539C16.228 19.2539 16.1619 19.1887 16.1619 19.1103ZM20.7786 19.0936V19.0804V19.0707C20.7786 18.9896 20.8403 18.9236 20.9222 18.9236C21.0006 18.92 21.0658 18.9852 21.0684 19.0671V19.0804V19.0936C21.0684 19.1746 21.0032 19.2407 20.9222 19.2407C20.8438 19.2407 20.7786 19.1755 20.7786 19.0936ZM16.3698 18.5333C16.2949 18.5104 16.2527 18.4294 16.2756 18.351C16.302 18.2761 16.383 18.2338 16.4579 18.2567C16.5363 18.2796 16.5786 18.3607 16.5522 18.4391C16.5328 18.5007 16.4773 18.5404 16.4156 18.5404C16.3989 18.5404 16.3866 18.5369 16.3698 18.5333ZM20.6641 18.403C20.6377 18.3281 20.6799 18.2471 20.7548 18.2206C20.8297 18.1942 20.9142 18.2338 20.9407 18.3122C20.9671 18.3871 20.9248 18.4682 20.8499 18.4946C20.8341 18.5016 20.8174 18.5043 20.8015 18.5043C20.7425 18.5043 20.6843 18.4655 20.665 18.403H20.6641ZM16.6535 17.8692C16.5883 17.8234 16.5751 17.7326 16.6209 17.6674C16.6667 17.6023 16.7574 17.5864 16.8226 17.6348C16.8878 17.6807 16.9036 17.7714 16.8552 17.8366C16.8296 17.8753 16.7838 17.8947 16.738 17.8947C16.709 17.8947 16.6799 17.8885 16.6535 17.8683V17.8692ZM20.3514 17.8075C20.302 17.7423 20.3153 17.6507 20.3804 17.6023C20.4456 17.5565 20.5372 17.5697 20.5822 17.6322H20.5857C20.6315 17.6974 20.6183 17.7881 20.5531 17.8374C20.5267 17.8568 20.4976 17.8665 20.4685 17.8665C20.4227 17.8665 20.3804 17.8436 20.3514 17.8084V17.8075ZM17.1291 17.3248C17.0807 17.2596 17.093 17.168 17.1582 17.1195C17.2234 17.0737 17.315 17.0869 17.3599 17.1521C17.4084 17.2173 17.396 17.3089 17.3308 17.3538C17.3044 17.3732 17.2754 17.3829 17.2428 17.3829C17.2005 17.3829 17.1547 17.3635 17.1291 17.3248ZM19.8695 17.3345V17.3309C19.8043 17.2851 19.7885 17.1944 19.8369 17.1292C19.8827 17.064 19.9735 17.0508 20.0387 17.0966C20.1038 17.1424 20.1171 17.2332 20.0712 17.2984C20.0422 17.3371 19.9999 17.36 19.9541 17.36C19.925 17.36 19.8951 17.3503 19.8695 17.3336V17.3345ZM17.7449 16.9495C17.722 16.8747 17.7607 16.7936 17.8391 16.7672C17.914 16.7408 17.9959 16.783 18.0215 16.8588C18.0479 16.9337 18.0056 17.0182 17.9307 17.0411V17.0447C17.914 17.0482 17.8981 17.0517 17.8849 17.0517C17.8233 17.0517 17.7678 17.0129 17.7449 16.9504V16.9495ZM19.2635 17.0314C19.1886 17.0085 19.1463 16.924 19.1692 16.8491C19.1957 16.7707 19.2767 16.7319 19.3516 16.7549C19.43 16.7778 19.4723 16.8588 19.4458 16.9372C19.4264 16.9989 19.371 17.0385 19.3093 17.0385C19.2934 17.0385 19.2802 17.035 19.2635 17.0314ZM18.4487 16.7866C18.4487 16.709 18.5139 16.643 18.5958 16.6403V16.6439C18.6742 16.6403 18.7394 16.7055 18.7394 16.7874C18.7394 16.8658 18.6777 16.931 18.5958 16.9346C18.5174 16.9346 18.4522 16.8694 18.4487 16.7874V16.7866Z" fill="#0D808A"/>
</g>
</svg>
