<svg width="27" height="25" viewBox="0 0 27 25" fill="none" xmlns="http://www.w3.org/2000/svg">
<path d="M11.4908 5.77652C9.67331 5.1676 7.12507 6.59621 6.07813 7.38663L6.40101 9.11648L13.54 12.5894C15.8665 12.8283 20.8225 13.2635 22.0347 13.093C21.7782 9.97994 19.5504 8.47677 18.4686 8.11432L11.4908 5.77652Z" fill="url(#paint0_linear_104_45154)"/>
<path d="M4.95232 5.78287C4.71171 5.60184 4.2746 5.93239 4.08612 6.12029L7.84476 9.51355L8.93668 9.25175C7.70882 8.17089 5.19293 5.9639 4.95232 5.78287Z" fill="#E37800"/>
<path d="M24.0329 12.4699L19.0469 12.776L19.3465 13.7551L24.5042 12.9725L24.4854 12.8392C24.454 12.6169 24.257 12.4561 24.0329 12.4699Z" fill="#E37800"/>
<path d="M4.0843 6.12601L2.2268 15.0414C8.24709 15.3517 17.2219 19.3542 20.9568 21.3166L24.5068 12.9683L19.6144 13.3371L15.8263 5.16561L7.87989 9.40561L4.0843 6.12601Z" fill="url(#paint1_linear_104_45154)"/>
<path fill-rule="evenodd" clip-rule="evenodd" d="M21.3733 22.0833C21.3799 20.8732 19.4374 19.8683 16.2941 18.2744C10.5031 15.7068 3.69427 14.304 1.54935 14.3384C0.377635 14.3571 0.73912 15.2745 1.23702 15.776C4.2949 18.8572 10.4377 20.5992 12.916 21.2916C12.9918 21.3128 13.0632 21.3327 13.1301 21.3515C19.5104 23.2512 21.1875 23.1048 21.3733 22.0833Z" fill="url(#paint2_linear_104_45154)"/>
<path d="M18.4381 20.8642C18.2711 21.3627 14.7511 20.6329 10.576 19.2341C6.40086 17.8353 3.15165 16.2972 3.31867 15.7986C3.4857 15.3001 7.0057 16.03 11.1808 17.4288C15.3559 18.8276 18.6051 20.3657 18.4381 20.8642Z" fill="url(#paint3_linear_104_45154)"/>
<g filter="url(#filter0_f_104_45154)">
<path fill-rule="evenodd" clip-rule="evenodd" d="M15.8358 5.11107L19.6288 13.2932L24.552 12.9221L21.0945 20.9809L21.0352 20.9554L24.4508 12.9944L19.5891 13.3609L15.8059 5.20015L7.87014 9.4345L4.09961 6.17656L2.40424 14.5865L2.34097 14.5737L4.05818 6.05546L7.87883 9.35671L15.8358 5.11107Z" fill="url(#paint4_linear_104_45154)"/>
</g>
<path d="M17.8351 19.6957L24.5137 12.9697L20.9628 21.1975L17.8351 19.6957Z" fill="url(#paint5_linear_104_45154)"/>
<path d="M4.0791 6.23706L2.39919 14.6378C3.62417 14.5036 5.78943 15.0173 6.71894 15.2909L4.0791 6.23706Z" fill="url(#paint6_linear_104_45154)"/>
<path d="M7.8856 9.44113L4.11426 6.13525L2.43434 14.536L7.8856 9.44113Z" fill="url(#paint7_linear_104_45154)"/>
<path d="M24.5145 12.9699L19.5127 13.3365L21.032 20.9937L24.5145 12.9699Z" fill="url(#paint8_linear_104_45154)"/>
<path d="M14.9877 12.9626L12.3988 14.932L11.417 11.7663L14.1762 9.62696L14.9877 12.9626Z" fill="url(#paint9_linear_104_45154)"/>
<path d="M11.6211 11.8371L14.1079 9.8335L14.7837 12.8967L12.4673 14.7305L11.6211 11.8371Z" fill="#D9D9D9"/>
<path d="M13.2534 12.384L14.1079 9.8335L11.6211 11.8371L13.2534 12.384Z" fill="url(#paint10_linear_104_45154)"/>
<path d="M14.1074 9.83325L13.2529 12.3837L14.7832 12.8964L14.1074 9.83325Z" fill="#129AA6"/>
<path d="M14.7852 12.8906L13.2549 12.3779L12.4687 14.7244L14.7852 12.8906Z" fill="url(#paint11_linear_104_45154)"/>
<path d="M11.623 11.8313L13.2554 12.3782L12.4692 14.7246L11.623 11.8313Z" fill="url(#paint12_linear_104_45154)"/>
<path d="M13.6921 12.4259L13.0984 12.8817L12.8759 12.1525L13.5086 11.6575L13.6921 12.4259Z" fill="url(#paint13_linear_104_45154)"/>
<path d="M17.2405 5.22229C17.0139 5.89842 16.2822 6.2629 15.6061 6.03637C14.9299 5.80984 14.5655 5.0781 14.792 4.40197C15.0185 3.72584 15.7503 3.36137 16.4264 3.5879C17.1025 3.81442 17.467 4.54617 17.2405 5.22229Z" fill="#1D8E7C"/>
<path d="M17.2405 5.22229C17.0139 5.89842 16.2822 6.2629 15.6061 6.03637C14.9299 5.80984 14.5655 5.0781 14.792 4.40197C15.0185 3.72584 15.7503 3.36137 16.4264 3.5879C17.1025 3.81442 17.467 4.54617 17.2405 5.22229Z" fill="#1D8E7C"/>
<path fill-rule="evenodd" clip-rule="evenodd" d="M15.6197 5.99556C16.2733 6.21454 16.9807 5.86221 17.1997 5.20862C17.4186 4.55503 17.0663 3.84768 16.4127 3.6287C15.7591 3.40973 15.0518 3.76205 14.8328 4.41564C14.6138 5.06923 14.9661 5.77659 15.6197 5.99556ZM15.6061 6.03637C16.2822 6.2629 17.0139 5.89842 17.2405 5.22229C17.467 4.54617 17.1025 3.81442 16.4264 3.5879C15.7503 3.36137 15.0185 3.72584 14.792 4.40197C14.5655 5.0781 14.9299 5.80984 15.6061 6.03637Z" fill="url(#paint14_linear_104_45154)"/>
<path d="M16.9683 4.67725C16.8172 5.128 16.3294 5.37098 15.8787 5.21996C15.4279 5.06895 15.1849 4.58112 15.3359 4.13037C15.487 3.67962 15.9748 3.43663 16.4255 3.58765C16.8763 3.73867 17.1193 4.2265 16.9683 4.67725Z" fill="url(#paint15_radial_104_45154)"/>
<defs>
<filter id="filter0_f_104_45154" x="2.04082" y="4.81108" width="22.8109" height="16.4699" filterUnits="userSpaceOnUse" color-interpolation-filters="sRGB">
<feFlood flood-opacity="0" result="BackgroundImageFix"/>
<feBlend mode="normal" in="SourceGraphic" in2="BackgroundImageFix" result="shape"/>
<feGaussianBlur stdDeviation="0.15" result="effect1_foregroundBlur_104_45154"/>
</filter>
<linearGradient id="paint0_linear_104_45154" x1="15.142" y1="6.99979" x2="13.2966" y2="12.5079" gradientUnits="userSpaceOnUse">
<stop stop-color="#61FFD8"/>
<stop offset="0.671875" stop-color="#1D8E7C"/>
</linearGradient>
<linearGradient id="paint1_linear_104_45154" x1="23.1382" y1="17.4041" x2="2.41389" y2="11.0882" gradientUnits="userSpaceOnUse">
<stop stop-color="#FF8F16"/>
<stop offset="0.1875" stop-color="#F6AA35"/>
<stop offset="0.375" stop-color="#FFDE16"/>
<stop offset="0.578125" stop-color="#FFFDE4"/>
<stop offset="0.770833" stop-color="#FFE81C"/>
<stop offset="1" stop-color="#FF8F16"/>
</linearGradient>
<linearGradient id="paint2_linear_104_45154" x1="11.5211" y1="16.4615" x2="10.1696" y2="20.4955" gradientUnits="userSpaceOnUse">
<stop stop-color="#FF831A"/>
<stop offset="1" stop-color="#FFD74C"/>
</linearGradient>
<linearGradient id="paint3_linear_104_45154" x1="11.1808" y1="17.4288" x2="10.576" y2="19.2341" gradientUnits="userSpaceOnUse">
<stop stop-color="#552D02"/>
<stop offset="1" stop-color="#AA4711"/>
</linearGradient>
<linearGradient id="paint4_linear_104_45154" x1="15.7644" y1="5.13671" x2="11.5306" y2="17.7738" gradientUnits="userSpaceOnUse">
<stop stop-color="#FEFEA2"/>
<stop offset="1" stop-color="#FFFF7C"/>
</linearGradient>
<linearGradient id="paint5_linear_104_45154" x1="24.3775" y1="13.0375" x2="19.6366" y2="20.7531" gradientUnits="userSpaceOnUse">
<stop stop-color="white"/>
<stop offset="1" stop-color="white" stop-opacity="0"/>
</linearGradient>
<linearGradient id="paint6_linear_104_45154" x1="6.62942" y1="7.0915" x2="3.92938" y2="15.1505" gradientUnits="userSpaceOnUse">
<stop stop-color="white"/>
<stop offset="1" stop-color="white" stop-opacity="0"/>
</linearGradient>
<linearGradient id="paint7_linear_104_45154" x1="6.30753" y1="6.87008" x2="3.60749" y2="14.9291" gradientUnits="userSpaceOnUse">
<stop stop-color="white" stop-opacity="0.62"/>
<stop offset="1" stop-color="white" stop-opacity="0"/>
</linearGradient>
<linearGradient id="paint8_linear_104_45154" x1="22.3212" y1="12.2351" x2="19.5528" y2="20.4981" gradientUnits="userSpaceOnUse">
<stop stop-color="white" stop-opacity="0.56"/>
<stop offset="1" stop-color="white" stop-opacity="0"/>
</linearGradient>
<linearGradient id="paint9_linear_104_45154" x1="14.1252" y1="9.60987" x2="12.3478" y2="14.9149" gradientUnits="userSpaceOnUse">
<stop stop-color="white" stop-opacity="0"/>
<stop offset="1" stop-color="#F7B02D"/>
</linearGradient>
<linearGradient id="paint10_linear_104_45154" x1="12.7107" y1="11.2944" x2="13.2192" y2="12.486" gradientUnits="userSpaceOnUse">
<stop stop-color="#0D808A"/>
<stop offset="1" stop-color="white"/>
</linearGradient>
<linearGradient id="paint11_linear_104_45154" x1="13.2207" y1="12.4799" x2="13.6935" y2="14.7943" gradientUnits="userSpaceOnUse">
<stop stop-color="#0D808A"/>
<stop offset="1" stop-color="#32DAB1"/>
</linearGradient>
<linearGradient id="paint12_linear_104_45154" x1="12.4392" y1="12.1047" x2="11.6531" y2="14.4512" gradientUnits="userSpaceOnUse">
<stop stop-color="#1D8E7C"/>
<stop offset="1" stop-color="#32DAB1"/>
</linearGradient>
<linearGradient id="paint13_linear_104_45154" x1="13.4969" y1="11.6536" x2="13.0868" y2="12.8778" gradientUnits="userSpaceOnUse">
<stop stop-color="white" stop-opacity="0"/>
<stop offset="1" stop-color="#F7B02D"/>
</linearGradient>
<linearGradient id="paint14_linear_104_45154" x1="16.4264" y1="3.5879" x2="15.6061" y2="6.03637" gradientUnits="userSpaceOnUse">
<stop stop-color="white"/>
<stop offset="1" stop-color="white" stop-opacity="0"/>
</linearGradient>
<radialGradient id="paint15_radial_104_45154" cx="0" cy="0" r="1" gradientUnits="userSpaceOnUse" gradientTransform="translate(16.2996 4.07652) rotate(93.2675) scale(1.22683)">
<stop stop-color="white" stop-opacity="0.72"/>
<stop offset="0.234375" stop-color="white" stop-opacity="0.72"/>
<stop offset="1" stop-color="white" stop-opacity="0"/>
</radialGradient>
</defs>
</svg>
