<svg width="27" height="25" viewBox="0 0 27 25" fill="none" xmlns="http://www.w3.org/2000/svg">
<path d="M11.4918 5.77652C9.67429 5.1676 7.12604 6.59621 6.0791 7.38663L6.40199 9.11648L13.541 12.5894C15.8674 12.8283 20.8235 13.2635 22.0357 13.093C21.7792 9.97994 19.5514 8.47677 18.4696 8.11432L11.4918 5.77652Z" fill="url(#paint0_linear_104_45208)"/>
<path d="M4.9533 5.78287C4.71269 5.60184 4.27558 5.93239 4.0871 6.12029L7.84574 9.51355L8.93766 9.25175C7.70979 8.17089 5.19391 5.9639 4.9533 5.78287Z" fill="#D69067"/>
<path d="M24.0338 12.4699L19.0479 12.776L19.3475 13.7551L24.5052 12.9725L24.4864 12.8392C24.4549 12.6169 24.2579 12.4561 24.0338 12.4699Z" fill="#D69067"/>
<path d="M4.08528 6.12601L2.22778 15.0414C8.24807 15.3517 17.2229 19.3542 20.9578 21.3166L24.5078 12.9683L19.6153 13.3371L15.8272 5.16561L7.88087 9.40561L4.08528 6.12601Z" fill="url(#paint1_linear_104_45208)"/>
<path fill-rule="evenodd" clip-rule="evenodd" d="M21.3743 22.0833C21.3809 20.8732 19.4384 19.8683 16.295 18.2744C10.504 15.7068 3.69525 14.304 1.55033 14.3384C0.378611 14.3571 0.740096 15.2745 1.23799 15.776C4.29588 18.8572 10.4386 20.5992 12.9169 21.2916C12.9927 21.3128 13.0642 21.3327 13.1311 21.3515C19.5114 23.2512 21.1885 23.1048 21.3743 22.0833Z" fill="url(#paint2_linear_104_45208)"/>
<path d="M18.4391 20.8642C18.2721 21.3627 14.7521 20.6329 10.577 19.2341C6.40183 17.8353 3.15263 16.2972 3.31965 15.7986C3.48667 15.3001 7.00667 16.03 11.1818 17.4288C15.3569 18.8276 18.6061 20.3657 18.4391 20.8642Z" fill="url(#paint3_linear_104_45208)"/>
<g filter="url(#filter0_f_104_45208)">
<path fill-rule="evenodd" clip-rule="evenodd" d="M15.8368 5.11107L19.6298 13.2932L24.553 12.9221L21.0955 20.9809L21.0362 20.9554L24.4517 12.9944L19.5901 13.3609L15.8069 5.20015L7.87112 9.4345L4.10059 6.17656L2.40522 14.5865L2.34195 14.5737L4.05916 6.05546L7.87981 9.35671L15.8368 5.11107Z" fill="url(#paint4_linear_104_45208)"/>
</g>
<path d="M17.8361 19.6957L24.5146 12.9697L20.9638 21.1975L17.8361 19.6957Z" fill="url(#paint5_linear_104_45208)"/>
<path d="M4.08008 6.23706L2.40016 14.6378C3.62515 14.5036 5.79041 15.0173 6.71991 15.2909L4.08008 6.23706Z" fill="url(#paint6_linear_104_45208)"/>
<path d="M7.88658 9.44113L4.11523 6.13525L2.43532 14.536L7.88658 9.44113Z" fill="url(#paint7_linear_104_45208)"/>
<path d="M24.5155 12.9699L19.5137 13.3365L21.033 20.9937L24.5155 12.9699Z" fill="url(#paint8_linear_104_45208)"/>
<path d="M14.9886 12.9626L12.3998 14.932L11.418 11.7663L14.1772 9.62696L14.9886 12.9626Z" fill="url(#paint9_linear_104_45208)"/>
<path d="M11.6221 11.8371L14.1089 9.8335L14.7847 12.8967L12.4682 14.7305L11.6221 11.8371Z" fill="#D9D9D9"/>
<path d="M13.2544 12.384L14.1089 9.8335L11.6221 11.8371L13.2544 12.384Z" fill="url(#paint10_linear_104_45208)"/>
<path d="M14.1084 9.83325L13.2539 12.3837L14.7842 12.8964L14.1084 9.83325Z" fill="#129AA6"/>
<path d="M14.7862 12.8906L13.2559 12.3779L12.4697 14.7244L14.7862 12.8906Z" fill="url(#paint11_linear_104_45208)"/>
<path d="M11.624 11.8313L13.2563 12.3782L12.4702 14.7246L11.624 11.8313Z" fill="url(#paint12_linear_104_45208)"/>
<path d="M13.693 12.4259L13.0994 12.8817L12.8769 12.1525L13.5096 11.6575L13.693 12.4259Z" fill="url(#paint13_linear_104_45208)"/>
<path d="M17.2414 5.22229C17.0149 5.89842 16.2832 6.2629 15.607 6.03637C14.9309 5.80984 14.5664 5.0781 14.793 4.40197C15.0195 3.72584 15.7512 3.36137 16.4274 3.5879C17.1035 3.81442 17.468 4.54617 17.2414 5.22229Z" fill="#1D8E7C"/>
<path d="M17.2414 5.22229C17.0149 5.89842 16.2832 6.2629 15.607 6.03637C14.9309 5.80984 14.5664 5.0781 14.793 4.40197C15.0195 3.72584 15.7512 3.36137 16.4274 3.5879C17.1035 3.81442 17.468 4.54617 17.2414 5.22229Z" fill="#1D8E7C"/>
<path fill-rule="evenodd" clip-rule="evenodd" d="M15.6207 5.99556C16.2743 6.21454 16.9817 5.86221 17.2006 5.20862C17.4196 4.55503 17.0673 3.84768 16.4137 3.6287C15.7601 3.40973 15.0527 3.76205 14.8338 4.41564C14.6148 5.06923 14.9671 5.77659 15.6207 5.99556ZM15.607 6.03637C16.2832 6.2629 17.0149 5.89842 17.2414 5.22229C17.468 4.54617 17.1035 3.81442 16.4274 3.5879C15.7512 3.36137 15.0195 3.72584 14.793 4.40197C14.5664 5.0781 14.9309 5.80984 15.607 6.03637Z" fill="url(#paint14_linear_104_45208)"/>
<path d="M16.9692 4.67725C16.8182 5.128 16.3304 5.37098 15.8796 5.21996C15.4289 5.06895 15.1859 4.58112 15.3369 4.13037C15.4879 3.67962 15.9758 3.43663 16.4265 3.58765C16.8773 3.73867 17.1202 4.2265 16.9692 4.67725Z" fill="url(#paint15_radial_104_45208)"/>
<defs>
<filter id="filter0_f_104_45208" x="2.0418" y="4.81108" width="22.8109" height="16.4699" filterUnits="userSpaceOnUse" color-interpolation-filters="sRGB">
<feFlood flood-opacity="0" result="BackgroundImageFix"/>
<feBlend mode="normal" in="SourceGraphic" in2="BackgroundImageFix" result="shape"/>
<feGaussianBlur stdDeviation="0.15" result="effect1_foregroundBlur_104_45208"/>
</filter>
<linearGradient id="paint0_linear_104_45208" x1="15.1429" y1="6.99979" x2="13.2975" y2="12.5079" gradientUnits="userSpaceOnUse">
<stop stop-color="#61FFD8"/>
<stop offset="0.671875" stop-color="#1D8E7C"/>
</linearGradient>
<linearGradient id="paint1_linear_104_45208" x1="23.1392" y1="17.4041" x2="2.41486" y2="11.0882" gradientUnits="userSpaceOnUse">
<stop stop-color="#D58E64"/>
<stop offset="0.1875" stop-color="#E1A382"/>
<stop offset="0.375" stop-color="#F8BDA2"/>
<stop offset="0.578125" stop-color="#FFD9C8"/>
<stop offset="0.770833" stop-color="#E1A382"/>
<stop offset="1" stop-color="#D58E64"/>
</linearGradient>
<linearGradient id="paint2_linear_104_45208" x1="11.5221" y1="16.4615" x2="10.1705" y2="20.4955" gradientUnits="userSpaceOnUse">
<stop stop-color="#D7926A"/>
<stop offset="1" stop-color="#E2A585"/>
</linearGradient>
<linearGradient id="paint3_linear_104_45208" x1="11.1818" y1="17.4288" x2="10.577" y2="19.2341" gradientUnits="userSpaceOnUse">
<stop stop-color="#CB7D4B"/>
<stop offset="1" stop-color="#F5B497"/>
</linearGradient>
<linearGradient id="paint4_linear_104_45208" x1="15.7654" y1="5.13671" x2="11.5315" y2="17.7738" gradientUnits="userSpaceOnUse">
<stop stop-color="#FEFEA2"/>
<stop offset="1" stop-color="#FFFF7C"/>
</linearGradient>
<linearGradient id="paint5_linear_104_45208" x1="24.3784" y1="13.0375" x2="19.6376" y2="20.7531" gradientUnits="userSpaceOnUse">
<stop stop-color="white"/>
<stop offset="1" stop-color="white" stop-opacity="0"/>
</linearGradient>
<linearGradient id="paint6_linear_104_45208" x1="6.6304" y1="7.0915" x2="3.93035" y2="15.1505" gradientUnits="userSpaceOnUse">
<stop stop-color="white"/>
<stop offset="1" stop-color="white" stop-opacity="0"/>
</linearGradient>
<linearGradient id="paint7_linear_104_45208" x1="6.30851" y1="6.87008" x2="3.60846" y2="14.9291" gradientUnits="userSpaceOnUse">
<stop stop-color="white" stop-opacity="0.62"/>
<stop offset="1" stop-color="white" stop-opacity="0"/>
</linearGradient>
<linearGradient id="paint8_linear_104_45208" x1="22.3222" y1="12.2351" x2="19.5538" y2="20.4981" gradientUnits="userSpaceOnUse">
<stop stop-color="white" stop-opacity="0.56"/>
<stop offset="1" stop-color="white" stop-opacity="0"/>
</linearGradient>
<linearGradient id="paint9_linear_104_45208" x1="14.1262" y1="9.60987" x2="12.3488" y2="14.9149" gradientUnits="userSpaceOnUse">
<stop stop-color="white" stop-opacity="0"/>
<stop offset="1" stop-color="#E4A88A"/>
</linearGradient>
<linearGradient id="paint10_linear_104_45208" x1="12.7117" y1="11.2944" x2="13.2202" y2="12.486" gradientUnits="userSpaceOnUse">
<stop stop-color="#0D808A"/>
<stop offset="1" stop-color="white"/>
</linearGradient>
<linearGradient id="paint11_linear_104_45208" x1="13.2217" y1="12.4799" x2="13.6945" y2="14.7943" gradientUnits="userSpaceOnUse">
<stop stop-color="#0D808A"/>
<stop offset="1" stop-color="#32DAB1"/>
</linearGradient>
<linearGradient id="paint12_linear_104_45208" x1="12.4402" y1="12.1047" x2="11.654" y2="14.4512" gradientUnits="userSpaceOnUse">
<stop stop-color="#1D8E7C"/>
<stop offset="1" stop-color="#32DAB1"/>
</linearGradient>
<linearGradient id="paint13_linear_104_45208" x1="13.4979" y1="11.6536" x2="13.0878" y2="12.8778" gradientUnits="userSpaceOnUse">
<stop stop-color="white" stop-opacity="0"/>
<stop offset="1" stop-color="#F7B02D"/>
</linearGradient>
<linearGradient id="paint14_linear_104_45208" x1="16.4274" y1="3.5879" x2="15.607" y2="6.03637" gradientUnits="userSpaceOnUse">
<stop stop-color="white"/>
<stop offset="1" stop-color="white" stop-opacity="0"/>
</linearGradient>
<radialGradient id="paint15_radial_104_45208" cx="0" cy="0" r="1" gradientUnits="userSpaceOnUse" gradientTransform="translate(16.3006 4.07652) rotate(93.2675) scale(1.22683)">
<stop stop-color="white" stop-opacity="0.72"/>
<stop offset="0.234375" stop-color="white" stop-opacity="0.72"/>
<stop offset="1" stop-color="white" stop-opacity="0"/>
</radialGradient>
</defs>
</svg>
