<svg width="45" height="27" viewBox="0 0 45 27" fill="none" xmlns="http://www.w3.org/2000/svg">
<g clip-path="url(#clip0_44_65)">
<path d="M44.5 6.5L38.5 0H0V27H38.5L44.5 21V6.5Z" fill="url(#paint0_linear_44_65)"/>
</g>
<path d="M7.6543 9.46875H9.11914V15.1699C9.11914 15.8184 8.97852 16.3613 8.69727 16.7988C8.41602 17.2363 8.0332 17.5664 7.54883 17.7891C7.06836 18.0078 6.53125 18.1172 5.9375 18.1172C5.32422 18.1172 4.77734 18.0078 4.29688 17.7891C3.81641 17.5664 3.4375 17.2363 3.16016 16.7988C2.88672 16.3613 2.75 15.8184 2.75 15.1699V9.46875H4.21484V15.1699C4.21484 15.5801 4.28516 15.918 4.42578 16.1836C4.56641 16.4453 4.76562 16.6387 5.02344 16.7637C5.28125 16.8887 5.58594 16.9512 5.9375 16.9512C6.28906 16.9512 6.5918 16.8887 6.8457 16.7637C7.10352 16.6387 7.30273 16.4453 7.44336 16.1836C7.58398 15.918 7.6543 15.5801 7.6543 15.1699V9.46875ZM11.5102 12.9492V18H10.0981V11.6602H11.4282L11.5102 12.9492ZM11.2817 14.5957L10.8012 14.5898C10.8012 14.1523 10.8559 13.748 10.9653 13.377C11.0747 13.0059 11.2348 12.6836 11.4458 12.4102C11.6567 12.1328 11.9184 11.9199 12.2309 11.7715C12.5473 11.6191 12.9126 11.543 13.3266 11.543C13.6157 11.543 13.8794 11.5859 14.1177 11.6719C14.3598 11.7539 14.5688 11.8848 14.7446 12.0645C14.9243 12.2441 15.061 12.4746 15.1548 12.7559C15.2524 13.0371 15.3012 13.377 15.3012 13.7754V18H13.8891V13.8984C13.8891 13.5898 13.8423 13.3477 13.7485 13.1719C13.6587 12.9961 13.5278 12.8711 13.3559 12.7969C13.188 12.7188 12.9868 12.6797 12.7524 12.6797C12.4868 12.6797 12.2602 12.7305 12.0727 12.832C11.8891 12.9336 11.7387 13.0723 11.6216 13.248C11.5044 13.4238 11.4184 13.627 11.3637 13.8574C11.3091 14.0879 11.2817 14.334 11.2817 14.5957ZM15.2134 14.2207L14.5512 14.3672C14.5512 13.9844 14.604 13.623 14.7095 13.2832C14.8188 12.9395 14.977 12.6387 15.1841 12.3809C15.395 12.1191 15.6548 11.9141 15.9634 11.7656C16.272 11.6172 16.6255 11.543 17.0239 11.543C17.3481 11.543 17.6372 11.5879 17.8911 11.6777C18.1489 11.7637 18.3677 11.9004 18.5473 12.0879C18.727 12.2754 18.8637 12.5195 18.9575 12.8203C19.0512 13.1172 19.0981 13.4766 19.0981 13.8984V18H17.6802V13.8926C17.6802 13.5723 17.6333 13.3242 17.5395 13.1484C17.4497 12.9727 17.3208 12.8516 17.1528 12.7852C16.9848 12.7148 16.7837 12.6797 16.5493 12.6797C16.3305 12.6797 16.1372 12.7207 15.9692 12.8027C15.8052 12.8809 15.6665 12.9922 15.5532 13.1367C15.4399 13.2773 15.354 13.4395 15.2954 13.623C15.2407 13.8066 15.2134 14.0059 15.2134 14.2207ZM23.8857 16.5059V11.6602H25.3037V18H23.9677L23.8857 16.5059ZM24.0849 15.1875L24.5595 15.1758C24.5595 15.6016 24.5127 15.9941 24.4189 16.3535C24.3252 16.709 24.1806 17.0195 23.9853 17.2852C23.79 17.5469 23.54 17.752 23.2353 17.9004C22.9306 18.0449 22.5654 18.1172 22.1396 18.1172C21.831 18.1172 21.5478 18.0723 21.29 17.9824C21.0322 17.8926 20.8095 17.7539 20.622 17.5664C20.4384 17.3789 20.2959 17.1348 20.1943 16.834C20.0927 16.5332 20.042 16.1738 20.042 15.7559V11.6602H21.4541V15.7676C21.4541 15.998 21.4814 16.1914 21.5361 16.3477C21.5908 16.5 21.665 16.623 21.7588 16.7168C21.8525 16.8105 21.9619 16.877 22.0869 16.916C22.2119 16.9551 22.3447 16.9746 22.4853 16.9746C22.8877 16.9746 23.2041 16.8965 23.4345 16.7402C23.6689 16.5801 23.8349 16.3652 23.9326 16.0957C24.0341 15.8262 24.0849 15.5234 24.0849 15.1875ZM27.6713 13.0137V18H26.2592V11.6602H27.5893L27.6713 13.0137ZM27.4194 14.5957L26.9623 14.5898C26.9662 14.1406 27.0287 13.7285 27.1498 13.3535C27.2748 12.9785 27.4467 12.6562 27.6655 12.3867C27.8881 12.1172 28.1537 11.9102 28.4623 11.7656C28.7709 11.6172 29.1147 11.543 29.4936 11.543C29.7983 11.543 30.0737 11.5859 30.3198 11.6719C30.5698 11.7539 30.7827 11.8887 30.9584 12.0762C31.1381 12.2637 31.2748 12.5078 31.3686 12.8086C31.4623 13.1055 31.5092 13.4707 31.5092 13.9043V18H30.0912V13.8984C30.0912 13.5938 30.0463 13.3535 29.9565 13.1777C29.8705 12.998 29.7436 12.8711 29.5756 12.7969C29.4116 12.7188 29.2065 12.6797 28.9604 12.6797C28.7182 12.6797 28.5014 12.7305 28.31 12.832C28.1186 12.9336 27.9565 13.0723 27.8237 13.248C27.6948 13.4238 27.5952 13.627 27.5248 13.8574C27.4545 14.0879 27.4194 14.334 27.4194 14.5957ZM36.0273 16.2832C36.0273 16.1426 35.9921 16.0156 35.9218 15.9023C35.8515 15.7852 35.7167 15.6797 35.5175 15.5859C35.3222 15.4922 35.0331 15.4062 34.6503 15.3281C34.3144 15.2539 34.0058 15.166 33.7245 15.0645C33.4472 14.959 33.2089 14.832 33.0097 14.6836C32.8105 14.5352 32.6562 14.3594 32.5468 14.1562C32.4374 13.9531 32.3827 13.7188 32.3827 13.4531C32.3827 13.1953 32.4394 12.9512 32.5527 12.7207C32.6659 12.4902 32.828 12.2871 33.039 12.1113C33.2499 11.9355 33.5058 11.7969 33.8066 11.6953C34.1112 11.5938 34.4511 11.543 34.8261 11.543C35.3573 11.543 35.8124 11.6328 36.1913 11.8125C36.5741 11.9883 36.8671 12.2285 37.0702 12.5332C37.2734 12.834 37.3749 13.1738 37.3749 13.5527H35.9628C35.9628 13.3848 35.9198 13.2285 35.8339 13.084C35.7519 12.9355 35.6269 12.8164 35.4589 12.7266C35.2909 12.6328 35.08 12.5859 34.8261 12.5859C34.5839 12.5859 34.3827 12.625 34.2226 12.7031C34.0663 12.7773 33.9491 12.875 33.871 12.9961C33.7968 13.1172 33.7597 13.25 33.7597 13.3945C33.7597 13.5 33.7792 13.5957 33.8183 13.6816C33.8612 13.7637 33.9316 13.8398 34.0292 13.9102C34.1269 13.9766 34.2597 14.0391 34.4277 14.0977C34.5995 14.1562 34.8144 14.2129 35.0722 14.2676C35.5566 14.3691 35.9726 14.5 36.3202 14.6602C36.6718 14.8164 36.9413 15.0195 37.1288 15.2695C37.3163 15.5156 37.4101 15.8281 37.4101 16.207C37.4101 16.4883 37.3495 16.7461 37.2284 16.9805C37.1112 17.2109 36.9394 17.4121 36.7128 17.584C36.4862 17.752 36.2148 17.8828 35.8984 17.9766C35.5859 18.0703 35.2343 18.1172 34.8437 18.1172C34.2695 18.1172 33.7831 18.0156 33.3847 17.8125C32.9862 17.6055 32.6835 17.3418 32.4765 17.0215C32.2734 16.6973 32.1718 16.3613 32.1718 16.0137H33.537C33.5527 16.2754 33.6249 16.4844 33.7538 16.6406C33.8866 16.793 34.0507 16.9043 34.246 16.9746C34.4452 17.041 34.6503 17.0742 34.8612 17.0742C35.1152 17.0742 35.328 17.041 35.4999 16.9746C35.6718 16.9043 35.8027 16.8105 35.8925 16.6934C35.9823 16.5723 36.0273 16.4355 36.0273 16.2832ZM39.6781 11.6602V18H38.2602V11.6602H39.6781ZM38.1664 9.99609C38.1664 9.78125 38.2367 9.60352 38.3773 9.46289C38.5219 9.31836 38.7211 9.24609 38.975 9.24609C39.225 9.24609 39.4223 9.31836 39.5668 9.46289C39.7113 9.60352 39.7836 9.78125 39.7836 9.99609C39.7836 10.207 39.7113 10.3828 39.5668 10.5234C39.4223 10.6641 39.225 10.7344 38.975 10.7344C38.7211 10.7344 38.5219 10.6641 38.3773 10.5234C38.2367 10.3828 38.1664 10.207 38.1664 9.99609Z" fill="white"/>
<defs>
<linearGradient id="paint0_linear_44_65" x1="22.25" y1="27" x2="22.25" y2="0" gradientUnits="userSpaceOnUse">
<stop stop-color="#0E5655"/>
<stop offset="1" stop-color="#2FCDA9"/>
</linearGradient>
<clipPath id="clip0_44_65">
<rect width="44.5" height="27" fill="white"/>
</clipPath>
</defs>
</svg>
