<svg width="52" height="46" viewBox="0 0 52 46" fill="none" xmlns="http://www.w3.org/2000/svg">
<g opacity="0.5">
<path d="M15.787 7.45172C15.6226 6.5964 15.8595 5.6807 16.5346 5.09377C16.8773 4.80401 17.3026 4.67214 17.6918 4.63313C18.0837 4.59413 18.4449 4.63035 18.7923 4.65821C19.4758 4.7195 20.1528 4.75665 20.6775 4.34245C21.1957 3.9524 21.5319 3.25773 21.4316 2.56121C21.6202 3.24009 21.3843 4.02391 20.8521 4.54398C20.5884 4.80773 20.229 4.98975 19.864 5.07333C19.4981 5.16063 19.1312 5.17456 18.7811 5.19128C18.4329 5.20707 18.0939 5.221 17.7967 5.29158C17.5014 5.36216 17.2479 5.49032 17.0779 5.6807C16.7278 6.06425 16.647 6.70041 16.8188 7.18705C16.9172 7.46565 16.7714 7.7712 16.4928 7.86964C16.2142 7.96808 15.9087 7.82227 15.8102 7.54366C15.8019 7.51859 15.7944 7.49444 15.7898 7.46937L15.7861 7.45172H15.787Z" fill="white"/>
<path d="M34.6107 5.88487C35.6313 6.80706 36.3501 7.96886 36.8275 9.15574C36.9584 9.45571 37.0448 9.75567 37.1358 10.0603L37.2677 10.5181L37.3633 10.9769C37.4256 11.2843 37.4822 11.5945 37.5054 11.9028C37.5305 12.2111 37.5779 12.5241 37.5732 12.8334C37.6187 14.0769 37.446 15.3269 37.055 16.5695C36.6482 17.8028 36.0186 19.0436 35.0435 20.1561L34.671 20.5676C34.5438 20.7022 34.3924 20.8267 34.2513 20.9539C33.9634 21.2065 33.6653 21.4628 33.3737 21.6448C33.0774 21.8399 32.7812 22.0451 32.4728 22.2151C32.1617 22.3739 31.845 22.528 31.5265 22.6757C30.2505 23.2125 28.9912 23.4688 27.8665 23.6044C26.7363 23.7363 25.7574 23.7493 24.8575 23.7762C23.9548 23.7948 23.1905 23.8152 22.5302 23.8811L22.2878 23.9053C22.2042 23.9118 22.1272 23.9211 22.0612 23.9359L21.6433 24.0047C21.4102 24.0706 21.1632 24.1189 20.9988 24.196L20.8595 24.2415C20.8196 24.2601 20.7871 24.2842 20.7499 24.3028C20.7137 24.3223 20.6775 24.3399 20.6412 24.3566C20.605 24.3724 20.5679 24.3845 20.5224 24.4189C20.3422 24.5257 20.1797 24.638 20.0329 24.7588C19.4581 25.2435 19.0727 25.8398 18.8405 26.657C18.5981 27.4631 18.6 28.4661 18.8006 29.4245C18.9046 29.9037 19.0671 30.3709 19.277 30.7962C19.4813 31.2253 19.7283 31.6181 20.0134 31.9478C20.293 32.2766 20.6199 32.5635 20.9412 32.7688C21.0183 32.8134 21.0917 32.8644 21.165 32.9183C21.2523 32.9554 21.3378 32.9963 21.4223 33.0418C21.5003 33.0975 21.6043 33.117 21.6962 33.1579C21.79 33.196 21.8811 33.2424 21.9879 33.261C22.3835 33.404 22.8413 33.4569 23.3001 33.4885C23.7644 33.5266 24.2381 33.4802 24.6876 33.3901C24.7953 33.3585 24.9188 33.3538 25.0238 33.3186C25.1296 33.2851 25.2374 33.2545 25.3479 33.2266C25.4547 33.1941 25.5466 33.144 25.6516 33.1087C25.7008 33.0882 25.7593 33.0752 25.8039 33.0502L25.9404 32.9759C26.1447 32.8951 26.2951 32.7753 26.4827 32.6768C26.6239 32.5487 26.8059 32.4419 26.9285 32.2951C27.221 32.0481 27.5489 31.5355 27.899 30.851C28.251 30.1749 28.6225 29.3214 29.1314 28.3677C29.6375 27.4241 30.3285 26.3218 31.3519 25.3745L31.7466 25.0309C31.8803 24.912 32.0094 24.8368 32.1422 24.7393C32.4078 24.561 32.6678 24.365 32.9418 24.2164C33.2167 24.0687 33.4916 23.9257 33.7674 23.7873C34.0405 23.6694 34.3172 23.5682 34.5921 23.4642C35.6815 23.0871 36.6919 22.9255 37.5816 22.8039C38.4759 22.6887 39.2607 22.6181 39.9228 22.4862C40.5906 22.3553 41.145 22.1751 41.6483 21.8649C41.7654 21.7786 41.9056 21.7126 42.0189 21.6096C42.1294 21.5037 42.2446 21.3987 42.3644 21.2929C42.4805 21.1833 42.5733 21.0393 42.6838 20.913L42.8464 20.7161C42.8974 20.6493 42.9383 20.5796 42.9857 20.5109C43.7008 19.3937 43.9905 17.8567 43.6292 16.4367L43.6209 16.4051C43.4797 15.8507 43.815 15.2879 44.3694 15.1468C44.8635 15.0214 45.365 15.2749 45.5684 15.7244C46.3977 17.5614 46.5565 19.7345 45.873 21.7888C45.8265 21.9151 45.7838 22.046 45.7327 22.1696L45.5702 22.5355C45.4551 22.7779 45.3594 23.0295 45.2192 23.2673C45.0743 23.5041 44.9248 23.7418 44.7706 23.9787C44.6155 24.2145 44.4168 24.4272 44.2338 24.651C43.4677 25.5212 42.486 26.2047 41.5397 26.6932C40.5868 27.191 39.6804 27.5207 38.9003 27.8467C38.1156 28.1634 37.4525 28.4717 36.9547 28.7912C36.8396 28.8757 36.7225 28.9574 36.6092 29.0326C36.5154 29.1199 36.4207 29.2026 36.326 29.2797C36.2322 29.3586 36.1709 29.4589 36.0901 29.5388C35.9991 29.6223 35.9629 29.7013 35.9155 29.7709C35.7363 30.0746 35.5552 30.5037 35.3629 31.1398C35.1698 31.7704 34.9831 32.5589 34.7073 33.4969C34.4287 34.4219 34.0739 35.5214 33.3607 36.6879C33.0263 37.2804 32.6001 37.7967 32.1729 38.3205C31.7141 38.7988 31.246 39.2882 30.7213 39.682C29.6858 40.4974 28.5444 41.1465 27.3474 41.5793C26.1493 42.013 24.9058 42.3083 23.6363 42.3836C22.3686 42.4625 21.0777 42.3994 19.798 42.0929C18.5238 41.7883 17.2469 41.3304 16.0721 40.5912C14.9158 39.8928 13.9203 39.031 13.0529 38.0633C11.319 36.126 10.2222 33.7968 9.70585 31.3739C9.44675 30.1601 9.33159 28.9128 9.38916 27.6526C9.44581 26.3942 9.6557 25.12 10.0671 23.8728C10.4767 22.6265 11.0933 21.4127 11.8994 20.3131C12.7037 19.2126 13.7057 18.2356 14.8258 17.4741C15.3839 17.0924 15.9671 16.7618 16.5615 16.4794C16.7036 16.4042 16.8689 16.3383 17.0333 16.2733L17.5255 16.081C17.6898 16.0197 17.8561 15.9547 18.0195 15.9009L18.5043 15.7671C19.1646 15.573 19.7757 15.4894 20.3933 15.3966L21.2663 15.3214C21.4148 15.3074 21.5532 15.3009 21.687 15.2991L22.0928 15.2888C23.1627 15.2666 24.1322 15.3204 24.9606 15.3641C25.7927 15.404 26.5478 15.4412 27.1449 15.4179C27.743 15.3947 28.199 15.3214 28.5389 15.2285C28.6141 15.196 28.6921 15.17 28.7748 15.1486C28.85 15.1189 28.9085 15.0725 28.9837 15.0446C29.0729 15.0167 29.097 14.9805 29.1425 14.9573C29.1639 14.9424 29.1917 14.9415 29.214 14.9192C29.2354 14.896 29.2586 14.8746 29.2828 14.8542C29.4796 14.6908 29.7174 14.3954 29.8994 14.0026C29.9375 13.8995 29.9997 13.8066 30.0378 13.6971C30.0731 13.5865 30.1139 13.477 30.1576 13.3655C30.1836 13.2485 30.2133 13.1315 30.2467 13.0135L30.3182 12.6514C30.3535 12.5288 30.3443 12.408 30.3647 12.2836C30.387 12.1582 30.3795 12.0393 30.3842 11.9168L30.3963 11.731L30.386 11.5555C30.3805 11.4375 30.3851 11.3122 30.36 11.2063C30.3201 10.7438 30.2115 10.3398 30.0768 9.96649L29.775 9.13066C29.2122 7.57231 30.0192 5.85329 31.5776 5.2905C32.6549 4.90138 33.8111 5.16977 34.607 5.8858L34.6107 5.88487Z" fill="white"/>
<path d="M19.7516 10.3994C22.3798 10.2648 23.4153 11.7033 23.184 11.7813C23.0243 11.9225 21.8987 10.9399 19.7525 11.1099C17.6936 11.0792 15.2103 11.5315 13.4318 10.6242C11.658 9.46796 12.2431 7.76102 12.1028 7.88082C12.2031 7.76009 11.9487 9.49954 13.5888 10.3075C15.2223 10.9678 17.5896 10.3837 19.7525 10.3994H19.7516Z" fill="white"/>
<path d="M33.5092 5.49587C33.082 4.50496 32.2424 3.68677 31.2367 3.29301C30.2643 2.91224 29.1294 2.5612 28.0809 2.5612C25.136 2.5612 21.4361 3.20943 23.1774 6.8267H15.7506C15.4822 6.8267 15.2584 6.97993 15.2584 7.24832L15.2501 8.76674C15.2473 9.33139 15.6894 9.7976 16.2531 9.8236L20.5576 10.027C21.2764 10.027 21.8605 10.613 21.8559 11.3337C21.855 11.4925 21.7194 11.6206 21.5606 11.6206H15.3123C15.563 12.5335 16.4444 13.2096 17.4966 13.2096C19.1042 13.2096 20.1796 13.2208 21.7872 13.2301C22.7623 13.2356 23.7495 13.2904 24.7246 13.2533C26.387 13.1911 28.0029 13.3266 29.6142 12.7518C31.0639 12.2345 32.3762 11.2612 33.1516 9.93226C33.2073 9.83753 33.2594 9.74094 33.3086 9.6425C33.9503 8.36276 34.0757 6.80905 33.5101 5.4968L33.5092 5.49587Z" fill="white"/>
<path d="M17.3766 7.42016C17.4707 6.84098 17.0773 6.29525 16.4982 6.20123C15.919 6.10722 15.3733 6.50052 15.2792 7.0797C15.1852 7.65888 15.5785 8.20462 16.1577 8.29864C16.7369 8.39265 17.2826 7.99934 17.3766 7.42016Z" fill="white"/>
<path d="M16.7199 7.22867C16.7199 7.44957 16.5389 7.63056 16.318 7.63056C16.0971 7.63056 15.9161 7.44957 15.9161 7.22867C15.9161 7.00777 16.0943 6.82677 16.318 6.82677C16.5417 6.82677 16.7199 7.00777 16.7199 7.22867Z" fill="#1D8E7C"/>
<path d="M26.1075 6.6083C26.1075 6.2259 25.5664 5.90939 25.1822 5.90939C24.7979 5.90939 24.4851 6.2259 24.4851 6.6083H26.1075Z" fill="#1D8E7C"/>
<path d="M28.7572 2.65301C29.6329 2.85825 30.4836 3.04677 31.3724 3.26409C31.8209 3.38296 32.2221 3.50741 32.601 3.59563C32.7914 3.64114 32.9753 3.67643 33.1592 3.70058C33.3458 3.72194 33.5604 3.74051 33.76 3.74794C34.5708 3.78416 35.3927 3.72101 36.1654 3.45633C36.9371 3.19815 37.6559 2.71523 38.1881 2.01592C38.202 1.99828 38.2271 1.99456 38.2447 2.00849C38.2596 2.01964 38.2642 2.03914 38.2577 2.05586C37.9336 2.88425 37.3188 3.63742 36.5331 4.17235C35.7502 4.71471 34.8373 5.05183 33.9151 5.26914C33.6802 5.32579 33.4591 5.36851 33.2084 5.40938C32.9558 5.44745 32.7023 5.46881 32.4571 5.48089C31.9649 5.5041 31.5014 5.49017 31.0845 5.49853L28.4804 5.6174C27.6511 5.65548 26.9481 5.01375 26.9109 4.18443C26.8728 3.3551 27.5146 2.65208 28.3439 2.61493C28.4832 2.60843 28.6179 2.62143 28.7479 2.65115L28.7572 2.65394V2.65301Z" fill="white"/>
<path d="M32.9094 4.61237C33.4434 4.76375 34.0062 4.89655 34.568 5.00335C35.1308 5.11015 35.6983 5.19281 36.2676 5.2411C36.8359 5.28754 37.4099 5.30518 37.9708 5.23739C38.528 5.1668 39.0936 5.03307 39.5551 4.65788H39.557C39.5719 4.64488 39.5941 4.64674 39.6062 4.66159C39.6155 4.67367 39.6164 4.68946 39.609 4.70153C39.2932 5.23553 38.737 5.61444 38.177 5.89955C37.6086 6.18744 37.0068 6.38618 36.3994 6.55335C35.7921 6.71865 35.1754 6.84589 34.556 6.94711C33.9347 7.04741 33.3152 7.12264 32.6707 7.17L32.6475 7.17186C31.9278 7.22479 31.3018 6.68429 31.2489 5.96548C31.1959 5.24574 31.7364 4.6198 32.4553 4.56687C32.6103 4.55572 32.7664 4.57337 32.9085 4.6133L32.9094 4.61237Z" fill="white"/>
<path d="M33.8789 6.27869C34.9005 6.59073 35.9072 6.92692 36.8869 7.16745C37.3782 7.28633 37.8639 7.36991 38.3673 7.3792C38.8706 7.3922 39.3944 7.33462 39.9173 7.23896C39.9368 7.23525 39.9544 7.24825 39.9581 7.26682C39.9609 7.28168 39.9544 7.29561 39.9424 7.30304C39.4938 7.5928 39.0183 7.8584 38.4936 8.06179C37.9698 8.26889 37.4042 8.39891 36.8517 8.4862C35.74 8.65708 34.6702 8.72952 33.6114 8.83353C32.8908 8.90412 32.249 8.37755 32.1785 7.65688C32.1079 6.93621 32.6345 6.29448 33.3551 6.2239C33.5306 6.20625 33.7006 6.22483 33.8594 6.27219L33.878 6.27869H33.8789Z" fill="white"/>
<path d="M35.5589 8.29948C36.2341 8.49822 36.8841 8.68024 37.5528 8.73411C38.2187 8.79262 38.9105 8.69882 39.5727 8.42857C39.582 8.42485 39.5931 8.42857 39.5969 8.43878C39.5996 8.44621 39.5969 8.45457 39.5913 8.46014C39.0434 8.92078 38.3533 9.26068 37.6113 9.42784C36.8693 9.60058 36.1059 9.62659 35.3834 9.6433H35.3815C35.0026 9.65166 34.6887 9.35169 34.6803 8.97371C34.672 8.5948 34.972 8.28091 35.3499 8.27255C35.4214 8.27069 35.4939 8.28091 35.5589 8.30041V8.29948Z" fill="white"/>
<path d="M17.283 12.6191C17.1762 13.2088 16.8642 13.6973 16.4732 14.0418C16.0822 14.3873 15.5965 14.5953 15.122 14.6195C15.095 14.6204 15.0728 14.6009 15.0718 14.574C15.0709 14.5535 15.083 14.5359 15.1006 14.5275C15.929 14.1533 16.3237 13.2283 16.163 12.581C16.086 12.2699 16.2754 11.9551 16.5865 11.877C16.8976 11.8 17.2125 11.9894 17.2905 12.3005C17.3109 12.3823 17.3128 12.464 17.2988 12.5411L17.2849 12.6181L17.283 12.6191Z" fill="white"/>
<path d="M18.4486 12.5508C18.3771 13.1275 18.1022 13.6169 17.7428 13.9708C17.3825 14.3255 16.9246 14.554 16.4668 14.6032C16.4408 14.606 16.4185 14.5874 16.4157 14.5614C16.4138 14.5419 16.424 14.5233 16.4408 14.515C17.2218 14.1082 17.5533 13.1916 17.3629 12.5749C17.271 12.2778 17.4372 11.9629 17.7344 11.871C18.0316 11.7791 18.3464 11.9453 18.4384 12.2425C18.4625 12.3205 18.469 12.3994 18.4597 12.4746L18.4505 12.5499L18.4486 12.5508Z" fill="white"/>
<path d="M19.4609 12.8754C19.3411 13.7744 18.6297 14.3938 17.9165 14.4737C17.897 14.4755 17.8784 14.4616 17.8765 14.4421C17.8747 14.4272 17.883 14.4124 17.896 14.4059C18.5043 14.0892 18.7634 13.375 18.6148 12.8949C18.5433 12.6636 18.6734 12.4185 18.9046 12.347C19.1359 12.2755 19.381 12.4055 19.4525 12.6367C19.472 12.6989 19.4767 12.7612 19.4683 12.8215L19.4609 12.8763V12.8754Z" fill="white"/>
<path d="M20.2683 12.9241C20.2785 13.5785 19.8358 14.0955 19.3355 14.2282C19.3216 14.2319 19.3077 14.2236 19.304 14.2096C19.3012 14.1985 19.3058 14.1874 19.3142 14.1818C19.7151 13.8913 19.8237 13.3539 19.6669 13.0271C19.5917 12.8694 19.6576 12.6809 19.8154 12.6048C19.9732 12.5297 20.1616 12.5956 20.2377 12.7533C20.2581 12.7951 20.2683 12.8397 20.2683 12.8842V12.9241Z" fill="white"/>
<path d="M47.6068 9.08848C46.9827 9.60577 46.5908 10.3599 46.3744 11.14C46.1617 11.9043 46.1032 12.702 46.0484 13.4942C46.0475 13.4942 46.0457 13.4933 46.0447 13.4924C46.0698 11.5811 45.5767 9.67263 44.6628 7.99448C44.4799 7.65829 44.2802 7.33232 44.0638 7.01656C43.8985 7.36111 43.7509 7.71401 43.6218 8.07435C42.9819 9.85651 42.7859 11.7984 43.0915 13.6679C43.0887 13.6688 43.0868 13.6707 43.0841 13.6716C42.9122 12.9138 42.7321 12.1523 42.4117 11.4446C42.0774 10.7063 41.5749 10.0209 40.8793 9.60577C41.3418 10.1435 41.4598 10.8976 41.4412 11.6062C41.4226 12.3148 41.2666 13.0206 41.3205 13.7273C41.5276 16.4178 43.2874 17.6706 44.8179 17.5526C46.2203 17.4449 48.0433 16.3546 47.8018 13.2277C47.747 12.5209 47.4851 11.8467 47.3579 11.1493C47.2307 10.4518 47.2325 9.68842 47.6068 9.08663V9.08848Z" fill="white"/>
<path d="M31.5461 42.2758C31.8683 41.8838 32.2704 41.5337 32.732 41.2542C32.3986 42.2386 32.653 43.3038 33.3951 44.0263C33.5335 43.4162 33.6793 42.7986 33.9857 42.2191C34.2922 41.6396 34.7788 41.0926 35.4419 40.7787C35.3388 41.2876 35.4234 41.7984 35.6555 42.2479C35.9054 41.0406 36.8164 40.0199 38.0924 39.6986C38.6459 39.5593 39.2031 39.5677 39.7195 39.6996C38.684 38.2972 36.8703 37.5821 35.0751 38.0344C32.2844 38.7374 30.0871 41.0053 30.7622 43.6883L30.7947 43.7227C30.7966 43.2453 31.2544 42.6324 31.547 42.2758H31.5461Z" fill="white"/>
<path d="M32.9892 34.6379C33.1016 34.6379 34.6711 34.5301 35.7474 34.4549C36.2554 34.4196 36.6798 34.8403 36.6427 35.3483C36.574 36.2872 36.5758 37.6784 37.0745 38.426L34.4147 39.9166L33.6133 37.9487L29.3097 40.614L32.9901 34.6388L32.9892 34.6379Z" fill="white"/>
<path d="M11.7537 27.3468C11.6924 25.4811 11.0646 22.7925 11.6589 20.9072C10.7349 21.5202 9.53779 21.8369 8.94807 20.7605C9.01772 21.1357 8.01752 24.6778 8.01752 24.6778C8.01752 24.6778 10.3903 23.9041 11.7527 27.3468H11.7537Z" fill="white"/>
<path d="M7.46677 16.3535C8.07135 16.7296 8.70472 17.1336 9.03627 17.7642C9.36781 18.3939 9.25822 19.3161 8.62113 19.6355C8.77065 18.8666 8.46511 18.0261 7.85589 17.533C7.24666 17.0398 6.36162 16.9154 5.64002 17.2219C6.26225 17.3222 6.81483 17.78 7.02657 18.3744C7.23831 18.9678 7.10272 19.6727 6.68387 20.1445C6.64765 19.538 6.27896 18.9613 5.74403 18.6743C5.2091 18.3874 4.52465 18.3985 3.99994 18.7041C4.62774 19.2576 5.2639 19.8213 5.70967 20.5299C6.15452 21.2385 6.38948 22.1244 6.14059 22.9241C5.8917 23.7227 5.06794 24.3626 4.24326 24.2224C5.15152 25.2755 6.88447 25.4854 8.01748 24.6793C9.03719 23.954 9.69471 22.768 9.25544 21.6072C12.4325 18.8926 9.41796 16.126 7.46677 16.3545V16.3535Z" fill="white"/>
<path d="M8.78926 40.6581C9.2146 40.0544 9.67058 39.4238 10.342 39.1183C11.0135 38.8127 11.9617 38.9818 12.2542 39.6588C11.4676 39.4582 10.5789 39.7247 10.0328 40.3247C9.48578 40.9255 9.30468 41.8347 9.57865 42.599C9.71888 41.961 10.2269 41.4168 10.8537 41.2329C11.4806 41.049 12.2022 41.232 12.6656 41.6926C12.036 41.6936 11.4175 42.0409 11.0887 42.5777C10.7599 43.1145 10.7312 43.8231 11.0153 44.3849C11.6255 43.7683 12.2468 43.1432 13.0065 42.7253C13.7661 42.3074 14.6976 42.117 15.5093 42.4217C16.321 42.7263 16.9339 43.6169 16.7398 44.4629C17.884 43.5862 18.2044 41.805 17.4373 40.5847C16.7472 39.486 15.5594 38.7357 14.3326 39.1201C11.7128 35.67 8.66945 38.6251 8.78926 40.6581Z" fill="white"/>
<path d="M18.7402 17.7739C18.6733 18.449 18.7058 19.1214 19.0086 19.7186C19.3021 20.2981 19.8286 20.7411 20.4239 20.9992C21.0192 21.2574 21.6804 21.3401 22.3287 21.3131C20.7582 20.6185 19.4627 19.3304 18.7402 17.7748V17.7739Z" fill="#1D8E7C"/>
<path d="M16.4231 18.8905C16.3209 19.5619 16.3181 20.2343 16.5884 20.8463C16.8503 21.4397 17.3527 21.9097 17.9341 22.1994C18.5154 22.4882 19.1711 22.6062 19.8203 22.6127C18.2888 21.8363 17.063 20.4823 16.424 18.8905H16.4231Z" fill="#1D8E7C"/>
<path d="M14.3949 20.9481C14.4042 21.627 14.5175 22.2901 14.9075 22.8464C15.2855 23.3859 15.8938 23.762 16.5523 23.9459C17.2116 24.1298 17.9184 24.1317 18.6 24.0258C16.8606 23.5271 15.3412 22.4052 14.3949 20.9481Z" fill="#1D8E7C"/>
<path d="M22.4114 41.1875C23.1497 40.8299 23.7171 40.3293 23.9233 39.6663C24.1258 39.0255 23.9762 38.3234 23.7246 37.6983C23.5983 37.39 23.445 37.0873 23.2871 36.8012C23.1293 36.5217 22.9658 36.2487 22.8089 35.9895C23.1506 37.7169 23.367 39.6096 22.4123 41.1884L22.4114 41.1875Z" fill="#1D8E7C"/>
<path d="M17.5042 39.7765C17.9184 39.7812 18.3075 39.7394 18.6557 39.6196C19.0003 39.51 19.3003 39.3289 19.5389 39.0754C19.9996 38.5887 20.1705 37.8903 20.216 37.2161C20.2373 36.8808 20.229 36.5484 20.2141 36.2196C20.1965 35.8964 20.1677 35.5862 20.1463 35.2835C19.9114 36.137 19.6476 37.0053 19.2399 37.7928C18.8313 38.585 18.2806 39.2843 17.5032 39.7765H17.5042Z" fill="#1D8E7C"/>
<path d="M13.7374 36.23C13.9185 36.3266 14.0996 36.412 14.2779 36.4807C14.4636 36.5457 14.6466 36.595 14.8258 36.6265C15.1796 36.6925 15.5363 36.6693 15.8622 36.5597C16.4965 36.3461 16.9729 35.8074 17.3296 35.2326C17.6806 34.6577 17.936 34.0438 18.1719 33.4913C17.5655 34.1404 16.9302 34.7784 16.1993 35.2864C15.4675 35.7944 14.6484 36.1585 13.7383 36.2309L13.7374 36.23Z" fill="#1D8E7C"/>
<path d="M11.9895 31.4489C12.4622 32.1185 13.0724 32.5801 13.755 32.6655C14.4162 32.7509 15.0821 32.4788 15.656 32.1176C16.2244 31.7535 16.7203 31.3068 17.1716 30.9112C16.3423 31.2316 15.4981 31.5306 14.6159 31.669C13.7392 31.8064 12.8365 31.7795 11.9886 31.4489H11.9895Z" fill="#1D8E7C"/>
<path d="M28.7878 15.7918C28.6578 16.0407 28.5305 16.3119 28.4228 16.5998C28.3132 16.8784 28.2259 17.1849 28.1869 17.522C28.1098 18.1674 28.2464 18.8723 28.6318 19.449C29.0125 20.0239 29.6394 20.4808 30.4 20.7446C29.111 19.3599 28.8788 17.4514 28.7878 15.7918Z" fill="#1D8E7C"/>
<path d="M31.2906 14.1765C31.2841 14.4598 31.2767 14.7514 31.3055 15.0616C31.3222 15.3597 31.3714 15.6745 31.4782 15.9968C31.6835 16.6181 32.1042 17.1966 32.6957 17.556C32.9901 17.7353 33.3254 17.8634 33.6922 17.9396C34.0563 18.0139 34.4408 18.0195 34.8475 17.9851C33.0886 17.2737 32.0809 15.6401 31.2915 14.1765H31.2906Z" fill="#1D8E7C"/>
<path d="M29.4369 30.7954C29.4815 31.3842 29.6347 31.9033 30.0053 32.3872C30.3665 32.8478 30.9284 33.197 31.5552 33.2769C31.8664 33.3168 32.1905 33.2936 32.5109 33.2137C32.8294 33.1357 33.1461 32.9955 33.4377 32.832C32.6483 32.8302 31.8747 32.5961 31.194 32.2191C30.5114 31.8411 29.9068 31.3498 29.4369 30.7963V30.7954Z" fill="#1D8E7C"/>
<path d="M31.9231 26.9309C31.8581 27.1083 31.7958 27.2773 31.7633 27.4529C31.728 27.6256 31.7039 27.7928 31.6992 27.9506C31.6965 28.2682 31.7624 28.5496 31.9064 28.7827C32.184 29.2341 32.7069 29.4458 33.2335 29.4978C33.4972 29.5238 33.7647 29.5136 34.0219 29.4876C34.1501 29.4728 34.281 29.4616 34.4036 29.4421C34.5253 29.4208 34.6469 29.3994 34.7667 29.378C34.1603 29.1895 33.5409 28.9313 33.0161 28.5366C32.4961 28.1466 32.0735 27.6089 31.9231 26.9319V26.9309Z" fill="#1D8E7C"/>
<path d="M36.1208 24.3109C35.8329 24.5115 35.5914 24.7428 35.4187 24.9786C35.246 25.2155 35.141 25.4541 35.1271 25.6919C35.0955 26.1469 35.3899 26.5054 35.7716 26.7357C35.9611 26.8481 36.1774 26.9391 36.3994 27.0088C36.6186 27.0719 36.8545 27.1341 37.0811 27.1648C36.6836 26.8258 36.3307 26.394 36.1319 25.9055C36.0326 25.6612 35.9731 25.4021 35.9666 25.1328C35.9601 24.8635 36.0047 24.5812 36.1199 24.3109H36.1208Z" fill="#1D8E7C"/>
<path d="M28.6229 10.6625C28.5839 10.643 28.3927 10.4908 28.1867 10.3757C27.9843 10.2578 27.7783 10.1808 27.7783 10.1808C27.7783 10.1808 27.9917 10.2299 28.2266 10.2439C28.4586 10.2615 28.7046 10.2402 28.7482 10.2457C28.8336 10.255 28.8902 10.3729 28.8522 10.5038C28.8317 10.5678 28.7937 10.6188 28.7519 10.6476C28.7083 10.6755 28.6619 10.681 28.6229 10.6625Z" fill="#1D8E7C"/>
<path d="M28.2358 11.149C28.2107 11.1156 28.1003 10.8919 27.9666 10.7016C27.8367 10.5095 27.6835 10.3489 27.6835 10.3489C27.6835 10.3489 27.7262 10.3832 27.7949 10.4324C27.8636 10.4816 27.9592 10.5438 28.0594 10.6004C28.2599 10.7165 28.4938 10.8074 28.5291 10.8297C28.6015 10.8742 28.6015 11.006 28.5096 11.1054C28.4177 11.2056 28.2878 11.2177 28.2358 11.149Z" fill="#1D8E7C"/>
<path d="M27.6742 11.4189C27.6659 11.3771 27.664 11.1284 27.6269 10.9001C27.5925 10.6671 27.5248 10.4583 27.5248 10.4583C27.5248 10.4583 27.5489 10.5084 27.5897 10.5826C27.6297 10.656 27.6881 10.7525 27.755 10.8481C27.8868 11.0421 28.0557 11.2203 28.0789 11.2574C28.1253 11.3307 28.0687 11.4477 27.9415 11.4987C27.8144 11.5498 27.6918 11.5024 27.6751 11.4189H27.6742Z" fill="#1D8E7C"/>
<path d="M27.0521 11.4192C27.0623 11.3784 27.1681 11.1537 27.234 10.9291C27.3027 10.7073 27.3333 10.4873 27.3333 10.4873C27.3333 10.4873 27.3333 10.7082 27.3713 10.9393C27.4057 11.1686 27.4799 11.4062 27.4846 11.4489C27.4948 11.5324 27.3927 11.6169 27.2572 11.6058C27.1217 11.5965 27.0307 11.5027 27.0521 11.4192Z" fill="#1D8E7C"/>
<path d="M26.4902 11.1488C26.5171 11.1154 26.7111 10.9595 26.8661 10.7878C27.0267 10.616 27.1482 10.4323 27.1482 10.4323C27.1482 10.4323 27.1241 10.4824 27.0916 10.5604C27.0591 10.6374 27.0202 10.7432 26.9867 10.8546C26.9171 11.0792 26.8828 11.3224 26.8679 11.3632C26.8392 11.4458 26.712 11.4737 26.5932 11.4059C26.4744 11.3391 26.4354 11.2129 26.4902 11.1479V11.1488Z" fill="#1D8E7C"/>
<path d="M26.1019 10.6627C26.1418 10.6441 26.3794 10.5893 26.5976 10.5002C26.8157 10.4149 27.0041 10.3025 27.0041 10.3025C27.0041 10.3025 26.8324 10.439 26.6755 10.6135C26.5177 10.7833 26.3794 10.9894 26.3488 11.02C26.2885 11.0803 26.1613 11.0525 26.0833 10.9402C26.0453 10.8845 26.0304 10.8223 26.0332 10.7731C26.0388 10.7211 26.0629 10.6822 26.1019 10.6636V10.6627Z" fill="#1D8E7C"/>
<path d="M25.9626 10.0559C26.0053 10.0559 26.2494 10.1107 26.4805 10.1246C26.5956 10.1329 26.7098 10.1339 26.7942 10.1311C26.8787 10.1283 26.9335 10.1236 26.9335 10.1236C26.9335 10.1236 26.8796 10.1357 26.7989 10.1589C26.7172 10.1821 26.6095 10.2174 26.5019 10.261C26.2856 10.3455 26.0694 10.4717 26.0294 10.4847C25.9487 10.5135 25.8466 10.4309 25.8262 10.2963C25.8039 10.1617 25.8791 10.0531 25.9626 10.0559Z" fill="#1D8E7C"/>
<path d="M26.1018 9.44833C26.1408 9.46782 26.332 9.62004 26.538 9.73513C26.7404 9.85301 26.9464 9.93005 26.9464 9.93005C26.9464 9.93005 26.733 9.88086 26.4981 9.86693C26.2661 9.8493 26.0201 9.87065 25.9765 9.86508C25.8911 9.8558 25.8345 9.73792 25.8725 9.60705C25.893 9.54301 25.931 9.49196 25.9728 9.46318C26.0164 9.43534 26.0628 9.42977 26.1018 9.44833Z" fill="#1D8E7C"/>
<path d="M26.49 8.96137C26.515 8.99479 26.6255 9.21848 26.7591 9.40875C26.8891 9.60088 27.0422 9.76145 27.0422 9.76145C27.0422 9.76145 26.9995 9.72711 26.9308 9.67792C26.8622 9.62872 26.7666 9.56654 26.6663 9.50992C26.4658 9.3939 26.2319 9.30294 26.1967 9.28066C26.1243 9.23611 26.1243 9.10431 26.2162 9.005C26.3081 8.90476 26.438 8.89269 26.49 8.96137Z" fill="#1D8E7C"/>
<path d="M27.0518 8.69062C27.0601 8.73239 27.062 8.98114 27.0991 9.20946C27.1335 9.44243 27.2012 9.65127 27.2012 9.65127C27.2012 9.65127 27.1771 9.60115 27.1372 9.52782C27.0973 9.4545 27.0388 9.35797 26.972 9.26237C26.8402 9.06838 26.6712 8.89018 26.648 8.85305C26.6016 8.77972 26.6582 8.66278 26.7854 8.61173C26.9126 8.56068 27.0351 8.60801 27.0518 8.69155V8.69062Z" fill="#1D8E7C"/>
<path d="M27.674 8.69006C27.6638 8.7309 27.558 8.95551 27.4921 9.18013C27.4234 9.40196 27.3928 9.62193 27.3928 9.62193C27.3928 9.62193 27.3928 9.40103 27.3547 9.16992C27.3204 8.94066 27.2461 8.70305 27.2415 8.66035C27.2313 8.57682 27.3334 8.49236 27.4689 8.5035C27.6044 8.51278 27.6954 8.60652 27.674 8.69006Z" fill="#1D8E7C"/>
<path d="M28.2357 8.96128C28.2088 8.99469 28.0148 9.15062 27.8598 9.32233C27.6992 9.49404 27.5776 9.67782 27.5776 9.67782C27.5776 9.67782 27.6018 9.6277 27.6343 9.54973C27.6668 9.4727 27.7057 9.36689 27.7391 9.25551C27.8087 9.03089 27.8431 8.78771 27.8579 8.74687C27.8867 8.66427 28.0139 8.63642 28.1327 8.70418C28.2515 8.771 28.2905 8.89724 28.2357 8.96128Z" fill="#1D8E7C"/>
<path d="M28.6229 9.44823C28.583 9.46679 28.3454 9.52155 28.1272 9.61066C27.9091 9.69605 27.7207 9.80835 27.7207 9.80835C27.7207 9.80835 27.8924 9.67191 28.0493 9.49742C28.2071 9.32757 28.3454 9.12152 28.376 9.09089C28.4363 9.03056 28.5635 9.0584 28.6414 9.17071C28.6795 9.2264 28.6943 9.28858 28.6916 9.33778C28.686 9.38975 28.6619 9.42874 28.6229 9.4473V9.44823Z" fill="#1D8E7C"/>
<path d="M28.7621 10.0554C28.7194 10.0554 28.4753 10.0006 28.2442 9.98669C28.1291 9.97834 28.0149 9.97741 27.9305 9.9802C27.846 9.98298 27.7913 9.98762 27.7913 9.98762C27.7913 9.98762 27.8451 9.97556 27.9258 9.95235C28.0075 9.92915 28.1152 9.89388 28.2229 9.85025C28.4391 9.76579 28.6554 9.63956 28.6953 9.62657C28.776 9.59779 28.8781 9.6804 28.8986 9.81498C28.9208 9.94957 28.8456 10.0582 28.7621 10.0554Z" fill="#1D8E7C"/>
<path d="M27.2405 12.1237C27.2368 12.0513 27.2953 11.9928 27.3678 11.9928C27.4402 11.9928 27.4987 12.0513 27.4987 12.1237C27.4987 12.1961 27.4402 12.2546 27.3678 12.2546C27.2953 12.2546 27.2405 12.1961 27.2405 12.1237ZM26.6908 12.1478C26.622 12.1274 26.5839 12.055 26.6053 11.9863C26.6295 11.9175 26.701 11.8795 26.7706 11.9008C26.8393 11.925 26.8774 11.9965 26.8533 12.0661C26.8366 12.1209 26.7845 12.1553 26.7297 12.1553C26.7158 12.1553 26.7056 12.1553 26.6917 12.1488L26.6908 12.1478ZM27.8832 12.0624C27.8628 11.9937 27.8971 11.9212 27.9658 11.8971C28.0346 11.8767 28.1098 11.9138 28.1312 11.9798C28.1553 12.0485 28.1172 12.1237 28.0485 12.1451C28.0346 12.1516 28.0216 12.1516 28.0076 12.1516C27.9528 12.1516 27.9008 12.1172 27.8841 12.0624H27.8832ZM26.076 11.8386C26.0174 11.7977 26.0035 11.7151 26.0481 11.6566C26.089 11.5981 26.1716 11.5878 26.2301 11.6296C26.2886 11.6705 26.2988 11.7531 26.258 11.8117C26.2338 11.846 26.193 11.8627 26.1512 11.8627C26.127 11.8627 26.1001 11.8562 26.076 11.8386ZM28.4776 11.8042C28.4367 11.7457 28.4469 11.6631 28.5054 11.6222C28.5639 11.5776 28.6466 11.5916 28.6874 11.6501C28.7283 11.7086 28.7181 11.7912 28.6596 11.8321C28.6354 11.8488 28.6085 11.8562 28.5806 11.8562C28.5426 11.8562 28.5017 11.8395 28.4776 11.8052V11.8042ZM25.5884 11.3547C25.5475 11.2999 25.5605 11.2173 25.6162 11.1727C25.6748 11.1319 25.7574 11.1449 25.7983 11.2034C25.8429 11.2582 25.8289 11.3408 25.7704 11.3854C25.75 11.3993 25.7221 11.4095 25.6952 11.4095C25.6543 11.4095 25.6162 11.3891 25.5884 11.3547ZM28.9614 11.3752C28.9029 11.3343 28.889 11.2517 28.9308 11.1931C28.9753 11.1346 29.058 11.1207 29.1165 11.1653C29.1713 11.2061 29.1852 11.2851 29.1434 11.3436C29.1165 11.3817 29.0784 11.3984 29.0366 11.3984C29.0088 11.3984 28.9846 11.3919 28.9614 11.3742V11.3752ZM25.2754 10.7464C25.2513 10.6777 25.2894 10.6025 25.3581 10.5811C25.4268 10.557 25.4992 10.5951 25.5234 10.6638C25.5438 10.7325 25.5057 10.8049 25.4379 10.8291C25.4277 10.8328 25.4138 10.8356 25.3999 10.8356C25.3451 10.8356 25.2931 10.8012 25.2763 10.7464H25.2754ZM29.2911 10.8189C29.2224 10.7947 29.1843 10.7232 29.2084 10.6536C29.2289 10.5848 29.3013 10.5468 29.37 10.5681C29.4388 10.5923 29.4768 10.6647 29.4555 10.7334C29.4351 10.7882 29.383 10.8226 29.3283 10.8226C29.318 10.8226 29.3041 10.8226 29.2902 10.8189H29.2911ZM25.1621 10.0666C25.1621 9.9942 25.2206 9.93569 25.2931 9.93569C25.3655 9.93569 25.424 9.9942 25.424 10.0666C25.424 10.1391 25.3655 10.1976 25.2931 10.1976C25.2206 10.1976 25.1658 10.1391 25.1621 10.0666ZM29.3022 10.0564V10.0425V10.0323C29.3022 9.95984 29.3608 9.90133 29.4295 9.90133C29.5019 9.90133 29.5604 9.95612 29.5632 10.0286C29.5632 10.0351 29.5632 10.0388 29.5595 10.0425C29.5595 10.0425 29.5632 10.0527 29.5632 10.0564C29.5632 10.1289 29.5047 10.1874 29.4323 10.1874C29.3598 10.1874 29.3013 10.1289 29.3013 10.0564H29.3022ZM25.3516 9.55121C25.2828 9.53078 25.2448 9.45834 25.2661 9.38962C25.2903 9.32089 25.3618 9.28282 25.4314 9.30418C25.5002 9.32461 25.5373 9.39983 25.5169 9.46949C25.4964 9.52428 25.4444 9.55864 25.3896 9.55864C25.3794 9.55864 25.3655 9.55864 25.3516 9.55214V9.55121ZM29.1982 9.43419H29.2019C29.1778 9.36919 29.2122 9.29303 29.2809 9.26889C29.3496 9.24846 29.4248 9.28282 29.4462 9.35154C29.4703 9.42026 29.4323 9.4927 29.3672 9.51685C29.3496 9.52335 29.3366 9.52335 29.3227 9.52335C29.2679 9.52335 29.2196 9.48899 29.1992 9.43419H29.1982ZM25.606 8.95684C25.5475 8.91598 25.5336 8.83333 25.5754 8.77482C25.6162 8.71631 25.6989 8.70238 25.7574 8.74417C25.8159 8.78504 25.8299 8.86769 25.7881 8.9262C25.7602 8.96056 25.7193 8.98099 25.6813 8.98099C25.6534 8.98099 25.6265 8.97449 25.606 8.95684ZM28.9206 8.89834C28.876 8.83983 28.8899 8.76089 28.9484 8.71631C29.0032 8.67545 29.0859 8.68567 29.1267 8.74324H29.1304C29.1713 8.80175 29.1611 8.88069 29.1026 8.92527C29.0784 8.94199 29.0515 8.95313 29.0236 8.95313C28.9856 8.95313 28.9447 8.9327 28.9206 8.89834ZM26.0277 8.46928C25.9868 8.41077 25.9998 8.32812 26.0555 8.28726C26.114 8.24268 26.1967 8.25661 26.2375 8.31419C26.2821 8.36898 26.2682 8.45163 26.2106 8.49621C26.1902 8.51293 26.1623 8.52036 26.1354 8.52036C26.0945 8.52036 26.0565 8.50364 26.0286 8.46928H26.0277ZM28.4878 8.47578C28.4293 8.43492 28.4153 8.35226 28.4571 8.29376C28.498 8.23525 28.5806 8.22132 28.6392 8.26311C28.6977 8.30397 28.7116 8.38663 28.6698 8.44513C28.6419 8.4795 28.6011 8.49993 28.563 8.49993C28.5361 8.49993 28.5082 8.49343 28.4878 8.47578ZM26.5849 8.13216C26.5607 8.06344 26.5988 7.991 26.6675 7.96686C26.7325 7.94642 26.8087 7.98079 26.8328 8.04951C26.8533 8.11823 26.8189 8.19439 26.7502 8.21482C26.7363 8.22132 26.7223 8.22132 26.7093 8.22132C26.6545 8.22132 26.6025 8.18696 26.5858 8.13216H26.5849ZM27.9445 8.2046C27.8758 8.18417 27.8377 8.11173 27.859 8.04301C27.8795 7.97429 27.9547 7.93621 28.0244 7.95757C28.0931 7.978 28.1312 8.05044 28.1098 8.11916C28.0894 8.17767 28.0411 8.21203 27.9863 8.21203C27.9723 8.21203 27.9584 8.20832 27.9454 8.20553L27.9445 8.2046ZM27.2136 7.98822C27.2136 7.91578 27.2721 7.85727 27.3445 7.85727C27.417 7.85355 27.4755 7.91206 27.4755 7.9845C27.4755 8.05694 27.417 8.11545 27.3483 8.11545C27.2758 8.11545 27.2173 8.06065 27.2145 7.98822H27.2136Z" fill="#1D8E7C"/>
<path d="M23.8574 6.34288C23.6902 6.17664 23.5741 5.93518 23.5853 5.65657C23.5973 5.37889 23.7515 5.09936 23.9623 4.92569C24.1722 4.74645 24.4192 4.64615 24.6653 4.59229C24.9124 4.53935 25.1622 4.51521 25.412 4.544C25.9284 4.60343 26.3639 4.84675 26.7131 5.15043C27.0623 5.4569 27.3279 5.82467 27.5267 6.22122C27.535 6.23887 27.5285 6.2593 27.5109 6.26858C27.4988 6.27509 27.4839 6.27323 27.4737 6.26487C27.1217 6.00019 26.7865 5.7383 26.4308 5.54513C26.0807 5.3501 25.7074 5.21266 25.3591 5.20337C24.9969 5.18294 24.6254 5.2851 24.3505 5.44297C24.2177 5.52656 24.0988 5.61478 24.0162 5.75966C23.928 5.90361 23.8871 6.10142 23.8555 6.34288H23.8574Z" fill="#1D8E7C"/>
<path d="M23.1571 4.24768C23.2444 4.46487 23.3808 4.65607 23.5442 4.79808C23.5933 4.62637 23.6843 4.46301 23.8161 4.32472C23.6175 4.2616 23.3984 4.2319 23.158 4.24768H23.1571Z" fill="#1D8E7C"/>
<path d="M23.7347 3.68167C23.7217 3.90257 23.7477 4.12255 23.8155 4.32396C23.9445 4.18381 24.1107 4.0715 24.2907 3.98982C24.1339 3.86916 23.9464 3.76057 23.7347 3.6826V3.68167Z" fill="#1D8E7C"/>
<path d="M24.4664 3.39317C24.3736 3.58622 24.3142 3.78671 24.291 3.98997C24.4729 3.90922 24.6669 3.86003 24.8683 3.85168C24.7634 3.68925 24.6316 3.53796 24.4664 3.39317Z" fill="#1D8E7C"/>
<path d="M25.2409 3.38785C25.0933 3.52429 24.9671 3.68208 24.8687 3.85193C25.072 3.84172 25.279 3.86585 25.4822 3.91876C25.4228 3.74519 25.3449 3.56513 25.24 3.38785H25.2409Z" fill="#1D8E7C"/>
<path d="M25.9596 3.60644C25.7879 3.69368 25.6273 3.79393 25.4825 3.91737C25.6858 3.96935 25.8854 4.05103 26.0756 4.1522C26.0506 3.97677 26.0135 3.79578 25.9596 3.60644Z" fill="#1D8E7C"/>
<path d="M26.593 3.98255C26.4166 4.02153 26.2421 4.08001 26.0769 4.15241C26.2672 4.2545 26.45 4.37516 26.618 4.51439C26.6199 4.34454 26.6124 4.16726 26.593 3.98255Z" fill="#1D8E7C"/>
<path d="M27.1344 4.4629C26.9627 4.46847 26.7891 4.48332 26.6174 4.51488C26.7873 4.6541 26.9506 4.8091 27.1084 4.97153L27.1344 4.46383V4.4629Z" fill="#1D8E7C"/>
<path d="M27.6043 4.99033C27.4428 4.97641 27.2766 4.96898 27.1086 4.97084C27.2664 5.13327 27.4196 5.30219 27.5699 5.4739L27.6043 4.99033Z" fill="#1D8E7C"/>
<path d="M28.039 5.53826C27.8868 5.51134 27.7299 5.48999 27.5703 5.47421L27.793 5.73503L27.9035 5.86683L27.9582 5.93273L27.9861 5.96614L28 5.98285L28.0065 5.9912L28.0102 5.99491L28.0121 5.99677V5.99862C27.961 6.03946 28.1272 5.90766 27.897 6.08958L28.013 5.99862V5.99584V5.99213V5.9847V5.97078L28.0148 5.94293L28.0176 5.88632L28.0232 5.77122L28.038 5.53733L28.039 5.53826Z" fill="#1D8E7C"/>
<path d="M15.3022 25.7896C15.2242 25.6437 15.0496 25.5453 14.8889 25.5871C14.7338 25.627 14.64 25.7738 14.5732 25.9233C14.6373 25.5936 14.6837 25.3261 14.6837 25.2444C14.6837 24.9807 14.4701 24.7671 14.2063 24.7671C13.9426 24.7671 13.729 24.9807 13.729 25.2444C13.729 25.3271 13.7754 25.5945 13.8395 25.9233C13.7726 25.7728 13.6788 25.627 13.5237 25.5871C13.364 25.5453 13.1885 25.6437 13.1105 25.7896C13.0325 25.9354 13.0399 26.1155 13.0947 26.2706C13.1495 26.4266 13.2489 26.5622 13.351 26.6922C13.5507 26.9458 13.7698 27.1835 13.9964 27.4138C13.9361 27.1677 13.8469 26.7665 13.8469 26.7665C13.8469 26.7665 13.9779 26.9746 14.0977 27.1687C14.1033 27.178 14.1088 27.1872 14.1144 27.1965C14.1237 27.1055 14.1348 27.008 14.145 26.9123C14.1766 26.6217 14.2073 26.3514 14.2073 26.3514C14.2073 26.3514 14.2379 26.6217 14.2695 26.9123C14.2797 27.008 14.2899 27.1055 14.3001 27.1965C14.3057 27.1872 14.3113 27.178 14.3169 27.1687C14.4367 26.9736 14.5676 26.7665 14.5676 26.7665C14.5676 26.7665 14.4775 27.1668 14.4172 27.4138C14.6438 27.1835 14.8629 26.9458 15.0626 26.6922C15.1647 26.5622 15.2641 26.4257 15.3189 26.2706C15.3737 26.1146 15.3811 25.9354 15.3031 25.7896H15.3022Z" fill="#1D8E7C"/>
<path d="M15.3022 29.6751C15.2242 29.8209 15.0496 29.9193 14.8889 29.8775C14.7338 29.8376 14.64 29.6908 14.5732 29.5413C14.6373 29.8701 14.6837 30.1385 14.6837 30.2202C14.6837 30.4839 14.4701 30.6975 14.2063 30.6975C13.9426 30.6975 13.729 30.4839 13.729 30.2202C13.729 30.1375 13.7754 29.8701 13.8395 29.5413C13.7726 29.6918 13.6788 29.8376 13.5237 29.8775C13.364 29.9193 13.1885 29.8209 13.1105 29.6751C13.0325 29.5293 13.0399 29.3491 13.0947 29.194C13.1495 29.038 13.2489 28.9024 13.351 28.7724C13.5507 28.5188 13.7698 28.2811 13.9964 28.0508C13.9361 28.2969 13.8469 28.6981 13.8469 28.6981C13.8469 28.6981 13.9779 28.49 14.0977 28.2959C14.1033 28.2867 14.1088 28.2774 14.1144 28.2681C14.1237 28.3591 14.1348 28.4566 14.145 28.5523C14.1766 28.8429 14.2073 29.1132 14.2073 29.1132C14.2073 29.1132 14.2379 28.8429 14.2695 28.5523C14.2797 28.4566 14.2899 28.3591 14.3001 28.2681C14.3057 28.2774 14.3113 28.2867 14.3169 28.2959C14.4367 28.491 14.5676 28.6981 14.5676 28.6981C14.5676 28.6981 14.4775 28.2978 14.4172 28.0508C14.6438 28.2811 14.8629 28.5188 15.0626 28.7724C15.1647 28.9024 15.2641 29.0389 15.3189 29.194C15.3737 29.35 15.3811 29.5293 15.3031 29.6751H15.3022Z" fill="#1D8E7C"/>
<path d="M16.1492 28.8285C16.295 28.7505 16.3934 28.5759 16.3516 28.4152C16.3117 28.2601 16.165 28.1663 16.0155 28.0995C16.3451 28.1636 16.6126 28.21 16.6943 28.21C16.9581 28.21 17.1717 27.9964 17.1717 27.7326C17.1717 27.4689 16.9581 27.2553 16.6943 27.2553C16.6117 27.2553 16.3442 27.3017 16.0155 27.3658C16.1659 27.2989 16.3117 27.2051 16.3516 27.0501C16.3934 26.8903 16.295 26.7148 16.1492 26.6368C16.0034 26.5588 15.8232 26.5662 15.6681 26.621C15.5121 26.6758 15.3765 26.7752 15.2465 26.8773C14.993 27.077 14.7552 27.2962 14.5249 27.5228C14.771 27.4624 15.1722 27.3723 15.1722 27.3723C15.1722 27.3723 14.9642 27.5033 14.7701 27.6231C14.7608 27.6286 14.7515 27.6342 14.7422 27.6398C14.8332 27.6491 14.9307 27.6602 15.0264 27.6704C15.3171 27.702 15.5873 27.7326 15.5873 27.7326C15.5873 27.7326 15.3171 27.7633 15.0264 27.7949C14.9307 27.8051 14.8332 27.8153 14.7422 27.8255C14.7515 27.8311 14.7608 27.8367 14.7701 27.8422C14.9651 27.962 15.1722 28.093 15.1722 28.093C15.1722 28.093 14.7719 28.0029 14.5249 27.9425C14.7552 28.1691 14.993 28.3883 15.2465 28.588C15.3765 28.6901 15.513 28.7895 15.6681 28.8443C15.8241 28.8991 16.0034 28.9065 16.1492 28.8285Z" fill="#1D8E7C"/>
<path d="M12.2635 28.8285C12.1177 28.7505 12.0193 28.5759 12.0611 28.4152C12.101 28.2601 12.2477 28.1663 12.3972 28.0995C12.0676 28.1636 11.8001 28.21 11.7184 28.21C11.4546 28.21 11.241 27.9964 11.241 27.7326C11.241 27.4689 11.4546 27.2553 11.7184 27.2553C11.801 27.2553 12.0685 27.3017 12.3972 27.3658C12.2468 27.2989 12.101 27.2051 12.0611 27.0501C12.0193 26.8903 12.1177 26.7148 12.2635 26.6368C12.4093 26.5588 12.5895 26.5662 12.7446 26.621C12.9006 26.6758 13.0362 26.7752 13.1662 26.8773C13.4197 27.077 13.6575 27.2962 13.8878 27.5228C13.6417 27.4624 13.2405 27.3723 13.2405 27.3723C13.2405 27.3723 13.4485 27.5033 13.6426 27.6231C13.6519 27.6286 13.6612 27.6342 13.6705 27.6398C13.5795 27.6491 13.482 27.6602 13.3863 27.6704C13.0956 27.702 12.8254 27.7326 12.8254 27.7326C12.8254 27.7326 13.0956 27.7633 13.3863 27.7949C13.482 27.8051 13.5795 27.8153 13.6705 27.8255C13.6612 27.8311 13.6519 27.8367 13.6426 27.8422C13.4476 27.962 13.2405 28.093 13.2405 28.093C13.2405 28.093 13.6408 28.0029 13.8878 27.9425C13.6575 28.1691 13.4197 28.3883 13.1662 28.588C13.0362 28.6901 12.8997 28.7895 12.7446 28.8443C12.5886 28.8991 12.4093 28.9065 12.2635 28.8285Z" fill="#1D8E7C"/>
<path d="M14.2062 27.9059C14.3021 27.9059 14.3798 27.8282 14.3798 27.7323C14.3798 27.6364 14.3021 27.5587 14.2062 27.5587C14.1104 27.5587 14.0327 27.6364 14.0327 27.7323C14.0327 27.8282 14.1104 27.9059 14.2062 27.9059Z" fill="#1D8E7C"/>
<path d="M16.1523 25.9139C16.1421 25.9371 16.1235 25.9649 16.1106 25.9788L16.0957 25.9918L16.0669 26.0169L16.0112 26.0633L15.9008 26.1543L15.679 26.3334L15.2344 26.688L15.5592 26.2211L15.7207 25.9872L15.7996 25.8702L15.8377 25.8127L15.8553 25.7848L15.8637 25.7719C15.8572 25.7765 15.846 25.7951 15.8432 25.809C15.872 25.7227 15.9648 25.6763 16.0502 25.705C16.1365 25.7338 16.1829 25.8266 16.1542 25.9129L16.1523 25.9139Z" fill="#1D8E7C"/>
<path d="M12.3006 25.9138C12.3108 25.937 12.3294 25.9649 12.3424 25.9788L12.3572 25.9918L12.386 26.0168L12.4417 26.0632L12.5521 26.1542L12.774 26.3333L13.2186 26.6879L12.8937 26.221L12.7322 25.9871L12.6533 25.8702L12.6153 25.8126L12.5976 25.7848L12.5893 25.7718C12.5958 25.7764 12.6069 25.795 12.6097 25.8089C12.5809 25.7226 12.4881 25.6762 12.4018 25.705C12.3155 25.7337 12.2691 25.8266 12.2978 25.9129L12.3006 25.9138Z" fill="#1D8E7C"/>
<path d="M12.3006 29.5504C12.3108 29.5272 12.3294 29.4994 12.3424 29.4854L12.3572 29.4724L12.386 29.4474L12.4417 29.401L12.5521 29.31L12.774 29.1309L13.2186 28.7763L12.8937 29.2432L12.7322 29.4771L12.6533 29.594L12.6153 29.6516L12.5976 29.6794L12.5893 29.6924C12.5958 29.6878 12.6069 29.6692 12.6097 29.6553C12.5809 29.7416 12.4881 29.788 12.4018 29.7592C12.3155 29.7305 12.2691 29.6376 12.2978 29.5513L12.3006 29.5504Z" fill="#1D8E7C"/>
<path d="M16.1523 29.5504C16.1421 29.5272 16.1235 29.4994 16.1106 29.4855L16.0957 29.4725L16.0669 29.4474L16.0112 29.401L15.9008 29.31L15.679 29.1309L15.2344 28.7763L15.5592 29.2432L15.7207 29.4771L15.7996 29.594L15.8377 29.6516L15.8553 29.6794L15.8637 29.6924C15.8572 29.6878 15.846 29.6692 15.8432 29.6553C15.872 29.7416 15.9648 29.788 16.0502 29.7593C16.1365 29.7305 16.1829 29.6377 16.1542 29.5514L16.1523 29.5504Z" fill="#1D8E7C"/>
<path d="M43.7249 20.2942C43.7835 20.44 43.9386 20.5515 44.0946 20.5282C44.245 20.5059 44.349 20.3778 44.428 20.2431C44.3333 20.5477 44.2617 20.7966 44.2534 20.8746C44.2265 21.1245 44.4066 21.3483 44.6555 21.3761C44.9053 21.4031 45.1291 21.2229 45.157 20.974C45.1654 20.896 45.1496 20.6378 45.1226 20.3202C45.17 20.4697 45.2443 20.6174 45.3864 20.6713C45.5331 20.727 45.7096 20.6527 45.7978 20.5227C45.887 20.3926 45.899 20.2218 45.8628 20.0685C45.8266 19.9153 45.7476 19.776 45.6641 19.6432C45.5015 19.3822 45.3195 19.1352 45.1282 18.8937C45.1598 19.1333 45.2034 19.5215 45.2034 19.5215C45.2034 19.5215 45.1013 19.3116 45.0084 19.1148C45.0038 19.1055 45.0001 19.0962 44.9954 19.0869C44.9768 19.1723 44.9564 19.2634 44.9369 19.3525C44.8765 19.6237 44.8199 19.8772 44.8199 19.8772C44.8199 19.8772 44.8199 19.6181 44.8199 19.3395C44.8199 19.2476 44.8199 19.1547 44.8199 19.0674C44.8134 19.0758 44.8078 19.0832 44.8013 19.0915C44.6676 19.2634 44.5227 19.4463 44.5227 19.4463C44.5227 19.4463 44.649 19.0767 44.7317 18.8501C44.493 19.0442 44.2617 19.2466 44.0463 19.4658C43.9358 19.5782 43.828 19.6971 43.7602 19.8382C43.6915 19.9803 43.6664 20.1493 43.7249 20.2951V20.2942Z" fill="#1D8E7C"/>
<path d="M44.7595 18.4981C44.7725 18.3812 44.8783 18.2958 44.9952 18.3088C45.1122 18.3218 45.1976 18.4276 45.1846 18.5446C45.1716 18.6615 45.0658 18.7469 44.9488 18.7339C44.8319 18.7209 44.7465 18.6151 44.7595 18.4981Z" fill="#1D8E7C"/>
<path d="M44.8422 16.0986C44.9703 14.6684 45.065 13.4398 44.3546 11.8489C43.9952 13.2615 44.1605 14.8087 44.8422 16.0986Z" fill="#1D8E7C"/>
<path d="M28.8324 34.5139C28.6596 34.6188 28.537 34.773 28.4702 34.9476C28.264 34.7452 27.9622 34.6486 27.6594 34.7191C27.1904 34.8297 26.8979 35.2996 27.0084 35.7695C27.0539 35.9664 27.1635 36.1298 27.3084 36.2487C27.0521 36.3824 26.8673 36.6397 26.8412 36.9489C26.8013 37.43 27.1579 37.8526 27.639 37.8934C27.8396 37.9101 28.03 37.8572 28.1869 37.7551C28.2352 38.0402 28.4228 38.2956 28.7089 38.4163C29.1537 38.6039 29.6654 38.3949 29.853 37.9501C29.931 37.7643 29.9403 37.5665 29.8911 37.3864C30.1771 37.4291 30.478 37.3288 30.6814 37.0938C30.9962 36.7279 30.9563 36.1763 30.5913 35.8614C30.439 35.7296 30.2533 35.6608 30.0666 35.6506C30.1957 35.3915 30.1938 35.0739 30.0322 34.8092C29.7824 34.3969 29.2447 34.2641 28.8324 34.5139ZM29.4007 35.5243C29.4611 35.6237 29.4695 35.7481 29.4249 35.8568C29.4221 35.8633 29.4184 35.8707 29.4147 35.8782L29.3311 36.0472L29.5196 36.0574C29.6023 36.062 29.6784 36.0927 29.7397 36.1456C29.8604 36.2496 29.8994 36.4187 29.8382 36.5663C29.8233 36.6016 29.8029 36.6341 29.7778 36.6638C29.6961 36.7595 29.5716 36.805 29.4453 36.7864L29.2586 36.7586L29.3069 36.9415C29.3283 37.0205 29.3227 37.1022 29.2911 37.1783C29.2531 37.2693 29.1825 37.339 29.0915 37.3761C29.0005 37.4133 28.9011 37.4124 28.811 37.3752C28.6949 37.326 28.6132 37.222 28.5918 37.0975L28.5603 36.9109L28.4014 37.014C28.3327 37.0585 28.2529 37.079 28.1711 37.0715C27.9696 37.0548 27.8192 36.8765 27.8359 36.675C27.8387 36.6369 27.848 36.5988 27.8628 36.5645C27.8953 36.4865 27.9557 36.4205 28.0318 36.3815L28.199 36.2942L28.0523 36.1753C27.9882 36.1233 27.9445 36.0537 27.926 35.9747C27.9083 35.8977 27.9148 35.8206 27.9445 35.7481C27.99 35.6395 28.0848 35.5596 28.199 35.5327C28.3216 35.5039 28.4488 35.5392 28.5398 35.6283L28.6745 35.7611L28.7423 35.5847L28.7469 35.5735C28.7767 35.5011 28.8287 35.4426 28.8946 35.4017C28.9782 35.3516 29.0766 35.3358 29.1723 35.359C29.267 35.3822 29.3478 35.4417 29.3989 35.5262L29.4007 35.5243Z" fill="#1D8E7C"/>
<path d="M28.9371 36.0487C29.0735 36.1062 29.1376 36.2631 29.08 36.3996C29.0225 36.536 28.8656 36.6 28.7292 36.5425C28.5927 36.4849 28.5287 36.3281 28.5863 36.1916C28.6438 36.0552 28.8007 35.9912 28.9371 36.0487Z" fill="#1D8E7C"/>
<path d="M38.7044 24.1545C38.6487 24.4731 38.6134 24.7563 38.6644 25.073C38.7155 25.3832 38.853 25.737 39.1548 26.1011C39.3266 25.3637 39.126 24.7424 38.7035 24.1545H38.7044Z" fill="#1D8E7C"/>
<path d="M39.7065 24.0561C39.673 24.3216 39.6638 24.5638 39.7427 24.8153C39.8206 25.0622 39.9877 25.3286 40.307 25.5718C40.4026 24.9286 40.1789 24.4654 39.7065 24.0561Z" fill="#1D8E7C"/>
<path d="M40.7094 23.803C40.6816 24.0183 40.6862 24.2178 40.7735 24.4053C40.8607 24.59 41.0352 24.7692 41.3434 24.8973C41.3954 24.3506 41.1874 24.0387 40.7094 23.803Z" fill="#1D8E7C"/>
<path d="M41.6883 23.3948C41.6539 23.5674 41.6586 23.7252 41.7402 23.8514C41.821 23.9767 41.9834 24.0761 42.2535 24.0955C42.2739 23.8719 42.2424 23.7113 42.1524 23.6027C42.0623 23.4922 41.9138 23.4347 41.6883 23.3948Z" fill="#1D8E7C"/>
<path d="M42.6169 22.8353C42.5659 22.9727 42.5584 23.0924 42.6188 23.1648C42.6782 23.2363 42.8109 23.2641 43.0179 23.188C43.0476 23.0098 43.0355 22.8966 42.9789 22.8455C42.9186 22.7917 42.8118 22.8019 42.6169 22.8353Z" fill="#1D8E7C"/>
<path d="M29.9957 7.23353C29.8649 7.28179 29.7841 7.31985 29.7284 7.38853C29.6718 7.45629 29.6467 7.55374 29.6003 7.73752C29.7943 7.68833 30.0319 7.45907 29.9957 7.23353Z" fill="#1D8E7C"/>
<path d="M30.5025 7.54317C30.3373 7.59236 30.2232 7.64248 30.1276 7.72973C30.0301 7.81698 29.9558 7.94228 29.8417 8.1474C30.1081 8.06387 30.4357 7.83739 30.5025 7.54317Z" fill="#1D8E7C"/>
<path d="M30.9233 7.97083C30.7386 8.00146 30.5957 8.0488 30.4657 8.13512C30.3339 8.22237 30.217 8.35138 30.0471 8.55001C30.3757 8.47111 30.7627 8.28734 30.9233 7.97083Z" fill="#1D8E7C"/>
<path d="M31.2454 8.48437C30.8463 8.49179 30.631 8.60132 30.217 8.95216C30.5827 8.91132 31.0069 8.78788 31.2454 8.48437Z" fill="#1D8E7C"/>
<path d="M31.4544 9.05986C31.0608 9.00139 30.8121 9.08214 30.3499 9.35966C30.7276 9.37451 31.1546 9.32625 31.4544 9.05986Z" fill="#1D8E7C"/>
<path d="M31.5351 9.66573C31.1824 9.54414 30.9151 9.58126 30.4445 9.77896C30.8111 9.85693 31.2038 9.87642 31.5351 9.66573Z" fill="#1D8E7C"/>
<path d="M31.4879 10.2672C31.2029 10.0973 30.943 10.088 30.5049 10.2171C30.8289 10.3516 31.1491 10.4222 31.4879 10.2672Z" fill="#1D8E7C"/>
<path d="M31.3124 10.8371C31.2177 10.7425 31.1129 10.6794 30.9866 10.6524C30.8613 10.6255 30.7054 10.6348 30.5337 10.6775C30.7824 10.8538 30.9978 10.9429 31.3124 10.8371Z" fill="#1D8E7C"/>
<path d="M31.007 11.342C30.9513 11.1684 30.762 11.0812 30.5309 11.1694C30.6747 11.3587 30.7527 11.419 31.007 11.342Z" fill="#1D8E7C"/>
</g>
</svg>
