<svg width="52" height="46" viewBox="0 0 52 46" fill="none" xmlns="http://www.w3.org/2000/svg">
<g opacity="0.5">
<path d="M40.5734 35.8655C40.7364 36.8301 41.1627 37.8924 42.0691 38.8922L39.3913 44.9984H36.687L38.8143 38.7301C38.8143 38.7301 35.0873 35.9545 33.1415 33.7814C33.1353 33.7849 33.1256 33.7875 33.115 33.7946C33.115 33.7946 33.1115 33.7981 33.1089 33.8008C33.093 33.8069 33.0728 33.8166 33.0472 33.8272C32.9627 33.8659 32.8385 33.9285 32.7019 33.9937C32.0245 34.3002 30.6037 34.8763 28.7591 35.2974C27.355 35.6198 25.706 35.8479 23.9469 35.7924C23.628 35.7862 23.3021 35.766 22.9762 35.7369C22.9762 35.7369 24.4913 39.1415 19.8552 45.0002H17.3236C18.0309 45.0002 20.1812 40.3967 17.2523 34.3689C14.8316 29.3937 15.0333 24.8229 16.9334 17.6869C17.0963 17.0747 17.1122 16.4422 17.047 15.8265C16.9008 14.4127 16.3273 13.0764 16.1512 12.2167C17.1739 11.8027 18.3278 11.5877 19.3998 11.2979C19.4034 11.2979 19.406 11.2944 19.4095 11.2944C19.4192 11.3138 19.4289 11.3332 19.4386 11.3499C19.7354 11.9234 20.064 12.4475 20.4164 12.9267C20.4199 12.9302 20.4199 12.9328 20.4199 12.9328C22.8899 16.3048 26.4636 17.4491 28.0632 17.856C30.0637 18.3608 32.1329 18.4753 34.1756 18.1855C35.9479 17.9344 38.9914 16.814 38.2417 14.5105C39.5093 15.1526 40.236 16.104 40.7566 17.0289C40.9813 17.4297 41.2032 17.8437 41.4146 18.2701C41.4534 18.3485 41.493 18.4233 41.5283 18.5017C41.5644 18.5766 41.5996 18.6515 41.6357 18.7263C41.6745 18.8074 41.7106 18.8893 41.7467 18.9704C41.789 19.0549 41.8278 19.1395 41.8639 19.2276C41.9123 19.335 41.9581 19.4425 42.004 19.55C43.4962 23.0884 44.1577 27.3307 41.8146 31.6928C40.9513 33.2995 40.2836 34.1822 40.5734 35.8664V35.8655Z" fill="white"/>
<path d="M13.9825 11.2898C13.7332 10.6177 13.5676 9.91126 13.5271 9.19246C13.4989 8.47367 13.5817 7.75664 13.7684 7.0722C13.9719 6.39216 14.2758 5.7544 14.6572 5.17391C15.0483 4.5987 15.5231 4.09572 16.0428 3.65616C17.1175 2.80964 18.3357 2.24324 19.6976 2.05297C21.0418 1.88472 22.4212 2.11728 23.6025 2.75063C24.782 3.37781 25.7642 4.41636 26.2442 5.68129C26.4891 6.33138 26.5684 7.04841 26.4662 7.73197C26.3711 8.41817 26.0778 9.05857 25.6787 9.59502C25.2762 10.1315 24.7582 10.5701 24.1786 10.8705C23.606 11.1683 22.9647 11.3691 22.3058 11.392C21.0022 11.4484 19.6782 10.8529 18.9515 9.76503C18.8449 9.60647 18.8881 9.39154 19.0475 9.28495C19.1999 9.18365 19.4025 9.21801 19.5135 9.36071L19.517 9.36511C20.1477 10.1817 21.2391 10.5781 22.2407 10.4609C23.2308 10.3473 24.2024 9.73948 24.7186 8.91939C25.2638 8.09929 25.329 7.06162 24.9344 6.22215C24.5221 5.33863 23.7637 4.63922 22.8678 4.24018C21.9702 3.83586 20.9467 3.74601 20.0032 3.93188C19.5302 4.01908 19.0845 4.21376 18.6379 4.43486C18.2001 4.66389 17.809 4.95545 17.4513 5.27609C17.1113 5.61347 16.8101 5.98167 16.5749 6.38511C16.3503 6.79296 16.1847 7.2237 16.0834 7.66414C15.9997 8.1081 15.9838 8.55559 16.0296 8.99427C16.0886 9.43294 16.2252 9.85488 16.404 10.2592L16.4225 10.3006C16.7167 10.9657 16.4154 11.7426 15.7513 12.0359C15.0862 12.3301 14.3093 12.0289 14.0159 11.3647C14.0054 11.3409 13.9948 11.3136 13.986 11.2898H13.9825Z" fill="#FEFFFF"/>
<path d="M12.4797 10.1139L12.4198 10.1509C11.3081 10.8353 10.7144 12.0236 10.8809 13.2295C11.0527 14.4716 10.6757 15.7242 9.83178 16.7161L9.2786 17.3661C8.75976 17.9757 8.98967 18.8795 9.76836 19.1904C10.4598 19.4661 11.3768 19.6 12.4083 19.1526C14.6572 18.1765 16.8162 16.4694 17.0858 15.7374C17.3553 15.0054 20.419 12.9327 20.419 12.9327C20.419 12.9327 19.5681 11.2626 18.704 10.5244C17.0092 9.07623 14.4079 8.92736 12.4797 10.1139Z" fill="white"/>
<path d="M11.7265 18.8616C12.4497 19.4518 12.7131 20.6683 12.3017 21.5157C12.884 21.2488 13.2337 20.5502 13.3121 19.835C13.3905 19.1197 13.239 18.3859 13.0514 17.683L11.7256 18.8616H11.7265Z" fill="white"/>
<path d="M16.0305 10.8034C17.7985 9.92693 19.2184 9.20901 19.2184 6.41312C16.0305 7.26492 16.0816 9.68909 16.0305 10.8034Z" fill="white"/>
<path d="M12.9262 14.2488C12.9262 14.4268 12.7668 14.5712 12.5695 14.5712C12.3722 14.5712 12.2127 14.4268 12.2127 14.2488C12.2127 14.0709 12.3722 13.9264 12.5695 13.9264C12.7668 13.9264 12.9262 14.0709 12.9262 14.2488Z" fill="#0D808A"/>
<path d="M12.9025 18.2516C13.4653 18.8409 13.7375 19.6496 13.6327 20.423C13.9172 19.9667 14.0229 19.4214 13.926 18.9052C13.8291 18.389 13.4777 17.6394 13.0425 17.2941L12.9025 18.2516Z" fill="white"/>
<path d="M33.1433 33.7792C33.0834 33.8074 32.9089 33.8946 32.7019 33.9898C31.5092 32.5865 30.6345 30.6266 31.4379 28.1689C32.2527 25.6761 35.4573 24.3204 35.4573 24.3204C35.4573 24.3204 29.6568 28.745 33.1433 33.7792Z" fill="#129AA6"/>
<path d="M22.977 32.7455C22.977 32.7455 26.4679 41.0724 22.977 44.9993H25.5025C25.5025 44.9993 30.1817 39.9061 28.3248 31.122L22.977 32.7455Z" fill="white"/>
<path d="M21.2787 30.4266C20.7352 30.4266 20.256 30.6988 19.9662 31.1137C19.8798 31.0987 19.7918 31.0899 19.7019 31.0873C20.0234 30.5508 20.6092 30.1888 21.2787 30.1888C21.9481 30.1888 22.5339 30.5499 22.8554 31.0873C22.7656 31.0899 22.6775 31.0987 22.5912 31.1137C22.3014 30.6988 21.8213 30.4266 21.2787 30.4266Z" fill="#0D808A"/>
<path d="M21.2787 30.8983C20.9484 30.8983 20.6524 31.041 20.4454 31.2674C20.3705 31.2312 20.293 31.1986 20.2128 31.1731C20.4639 30.8613 20.8479 30.6604 21.2787 30.6604C21.7094 30.6604 22.0935 30.8613 22.3445 31.1731C22.2644 31.1986 22.1869 31.2312 22.112 31.2674C21.905 31.041 21.609 30.8983 21.2787 30.8983Z" fill="#0D808A"/>
<path d="M21.2786 31.3695C21.1139 31.3695 20.9642 31.4303 20.8488 31.5307C20.788 31.4779 20.7237 31.4294 20.6559 31.3854C20.8171 31.2294 21.0364 31.1325 21.2786 31.1325C21.5209 31.1325 21.7402 31.2294 21.9014 31.3854C21.8336 31.4294 21.7693 31.4779 21.7085 31.5307C21.5931 31.4312 21.4434 31.3695 21.2786 31.3695Z" fill="#0D808A"/>
<path d="M21.2787 31.8413C21.2355 31.8413 21.1968 31.8563 21.1651 31.8809C21.1202 31.8158 21.0699 31.755 21.0171 31.696C21.0893 31.6387 21.1792 31.6035 21.2787 31.6035C21.3783 31.6035 21.4681 31.6387 21.5403 31.696C21.4875 31.7541 21.4373 31.8158 21.3923 31.8809C21.3606 31.8563 21.3219 31.8413 21.2787 31.8413Z" fill="#0D808A"/>
<path d="M24.6753 30.4266C24.1318 30.4266 23.6526 30.6988 23.3628 31.1137C23.2765 31.0987 23.1884 31.0899 23.0985 31.0873C23.4201 30.5508 24.0058 30.1888 24.6753 30.1888C25.3448 30.1888 25.9306 30.5499 26.2521 31.0873C26.1622 31.0899 26.0741 31.0987 25.9878 31.1137C25.698 30.6988 25.2179 30.4266 24.6753 30.4266Z" fill="#0D808A"/>
<path d="M24.6754 30.8983C24.345 30.8983 24.049 31.041 23.842 31.2674C23.7672 31.2312 23.6897 31.1986 23.6095 31.1731C23.8605 30.8613 24.2446 30.6604 24.6754 30.6604C25.1061 30.6604 25.4902 30.8613 25.7412 31.1731C25.661 31.1986 25.5835 31.2312 25.5087 31.2674C25.3017 31.041 25.0057 30.8983 24.6754 30.8983Z" fill="#0D808A"/>
<path d="M24.6753 31.3695C24.5106 31.3695 24.3609 31.4303 24.2455 31.5307C24.1847 31.4779 24.1204 31.4294 24.0526 31.3854C24.2138 31.2294 24.4331 31.1325 24.6753 31.1325C24.9176 31.1325 25.1369 31.2294 25.2981 31.3854C25.2303 31.4294 25.166 31.4779 25.1052 31.5307C24.9898 31.4312 24.8401 31.3695 24.6753 31.3695Z" fill="#0D808A"/>
<path d="M24.6753 31.8413C24.6322 31.8413 24.5934 31.8563 24.5617 31.8809C24.5168 31.8158 24.4666 31.755 24.4137 31.696C24.486 31.6387 24.5758 31.6035 24.6753 31.6035C24.7749 31.6035 24.8647 31.6387 24.937 31.696C24.8841 31.7541 24.8339 31.8158 24.789 31.8809C24.7573 31.8563 24.7185 31.8413 24.6753 31.8413Z" fill="#0D808A"/>
<path d="M19.5804 31.5692C19.0369 31.5692 18.5577 31.8414 18.2679 32.2563C18.1815 32.2413 18.0935 32.2325 18.0036 32.2299C18.3251 31.6934 18.9109 31.3314 19.5804 31.3314C20.2498 31.3314 20.8356 31.6925 21.1571 32.2299C21.0673 32.2325 20.9792 32.2413 20.8929 32.2563C20.6031 31.8414 20.123 31.5692 19.5804 31.5692Z" fill="#0D808A"/>
<path d="M19.5804 32.0405C19.2501 32.0405 18.9541 32.1832 18.7471 32.4096C18.6722 32.3735 18.5947 32.3409 18.5146 32.3153C18.7656 32.0035 19.1497 31.8027 19.5804 31.8027C20.0112 31.8027 20.3952 32.0035 20.6463 32.3153C20.5661 32.3409 20.4886 32.3735 20.4137 32.4096C20.2067 32.1832 19.9107 32.0405 19.5804 32.0405Z" fill="#0D808A"/>
<path d="M19.5804 32.512C19.4156 32.512 19.2659 32.5728 19.1505 32.6732C19.0897 32.6204 19.0254 32.5719 18.9576 32.5279C19.1188 32.372 19.3381 32.2751 19.5804 32.2751C19.8226 32.2751 20.0419 32.372 20.2031 32.5279C20.1353 32.5719 20.071 32.6204 20.0102 32.6732C19.8948 32.5737 19.7451 32.512 19.5804 32.512Z" fill="#0D808A"/>
<path d="M19.5803 32.9829C19.5372 32.9829 19.4984 32.9979 19.4667 33.0226C19.4218 32.9574 19.3716 32.8966 19.3187 32.8376C19.391 32.7803 19.4808 32.7451 19.5803 32.7451C19.6799 32.7451 19.7697 32.7803 19.842 32.8376C19.7891 32.8966 19.7389 32.9574 19.694 33.0226C19.6623 32.9979 19.6235 32.9829 19.5803 32.9829Z" fill="#0D808A"/>
<path d="M22.9771 31.5692C22.4336 31.5692 21.9544 31.8414 21.6646 32.2563C21.5782 32.2413 21.4901 32.2325 21.4003 32.2299C21.7218 31.6934 22.3076 31.3314 22.9771 31.3314C23.6465 31.3314 24.2323 31.6925 24.5538 32.2299C24.464 32.2325 24.3759 32.2413 24.2896 32.2563C23.9998 31.8414 23.5197 31.5692 22.9771 31.5692Z" fill="#0D808A"/>
<path d="M22.9771 32.0405C22.6467 32.0405 22.3508 32.1832 22.1437 32.4096C22.0689 32.3735 21.9914 32.3409 21.9112 32.3153C22.1622 32.0035 22.5463 31.8027 22.9771 31.8027C23.4078 31.8027 23.7919 32.0035 24.0429 32.3153C23.9628 32.3409 23.8852 32.3735 23.8104 32.4096C23.6034 32.1832 23.3074 32.0405 22.9771 32.0405Z" fill="#0D808A"/>
<path d="M22.9771 32.512C22.8124 32.512 22.6626 32.5728 22.5472 32.6732C22.4864 32.6204 22.4221 32.5719 22.3543 32.5279C22.5155 32.372 22.7348 32.2751 22.9771 32.2751C23.2193 32.2751 23.4387 32.372 23.5999 32.5279C23.532 32.5719 23.4677 32.6204 23.407 32.6732C23.2916 32.5737 23.1418 32.512 22.9771 32.512Z" fill="#0D808A"/>
<path d="M22.977 32.9829C22.9338 32.9829 22.8951 32.9979 22.8634 33.0226C22.8185 32.9574 22.7682 32.8966 22.7154 32.8376C22.7876 32.7803 22.8775 32.7451 22.977 32.7451C23.0765 32.7451 23.1664 32.7803 23.2386 32.8376C23.1858 32.8966 23.1356 32.9574 23.0906 33.0226C23.0589 32.9979 23.0202 32.9829 22.977 32.9829Z" fill="#0D808A"/>
<path d="M38.2426 18.4908C37.6991 18.4908 37.2199 18.763 36.9301 19.1779C36.8438 19.1629 36.7557 19.1541 36.6659 19.1515C36.9874 18.615 37.5732 18.253 38.2426 18.253C38.9121 18.253 39.4979 18.6141 39.8194 19.1515C39.7295 19.1541 39.6415 19.1629 39.5551 19.1779C39.2653 18.763 38.7852 18.4908 38.2426 18.4908Z" fill="#0D808A"/>
<path d="M38.2427 18.9625C37.9123 18.9625 37.6164 19.1052 37.4094 19.3316C37.3345 19.2955 37.257 19.2629 37.1768 19.2373C37.4279 18.9255 37.8119 18.7247 38.2427 18.7247C38.6734 18.7247 39.0575 18.9255 39.3085 19.2373C39.2284 19.2629 39.1509 19.2955 39.076 19.3316C38.869 19.1052 38.573 18.9625 38.2427 18.9625Z" fill="#0D808A"/>
<path d="M38.2426 19.4336C38.0779 19.4336 37.9281 19.4944 37.8127 19.5948C37.752 19.542 37.6877 19.4935 37.6198 19.4495C37.781 19.2936 38.0004 19.1967 38.2426 19.1967C38.4849 19.1967 38.7042 19.2936 38.8654 19.4495C38.7976 19.4935 38.7333 19.542 38.6725 19.5948C38.5571 19.4953 38.4073 19.4336 38.2426 19.4336Z" fill="#0D808A"/>
<path d="M38.2426 19.9048C38.1995 19.9048 38.1607 19.9197 38.129 19.9444C38.0841 19.8792 38.0339 19.8184 37.981 19.7594C38.0532 19.7022 38.1431 19.6669 38.2426 19.6669C38.3422 19.6669 38.432 19.7022 38.5043 19.7594C38.4514 19.8184 38.4012 19.8792 38.3563 19.9444C38.3246 19.9197 38.2858 19.9048 38.2426 19.9048Z" fill="#0D808A"/>
<path d="M41.5283 18.4991C41.0298 18.5317 40.5964 18.7924 40.3259 19.1765C40.2414 19.1632 40.1533 19.1536 40.0617 19.15C40.348 18.6779 40.8368 18.3387 41.4138 18.2674C41.4526 18.3458 41.4922 18.4207 41.5275 18.4991H41.5283Z" fill="#0D808A"/>
<path d="M41.7468 18.9682C41.7107 18.9647 41.6754 18.962 41.6393 18.962C41.3099 18.962 41.0139 19.1056 40.8051 19.3337C40.7303 19.295 40.6554 19.265 40.5735 19.2395C40.8245 18.9268 41.2059 18.7251 41.6358 18.7251C41.6745 18.8061 41.7107 18.888 41.7468 18.9691V18.9682Z" fill="#0D808A"/>
<path d="M42.004 19.5481C41.9 19.4768 41.7758 19.4345 41.6393 19.4345C41.4763 19.4345 41.3266 19.4961 41.2094 19.5939C41.1477 19.5419 41.0852 19.4926 41.0174 19.4503C41.1803 19.2935 41.3988 19.1966 41.6393 19.1966C41.7177 19.1966 41.7925 19.2063 41.8639 19.2257C41.9123 19.3332 41.9581 19.4406 42.004 19.5481Z" fill="#0D808A"/>
<path d="M41.6393 19.9047C41.5961 19.9047 41.5573 19.9197 41.5256 19.9444C41.4807 19.8792 41.4305 19.8184 41.3777 19.7594C41.4499 19.7021 41.5397 19.6669 41.6393 19.6669C41.7388 19.6669 41.8287 19.7021 41.9009 19.7594C41.848 19.8184 41.7978 19.8792 41.7529 19.9444C41.7212 19.9197 41.6824 19.9047 41.6393 19.9047Z" fill="#0D808A"/>
<path d="M36.5452 19.6325C36.0017 19.6325 35.5225 19.9046 35.2326 20.3195C35.1463 20.3046 35.0582 20.2958 34.9684 20.2931C35.2899 19.7567 35.8757 19.3946 36.5452 19.3946C37.2146 19.3946 37.8004 19.7558 38.1219 20.2931C38.0321 20.2958 37.944 20.3046 37.8577 20.3195C37.5678 19.9046 37.0878 19.6325 36.5452 19.6325Z" fill="#0D808A"/>
<path d="M36.5452 20.1046C36.2148 20.1046 35.9189 20.2473 35.7119 20.4737C35.637 20.4376 35.5595 20.405 35.4793 20.3795C35.7304 20.0677 36.1144 19.8668 36.5452 19.8668C36.9759 19.8668 37.36 20.0677 37.611 20.3795C37.5309 20.405 37.4533 20.4376 37.3785 20.4737C37.1715 20.2473 36.8755 20.1046 36.5452 20.1046Z" fill="#0D808A"/>
<path d="M36.5452 20.5758C36.3804 20.5758 36.2307 20.6366 36.1153 20.737C36.0545 20.6842 35.9902 20.6357 35.9224 20.5917C36.0836 20.4358 36.3029 20.3389 36.5452 20.3389C36.7874 20.3389 37.0068 20.4358 37.168 20.5917C37.1001 20.6357 37.0358 20.6842 36.975 20.737C36.8596 20.6375 36.7099 20.5758 36.5452 20.5758Z" fill="#0D808A"/>
<path d="M36.5452 21.0472C36.502 21.0472 36.4632 21.0622 36.4315 21.0868C36.3866 21.0217 36.3364 20.9609 36.2835 20.9019C36.3558 20.8446 36.4456 20.8094 36.5452 20.8094C36.6447 20.8094 36.7345 20.8446 36.8068 20.9019C36.7539 20.9609 36.7037 21.0217 36.6588 21.0868C36.6271 21.0622 36.5883 21.0472 36.5452 21.0472Z" fill="#0D808A"/>
<path d="M39.941 19.6325C39.3975 19.6325 38.9183 19.9046 38.6285 20.3195C38.5421 20.3046 38.454 20.2958 38.3642 20.2931C38.6857 19.7567 39.2715 19.3946 39.941 19.3946C40.6104 19.3946 41.1962 19.7558 41.5177 20.2931C41.4279 20.2958 41.3398 20.3046 41.2535 20.3195C40.9637 19.9046 40.4836 19.6325 39.941 19.6325Z" fill="#0D808A"/>
<path d="M39.9409 20.1046C39.6106 20.1046 39.3146 20.2473 39.1076 20.4737C39.0327 20.4376 38.9552 20.405 38.8751 20.3795C39.1261 20.0677 39.5102 19.8668 39.9409 19.8668C40.3717 19.8668 40.7557 20.0677 41.0068 20.3795C40.9266 20.405 40.8491 20.4376 40.7742 20.4737C40.5672 20.2473 40.2712 20.1046 39.9409 20.1046Z" fill="#0D808A"/>
<path d="M39.9409 20.5758C39.7762 20.5758 39.6265 20.6366 39.5111 20.737C39.4503 20.6842 39.386 20.6357 39.3182 20.5917C39.4794 20.4358 39.6987 20.3389 39.9409 20.3389C40.1832 20.3389 40.4025 20.4358 40.5637 20.5917C40.4959 20.6357 40.4316 20.6842 40.3708 20.737C40.2554 20.6375 40.1057 20.5758 39.9409 20.5758Z" fill="#0D808A"/>
<path d="M39.941 21.0472C39.8978 21.0472 39.859 21.0622 39.8273 21.0868C39.7824 21.0217 39.7322 20.9609 39.6794 20.9019C39.7516 20.8446 39.8414 20.8094 39.941 20.8094C40.0405 20.8094 40.1304 20.8446 40.2026 20.9019C40.1497 20.9609 40.0995 21.0217 40.0546 21.0868C40.0229 21.0622 39.9841 21.0472 39.941 21.0472Z" fill="#0D808A"/>
<path d="M16.0428 14.9024C16.0252 14.8927 15.8755 14.7826 15.7204 14.6954C15.5663 14.6056 15.4051 14.5377 15.4051 14.5377C15.4051 14.5377 15.5689 14.595 15.7442 14.6329C15.9186 14.6725 16.1027 14.6919 16.1221 14.6963C16.16 14.7051 16.1794 14.765 16.1547 14.8276C16.1309 14.8901 16.0763 14.9209 16.0428 14.9024Z" fill="#0D808A"/>
<path d="M15.7372 15.2474C15.7266 15.2307 15.6447 15.0642 15.5469 14.9136C15.4518 14.7629 15.3408 14.6282 15.3408 14.6282C15.3408 14.6282 15.4588 14.755 15.5971 14.8704C15.7328 14.9867 15.8869 15.0889 15.9019 15.1021C15.9319 15.1276 15.9204 15.1893 15.8702 15.2333C15.8209 15.2774 15.7574 15.28 15.7363 15.2474H15.7372Z" fill="#0D808A"/>
<path d="M15.3055 15.4105C15.3038 15.3911 15.3091 15.2052 15.2932 15.0273C15.2861 14.9383 15.2747 14.8511 15.2632 14.7859C15.2527 14.7207 15.2439 14.6785 15.2439 14.6785C15.2439 14.6785 15.2897 14.8458 15.3575 15.0123C15.4236 15.1788 15.5125 15.3409 15.5196 15.3594C15.5337 15.3964 15.4949 15.4457 15.4306 15.4607C15.3663 15.4765 15.3091 15.4492 15.3055 15.4113V15.4105Z" fill="#0D808A"/>
<path d="M14.8483 15.355C14.8554 15.3365 14.947 15.1753 15.0148 15.0106C15.0853 14.8449 15.1329 14.6785 15.1329 14.6785C15.1329 14.6785 15.1232 14.7207 15.1117 14.7859C15.1003 14.8502 15.0871 14.9392 15.0791 15.0273C15.0606 15.2043 15.0642 15.3902 15.0615 15.4096C15.0589 15.429 15.0439 15.4448 15.021 15.4545C14.9981 15.4642 14.9673 15.4668 14.9355 15.458C14.8704 15.4431 14.8334 15.392 14.8475 15.3559L14.8483 15.355Z" fill="#0D808A"/>
<path d="M14.4696 15.0935C14.4845 15.0803 14.6405 14.9799 14.777 14.8654C14.9162 14.7518 15.036 14.6267 15.036 14.6267C15.036 14.6267 15.0078 14.6602 14.9673 14.7121C14.9267 14.7641 14.8748 14.8363 14.8263 14.9103C14.7277 15.0592 14.6431 15.2248 14.6325 15.2407C14.6114 15.2724 14.5471 15.2697 14.4986 15.2248C14.4484 15.1816 14.4396 15.1191 14.4687 15.0935H14.4696Z" fill="#0D808A"/>
<path d="M14.2556 14.6846C14.2749 14.6802 14.4599 14.6635 14.6335 14.6256C14.8096 14.5895 14.9744 14.534 14.9744 14.534C14.9744 14.534 14.9338 14.5507 14.8739 14.578C14.814 14.6053 14.7339 14.645 14.6564 14.6881C14.4996 14.7736 14.3489 14.8819 14.3313 14.8916C14.3137 14.9004 14.2926 14.8978 14.2714 14.8837C14.2503 14.8705 14.2309 14.8467 14.2203 14.815C14.1957 14.7533 14.2168 14.6926 14.2547 14.6846H14.2556Z" fill="#0D808A"/>
<path d="M14.2555 14.2249C14.2749 14.2302 14.4449 14.3007 14.6185 14.3482C14.7911 14.3984 14.962 14.4257 14.962 14.4257C14.962 14.4257 14.7885 14.409 14.6105 14.4152C14.4317 14.4187 14.2476 14.4434 14.2282 14.4434C14.1895 14.4434 14.1569 14.3905 14.1657 14.3244C14.1701 14.2918 14.1824 14.2637 14.1992 14.246C14.2168 14.2284 14.237 14.2205 14.2564 14.2249H14.2555Z" fill="#0D808A"/>
<path d="M14.4696 13.8161C14.4846 13.8293 14.6018 13.9711 14.733 14.0944C14.8625 14.2195 15.0008 14.3226 15.0008 14.3226C15.0008 14.3226 14.9647 14.2988 14.9074 14.2644C14.851 14.231 14.7744 14.1878 14.6942 14.1482C14.5348 14.068 14.3595 14.0037 14.3419 13.9949C14.3075 13.9773 14.304 13.9147 14.3419 13.8601C14.3613 13.8337 14.3851 13.8152 14.4088 13.8064C14.4326 13.7985 14.4546 13.8011 14.4687 13.8143L14.4696 13.8161Z" fill="#0D808A"/>
<path d="M14.8484 13.5547C14.8554 13.5741 14.8933 13.7529 14.9523 13.9238C15.0096 14.0947 15.0836 14.2506 15.0836 14.2506C15.0836 14.2506 15.0625 14.2127 15.0281 14.1563C14.9937 14.1008 14.9462 14.0269 14.8933 13.9546C14.7894 13.8093 14.6634 13.6719 14.652 13.656C14.6299 13.6243 14.6555 13.5679 14.7145 13.5371C14.7436 13.523 14.7744 13.5168 14.7982 13.5204C14.8229 13.5248 14.8414 13.5371 14.8484 13.5556V13.5547Z" fill="#0D808A"/>
<path d="M15.3055 13.499C15.3029 13.5184 15.2536 13.6963 15.2271 13.8742C15.1981 14.0513 15.1919 14.224 15.1919 14.224C15.1919 14.224 15.1875 14.0513 15.1611 13.8742C15.1364 13.6972 15.0897 13.5166 15.0871 13.4972C15.0818 13.4576 15.1311 13.4215 15.1972 13.4206C15.2633 13.4224 15.3117 13.4594 15.3064 13.499H15.3055Z" fill="#0D808A"/>
<path d="M15.7372 13.6622C15.7257 13.678 15.5989 13.8137 15.4923 13.9582C15.3839 14.1009 15.2985 14.2515 15.2985 14.2515C15.2985 14.2515 15.3751 14.0965 15.4342 13.9273C15.4949 13.7582 15.5363 13.5776 15.5434 13.56C15.5575 13.5221 15.6182 13.5124 15.6773 13.5433C15.7354 13.5759 15.761 13.6314 15.738 13.6639L15.7372 13.6622Z" fill="#0D808A"/>
<path d="M16.0428 14.0072C16.0261 14.016 15.8499 14.0767 15.6887 14.156C15.5266 14.2327 15.3813 14.326 15.3813 14.326C15.3813 14.326 15.5213 14.2238 15.6517 14.1014C15.7847 13.9798 15.9045 13.8389 15.9195 13.8266C15.9494 13.7993 16.0076 13.8195 16.0455 13.8733C16.0816 13.9288 16.0789 13.9904 16.0428 14.008V14.0072Z" fill="#0D808A"/>
<path d="M16.1538 14.4547C16.1345 14.4547 15.9495 14.4265 15.7707 14.4213C15.6817 14.4177 15.5936 14.4186 15.5284 14.4213C15.4632 14.4239 15.4192 14.4274 15.4192 14.4274C15.4192 14.4274 15.5901 14.4028 15.7636 14.3543C15.938 14.3085 16.1089 14.2398 16.1283 14.2354C16.1477 14.231 16.1688 14.2389 16.1847 14.2574C16.2005 14.2759 16.2137 14.3041 16.2181 14.3358C16.2243 14.4019 16.1926 14.4547 16.1538 14.4538V14.4547Z" fill="#0D808A"/>
<path d="M15.1919 15.8279C15.1716 15.8279 15.154 15.8121 15.154 15.7918C15.154 15.7716 15.1716 15.7539 15.1919 15.7539C15.2121 15.7539 15.2298 15.7716 15.2298 15.7918C15.2298 15.8121 15.2121 15.8297 15.1919 15.8297V15.8279ZM14.8836 15.7945C14.8633 15.7901 14.851 15.7698 14.8554 15.7504C14.8598 15.7302 14.88 15.717 14.9003 15.7214C14.9197 15.7266 14.9329 15.746 14.9285 15.7663C14.9241 15.7839 14.9091 15.7953 14.8924 15.7953C14.8924 15.7953 14.8871 15.7945 14.8836 15.7945ZM15.4553 15.7654C15.4509 15.7451 15.4641 15.7258 15.4835 15.7214C15.5037 15.7161 15.5231 15.7293 15.5284 15.7495C15.5328 15.7689 15.5196 15.7892 15.5002 15.7936C15.5002 15.7936 15.4949 15.7945 15.4914 15.7945C15.4738 15.7945 15.4588 15.783 15.4553 15.7654ZM14.5911 15.6923C14.5717 15.6835 14.5638 15.6615 14.5735 15.643C14.5823 15.6236 14.6035 15.6165 14.6228 15.6253C14.6413 15.6341 14.6484 15.6553 14.6405 15.6747C14.6343 15.6879 14.6202 15.6949 14.6061 15.6949C14.6061 15.6949 14.5964 15.694 14.5911 15.6914V15.6923ZM15.7433 15.6738C15.7336 15.6544 15.7424 15.6333 15.7609 15.6236C15.7794 15.6148 15.8014 15.6227 15.8103 15.6412C15.8191 15.6606 15.8111 15.6817 15.7926 15.6914C15.7873 15.6932 15.7821 15.6949 15.7768 15.6949C15.7627 15.6949 15.7495 15.6879 15.7433 15.6747V15.6738ZM14.3277 15.5267C14.3119 15.5152 14.3092 15.4914 14.3225 15.4747C14.3357 15.4589 14.3577 15.4553 14.3744 15.4685C14.3903 15.4818 14.3938 15.5047 14.3806 15.5214C14.3727 15.5302 14.3621 15.5355 14.3515 15.5355C14.3427 15.5355 14.3357 15.5328 14.3277 15.5267ZM16.0023 15.5205C15.9891 15.5047 15.9926 15.4809 16.0085 15.4677C16.0243 15.4545 16.0472 15.4571 16.0604 15.4729C16.0736 15.4888 16.071 15.5126 16.0551 15.5258C16.049 15.5311 16.0402 15.5328 16.0314 15.5328C16.0208 15.5328 16.0102 15.5284 16.0023 15.5196V15.5205ZM14.1093 15.3082C14.0961 15.2924 14.0987 15.2686 14.1146 15.2554C14.1304 15.2422 14.1542 15.2457 14.1674 15.2615C14.1806 15.2765 14.1771 15.3003 14.1621 15.3135C14.1542 15.3188 14.1463 15.3223 14.1384 15.3223C14.1278 15.3223 14.1172 15.317 14.1093 15.3082ZM16.2216 15.3117C16.2058 15.2985 16.2031 15.2756 16.2163 15.2598C16.2295 15.2439 16.2516 15.2404 16.2674 15.2536C16.2833 15.2668 16.2868 15.2897 16.2736 15.3065C16.2657 15.3153 16.2551 15.3206 16.2445 15.3206C16.2357 15.3206 16.2287 15.317 16.2207 15.3117H16.2216ZM13.9437 15.0466C13.934 15.0281 13.9428 15.0061 13.9613 14.9973C13.9798 14.9876 14.0018 14.9955 14.0106 15.0149C14.0194 15.0334 14.0115 15.0545 13.993 15.0642C13.9877 15.066 13.9824 15.0677 13.9772 15.0677C13.9631 15.0677 13.9507 15.0598 13.9437 15.0475V15.0466ZM16.389 15.0616C16.3705 15.0519 16.3634 15.0308 16.3714 15.0114C16.3811 14.9929 16.4022 14.9858 16.4216 14.9938C16.4401 15.0034 16.4471 15.0246 16.4392 15.044C16.433 15.0572 16.4189 15.0642 16.4048 15.0642C16.3996 15.0642 16.3943 15.0633 16.389 15.0607V15.0616ZM13.8406 14.7542C13.8362 14.7339 13.8485 14.7145 13.8688 14.7092C13.8891 14.7048 13.9084 14.718 13.9129 14.7374C13.9181 14.7577 13.9058 14.7771 13.8847 14.7823C13.8847 14.7823 13.8794 14.7832 13.8767 14.7832C13.86 14.7832 13.8441 14.7718 13.8406 14.7542ZM16.4965 14.7788C16.4771 14.7744 16.4639 14.7542 16.4683 14.7348C16.4736 14.7145 16.4929 14.7013 16.5132 14.7066C16.5326 14.711 16.5458 14.7304 16.5414 14.7506C16.537 14.7674 16.522 14.7797 16.5044 14.7797C16.5044 14.7797 16.4991 14.7797 16.4956 14.7788H16.4965ZM13.8045 14.4458C13.8045 14.4256 13.8221 14.408 13.8424 14.408C13.8626 14.408 13.8803 14.4256 13.8803 14.4458C13.8803 14.4661 13.8626 14.4828 13.8424 14.4837C13.8221 14.4837 13.8045 14.4661 13.8045 14.4458ZM16.5026 14.4423V14.437C16.5017 14.4168 16.5185 14.4009 16.5387 14.4009C16.559 14.4 16.5766 14.4168 16.5766 14.437V14.4406V14.4432C16.5766 14.4635 16.559 14.4811 16.5387 14.4811C16.5185 14.4811 16.5026 14.4635 16.5026 14.4432V14.4423ZM13.867 14.1807C13.8468 14.1763 13.8345 14.1569 13.8389 14.1367C13.8433 14.1164 13.8626 14.1041 13.8829 14.1085C13.9032 14.1129 13.9155 14.1331 13.9111 14.1534C13.9076 14.1693 13.8917 14.1816 13.8759 14.1816C13.8759 14.1816 13.8706 14.1816 13.867 14.1807ZM16.4674 14.1455C16.463 14.1252 16.4762 14.1058 16.4956 14.1005C16.5158 14.0961 16.5352 14.1094 16.5405 14.1287C16.5449 14.149 16.5317 14.1684 16.5123 14.1737C16.5123 14.1737 16.507 14.1745 16.5035 14.1745C16.4859 14.1745 16.4709 14.1631 16.4674 14.1455ZM13.9587 13.8944C13.9393 13.8856 13.9322 13.8636 13.9402 13.8451C13.9498 13.8257 13.971 13.8178 13.9904 13.8266C14.0089 13.8363 14.0159 13.8574 14.008 13.8759C14.0018 13.89 13.9877 13.8971 13.9736 13.8971C13.9736 13.8971 13.9631 13.8962 13.9587 13.8935V13.8944ZM16.3696 13.8698C16.3608 13.8504 16.3687 13.8292 16.3872 13.8195C16.4057 13.8107 16.4277 13.8187 16.4366 13.8372C16.4454 13.8557 16.4374 13.8777 16.4189 13.8865C16.4137 13.89 16.4084 13.8909 16.4031 13.8909C16.389 13.8909 16.3758 13.8839 16.3696 13.8706V13.8698ZM14.111 13.6346C14.0952 13.6214 14.0925 13.5984 14.1049 13.5817C14.1181 13.5659 14.141 13.5632 14.1577 13.5755C14.1736 13.5888 14.1771 13.6117 14.1639 13.6284C14.1569 13.6381 14.1454 13.6425 14.1348 13.6425C14.126 13.6425 14.1172 13.6398 14.111 13.6346ZM16.2128 13.6213C16.1996 13.6055 16.2022 13.5817 16.2181 13.5685C16.234 13.5553 16.2577 13.5588 16.271 13.5747C16.2824 13.5905 16.2806 13.6134 16.2648 13.6258C16.2586 13.631 16.2498 13.6346 16.2419 13.6346C16.2304 13.6346 16.219 13.6293 16.2128 13.6205V13.6213ZM14.3181 13.4135C14.3048 13.3976 14.3075 13.3738 14.3233 13.3606C14.3392 13.3474 14.363 13.3509 14.3762 13.3668C14.3894 13.3826 14.3859 13.4055 14.37 13.4187C14.3639 13.424 14.355 13.4276 14.3471 13.4276C14.3366 13.4276 14.326 13.4232 14.3181 13.4135ZM16.0049 13.4152C15.9891 13.402 15.9855 13.3791 15.9988 13.3624C16.012 13.3465 16.0349 13.3439 16.0516 13.3562C16.0675 13.3694 16.0701 13.3923 16.0578 13.4091C16.0507 13.4187 16.0393 13.4232 16.0278 13.4232C16.0199 13.4232 16.012 13.4205 16.0049 13.4152ZM14.5691 13.2452C14.5594 13.2267 14.5673 13.2047 14.5867 13.1959C14.6052 13.1871 14.6272 13.195 14.636 13.2135C14.6449 13.232 14.6369 13.254 14.6184 13.2628C14.6131 13.2664 14.6079 13.2672 14.6026 13.2672C14.5885 13.2672 14.5753 13.2593 14.5691 13.2461V13.2452ZM15.7556 13.2593C15.7371 13.2505 15.7301 13.2285 15.738 13.21C15.7468 13.1915 15.7689 13.1827 15.7873 13.1932C15.8058 13.2021 15.8147 13.2232 15.805 13.2426C15.7988 13.2558 15.7856 13.2628 15.7715 13.2628C15.7662 13.2628 15.7609 13.262 15.7556 13.2593ZM14.8501 13.1369C14.8457 13.1175 14.858 13.0972 14.8783 13.0928C14.8985 13.0884 14.9179 13.1008 14.9232 13.121C14.9276 13.1413 14.9144 13.1607 14.8941 13.1651H14.895C14.895 13.1651 14.8889 13.1659 14.8862 13.1659C14.8686 13.1659 14.8536 13.1554 14.8501 13.1369ZM15.4782 13.1633C15.4579 13.158 15.4456 13.1386 15.45 13.1184C15.4544 13.099 15.4746 13.0858 15.494 13.0902C15.5143 13.0946 15.5275 13.1148 15.5222 13.1351C15.5187 13.151 15.5028 13.1642 15.487 13.1642C15.487 13.1642 15.4817 13.1633 15.4782 13.1633ZM15.1496 13.0946C15.1496 13.0743 15.1655 13.0567 15.1875 13.0567C15.2069 13.0567 15.2236 13.0743 15.2236 13.0946C15.2236 13.1148 15.2077 13.1307 15.1875 13.1307C15.1663 13.1307 15.1496 13.1148 15.1496 13.0946Z" fill="#0D808A"/>
<path d="M36.4315 31.2408C36.5425 31.1633 36.635 31.069 36.7108 30.9651C36.9759 31.1034 37.2939 31.1413 37.6022 31.047C38.2285 30.8559 38.5809 30.1934 38.3897 29.5671C38.3501 29.4376 38.2884 29.3205 38.2135 29.2157C38.4267 29.006 38.5615 28.7162 38.5668 28.3938C38.5782 27.7393 38.0576 27.1993 37.4031 27.1879C37.2675 27.1852 37.1371 27.2073 37.0155 27.2469C36.8816 26.98 36.6473 26.7624 36.3426 26.6567C35.7233 26.4435 35.0494 26.7721 34.8363 27.3905C34.7922 27.5191 34.772 27.6503 34.772 27.7781C34.476 27.823 34.1967 27.978 34.0021 28.2361C33.6083 28.7585 33.7123 29.5019 34.2346 29.8957C34.343 29.9776 34.461 30.0366 34.5834 30.0763C34.5341 30.3714 34.5958 30.685 34.7808 30.9492C35.156 31.4857 35.8951 31.616 36.4315 31.2408ZM35.1824 29.9706C35.6969 29.2914 35.6414 29.1619 34.8028 29.0043C35.6467 28.8774 35.7066 28.7497 35.2168 28.0529C35.8968 28.5673 36.0254 28.5118 36.1831 27.6724C36.31 28.5162 36.4377 28.5761 37.1353 28.0864C36.6209 28.7655 36.6764 28.895 37.515 29.0518C36.6711 29.1795 36.6103 29.3064 37.101 30.0032C36.4218 29.4887 36.2923 29.5442 36.1347 30.3837C36.0078 29.5398 35.8801 29.4799 35.1824 29.9697V29.9706Z" fill="#0D808A"/>
<path d="M36.1515 29.4254C35.9321 29.4219 35.7577 29.2413 35.7621 29.022C35.7657 28.8026 35.9462 28.6291 36.1656 28.6317C36.3849 28.6361 36.5593 28.8167 36.5549 29.0361C36.5514 29.2554 36.3708 29.4289 36.1515 29.4254Z" fill="#0D808A"/>
<path d="M40.2809 25.3398C40.9786 25.3953 41.3847 25.9705 41.3204 26.4797C41.2437 26.9853 40.8465 27.2381 40.547 27.2804C39.8449 27.3297 39.8194 26.7721 39.8537 26.8214C39.9039 26.7518 40.0951 27.1756 40.5708 26.9959C41.1028 26.8655 41.153 25.8357 40.2484 25.7292C39.3252 25.6199 39.2653 26.8769 39.3675 27.7226C39.4573 28.6563 39.4494 29.6024 39.1094 30.359C38.7544 31.1509 37.9607 31.3483 37.5159 31.3897C37.0393 31.4284 36.7636 31.3853 36.7636 31.3949C36.7627 31.3861 37.0429 31.4046 37.508 31.3324C37.9502 31.2566 38.6672 31.0162 38.9394 30.2833C39.2098 29.5803 39.1781 28.6616 39.0539 27.7552C39.0019 27.2874 38.9499 26.7941 39.0706 26.285C39.1385 25.7494 39.7234 25.2966 40.2809 25.3416V25.3398Z" fill="#0D808A"/>
<path d="M39.4353 30.2655C39.7789 29.4578 39.7331 28.9733 39.8811 28.9698C39.978 28.946 40.1383 29.6146 39.7745 30.4258C39.416 31.2662 38.4382 31.7701 37.7212 31.7665C36.9927 31.8026 36.5293 31.5701 36.5293 31.5877C36.5267 31.5719 37.0279 31.7084 37.7 31.5807C38.3748 31.4811 39.1341 30.9746 39.4362 30.2655H39.4353Z" fill="#0D808A"/>
<path d="M37.1812 25.6286C36.9072 25.9765 37.1777 26.3465 37.3935 26.2848C37.6269 26.2743 37.7758 26.1941 37.8136 26.2549C37.8401 26.2822 37.7423 26.4839 37.3609 26.5623C36.8975 26.6997 36.4016 25.8796 36.9134 25.3661C37.4437 24.8851 38.2558 25.2137 38.4937 25.7378C38.7544 26.2364 38.8073 26.7455 38.8469 27.178C38.9033 28.0475 38.8504 28.6535 38.861 28.6544C38.8513 28.657 38.809 28.043 38.661 27.2027C38.58 26.7887 38.4708 26.2998 38.2224 25.9008C38.0127 25.4903 37.441 25.3934 37.1803 25.6295L37.1812 25.6286Z" fill="#0D808A"/>
<path d="M40.1859 27.15C39.9894 27.1464 39.8327 26.9844 39.8362 26.7879C39.8397 26.5915 40.0018 26.4347 40.1982 26.4382C40.3947 26.4417 40.5514 26.6038 40.5479 26.8002C40.5444 26.9967 40.3823 27.1535 40.1859 27.15Z" fill="#0D808A"/>
<path d="M17.4646 20.9414C17.3377 21.122 17.188 21.2374 17.0127 21.2541C17.1977 21.2726 17.3827 21.2849 17.565 21.2849C17.7473 21.2849 17.927 21.2708 18.1094 21.2638L18.0574 21.1008C17.8381 20.9872 17.639 20.9247 17.4637 20.9405L17.4646 20.9414Z" fill="#0D808A"/>
<path d="M18.3701 20.3953C18.2864 20.6754 18.1824 20.9159 18.0573 21.1009L18.1093 21.2638C18.4705 21.2348 18.8263 21.1757 19.1787 21.0982L19.0818 20.8401C18.8255 20.6578 18.5867 20.5019 18.3701 20.3944V20.3953Z" fill="#0D808A"/>
<path d="M19.2677 19.9005C19.2246 20.2387 19.1629 20.5549 19.0827 20.8421L19.1796 21.1002C19.5311 21.0192 19.8773 20.9143 20.2173 20.7884L20.0808 20.4853L19.2677 19.9022V19.9005Z" fill="#0D808A"/>
<path d="M20.1522 19.4263C20.1442 19.7857 20.1196 20.1389 20.0808 20.4833L20.2173 20.7864C20.3856 20.7194 20.5547 20.6534 20.7203 20.5776C20.8842 20.4992 21.0498 20.4226 21.2092 20.3354L21.0427 20.0262C20.7371 19.8333 20.4358 19.6245 20.153 19.4254L20.1522 19.4263Z" fill="#0D808A"/>
<path d="M21.0268 18.9532C21.0418 19.3038 21.0462 19.6606 21.0418 20.027L21.2083 20.3362C21.5289 20.1627 21.8381 19.968 22.1323 19.7513L21.9517 19.4712C21.6434 19.3214 21.329 19.14 21.0268 18.9532Z" fill="#0D808A"/>
<path d="M21.8971 18.4716L21.9517 19.4723L22.1323 19.7524C22.4256 19.5339 22.704 19.2961 22.9612 19.0371L22.7921 18.8186C22.5076 18.7403 22.201 18.616 21.8962 18.4725L21.8971 18.4716Z" fill="#0D808A"/>
<path d="M22.7789 17.9766C22.7656 18.2206 22.7709 18.4999 22.793 18.8178L22.9621 19.0363C23.0872 18.9024 23.2149 18.7729 23.3303 18.6302C23.4448 18.4875 23.5593 18.3457 23.6624 18.1942L23.5461 18.0673C23.3241 18.0858 23.0599 18.0488 22.7789 17.9757V17.9766Z" fill="#0D808A"/>
<path d="M23.6958 17.471C23.5998 17.6172 23.5549 17.8172 23.5461 18.0673L23.6623 18.1942C23.7592 18.0365 23.8632 17.8885 23.9513 17.7264C24.0385 17.5635 24.116 17.3952 24.1856 17.2234C24.0878 17.3697 23.9134 17.4472 23.6958 17.471Z" fill="#0D808A"/>
<path d="M17.2179 23.2329C17.0531 23.3465 16.8787 23.4134 16.7034 23.3993C16.8796 23.439 17.0584 23.476 17.2381 23.5024C17.4187 23.5359 17.5984 23.5509 17.7799 23.5614L17.764 23.4293C17.572 23.3157 17.3932 23.2522 17.2179 23.2329Z" fill="#0D808A"/>
<path d="M18.2159 22.9093C18.0803 23.1357 17.9261 23.3004 17.764 23.4281L17.7799 23.5603C17.9605 23.5682 18.1455 23.5885 18.326 23.5788C18.5075 23.5744 18.6898 23.5682 18.8731 23.5576L18.8273 23.3374C18.6088 23.1604 18.4062 23.0133 18.2168 22.9084L18.2159 22.9093Z" fill="#0D808A"/>
<path d="M19.1813 22.5618C19.08 22.8463 18.9629 23.1158 18.8272 23.3387L18.873 23.5589C19.0554 23.5475 19.2359 23.521 19.4174 23.4981C19.5997 23.477 19.7803 23.4462 19.9583 23.4048L19.8763 23.1282L19.1813 22.5626V22.5618Z" fill="#0D808A"/>
<path d="M20.1186 22.1864C20.0561 22.5194 19.9733 22.8304 19.8755 23.1263L19.9574 23.4029C20.1362 23.3633 20.3168 23.328 20.4939 23.2787L21.0206 23.1184L20.9008 22.8119L20.1186 22.1856V22.1864Z" fill="#0D808A"/>
<path d="M21.0303 21.7687C21.0021 22.1193 20.9651 22.4822 20.9017 22.8126L21.0215 23.1191C21.1985 23.068 21.3659 22.9923 21.5377 22.9271C21.7086 22.8592 21.8803 22.7923 22.0442 22.7086L21.8918 22.395C21.5949 22.1951 21.3042 21.9784 21.0303 21.7678V21.7687Z" fill="#0D808A"/>
<path d="M21.9218 21.3196C21.9235 21.6729 21.9147 22.034 21.8918 22.3961L22.0442 22.7097L22.5393 22.4657L23.0158 22.1873L22.8379 21.8869C22.5225 21.7063 22.216 21.5161 21.9218 21.3205V21.3196Z" fill="#0D808A"/>
<path d="M22.7859 20.821C22.8114 21.1663 22.8335 21.5284 22.837 21.8869L23.0149 22.1873C23.1752 22.0966 23.325 21.99 23.4756 21.8843C23.6245 21.7759 23.7804 21.6781 23.9196 21.5583L23.7284 21.2897C23.4175 21.1602 23.0933 20.9919 22.785 20.8219L22.7859 20.821Z" fill="#0D808A"/>
<path d="M23.6351 20.289L23.7293 21.2888L23.9205 21.5575L24.3442 21.2051C24.4825 21.0853 24.6111 20.9532 24.7423 20.8255L24.5556 20.6035C24.2534 20.5216 23.9478 20.4194 23.6351 20.2882V20.289Z" fill="#0D808A"/>
<path d="M24.464 19.7117L24.5565 20.6049L24.7432 20.8269C24.8762 20.7009 25.0013 20.567 25.1184 20.4261C25.2374 20.2869 25.3589 20.1513 25.469 20.005L25.3096 19.8447C25.0489 19.835 24.7582 19.7839 24.464 19.7117Z" fill="#0D808A"/>
<path d="M25.2849 19.0969C25.2691 19.3136 25.2805 19.5638 25.3087 19.8439L25.4682 20.0042C25.5774 19.8571 25.6831 19.7083 25.7861 19.5585C25.8936 19.4132 25.9782 19.2476 26.0707 19.0925L25.9685 19.0062C25.7712 19.0714 25.5483 19.1084 25.2849 19.0969Z" fill="#0D808A"/>
<path d="M26.1041 18.4416C26.024 18.5984 25.9782 18.7833 25.9685 19.0062L26.0707 19.0925C26.1614 18.9348 26.2477 18.7763 26.3191 18.6072C26.3957 18.4424 26.4626 18.2733 26.5261 18.1033C26.4415 18.2575 26.29 18.3658 26.1033 18.4407L26.1041 18.4416Z" fill="#0D808A"/>
<path d="M16.8682 25.5176C16.6929 25.6066 16.5159 25.648 16.3388 25.6304C16.6929 25.7123 17.0488 25.7695 17.4064 25.8189L17.4029 25.7096C17.2223 25.6039 17.0444 25.5361 16.8682 25.5176Z" fill="#0D808A"/>
<path d="M17.9164 25.3144C17.75 25.4853 17.5773 25.6192 17.4029 25.7099L17.4064 25.8191C17.764 25.8632 18.1243 25.8993 18.4855 25.9143L18.4723 25.7258C18.282 25.5584 18.0979 25.4192 17.9173 25.3144H17.9164Z" fill="#0D808A"/>
<path d="M18.9505 25.11C18.7982 25.3434 18.6387 25.5539 18.4722 25.7248L18.4854 25.9133C18.8466 25.9336 19.2095 25.9336 19.5733 25.9248L19.5434 25.6755C19.3372 25.4623 19.1408 25.2764 18.9505 25.1091V25.11Z" fill="#0D808A"/>
<path d="M19.9671 24.8878C19.8359 25.1697 19.6941 25.4383 19.5425 25.6762L19.5725 25.9255C19.9363 25.914 20.3001 25.8867 20.6648 25.8453L20.6119 25.5537C20.3864 25.3177 20.1715 25.0913 19.9671 24.8878Z" fill="#0D808A"/>
<path d="M20.9643 24.6332C20.8603 24.9574 20.7414 25.2604 20.6128 25.5537L20.6656 25.8453C21.0294 25.7995 21.3932 25.7449 21.7544 25.6656L21.6734 25.3485C21.425 25.1071 21.188 24.8622 20.9643 24.6332Z" fill="#0D808A"/>
<path d="M21.9377 24.3374C21.8646 24.6845 21.7765 25.0227 21.6734 25.3487L21.7544 25.6658C22.1165 25.5918 22.4741 25.494 22.8291 25.3813L22.7172 25.0553C22.4442 24.8166 22.1861 24.5797 21.9377 24.3383V24.3374Z" fill="#0D808A"/>
<path d="M22.8837 23.9913C22.8423 24.3437 22.7895 24.7075 22.7163 25.0554L22.8282 25.3814C23.0061 25.3285 23.1806 25.2598 23.3559 25.1973C23.5303 25.1321 23.702 25.0563 23.8747 24.985L23.732 24.6643C23.4351 24.4441 23.1541 24.223 22.8837 23.9913Z" fill="#0D808A"/>
<path d="M23.7945 23.5832C23.7892 23.9382 23.7672 24.2959 23.732 24.6641L23.8747 24.9847C24.0447 24.9037 24.2164 24.8261 24.3829 24.7389C24.5477 24.6473 24.7159 24.5636 24.8753 24.4623L24.7027 24.1628C24.3926 23.9902 24.0843 23.7858 23.7954 23.5832H23.7945Z" fill="#0D808A"/>
<path d="M24.6657 23.1043C24.6921 23.4496 24.7018 23.7984 24.7018 24.1631L24.8745 24.4626C25.0348 24.3639 25.196 24.267 25.3484 24.156C25.5043 24.0503 25.6558 23.9393 25.802 23.8204L25.6091 23.5553C25.2911 23.4284 24.9749 23.2751 24.6657 23.1043Z" fill="#0D808A"/>
<path d="M25.4964 22.5544C25.5404 22.8706 25.5827 23.2088 25.6091 23.555L25.802 23.8202C25.9518 23.7065 26.0936 23.5815 26.2328 23.4555C26.3764 23.3339 26.505 23.1948 26.6389 23.0635L26.438 22.845C26.1227 22.7711 25.8144 22.6803 25.4964 22.5544Z" fill="#0D808A"/>
<path d="M26.2795 21.9327C26.328 22.212 26.3896 22.5229 26.4381 22.8453L26.6389 23.0638C26.8996 22.7934 27.1401 22.5027 27.3595 22.1988L27.1674 22.0349C26.8811 22.0296 26.5808 21.9927 26.2786 21.9319L26.2795 21.9327Z" fill="#0D808A"/>
<path d="M27.0027 21.2332C27.0529 21.4798 27.1013 21.7406 27.1674 22.0357L27.3594 22.1995C27.4634 22.0427 27.5735 21.8921 27.666 21.7282C27.7602 21.5662 27.8562 21.4067 27.9329 21.2358L27.7725 21.1328C27.5435 21.2006 27.2757 21.2288 27.0027 21.2341V21.2332Z" fill="#0D808A"/>
<path d="M27.6589 20.4519C27.6792 20.6572 27.7197 20.8827 27.7734 21.132L27.9337 21.235C28.0183 21.0694 28.0932 20.8986 28.1566 20.7241C28.2288 20.5541 28.279 20.3736 28.331 20.1974L28.2306 20.1525C28.0773 20.2802 27.8871 20.3832 27.6589 20.4528V20.4519Z" fill="#0D808A"/>
<path d="M28.2421 19.5841C28.1971 19.7523 28.2086 19.9443 28.2306 20.1513L28.331 20.1963C28.3857 20.021 28.4112 19.8351 28.4508 19.6589C28.472 19.5708 28.4737 19.4766 28.4852 19.3867C28.4949 19.296 28.5037 19.2062 28.509 19.1163C28.4729 19.2898 28.3857 19.451 28.243 19.5841H28.2421Z" fill="#0D808A"/>
<path d="M14.6986 9.101C14.5189 9.101 14.3727 8.95477 14.3727 8.77507C14.3727 8.59537 14.5189 8.44915 14.6986 8.44915C14.8783 8.44915 15.0246 8.59537 15.0246 8.77507C15.0246 8.95477 14.8783 9.101 14.6986 9.101Z" fill="#26AF94"/>
<path d="M14.6837 7.78404C14.5146 7.78404 14.3771 7.64663 14.3771 7.4775C14.3771 7.30837 14.5146 7.17096 14.6837 7.17096C14.8528 7.17096 14.9902 7.30837 14.9902 7.4775C14.9902 7.64663 14.8528 7.78404 14.6837 7.78404Z" fill="#26AF94"/>
<path d="M15.0748 6.52492C14.9153 6.52492 14.7867 6.39631 14.7867 6.23687C14.7867 6.07743 14.9153 5.94883 15.0748 5.94883C15.2342 5.94883 15.3628 6.07743 15.3628 6.23687C15.3628 6.39631 15.2342 6.52492 15.0748 6.52492Z" fill="#26AF94"/>
<path d="M15.7804 5.41426C15.9292 5.41426 16.0499 5.29358 16.0499 5.14471C16.0499 4.99585 15.9292 4.87517 15.7804 4.87517C15.6315 4.87517 15.5108 4.99585 15.5108 5.14471C15.5108 5.29358 15.6315 5.41426 15.7804 5.41426Z" fill="#26AF94"/>
<path d="M16.7114 4.48579C16.5731 4.48579 16.4612 4.37392 16.4612 4.23563C16.4612 4.09733 16.5731 3.98546 16.7114 3.98546C16.8497 3.98546 16.9615 4.09733 16.9615 4.23563C16.9615 4.37392 16.8497 4.48579 16.7114 4.48579Z" fill="#26AF94"/>
<path d="M17.8055 3.76118C17.6777 3.76118 17.5738 3.65723 17.5738 3.5295C17.5738 3.40178 17.6777 3.29783 17.8055 3.29783C17.9332 3.29783 18.0371 3.40178 18.0371 3.5295C18.0371 3.65723 17.9332 3.76118 17.8055 3.76118Z" fill="#26AF94"/>
<path d="M19.0193 3.27363C18.9022 3.27363 18.8062 3.17849 18.8062 3.06133C18.8062 2.94417 18.9013 2.84904 19.0193 2.84904C19.1374 2.84904 19.2316 2.94417 19.2316 3.06133C19.2316 3.17849 19.1365 3.27363 19.0193 3.27363Z" fill="#26AF94"/>
<path d="M20.3081 3.08518C20.2006 3.08518 20.1143 2.99798 20.1143 2.89139C20.1143 2.78481 20.2015 2.6976 20.3081 2.6976C20.4146 2.6976 20.5018 2.78481 20.5018 2.89139C20.5018 2.99798 20.4146 3.08518 20.3081 3.08518Z" fill="#26AF94"/>
<path d="M21.6038 3.18853C21.5069 3.18853 21.4285 3.11014 21.4285 3.01324C21.4285 2.91634 21.5069 2.83795 21.6038 2.83795C21.7007 2.83795 21.7791 2.91634 21.7791 3.01324C21.7791 3.11014 21.7007 3.18853 21.6038 3.18853Z" fill="#26AF94"/>
<path d="M22.8502 3.54352C22.7639 3.54352 22.6943 3.47393 22.6943 3.3876C22.6943 3.30128 22.7639 3.23169 22.8502 3.23169C22.9366 3.23169 23.0062 3.30128 23.0062 3.3876C23.0062 3.47393 22.9366 3.54352 22.8502 3.54352Z" fill="#26AF94"/>
<path d="M23.9875 4.15746C23.9117 4.15746 23.85 4.0958 23.85 4.02004C23.85 3.94428 23.9117 3.88262 23.9875 3.88262C24.0632 3.88262 24.1249 3.94428 24.1249 4.02004C24.1249 4.0958 24.0632 4.15746 23.9875 4.15746Z" fill="#26AF94"/>
<path d="M24.9044 5.05875C24.8393 5.05875 24.7855 5.0059 24.7855 4.94072C24.7855 4.87553 24.8384 4.82268 24.9044 4.82268C24.9705 4.82268 25.0225 4.87553 25.0225 4.94072C25.0225 5.0059 24.9696 5.05875 24.9044 5.05875Z" fill="#26AF94"/>
<path d="M25.4321 6.22318C25.3774 6.22318 25.3325 6.17826 25.3325 6.12364C25.3325 6.06903 25.3774 6.02411 25.4321 6.02411C25.4867 6.02411 25.5316 6.06903 25.5316 6.12364C25.5316 6.17826 25.4867 6.22318 25.4321 6.22318Z" fill="#26AF94"/>
<path d="M16.7669 27.5923C16.7088 27.5923 16.6621 27.5457 16.6621 27.4875C16.6621 27.4294 16.7088 27.3827 16.7669 27.3827C16.825 27.3827 16.8717 27.4294 16.8717 27.4875C16.8717 27.5457 16.825 27.5923 16.7669 27.5923Z" fill="#0D808A"/>
<path d="M18.3869 28.058C18.2803 28.058 18.194 27.9717 18.194 27.8651C18.194 27.7585 18.2803 27.6722 18.3869 27.6722C18.4935 27.6722 18.5798 27.7585 18.5798 27.8651C18.5798 27.9717 18.4935 28.058 18.3869 28.058Z" fill="#0D808A"/>
<path d="M20.0465 28.2394C19.9046 28.2394 19.7901 28.1249 19.7901 27.9831C19.7901 27.8413 19.9046 27.7267 20.0465 27.7267C20.1883 27.7267 20.3028 27.8413 20.3028 27.9831C20.3028 28.1249 20.1883 28.2394 20.0465 28.2394Z" fill="#0D808A"/>
<path d="M21.7051 28.1401C21.8681 28.1401 22.0002 28.008 22.0002 27.845C22.0002 27.6821 21.8681 27.55 21.7051 27.55C21.5421 27.55 21.41 27.6821 21.41 27.845C21.41 28.008 21.5421 28.1401 21.7051 28.1401Z" fill="#0D808A"/>
<path d="M23.3215 27.7708C23.1462 27.7708 23.0044 27.6289 23.0044 27.4537C23.0044 27.2784 23.1462 27.1365 23.3215 27.1365C23.4968 27.1365 23.6386 27.2784 23.6386 27.4537C23.6386 27.6289 23.4968 27.7708 23.3215 27.7708Z" fill="#0D808A"/>
<path d="M24.8569 27.1384C24.6772 27.1384 24.5309 26.9922 24.5309 26.8125C24.5309 26.6328 24.6772 26.4865 24.8569 26.4865C25.0366 26.4865 25.1828 26.6328 25.1828 26.8125C25.1828 26.9922 25.0366 27.1384 24.8569 27.1384Z" fill="#0D808A"/>
<path d="M26.268 26.2497C26.0928 26.2497 25.9509 26.1079 25.9509 25.9326C25.9509 25.7573 26.0928 25.6155 26.268 25.6155C26.4433 25.6155 26.5852 25.7573 26.5852 25.9326C26.5852 26.1079 26.4433 26.2497 26.268 26.2497Z" fill="#0D808A"/>
<path d="M27.5233 25.136C27.6863 25.136 27.8184 25.0039 27.8184 24.8409C27.8184 24.678 27.6863 24.5458 27.5233 24.5458C27.3603 24.5458 27.2282 24.678 27.2282 24.8409C27.2282 25.0039 27.3603 25.136 27.5233 25.136Z" fill="#0D808A"/>
<path d="M28.5962 23.8253C28.4544 23.8253 28.3399 23.7108 28.3399 23.569C28.3399 23.4272 28.4544 23.3127 28.5962 23.3127C28.738 23.3127 28.8525 23.4272 28.8525 23.569C28.8525 23.7108 28.738 23.8253 28.5962 23.8253Z" fill="#0D808A"/>
<path d="M29.4612 22.3413C29.5678 22.3413 29.6541 22.2549 29.6541 22.1484C29.6541 22.0418 29.5678 21.9554 29.4612 21.9554C29.3547 21.9554 29.2683 22.0418 29.2683 22.1484C29.2683 22.2549 29.3547 22.3413 29.4612 22.3413Z" fill="#0D808A"/>
<path d="M30.0919 20.7136C30.1498 20.7136 30.1967 20.6667 30.1967 20.6088C30.1967 20.5509 30.1498 20.504 30.0919 20.504C30.034 20.504 29.9871 20.5509 29.9871 20.6088C29.9871 20.6667 30.034 20.7136 30.0919 20.7136Z" fill="#0D808A"/>
<path d="M17.9587 44.8072H19.5293C19.5293 44.8072 18.5489 44.2391 17.9587 44.8072Z" fill="#0D808A"/>
<path d="M23.6448 44.8061H25.2154C25.2154 44.8061 24.235 44.2379 23.6448 44.8061Z" fill="#0D808A"/>
<path d="M37.7194 44.5543H39.29C39.29 44.5543 38.3096 43.9861 37.7194 44.5543Z" fill="#0D808A"/>
</g>
</svg>
