<svg width="105" height="122" viewBox="0 0 105 122" fill="none" xmlns="http://www.w3.org/2000/svg">
<path opacity="0.4" fill-rule="evenodd" clip-rule="evenodd" d="M34.1228 5.96504C31.4478 -2.97315 27.5597 -11.471 22.5181 -19.3352C16.5633 -28.6262 9.15379 -36.7922 0.522298 -43.6586C0.0179862 -44.0659 -0.11779 -44.7448 0.173159 -45.3073C0.464108 -45.8504 1.1042 -46.1219 1.70549 -45.9474C12.2185 -42.8245 21.9556 -37.2577 29.8694 -29.8288C41.5267 -18.8891 46.9578 -6.35891 49.4987 2.7381C51.9039 1.5937 55.2595 0.488098 59.3328 0.410511C63.7185 0.331348 67.3287 1.47993 69.9104 2.69586C72.4701 -6.3878 77.9055 -18.8361 89.4952 -29.7123C97.4284 -37.18 107.166 -42.7468 117.678 -45.8697C118.28 -46.0442 118.92 -45.7727 119.211 -45.2102C119.502 -44.6477 119.347 -43.9688 118.862 -43.5809C110.211 -36.7145 102.821 -28.5291 96.8659 -19.2575C91.8242 -11.3932 87.9361 -2.89522 85.2611 6.04309C86.8648 5.52819 88.4774 5.18895 90.0965 5.02661C92.0362 4.83264 93.937 4.89083 96.1289 4.96842C99.0965 5.0654 102.801 5.18178 108.213 4.71626C111.413 4.44471 114.633 4.03738 117.775 3.47488C118.435 3.3585 119.075 3.74643 119.269 4.38652C119.463 5.02661 119.133 5.70549 118.532 5.97704C116.127 7.00506 114.187 8.45981 112.791 10.3025C111.763 11.6603 111.355 12.7271 110.928 13.8909L110.889 13.995C110.436 15.2049 109.962 16.4708 108.737 17.8284C105.691 21.2616 101.308 21.8241 98.6892 22.1344C93.4909 22.7939 89.0297 21.3198 86.1008 19.9038C86.2172 21.8435 86.6439 23.6667 87.3422 25.3736C88.2843 27.6425 89.4933 29.0346 90.7613 30.4946L90.7948 30.5331L90.8147 30.5562C92.0693 32.0037 93.3607 33.4937 94.4026 35.809C96.5097 40.5452 95.9195 45.0888 95.7235 46.5978L95.7215 46.6129C95.5315 48.0363 95.1915 49.3272 94.7393 50.5101C98.978 60.0452 98.9335 68.0797 98.1073 73.2058C96.381 84.0097 89.5146 94.93 80.1654 101.738C79.1956 102.436 78.2064 103.096 77.1589 103.775L77.1375 103.789C74.0588 105.822 70.5935 108.11 66.5684 112.503C64.3213 114.955 62.2875 117.655 60.5182 120.502C60.486 120.719 60.3634 120.918 60.1675 121.038L60.1517 121.048C60.0117 121.178 59.8233 121.251 59.6244 121.251V121.232C59.4886 121.232 59.3528 121.193 59.2365 121.115C58.9772 120.965 58.8427 120.681 58.8668 120.404C57.0974 117.541 55.0635 114.858 52.8162 112.406C48.8011 108.023 45.3097 105.714 42.2256 103.697C41.9989 103.546 41.7749 103.398 41.5533 103.251C40.7509 102.719 39.9791 102.208 39.2192 101.661C29.87 94.8717 23.0036 83.932 21.2773 73.1281C20.453 68.014 20.4067 59.987 24.6156 50.4975C24.1492 49.2921 23.7989 47.9737 23.6049 46.5164L23.5994 46.4744C23.3998 44.9387 22.8098 40.4018 24.9239 35.7124C25.9713 33.3655 27.2709 31.8719 28.5316 30.4366L28.5651 30.3981C29.8331 28.938 31.0421 27.5459 31.9842 25.2771C32.7019 23.5702 33.1092 21.7469 33.2256 19.8072C30.2967 21.2426 25.8355 22.6973 20.6372 22.0378L20.6144 22.035C17.9933 21.7049 13.6262 21.155 10.5898 17.7318C9.34839 16.3158 8.86348 15.0357 8.39796 13.7943C7.97123 12.6499 7.5639 11.5637 6.53588 10.2059C5.13933 8.38262 3.19966 6.92788 0.794485 5.88046C0.173794 5.60891 -0.136552 4.93003 0.057414 4.28994C0.25138 3.64985 0.891468 3.26192 1.55095 3.3783C4.6932 3.9408 7.91304 4.34813 11.1135 4.61968C16.5445 5.0852 20.2299 4.96882 23.1976 4.87184C25.3894 4.79425 27.2903 4.73606 29.2299 4.93003C30.8684 5.09431 32.5002 5.43975 34.1228 5.96504ZM65.4628 111.436C63.3511 113.751 61.4307 116.242 59.7272 118.884C58.0112 116.209 56.0737 113.679 53.9412 111.359C49.8183 106.849 46.2363 104.483 43.0988 102.411L43.0986 102.411L43.0791 102.398C42.0317 101.719 41.0618 101.079 40.1308 100.4C31.2471 93.9407 24.4389 83.1368 22.8096 72.876C22.0599 68.1993 21.9837 60.9766 25.4833 52.3869C26.5482 54.3795 27.9283 56.0417 29.3783 57.5327C27.4251 62.3666 26.6422 67.311 27.0769 72.2554C27.1351 72.8761 28.5122 87.2878 39.9756 95.8998C42.1182 97.5021 44.0819 98.5317 45.9697 99.5216L46.2019 99.6434L46.2092 99.6471C49.4648 101.333 52.2753 102.788 55.202 106.607C56.7254 108.571 57.9535 110.778 58.8864 113.162C58.798 113.475 58.9154 113.828 59.1977 114.016C59.3244 114.107 59.4511 114.147 59.5935 114.152C59.5845 114.152 59.5754 114.152 59.5663 114.152H59.6245C59.6141 114.152 59.6038 114.152 59.5935 114.152C59.7239 114.147 59.8484 114.105 59.959 114.036C59.9762 114.03 59.9939 114.024 60.0123 114.016C60.2908 113.905 60.4794 113.643 60.5061 113.361C62.2158 110.868 64.1321 108.516 66.2387 106.355C69.5998 102.898 72.0583 101.359 74.4104 99.8874L74.5211 99.8181L74.566 99.79C76.4113 98.6368 78.1457 97.5528 80.2237 95.6673C88.7 88.0056 90.8142 77.4732 91.3379 73.303C91.9913 68.0944 91.5069 62.8349 89.8849 57.6834C91.3786 56.1505 92.8021 54.4423 93.8883 52.3854C97.4207 61.0099 97.3463 68.2626 96.5943 72.9536C94.965 83.2144 88.1568 94.0183 79.2732 100.477C78.3297 101.151 77.3671 101.787 76.3474 102.46L76.3249 102.475C73.1826 104.551 69.6137 106.917 65.4628 111.436ZM59.8953 111.628C61.4943 109.382 63.2748 107.253 65.1913 105.288C68.6672 101.717 71.2028 100.12 73.6314 98.5902L73.7452 98.5186L73.7928 98.4889C75.5788 97.3751 77.2542 96.3303 79.2344 94.5422C87.3228 87.2297 89.3595 77.1241 89.8444 73.1284C90.4304 68.3884 90.0362 63.6025 88.6617 58.8932C88.2097 59.3269 87.7579 59.7491 87.3133 60.1644L87.3133 60.1645L87.2646 60.21L87.2378 60.2349C86.4909 60.9318 85.7659 61.6082 85.0843 62.2898C86.3274 66.5935 86.5813 71.1491 85.8293 75.5139C85.4802 77.5506 84.6461 82.3027 81.1741 86.9579C78.7108 90.2554 76.2862 91.7295 73.7258 93.2812L73.6189 93.3463C71.3239 94.7421 68.9297 96.1982 66.103 99.1778C63.9693 101.408 62.1267 103.949 60.6137 106.723C60.478 106.975 60.2064 107.13 59.9349 107.13L59.9155 107.111C59.7991 107.111 59.6633 107.072 59.5469 107.014C59.4343 106.955 59.3435 106.87 59.2771 106.77C59.2021 106.711 59.1357 106.637 59.0812 106.549C57.4713 103.6 55.4735 100.924 53.1653 98.5765C50.2946 95.667 47.9088 94.2705 45.6006 92.9321C43.079 91.458 40.6933 90.0614 38.2299 86.8998C37.2794 85.6778 34.0984 81.1778 33.2837 74.6023C32.6804 69.7062 33.6093 65.5149 34.6677 62.6142C33.8584 61.7805 32.9768 60.9622 32.0618 60.1134L32.0538 60.1059C31.5616 59.6487 31.0602 59.1829 30.5592 58.7021C28.8649 63.1255 28.2085 67.6303 28.5898 72.1196L28.5908 72.1295C28.6617 72.842 30.0228 86.5149 40.8873 94.6584C43.0015 96.249 44.98 97.277 46.9002 98.2662L47.0365 98.3376C50.2455 100.018 53.3062 101.621 56.4046 105.656C57.7959 107.464 58.9631 109.468 59.8953 111.628ZM64.978 98.111C63.043 100.13 61.3269 102.383 59.8804 104.831C58.3007 102.149 56.4171 99.6905 54.2709 97.5097C51.265 94.4846 48.6994 92.9716 46.4409 91.6397L46.3959 91.6131L46.3597 91.5919C43.8729 90.1268 41.7296 88.8641 39.4519 85.9493C38.5596 84.8049 35.5725 80.5959 34.8161 74.4084C34.3001 70.2182 34.9814 66.5826 35.8441 63.9078C37.5165 65.8942 38.6978 68.0876 38.9088 71.0531C39.0252 72.6242 38.8312 73.9238 38.6373 75.1652C38.3075 77.2406 37.9778 79.413 39.258 82.3419C40.0726 84.2234 42.536 88.7234 47.7343 89.8678C48.1804 89.9648 49.0533 90.1199 50.1589 90.1199L50.1007 90.1005C51.9433 90.1005 54.4649 89.6738 56.7925 87.8699C58.1075 86.853 59.0139 85.66 59.6381 84.4728C60.2636 85.6917 61.1833 86.922 62.5339 87.9665C64.8615 89.7704 67.3637 90.1971 69.2258 90.1971L69.1676 90.2165C70.2732 90.2165 71.146 90.0613 71.5921 89.9644C76.771 88.82 79.2538 84.3199 80.0685 82.4385C81.3486 79.5096 81.0189 77.3566 80.6892 75.2617C80.4952 74.0204 80.3012 72.7208 80.4176 71.1497C80.6552 67.9853 81.9897 65.7 83.8386 63.6073C84.8033 67.423 84.9604 71.4147 84.297 75.2424L84.2969 75.2428C83.9671 77.1634 83.1911 81.6824 79.9328 86.0269C77.644 89.0916 75.4521 90.4299 72.9112 91.9622C70.603 93.3588 68.0038 94.9493 64.978 98.111ZM35.4386 9.25234C33.2866 8.31921 31.1245 7.74327 28.9584 7.52917C27.2828 7.36346 25.6422 7.40749 23.6051 7.46215L23.2752 7.47098C20.2299 7.56797 16.4669 7.68435 10.8807 7.21883L10.8804 7.2188C9.6003 7.10242 8.32025 6.98605 7.04019 6.83089C7.60269 7.374 8.1458 7.9559 8.61132 8.57659C8.8607 8.90154 9.08064 9.21545 9.27658 9.51933C11.122 10.606 13.0608 11.4073 15.051 11.9128C17.4174 12.5141 19.1825 12.5335 21.064 12.5528L21.0692 12.5529C22.9878 12.5723 24.965 12.5923 27.4842 13.2705C29.7746 13.8983 31.9908 14.9118 34.0939 16.3242C34.4387 16.2003 34.834 16.2199 35.1653 16.3934C35.5726 16.6068 35.8442 17.0335 35.8636 17.499C35.9644 19.5294 35.7866 21.4859 35.3406 23.342C36.5957 24.0939 37.8983 24.7582 39.2386 25.3348C41.4304 26.2658 43.0791 26.6538 44.5145 26.9835C45.5425 27.2163 46.5123 27.449 47.5598 27.837C50.8184 29.0589 53.7279 31.5029 56.1912 35.1107C56.424 35.4598 56.3464 35.9447 55.9973 36.1775C55.8615 36.2745 55.7063 36.3133 55.5705 36.3133L55.5512 36.2939C55.299 36.2939 55.0662 36.1775 54.9111 35.9641C52.6223 32.6279 49.9649 30.3779 46.9972 29.2723C46.0468 28.9232 45.1546 28.7098 44.1459 28.477C42.6524 28.1279 40.9455 27.7206 38.6373 26.7507C37.3617 26.2121 36.1067 25.5803 34.9028 24.878C34.7492 25.3416 34.578 25.7981 34.3894 26.2469C33.2865 28.8901 31.904 30.4893 30.5708 32.0314L30.4907 32.1241C29.3075 33.4818 28.1825 34.7814 27.2903 36.7599C25.4777 40.8091 26.0038 44.7818 26.1815 46.1242L26.1846 46.1478C26.9411 51.7534 30.2773 54.8763 33.8269 58.1737L33.8838 58.2269C37.4157 61.5271 41.0641 64.936 41.4886 70.8397C41.6243 72.7212 41.3916 74.2147 41.1782 75.5337C40.8679 77.4927 40.6351 79.0251 41.605 81.2751C42.2644 82.788 44.2235 86.4152 48.2386 87.288C49.1502 87.482 52.3701 87.9863 55.1826 85.7945C57.6136 83.9179 58.2108 81.2285 58.3487 79.7503C58.3307 79.4948 58.3233 79.2751 58.321 79.0991C57.8308 79.0333 57.3505 78.9279 56.8702 78.773C55.7064 78.4044 54.6396 77.7837 53.7667 76.9885C52.1568 75.5143 51.1676 73.3225 51.1094 71.1307C51.1094 70.5488 51.2064 69.8117 51.7883 69.5014C52.0821 69.3494 52.3972 69.3668 52.6947 69.4568C52.9795 69.5235 53.2639 69.6745 53.5145 69.8312C54.6201 70.51 55.6093 71.3635 56.4822 72.3139C57.737 73.7009 58.9216 75.4955 59.4975 77.3507C59.5392 77.3443 59.5815 77.3399 59.6244 77.3376C59.6879 77.3341 59.7506 77.3354 59.8122 77.3411C60.3441 75.6649 61.3993 73.8836 62.8248 72.3139C63.7171 71.3441 64.7063 70.4906 65.8119 69.8117C66.2162 69.5545 66.8294 69.245 67.3711 69.4605C67.4212 69.4757 67.4705 69.4957 67.5189 69.5208C68.0426 69.773 68.1395 70.4713 68.1395 71.0338L68.1389 71.0551L68.1393 71.0828L68.1395 71.1307C68.0813 73.3225 67.0921 75.5143 65.4822 76.9885C64.6093 77.7837 63.5425 78.4044 62.3787 78.773C61.9233 78.9199 61.4678 79.0223 61.0039 79.0886C61 79.2738 60.9904 79.4996 60.9699 79.7586C61.0922 81.2159 61.6636 83.9765 64.1438 85.8911C66.9564 88.0635 70.1762 87.5786 71.0878 87.3846C75.1029 86.5118 77.062 82.8846 77.7215 81.3717C78.6913 79.1217 78.4585 77.5893 78.1482 75.6303C77.9348 74.3113 77.7021 72.7984 77.8379 70.9363C78.2646 65.0009 81.9499 61.5677 85.4995 58.2703C89.0491 54.9729 92.3853 51.8694 93.1418 46.2444L93.1443 46.225C93.3216 44.8864 93.8506 40.8906 92.0362 36.8564C91.1701 34.936 90.0847 33.6735 88.9397 32.3416L88.8357 32.2207L88.7557 32.128L88.7556 32.128L88.7545 32.1267L88.7543 32.1265C88.4674 31.7945 88.1781 31.4599 87.8898 31.1128C87.9709 31.2468 88.0411 31.3897 88.0987 31.5418C88.9715 33.8112 86.3336 36.3715 85.1504 37.3801C81.562 40.4254 76.7711 40.2896 74.2107 39.9405C72.9693 43.1797 72.8142 46.2832 72.6978 48.7078C72.5232 52.4513 72.9499 56.2531 73.978 59.9578C74.0943 60.3651 73.8616 60.7919 73.4543 60.9082C73.4155 60.9082 73.3815 60.9131 73.3476 60.9179C73.3161 60.9224 73.2847 60.9269 73.2494 60.9276C72.9237 60.9229 72.6191 60.7104 72.5232 60.3651C71.437 56.4858 70.9909 52.5483 71.1849 48.6302L71.1896 48.5383C71.3635 45.1524 71.5995 40.5578 74.5405 35.906L74.5523 35.8874C75.6115 34.22 78.7669 29.2528 83.4047 29.2142H83.4435C84.5521 29.2142 86.3504 29.5114 87.4139 30.5249C86.5291 29.3996 85.6711 28.1028 84.937 26.3435C84.7491 25.8963 84.579 25.4415 84.4267 24.9796C83.2455 25.6646 82.0161 26.2815 80.7668 26.809C78.4724 27.7841 76.8 28.1749 75.3222 28.5203L75.3221 28.5203L75.2581 28.5352C74.2301 28.768 73.3573 28.9814 72.4068 29.3305C69.4391 30.4361 66.7818 32.6861 64.493 36.0223C64.3378 36.2357 64.1051 36.3521 63.8529 36.3521L63.8335 36.3715C63.6784 36.3715 63.5426 36.3327 63.4068 36.2357C63.0577 36.0029 62.9607 35.518 63.2128 35.1689C65.6762 31.5611 68.5857 29.1171 71.8443 27.8952C72.8917 27.5072 73.8616 27.2745 74.8896 27.0417C76.3249 26.712 77.9543 26.324 80.1655 25.393C81.4779 24.8436 82.7663 24.1861 83.9929 23.449C83.5493 21.5898 83.3744 19.6297 83.4629 17.5956C83.4823 17.1301 83.7538 16.7228 84.1611 16.49C84.497 16.3141 84.8987 16.2964 85.2468 16.426C87.3365 15.0233 89.5522 13.9952 91.8421 13.3676C94.38 12.6896 96.3568 12.6694 98.2555 12.65L98.2624 12.6499C100.144 12.6306 101.928 12.6112 104.275 12.0099C106.264 11.5047 108.202 10.7041 110.046 9.61839C110.244 9.31374 110.465 8.99901 110.715 8.67317C111.2 8.05248 111.724 7.47058 112.286 6.92748C111.006 7.08265 109.726 7.21843 108.446 7.31541C102.879 7.78093 99.0965 7.66455 96.0513 7.56757L95.7212 7.55874C93.6842 7.50407 92.0436 7.46004 90.3681 7.62576C88.215 7.84482 86.066 8.4173 83.9269 9.34063C83.852 9.38267 83.7729 9.41737 83.6906 9.44405C79.2808 11.4014 74.914 14.8504 70.6417 19.768C70.1762 20.3111 69.3421 20.3693 68.799 19.9038C68.2559 19.4189 68.1977 18.6042 68.6633 18.0611C73.0428 13.0135 77.5644 9.40201 82.1727 7.25689C82.4266 6.33898 82.693 5.42544 82.9718 4.51647C82.3984 4.02353 81.7648 3.61174 81.0771 3.28112C80.0103 2.75741 78.8465 2.48586 77.6439 2.42767C77.2172 2.42767 76.8874 2.05913 76.9068 1.6324C76.9068 1.20568 77.2754 0.875938 77.7021 0.895336C79.118 0.953526 80.4564 1.28327 81.7366 1.88456C82.3484 2.17541 82.929 2.52848 83.4705 2.93574C84.1285 0.907738 84.8487 -1.09665 85.6303 -3.07512C85.033 -3.4211 84.4092 -3.7191 83.7538 -3.95403C82.7646 -4.32257 81.7172 -4.55533 80.6698 -4.65231C80.2431 -4.6911 79.9327 -5.05964 79.9715 -5.48637C80.0103 -5.91309 80.3788 -6.22344 80.8056 -6.18464C81.9888 -6.06826 83.1526 -5.81611 84.2776 -5.40878C84.9458 -5.15961 85.5942 -4.86415 86.215 -4.52241C87.0453 -6.53348 87.9398 -8.51683 88.8974 -10.47C88.1873 -10.8617 87.4573 -11.2112 86.7021 -11.5184C85.8486 -11.8482 84.9758 -12.1391 84.1029 -12.3525C83.6956 -12.4495 83.4434 -12.8762 83.5404 -13.2835C83.6374 -13.6908 84.0641 -13.943 84.4715 -13.846C85.4219 -13.6133 86.3723 -13.3029 87.284 -12.9538C88.0693 -12.6421 88.8466 -12.2744 89.5953 -11.8661C90.3846 -13.415 91.2141 -14.9444 92.0833 -16.4528C91.659 -16.7128 91.2231 -16.9495 90.7753 -17.1627C90.0965 -17.473 89.3788 -17.7446 88.6417 -17.9385C88.2344 -18.0549 87.9822 -18.4622 88.0986 -18.8696C88.215 -19.2769 88.6223 -19.529 89.0296 -19.4127C89.8443 -19.1993 90.6396 -18.9084 91.4154 -18.5592C91.9083 -18.3285 92.3955 -18.0695 92.8647 -17.7851C93.4447 -18.757 94.0414 -19.7199 94.6547 -20.6735C99.4651 -28.18 105.206 -35.0076 111.782 -41.0011C104.217 -37.8783 97.2345 -33.3782 91.2991 -27.8308C79.6619 -16.915 74.4535 -4.32705 72.1459 4.49589C72.1789 4.76611 72.1281 5.04807 71.9794 5.29846C71.8845 5.46716 71.7552 5.60721 71.6048 5.71431C71.4978 5.81261 71.3754 5.89535 71.243 5.95808C70.8745 6.11325 70.4283 6.09385 70.0792 5.89988C67.9456 4.6779 64.4542 3.20375 59.993 3.12617C55.2214 3.04858 51.4779 4.58091 49.1697 5.89988C48.549 6.24902 47.7343 6.03566 47.3852 5.41497C47.2232 5.12697 47.1823 4.79723 47.247 4.49159C44.9359 -4.3366 39.733 -16.9852 28.0655 -27.9473C22.1495 -33.5142 15.1667 -37.9948 7.58267 -41.1176C14.1581 -35.1241 19.8995 -28.2965 24.7099 -20.79C25.3313 -19.8204 25.9359 -18.8412 26.5233 -17.8527C26.9857 -18.1334 27.4622 -18.3894 27.9497 -18.6176C28.7256 -18.9667 29.5208 -19.2577 30.3355 -19.471C30.7428 -19.5874 31.1695 -19.3353 31.2665 -18.9279C31.3829 -18.5206 31.1307 -18.0939 30.7234 -17.9969C29.9863 -17.8029 29.2687 -17.5508 28.5898 -17.221C28.1506 -17.0119 27.7171 -16.7802 27.2984 -16.526C28.1713 -15.0056 29.0044 -13.464 29.7973 -11.9025C30.5517 -12.3147 31.3277 -12.6781 32.12 -12.9925C33.0316 -13.361 33.9627 -13.652 34.9325 -13.8847C35.3398 -13.9817 35.7665 -13.7296 35.8635 -13.3222C35.9605 -12.9149 35.7083 -12.4882 35.301 -12.3912C34.4088 -12.1778 33.5359 -11.8869 32.7019 -11.5571C31.9442 -11.2618 31.2036 -10.9069 30.4912 -10.5094C31.4413 -8.56555 32.3297 -6.59182 33.1554 -4.59066C33.7747 -4.93672 34.4213 -5.23782 35.0877 -5.48631C36.2127 -5.89364 37.3765 -6.16519 38.5597 -6.26218C38.9865 -6.30097 39.355 -5.99062 39.3938 -5.5639C39.4326 -5.13717 39.1222 -4.76863 38.6955 -4.72984C37.6481 -4.63286 36.6007 -4.4001 35.6114 -4.03157C34.9554 -3.79639 34.331 -3.50593 33.7332 -3.16018C34.5202 -1.16877 35.2458 0.848877 35.9093 2.89042C36.453 2.47766 37.039 2.12015 37.6675 1.8262C38.9282 1.22491 40.286 0.895161 41.702 0.836971C42.1287 0.817577 42.4778 1.14732 42.4972 1.57405C42.4972 2.00077 42.1869 2.34991 41.7601 2.3693C40.5769 2.4081 39.3938 2.69905 38.3269 3.22276C37.6306 3.55753 36.9897 3.97551 36.4107 4.47669C36.6867 5.37446 36.9507 6.27667 37.2027 7.18314C41.794 9.33102 46.2991 12.9348 50.6632 17.9646C51.1287 18.5077 51.0705 19.3417 50.5274 19.8072C49.9843 20.2727 49.1502 20.234 48.6847 19.6715C44.4356 14.7805 40.0931 11.3339 35.7077 9.37088C35.6135 9.34151 35.5233 9.30166 35.4386 9.25234ZM73.2494 60.9276L73.2603 60.9276H73.2409L73.2494 60.9276ZM27.1157 14.7641C28.9872 15.2731 30.824 16.071 32.5726 17.1579C29.9875 18.4951 25.8269 20.0033 20.967 19.3999L20.902 19.3915C18.4968 19.0814 14.9132 18.6193 12.5488 15.9473C11.6372 14.9193 11.2881 14.0076 10.8613 12.8438L10.82 12.7352C10.7179 12.4669 10.6129 12.191 10.4974 11.9061C11.857 12.5455 13.2583 13.0476 14.6825 13.4063C17.2201 14.0456 19.1774 14.0657 21.0566 14.0851L21.064 14.0852C22.9648 14.1046 24.7687 14.124 27.1157 14.7641ZM86.7599 17.2577C89.3455 18.594 93.5034 20.0994 98.3595 19.4965L98.4245 19.4881C100.83 19.178 104.413 18.7158 106.778 16.0439C107.689 14.9965 108.038 14.0848 108.465 12.9404C108.575 12.6383 108.69 12.3267 108.821 12.0035C107.463 12.6427 106.068 13.1448 104.644 13.5034C102.105 14.1431 100.166 14.1629 98.2661 14.1822L98.2624 14.1823C96.3615 14.2017 94.5577 14.2211 92.2107 14.8612C90.3273 15.3694 88.5015 16.1771 86.7599 17.2577ZM78.1093 34.1988C78.1093 35.9944 79.7075 37.4766 81.2985 37.8428C78.9686 38.6944 76.5203 38.6564 74.8508 38.4664C75.1224 37.8845 75.4521 37.3026 75.8206 36.7207L75.8244 36.7148C76.2506 36.04 77.0666 34.748 78.1918 33.5381C78.1403 33.7477 78.1114 33.9679 78.1093 34.1988ZM46.1243 60.8501L46.1151 60.85C46.4411 60.8453 46.746 60.6139 46.842 60.2876C47.9282 56.4277 48.3743 52.4707 48.1804 48.5526C48.0252 45.1776 47.7924 40.5224 44.8248 35.8285C43.7967 34.1797 40.6351 29.1754 35.9605 29.1366H35.9217C34.5058 29.1366 31.9842 29.6215 31.2665 31.4642C30.3937 33.7336 33.0316 36.294 34.2148 37.3026C37.8032 40.3479 42.5942 40.2121 45.1545 39.863C46.3959 43.1022 46.5511 46.2057 46.6674 48.6302C46.8614 52.3738 46.4153 56.1755 45.3873 59.8803C45.2709 60.2876 45.5036 60.7143 45.911 60.8307C45.9764 60.8471 46.0833 60.8496 46.1151 60.85L46.1049 60.8501H46.1243ZM41.1984 33.4881C42.3132 34.6941 43.1234 35.9763 43.5446 36.6431C43.9131 37.225 44.2235 37.8069 44.5144 38.3888C42.8546 38.5793 40.3933 38.6171 38.0541 37.7593C39.6555 37.3688 41.2752 35.9122 41.2752 34.1221C41.2732 33.901 41.2464 33.6897 41.1984 33.4881Z" fill="url(#paint0_linear_2_240)" fill-opacity="0.3"/>
<defs>
<linearGradient id="paint0_linear_2_240" x1="59.6787" y1="-46" x2="59.6787" y2="121.251" gradientUnits="userSpaceOnUse">
<stop stop-color="white"/>
<stop offset="1" stop-color="white" stop-opacity="0"/>
</linearGradient>
</defs>
</svg>
