<svg width="52" height="46" viewBox="0 0 52 46" fill="none" xmlns="http://www.w3.org/2000/svg">
<g opacity="0.5">
<path d="M17.5234 6.74683C17.5234 6.74683 15.1107 6.01306 14.6861 4.4266C14.2606 2.84279 15.9801 1 15.9801 1L17.5234 6.74771V6.74683Z" fill="white"/>
<path d="M24.107 11.2165C24.1264 12.4753 23.1231 13.5086 21.8696 13.5279C20.8284 13.5438 19.9414 12.8655 19.6533 11.9186C19.6172 11.8005 19.5318 11.7036 19.4128 11.6684H19.4093C19.3107 11.6376 19.2067 11.6543 19.1195 11.7098C18.2563 12.2524 17.1243 12.5334 16.069 12.5502C13.9673 12.5828 12.2346 10.9047 12.202 8.80469C12.1694 6.70292 13.8475 4.97289 15.9501 4.94029C16.8812 4.92532 17.8836 5.37281 18.7099 6.05989L18.746 6.08719L23.1328 9.38342L23.2499 9.47239C23.2614 9.48032 23.272 9.48825 23.2834 9.4997C23.7776 9.91107 24.0956 10.5259 24.107 11.2174V11.2165Z" fill="white"/>
<path d="M23.2937 9.50215V9.50553C23.279 9.49201 23.2655 9.48075 23.2509 9.47061L23.2937 9.50215Z" fill="white"/>
<path d="M16.1175 6.77253C16.1175 6.77253 13.1701 7.07291 12.062 5.57014C10.9521 4.06648 12.0972 1.33665 12.0972 1.33665L16.1175 6.77253Z" fill="white"/>
<path d="M17.7542 7.56615C17.6732 7.74497 17.3825 7.78637 17.1041 7.66129C16.8231 7.53444 16.6628 7.28867 16.7438 7.10986C16.8249 6.93104 17.1156 6.88876 17.3957 7.0156C17.674 7.14157 17.8352 7.38821 17.7542 7.56615Z" fill="#0D808A"/>
<path d="M23.0183 12.3564C23.0183 12.5898 22.8307 12.7783 22.5964 12.7783C22.3621 12.7783 22.1744 12.5898 22.1744 12.3564C22.1744 12.1229 22.3638 11.9344 22.5964 11.9344C22.8289 11.9344 23.0183 12.1238 23.0183 12.3564Z" fill="#0D808A"/>
<path d="M37.5492 28.7668C37.1678 29.4618 36.693 30.1031 36.1566 30.6633C36.0464 30.7796 35.9302 30.8897 35.8174 30.9998L19.3891 31.257C13.2926 31.3522 8.08836 26.7655 7.53517 20.6936C7.53165 20.6513 7.52724 20.609 7.52372 20.5667C6.98463 14.0544 10.2095 8.22305 15.2807 5.04133C14.6077 5.46327 15.0103 9.12683 15.1089 9.94163C15.4278 12.5957 16.9191 16.1888 19.4331 17.4854C22.5453 19.0913 30.5225 13.584 35.9451 18.5821C39.2933 21.667 39.2396 25.7366 37.5492 28.7668Z" fill="white"/>
<path d="M37.6831 27.456C37.6831 27.456 37.5588 28.0365 37.447 28.9482C37.055 29.6371 36.5705 30.2713 36.0252 30.8227C35.9134 30.9372 35.7953 31.0456 35.6808 31.1539H26.0141C24.787 29.4644 24.1555 27.6533 24.1555 26.0818C24.1555 22.3513 27.1777 19.3291 30.9047 19.3291C34.6317 19.3291 38.4292 23.1327 36.2992 26.1963C36.0984 26.4835 35.9424 26.7953 35.8174 27.1274C36.9017 27.2578 37.6822 27.456 37.6822 27.456H37.6831Z" fill="#129AA6"/>
<path d="M38.8582 35.5799C38.8582 35.5799 35.413 39.1315 34.9321 43.6866L32.9457 43.7174C32.9457 43.7174 31.9882 38.6902 35.2122 35.7552C35.2025 35.7525 35.1902 35.749 35.1805 35.7463C28.5273 34.1828 24.9218 29.1821 24.8637 25.4621C24.8056 21.7325 27.7803 18.6627 31.5064 18.6045C35.236 18.5464 39.0889 22.2901 37.0074 25.3864C36.811 25.6762 36.6595 25.9915 36.5406 26.3245C37.6267 26.4381 38.4107 26.624 38.4107 26.624C38.4107 26.624 37.38 31.889 38.8573 35.5799H38.8582Z" fill="white"/>
<path d="M12.3686 29.6794C12.3686 29.6794 17.741 34.7268 14.9865 43.9971L17.2574 43.9619C17.2574 43.9619 22.0018 33.3438 17.3076 29.5182C14.0061 26.828 13.7832 29.6574 13.7832 29.6574L12.3686 29.6794Z" fill="white"/>
<path d="M7.65498 19.6949C7.20925 19.9724 6.87716 20.2922 6.65695 20.7291C6.53891 20.9493 6.46492 21.1951 6.41382 21.4831C6.35481 21.7729 6.36097 22.0953 6.38387 22.4741C6.38387 22.4741 6.50191 22.1288 6.81815 21.8539C7.12909 21.5729 7.64969 21.3783 8.29185 21.484L9.09785 21.0638L8.94546 20.6833C8.89789 20.5547 8.86089 20.419 8.81685 20.2886C8.77105 20.1591 8.74726 20.0164 8.71027 19.8817C8.67151 19.7478 8.65213 19.6042 8.6257 19.4641L7.65586 19.6949H7.65498Z" fill="white"/>
<path d="M7.4285 17.7743C7.17129 17.8703 6.94138 17.9822 6.73349 18.1169C6.52737 18.2517 6.33181 18.4103 6.17326 18.5997C6.01294 18.7899 5.86231 19.0128 5.74163 19.2779C5.628 19.5431 5.51348 19.8514 5.45358 20.2152C5.45358 20.2152 5.65795 19.9139 6.06139 19.7184C6.46483 19.5149 7.03035 19.4374 7.68396 19.6893L8.62561 19.4656C8.59654 19.3273 8.57628 19.1846 8.56219 19.0401C8.54545 18.8965 8.52343 18.7547 8.51815 18.6076C8.5111 18.4605 8.49436 18.3178 8.49348 18.1698L8.48732 17.7276L7.42938 17.7769L7.4285 17.7743Z" fill="white"/>
<path d="M7.52812 15.8218C6.95115 15.9337 6.49486 16.1213 6.08084 16.4393C5.87472 16.5987 5.69326 16.7934 5.51356 17.0295C5.33298 17.2655 5.18411 17.5474 5.0282 17.8822C5.0282 17.8822 5.31272 17.6311 5.76637 17.5104C6.21826 17.3845 6.8428 17.4003 7.45853 17.7729L8.48563 17.7254L8.50061 17.2787C8.50325 17.1308 8.52263 16.9801 8.53232 16.8313C8.54113 16.6824 8.55963 16.5326 8.57989 16.3829C8.59927 16.2332 8.61424 16.0843 8.64243 15.9345L7.52812 15.8218Z" fill="white"/>
<path d="M7.89191 13.8916C7.27882 13.9233 6.7688 14.0431 6.30193 14.3003C6.0641 14.428 5.84388 14.5919 5.62894 14.7998C5.40873 15.0059 5.20348 15.2569 5 15.5617C5 15.5617 5.33209 15.36 5.82362 15.3089C6.31338 15.2534 6.96523 15.3591 7.5607 15.8251L8.6433 15.9352C8.68822 15.6366 8.749 15.3389 8.81331 15.042C8.88466 14.746 8.95336 14.4509 9.04321 14.1594L7.89191 13.8916Z" fill="white"/>
<path d="M8.48827 12.0205C7.85404 11.9685 7.29997 12.0143 6.78818 12.2081C6.27111 12.4001 5.7787 12.7349 5.28101 13.2801C5.28101 13.2801 5.65097 13.1269 6.16981 13.1445C6.69305 13.1586 7.3537 13.3524 7.92451 13.8994L9.04234 14.1592C9.1225 13.8659 9.22468 13.5787 9.32246 13.2925C9.42728 13.0071 9.53563 12.7252 9.65631 12.4486L8.48827 12.0214V12.0205Z" fill="white"/>
<path d="M9.30928 10.2507C8.6592 10.1 8.09103 10.0674 7.52992 10.1837C6.97408 10.3026 6.42266 10.5704 5.84128 11.0479C5.84128 11.0479 6.24208 10.9439 6.7847 11.0364C7.32731 11.1236 7.98973 11.4099 8.52266 12.0336L9.65635 12.4485C9.71184 12.3084 9.77967 12.1736 9.84133 12.0371C9.90299 11.9005 9.9673 11.7649 10.0378 11.6336C10.1074 11.5024 10.1699 11.3659 10.2457 11.2399L10.465 10.8558L9.30928 10.2507Z" fill="white"/>
<path d="M10.3618 8.6477C9.72054 8.36935 9.14092 8.23281 8.55162 8.26012C8.25124 8.27157 7.95879 8.32794 7.6496 8.42748C7.33513 8.52614 7.0277 8.67589 6.68857 8.87409C6.68857 8.87409 7.12372 8.82916 7.66898 9.00357C8.21512 9.17094 8.86961 9.57086 9.34264 10.2685L10.4649 10.8561C10.6173 10.6068 10.7732 10.3628 10.9388 10.1302C11.0181 10.0104 11.1079 9.90471 11.1916 9.79108C11.2735 9.67568 11.366 9.57615 11.4532 9.47044L10.3618 8.6477Z" fill="white"/>
<path d="M11.6514 7.33412C11.0806 6.87959 10.5327 6.60299 9.91964 6.49817C9.61486 6.44796 9.30303 6.44531 8.9586 6.48672C8.6318 6.53516 8.25919 6.62501 7.88922 6.77828C7.88922 6.77828 8.33847 6.80207 8.87492 7.08219C9.4149 7.35702 9.99715 7.88467 10.3935 8.67129L11.4532 9.47024C11.5396 9.3619 11.6312 9.26676 11.7228 9.17074C11.8118 9.07032 11.9042 8.98136 11.9985 8.89679C12.0901 8.80606 12.1835 8.72502 12.2777 8.65191C12.3702 8.57087 12.4636 8.50128 12.5561 8.43962L11.6523 7.33412H11.6514Z" fill="white"/>
<path d="M13.0327 6.21675C13.2256 6.89062 13.0864 6.40349 13.1287 6.55324L13.1278 6.5506L13.126 6.54708L13.1225 6.53915L13.1146 6.52329L13.0987 6.49246L13.067 6.43168L13.0018 6.31364C12.9578 6.23613 12.9111 6.16125 12.8635 6.08902C12.7684 5.94456 12.6662 5.80978 12.5561 5.68558C12.3324 5.43189 12.0875 5.24162 11.7977 5.08747C11.5017 4.92803 11.1899 4.8373 10.8155 4.78445C10.4579 4.74128 10.0386 4.74481 9.60693 4.8232C9.60693 4.8232 9.72409 4.85492 9.89938 4.9386C10.0729 5.02228 10.3063 5.16146 10.5424 5.37287C10.7776 5.58252 11.0093 5.86176 11.2031 6.20001C11.3969 6.53651 11.5581 6.93026 11.6796 7.36629L12.557 8.44007C12.6486 8.36872 12.7402 8.31587 12.8301 8.26566C12.919 8.20488 13.0062 8.17229 13.0899 8.13177C13.1754 8.08156 13.2529 8.07451 13.3295 8.03928C13.3683 8.0199 13.4035 8.02166 13.4387 8.01285L13.4907 8.00052L13.5163 7.99347L13.5286 7.98994L13.5348 7.98819H13.5383L13.54 7.98642C13.429 7.59796 13.7893 8.85496 13.2908 7.11612L13.0327 6.21675Z" fill="white"/>
<path d="M40.598 28.5809C40.598 28.5809 41.1652 30.177 42.7262 30.998C42.1034 30.0291 41.818 29.1332 41.7554 27.9185C41.7554 27.9185 42.3817 29.2257 43.7735 29.9383C43.1842 28.7914 42.9851 27.8181 43.0873 26.5082C43.0873 26.5082 43.6185 28.1228 45.1662 28.9799C44.6042 27.8621 44.4157 26.9028 44.5161 25.6194C44.5161 25.6194 45.0966 27.3794 46.809 28.1995C45.9651 27.3776 45.4084 26.1655 45.1292 24.9931C44.6843 23.1248 44.6817 21.1146 43.7999 19.4083C40.9644 13.9214 34.5226 17.0608 33.61 17.6325C34.3182 17.4105 33.3008 18.1002 34.024 18.1152C35.4334 18.1452 37.6752 17.0194 39.0194 20.1888C40.5451 23.7863 38.601 27.8797 40.9626 31.124C40.6561 30.3268 40.546 29.5463 40.598 28.5791V28.5809Z" fill="white"/>
<path d="M10.8376 25.0812C10.8376 25.0812 5.65805 29.6794 7.31145 34.7497C7.83557 36.359 8.28305 37.8513 11.5863 40.0578L13.0257 38.9277C13.0257 38.9277 9.51628 35.4368 11.8841 32.5176C13.5859 30.4202 15.2798 29.7199 15.2798 29.7199L10.8376 25.0812Z" fill="white"/>
<path d="M12.4267 10.0573C12.0048 9.50937 11.633 9.16231 10.6535 8.94737C11.0816 9.53403 11.7273 9.93835 12.4267 10.0573Z" fill="#0D808A"/>
<path d="M11.8885 10.8316C11.4736 10.3189 11.1071 9.9983 10.1576 9.84591C10.5804 10.3973 11.2084 10.7559 11.8885 10.8316Z" fill="#0D808A"/>
<path d="M11.3845 11.6278C10.9732 11.1477 10.6129 10.8526 9.70032 10.7645C10.1196 11.2833 10.7309 11.596 11.3845 11.6278Z" fill="#0D808A"/>
<path d="M10.916 12.4453C10.5152 11.9996 10.1629 11.7318 9.28375 11.7036C9.69953 12.1899 10.2888 12.4568 10.916 12.4453Z" fill="#0D808A"/>
<path d="M10.4879 13.2839C10.0915 12.8699 9.74713 12.6277 8.91382 12.662C9.32166 13.1139 9.88983 13.3376 10.4879 13.2839Z" fill="#0D808A"/>
<path d="M10.1012 14.1418C9.718 13.7613 9.38327 13.5454 8.59048 13.6371C8.99569 14.0581 9.53919 14.2387 10.1012 14.1418Z" fill="#0D808A"/>
<path d="M9.76561 15.0207C9.38859 14.6701 9.06355 14.4799 8.32449 14.6305C8.71736 15.0172 9.23444 15.1564 9.76561 15.0207Z" fill="#0D808A"/>
<path d="M9.47746 15.9169C9.29247 15.7557 9.12775 15.6368 8.91722 15.5804C8.70933 15.5258 8.45212 15.5311 8.11386 15.6359C8.50321 15.9927 8.99033 16.0922 9.47834 15.9169H9.47746Z" fill="#0D808A"/>
<path d="M9.24932 16.83C8.89609 16.5393 8.59483 16.3983 7.96765 16.6529C8.34202 16.9771 8.79744 17.0405 9.24932 16.83Z" fill="#0D808A"/>
<path d="M9.07849 17.757C8.9032 17.624 8.7508 17.5297 8.56582 17.5051C8.38172 17.4804 8.16326 17.5236 7.88843 17.676C8.25663 17.9719 8.67857 18.001 9.07849 17.757Z" fill="#0D808A"/>
<path d="M8.97454 18.6943C8.64862 18.4573 8.37643 18.3604 7.88049 18.7022C8.2346 18.97 8.61779 18.9674 8.97454 18.6943Z" fill="#0D808A"/>
<path d="M8.941 19.6374C8.62477 19.4233 8.36667 19.3493 7.9509 19.7228C8.29532 19.9633 8.64062 19.936 8.941 19.6374Z" fill="#0D808A"/>
<path d="M8.978 20.5843C8.68379 20.3888 8.44596 20.3333 8.09537 20.7323C8.25657 20.8406 8.42217 20.8829 8.56928 20.8583C8.71991 20.8336 8.8494 20.7437 8.978 20.5843Z" fill="#0D808A"/>
<path d="M9.09258 21.5289C8.80982 21.3501 8.58872 21.3114 8.32269 21.7245C8.63628 21.9209 8.90055 21.8593 9.09258 21.5289Z" fill="#0D808A"/>
<path d="M9.2767 22.4659C9.01684 22.2985 8.81776 22.2721 8.61957 22.694C8.92347 22.8711 9.14457 22.8015 9.2767 22.4659Z" fill="#0D808A"/>
<path d="M9.54348 23.3846C9.29507 23.2296 9.11449 23.2129 9.00174 23.6295C9.28274 23.7942 9.4642 23.722 9.54348 23.3846Z" fill="#0D808A"/>
<path d="M9.88263 24.2834C9.7646 24.2103 9.6721 24.168 9.59811 24.198C9.52676 24.2271 9.46774 24.3292 9.45453 24.5301C9.72584 24.6798 9.86766 24.6102 9.88263 24.2834Z" fill="#0D808A"/>
<path d="M10.3091 25.1475C10.0915 25.0031 9.95148 24.9987 9.98936 25.381C10.2386 25.5254 10.3426 25.4647 10.3091 25.1475Z" fill="#0D808A"/>
<path d="M10.8137 25.9726C10.7054 25.9048 10.6288 25.8652 10.5865 25.8898C10.5451 25.9145 10.5354 26.0052 10.5979 26.1743C10.8402 26.3082 10.9089 26.2624 10.8137 25.9726Z" fill="#0D808A"/>
<path d="M11.4023 26.7464C11.2067 26.601 11.1054 26.5966 11.2807 26.9014C11.3908 26.971 11.4613 26.993 11.4816 26.971C11.5009 26.949 11.471 26.8802 11.4032 26.7455L11.4023 26.7464Z" fill="#0D808A"/>
<path d="M16.2708 10.3524C16.2408 10.3374 16.0964 10.222 15.9396 10.1348C15.7854 10.0458 15.6295 9.98682 15.6295 9.98682C15.6295 9.98682 15.7916 10.0238 15.9695 10.0344C16.1457 10.0476 16.3325 10.0317 16.365 10.0361C16.4302 10.0432 16.4734 10.1322 16.4434 10.2326C16.4285 10.281 16.3985 10.3198 16.3677 10.3418C16.3342 10.363 16.299 10.3674 16.2699 10.3524H16.2708Z" fill="#0D808A"/>
<path d="M15.9766 10.7214C15.9572 10.6958 15.8735 10.5267 15.7722 10.3814C15.6736 10.236 15.5573 10.1136 15.5573 10.1136C15.5573 10.1136 15.5899 10.14 15.6418 10.177C15.6938 10.214 15.7669 10.2616 15.8427 10.3047C15.9951 10.3928 16.1721 10.4615 16.1986 10.4791C16.2532 10.5135 16.2541 10.613 16.1836 10.6888C16.114 10.7645 16.0153 10.7742 15.9757 10.7214H15.9766Z" fill="#0D808A"/>
<path d="M15.5502 10.9268C15.5432 10.8951 15.5423 10.7057 15.5141 10.5331C15.4877 10.356 15.4366 10.1974 15.4366 10.1974C15.4366 10.1974 15.4551 10.2353 15.4859 10.2917C15.5168 10.3472 15.5608 10.4203 15.611 10.4934C15.7114 10.6405 15.8392 10.7762 15.8568 10.8044C15.892 10.8599 15.8489 10.9488 15.7529 10.9876C15.6568 11.0263 15.5635 10.9902 15.5511 10.9268H15.5502Z" fill="#0D808A"/>
<path d="M15.0781 10.9264C15.086 10.8956 15.1662 10.7247 15.2164 10.5547C15.2684 10.3865 15.2913 10.2191 15.2913 10.2191C15.2913 10.2191 15.2913 10.3865 15.3203 10.5617C15.3468 10.7353 15.4032 10.9159 15.4067 10.9485C15.4137 11.0119 15.3371 11.0762 15.234 11.0674C15.131 11.0603 15.0623 10.989 15.0781 10.9255V10.9264Z" fill="#0D808A"/>
<path d="M14.6525 10.7213C14.6737 10.6966 14.8199 10.5777 14.9379 10.4473C15.0595 10.3169 15.152 10.1778 15.152 10.1778C15.152 10.1778 15.1335 10.2156 15.1088 10.2746C15.0842 10.3328 15.0542 10.4138 15.0295 10.4984C14.9767 10.6684 14.9503 10.8534 14.9397 10.8842C14.9185 10.9468 14.8217 10.9679 14.7309 10.9168C14.6411 10.8657 14.6111 10.7706 14.6525 10.7213Z" fill="#0D808A"/>
<path d="M14.3584 10.3525C14.3884 10.3384 14.5689 10.297 14.7345 10.2291C14.9001 10.1648 15.0428 10.0794 15.0428 10.0794C15.0428 10.0794 14.9125 10.1833 14.7936 10.3155C14.6738 10.445 14.5689 10.6009 14.5452 10.6238C14.4993 10.6696 14.4025 10.6484 14.3434 10.563C14.3152 10.5207 14.3029 10.474 14.3056 10.4361C14.31 10.3965 14.3285 10.3666 14.3575 10.3525H14.3584Z" fill="#0D808A"/>
<path d="M14.2527 9.89055C14.2853 9.89055 14.4703 9.93195 14.6464 9.94253C14.7336 9.94869 14.8209 9.94957 14.8843 9.94781C14.9486 9.94605 14.99 9.94164 14.99 9.94164C14.99 9.94164 14.9495 9.95045 14.8878 9.96807C14.8253 9.98569 14.7442 10.0121 14.6623 10.0456C14.4985 10.1099 14.3337 10.2059 14.3038 10.2156C14.2421 10.2376 14.1646 10.1751 14.1496 10.0729C14.132 9.97071 14.1893 9.88791 14.2527 9.89055Z" fill="#0D808A"/>
<path d="M14.3583 9.42978C14.3883 9.44475 14.5328 9.56014 14.6896 9.64735C14.8437 9.73632 14.9996 9.79534 14.9996 9.79534C14.9996 9.79534 14.8375 9.75834 14.6596 9.74777C14.4834 9.73456 14.2967 9.75041 14.2641 9.74601C14.1989 9.73896 14.1557 9.65 14.1857 9.54958C14.2007 9.50113 14.2306 9.46237 14.2614 9.44035C14.2949 9.41921 14.3302 9.4148 14.3592 9.42978H14.3583Z" fill="#0D808A"/>
<path d="M14.6527 9.06074C14.672 9.08628 14.7557 9.25541 14.857 9.40076C14.9557 9.5461 15.072 9.66854 15.072 9.66854C15.072 9.66854 15.0394 9.64212 14.9874 9.60512C14.9354 9.56812 14.8623 9.52055 14.7866 9.47739C14.6342 9.3893 14.4571 9.3206 14.4307 9.30298C14.3761 9.26863 14.3752 9.16909 14.4457 9.09333C14.5152 9.01758 14.6139 9.00789 14.6535 9.06074H14.6527Z" fill="#0D808A"/>
<path d="M15.0781 8.85555C15.0852 8.88726 15.0861 9.07665 15.1142 9.2493C15.1407 9.42636 15.1918 9.58491 15.1918 9.58491C15.1918 9.58491 15.1733 9.54703 15.1424 9.49066C15.1116 9.43516 15.0676 9.36205 15.0173 9.28893C14.9169 9.14183 14.7892 9.00618 14.7716 8.97799C14.7363 8.92249 14.7795 8.83352 14.8755 8.79477C14.9715 8.75601 15.0649 8.79212 15.0772 8.85555H15.0781Z" fill="#0D808A"/>
<path d="M15.5503 8.8558C15.5423 8.88663 15.4622 9.05753 15.412 9.22753C15.36 9.39578 15.3371 9.56315 15.3371 9.56315C15.3371 9.56315 15.3371 9.39578 15.308 9.22049C15.2816 9.04695 15.2252 8.86637 15.2217 8.83378C15.2147 8.77036 15.2913 8.70606 15.3944 8.71487C15.4974 8.72191 15.5661 8.79326 15.5503 8.85668V8.8558Z" fill="#0D808A"/>
<path d="M15.9766 9.06077C15.9555 9.08544 15.8092 9.20435 15.6912 9.33472C15.5696 9.46509 15.4771 9.60427 15.4771 9.60427C15.4771 9.60427 15.4956 9.5664 15.5203 9.50738C15.545 9.44924 15.5749 9.3682 15.5996 9.28363C15.6524 9.11362 15.6789 8.92864 15.6894 8.89781C15.7106 8.83527 15.8075 8.81413 15.8982 8.86522C15.9889 8.91631 16.018 9.01144 15.9766 9.06077Z" fill="#0D808A"/>
<path d="M16.2708 9.42979C16.2409 9.44389 16.0603 9.48528 15.8947 9.55311C15.7291 9.61742 15.5864 9.70286 15.5864 9.70286C15.5864 9.70286 15.7167 9.59892 15.8357 9.46679C15.9555 9.3373 16.0603 9.18138 16.0841 9.15848C16.1299 9.11268 16.2268 9.13382 16.2858 9.21926C16.3148 9.26154 16.3263 9.30823 16.3237 9.34611C16.3193 9.38487 16.3008 9.4157 16.2717 9.42979H16.2708Z" fill="#0D808A"/>
<path d="M16.3765 9.89074C16.3439 9.89074 16.1589 9.84934 15.9827 9.83877C15.8955 9.83261 15.8083 9.83173 15.7449 9.83349C15.6806 9.83525 15.6392 9.83965 15.6392 9.83965C15.6392 9.83965 15.6797 9.83084 15.7414 9.81322C15.8039 9.79561 15.885 9.76918 15.9669 9.73571C16.1307 9.6714 16.2954 9.57539 16.3254 9.5657C16.3871 9.54368 16.4646 9.60622 16.4795 9.7084C16.4972 9.81058 16.4399 9.89338 16.3765 9.89074Z" fill="#0D808A"/>
<path d="M15.3194 11.5574C15.2639 11.5609 15.2216 11.5151 15.2181 11.4596C15.2181 11.4041 15.2639 11.3618 15.3194 11.3618C15.3714 11.3618 15.4172 11.4041 15.4172 11.4596C15.4172 11.5151 15.3714 11.5574 15.3194 11.5609V11.5574ZM14.805 11.479C14.753 11.4631 14.7239 11.4076 14.7398 11.3548C14.7557 11.3028 14.8111 11.2737 14.864 11.2896C14.916 11.309 14.945 11.361 14.9292 11.4164C14.916 11.4552 14.8772 11.4852 14.8349 11.4852C14.8252 11.4852 14.8156 11.4816 14.8059 11.479H14.805ZM15.7079 11.4147C15.692 11.3627 15.7211 11.3072 15.7731 11.2905C15.825 11.2711 15.8805 11.3002 15.8973 11.3521C15.914 11.4041 15.8876 11.4596 15.8356 11.4763C15.8259 11.4799 15.8127 11.4825 15.803 11.4825C15.7643 11.4825 15.7246 11.4534 15.7088 11.4138L15.7079 11.4147ZM14.339 11.2447C14.2932 11.2121 14.2835 11.1504 14.3161 11.1081C14.3487 11.0623 14.4103 11.0526 14.4535 11.0852C14.4993 11.1178 14.509 11.1795 14.4764 11.2227C14.457 11.2482 14.428 11.2649 14.398 11.2649C14.3786 11.2649 14.3557 11.2588 14.3399 11.2456L14.339 11.2447ZM16.1606 11.2191C16.1281 11.1733 16.1377 11.1117 16.18 11.0791C16.2258 11.0465 16.2875 11.0562 16.3201 11.102C16.3527 11.1443 16.3395 11.2059 16.2972 11.2385C16.2813 11.2517 16.2584 11.2579 16.239 11.2579C16.21 11.2579 16.18 11.2447 16.1606 11.2191ZM13.9708 10.8765C13.9382 10.8342 13.9444 10.7725 13.9902 10.7399C14.036 10.7073 14.0941 10.717 14.1276 10.7628V10.7593C14.1602 10.8051 14.1505 10.8668 14.1082 10.8994C14.0888 10.9126 14.0694 10.9188 14.0492 10.9188C14.0201 10.9188 13.9875 10.9029 13.9708 10.8765ZM16.5289 10.8932C16.483 10.8606 16.4734 10.799 16.5059 10.7532C16.5385 10.7109 16.6002 10.7012 16.6425 10.7338C16.6883 10.7628 16.698 10.8245 16.6654 10.8703C16.646 10.8967 16.6161 10.9091 16.5843 10.9091C16.565 10.9091 16.5456 10.9055 16.5289 10.8932ZM13.7294 10.414C13.7136 10.362 13.7391 10.3065 13.7911 10.2898C13.8431 10.274 13.8986 10.2995 13.9179 10.3515C13.9338 10.4034 13.9047 10.4589 13.8528 10.4783C13.8431 10.4818 13.8334 10.4818 13.8237 10.4818C13.7814 10.4818 13.7426 10.4554 13.7294 10.4131V10.414ZM16.7764 10.4695C16.7244 10.4528 16.698 10.3982 16.7147 10.3453C16.7306 10.2933 16.7861 10.2643 16.8389 10.2801C16.8909 10.2995 16.92 10.355 16.9041 10.407C16.8874 10.4457 16.8521 10.4722 16.8099 10.4722C16.8002 10.4722 16.7905 10.4722 16.7773 10.4686L16.7764 10.4695ZM13.6449 9.89958H13.6484C13.6449 9.84761 13.6907 9.8018 13.7426 9.8018C13.7981 9.8018 13.8439 9.84409 13.8439 9.89958C13.8439 9.95508 13.8017 10.0009 13.7462 10.0009C13.6907 10.0009 13.6484 9.95508 13.6457 9.89958H13.6449ZM16.7861 9.89254V9.88637V9.87315C16.7861 9.82118 16.8283 9.77538 16.8838 9.77538C16.9358 9.77185 16.9816 9.81766 16.9816 9.87315V9.88285V9.89254C16.9816 9.94451 16.9393 9.99031 16.8838 9.99031C16.8283 9.99031 16.7861 9.94451 16.7861 9.89254ZM13.7884 9.50848C13.7365 9.49262 13.7074 9.43712 13.7233 9.38427C13.7391 9.3323 13.7946 9.30587 13.8501 9.32261C13.8986 9.33846 13.9285 9.39396 13.9118 9.44681C13.8986 9.4891 13.8598 9.51552 13.8175 9.51552C13.8078 9.51552 13.7981 9.512 13.7884 9.50935V9.50848ZM16.7077 9.42039C16.6909 9.36842 16.7174 9.31292 16.7693 9.29618C16.8213 9.2768 16.8768 9.30587 16.8962 9.35784C16.912 9.40982 16.883 9.46531 16.8345 9.48205C16.8213 9.48557 16.8116 9.48821 16.8019 9.48821C16.7596 9.48821 16.7209 9.46179 16.7077 9.41951V9.42039ZM13.9805 9.05835C13.9347 9.02575 13.925 8.96409 13.9576 8.91829C13.9902 8.87601 14.0518 8.86632 14.0941 8.89539C14.1399 8.92798 14.1496 8.98964 14.117 9.03545C14.0976 9.06187 14.0686 9.07421 14.0386 9.07421C14.0192 9.07421 13.9963 9.06803 13.9796 9.05835H13.9805ZM16.4963 9.01606V9.01254C16.4637 8.97026 16.4734 8.9086 16.5156 8.87601C16.5614 8.84342 16.6196 8.8531 16.6531 8.89539C16.6856 8.94119 16.6786 9.00285 16.6337 9.03545C16.6169 9.04866 16.5949 9.05482 16.5747 9.05482C16.5456 9.05482 16.5156 9.03897 16.4963 9.01606ZM14.3038 8.6875C14.2712 8.64169 14.2809 8.58003 14.3231 8.55097C14.3689 8.51837 14.4306 8.52454 14.4632 8.57034C14.4958 8.61262 14.4861 8.67428 14.4403 8.70688C14.4236 8.72009 14.4042 8.72626 14.3813 8.72626C14.3522 8.72626 14.3223 8.71305 14.3029 8.6875H14.3038ZM16.1668 8.69367C16.121 8.66107 16.1113 8.59941 16.1439 8.55361C16.1765 8.51132 16.2382 8.50163 16.2804 8.5307C16.3262 8.56329 16.3359 8.62496 16.3033 8.67076C16.2875 8.69719 16.2549 8.70952 16.2249 8.70952C16.2056 8.70952 16.1827 8.70336 16.1659 8.69367H16.1668ZM14.7231 8.43293C14.7072 8.38095 14.7327 8.32546 14.7847 8.30873C14.8367 8.28935 14.8922 8.31841 14.9116 8.37038C14.9283 8.42235 14.8984 8.47785 14.8464 8.49459C14.8367 8.49811 14.827 8.50076 14.8173 8.50076C14.775 8.50076 14.7363 8.47433 14.7231 8.43204V8.43293ZM15.7563 8.48842C15.7044 8.47169 15.6753 8.41707 15.6911 8.36422C15.707 8.31224 15.7625 8.28318 15.8153 8.29903C15.8673 8.31489 15.8964 8.37039 15.8805 8.42324C15.8673 8.46552 15.8286 8.49194 15.7863 8.49194C15.7766 8.49194 15.7669 8.49195 15.7572 8.48842H15.7563ZM15.2023 8.32194C15.2023 8.26644 15.2445 8.22416 15.3 8.22416C15.3555 8.22064 15.3978 8.26644 15.3978 8.31841C15.4013 8.37391 15.3555 8.41971 15.3 8.41971C15.2481 8.41971 15.2023 8.37743 15.2023 8.32194Z" fill="#0D808A"/>
<path d="M32.8198 22.3403C32.7167 22.1474 32.4851 22.017 32.2736 22.0725C32.0684 22.1262 31.9442 22.3191 31.8561 22.5182C31.9407 22.0822 32.0023 21.7281 32.0023 21.6188C32.0023 21.27 31.7196 20.9864 31.3699 20.9864C31.0202 20.9864 30.7374 21.2691 30.7374 21.6188C30.7374 21.7281 30.7991 22.0822 30.8836 22.5182C30.7955 22.3191 30.6705 22.1262 30.4661 22.0725C30.2547 22.017 30.023 22.1474 29.9199 22.3403C29.8169 22.5332 29.8257 22.771 29.8988 22.9771C29.9719 23.1833 30.1023 23.3638 30.2379 23.5356C30.5022 23.8712 30.792 24.1866 31.0924 24.4905C31.0131 24.1646 30.8942 23.6343 30.8942 23.6343C30.8942 23.6343 31.0668 23.9091 31.2254 24.1672C31.2333 24.1795 31.2404 24.1919 31.2474 24.2033C31.2606 24.0826 31.2739 23.954 31.2879 23.8272C31.3293 23.4422 31.3699 23.0846 31.3699 23.0846C31.3699 23.0846 31.4095 23.4431 31.4518 23.8272C31.4659 23.954 31.4791 24.0826 31.4923 24.2033C31.5002 24.191 31.5073 24.1795 31.5143 24.1672C31.6729 23.9091 31.8455 23.6343 31.8455 23.6343C31.8455 23.6343 31.7266 24.1646 31.6473 24.4905C31.9477 24.1857 32.2375 23.8712 32.5018 23.5356C32.6374 23.3638 32.7678 23.1833 32.8409 22.9771C32.914 22.771 32.9229 22.5332 32.8198 22.3403Z" fill="#0D808A"/>
<path d="M32.8198 27.4834C32.7167 27.6763 32.4851 27.8066 32.2736 27.7511C32.0684 27.6974 31.9442 27.5045 31.8561 27.3054C31.9407 27.7415 32.0023 28.0956 32.0023 28.2048C32.0023 28.5536 31.7196 28.8373 31.3699 28.8373C31.0202 28.8373 30.7374 28.5545 30.7374 28.2048C30.7374 28.0956 30.7991 27.7415 30.8836 27.3054C30.7955 27.5045 30.6705 27.6974 30.4661 27.7511C30.2547 27.8066 30.023 27.6763 29.9199 27.4834C29.8169 27.2905 29.8257 27.0526 29.8988 26.8465C29.9719 26.6404 30.1023 26.4598 30.2379 26.288C30.5022 25.9524 30.792 25.637 31.0924 25.3331C31.0131 25.6591 30.8942 26.1894 30.8942 26.1894C30.8942 26.1894 31.0668 25.9145 31.2254 25.6564C31.2333 25.6441 31.2404 25.6318 31.2474 25.6203C31.2606 25.741 31.2739 25.8696 31.2879 25.9964C31.3293 26.3814 31.3699 26.739 31.3699 26.739C31.3699 26.739 31.4095 26.3805 31.4518 25.9964C31.4659 25.8696 31.4791 25.741 31.4923 25.6203C31.5002 25.6326 31.5073 25.6441 31.5143 25.6564C31.6729 25.9145 31.8455 26.1894 31.8455 26.1894C31.8455 26.1894 31.7266 25.6591 31.6473 25.3331C31.9477 25.6379 32.2375 25.9524 32.5018 26.288C32.6374 26.4598 32.7678 26.6404 32.8409 26.8465C32.914 27.0526 32.9229 27.2905 32.8198 27.4834Z" fill="#0D808A"/>
<path d="M33.9402 26.3623C34.1331 26.2593 34.2635 26.0276 34.208 25.8162C34.1543 25.6109 33.9614 25.4867 33.7623 25.3986C34.1983 25.4832 34.5524 25.5449 34.6617 25.5449C35.0114 25.5449 35.2941 25.2621 35.2941 24.9124C35.2941 24.5627 35.0114 24.2799 34.6617 24.2799C34.5524 24.2799 34.1983 24.3416 33.7623 24.4262C33.9614 24.3381 34.1543 24.213 34.208 24.0086C34.2635 23.7972 34.1331 23.5655 33.9402 23.4625C33.7473 23.3594 33.5095 23.3682 33.3034 23.4413C33.0972 23.5144 32.9166 23.6448 32.7449 23.7805C32.4093 24.0447 32.0939 24.3345 31.79 24.6349C32.1159 24.5556 32.6462 24.4367 32.6462 24.4367C32.6462 24.4367 32.3714 24.6094 32.1133 24.7679C32.101 24.7759 32.0886 24.7829 32.0772 24.79C32.1979 24.8032 32.3265 24.8164 32.4533 24.8305C32.8382 24.8719 33.1959 24.9124 33.1959 24.9124C33.1959 24.9124 32.8374 24.952 32.4533 24.9943C32.3265 25.0084 32.1979 25.0216 32.0772 25.0348C32.0895 25.0428 32.101 25.0498 32.1133 25.0569C32.3714 25.2154 32.6462 25.3881 32.6462 25.3881C32.6462 25.3881 32.1159 25.2691 31.79 25.1899C32.0948 25.4902 32.4093 25.7801 32.7449 26.0443C32.9166 26.18 33.0972 26.3103 33.3034 26.3835C33.5095 26.4566 33.7473 26.4654 33.9402 26.3623Z" fill="#0D808A"/>
<path d="M28.7968 26.3623C28.6039 26.2593 28.4735 26.0276 28.529 25.8162C28.5828 25.6109 28.7757 25.4867 28.9747 25.3986C28.5387 25.4832 28.1846 25.5449 28.0754 25.5449C27.7257 25.5449 27.4429 25.2621 27.4429 24.9124C27.4429 24.5627 27.7257 24.2799 28.0754 24.2799C28.1846 24.2799 28.5387 24.3416 28.9747 24.4262C28.7757 24.3381 28.5828 24.213 28.529 24.0086C28.4735 23.7972 28.6039 23.5655 28.7968 23.4625C28.9897 23.3594 29.2276 23.3682 29.4346 23.4413C29.6416 23.5144 29.8213 23.6448 29.993 23.7805C30.3286 24.0447 30.644 24.3345 30.9479 24.6349C30.622 24.5556 30.0917 24.4367 30.0917 24.4367C30.0917 24.4367 30.3665 24.6094 30.6246 24.7679C30.637 24.7759 30.6493 24.7829 30.6607 24.79C30.5401 24.8032 30.4114 24.8164 30.2846 24.8305C29.8997 24.8719 29.542 24.9124 29.542 24.9124C29.542 24.9124 29.9005 24.952 30.2846 24.9943C30.4114 25.0084 30.5401 25.0216 30.6607 25.0348C30.6484 25.0428 30.637 25.0498 30.6246 25.0569C30.3665 25.2154 30.0917 25.3881 30.0917 25.3881C30.0917 25.3881 30.622 25.2691 30.9479 25.1899C30.6431 25.4902 30.3286 25.7801 29.993 26.0443C29.8213 26.18 29.6407 26.3103 29.4346 26.3835C29.2284 26.4566 28.9906 26.4654 28.7968 26.3623Z" fill="#0D808A"/>
<path d="M31.5989 24.9115C31.5989 25.0384 31.4958 25.1414 31.369 25.1414C31.2421 25.1414 31.1391 25.0384 31.1391 24.9115C31.1391 24.7847 31.2421 24.6816 31.369 24.6816C31.4958 24.6816 31.5989 24.7847 31.5989 24.9115Z" fill="#0D808A"/>
<path d="M33.9446 22.5047C33.9314 22.5355 33.9067 22.5725 33.8891 22.591L33.8697 22.6086L33.831 22.6421L33.757 22.7038L33.6099 22.8236L33.3157 23.0605L32.7263 23.5309L33.1571 22.9125L33.3703 22.6025L33.4751 22.4474L33.5262 22.3708L33.5491 22.3347L33.5597 22.3171C33.5517 22.3241 33.5359 22.3479 33.5323 22.3664C33.5702 22.2528 33.6935 22.1911 33.8072 22.229C33.9208 22.2669 33.9825 22.3902 33.9446 22.5038V22.5047Z" fill="#0D808A"/>
<path d="M28.8453 22.5047C28.8585 22.5356 28.8832 22.5726 28.9008 22.5911L28.9202 22.6087L28.9589 22.6421L29.0329 22.7038L29.18 22.8236L29.4742 23.0606L30.0635 23.5309L29.6328 22.9126L29.4196 22.6025L29.3148 22.4475L29.2637 22.3708L29.2408 22.3347L29.2302 22.3171C29.2382 22.3241 29.254 22.3479 29.2575 22.3664C29.2197 22.2528 29.0963 22.1911 28.9827 22.229C28.8691 22.2669 28.8074 22.3902 28.8453 22.5038V22.5047Z" fill="#0D808A"/>
<path d="M28.8453 27.3189C28.8585 27.288 28.8832 27.251 28.9008 27.2325L28.9202 27.2149L28.9589 27.1814L29.0329 27.1198L29.18 27L29.4742 26.763L30.0635 26.2926L29.6328 26.911L29.4196 27.2211L29.3148 27.3761L29.2637 27.4528L29.2408 27.4889L29.2302 27.5065C29.2382 27.4994 29.254 27.4757 29.2575 27.4572C29.2197 27.5708 29.0963 27.6325 28.9827 27.5946C28.8691 27.5567 28.8074 27.4334 28.8453 27.3197V27.3189Z" fill="#0D808A"/>
<path d="M33.9446 27.3189C33.9314 27.288 33.9067 27.251 33.8891 27.2325L33.8697 27.2149L33.831 27.1814L33.757 27.1198L33.6099 27L33.3157 26.763L32.7263 26.2926L33.1571 26.911L33.3703 27.2211L33.4751 27.3761L33.5262 27.4527L33.5491 27.4889L33.5597 27.5065C33.5517 27.4994 33.5359 27.4757 33.5323 27.4572C33.5702 27.5708 33.6935 27.6325 33.8072 27.5946C33.9208 27.5567 33.9825 27.4334 33.9446 27.3197V27.3189Z" fill="#0D808A"/>
<path d="M30.9268 29.7412C30.8387 29.7315 30.77 29.6531 30.7806 29.565C30.7867 29.4743 30.8686 29.4082 30.9567 29.4152C31.0475 29.4249 31.1135 29.5033 31.103 29.594C31.0968 29.6786 31.0246 29.7412 30.9435 29.7412H30.9268ZM31.6429 29.5914C31.6332 29.5033 31.702 29.4249 31.79 29.4152C31.8808 29.4055 31.9592 29.4743 31.9689 29.5615C31.975 29.6531 31.9098 29.7306 31.8218 29.7412H31.8059C31.7213 29.7412 31.6491 29.676 31.6429 29.5914ZM30.0468 29.5782C29.9622 29.5553 29.9103 29.4637 29.9358 29.3765C29.9587 29.2919 30.0494 29.2399 30.1349 29.2655C30.223 29.2884 30.2714 29.3791 30.2485 29.4646C30.2291 29.5394 30.1639 29.5852 30.0917 29.5852C30.075 29.5852 30.0626 29.5817 30.0459 29.5791L30.0468 29.5782ZM32.5 29.4646C32.4736 29.3765 32.5229 29.2884 32.611 29.2628C32.6956 29.2364 32.7872 29.2893 32.8127 29.3738C32.8356 29.4619 32.7872 29.5527 32.6991 29.5756C32.6859 29.5791 32.67 29.5817 32.6533 29.5817C32.5846 29.5817 32.5194 29.5359 32.5 29.4646ZM29.2126 29.2558C29.1316 29.217 29.099 29.1193 29.1377 29.0373C29.18 28.9589 29.2778 28.9237 29.3562 28.966C29.4372 29.0047 29.4698 29.1025 29.4311 29.1844C29.402 29.2399 29.343 29.2725 29.2848 29.2725C29.2619 29.2725 29.2355 29.269 29.2135 29.2558H29.2126ZM33.3148 29.1774C33.2761 29.099 33.3087 29.0012 33.3897 28.9589C33.4681 28.9202 33.5659 28.9528 33.6082 29.0338C33.6469 29.1149 33.6143 29.21 33.5333 29.2523C33.5104 29.262 33.4875 29.2681 33.4619 29.2681C33.4029 29.2681 33.3448 29.2355 33.3148 29.1774ZM28.4506 28.7863C28.3793 28.7308 28.3661 28.6295 28.4216 28.5581C28.4735 28.4868 28.5784 28.4701 28.6497 28.5255C28.7211 28.581 28.7343 28.6823 28.6788 28.7537C28.6497 28.796 28.6004 28.8189 28.5484 28.8189C28.5158 28.8189 28.4797 28.8092 28.4506 28.7863ZM34.0645 28.7475C34.0125 28.6762 34.0257 28.5749 34.0971 28.5194C34.1684 28.4639 34.2732 28.4806 34.3252 28.552C34.3807 28.6233 34.364 28.7246 34.2961 28.7801C34.2635 28.803 34.2309 28.8127 34.1948 28.8127C34.1464 28.8127 34.0971 28.7898 34.0645 28.7475ZM27.7891 28.1838C27.731 28.1186 27.7336 28.0146 27.7988 27.9521C27.8675 27.894 27.9679 27.8966 28.0305 27.9653C28.0921 28.0305 28.086 28.1318 28.0208 28.1935C27.9882 28.2225 27.9494 28.2357 27.9098 28.2357C27.8675 28.2357 27.8217 28.2199 27.7891 28.1838ZM34.7225 28.1873C34.6573 28.1256 34.6538 28.0243 34.7128 27.9556C34.7744 27.8904 34.8757 27.8869 34.9445 27.9459C35.0096 28.0076 35.0158 28.1124 34.9541 28.1776C34.9216 28.2137 34.8793 28.2296 34.8335 28.2296C34.7947 28.2296 34.7551 28.2164 34.7225 28.1873ZM27.2483 27.4738C27.2024 27.3954 27.2253 27.2941 27.3002 27.2492C27.3786 27.1998 27.4799 27.2227 27.5248 27.3011C27.5742 27.376 27.5513 27.4773 27.4729 27.5231C27.4464 27.5425 27.4174 27.5495 27.3883 27.5495C27.3328 27.5495 27.2808 27.5231 27.2483 27.4747V27.4738ZM35.2695 27.5161C35.1911 27.4676 35.1682 27.369 35.2175 27.2914C35.2633 27.2166 35.3638 27.1901 35.4421 27.2395C35.517 27.2879 35.5399 27.3866 35.4941 27.4641C35.4615 27.5134 35.4096 27.5425 35.3541 27.5425C35.325 27.5425 35.295 27.5328 35.2695 27.5161ZM26.8475 26.6722C26.8149 26.5876 26.8571 26.4925 26.9417 26.4608C27.0263 26.4282 27.1214 26.4705 27.154 26.555C27.1866 26.6361 27.1443 26.7312 27.0597 26.7638C27.0404 26.7735 27.021 26.777 27.0007 26.777C26.9355 26.777 26.8739 26.7383 26.8475 26.6731V26.6722ZM35.6835 26.7568C35.5989 26.7242 35.5567 26.6299 35.5893 26.5453C35.6218 26.4608 35.7161 26.4185 35.8015 26.4511C35.8826 26.4837 35.9258 26.5779 35.8923 26.6625C35.8659 26.7277 35.8042 26.7664 35.739 26.7664C35.7196 26.7664 35.7002 26.7629 35.6835 26.7568ZM26.6026 25.8125C26.5858 25.7244 26.6449 25.6398 26.7329 25.6231C26.821 25.6037 26.9056 25.6618 26.9223 25.7499C26.9382 25.8406 26.88 25.9261 26.792 25.9419C26.7823 25.9419 26.7726 25.9455 26.7629 25.9455C26.688 25.9455 26.6158 25.89 26.6035 25.8116L26.6026 25.8125ZM35.9469 25.9323C35.8588 25.9155 35.8007 25.831 35.8165 25.7429C35.8324 25.6513 35.9178 25.5958 36.0059 25.6125C36.094 25.6284 36.1521 25.7138 36.1363 25.8019C36.1231 25.8803 36.0517 25.9358 35.9768 25.9358C35.9672 25.9358 35.9575 25.9358 35.9478 25.9323H35.9469ZM26.518 24.9228C26.518 24.832 26.5929 24.7598 26.681 24.7598C26.7717 24.7563 26.8439 24.8312 26.8439 24.9228C26.8439 25.0109 26.7726 25.0857 26.681 25.0857C26.5929 25.0857 26.518 25.0109 26.518 24.9228ZM35.8923 24.9131V24.9034V24.8937C35.8923 24.8021 35.9636 24.7307 36.0552 24.7307C36.146 24.7272 36.2182 24.8021 36.2182 24.8937V24.9034V24.9131C36.2182 25.0012 36.1468 25.076 36.0552 25.076C35.9671 25.076 35.8923 25.0012 35.8923 24.9131ZM26.7303 24.2225C26.6422 24.2057 26.5841 24.1185 26.5999 24.0304C26.6158 23.9424 26.7012 23.8842 26.7893 23.9001C26.8774 23.9168 26.9355 24.0014 26.9197 24.0895C26.9065 24.1679 26.8386 24.2234 26.7602 24.2234H26.7312L26.7303 24.2225ZM35.8139 24.0622C35.7945 23.9741 35.8526 23.8895 35.9407 23.8728C36.0323 23.8534 36.1169 23.9115 36.1328 23.9996C36.1486 24.0877 36.0905 24.1723 36.0024 24.1916H35.9733C35.8949 24.1916 35.8262 24.1397 35.8139 24.0613V24.0622ZM26.9355 23.3812C26.851 23.3486 26.8087 23.2544 26.8413 23.1698C26.8739 23.0853 26.9681 23.043 27.0527 23.0756C27.1337 23.1082 27.1769 23.2024 27.147 23.287C27.1205 23.3522 27.0589 23.3909 26.9937 23.3909C26.9743 23.3909 26.9549 23.3874 26.9347 23.3812H26.9355ZM35.5822 23.2606C35.5496 23.176 35.5884 23.0817 35.6738 23.0492C35.7584 23.0166 35.8526 23.0588 35.8852 23.1399C35.9178 23.2244 35.8755 23.3196 35.7945 23.3522C35.7751 23.3619 35.7557 23.3654 35.7328 23.3654C35.6677 23.3654 35.606 23.3266 35.5831 23.2614L35.5822 23.2606ZM27.2932 22.5929C27.2148 22.5444 27.1919 22.4458 27.2377 22.3682C27.2861 22.2934 27.3848 22.2669 27.4623 22.3163C27.5372 22.3621 27.5636 22.4634 27.5143 22.5382C27.4852 22.5902 27.4297 22.6166 27.3777 22.6166C27.3487 22.6166 27.3187 22.6105 27.2932 22.5937V22.5929ZM35.2078 22.5145C35.1594 22.4396 35.1814 22.3383 35.2598 22.2898C35.3347 22.244 35.436 22.2669 35.4818 22.3418H35.4853C35.5311 22.4202 35.5082 22.5206 35.4333 22.5664C35.4043 22.5823 35.3752 22.5929 35.3453 22.5929C35.2898 22.5929 35.2378 22.5638 35.2087 22.5145H35.2078ZM27.7891 21.8829C27.7204 21.8239 27.7178 21.7199 27.7759 21.6547C27.8376 21.586 27.9389 21.5834 28.0076 21.6415C28.0727 21.7032 28.0789 21.8045 28.0173 21.8732C27.9847 21.9093 27.9424 21.9252 27.8966 21.9252C27.8578 21.9252 27.8182 21.9119 27.7891 21.8829ZM34.7031 21.8538C34.6414 21.7851 34.6441 21.6847 34.7093 21.6221C34.778 21.5605 34.8784 21.5631 34.9409 21.6318C35.0026 21.697 34.9964 21.8009 34.9312 21.8635C34.9022 21.8899 34.8599 21.9058 34.8203 21.9058C34.778 21.9058 34.7322 21.8864 34.7031 21.8538ZM28.4048 21.2768C28.3493 21.2055 28.3626 21.1042 28.4339 21.0487C28.5053 20.9932 28.6101 21.0099 28.6656 21.0813C28.7176 21.1526 28.7043 21.2539 28.633 21.3094C28.6039 21.3323 28.5678 21.342 28.5352 21.342C28.4868 21.342 28.4374 21.3191 28.4048 21.2768ZM34.0803 21.2927C34.009 21.2372 33.9958 21.1333 34.0512 21.0645C34.1032 20.9897 34.208 20.9765 34.2794 21.032C34.3507 21.0839 34.364 21.1887 34.312 21.2601C34.2794 21.3024 34.2309 21.3253 34.1816 21.3253C34.1455 21.3253 34.1103 21.3121 34.0803 21.2927ZM29.1219 20.7941C29.0831 20.7131 29.1157 20.6144 29.1932 20.5757C29.2743 20.5334 29.3729 20.566 29.4152 20.647C29.454 20.728 29.4214 20.8267 29.3403 20.8655C29.3174 20.8787 29.2919 20.8822 29.269 20.8822C29.2108 20.8822 29.1518 20.8496 29.1228 20.7941H29.1219ZM33.3703 20.8531C33.2919 20.8144 33.2593 20.7166 33.299 20.6347C33.3377 20.5563 33.4355 20.521 33.5174 20.5633C33.5958 20.6021 33.6311 20.6999 33.5888 20.7818C33.5624 20.8373 33.5042 20.8725 33.4452 20.8725C33.4188 20.8725 33.3959 20.8663 33.3703 20.8531ZM29.9164 20.4523C29.89 20.3642 29.9428 20.2735 30.0274 20.2506C30.1155 20.2242 30.2036 20.2735 30.2291 20.3616C30.2556 20.4462 30.2027 20.5378 30.1181 20.5633C30.1023 20.5668 30.0891 20.5695 30.0723 20.5695C30.001 20.5695 29.9358 20.5237 29.9155 20.4523H29.9164ZM32.5916 20.5563C32.5071 20.5298 32.4551 20.4391 32.4806 20.3546C32.5036 20.2665 32.5943 20.218 32.6797 20.2409C32.7678 20.2673 32.8198 20.3546 32.7942 20.4426C32.7749 20.514 32.7097 20.5598 32.6374 20.5598C32.6216 20.5598 32.6084 20.5598 32.5916 20.5563ZM30.7603 20.2603C30.7506 20.1722 30.8158 20.0938 30.9074 20.0841C30.9955 20.0744 31.0765 20.1431 31.0836 20.2312C31.0933 20.3193 31.0281 20.4004 30.9365 20.4074C30.9365 20.4074 30.9268 20.4109 30.9206 20.4109C30.8396 20.4109 30.7673 20.3457 30.7612 20.2612L30.7603 20.2603ZM31.7733 20.4065C31.6826 20.3968 31.6165 20.3184 31.6236 20.2268C31.6297 20.1387 31.7116 20.0736 31.7997 20.0806C31.8913 20.0903 31.9565 20.1687 31.9495 20.2568C31.9398 20.3413 31.8711 20.4065 31.7865 20.4065H31.7733Z" fill="#0D808A"/>
<path d="M11.8549 12.8743C11.8038 12.8743 11.7615 12.8329 11.7615 12.781C11.7615 12.729 11.8029 12.6876 11.8549 12.6876C11.9069 12.6876 11.9483 12.729 11.9483 12.781C11.9483 12.8329 11.9069 12.8743 11.8549 12.8743Z" fill="#0D808A"/>
<path d="M11.3422 14.1498C11.248 14.1498 11.1714 14.0732 11.1714 13.9789C11.1714 13.8847 11.248 13.808 11.3422 13.808C11.4365 13.808 11.5131 13.8847 11.5131 13.9789C11.5131 14.0732 11.4365 14.1498 11.3422 14.1498Z" fill="#0D808A"/>
<path d="M10.9537 15.4533C10.826 15.4533 10.7221 15.3493 10.7221 15.2216C10.7221 15.0939 10.826 14.9899 10.9537 14.9899C11.0815 14.9899 11.1854 15.0939 11.1854 15.2216C11.1854 15.3493 11.0815 15.4533 10.9537 15.4533Z" fill="#0D808A"/>
<path d="M10.6921 16.7722C10.5415 16.7722 10.4191 16.6498 10.4191 16.4992C10.4191 16.3485 10.5415 16.2261 10.6921 16.2261C10.8428 16.2261 10.9652 16.3485 10.9652 16.4992C10.9652 16.6498 10.8428 16.7722 10.6921 16.7722Z" fill="#0D808A"/>
<path d="M10.5583 18.0962C10.7247 18.0962 10.8596 17.9614 10.8596 17.795C10.8596 17.6286 10.7247 17.4937 10.5583 17.4937C10.392 17.4937 10.2571 17.6286 10.2571 17.795C10.2571 17.9614 10.392 18.0962 10.5583 18.0962Z" fill="#0D808A"/>
<path d="M10.5539 19.4163C10.3786 19.4163 10.2359 19.2736 10.2359 19.0983C10.2359 18.923 10.3786 18.7803 10.5539 18.7803C10.7292 18.7803 10.8719 18.923 10.8719 19.0983C10.8719 19.2736 10.7292 19.4163 10.5539 19.4163Z" fill="#0D808A"/>
<path d="M10.6824 20.7202C10.5027 20.7202 10.3574 20.5749 10.3574 20.3952C10.3574 20.2155 10.5027 20.0702 10.6824 20.0702C10.8621 20.0702 11.0075 20.2155 11.0075 20.3952C11.0075 20.5749 10.8621 20.7202 10.6824 20.7202Z" fill="#0D808A"/>
<path d="M10.9433 21.9914C10.7671 21.9914 10.6244 21.8487 10.6244 21.6725C10.6244 21.4963 10.7671 21.3536 10.9433 21.3536C11.1194 21.3536 11.2621 21.4963 11.2621 21.6725C11.2621 21.8487 11.1194 21.9914 10.9433 21.9914Z" fill="#0D808A"/>
<path d="M11.3326 23.219C11.1644 23.219 11.0278 23.0825 11.0278 22.9142C11.0278 22.746 11.1644 22.6094 11.3326 22.6094C11.5009 22.6094 11.6374 22.746 11.6374 22.9142C11.6374 23.0825 11.5009 23.219 11.3326 23.219Z" fill="#0D808A"/>
<path d="M11.8453 24.3914C11.999 24.3914 12.1236 24.2668 12.1236 24.1131C12.1236 23.9594 11.999 23.8347 11.8453 23.8347C11.6915 23.8347 11.5669 23.9594 11.5669 24.1131C11.5669 24.2668 11.6915 24.3914 11.8453 24.3914Z" fill="#0D808A"/>
<path d="M12.4742 25.4947C12.3421 25.4947 12.2346 25.3872 12.2346 25.2551C12.2346 25.123 12.3421 25.0155 12.4742 25.0155C12.6064 25.0155 12.7138 25.123 12.7138 25.2551C12.7138 25.3872 12.6064 25.4947 12.4742 25.4947Z" fill="#0D808A"/>
<path d="M13.2132 26.5101C13.1128 26.5101 13.0309 26.4291 13.0309 26.3278C13.0309 26.2265 13.1119 26.1454 13.2132 26.1454C13.3145 26.1454 13.3956 26.2265 13.3956 26.3278C13.3956 26.4291 13.3145 26.5101 13.2132 26.5101Z" fill="#0D808A"/>
<path d="M13.9725 27.338C13.9135 27.338 13.865 27.2896 13.865 27.2305C13.865 27.1715 13.9135 27.1231 13.9725 27.1231C14.0315 27.1231 14.08 27.1715 14.08 27.2305C14.08 27.2896 14.0315 27.338 13.9725 27.338Z" fill="#0D808A"/>
<path d="M16.6222 17.639C16.2144 17.3404 15.7871 17.0532 15.2031 16.9255C14.6535 16.8013 14.0254 16.8542 13.4678 17.0885C12.9234 17.3193 12.4372 17.7271 12.069 18.2318C12.7693 17.8539 13.5568 17.6549 14.3311 17.5782C15.1071 17.5016 15.8849 17.5412 16.6222 17.6399V17.639Z" fill="#0D808A"/>
<path d="M17.3498 20.1284C17.1235 20.028 16.8795 19.9381 16.6214 19.873C16.3694 19.806 16.0981 19.7655 15.8039 19.7725C15.234 19.7866 14.6394 19.9919 14.1602 20.3522C13.6792 20.7116 13.3084 21.2216 13.075 21.7977C14.2685 20.7221 15.8867 20.2843 17.349 20.1275L17.3498 20.1284Z" fill="#0D808A"/>
<path d="M18.6535 22.3637C18.1664 22.2844 17.6308 22.2465 17.0697 22.3972C16.5236 22.546 15.9951 22.8887 15.6136 23.3556C15.2261 23.8242 15.0102 24.3967 14.9098 25.0257C15.8154 23.6824 17.2723 22.8772 18.6527 22.3637H18.6535Z" fill="#0D808A"/>
<path d="M18.5311 27.6577C17.9876 27.6577 17.5084 27.9299 17.2186 28.3448C17.1323 28.3299 17.0442 28.321 16.9543 28.3184C17.2758 27.782 17.8616 27.4199 18.5311 27.4199C19.2005 27.4199 19.7863 27.7811 20.1078 28.3184C20.018 28.321 19.9299 28.3299 19.8436 28.3448C19.5538 27.9299 19.0737 27.6577 18.5311 27.6577Z" fill="#0D808A"/>
<path d="M18.5312 28.1299C18.2008 28.1299 17.9049 28.2726 17.6979 28.499C17.623 28.4629 17.5455 28.4303 17.4653 28.4048C17.7164 28.0929 18.1004 27.8921 18.5312 27.8921C18.9619 27.8921 19.346 28.0929 19.597 28.4048C19.5169 28.4303 19.4393 28.4629 19.3645 28.499C19.1575 28.2726 18.8615 28.1299 18.5312 28.1299Z" fill="#0D808A"/>
<path d="M18.5311 28.6015C18.3664 28.6015 18.2166 28.6623 18.1012 28.7627C18.0405 28.7098 17.9762 28.6614 17.9083 28.6173C18.0695 28.4614 18.2889 28.3645 18.5311 28.3645C18.7733 28.3645 18.9927 28.4614 19.1539 28.6173C19.0861 28.6614 19.0218 28.7098 18.961 28.7627C18.8456 28.6631 18.6958 28.6015 18.5311 28.6015Z" fill="#0D808A"/>
<path d="M18.5311 29.0724C18.488 29.0724 18.4492 29.0874 18.4175 29.112C18.3726 29.0468 18.3224 28.9861 18.2695 28.927C18.3417 28.8698 18.4316 28.8345 18.5311 28.8345C18.6307 28.8345 18.7205 28.8698 18.7927 28.927C18.7399 28.9861 18.6897 29.0468 18.6448 29.112C18.613 29.0874 18.5743 29.0724 18.5311 29.0724Z" fill="#0D808A"/>
<path d="M21.9278 27.6577C21.3843 27.6577 20.9051 27.9299 20.6153 28.3448C20.529 28.3299 20.4409 28.321 20.351 28.3184C20.6726 27.782 21.2583 27.4199 21.9278 27.4199C22.5973 27.4199 23.1831 27.7811 23.5046 28.3184C23.4147 28.321 23.3266 28.3299 23.2403 28.3448C22.9505 27.9299 22.4704 27.6577 21.9278 27.6577Z" fill="#0D808A"/>
<path d="M21.9278 28.1299C21.5974 28.1299 21.3015 28.2726 21.0945 28.499C21.0196 28.4629 20.9421 28.4303 20.8619 28.4048C21.113 28.0929 21.497 27.8921 21.9278 27.8921C22.3585 27.8921 22.7426 28.0929 22.9936 28.4048C22.9135 28.4303 22.8359 28.4629 22.7611 28.499C22.5541 28.2726 22.2581 28.1299 21.9278 28.1299Z" fill="#0D808A"/>
<path d="M21.9278 28.6015C21.7631 28.6015 21.6133 28.6623 21.4979 28.7627C21.4372 28.7098 21.3729 28.6614 21.305 28.6173C21.4662 28.4614 21.6856 28.3645 21.9278 28.3645C22.17 28.3645 22.3894 28.4614 22.5506 28.6173C22.4828 28.6614 22.4184 28.7098 22.3577 28.7627C22.2423 28.6631 22.0925 28.6015 21.9278 28.6015Z" fill="#0D808A"/>
<path d="M21.9277 29.0724C21.8846 29.0724 21.8458 29.0874 21.8141 29.112C21.7692 29.0468 21.719 28.9861 21.6661 28.927C21.7383 28.8698 21.8282 28.8345 21.9277 28.8345C22.0273 28.8345 22.1171 28.8698 22.1893 28.927C22.1365 28.9861 22.0863 29.0468 22.0414 29.112C22.0096 29.0874 21.9709 29.0724 21.9277 29.0724Z" fill="#0D808A"/>
<path d="M16.8337 28.8003C16.2902 28.8003 15.811 29.0725 15.5212 29.4874C15.4349 29.4724 15.3468 29.4636 15.2569 29.461C15.5784 28.9245 16.1642 28.5625 16.8337 28.5625C17.5032 28.5625 18.0889 28.9236 18.4105 29.461C18.3206 29.4636 18.2325 29.4724 18.1462 29.4874C17.8564 29.0725 17.3763 28.8003 16.8337 28.8003Z" fill="#0D808A"/>
<path d="M16.8336 29.2716C16.5033 29.2716 16.2073 29.4143 16.0003 29.6407C15.9254 29.6046 15.8479 29.572 15.7678 29.5464C16.0188 29.2346 16.4029 29.0338 16.8336 29.0338C17.2644 29.0338 17.6484 29.2346 17.8995 29.5464C17.8193 29.572 17.7418 29.6046 17.6669 29.6407C17.4599 29.4143 17.1639 29.2716 16.8336 29.2716Z" fill="#0D808A"/>
<path d="M16.8337 29.7431C16.6689 29.7431 16.5192 29.8039 16.4038 29.9043C16.343 29.8515 16.2787 29.803 16.2109 29.759C16.3721 29.6031 16.5914 29.5062 16.8337 29.5062C17.0759 29.5062 17.2952 29.6031 17.4564 29.759C17.3886 29.803 17.3243 29.8515 17.2635 29.9043C17.1481 29.8048 16.9984 29.7431 16.8337 29.7431Z" fill="#0D808A"/>
<path d="M16.8336 30.214C16.7905 30.214 16.7517 30.229 16.72 30.2537C16.6751 30.1885 16.6249 30.1277 16.572 30.0687C16.6443 30.0114 16.7341 29.9762 16.8336 29.9762C16.9332 29.9762 17.023 30.0114 17.0953 30.0687C17.0424 30.1277 16.9922 30.1885 16.9473 30.2537C16.9156 30.229 16.8768 30.214 16.8336 30.214Z" fill="#0D808A"/>
<path d="M20.2294 28.8003C19.6859 28.8003 19.2067 29.0725 18.9169 29.4874C18.8306 29.4724 18.7425 29.4636 18.6526 29.461C18.9741 28.9245 19.5599 28.5625 20.2294 28.5625C20.8988 28.5625 21.4846 28.9236 21.8062 29.461C21.7163 29.4636 21.6282 29.4724 21.5419 29.4874C21.2521 29.0725 20.772 28.8003 20.2294 28.8003Z" fill="#0D808A"/>
<path d="M20.2294 29.2716C19.899 29.2716 19.6031 29.4143 19.3961 29.6407C19.3212 29.6046 19.2437 29.572 19.1635 29.5464C19.4146 29.2346 19.7986 29.0338 20.2294 29.0338C20.6601 29.0338 21.0442 29.2346 21.2952 29.5464C21.2151 29.572 21.1376 29.6046 21.0627 29.6407C20.8557 29.4143 20.5597 29.2716 20.2294 29.2716Z" fill="#0D808A"/>
<path d="M20.2294 29.7431C20.0647 29.7431 19.9149 29.8039 19.7995 29.9043C19.7388 29.8515 19.6745 29.803 19.6066 29.759C19.7678 29.6031 19.9872 29.5062 20.2294 29.5062C20.4716 29.5062 20.691 29.6031 20.8522 29.759C20.7844 29.803 20.7201 29.8515 20.6593 29.9043C20.5439 29.8048 20.3941 29.7431 20.2294 29.7431Z" fill="#0D808A"/>
<path d="M20.2295 30.214C20.1863 30.214 20.1476 30.229 20.1159 30.2537C20.0709 30.1885 20.0207 30.1277 19.9679 30.0687C20.0401 30.0114 20.1299 29.9762 20.2295 29.9762C20.329 29.9762 20.4189 30.0114 20.4911 30.0687C20.4383 30.1277 20.388 30.1885 20.3431 30.2537C20.3114 30.229 20.2726 30.214 20.2295 30.214Z" fill="#0D808A"/>
<path d="M20.8628 24.1439C20.3827 24.1439 19.9581 24.3844 19.7018 24.7518C19.6251 24.7385 19.5476 24.7306 19.4684 24.7288C19.7529 24.2541 20.2708 23.9343 20.8628 23.9343C21.4547 23.9343 21.9736 24.2541 22.2572 24.7288C22.1779 24.7306 22.0995 24.7385 22.0238 24.7518C21.7674 24.3853 21.3429 24.1439 20.8628 24.1439Z" fill="#0D808A"/>
<path d="M20.8628 24.5607C20.5713 24.5607 20.3088 24.6875 20.1264 24.8875C20.0604 24.8558 19.9916 24.8267 19.9212 24.8038C20.1432 24.5281 20.4823 24.3501 20.8637 24.3501C21.2451 24.3501 21.5843 24.5272 21.8062 24.8038C21.7349 24.8267 21.6671 24.8549 21.601 24.8875C21.4187 24.6875 21.1562 24.5607 20.8646 24.5607H20.8628Z" fill="#0D808A"/>
<path d="M20.8628 24.9774C20.7175 24.9774 20.5844 25.0312 20.4823 25.1201C20.4285 25.0734 20.3713 25.0303 20.3123 24.9915C20.455 24.8532 20.6487 24.7678 20.8628 24.7678C21.0769 24.7678 21.2706 24.8532 21.4133 24.9915C21.3534 25.0303 21.2971 25.0734 21.2433 25.1201C21.1412 25.032 21.0081 24.9774 20.8628 24.9774Z" fill="#0D808A"/>
<path d="M20.8627 25.3939C20.8248 25.3939 20.7896 25.4071 20.7623 25.4291C20.7227 25.3719 20.6786 25.3173 20.6319 25.2662C20.6962 25.216 20.7755 25.1842 20.8627 25.1842C20.9499 25.1842 21.0301 25.216 21.0935 25.2662C21.0468 25.3181 21.0028 25.3719 20.9631 25.4291C20.9349 25.4071 20.9006 25.3939 20.8627 25.3939Z" fill="#0D808A"/>
<mask id="mask0_31_555" style="mask-type:luminance" maskUnits="userSpaceOnUse" x="7" y="5" width="32" height="27">
<path d="M37.5492 28.7668C37.1678 29.4618 36.693 30.1031 36.1566 30.6633C36.0464 30.7796 35.9302 30.8897 35.8174 30.9998L19.3891 31.257C13.2926 31.3522 8.08836 26.7655 7.53517 20.6936C7.53165 20.6513 7.52724 20.609 7.52372 20.5667C6.98463 14.0544 10.2095 8.22305 15.2807 5.04133C14.6077 5.46327 15.0103 9.12683 15.1089 9.94163C15.4278 12.5957 16.9191 16.1888 19.4331 17.4854C22.5453 19.0913 30.5225 13.584 35.9451 18.5821C39.2933 21.667 39.2396 25.7366 37.5492 28.7668Z" fill="white"/>
</mask>
<g mask="url(#mask0_31_555)">
<path d="M23.508 16.7675C23.3741 16.8996 23.2966 17.0661 23.2728 17.2388C23.042 17.0996 22.7469 17.0776 22.4879 17.2071C22.0853 17.4079 21.9224 17.8977 22.1241 18.2993C22.2078 18.4676 22.3426 18.5936 22.5002 18.6684C22.2968 18.8446 22.184 19.1186 22.2272 19.4048C22.2941 19.8497 22.709 20.1562 23.1538 20.0884C23.3397 20.0611 23.5009 19.9712 23.6207 19.8453C23.7255 20.0937 23.951 20.2848 24.2364 20.3324C24.6804 20.4055 25.0997 20.106 25.1728 19.6629C25.2036 19.4771 25.1684 19.2965 25.0856 19.1432C25.3543 19.1203 25.6053 18.9644 25.7392 18.7081C25.9462 18.309 25.7903 17.8175 25.3913 17.6105C25.2248 17.5233 25.0416 17.5013 24.8698 17.5321C24.9306 17.2696 24.861 16.9824 24.6575 16.7763C24.3422 16.4557 23.826 16.4522 23.5062 16.7675H23.508ZM24.2417 17.5612C24.3184 17.6387 24.3527 17.7497 24.3351 17.8571C24.3342 17.8642 24.3325 17.8712 24.3307 17.8783L24.2911 18.0501L24.4646 18.0183C24.5403 18.0043 24.6161 18.0157 24.683 18.0509C24.8152 18.1196 24.8874 18.2641 24.8627 18.4103C24.8575 18.4456 24.8451 18.4799 24.8293 18.5116C24.7755 18.6156 24.6725 18.6843 24.5544 18.694L24.3791 18.7098L24.4628 18.8649C24.4989 18.9318 24.5113 19.0076 24.4989 19.0833C24.484 19.1732 24.4346 19.2525 24.3606 19.3053C24.2858 19.3582 24.195 19.3793 24.1052 19.3643C23.9889 19.3449 23.892 19.2683 23.8462 19.16L23.7775 18.9979L23.6559 19.1256C23.6031 19.1811 23.5353 19.2163 23.4595 19.2278C23.2728 19.256 23.0984 19.1274 23.0702 18.9406C23.0649 18.9054 23.0649 18.8693 23.0702 18.834C23.0834 18.7556 23.1239 18.6834 23.1838 18.6314L23.3168 18.516L23.1583 18.4394C23.0887 18.4059 23.0341 18.3522 23.0006 18.2844C22.968 18.2192 22.9565 18.147 22.9689 18.0756C22.9865 17.9681 23.0552 17.8748 23.153 17.8254C23.2578 17.7726 23.3811 17.7779 23.4833 17.8387L23.6339 17.9294L23.6577 17.7541L23.6595 17.7435C23.6718 17.6713 23.7053 17.607 23.7564 17.5559C23.8216 17.4916 23.9079 17.4572 23.9986 17.4572C24.0902 17.4572 24.1757 17.4942 24.24 17.5594L24.2417 17.5612Z" fill="#0D808A"/>
<path d="M23.9343 18.1377C24.07 18.1606 24.1625 18.2892 24.1396 18.4248C24.1167 18.5605 23.9881 18.653 23.8524 18.6301C23.7167 18.6081 23.6243 18.4786 23.6472 18.3429C23.6701 18.2073 23.7987 18.1148 23.9352 18.1377H23.9343Z" fill="#0D808A"/>
<path d="M21.2618 18.231C20.7782 18.246 20.4003 18.7005 20.4003 18.7005C20.4003 18.7005 20.8064 19.1304 21.29 19.1154C21.7736 19.0995 22.1514 18.645 22.1514 18.645C22.1514 18.645 21.7454 18.2151 21.2618 18.231ZM22.0255 18.6485C22.0255 18.6485 21.807 18.9119 21.5269 18.9207C21.2468 18.9295 21.0116 18.6802 21.0116 18.6802C21.0116 18.6802 21.2309 18.4168 21.5111 18.408C21.7912 18.3992 22.0264 18.6476 22.0264 18.6476L22.0255 18.6485Z" fill="#0D808A"/>
<path d="M21.4855 19.4569C21.6353 19.138 22.0475 19.0165 22.0475 19.0165C22.0475 19.0165 22.2175 19.4111 22.0678 19.7309C21.918 20.0497 21.5058 20.1713 21.5058 20.1713C21.5058 20.1713 21.3358 19.7758 21.4855 19.4578V19.4569Z" fill="#0D808A"/>
<path d="M20.7817 20.5854C20.8328 19.8393 21.2953 19.4191 21.3358 19.3768C21.2882 19.4112 20.728 19.7142 20.5271 20.551C20.4232 20.9712 20.5271 21.6028 21.0099 21.9622C21.4926 22.3506 22.2933 22.2661 22.6738 21.7411C23.0843 21.2548 22.7804 20.4021 22.2228 20.4242C21.9911 20.433 21.8291 20.5528 21.7797 20.7325C21.7339 20.9007 21.8335 21.0743 22.0026 21.1201C22.1444 21.1579 22.2889 21.0928 22.3585 20.9712C22.3937 21.0901 22.384 21.2584 22.2598 21.4363C22.0687 21.7164 21.5815 21.8204 21.2635 21.6107C20.9059 21.4002 20.7562 20.9703 20.7826 20.5871L20.7817 20.5854Z" fill="#0D808A"/>
<path d="M30.4431 17.0715C30.0644 17.0715 29.7296 17.2617 29.5279 17.5507C29.468 17.5401 29.4064 17.5339 29.3438 17.5322C29.5676 17.1578 29.9763 16.9059 30.444 16.9059C30.9118 16.9059 31.3196 17.1578 31.5442 17.5322C31.4817 17.5339 31.42 17.5401 31.3601 17.5507C31.1584 17.2617 30.8237 17.0715 30.4449 17.0715H30.4431Z" fill="#0D808A"/>
<path d="M30.4431 17.4003C30.2132 17.4003 30.0062 17.4999 29.8626 17.6575C29.8106 17.632 29.7569 17.61 29.7005 17.5915C29.8758 17.3739 30.1436 17.2338 30.444 17.2338C30.7444 17.2338 31.0122 17.3739 31.1874 17.5915C31.1311 17.6091 31.0773 17.632 31.0254 17.6575C30.8809 17.4999 30.6748 17.4003 30.4449 17.4003H30.4431Z" fill="#0D808A"/>
<path d="M30.4431 17.7285C30.3285 17.7285 30.2237 17.7708 30.1436 17.8404C30.1013 17.8034 30.0564 17.7699 30.0088 17.7391C30.1215 17.6299 30.2739 17.5629 30.4431 17.5629C30.6122 17.5629 30.7646 17.6307 30.8773 17.7391C30.8306 17.7699 30.7857 17.8043 30.7426 17.8404C30.6624 17.7708 30.5576 17.7285 30.4431 17.7285Z" fill="#0D808A"/>
<path d="M30.4431 18.0574C30.4131 18.0574 30.3858 18.0679 30.3638 18.0856C30.3321 18.0406 30.2977 17.9975 30.2607 17.9569C30.3109 17.9173 30.3743 17.8926 30.4431 17.8926C30.5118 17.8926 30.5752 17.9173 30.6254 17.9569C30.5884 17.9975 30.554 18.0406 30.5223 18.0856C30.5003 18.0688 30.473 18.0574 30.4431 18.0574Z" fill="#0D808A"/>
<path d="M29.2592 17.8678C28.8804 17.8678 28.5457 18.0581 28.344 18.347C28.2841 18.3364 28.2224 18.3303 28.1599 18.3285C28.3836 17.9542 28.7923 17.7022 29.2601 17.7022C29.7278 17.7022 30.1357 17.9542 30.3603 18.3285C30.2977 18.3303 30.2361 18.3364 30.1762 18.347C29.9745 18.0581 29.6397 17.8678 29.2609 17.8678H29.2592Z" fill="#0D808A"/>
<path d="M29.2592 18.1963C29.0293 18.1963 28.8223 18.2958 28.6787 18.4535C28.6267 18.428 28.573 18.4059 28.5166 18.3874C28.6919 18.1699 28.9597 18.0298 29.2601 18.0298C29.5605 18.0298 29.8283 18.1699 30.0035 18.3874C29.9472 18.4051 29.8934 18.428 29.8415 18.4535C29.697 18.2958 29.4909 18.1963 29.261 18.1963H29.2592Z" fill="#0D808A"/>
<path d="M29.2593 18.5252C29.1447 18.5252 29.0399 18.5675 28.9598 18.6371C28.9175 18.6001 28.8725 18.5666 28.825 18.5358C28.9377 18.4266 29.0901 18.3596 29.2593 18.3596C29.4284 18.3596 29.5808 18.4274 29.6935 18.5358C29.6468 18.5666 29.6019 18.601 29.5587 18.6371C29.4786 18.5675 29.3738 18.5252 29.2593 18.5252Z" fill="#0D808A"/>
<path d="M29.2593 18.8534C29.2293 18.8534 29.202 18.864 29.18 18.8816C29.1483 18.8367 29.1139 18.7935 29.0769 18.753C29.1271 18.7133 29.1906 18.6887 29.2593 18.6887C29.328 18.6887 29.3914 18.7133 29.4416 18.753C29.4046 18.7935 29.3703 18.8367 29.3386 18.8816C29.3165 18.8649 29.2892 18.8534 29.2593 18.8534Z" fill="#0D808A"/>
<path d="M31.627 17.8678C31.2482 17.8678 30.9135 18.0581 30.7118 18.347C30.6519 18.3364 30.5902 18.3303 30.5277 18.3285C30.7514 17.9542 31.1601 17.7022 31.6279 17.7022C32.0956 17.7022 32.5035 17.9542 32.7272 18.3285C32.6647 18.3303 32.603 18.3364 32.5431 18.347C32.3414 18.0581 32.0067 17.8678 31.6279 17.8678H31.627Z" fill="#0D808A"/>
<path d="M31.627 18.1963C31.3971 18.1963 31.1901 18.2958 31.0456 18.4535C30.9937 18.428 30.939 18.4059 30.8835 18.3874C31.0588 18.1699 31.3266 18.0298 31.627 18.0298C31.9274 18.0298 32.1952 18.1699 32.3696 18.3874C32.3132 18.4051 32.2595 18.428 32.2075 18.4535C32.063 18.2958 31.8569 18.1963 31.627 18.1963Z" fill="#0D808A"/>
<path d="M31.6271 18.5252C31.5125 18.5252 31.4077 18.5675 31.3276 18.6371C31.2853 18.6001 31.2403 18.5666 31.1928 18.5358C31.3055 18.4266 31.4579 18.3596 31.6271 18.3596C31.7962 18.3596 31.9486 18.4274 32.0613 18.5358C32.0146 18.5666 31.9697 18.601 31.9265 18.6371C31.8464 18.5675 31.7416 18.5252 31.6271 18.5252Z" fill="#0D808A"/>
<path d="M31.627 18.8534C31.5971 18.8534 31.5698 18.864 31.5478 18.8816C31.5161 18.8367 31.4817 18.7935 31.4447 18.753C31.4949 18.7133 31.5583 18.6887 31.627 18.6887C31.6958 18.6887 31.7592 18.7133 31.8094 18.753C31.7724 18.7935 31.738 18.8367 31.7063 18.8816C31.6843 18.8649 31.657 18.8534 31.627 18.8534Z" fill="#0D808A"/>
</g>
<path d="M37.2295 16.8891C37.9958 16.6089 38.8591 16.5684 39.6801 16.734C40.5046 16.8961 41.2929 17.274 41.9465 17.8245C42.5949 18.3821 43.0961 19.1018 43.3903 19.8946C43.688 20.6839 43.7876 21.5498 43.6343 22.3637C43.6255 22.4086 43.5832 22.4377 43.5383 22.4289C43.5004 22.4218 43.474 22.3892 43.4713 22.3522C43.4291 21.5551 43.2414 20.7896 42.9199 20.0902C42.5949 19.3943 42.1421 18.76 41.5687 18.2615C41.0014 17.7558 40.3125 17.3841 39.5743 17.148C38.8335 16.9155 38.0399 16.8248 37.2295 16.8882V16.8891Z" fill="#0D808A"/>
<path d="M38.9666 17.8711C39.7171 17.8253 40.4808 18.1345 41.0754 18.6234C41.6814 19.1132 42.1095 19.7994 42.3712 20.5199C42.6363 21.244 42.7376 22.0121 42.7323 22.7626C42.7279 23.5149 42.624 24.2513 42.4601 24.9719C42.4504 25.0159 42.4064 25.0441 42.3615 25.0335C42.3245 25.0247 42.2989 24.993 42.298 24.9569C42.2672 24.2196 42.2725 23.492 42.2205 22.7794C42.1694 22.0676 42.0576 21.3691 41.8347 20.7093C41.6127 20.0504 41.2718 19.4365 40.7873 18.9405C40.302 18.4464 39.6827 18.0667 38.9639 17.9152C38.9516 17.9125 38.9437 17.9011 38.9463 17.8888C38.9481 17.8791 38.9569 17.872 38.9666 17.8711Z" fill="#0D808A"/>
<path d="M39.754 19.4606C40.2878 19.7046 40.6904 20.1961 40.9097 20.7423C41.1282 21.2893 41.1846 21.9173 40.9881 22.4661C40.9802 22.4881 40.9564 22.4987 40.9353 22.4917C40.9194 22.4864 40.9088 22.4714 40.908 22.4556C40.856 21.8953 40.7441 21.3809 40.538 20.8946C40.3336 20.4075 40.0535 19.968 39.7047 19.524C39.6906 19.5064 39.6932 19.48 39.7109 19.465C39.7232 19.4553 39.7408 19.4535 39.754 19.4597V19.4606Z" fill="#0D808A"/>
<path d="M21.3543 12.3916C21.4874 12.4603 21.586 12.47 21.7868 12.4321C21.6538 12.3758 21.4926 12.3414 21.3543 12.3916Z" fill="#0D808A"/>
<path d="M21.3896 12.1749C21.5138 12.2612 21.6107 12.2815 21.8133 12.27C21.6917 12.1996 21.5367 12.1414 21.3896 12.1749Z" fill="#0D808A"/>
<path d="M21.4583 11.9598C21.564 12.0656 21.6564 12.0955 21.8626 12.1184C21.7516 12.0303 21.6089 11.9475 21.4583 11.9598Z" fill="#0D808A"/>
<path d="M21.564 11.7556C21.6494 11.8798 21.7375 11.9238 21.934 11.9828C21.8379 11.8763 21.7137 11.767 21.564 11.7556Z" fill="#0D808A"/>
<path d="M21.7067 11.5686C21.7674 11.7096 21.8467 11.7695 22.0238 11.8646C21.9524 11.7448 21.8529 11.61 21.7067 11.5686Z" fill="#0D808A"/>
<path d="M21.8899 11.4153C21.9154 11.5633 21.9815 11.6373 22.1365 11.773C22.0907 11.6391 22.0246 11.4867 21.8899 11.4153Z" fill="#0D808A"/>
<path d="M22.1014 11.3034C22.0961 11.4567 22.1437 11.5439 22.2643 11.7059C22.2485 11.565 22.2159 11.4012 22.1014 11.3034Z" fill="#0D808A"/>
<path d="M22.3286 11.2411C22.2934 11.3865 22.3189 11.4807 22.407 11.6683C22.422 11.5274 22.4202 11.3627 22.3286 11.2411Z" fill="#0D808A"/>
<path d="M22.5603 11.2236C22.5004 11.3611 22.5066 11.4597 22.5594 11.6579C22.6008 11.5205 22.6272 11.3567 22.5603 11.2236Z" fill="#0D808A"/>
<path d="M22.7857 11.2448C22.7056 11.3734 22.6933 11.4711 22.7153 11.6729C22.7787 11.5451 22.828 11.3866 22.7857 11.2448Z" fill="#0D808A"/>
<path d="M23.0016 11.2972C22.9056 11.4135 22.8783 11.5078 22.8739 11.7121C22.9558 11.5959 23.0219 11.4461 23.0016 11.2972Z" fill="#0D808A"/>
<path d="M23.2041 11.3765C23.0984 11.4787 23.057 11.5677 23.0288 11.7738C23.1248 11.6681 23.2067 11.5254 23.2041 11.3765Z" fill="#0D808A"/>
<path d="M11.4823 39.7746L12.7067 38.7915C12.7067 38.7915 11.5872 38.9624 11.4823 39.7746Z" fill="#0D808A"/>
<path d="M15 43.7616L16.5702 43.7741C16.5702 43.7741 15.5947 43.1987 15 43.7616Z" fill="#0D808A"/>
</g>
</svg>
