<svg width="12" height="12" viewBox="0 0 12 12" fill="none" xmlns="http://www.w3.org/2000/svg">
<path d="M12 6C12 9.31371 9.31371 12 6 12C2.68629 12 0 9.31371 0 6C0 2.68629 2.68629 0 6 0C9.31371 0 12 2.68629 12 6Z" fill="#FFB93E"/>
<path fill-rule="evenodd" clip-rule="evenodd" d="M6.00001 11.1338C8.83533 11.1338 11.1338 8.83536 11.1338 6.00004C11.1338 3.16472 8.83533 0.866234 6.00001 0.866234C3.16468 0.866234 0.866203 3.16472 0.866203 6.00004C0.866203 8.83536 3.16468 11.1338 6.00001 11.1338ZM6.00001 11.4C8.98234 11.4 11.4 8.98237 11.4 6.00004C11.4 3.0177 8.98234 0.600037 6.00001 0.600037C3.01767 0.600037 0.600006 3.0177 0.600006 6.00004C0.600006 8.98237 3.01767 11.4 6.00001 11.4Z" fill="#FFF500"/>
<path d="M5.40811 3.50589C7.46877 2.02072 9.79034 4.06483 8.56034 6.28461C7.14929 6.90742 4.91824 4.8154 5.40811 3.50589Z" fill="#FFF500"/>
<path d="M5.26681 3.56952C4.69366 5.16766 6.97391 7.14938 8.47729 6.43586C8.50583 6.42234 8.53075 6.46205 8.50551 6.481C6.21919 8.20316 3.7301 5.73852 5.20526 3.56952C5.22837 3.53556 5.28076 3.53088 5.26681 3.56952Z" fill="#FFF500"/>
<path d="M3.32663 7.98099C4.3593 6.33239 4.3897 6.2317 4.68767 5.7442C4.68767 6.13625 5.47176 7.1817 6.25585 7.1817C5.57428 7.60756 4.06112 8.6746 4.06112 8.6746C3.65644 8.94076 3.03185 8.45156 3.32663 7.98099Z" fill="#FFF500"/>
<path d="M7.23997 10.7975C7.1793 10.7889 7.18797 10.8062 7.10131 10.7975C7.05373 10.7928 7.08398 10.7715 7.10131 10.7282C7.10322 10.7235 7.26085 10.3513 7.36484 9.8395C7.45644 9.38864 7.48989 8.80974 7.12904 8.61239C6.95026 8.51458 6.72252 8.54386 6.41227 8.70457C6.12058 8.85566 5.80661 9.0966 5.47418 9.35174C4.90309 9.79003 4.31588 10.2406 3.8032 10.2406C3.69409 10.2406 3.58837 10.2203 3.48689 10.175C3.23566 10.0628 3.07958 9.88715 3.02326 9.65262C2.86675 9.00199 3.54374 8.09777 3.75493 7.83613L3.75805 7.83232C3.78803 7.79507 3.84263 7.78917 3.87989 7.81915C3.91715 7.84913 3.92305 7.90371 3.89306 7.94096L3.88986 7.94495C3.74843 8.12012 3.05021 9.02365 3.19181 9.61208C3.23557 9.7941 3.35525 9.92639 3.5576 10.0167C3.63516 10.0513 3.71775 10.067 3.80424 10.0671C4.25738 10.0671 4.82085 9.63469 5.36871 9.21425C5.70738 8.95434 6.02733 8.70881 6.33263 8.5507C6.69375 8.36366 6.98146 8.33411 7.21232 8.46034C7.41762 8.57262 7.54267 8.77743 7.58409 9.06913C7.61538 9.28945 7.59857 9.56105 7.53426 9.87649C7.42637 10.4058 7.29196 10.7086 7.28338 10.7283C7.26908 10.7608 7.26596 10.7975 7.23997 10.7975Z" fill="#FFF500"/>
</svg>
