<svg width="7" height="7" viewBox="0 0 7 7" fill="none" xmlns="http://www.w3.org/2000/svg">
<path d="M6.15385 3.07692C6.15385 4.77626 4.77626 6.15385 3.07692 6.15385C1.37759 6.15385 0 4.77626 0 3.07692C0 1.37759 1.37759 0 3.07692 0C4.77626 0 6.15385 1.37759 6.15385 3.07692Z" fill="#A5A5A5"/>
<path fill-rule="evenodd" clip-rule="evenodd" d="M3.07685 5.70957C4.53086 5.70957 5.70957 4.53086 5.70957 3.07685C5.70957 1.62284 4.53086 0.444129 3.07685 0.444129C1.62284 0.444129 0.444129 1.62284 0.444129 3.07685C0.444129 4.53086 1.62284 5.70957 3.07685 5.70957ZM3.07685 5.84608C4.60625 5.84608 5.84608 4.60625 5.84608 3.07685C5.84608 1.54744 4.60625 0.307617 3.07685 0.307617C1.54744 0.307617 0.307617 1.54744 0.307617 3.07685C0.307617 4.60625 1.54744 5.84608 3.07685 5.84608Z" fill="#EFEFEF"/>
<path d="M2.77366 1.79801C3.83041 1.03638 5.02096 2.08464 4.39018 3.22299C3.66657 3.54238 2.52244 2.46955 2.77366 1.79801Z" fill="#EFEFEF"/>
<path d="M2.70137 1.83063C2.40745 2.65018 3.57681 3.66645 4.34777 3.30054C4.36241 3.29361 4.37519 3.31397 4.36224 3.32369C3.18977 4.20685 1.91332 2.94293 2.66981 1.83063C2.68166 1.81321 2.70853 1.81081 2.70137 1.83063Z" fill="#EFEFEF"/>
<path d="M1.7062 4.09287C2.23578 3.24744 2.25137 3.1958 2.40417 2.9458C2.40417 3.14685 2.80627 3.68298 3.20837 3.68298C2.85885 3.90137 2.08286 4.44857 2.08286 4.44857C1.87534 4.58506 1.55504 4.33419 1.7062 4.09287Z" fill="#EFEFEF"/>
<path d="M3.71243 5.53718C3.68132 5.53274 3.68576 5.54162 3.64132 5.53718C3.61692 5.53474 3.63243 5.52385 3.64132 5.50164C3.6423 5.49924 3.72314 5.30833 3.77647 5.04589C3.82344 4.81468 3.8406 4.51781 3.65554 4.4166C3.56386 4.36644 3.44707 4.38146 3.28797 4.46387C3.13838 4.54136 2.97737 4.66491 2.8069 4.79575C2.51403 5.02052 2.2129 5.25159 1.94998 5.25159C1.89403 5.25159 1.83981 5.24115 1.78777 5.21791C1.65894 5.16042 1.5789 5.07032 1.55001 4.95005C1.46975 4.6164 1.81692 4.15269 1.92523 4.01852L1.92683 4.01656C1.9422 3.99746 1.9702 3.99444 1.98931 4.00981C2.00842 4.02518 2.01144 4.05317 1.99607 4.07228L1.99442 4.07432C1.92189 4.16416 1.56383 4.6275 1.63645 4.92926C1.65889 5.02261 1.72027 5.09045 1.82404 5.13674C1.86381 5.15452 1.90616 5.16256 1.95052 5.1626C2.1829 5.1626 2.47185 4.94086 2.75281 4.72525C2.92649 4.59196 3.09056 4.46605 3.24713 4.38497C3.43232 4.28905 3.57986 4.27389 3.69825 4.33863C3.80353 4.39621 3.86766 4.50124 3.8889 4.65083C3.90495 4.76381 3.89633 4.90309 3.86335 5.06486C3.80802 5.33632 3.73909 5.4916 3.73469 5.50168C3.72736 5.51834 3.72576 5.53718 3.71243 5.53718Z" fill="#EFEFEF"/>
</svg>
