<svg width="45" height="27" viewBox="0 0 45 27" fill="none" xmlns="http://www.w3.org/2000/svg">
<g clip-path="url(#clip0_41_54)">
<path d="M44.5 6.5L38.5 0H0V27H38.5L44.5 21V6.5Z" fill="url(#paint0_linear_41_54)"/>
</g>
<path d="M2.94824 8.89062V16H1.72266V8.89062H2.94824ZM7.2207 8.89062L4.33984 12.3135L2.69922 14.0518L2.48438 12.8359L3.65625 11.3906L5.72656 8.89062H7.2207ZM5.90234 16L3.56348 12.6309L4.4082 11.7959L7.35742 16H5.90234ZM10.5854 14.7549V10.7168H11.767V16H10.6537L10.5854 14.7549ZM10.7514 13.6562L11.1469 13.6465C11.1469 14.0013 11.1078 14.3285 11.0297 14.6279C10.9516 14.9242 10.8311 15.1829 10.6684 15.4043C10.5056 15.6224 10.2973 15.7933 10.0434 15.917C9.78945 16.0374 9.48509 16.0977 9.13027 16.0977C8.87311 16.0977 8.63711 16.0602 8.42227 15.9854C8.20742 15.9105 8.02187 15.7949 7.86562 15.6387C7.71263 15.4824 7.59382 15.279 7.50918 15.0283C7.42454 14.7777 7.38223 14.4782 7.38223 14.1299V10.7168H8.55898V14.1396C8.55898 14.3317 8.58177 14.4928 8.62734 14.623C8.67292 14.75 8.73477 14.8525 8.81289 14.9307C8.89102 15.0088 8.98216 15.0641 9.08633 15.0967C9.19049 15.1292 9.30117 15.1455 9.41836 15.1455C9.75365 15.1455 10.0173 15.0804 10.2094 14.9502C10.4047 14.8167 10.543 14.6377 10.6244 14.4131C10.709 14.1885 10.7514 13.9362 10.7514 13.6562ZM14.2918 15.0674L15.5857 10.7168H16.8064L14.9705 16H14.2088L14.2918 15.0674ZM13.3006 10.7168L14.6189 15.0869L14.6824 16H13.9207L12.075 10.7168H13.3006ZM20.0344 14.9404V12.4209C20.0344 12.2321 20.0002 12.0693 19.9318 11.9326C19.8635 11.7959 19.7593 11.6901 19.6193 11.6152C19.4826 11.5404 19.3101 11.5029 19.1018 11.5029C18.9097 11.5029 18.7437 11.5355 18.6037 11.6006C18.4637 11.6657 18.3547 11.7536 18.2766 11.8643C18.1984 11.9749 18.1594 12.1003 18.1594 12.2402H16.9875C16.9875 12.0319 17.038 11.8301 17.1389 11.6348C17.2398 11.4395 17.3863 11.2653 17.5783 11.1123C17.7704 10.9593 17.9999 10.8389 18.2668 10.751C18.5337 10.6631 18.8332 10.6191 19.1652 10.6191C19.5624 10.6191 19.9139 10.6859 20.2199 10.8193C20.5292 10.9528 20.7717 11.1546 20.9475 11.4248C21.1265 11.6917 21.216 12.027 21.216 12.4307V14.7793C21.216 15.0202 21.2323 15.2367 21.2648 15.4287C21.3007 15.6175 21.3511 15.7819 21.4162 15.9219V16H20.2102C20.1548 15.873 20.1109 15.7119 20.0783 15.5166C20.049 15.318 20.0344 15.126 20.0344 14.9404ZM20.2053 12.7871L20.215 13.5146H19.3703C19.1522 13.5146 18.9602 13.5358 18.7941 13.5781C18.6281 13.6172 18.4898 13.6758 18.3791 13.7539C18.2684 13.832 18.1854 13.9264 18.1301 14.0371C18.0747 14.1478 18.0471 14.2731 18.0471 14.4131C18.0471 14.5531 18.0796 14.6816 18.1447 14.7988C18.2098 14.9128 18.3042 15.0023 18.4279 15.0674C18.5549 15.1325 18.7079 15.165 18.8869 15.165C19.1278 15.165 19.3378 15.1162 19.5168 15.0186C19.6991 14.9176 19.8423 14.7956 19.9465 14.6523C20.0507 14.5059 20.106 14.3675 20.1125 14.2373L20.4934 14.7598C20.4543 14.8932 20.3876 15.0365 20.2932 15.1895C20.1988 15.3424 20.0751 15.4889 19.9221 15.6289C19.7723 15.7656 19.5917 15.8779 19.3801 15.9658C19.1717 16.0537 18.9309 16.0977 18.6574 16.0977C18.3124 16.0977 18.0048 16.0293 17.7346 15.8926C17.4644 15.7526 17.2528 15.5654 17.0998 15.3311C16.9468 15.0934 16.8703 14.8249 16.8703 14.5254C16.8703 14.2454 16.9224 13.998 17.0266 13.7832C17.134 13.5651 17.2902 13.3828 17.4953 13.2363C17.7036 13.0898 17.9576 12.9792 18.257 12.9043C18.5565 12.8262 18.8983 12.7871 19.2824 12.7871H20.2053ZM23.2232 11.791V16H22.0465V10.7168H23.1549L23.2232 11.791ZM23.0328 13.1631L22.6324 13.1582C22.6324 12.7936 22.678 12.4567 22.7691 12.1475C22.8603 11.8382 22.9937 11.5697 23.1695 11.3418C23.3453 11.1107 23.5634 10.9333 23.8238 10.8096C24.0875 10.6826 24.3919 10.6191 24.7369 10.6191C24.9778 10.6191 25.1975 10.6549 25.3961 10.7266C25.5979 10.7949 25.7721 10.904 25.9186 11.0537C26.0683 11.2035 26.1822 11.3955 26.2604 11.6299C26.3417 11.8643 26.3824 12.1475 26.3824 12.4795V16H25.2057V12.582C25.2057 12.3249 25.1666 12.123 25.0885 11.9766C25.0136 11.8301 24.9046 11.7259 24.7613 11.6641C24.6214 11.599 24.4537 11.5664 24.2584 11.5664C24.037 11.5664 23.8482 11.6087 23.692 11.6934C23.539 11.778 23.4137 11.8936 23.316 12.04C23.2184 12.1865 23.1467 12.3558 23.1012 12.5479C23.0556 12.7399 23.0328 12.945 23.0328 13.1631ZM26.3092 12.8506L25.7574 12.9727C25.7574 12.6536 25.8014 12.3525 25.8893 12.0693C25.9804 11.7829 26.1122 11.5322 26.2848 11.3174C26.4605 11.0993 26.677 10.9284 26.9342 10.8047C27.1913 10.681 27.4859 10.6191 27.818 10.6191C28.0882 10.6191 28.329 10.6566 28.5406 10.7314C28.7555 10.8031 28.9378 10.917 29.0875 11.0732C29.2372 11.2295 29.3512 11.4329 29.4293 11.6836C29.5074 11.931 29.5465 12.2305 29.5465 12.582V16H28.3648V12.5771C28.3648 12.3102 28.3258 12.1035 28.2477 11.957C28.1728 11.8105 28.0654 11.7096 27.9254 11.6543C27.7854 11.5957 27.6178 11.5664 27.4225 11.5664C27.2402 11.5664 27.079 11.6006 26.9391 11.6689C26.8023 11.734 26.6868 11.8268 26.5924 11.9473C26.498 12.0645 26.4264 12.1995 26.3775 12.3525C26.332 12.5055 26.3092 12.6715 26.3092 12.8506ZM31.793 14.8281L33.0137 10.7168H33.7656L33.5605 11.9473L32.3301 16H31.6562L31.793 14.8281ZM31.0752 10.7168L32.0273 14.8477L32.1055 16H31.3535L29.9229 10.7168H31.0752ZM34.9082 14.7988L35.8311 10.7168H36.9785L35.5527 16H34.8008L34.9082 14.7988ZM33.8926 10.7168L35.0986 14.7793L35.25 16H34.5762L33.3311 11.9424L33.126 10.7168H33.8926ZM37.1547 13.417V13.3047C37.1547 12.9238 37.21 12.5706 37.3207 12.2451C37.4314 11.9163 37.5909 11.6315 37.7992 11.3906C38.0108 11.1465 38.268 10.9577 38.5707 10.8242C38.8767 10.6875 39.2217 10.6191 39.6059 10.6191C39.9932 10.6191 40.3383 10.6875 40.641 10.8242C40.947 10.9577 41.2058 11.1465 41.4174 11.3906C41.629 11.6315 41.7901 11.9163 41.9008 12.2451C42.0115 12.5706 42.0668 12.9238 42.0668 13.3047V13.417C42.0668 13.7979 42.0115 14.151 41.9008 14.4766C41.7901 14.8021 41.629 15.0869 41.4174 15.3311C41.2058 15.5719 40.9486 15.7607 40.6459 15.8975C40.3432 16.0309 39.9997 16.0977 39.6156 16.0977C39.2283 16.0977 38.8816 16.0309 38.5756 15.8975C38.2729 15.7607 38.0157 15.5719 37.8041 15.3311C37.5925 15.0869 37.4314 14.8021 37.3207 14.4766C37.21 14.151 37.1547 13.7979 37.1547 13.417ZM38.3314 13.3047V13.417C38.3314 13.6546 38.3559 13.8792 38.4047 14.0908C38.4535 14.3024 38.53 14.488 38.6342 14.6475C38.7383 14.807 38.8718 14.9323 39.0346 15.0234C39.1973 15.1146 39.391 15.1602 39.6156 15.1602C39.8337 15.1602 40.0225 15.1146 40.182 15.0234C40.3448 14.9323 40.4783 14.807 40.5824 14.6475C40.6866 14.488 40.7631 14.3024 40.8119 14.0908C40.864 13.8792 40.89 13.6546 40.89 13.417V13.3047C40.89 13.0703 40.864 12.849 40.8119 12.6406C40.7631 12.429 40.685 12.2419 40.5775 12.0791C40.4734 11.9163 40.3399 11.7894 40.1771 11.6982C40.0176 11.6038 39.8272 11.5566 39.6059 11.5566C39.3845 11.5566 39.1924 11.6038 39.0297 11.6982C38.8702 11.7894 38.7383 11.9163 38.6342 12.0791C38.53 12.2419 38.4535 12.429 38.4047 12.6406C38.3559 12.849 38.3314 13.0703 38.3314 13.3047Z" fill="white"/>
<defs>
<linearGradient id="paint0_linear_41_54" x1="22.25" y1="27" x2="22.25" y2="0" gradientUnits="userSpaceOnUse">
<stop stop-color="#0E5655"/>
<stop offset="1" stop-color="#2FCDA9"/>
</linearGradient>
<clipPath id="clip0_41_54">
<rect width="44.5" height="27" fill="white"/>
</clipPath>
</defs>
</svg>
