<svg width="44" height="27" viewBox="0 0 44 27" fill="none" xmlns="http://www.w3.org/2000/svg">
<path d="M0 20.5L6 27H44.5V0H6L0 6V20.5Z" fill="url(#paint0_linear_44_60)"/>
<path d="M10.6543 8.46875H12.1191V14.1699C12.1191 14.8184 11.9785 15.3613 11.6973 15.7988C11.416 16.2363 11.0332 16.5664 10.5488 16.7891C10.0684 17.0078 9.53125 17.1172 8.9375 17.1172C8.32422 17.1172 7.77734 17.0078 7.29688 16.7891C6.81641 16.5664 6.4375 16.2363 6.16016 15.7988C5.88672 15.3613 5.75 14.8184 5.75 14.1699V8.46875H7.21484V14.1699C7.21484 14.5801 7.28516 14.918 7.42578 15.1836C7.56641 15.4453 7.76562 15.6387 8.02344 15.7637C8.28125 15.8887 8.58594 15.9512 8.9375 15.9512C9.28906 15.9512 9.5918 15.8887 9.8457 15.7637C10.1035 15.6387 10.3027 15.4453 10.4434 15.1836C10.584 14.918 10.6543 14.5801 10.6543 14.1699V8.46875ZM14.522 8V17H13.104V8H14.522ZM18.4595 10.6602L15.6997 13.7188L14.188 15.2656L13.8188 14.0703L14.9614 12.6582L16.7544 10.6602H18.4595ZM17.0591 17L15.0024 14.0234L15.893 13.0332L18.6938 17H17.0591ZM20.5986 15.5938L22.0634 10.6602H22.9658L22.7197 12.1367L21.2431 17H20.4345L20.5986 15.5938ZM19.7373 10.6602L20.8798 15.6172L20.9736 17H20.0712L18.3545 10.6602H19.7373ZM24.3369 15.5586L25.4443 10.6602H26.8212L25.1103 17H24.208L24.3369 15.5586ZM23.1181 10.6602L24.5654 15.5352L24.747 17H23.9384L22.4443 12.1309L22.1982 10.6602H23.1181ZM30.0971 17.1172C29.6284 17.1172 29.2045 17.041 28.8256 16.8887C28.4506 16.7324 28.1303 16.5156 27.8647 16.2383C27.603 15.9609 27.4018 15.6348 27.2612 15.2598C27.1205 14.8848 27.0502 14.4805 27.0502 14.0469V13.8125C27.0502 13.3164 27.1225 12.8672 27.267 12.4648C27.4116 12.0625 27.6127 11.7188 27.8705 11.4336C28.1284 11.1445 28.433 10.9238 28.7846 10.7715C29.1362 10.6191 29.517 10.543 29.9272 10.543C30.3803 10.543 30.7768 10.6191 31.1166 10.7715C31.4565 10.9238 31.7377 11.1387 31.9604 11.416C32.187 11.6895 32.3549 12.0156 32.4643 12.3945C32.5776 12.7734 32.6342 13.1914 32.6342 13.6484V14.252H27.7358V13.2383H31.2397V13.127C31.2319 12.873 31.1811 12.6348 31.0873 12.4121C30.9975 12.1895 30.8588 12.0098 30.6713 11.873C30.4838 11.7363 30.2338 11.668 29.9213 11.668C29.687 11.668 29.478 11.7188 29.2944 11.8203C29.1147 11.918 28.9643 12.0605 28.8432 12.248C28.7221 12.4355 28.6284 12.6621 28.562 12.9277C28.4995 13.1895 28.4682 13.4844 28.4682 13.8125V14.0469C28.4682 14.3242 28.5053 14.582 28.5795 14.8203C28.6577 15.0547 28.7709 15.2598 28.9194 15.4355C29.0678 15.6113 29.2475 15.75 29.4584 15.8516C29.6694 15.9492 29.9096 15.998 30.1791 15.998C30.519 15.998 30.8217 15.9297 31.0873 15.793C31.353 15.6562 31.5834 15.4629 31.7787 15.2129L32.5229 15.9336C32.3862 16.1328 32.2084 16.3242 31.9897 16.5078C31.7709 16.6875 31.5034 16.834 31.187 16.9473C30.8745 17.0605 30.5112 17.1172 30.0971 17.1172ZM38.1601 15.875V17H33.4374V15.875H38.1601ZM38.0312 11.5391L33.9179 17H33.0038V16.0918L37.0937 10.6602H38.0312V11.5391ZM37.4862 10.6602V11.7852H33.0741V10.6602H37.4862ZM40.3227 10.6602V17H38.9047V10.6602H40.3227ZM38.8109 8.99609C38.8109 8.78125 38.8812 8.60352 39.0219 8.46289C39.1664 8.31836 39.3656 8.24609 39.6195 8.24609C39.8695 8.24609 40.0668 8.31836 40.2113 8.46289C40.3559 8.60352 40.4281 8.78125 40.4281 8.99609C40.4281 9.20703 40.3559 9.38281 40.2113 9.52344C40.0668 9.66406 39.8695 9.73438 39.6195 9.73438C39.3656 9.73438 39.1664 9.66406 39.0219 9.52344C38.8812 9.38281 38.8109 9.20703 38.8109 8.99609Z" fill="white"/>
<defs>
<linearGradient id="paint0_linear_44_60" x1="22.25" y1="0" x2="22.25" y2="27" gradientUnits="userSpaceOnUse">
<stop stop-color="#2FCDA9"/>
<stop offset="1" stop-color="#0E5655"/>
</linearGradient>
</defs>
</svg>
