<svg width="327" height="500" viewBox="0 0 327 500" fill="none" xmlns="http://www.w3.org/2000/svg">
<path d="M17.8935 7.54471L5.36816 26.7502V471.211L18.7881 491.788H309.107L321.185 471.211L321.185 27.4361L309.107 7.54471H17.8935Z" fill="#136761" stroke="#32DAB1"/>
<path d="M327 85.7387L323.869 89.1682V24.0068L316.264 12.3464H320.737L327 22.635V85.7387Z" fill="#32DBB2"/>
<path d="M312.686 0L318.501 8.91682H314.475L311.344 4.11546H228.14L226.35 0H312.686Z" fill="#32DBB2"/>
<path d="M319.395 0H315.817L323.421 12.3464H327L319.395 0Z" fill="#32DBB2"/>
<path d="M0 85.7387L3.13133 89.1682V24.0068L10.736 12.3464H6.26265L0 22.635V85.7387Z" fill="#32DBB2"/>
<path d="M14.3143 0L8.49902 8.91682H12.525L15.6563 4.11546H98.8602L100.65 0H14.3143Z" fill="#32DBB2"/>
<path d="M7.60465 0H11.1833L3.57866 12.3464H0L7.60465 0Z" fill="#32DBB2"/>
<path d="M4.88826e-06 414.261L3.13133 410.832L3.13133 475.993L10.736 487.654L6.26265 487.654L6.8527e-07 477.365L4.88826e-06 414.261Z" fill="#32DBB2"/>
<path d="M14.3143 500L8.49902 491.083L12.525 491.083L15.6563 495.885L98.8602 495.885L100.65 500L14.3143 500Z" fill="#32DBB2"/>
<path d="M7.60465 500L11.1833 500L3.57866 487.654L8.22324e-07 487.654L7.60465 500Z" fill="#32DBB2"/>
<path d="M327 414.261L323.869 410.832L323.869 475.993L316.264 487.654L320.737 487.654L327 477.365L327 414.261Z" fill="#32DBB2"/>
<path d="M312.686 500L318.501 491.083L314.475 491.083L311.344 495.885L228.14 495.885L226.35 500L312.686 500Z" fill="#32DBB2"/>
<path d="M319.395 500L315.817 500L323.421 487.654L327 487.654L319.395 500Z" fill="#32DBB2"/>
</svg>
