<svg width="382" height="598" viewBox="0 0 382 598" fill="none" xmlns="http://www.w3.org/2000/svg">
<path d="M20.903 9.02289L6.271 31.9911V563.532L21.9482 588.141H361.097L375.207 563.532L375.207 32.8114L361.097 9.02289H20.903Z" fill="#136761" stroke="#32DAB1"/>
<path d="M382 102.537L378.342 106.638V28.7103L369.458 14.7653H374.684L382 27.0697V102.537Z" fill="#32DBB2"/>
<path d="M365.278 0L372.071 10.6638H367.368L363.71 4.92177H266.512L264.422 0H365.278Z" fill="#32DBB2"/>
<path d="M373.116 0H368.936L377.819 14.7653H382L373.116 0Z" fill="#32DBB2"/>
<path d="M0 102.537L3.658 106.638V28.7103L12.5417 14.7653H7.31601L0 27.0697V102.537Z" fill="#32DBB2"/>
<path d="M16.7221 0L9.92871 10.6638H14.6319L18.2899 4.92177H115.488L117.578 0H16.7221Z" fill="#32DBB2"/>
<path d="M8.88372 0H13.0643L4.18057 14.7653H0L8.88372 0Z" fill="#32DBB2"/>
<path d="M4.88826e-06 495.425L3.65801 491.323L3.658 569.251L12.5417 583.196L7.31601 583.196L6.8527e-07 570.892L4.88826e-06 495.425Z" fill="#32DBB2"/>
<path d="M16.7221 597.962L9.92871 587.298L14.6319 587.298L18.2899 593.04L115.488 593.04L117.578 597.962L16.7221 597.962Z" fill="#32DBB2"/>
<path d="M8.88372 597.962L13.0643 597.962L4.18058 583.196L8.22324e-07 583.196L8.88372 597.962Z" fill="#32DBB2"/>
<path d="M382 495.425L378.342 491.323L378.342 569.251L369.458 583.196L374.684 583.196L382 570.892L382 495.425Z" fill="#32DBB2"/>
<path d="M365.278 597.962L372.071 587.298L367.368 587.298L363.71 593.04L266.512 593.04L264.422 597.962L365.278 597.962Z" fill="#32DBB2"/>
<path d="M373.116 597.962L368.936 597.962L377.819 583.196L382 583.196L373.116 597.962Z" fill="#32DBB2"/>
</svg>
