<svg width="52" height="46" viewBox="0 0 52 46" fill="none" xmlns="http://www.w3.org/2000/svg">
<g opacity="0.5">
<path d="M14.8478 16.3787C14.602 17.0614 14.0691 17.6762 13.2296 18.0647C11.984 18.6425 10.4434 18.4109 9.32643 17.6145C8.2086 16.8165 7.50478 15.5145 7.28632 14.1598C7.06611 12.8041 7.30218 11.4026 7.79459 10.1209C7.76552 11.0027 8.48873 11.71 9.32027 12.0694C9.36696 13.0208 9.64531 13.9219 10.1377 14.668C10.9129 15.844 12.2686 16.6033 13.589 16.6033C13.6683 16.6033 13.7475 16.6015 13.8268 16.5954C14.1906 16.5698 14.5324 16.4967 14.8478 16.3787Z" fill="white"/>
<path d="M39.6091 39.1463C39.4065 39.4017 39.0973 39.5488 38.7731 39.5488H36.4873C36.1358 39.5488 35.9059 39.1824 36.0539 38.8635C36.6617 37.5757 36.9445 36.1108 36.8017 34.7075C36.1737 35.022 35.5597 35.2942 34.9863 35.5197C33.4738 36.1143 31.8979 36.5398 30.2938 36.8014C27.7252 37.2198 25.0852 37.2233 22.5148 36.8348C21.7872 36.7247 21.0825 36.5952 20.3999 36.4464C19.911 37.3449 19.3798 38.1729 18.8204 38.9058C18.5121 39.3101 18.0312 39.5479 17.5229 39.5479H15.6687C15.3154 39.5479 15.0882 39.1815 15.2353 38.8609C15.7647 37.7007 15.9981 36.4015 15.9048 35.1286C9.35633 32.678 5.42763 28.729 3.80241 26.8413C3.2827 26.237 2.99994 25.468 2.99994 24.6726V21.4134C2.99994 20.7818 3.50467 20.2691 4.13626 20.2577C5.81256 20.2286 7.92931 19.6596 8.97579 18.8976C9.3484 18.6272 9.69634 18.3303 10.0276 18.015C10.6988 17.3772 11.3013 16.6663 11.9056 15.9502C12.398 15.3635 12.8922 14.7742 13.4207 14.2228C13.6603 13.9735 13.9069 13.7322 14.1606 13.4987C14.757 12.9491 15.393 12.4434 16.0598 11.9854C16.8429 11.4454 17.6674 10.9671 18.5262 10.5531C21.7264 9.0045 25.3794 8.32006 28.9443 8.49448C33.931 8.7376 38.8092 10.5231 41.7901 14.3347C42.6146 15.3882 43.2938 16.5959 43.7897 17.9692L43.8285 18.0749C43.9131 18.3118 43.9879 18.5514 44.0575 18.7954C44.0716 18.843 44.0866 18.8932 44.0989 18.9425C44.2152 19.3275 44.313 19.7256 44.3958 20.1335C45.636 26.2617 43.1828 34.645 39.6091 39.1454V39.1463Z" fill="white"/>
<path d="M13.8118 16.3654C12.4421 16.457 11.0864 15.6871 10.3306 14.542C9.57395 13.396 9.38544 11.9293 9.6682 10.586C9.95096 9.24263 10.6742 8.01909 11.5938 6.99992C11.1939 7.95215 11.836 9.04796 12.6649 9.66369C13.4938 10.2794 14.5086 10.6097 15.3305 11.2343C17.5749 12.9397 16.6509 16.1751 13.8118 16.3663V16.3654Z" fill="white"/>
<path d="M39.1898 15.9356C39.5342 16.2712 39.7985 16.65 40.1367 16.9451C40.4644 17.2481 40.8362 17.4859 41.2378 17.648C42.0403 17.9827 42.937 18.0268 43.817 17.9678C43.9272 17.9616 44.0381 17.9493 44.1491 17.9378C44.202 17.9316 44.2645 17.929 44.3103 17.9193C44.3561 17.9079 44.4011 17.9017 44.4478 17.8885C44.631 17.8383 44.8177 17.7687 44.9948 17.6762C45.3515 17.4956 45.6854 17.2516 45.9514 16.975C46.2218 16.6905 46.3786 16.4148 46.4535 16.0774C46.5257 15.7436 46.5125 15.3762 46.3892 15.0565C46.3275 14.897 46.2394 14.7508 46.1267 14.6292C46.0263 14.5191 45.8845 14.424 45.7312 14.3685C45.5779 14.3113 45.4141 14.2919 45.2775 14.3157C45.141 14.3386 45.0335 14.3985 44.9543 14.4989C44.8732 14.5975 44.8239 14.7473 44.8221 14.905C44.8204 15.0653 44.86 15.2177 44.949 15.3692C45.1216 15.6713 45.4652 15.9189 45.8422 16.0431C46.6024 16.2932 47.5572 16.0941 48.1324 15.4661C48.7059 14.8389 48.9006 13.8347 48.5509 12.997L48.6513 12.9477C49.1173 13.7845 49.0389 14.9067 48.4302 15.7127C47.8101 16.5214 46.6966 16.8975 45.6722 16.65C45.163 16.5214 44.668 16.2492 44.3288 15.7717C43.9923 15.2908 43.9051 14.5887 44.276 14.0206C44.4601 13.7369 44.7728 13.5343 45.089 13.4603C45.4062 13.3837 45.7197 13.4057 46.0078 13.485C46.2958 13.5678 46.568 13.7052 46.8059 13.9131C47.0296 14.1095 47.2128 14.3491 47.3476 14.6099C47.6163 15.1322 47.7026 15.7312 47.5925 16.3056C47.5414 16.5936 47.4322 16.8746 47.2806 17.1309C47.1283 17.3881 46.938 17.5969 46.7398 17.7837C46.3372 18.151 45.8774 18.4135 45.3815 18.5958C45.1322 18.683 44.8723 18.75 44.5984 18.7764C44.5306 18.7843 44.4601 18.7852 44.3914 18.7896L44.2055 18.7949C44.0848 18.7976 43.9642 18.7993 43.8426 18.7958C43.3581 18.7887 42.871 18.7438 42.39 18.6425C41.91 18.5377 41.4369 18.373 41.0044 18.1298C40.5719 17.8876 40.1905 17.5582 39.8866 17.1829C39.7351 16.9944 39.6003 16.7971 39.477 16.5971C39.3536 16.3972 39.2427 16.1937 39.1105 16.0113L39.1925 15.9356H39.1898Z" fill="white"/>
<path d="M25.56 20.6734C25.7389 20.943 25.9758 21.2161 26.2436 21.5279C26.0921 21.4283 25.9573 21.3094 25.8366 21.1658C25.7142 21.0187 25.6094 20.8549 25.5177 20.6778C25.6913 21.0311 25.8842 21.4081 26.0366 21.8071C25.797 21.475 25.6235 21.0778 25.4755 20.6849C25.6094 21.0804 25.7177 21.4997 25.7292 21.9084C25.6076 21.4971 25.5274 21.0848 25.4323 20.7007C25.5107 21.0857 25.5169 21.4777 25.4217 21.823C25.4226 21.4143 25.4191 21.0487 25.3777 20.7122C25.398 21.0487 25.3284 21.3464 25.2006 21.5843C25.2641 21.2839 25.2984 21.0381 25.3072 20.8091C25.2526 20.9086 25.1874 21.0575 25.1178 21.2328C25.0491 21.416 24.9769 21.6177 24.9584 21.8529C24.9496 21.9683 24.9549 22.0846 24.9769 22.2009C24.9989 22.3127 25.0377 22.4237 25.0923 22.5321C25.1469 22.6413 25.2165 22.7461 25.2984 22.8369C25.3795 22.9285 25.4737 23.0245 25.5715 23.095C25.6966 23.1927 25.8648 23.3152 26.0304 23.4235C26.196 23.538 26.3599 23.6517 26.4506 23.7653C26.4559 23.6147 26.5237 23.4323 26.5898 23.243C26.655 23.0474 26.7272 22.8668 26.766 22.7047C26.7985 22.5823 26.8267 22.4634 26.8347 22.3365C26.8435 22.2097 26.8391 22.0855 26.8206 21.9683C26.7809 21.7287 26.6761 21.5129 26.5264 21.3394C26.3863 21.1773 26.2295 21.0601 26.0894 20.9677C26.0269 20.9289 25.96 20.8875 25.8877 20.8426C25.8234 20.8029 25.7706 20.7783 25.7159 20.7474C25.7864 20.8161 25.8587 20.876 25.9459 20.9465C26.0313 21.0135 26.1317 21.091 26.2348 21.1579C26.1167 21.1271 25.9943 21.069 25.8807 20.9897C25.7618 20.9025 25.6596 20.8065 25.56 20.6717V20.6734Z" fill="#0D808A"/>
<path d="M24.2749 24.4745C24.4968 24.175 24.6202 23.8975 24.6712 23.5787C24.7241 23.2571 24.695 22.8942 24.6739 22.3965C24.3673 23.0114 24.0326 23.754 24.2749 24.4745Z" fill="#0D808A"/>
<path d="M24.7311 20.6156C24.5919 20.8975 24.466 21.2525 24.3329 21.6321C24.34 21.4568 24.3814 21.2718 24.443 21.1001C24.5065 20.9239 24.5998 20.7468 24.7073 20.5786C24.488 20.9063 24.2572 21.2621 23.9876 21.5934C24.1585 21.2163 24.4087 20.8754 24.6782 20.5478C24.4008 20.8622 24.0995 21.1573 23.7436 21.3793C24.0387 21.0692 24.3567 20.7909 24.6448 20.5143C24.4924 20.6482 24.3373 20.7618 24.1744 20.8543C24.0097 20.9486 23.8361 21.0234 23.6661 21.0675C23.8414 20.9671 24.007 20.8702 24.1647 20.7715C24.3241 20.672 24.4721 20.5724 24.6051 20.4738C24.4659 20.5645 24.3171 20.6367 24.1788 20.6817C24.1083 20.7054 24.0361 20.7239 23.9647 20.7371C23.8969 20.7486 23.83 20.7548 23.7639 20.7574C23.9066 20.7116 24.0361 20.664 24.155 20.6156C24.2774 20.5645 24.3867 20.5125 24.4853 20.4606C24.429 20.4614 24.3567 20.4702 24.2836 20.4764C24.2087 20.4843 24.1136 20.4993 24.0238 20.5116C23.8388 20.5407 23.6177 20.5839 23.4071 20.6843C23.1984 20.783 23.0213 20.9353 22.8839 21.1406C22.7571 21.3379 22.669 21.5916 22.6399 21.8356C22.6117 21.9986 22.6011 22.1959 22.5844 22.3976C22.5641 22.602 22.5562 22.7905 22.499 22.9305C22.6311 22.8601 22.8196 22.8301 23.0204 22.7896C23.1164 22.772 23.2151 22.7535 23.3111 22.7359C23.4045 22.7182 23.4961 22.6936 23.5736 22.6742C23.8132 22.6196 24.0555 22.5042 24.2387 22.3553C24.4281 22.1976 24.5593 22.0056 24.6351 21.788C24.7056 21.5863 24.7285 21.3899 24.7399 21.2207C24.7478 21.056 24.7514 20.901 24.7443 20.79C24.7029 20.9635 24.6633 21.1926 24.6474 21.441C24.6131 21.3291 24.606 21.1855 24.6166 21.0525C24.6316 20.908 24.6686 20.7645 24.7311 20.6165V20.6156Z" fill="#0D808A"/>
<path d="M20.7963 21.3969C21.1671 21.4401 21.464 21.411 21.7661 21.2956C22.0691 21.182 22.3774 20.9723 22.795 20.7072C22.4435 20.7283 22.0797 20.7583 21.7265 20.8543C21.3768 20.9494 21.0376 21.1142 20.7963 21.3969Z" fill="#0D808A"/>
<path d="M24.3673 19.8635C24.2105 19.8749 24.0379 19.897 23.8546 19.926C23.6767 19.9551 23.4873 19.9921 23.2882 20.0291C23.3666 19.9886 23.4486 19.9533 23.5331 19.9251C23.6212 19.8961 23.7128 19.8741 23.8053 19.8573C23.9894 19.8238 24.1814 19.8142 24.3858 19.823C23.9894 19.7974 23.5657 19.7763 23.1455 19.7093C23.5622 19.6679 23.9832 19.7146 24.399 19.7824C23.9824 19.6996 23.5807 19.5878 23.2134 19.3922C23.63 19.4918 24.0299 19.6283 24.4105 19.7375C24.0308 19.6116 23.6952 19.4239 23.4397 19.1694C23.7833 19.3702 24.1242 19.5569 24.4228 19.6838C24.1277 19.5367 23.8925 19.3244 23.7577 19.0998C23.9736 19.298 24.1894 19.4592 24.3735 19.5754C24.3488 19.5296 24.3004 19.4697 24.259 19.4089C24.2149 19.3473 24.1603 19.2768 24.0978 19.2011C23.9824 19.0566 23.8353 18.8875 23.6441 18.7545C23.4565 18.6241 23.2283 18.5413 22.9879 18.529C22.8689 18.5228 22.7447 18.5325 22.6197 18.5545C22.4981 18.5783 22.3792 18.6179 22.2611 18.6637C22.1079 18.721 21.9326 18.8117 21.7449 18.8972C21.5688 18.9844 21.39 19.0707 21.2411 19.0918C21.3626 19.1702 21.4983 19.3217 21.626 19.4733C21.7494 19.6256 21.8947 19.7798 22.0013 19.8934C22.1783 20.0722 22.3836 20.2255 22.6135 20.3092C22.8355 20.3964 23.0768 20.4123 23.3032 20.3691C23.5146 20.3295 23.6908 20.2528 23.8423 20.178C24 20.1013 24.118 20.0273 24.2228 19.9639C24.0396 20.0176 23.8388 20.096 23.6062 20.2079C23.6961 20.1207 23.7983 20.0449 23.9313 19.985C24.0546 19.9251 24.2079 19.8837 24.3647 19.8635H24.3673Z" fill="#0D808A"/>
<path d="M21.722 16.8489C21.8674 17.188 22.0427 17.4329 22.2955 17.6381C22.5448 17.8434 22.876 18.0028 23.319 18.2354C22.9367 17.6584 22.4611 16.9969 21.7211 16.8489H21.722Z" fill="#0D808A"/>
<path d="M24.8351 19.1744C24.6562 18.9048 24.4193 18.6318 24.1515 18.3199C24.303 18.4195 24.4378 18.5384 24.5585 18.682C24.6809 18.8291 24.7857 18.9929 24.8773 19.17C24.7038 18.8167 24.5109 18.4397 24.3585 18.0407C24.5981 18.3728 24.7716 18.7701 24.9196 19.1629C24.7857 18.7674 24.6774 18.3481 24.6659 17.9394C24.7875 18.3508 24.8677 18.763 24.9628 19.1471C24.8844 18.7621 24.8782 18.3701 24.9734 18.0248C24.9725 18.4336 24.976 18.7991 25.0174 19.1356C24.9971 18.7991 25.0667 18.5014 25.1945 18.2636C25.131 18.5639 25.0967 18.8097 25.0879 19.0387C25.1425 18.9392 25.2077 18.7903 25.2773 18.615C25.346 18.4318 25.4182 18.2301 25.4367 17.9949C25.4455 17.8795 25.4402 17.7632 25.4182 17.6469C25.3962 17.5351 25.3574 17.4241 25.3028 17.3157C25.2482 17.2065 25.1786 17.1017 25.0967 17.0109C25.0156 16.9193 24.9214 16.8233 24.8236 16.7529C24.6985 16.6551 24.5303 16.5326 24.3656 16.4243C24.2 16.3098 24.0361 16.1961 23.9454 16.0825C23.9401 16.2331 23.8723 16.4155 23.8062 16.6049C23.741 16.8004 23.6688 16.981 23.63 17.1431C23.5974 17.2655 23.5692 17.3844 23.5613 17.5113C23.5525 17.6381 23.5569 17.7623 23.5754 17.8795C23.6151 18.1191 23.7199 18.3349 23.8696 18.5084C24.0097 18.6705 24.1665 18.7877 24.3065 18.8802C24.3691 18.9189 24.436 18.9603 24.5083 19.0052C24.5726 19.0449 24.6254 19.0696 24.68 19.1004C24.6096 19.0317 24.5373 18.9718 24.4501 18.9013C24.3647 18.8344 24.2643 18.7568 24.1612 18.6899C24.2792 18.7207 24.4017 18.7789 24.5153 18.8581C24.6342 18.9453 24.7364 19.0414 24.8359 19.1761L24.8351 19.1744Z" fill="#0D808A"/>
<path d="M26.1203 15.3744C25.8983 15.6739 25.775 15.9514 25.7239 16.2703C25.671 16.5918 25.7001 16.9547 25.7212 17.4524C26.0278 16.8376 26.3625 16.095 26.1203 15.3744Z" fill="#0D808A"/>
<path d="M25.664 19.2335C25.8032 18.9516 25.9291 18.5966 26.0621 18.2169C26.0551 18.3922 26.0137 18.5772 25.952 18.749C25.8886 18.9252 25.7952 19.1022 25.6878 19.2705C25.9071 18.9428 26.1379 18.5869 26.4074 18.2557C26.2366 18.6327 25.9864 18.9736 25.7168 19.3013C25.9943 18.9868 26.2956 18.6917 26.6514 18.4698C26.3564 18.7798 26.0384 19.0582 25.7503 19.3348C25.9027 19.2009 26.0577 19.0872 26.2207 18.9948C26.3854 18.9005 26.5589 18.8256 26.729 18.7816C26.5537 18.882 26.3881 18.9789 26.2304 19.0776C26.0709 19.1771 25.923 19.2766 25.79 19.3753C25.9291 19.2846 26.078 19.2123 26.2163 19.1674C26.2868 19.1436 26.359 19.1251 26.4303 19.1119C26.4982 19.1005 26.5651 19.0943 26.6312 19.0917C26.4885 19.1375 26.359 19.1841 26.2401 19.2335C26.1176 19.2846 26.0084 19.3365 25.9097 19.3885C25.9661 19.3876 26.0384 19.3788 26.1115 19.3727C26.1863 19.3647 26.2815 19.3497 26.3713 19.3374C26.5563 19.3083 26.7774 19.2652 26.9879 19.1648C27.1967 19.0661 27.3738 18.9137 27.5112 18.7085C27.638 18.5112 27.7261 18.2575 27.7552 18.0135C27.7834 17.8505 27.7939 17.6532 27.8107 17.4515C27.8309 17.2471 27.8389 17.0586 27.8961 16.9185C27.764 16.989 27.5755 17.019 27.3746 17.0595C27.2795 17.0771 27.18 17.0956 27.0839 17.1132C26.9906 17.1308 26.899 17.1555 26.8215 17.1749C26.5819 17.2295 26.3396 17.3449 26.1564 17.4937C25.967 17.6514 25.8357 17.8435 25.76 18.061C25.6895 18.2628 25.6666 18.4592 25.6552 18.6283C25.6472 18.793 25.6437 18.9481 25.6508 19.0591C25.6922 18.8855 25.7318 18.6565 25.7477 18.4081C25.782 18.52 25.7891 18.6635 25.7785 18.7966C25.7635 18.941 25.7265 19.0846 25.664 19.2326V19.2335Z" fill="#0D808A"/>
<path d="M29.5988 18.4519C29.228 18.4087 28.9311 18.4378 28.629 18.5532C28.3259 18.6668 28.0176 18.8765 27.6001 19.1416C27.9516 19.1205 28.3154 19.0905 28.6686 18.9945C29.0183 18.8994 29.3574 18.7347 29.5988 18.4519Z" fill="#0D808A"/>
<path d="M26.0277 19.9856C26.1845 19.9741 26.3572 19.9521 26.5404 19.9221C26.7183 19.8931 26.9077 19.8561 27.1068 19.8191C27.0284 19.8596 26.9465 19.8948 26.8619 19.923C26.7738 19.9521 26.6822 19.9741 26.5897 19.9908C26.4056 20.0243 26.2136 20.034 26.0092 20.0252C26.4056 20.0507 26.8293 20.0719 27.2495 20.1397C26.8328 20.1811 26.4118 20.1344 25.996 20.0666C26.4127 20.1494 26.8143 20.2613 27.1817 20.4568C26.765 20.3573 26.3651 20.2208 25.9846 20.1115C26.3642 20.2375 26.6998 20.4251 26.9553 20.6797C26.6117 20.4788 26.2708 20.2921 25.9722 20.1653C26.2673 20.3124 26.5025 20.5247 26.6373 20.7493C26.4215 20.5511 26.2057 20.3899 26.0216 20.2736C26.0462 20.3194 26.0947 20.3793 26.1361 20.4401C26.1801 20.5017 26.2347 20.5722 26.2973 20.648C26.4127 20.7924 26.5598 20.9616 26.7509 21.0946C26.9385 21.2249 27.1667 21.3077 27.4072 21.3201C27.5261 21.3262 27.6503 21.3166 27.7754 21.2945C27.8969 21.2708 28.0159 21.2311 28.1339 21.1853C28.2872 21.128 28.4625 21.0373 28.6501 20.9519C28.8263 20.8647 29.0051 20.7783 29.1539 20.7572C29.0324 20.6788 28.8967 20.5273 28.769 20.3758C28.6457 20.2234 28.5003 20.0692 28.3938 19.9556C28.2167 19.7768 28.0115 19.6235 27.7815 19.5398C27.5596 19.4535 27.3182 19.4368 27.0918 19.4799C26.8804 19.5196 26.7042 19.5962 26.5527 19.6711C26.395 19.7477 26.277 19.8217 26.1722 19.8851C26.3554 19.8314 26.5563 19.753 26.7888 19.6411C26.699 19.7283 26.5968 19.8041 26.4638 19.864C26.3404 19.9239 26.1872 19.9653 26.0304 19.9856H26.0277Z" fill="#0D808A"/>
<path d="M28.673 22.9992C28.5277 22.6601 28.3524 22.4152 28.0996 22.21C27.8503 22.0047 27.5191 21.8453 27.076 21.6127C27.4583 22.1897 27.934 22.8512 28.6739 22.9992H28.673Z" fill="#0D808A"/>
<path d="M25.1971 20.1882C25.3431 20.1882 25.4614 20.0699 25.4614 19.924C25.4614 19.778 25.3431 19.6597 25.1971 19.6597C25.0512 19.6597 24.9329 19.778 24.9329 19.924C24.9329 20.0699 25.0512 20.1882 25.1971 20.1882Z" fill="#0D808A"/>
<path d="M37.8192 23.213C37.6413 23.1866 37.4748 23.1452 37.3215 23.0835C37.2449 23.0527 37.1656 23.0042 37.0916 22.9514C37.0167 22.8968 36.9454 22.8342 36.8714 22.7444C36.9991 22.9276 37.1224 23.0633 37.2607 23.2227C37.3981 23.3795 37.547 23.5469 37.7144 23.7547C37.5003 23.6314 37.3215 23.4949 37.1718 23.3451C37.0185 23.1866 36.889 22.9998 36.7727 22.7602C36.9832 23.2421 37.1418 23.6085 37.288 24.1582C36.9789 23.6984 36.8247 23.3169 36.6732 22.777C36.7313 23.0509 36.7666 23.2888 36.778 23.5284C36.7842 23.6482 36.7842 23.7688 36.778 23.8948C36.7718 24.0181 36.7586 24.1459 36.7393 24.2841C36.6309 23.7239 36.6159 23.3266 36.5657 22.8034C36.571 23.0668 36.5428 23.2888 36.4856 23.5037C36.4283 23.7151 36.3429 23.9098 36.2266 24.1388C36.3103 23.5979 36.3984 23.2703 36.4336 22.821C36.3922 23.0509 36.3164 23.2095 36.2231 23.3663C36.1755 23.4376 36.1235 23.5046 36.0671 23.5733C36.0099 23.6429 35.9491 23.7107 35.883 23.7768C35.9685 23.5856 36.0416 23.4209 36.1129 23.2597C36.1764 23.1126 36.2292 22.9866 36.2697 22.8201C36.2583 22.8448 36.2415 22.88 36.2222 22.9232C36.201 22.9637 36.1746 23.0122 36.1438 23.0668C36.0812 23.176 35.9976 23.3108 35.9024 23.4359C35.7139 23.7037 35.4655 23.9503 35.4003 24.137C35.284 24.4735 35.3149 24.7792 35.5131 25.0399C35.7095 25.2919 36.0707 25.5033 36.5252 25.5782C37.0308 25.6724 37.6166 25.5315 38.0253 25.217C38.116 25.1448 38.2006 25.0716 38.2764 24.9985C38.3504 24.921 38.4138 24.8391 38.4693 24.7598C38.5838 24.6048 38.6481 24.4313 38.6781 24.2753C38.7098 24.1194 38.6939 23.9644 38.6402 23.8208C38.5873 23.6772 38.4948 23.546 38.3671 23.42C38.2156 23.2711 38.0518 23.1672 37.9002 23.087C37.7452 23.0034 37.5972 22.9364 37.4748 22.8871C37.2211 22.7778 37.052 22.7144 36.9938 22.6748C37.1101 22.7805 37.2211 22.8492 37.3515 22.9276C37.4219 22.9699 37.4924 23.013 37.5646 23.0571C37.6404 23.102 37.7241 23.1531 37.8201 23.2139L37.8192 23.213Z" fill="#0D808A"/>
<path d="M35.1457 23.5138C35.018 23.1782 34.9361 22.8725 35.0761 22.4585C34.9017 22.8461 34.8189 23.1932 34.6242 23.69C34.6295 23.1923 34.7132 22.8258 35.0153 22.3766C34.7026 22.8029 34.4639 23.1218 34.0613 23.5235C34.3106 23.0196 34.5529 22.706 34.9475 22.3008C34.5317 22.6743 34.1988 22.8954 33.6755 23.113C34.1054 22.7378 34.4419 22.5263 34.8753 22.2163C34.6427 22.359 34.4401 22.4427 34.2287 22.499C34.123 22.5272 34.0138 22.5492 33.901 22.5651C33.7918 22.5792 33.6755 22.588 33.5504 22.5933C33.8032 22.4964 34.0111 22.4242 34.2058 22.3537C34.4014 22.2823 34.5916 22.2083 34.7916 22.1123C34.6841 22.1511 34.5828 22.1758 34.4859 22.1916C34.3934 22.2039 34.3053 22.2066 34.2164 22.2031C34.0349 22.1987 33.8799 22.159 33.687 22.1159C33.8949 22.0938 34.0746 22.0753 34.249 22.0568C34.4049 22.0392 34.552 22.0146 34.7097 21.9705C34.6577 21.9758 34.5599 21.9846 34.4296 21.9873C34.308 21.9873 34.1547 21.9784 33.99 21.9626C33.8323 21.9441 33.6667 21.9159 33.5143 21.8948C33.3593 21.8745 33.2324 21.8569 33.1347 21.8771C32.7832 21.945 32.5321 22.1238 32.4097 22.425C32.2785 22.7254 32.2961 23.1368 32.4476 23.5755C32.6202 24.0635 33.0369 24.4925 33.5117 24.6898C33.9345 24.8748 34.3529 24.8941 34.6533 24.7884C34.9616 24.6757 35.1519 24.437 35.24 24.0917C35.3421 23.6759 35.284 23.3235 35.2576 23.0496C35.2382 22.9201 35.2268 22.7985 35.2162 22.7122C35.2109 22.6708 35.2065 22.6329 35.203 22.6021C35.2012 22.5704 35.2003 22.5448 35.2012 22.5281C35.1422 22.8285 35.1695 23.061 35.1466 23.5129L35.1457 23.5138Z" fill="#0D808A"/>
<path d="M33.5487 21.3475C33.6033 21.2771 33.6694 21.2101 33.7258 21.1493C33.7839 21.0877 33.842 21.0313 33.9143 20.9802C33.9839 20.9291 34.057 20.8833 34.1389 20.8454C34.227 20.8076 34.3239 20.7776 34.4322 20.7573C33.9962 20.7996 33.6729 20.9036 33.1356 20.9837C33.3567 20.8604 33.547 20.7723 33.7637 20.7186C33.9777 20.6649 34.1935 20.6437 34.4675 20.664C33.9381 20.6058 33.5461 20.5609 32.9955 20.4129C33.5593 20.3768 33.9583 20.4314 34.5018 20.5688C33.9636 20.3944 33.6104 20.2183 33.1629 19.8747C33.702 20.0597 34.0543 20.2464 34.5379 20.464C34.3045 20.3372 34.1186 20.198 33.9689 20.0456C33.8165 19.8915 33.6782 19.7144 33.5496 19.5047C33.9645 19.8412 34.2182 20.0879 34.5846 20.3398C34.4146 20.1945 34.2948 20.0394 34.2199 19.8879C34.1803 19.8104 34.1442 19.7294 34.1134 19.6466C34.086 19.5655 34.0605 19.4801 34.0323 19.3867C34.1539 19.5558 34.2596 19.7012 34.3618 19.843C34.4595 19.9725 34.5485 20.0844 34.6657 20.1989C34.6357 20.1566 34.5811 20.0773 34.5142 19.9672C34.4455 19.8553 34.3847 19.725 34.316 19.5735C34.183 19.2792 34.0896 18.9366 33.9592 18.7859C33.724 18.5146 33.4518 18.3948 33.1241 18.4336C32.9603 18.4512 32.8 18.5208 32.6273 18.6186C32.5419 18.6679 32.4652 18.7331 32.3833 18.8027C32.3031 18.8732 32.2195 18.9507 32.1499 19.0414C32.0706 19.1418 31.9896 19.2484 31.9297 19.3664C31.8706 19.4854 31.8178 19.6096 31.7773 19.7373C31.7438 19.8668 31.7191 19.9998 31.7042 20.131C31.6936 20.2632 31.7006 20.3953 31.7139 20.5222C31.7755 20.9802 31.9526 21.3493 32.2027 21.5563C32.3278 21.6602 32.4635 21.7263 32.6123 21.7527C32.7647 21.7783 32.9251 21.7642 33.0977 21.7175C33.3021 21.6611 33.4712 21.5722 33.6245 21.4797C33.7786 21.3872 33.894 21.2947 34.0094 21.2119C34.2261 21.0463 34.3758 20.9309 34.4322 20.8992C34.293 20.9476 34.1644 21.011 34.0349 21.0842C33.9072 21.1581 33.7504 21.2427 33.5513 21.3467L33.5487 21.3475Z" fill="#0D808A"/>
<path d="M34.6278 18.8822C34.8057 18.9086 34.9722 18.95 35.1255 19.0116C35.2021 19.0425 35.2814 19.0909 35.3554 19.1438C35.4303 19.1984 35.5016 19.2609 35.5756 19.3508C35.4479 19.1676 35.3245 19.0319 35.1862 18.8725C35.0488 18.7157 34.9 18.5483 34.7326 18.3404C34.9466 18.4637 35.1255 18.6003 35.2752 18.75C35.4285 18.9086 35.558 19.0953 35.6742 19.3349C35.4637 18.8531 35.3051 18.4866 35.1589 17.937C35.4681 18.3968 35.6223 18.7782 35.7738 19.3182C35.7157 19.0442 35.6804 18.8064 35.669 18.5668C35.6628 18.447 35.6628 18.3263 35.669 18.2004C35.6751 18.077 35.6883 17.9493 35.7077 17.811C35.8161 18.3712 35.8302 18.7685 35.8813 19.2918C35.876 19.0284 35.9042 18.8064 35.9614 18.5915C36.0187 18.3801 36.1041 18.1854 36.2204 17.9564C36.1367 18.4972 36.0486 18.8249 36.0134 19.2741C36.0548 19.0442 36.1305 18.8848 36.2239 18.7289C36.2715 18.6575 36.3234 18.5906 36.3798 18.5219C36.4371 18.4523 36.4979 18.3845 36.5639 18.3184C36.4785 18.5095 36.4054 18.6743 36.334 18.8355C36.2706 18.9826 36.2177 19.1085 36.1772 19.275C36.1887 19.2504 36.2054 19.2151 36.2248 19.172C36.2459 19.1314 36.2723 19.083 36.3032 19.0284C36.3657 18.9192 36.4494 18.7844 36.5446 18.6593C36.7331 18.3915 36.9815 18.1449 37.0467 17.9581C37.1629 17.6216 37.1321 17.316 36.9339 17.0552C36.7375 16.8033 36.3763 16.5919 35.9218 16.517C35.4162 16.4228 34.8304 16.5637 34.4216 16.8782C34.3309 16.9504 34.2463 17.0235 34.1706 17.0966C34.0966 17.1741 34.0332 17.2561 33.9777 17.3353C33.8632 17.4904 33.7989 17.6639 33.7689 17.8198C33.7372 17.9757 33.7531 18.1308 33.8068 18.2744C33.8596 18.4179 33.9521 18.5492 34.0799 18.6751C34.2314 18.824 34.3952 18.928 34.5467 19.0081C34.7018 19.0918 34.8497 19.1588 34.9722 19.2081C35.2259 19.3173 35.395 19.3807 35.4531 19.4204C35.3369 19.3147 35.225 19.246 35.0955 19.1676C35.025 19.1253 34.9546 19.0821 34.8823 19.0381C34.8066 18.9931 34.7229 18.9421 34.6269 18.8813L34.6278 18.8822Z" fill="#0D808A"/>
<path d="M37.3012 18.5805C37.4289 18.9161 37.5108 19.2218 37.3708 19.6358C37.5452 19.2482 37.628 18.9011 37.8227 18.4043C37.8174 18.902 37.7346 19.2684 37.4316 19.7177C37.7443 19.2913 37.983 18.9725 38.3855 18.5708C38.1363 19.0746 37.894 19.3882 37.4994 19.7934C37.9152 19.4199 38.2481 19.1988 38.7714 18.9813C38.3415 19.3565 38.005 19.5679 37.5716 19.878C37.8042 19.7353 38.0068 19.6516 38.2182 19.5952C38.3239 19.5671 38.4331 19.545 38.5459 19.5292C38.6551 19.5151 38.7714 19.5063 38.8965 19.501C38.6436 19.5979 38.4357 19.6701 38.2411 19.7406C38.0455 19.8119 37.8553 19.8859 37.6553 19.9819C37.7628 19.9432 37.8641 19.9185 37.961 19.9027C38.0535 19.8903 38.1415 19.8877 38.2305 19.8912C38.412 19.8956 38.567 19.9353 38.7599 19.9784C38.552 20.0004 38.3723 20.0189 38.1979 20.0374C38.042 20.0551 37.8949 20.0797 37.7372 20.1238C37.7892 20.1185 37.887 20.1097 38.0173 20.107C38.1389 20.107 38.2922 20.1158 38.4569 20.1317C38.6146 20.1502 38.7802 20.1784 38.9335 20.1995C39.0885 20.2198 39.2153 20.2374 39.3131 20.2171C39.6646 20.1493 39.9156 19.9705 40.0381 19.6692C40.1693 19.3689 40.1517 18.9575 40.0002 18.5188C39.8275 18.0308 39.4109 17.6018 38.9361 17.4045C38.5133 17.2195 38.0949 17.2001 37.7945 17.3058C37.4862 17.4186 37.2959 17.6573 37.2078 18.0026C37.1056 18.4184 37.1638 18.7707 37.1902 19.0447C37.2096 19.1742 37.221 19.2957 37.2316 19.3821C37.2369 19.4235 37.2413 19.4613 37.2448 19.4922C37.2466 19.5239 37.2475 19.5494 37.2466 19.5662C37.3056 19.2658 37.2774 19.0332 37.3012 18.5814V18.5805Z" fill="#0D808A"/>
<path d="M38.8992 20.7467C38.8445 20.8172 38.7785 20.8841 38.7221 20.9449C38.664 21.0065 38.6058 21.0629 38.5336 21.114C38.464 21.1651 38.3909 21.2109 38.309 21.2488C38.2209 21.2867 38.124 21.3166 38.0156 21.3369C38.4517 21.2946 38.775 21.1906 39.3123 21.1105C39.0912 21.2338 38.9009 21.3219 38.6842 21.3756C38.4702 21.4294 38.2552 21.4505 37.9804 21.4302C38.5098 21.4884 38.9018 21.5333 39.4523 21.6813C38.8886 21.7174 38.4896 21.6628 37.9461 21.5254C38.4843 21.6998 38.8375 21.876 39.285 22.2195C38.7459 22.0345 38.3935 21.8478 37.9108 21.6302C38.1442 21.7571 38.3301 21.8962 38.4799 22.0486C38.6323 22.2028 38.7706 22.3798 38.8992 22.5895C38.4843 22.253 38.2306 22.0063 37.8641 21.7544C38.035 21.8998 38.1539 22.0548 38.2288 22.2063C38.2684 22.2838 38.3046 22.3649 38.3354 22.4477C38.3627 22.5287 38.3883 22.6141 38.4164 22.7075C38.2949 22.5384 38.1892 22.393 38.087 22.2512C37.9892 22.1217 37.9002 22.0099 37.7831 21.8954C37.813 21.9376 37.8676 22.0169 37.9346 22.127C38.0033 22.2389 38.0641 22.3693 38.1328 22.5208C38.2658 22.815 38.3592 23.1576 38.4895 23.3083C38.7247 23.5796 38.9969 23.6994 39.3246 23.6606C39.4885 23.643 39.6488 23.5734 39.8214 23.4756C39.9069 23.4263 39.9835 23.3611 40.0654 23.2915C40.1456 23.2211 40.2293 23.1435 40.2989 23.0528C40.3781 22.9524 40.4592 22.8458 40.5191 22.7278C40.5781 22.6089 40.631 22.4847 40.6715 22.3569C40.7049 22.2274 40.7296 22.0944 40.7446 21.9632C40.7552 21.831 40.7481 21.6989 40.7349 21.5721C40.6732 21.114 40.4962 20.7449 40.246 20.5379C40.1209 20.434 39.9853 20.3679 39.8364 20.3415C39.684 20.3159 39.5237 20.33 39.351 20.3767C39.1467 20.4331 38.9776 20.5221 38.8243 20.6146C38.6701 20.707 38.5547 20.7995 38.4393 20.8823C38.2226 21.048 38.0729 21.1633 38.0165 21.1951C38.1557 21.1466 38.2843 21.0832 38.4138 21.0101C38.5415 20.9361 38.6983 20.8515 38.8965 20.7476L38.8992 20.7467Z" fill="#0D808A"/>
<path d="M36.7886 21.0473C36.7886 21.3591 36.5358 21.6119 36.2239 21.6119C35.9121 21.6119 35.6593 21.3591 35.6593 21.0473C35.6593 20.7355 35.9121 20.4827 36.2239 20.4827C36.5358 20.4827 36.7886 20.7355 36.7886 21.0473Z" fill="#0D808A"/>
<path d="M41.3682 22.6774C41.2088 22.821 41.0714 22.9584 40.8221 23.0342C41.0634 22.9936 41.2511 22.9443 41.5462 22.9443C41.2863 23.0491 41.0881 23.1222 40.7948 23.1161C41.0802 23.1407 41.2898 23.1839 41.5832 23.2799C41.2837 23.2896 41.0582 23.2711 40.764 23.2006C41.0502 23.3019 41.2396 23.4103 41.4898 23.5856C41.1921 23.5045 40.9956 23.4182 40.7349 23.2949C40.985 23.4517 41.1278 23.6155 41.3004 23.8261C41.0458 23.679 40.9084 23.5548 40.7014 23.4085C40.8926 23.5962 40.9463 23.7688 41.0502 23.9696C40.8591 23.7988 40.7816 23.6772 40.6468 23.5442C40.682 23.6023 40.7789 23.7582 40.8749 23.9141C40.9718 24.0727 41.0767 24.2392 41.1692 24.2912C41.3383 24.3863 41.5012 24.396 41.6589 24.3361C41.8184 24.2779 41.954 24.1432 42.0844 23.9714C42.2156 23.775 42.2975 23.5257 42.2746 23.2852C42.2658 23.1777 42.2544 23.0782 42.2236 22.9875C42.1927 22.8967 42.1522 22.8166 42.102 22.7505C42.0007 22.6175 41.858 22.5426 41.6642 22.5356C41.4334 22.5276 41.2449 22.6184 41.1075 22.7073C40.9736 22.7981 40.875 22.8897 40.838 22.9144C41.0132 22.843 41.126 22.7532 41.3665 22.68L41.3682 22.6774Z" fill="#0D808A"/>
<path d="M40.4477 24.9906C40.2293 25.0372 40.0549 25.106 39.7959 25.0549C40.0337 25.135 40.2152 25.1703 40.4777 25.3068C40.2055 25.2857 39.9923 25.2557 39.7316 25.1121C39.9747 25.2672 40.1421 25.4019 40.357 25.6213C40.0831 25.4891 39.8972 25.3729 39.6682 25.1738C39.8752 25.3949 39.9985 25.5843 40.1368 25.8521C39.9095 25.6415 39.7774 25.4759 39.603 25.246C39.7527 25.4997 39.7959 25.7023 39.8567 25.9763C39.7008 25.727 39.6303 25.5473 39.5193 25.3262C39.5977 25.5755 39.5792 25.7648 39.5677 25.9807C39.4832 25.7428 39.4726 25.6045 39.4109 25.4195C39.4136 25.453 39.4189 25.5147 39.4251 25.5904C39.4295 25.6662 39.4347 25.7569 39.4391 25.8477C39.4515 26.0335 39.4682 26.2352 39.5228 26.3242C39.6259 26.4898 39.7624 26.5753 39.9289 26.5938C40.0945 26.6131 40.2927 26.57 40.4812 26.4669C40.7014 26.3612 40.8732 26.1612 40.9763 25.9472C41.0555 25.7455 41.0987 25.5587 41.067 25.394C41.0353 25.2284 40.9419 25.0936 40.7737 24.9976C40.5728 24.8822 40.3711 24.8813 40.2055 24.8954C40.0373 24.9095 39.9122 24.95 39.8699 24.9562C40.0514 24.9685 40.2002 24.9439 40.4495 24.9923L40.4477 24.9906Z" fill="#0D808A"/>
<path d="M38.5494 26.5544C38.3468 26.4875 38.1645 26.4417 37.9777 26.2585C38.1301 26.4505 38.264 26.5888 38.4102 26.8434C38.1927 26.6742 38.0315 26.5333 37.8932 26.2717C38.0112 26.5342 38.0773 26.7385 38.1372 27.0407C37.9804 26.7817 37.8888 26.5809 37.8059 26.2884C37.8579 26.5879 37.8562 26.8081 37.8253 27.1103C37.7505 26.8108 37.7302 26.5976 37.7108 26.3095C37.6959 26.6046 37.621 26.8046 37.5232 27.0618C37.5276 26.7694 37.5664 26.5808 37.5954 26.3333C37.5232 26.5888 37.3999 26.728 37.2739 26.9129C37.3294 26.6645 37.3981 26.5377 37.4492 26.3536C37.4157 26.4126 37.3259 26.5729 37.2351 26.7324C37.1444 26.8988 37.0519 27.0733 37.0546 27.179C37.0581 27.5648 37.3558 27.7683 37.7813 27.815C38.0165 27.8405 38.2728 27.7797 38.4763 27.6476C38.6586 27.5322 38.7969 27.3798 38.8612 27.2239C38.9264 27.068 38.9185 26.9077 38.8242 26.7368C38.7124 26.535 38.5397 26.4179 38.397 26.343C38.2552 26.2717 38.1301 26.2329 38.0914 26.2135C38.2376 26.328 38.3671 26.3818 38.5494 26.5535V26.5544Z" fill="#0D808A"/>
<path d="M36.0645 26.9359C35.8971 26.7897 35.7333 26.6796 35.6082 26.4444C35.6954 26.6778 35.7755 26.8549 35.8187 27.1447C35.676 26.9077 35.5668 26.721 35.5166 26.4285C35.5447 26.7157 35.5368 26.9297 35.4937 27.2354C35.4329 26.9377 35.4073 26.7183 35.4223 26.4153C35.3739 26.7148 35.299 26.9245 35.1774 27.2019C35.1986 26.8936 35.2444 26.6849 35.3175 26.4056C35.2065 26.6805 35.0717 26.8478 34.9026 27.0654C34.9924 26.7862 35.0858 26.6197 35.1924 26.3915C35.04 26.6126 34.8788 26.7104 34.7053 26.8505C34.8295 26.6285 34.9334 26.5272 35.04 26.366C34.9907 26.4118 34.855 26.5342 34.7194 26.6664C34.5837 26.8003 34.4472 26.9412 34.419 27.0434C34.3133 27.4151 34.5458 27.6926 34.9246 27.8599C35.1343 27.9516 35.3791 27.9762 35.5994 27.9198C35.9958 27.8221 36.2671 27.5983 36.2424 27.2116C36.2098 26.7553 35.8028 26.5078 35.7412 26.4426C35.8469 26.5994 35.9596 26.7051 36.0645 26.935V26.9359Z" fill="#0D808A"/>
<path d="M33.5549 26.5202C33.4483 26.3273 33.3373 26.1722 33.3153 25.9097C33.3047 26.1572 33.3171 26.3475 33.2572 26.6364C33.2052 26.3651 33.1753 26.1528 33.2413 25.8648C33.1594 26.1396 33.0739 26.3369 32.9216 26.6047C32.9726 26.3079 33.0352 26.0938 33.1647 25.8199C33.0079 26.0797 32.8617 26.2453 32.6406 26.4541C32.7806 26.1784 32.9048 26.0057 33.0792 25.7741C32.8757 25.9872 32.6899 26.0885 32.445 26.218C32.6406 26.004 32.7956 25.8842 32.9779 25.7168C32.7568 25.8648 32.5763 25.8868 32.3596 25.9423C32.5666 25.7934 32.7005 25.7415 32.8572 25.6393C32.7938 25.6613 32.6229 25.7221 32.4512 25.7829C32.2759 25.8445 32.0891 25.9132 32.0178 25.9916C31.757 26.2744 31.8433 26.6329 32.1411 26.9536C32.3049 27.1324 32.5401 27.2513 32.7753 27.2856C33.2026 27.3455 33.5399 27.2125 33.6342 26.839C33.6923 26.6153 33.6403 26.418 33.5822 26.2612C33.5205 26.1079 33.4492 25.9934 33.4316 25.9538C33.4677 26.1361 33.5338 26.2691 33.5549 26.521V26.5202Z" fill="#0D808A"/>
<path d="M31.5033 25.1272C31.5033 24.9088 31.4831 24.7194 31.5914 24.4789C31.4628 24.6885 31.3765 24.863 31.1871 25.0841C31.2726 24.8233 31.3527 24.6207 31.5491 24.404C31.343 24.604 31.173 24.7344 30.9087 24.8938C31.099 24.6595 31.2585 24.5027 31.5051 24.3265C31.2417 24.4771 31.033 24.5503 30.737 24.6242C30.9933 24.4525 31.1871 24.3617 31.4514 24.2437C31.1677 24.3309 30.9581 24.3274 30.6806 24.323C30.9563 24.2296 31.1501 24.2005 31.3906 24.1442C31.1255 24.1644 30.9554 24.0966 30.7387 24.0402C30.9933 24.0094 31.1343 24.0305 31.3228 24.0164C31.2567 24.005 31.077 23.975 30.8973 23.9451C30.715 23.9143 30.5177 23.8843 30.4172 23.9187C30.0517 24.0402 29.9548 24.397 30.0587 24.8189C30.1142 25.0523 30.2595 25.2726 30.4516 25.4162C30.7978 25.6778 31.1598 25.728 31.4197 25.4443C31.5773 25.2761 31.6311 25.0753 31.6522 24.9141C31.6778 24.7476 31.6663 24.6181 31.6716 24.574C31.617 24.7476 31.6046 24.8982 31.5033 25.1272Z" fill="#0D808A"/>
<path d="M13.8462 31.9231C13.7819 32.0429 13.7017 32.0975 13.6127 32.072C13.7017 32.0975 13.7915 32.1204 13.8823 32.1407L14.0197 32.1689C14.0664 32.1803 14.1113 32.1812 14.158 32.1865C14.0364 32.0447 13.9334 31.9487 13.8453 31.9231H13.8462Z" fill="#0D808A"/>
<path d="M14.2849 31.6378C14.2655 31.8739 14.2215 32.0615 14.1589 32.1866C14.2514 32.1963 14.3448 32.206 14.4391 32.2104C14.5342 32.2183 14.6267 32.2139 14.7209 32.2113C14.5492 31.9717 14.4073 31.7841 14.2849 31.6378Z" fill="#0D808A"/>
<path d="M14.6891 31.3429C14.7103 31.5138 14.7217 31.667 14.727 31.8124C14.7323 31.9568 14.7297 32.0907 14.7209 32.2123C14.8142 32.2079 14.9111 32.2079 15.0054 32.1982C15.0988 32.1876 15.1921 32.1735 15.2873 32.1603L14.6891 31.3438V31.3429Z" fill="#0D808A"/>
<path d="M15.0618 31.0354C15.171 31.4459 15.2468 31.8256 15.2873 32.1594C15.3833 32.148 15.4767 32.1304 15.5692 32.1066C15.6625 32.0854 15.7559 32.0625 15.8493 32.0379C15.5524 31.6758 15.2908 31.3393 15.0626 31.0346L15.0618 31.0354Z" fill="#0D808A"/>
<path d="M15.4097 30.719C15.5912 31.1815 15.7383 31.6254 15.8493 32.0386C15.9409 32.0121 16.0316 31.9804 16.1224 31.9496C16.214 31.9188 16.3065 31.8879 16.3937 31.8483C16.0343 31.459 15.7031 31.0758 15.4097 30.7199V30.719Z" fill="#0D808A"/>
<path d="M15.7348 30.3941C15.9894 30.8927 16.2096 31.3798 16.3937 31.8476C16.4827 31.8106 16.5708 31.7709 16.6588 31.7304C16.7496 31.6925 16.8315 31.6441 16.9169 31.5983C16.4888 31.186 16.0977 30.7879 15.7348 30.3941Z" fill="#0D808A"/>
<path d="M16.0387 30.0595C16.2034 30.3211 16.3567 30.5783 16.5038 30.8355C16.65 31.0919 16.7874 31.3464 16.9161 31.5984C17.0006 31.5517 17.0869 31.5068 17.1697 31.4557C17.2508 31.4037 17.3327 31.3517 17.4137 31.2971C16.9222 30.8805 16.4633 30.4656 16.0387 30.0595Z" fill="#0D808A"/>
<path d="M16.3223 29.7139C16.7214 30.246 17.0852 30.7745 17.4146 31.2978C17.4965 31.2449 17.5767 31.1894 17.6524 31.1295L17.8824 30.9507C17.3309 30.5411 16.8112 30.1271 16.3223 29.7139Z" fill="#0D808A"/>
<path d="M16.5883 29.3608C17.049 29.8849 17.4842 30.4196 17.8823 30.9499C17.959 30.8891 18.0286 30.823 18.1017 30.7578C18.173 30.6918 18.2479 30.6283 18.3148 30.5579C17.715 30.1694 17.1345 29.7651 16.5883 29.3599V29.3608Z" fill="#0D808A"/>
<path d="M16.8385 29.0006C17.3565 29.5098 17.8497 30.0304 18.3148 30.5589L18.5166 30.3475C18.5853 30.2779 18.6478 30.203 18.7095 30.1281C18.0638 29.767 17.4401 29.3908 16.8385 29.0006Z" fill="#0D808A"/>
<path d="M17.0728 28.6331C17.641 29.1167 18.188 29.6162 18.7104 30.128L18.8954 29.9007C18.9544 29.8232 19.0099 29.743 19.0671 29.6629C18.3818 29.3361 17.7176 28.9934 17.0728 28.6322V28.6331Z" fill="#0D808A"/>
<path d="M17.2878 28.257C17.9044 28.7098 18.4937 29.1766 19.0671 29.6637C19.1226 29.5836 19.1817 29.5052 19.2319 29.4206L19.3843 29.1696C18.669 28.8859 17.9696 28.5811 17.2887 28.257H17.2878Z" fill="#0D808A"/>
<path d="M17.4851 27.8749C18.1334 28.2845 18.7703 28.7188 19.3834 29.1698C19.4354 29.087 19.4794 28.9989 19.5243 28.9117L19.6573 28.6492C18.9218 28.4149 18.196 28.1559 17.486 27.8749H17.4851Z" fill="#0D808A"/>
<path d="M17.6692 27.4811C18.3404 27.8485 19.0037 28.2378 19.6573 28.6483L19.7727 28.3823C19.8106 28.2933 19.8485 28.2043 19.8793 28.1136C19.1411 27.9269 18.4003 27.7155 17.6692 27.4811Z" fill="#0D808A"/>
<path d="M17.8409 27.075C18.5236 27.3983 19.2045 27.7445 19.8793 28.1127L19.9753 27.8405C20.0079 27.7497 20.0308 27.6572 20.0581 27.5648C19.3182 27.4238 18.5826 27.2617 17.8409 27.0741V27.075Z" fill="#0D808A"/>
<path d="M17.9995 26.6602C18.6866 26.9403 19.3702 27.2416 20.0581 27.5666C20.0837 27.4741 20.1119 27.3825 20.133 27.29L20.1947 27.0108C19.4679 26.9165 18.735 26.8003 18.0004 26.6611L17.9995 26.6602Z" fill="#0D808A"/>
<path d="M18.1458 26.2336C18.8231 26.4706 19.5076 26.7295 20.1938 27.0097C20.2361 26.8238 20.2581 26.6353 20.2872 26.4485C19.5833 26.3983 18.8689 26.327 18.1458 26.2336Z" fill="#0D808A"/>
<path d="M18.2831 25.7986C18.9376 25.995 19.6089 26.2117 20.2871 26.4487C20.2986 26.3553 20.3065 26.2611 20.3153 26.1677C20.3232 26.0743 20.3329 25.9809 20.3356 25.8867C19.6714 25.877 18.9826 25.8479 18.2831 25.7986Z" fill="#0D808A"/>
<path d="M18.4126 25.3536C19.0345 25.5131 19.6767 25.6901 20.3356 25.8874L20.3444 25.6073C20.3488 25.514 20.3435 25.4206 20.3417 25.3281C19.7207 25.3545 19.0794 25.3642 18.4117 25.3545L18.4126 25.3536Z" fill="#0D808A"/>
<path d="M18.535 24.8983C19.1138 25.0251 19.7172 25.1669 20.3426 25.3272C20.3408 25.1414 20.3285 24.9564 20.31 24.7723C19.7462 24.8287 19.1525 24.8718 18.535 24.8983Z" fill="#0D808A"/>
<path d="M18.6487 24.4331C19.1746 24.5335 19.7296 24.6454 20.3092 24.7722C20.296 24.5881 20.2651 24.4058 20.2378 24.2252C19.741 24.3062 19.2089 24.3758 18.6478 24.4331H18.6487Z" fill="#0D808A"/>
<path d="M18.7588 23.9576C19.216 24.0369 19.7137 24.125 20.2387 24.2254C20.2246 24.1347 20.2061 24.0448 20.1867 23.955C20.1673 23.8651 20.1506 23.7761 20.1277 23.6872C19.7128 23.785 19.2521 23.8766 18.7588 23.9576Z" fill="#0D808A"/>
<path d="M18.8672 23.4714L20.1277 23.6873C20.081 23.5102 20.0379 23.334 19.9762 23.1614C19.6547 23.2688 19.283 23.3737 18.8672 23.4714Z" fill="#0D808A"/>
<path d="M18.9755 22.9744C19.2609 23.0343 19.5965 23.0959 19.9762 23.1611C19.9471 23.0748 19.9189 22.9885 19.889 22.903C19.8564 22.8176 19.822 22.733 19.7886 22.6485C19.5692 22.7568 19.2997 22.8669 18.9755 22.9744Z" fill="#0D808A"/>
<path d="M19.0874 22.4654C19.2671 22.5288 19.5014 22.5887 19.7886 22.6486C19.7208 22.4804 19.6424 22.3148 19.5587 22.1518C19.4627 22.2514 19.3023 22.3571 19.0874 22.4654Z" fill="#0D808A"/>
<path d="M19.2072 21.9429C19.2591 22.0204 19.3816 22.0883 19.5595 22.1517C19.5207 22.0698 19.4723 21.9905 19.4265 21.9103C19.3798 21.831 19.3305 21.7526 19.2785 21.6751C19.3296 21.7526 19.3014 21.8443 19.2072 21.9429Z" fill="#0D808A"/>
<path d="M14.1721 29.8469C14.2626 29.8469 14.336 29.7736 14.336 29.6831C14.336 29.5926 14.2626 29.5193 14.1721 29.5193C14.0817 29.5193 14.0083 29.5926 14.0083 29.6831C14.0083 29.7736 14.0817 29.8469 14.1721 29.8469Z" fill="#0D808A"/>
<path d="M14.8636 29.0254C15.0144 29.0254 15.1367 28.9032 15.1367 28.7524C15.1367 28.6016 15.0144 28.4793 14.8636 28.4793C14.7128 28.4793 14.5905 28.6016 14.5905 28.7524C14.5905 28.9032 14.7128 29.0254 14.8636 29.0254Z" fill="#0D808A"/>
<path d="M15.4335 28.0834C15.245 28.0834 15.0926 27.931 15.0926 27.7425C15.0926 27.554 15.245 27.4016 15.4335 27.4016C15.622 27.4016 15.7744 27.554 15.7744 27.7425C15.7744 27.931 15.622 28.0834 15.4335 28.0834Z" fill="#0D808A"/>
<path d="M15.8783 27.0487C15.6696 27.0487 15.5004 26.8796 15.5004 26.6708C15.5004 26.462 15.6696 26.2929 15.8783 26.2929C16.0871 26.2929 16.2562 26.462 16.2562 26.6708C16.2562 26.8796 16.0871 27.0487 15.8783 27.0487Z" fill="#0D808A"/>
<path d="M16.1946 25.9403C15.9823 25.9403 15.8096 25.7676 15.8096 25.5553C15.8096 25.343 15.9823 25.1704 16.1946 25.1704C16.4069 25.1704 16.5795 25.343 16.5795 25.5553C16.5795 25.7676 16.4069 25.9403 16.1946 25.9403Z" fill="#0D808A"/>
<path d="M16.3779 24.7751C16.1761 24.7751 16.0132 24.6122 16.0132 24.4105C16.0132 24.2087 16.1761 24.0458 16.3779 24.0458C16.5796 24.0458 16.7425 24.2087 16.7425 24.4105C16.7425 24.6122 16.5796 24.7751 16.3779 24.7751Z" fill="#0D808A"/>
<path d="M16.4245 23.5645C16.251 23.5645 16.1109 23.4245 16.1109 23.2509C16.1109 23.0774 16.251 22.9373 16.4245 22.9373C16.598 22.9373 16.7381 23.0774 16.7381 23.2509C16.7381 23.4245 16.598 23.5645 16.4245 23.5645Z" fill="#0D808A"/>
<path d="M16.3293 22.3246C16.2034 22.3246 16.1012 22.2224 16.1012 22.0965C16.1012 21.9705 16.2034 21.8683 16.3293 21.8683C16.4553 21.8683 16.5575 21.9705 16.5575 22.0965C16.5575 22.2224 16.4553 22.3246 16.3293 22.3246Z" fill="#0D808A"/>
<path d="M16.088 21.0567C16.1405 21.0567 16.1831 21.0141 16.1831 20.9616C16.1831 20.909 16.1405 20.8664 16.088 20.8664C16.0354 20.8664 15.9929 20.909 15.9929 20.9616C15.9929 21.0141 16.0354 21.0567 16.088 21.0567Z" fill="#0D808A"/>
<path d="M17.8322 22.5659C17.7405 22.5659 17.6666 22.4919 17.6666 22.4003C17.6666 22.3087 17.7405 22.2347 17.8322 22.2347C17.9238 22.2347 17.9978 22.3087 17.9978 22.4003C17.9978 22.4919 17.9238 22.5659 17.8322 22.5659Z" fill="#0D808A"/>
<path d="M17.834 21.8804C17.6939 21.8804 17.5803 21.7667 17.5803 21.6267C17.5803 21.4866 17.6939 21.373 17.834 21.373C17.974 21.373 18.0876 21.4866 18.0876 21.6267C18.0876 21.7667 17.974 21.8804 17.834 21.8804Z" fill="#0D808A"/>
<path d="M17.7388 21.1478C17.5794 21.1478 17.4507 21.0191 17.4507 20.8597C17.4507 20.7003 17.5794 20.5717 17.7388 20.5717C17.8982 20.5717 18.0268 20.7003 18.0268 20.8597C18.0268 21.0191 17.8982 21.1478 17.7388 21.1478Z" fill="#0D808A"/>
<path d="M17.5485 20.3873C17.3953 20.3873 17.2711 20.2631 17.2711 20.1098C17.2711 19.9565 17.3953 19.8323 17.5485 19.8323C17.7018 19.8323 17.826 19.9565 17.826 20.1098C17.826 20.2631 17.7018 20.3873 17.5485 20.3873Z" fill="#0D808A"/>
<path d="M17.2666 19.6068C17.1468 19.6068 17.0499 19.5099 17.0499 19.3901C17.0499 19.2703 17.1468 19.1734 17.2666 19.1734C17.3864 19.1734 17.4833 19.2703 17.4833 19.3901C17.4833 19.5099 17.3864 19.6068 17.2666 19.6068Z" fill="#0D808A"/>
<path d="M16.8958 18.806C16.8438 18.806 16.8024 18.7637 16.8024 18.7126C16.8024 18.6615 16.8447 18.6192 16.8958 18.6192C16.9469 18.6192 16.9892 18.6615 16.9892 18.7126C16.9892 18.7637 16.9469 18.806 16.8958 18.806Z" fill="#0D808A"/>
<path d="M11.415 22.7306C10.8442 22.7306 10.3799 22.2664 10.3799 21.6956C10.3799 21.1248 10.8442 20.6606 11.415 20.6606C11.9858 20.6606 12.45 21.1248 12.45 21.6956C12.45 22.2664 11.9858 22.7306 11.415 22.7306ZM11.415 20.8526C10.9508 20.8526 10.5729 21.2305 10.5729 21.6947C10.5729 22.1589 10.9508 22.5368 11.415 22.5368C11.8792 22.5368 12.2571 22.1589 12.2571 21.6947C12.2571 21.2305 11.8792 20.8526 11.415 20.8526Z" fill="#0D808A"/>
<path d="M11.0917 22.3524C11.4317 22.3524 11.7074 22.0767 11.7074 21.7366C11.7074 21.3966 11.4317 21.1209 11.0917 21.1209C10.7516 21.1209 10.476 21.3966 10.476 21.7366C10.476 22.0767 10.7516 22.3524 11.0917 22.3524Z" fill="#0D808A"/>
<path d="M6.52258 20.0992C6.84498 20.2595 7.09251 20.5528 7.25811 20.8761C7.42372 21.202 7.5118 21.5632 7.53383 21.9226C7.55585 22.2811 7.51533 22.6361 7.4334 22.9735C7.34884 23.3117 7.22905 23.6341 7.05199 23.9442C6.99121 23.5919 6.9868 23.251 6.98063 22.9206C6.97623 22.5903 6.97358 22.2705 6.95508 21.957C6.93571 21.646 6.89872 21.3377 6.83177 21.032C6.76482 20.7246 6.66793 20.4234 6.52258 20.0974V20.0992Z" fill="#0D808A"/>
<path d="M7.75403 19.9238C8.0271 20.0506 8.24291 20.2876 8.39971 20.5474C8.5565 20.8099 8.65604 21.1033 8.70978 21.4001C8.76263 21.6979 8.76792 22.0035 8.72564 22.3004C8.67983 22.5964 8.59086 22.8906 8.42702 23.1407C8.43583 22.843 8.43846 22.5629 8.42261 22.2854C8.40763 22.0079 8.3768 21.7349 8.33011 21.4671C8.28255 21.1984 8.21825 20.9342 8.12752 20.6778C8.03767 20.4197 7.91963 20.1722 7.75491 19.9238H7.75403Z" fill="#0D808A"/>
<path d="M14.6892 13.1957C14.7033 13.4758 14.6584 13.7524 14.5632 14.0167C14.4672 14.2801 14.3184 14.5232 14.1043 14.7002C13.9704 14.8112 13.8118 14.8949 13.6269 14.9425C13.4454 14.9892 13.2437 14.9971 13.0279 14.9592C12.3593 14.8385 11.8986 14.3479 11.6379 13.7691C11.3727 13.1878 11.3031 12.5157 11.3119 11.973C11.3119 11.7158 11.289 11.3177 11.2837 10.9292C11.2802 10.5355 11.3181 10.154 11.3419 9.90651C11.4106 10.1514 11.6017 10.465 11.8457 10.7134C11.9735 10.8376 12.0977 10.9521 12.2289 11.0428C12.3531 11.1353 12.4773 11.2076 12.5804 11.2542C13.0464 11.4674 13.5767 11.6735 13.981 11.9537C14.3879 12.2391 14.661 12.5941 14.6892 13.1939V13.1957ZM13.234 12.9112C13.1371 12.8865 12.9988 12.8257 12.8658 12.7509C12.7293 12.6786 12.6024 12.5888 12.5249 12.5174C12.5716 12.6126 12.6218 12.7614 12.6711 12.9094C12.7169 13.06 12.7592 13.2107 12.7768 13.312C12.8103 13.5269 12.8693 13.7832 12.99 14.0017C13.0525 14.1092 13.1265 14.2087 13.2208 14.2836C13.3168 14.3576 13.4287 14.4113 13.5582 14.4289C13.7291 14.4492 13.8788 14.4034 13.9933 14.3162C14.1774 14.177 14.2761 13.933 14.2496 13.6907C14.2223 13.4256 14.0823 13.2662 13.8885 13.1517C13.6965 13.0371 13.4498 12.9702 13.234 12.9112Z" fill="#0D808A"/>
<path d="M27.9428 25.7512C27.8547 25.7512 27.7834 25.6798 27.7834 25.5917C27.7834 25.5036 27.8547 25.4323 27.9428 25.4323C28.0309 25.4323 28.1023 25.5036 28.1023 25.5917C28.1023 25.6798 28.0309 25.7512 27.9428 25.7512Z" fill="#0D808A"/>
<path d="M28.3965 26.926C28.5443 26.926 28.6642 26.8061 28.6642 26.6582C28.6642 26.5103 28.5443 26.3904 28.3965 26.3904C28.2486 26.3904 28.1287 26.5103 28.1287 26.6582C28.1287 26.8061 28.2486 26.926 28.3965 26.926Z" fill="#0D808A"/>
<path d="M29.0078 27.9804C28.822 27.9804 28.6713 27.8298 28.6713 27.6439C28.6713 27.458 28.822 27.3074 29.0078 27.3074C29.1937 27.3074 29.3443 27.458 29.3443 27.6439C29.3443 27.8298 29.1937 27.9804 29.0078 27.9804Z" fill="#0D808A"/>
<path d="M29.7618 28.8993C29.5548 28.8993 29.3875 28.7311 29.3875 28.5241C29.3875 28.3171 29.5548 28.1488 29.7618 28.1488C29.9688 28.1488 30.1371 28.3171 30.1371 28.5241C30.1371 28.7311 29.9697 28.8993 29.7618 28.8993Z" fill="#0D808A"/>
<path d="M30.6436 29.6621C30.4304 29.6621 30.2578 29.4895 30.2578 29.2763C30.2578 29.0631 30.4304 28.8905 30.6436 28.8905C30.8567 28.8905 31.0294 29.0631 31.0294 29.2763C31.0294 29.4895 30.8567 29.6621 30.6436 29.6621Z" fill="#0D808A"/>
<path d="M31.6346 30.2487C31.4293 30.2487 31.2637 30.0823 31.2637 29.8779C31.2637 29.6735 31.4302 29.5071 31.6346 29.5071C31.8389 29.5071 32.0054 29.6735 32.0054 29.8779C32.0054 30.0823 31.8389 30.2487 31.6346 30.2487Z" fill="#0D808A"/>
<path d="M32.7066 30.6449C32.8871 30.6449 33.0334 30.4986 33.0334 30.3181C33.0334 30.1376 32.8871 29.9913 32.7066 29.9913C32.5261 29.9913 32.3798 30.1376 32.3798 30.3181C32.3798 30.4986 32.5261 30.6449 32.7066 30.6449Z" fill="#0D808A"/>
<path d="M33.8333 30.8426C33.695 30.8426 33.5822 30.7307 33.5822 30.5924C33.5822 30.4541 33.6941 30.3422 33.8333 30.3422C33.9725 30.3422 34.0834 30.4541 34.0834 30.5924C34.0834 30.7307 33.9716 30.8426 33.8333 30.8426Z" fill="#0D808A"/>
<path d="M34.988 30.824C34.9141 30.824 34.8533 30.7641 34.8533 30.6892C34.8533 30.6143 34.9132 30.5544 34.988 30.5544C35.0629 30.5544 35.1228 30.6143 35.1228 30.6892C35.1228 30.7641 35.0629 30.824 34.988 30.824Z" fill="#0D808A"/>
<path d="M31.9121 14.8078C32.0187 14.9514 32.1578 15.0923 32.3305 15.2121C32.8502 15.5751 33.6527 15.3231 33.6527 15.3231C33.6527 15.3231 33.6121 14.4837 33.0924 14.1207C32.9198 14.0001 32.7401 13.9181 32.5683 13.8679C32.7119 13.7613 32.8528 13.6222 32.9726 13.4495C33.3356 12.9298 33.0836 12.1273 33.0836 12.1273C33.0836 12.1273 32.2441 12.1678 31.8812 12.6876C31.7605 12.8602 31.6786 13.0399 31.6284 13.2117C31.5218 13.0681 31.3827 12.9272 31.21 12.8074C30.6903 12.4444 29.8878 12.6964 29.8878 12.6964C29.8878 12.6964 29.9283 13.5358 30.448 13.8988C30.6207 14.0194 30.8004 14.1014 30.9722 14.1516C30.8286 14.2582 30.6876 14.3973 30.5678 14.57C30.2049 15.0897 30.4569 15.8922 30.4569 15.8922C30.4569 15.8922 31.2963 15.8517 31.6592 15.3319C31.7799 15.1593 31.8619 14.9796 31.9121 14.8078ZM33.0915 14.7929C33.1435 14.829 33.1567 14.9003 33.1197 14.9523C33.0836 15.0043 33.0123 15.0175 32.9603 14.9805C32.9083 14.9444 32.8951 14.873 32.9321 14.821C32.9682 14.7691 33.0396 14.7559 33.0915 14.7929ZM32.5903 12.9034C32.5384 12.8673 32.5251 12.7959 32.5621 12.7439C32.5983 12.692 32.6696 12.6787 32.7216 12.7157C32.7736 12.7519 32.7868 12.8232 32.7498 12.8752C32.7137 12.9272 32.6423 12.9404 32.5903 12.9034ZM30.5123 13.2733C30.4604 13.2372 30.4481 13.1659 30.4842 13.1139C30.5203 13.0619 30.5916 13.0487 30.6436 13.0857C30.6956 13.1218 30.7088 13.1932 30.6718 13.2452C30.6357 13.2971 30.5643 13.3103 30.5123 13.2733ZM31.7694 14.0106C31.4064 14.0749 31.0321 13.7887 30.7722 13.3147C31.3069 13.3958 31.705 13.6477 31.7694 14.0106C31.705 13.6477 31.9913 13.2733 32.4653 13.0135C32.3842 13.5482 32.1323 13.9463 31.7694 14.0106C32.1323 13.9463 32.5067 14.2326 32.7665 14.7065C32.2318 14.6255 31.8337 14.3736 31.7694 14.0106C31.8337 14.3736 31.5474 14.7479 31.0735 15.0078C31.1545 14.4731 31.4064 14.0749 31.7694 14.0106ZM30.8823 15.3504C30.8304 15.3143 30.818 15.243 30.8541 15.191C30.8903 15.139 30.9616 15.1258 31.0136 15.1628C31.0655 15.1989 31.0787 15.2703 31.0418 15.3223C31.0056 15.3742 30.9343 15.3874 30.8823 15.3504Z" fill="#0D808A"/>
<path d="M26.8347 33.3765C26.869 33.136 26.8549 32.8771 26.788 32.6595C26.7166 32.4357 26.5907 32.2525 26.4233 32.1213C26.2683 31.9988 26.1 31.9275 25.9476 31.8799C25.8728 31.857 25.7997 31.8394 25.7274 31.8227C25.6552 31.8059 25.5953 31.8006 25.5319 31.7918C25.6147 31.8341 25.6975 31.8685 25.7952 31.9099C25.8921 31.9495 26.0005 31.9918 26.1115 32.0279C25.9908 32.0358 25.8551 32.0173 25.7274 31.9795C25.5918 31.9345 25.4684 31.8773 25.3416 31.7839C25.5715 31.9803 25.8499 32.1697 26.1573 32.3943C25.9908 32.3424 25.8375 32.2701 25.6922 32.1706C25.5442 32.0684 25.4112 31.946 25.2879 31.8077C25.5204 32.0869 25.7662 32.3908 25.9767 32.7256C25.6851 32.4807 25.4438 32.1583 25.2341 31.8332C25.3319 32.0041 25.4226 32.1785 25.4975 32.3609L26.6893 34.4212C26.6735 34.2812 26.7096 34.0997 26.744 33.9121C26.7757 33.7192 26.8179 33.5368 26.8329 33.3774L26.8347 33.3765Z" fill="#0D808A"/>
<path d="M27.9103 31.5258C28.0301 31.4307 28.1904 31.3012 28.3348 31.1744C28.4793 31.0484 28.6273 30.926 28.7577 30.8749C28.7533 30.8722 28.748 30.8696 28.7436 30.8678H26.3635C26.5511 30.8934 26.7369 30.933 26.9175 30.9947C26.522 30.985 26.1353 30.9339 25.7724 30.896C25.953 30.926 26.1291 30.9735 26.2974 31.0396C26.4577 31.1048 26.611 31.1893 26.751 31.2933C26.3952 31.1656 26.0666 31.0502 25.7689 30.9744C25.916 31.0273 26.0463 31.0951 26.1688 31.1788C26.2815 31.2598 26.3846 31.3567 26.4647 31.4589C26.2295 31.3047 26.0164 31.1876 25.8279 31.1021C25.8605 31.1541 25.8992 31.2087 25.9547 31.2695C26.0041 31.3285 26.0595 31.3902 26.1265 31.4545C26.2613 31.5822 26.4119 31.7108 26.6145 31.7936C26.8118 31.8738 27.0382 31.8949 27.2611 31.843C27.4918 31.7954 27.7103 31.6756 27.9103 31.5276V31.5258Z" fill="#0D808A"/>
<path d="M26.7677 32.0986C26.9148 32.244 27.0355 32.4395 27.0936 32.6501C27.1245 32.7558 27.1483 32.8703 27.1571 32.983C27.165 33.094 27.1641 33.2085 27.1571 33.3195C27.1544 33.405 27.1368 33.5301 27.121 33.6736C27.5218 33.5847 27.9463 33.2667 28.178 32.8236C28.3912 32.4272 28.4361 31.9603 28.3374 31.6001C28.2124 31.6943 28.0908 31.7789 28.0168 31.83C27.9305 31.8934 27.8265 31.9489 27.7244 31.9965C27.6213 32.044 27.52 32.0845 27.4072 32.1075C27.187 32.1568 26.9739 32.1585 26.7668 32.0986H26.7677Z" fill="#0D808A"/>
<path d="M23.5631 34.0261C23.675 33.9838 23.7877 33.9204 23.889 33.8543C23.9903 33.7891 24.0828 33.7134 24.1612 33.6244C24.3189 33.4517 24.4131 33.2571 24.4431 33.0421C24.4713 32.8457 24.4475 32.6695 24.414 32.5092C24.3964 32.4299 24.3753 32.3568 24.3532 32.2925C24.3312 32.2247 24.3083 32.1586 24.2845 32.1058C24.2907 32.193 24.2995 32.2899 24.3127 32.3956C24.3268 32.4986 24.3462 32.6061 24.3691 32.725C24.2317 32.5259 24.1665 32.2353 24.1973 31.9393C24.1445 32.2273 24.1128 32.5797 24.0758 32.9461C24.0344 32.7867 24.0247 32.6061 24.0379 32.4326C24.0502 32.2608 24.0916 32.0793 24.1515 31.9023C24.0238 32.2458 23.8829 32.6105 23.6988 32.9584C23.7692 32.5761 23.9234 32.2167 24.1013 31.8714C24.0018 32.0432 23.8961 32.2053 23.7772 32.3612L22.5853 34.4216C22.6963 34.3423 22.8743 34.278 23.0548 34.2137C23.2336 34.1556 23.4204 34.0842 23.5622 34.0261H23.5631Z" fill="#0D808A"/>
<path d="M25.7019 34.0286C25.8463 34.0885 26.0375 34.1616 26.2189 34.2215C26.403 34.2867 26.5827 34.3536 26.6911 34.4355C26.6911 34.4302 26.6911 34.425 26.6911 34.4197L25.4993 32.3593C25.5733 32.5372 25.6332 32.7205 25.6684 32.9046C25.479 32.5566 25.331 32.1972 25.1804 31.8651C25.309 32.2052 25.3689 32.5681 25.3249 32.9063C25.257 32.5328 25.1971 32.1999 25.1108 31.8969C25.1698 32.2069 25.1372 32.4994 25.0395 32.7434C25.0535 32.4571 25.0527 32.2263 25.0306 32.0122C24.9752 32.1206 24.9214 32.273 24.8747 32.4465C24.8316 32.6262 24.7954 32.8271 24.8245 33.0402C24.8536 33.2552 24.9478 33.4516 25.1046 33.6242C25.1434 33.6674 25.1866 33.7097 25.2324 33.7493C25.2773 33.7863 25.3257 33.8216 25.3768 33.855C25.4772 33.9202 25.5909 33.9863 25.7028 34.0277L25.7019 34.0286Z" fill="#0D808A"/>
<path d="M24.636 33.3294C24.5841 33.5311 24.4757 33.7205 24.3224 33.8879C24.1709 34.0429 23.9736 34.1856 23.7745 34.2737C23.7005 34.308 23.5781 34.3715 23.4486 34.4217C23.7296 34.722 24.2194 34.9282 24.7144 34.9097C25.161 34.9035 25.5891 34.7027 25.8516 34.4366C25.7098 34.3811 25.5742 34.3124 25.4922 34.2746C25.2949 34.1865 25.0985 34.0429 24.9479 33.8887C24.7955 33.7205 24.6871 33.532 24.6352 33.3303L24.636 33.3294Z" fill="#0D808A"/>
<path d="M21.3645 31.5135C21.5636 31.6624 21.782 31.784 22.0128 31.8315C22.2357 31.8835 22.4612 31.865 22.6594 31.7848C22.8443 31.7109 22.9844 31.6025 23.1042 31.495C23.2275 31.3841 23.3139 31.2783 23.3914 31.1806C23.2399 31.2792 23.0778 31.4043 22.8954 31.5637C22.9536 31.4536 23.0276 31.3497 23.1324 31.2563C23.2293 31.1647 23.3561 31.0837 23.4935 31.022C23.3552 31.0722 23.2037 31.133 23.0461 31.2017C22.8849 31.2739 22.7228 31.3471 22.5581 31.4202C22.6197 31.362 22.6858 31.3083 22.7545 31.2607C22.8267 31.2123 22.9051 31.1682 22.9844 31.1312C23.1447 31.0555 23.3121 31.0017 23.4988 30.9639C23.135 31.0255 22.7527 31.0854 22.3563 31.0995C22.7245 30.9692 23.1148 30.9225 23.5032 30.904C23.3059 30.904 23.1086 30.8934 22.9122 30.8679H20.532C20.6615 30.9242 20.806 31.0458 20.9478 31.1691C21.0888 31.2942 21.2456 31.4202 21.3636 31.5144L21.3645 31.5135Z" fill="#0D808A"/>
<path d="M22.433 33.369C22.4471 33.5302 22.4894 33.7187 22.522 33.9143C22.5564 34.1063 22.5925 34.2895 22.5722 34.4287C22.5766 34.4261 22.581 34.4234 22.5854 34.4208L23.7772 32.3604C23.661 32.511 23.5324 32.6529 23.3879 32.7797C23.594 32.4423 23.8327 32.1332 24.0477 31.8354C23.9305 31.9781 23.7993 32.1102 23.6627 32.216C23.5244 32.3234 23.3694 32.4194 23.2152 32.482C23.498 32.245 23.7684 32.0125 23.9834 31.794C23.8662 31.8918 23.7332 31.9808 23.6063 32.0363C23.5412 32.0653 23.4751 32.0909 23.4082 32.1111C23.3421 32.1305 23.2795 32.142 23.2144 32.1517C23.3403 32.0882 23.4522 32.0283 23.557 31.9658C23.6627 31.9024 23.7579 31.8407 23.8424 31.7808C23.7182 31.787 23.5623 31.8134 23.3852 31.8627C23.2135 31.9103 23.017 31.9843 22.847 32.1164C22.6788 32.2468 22.5546 32.4291 22.4806 32.6529C22.4136 32.8696 22.3978 33.1285 22.4321 33.369H22.433Z" fill="#0D808A"/>
<path d="M22.5061 32.095C22.2991 32.1549 22.0859 32.1532 21.8648 32.103C21.7521 32.0792 21.6516 32.0378 21.5477 31.9902C21.4446 31.9418 21.3425 31.8854 21.2553 31.822C21.1874 31.7753 21.08 31.6986 20.9637 31.6132C20.8456 32.0061 20.9108 32.5337 21.1769 32.9556C21.4129 33.3371 21.7864 33.6145 22.1537 33.7026C22.137 33.5458 22.1168 33.4067 22.1141 33.3124C22.1071 33.2014 22.1071 33.0887 22.1141 32.9777C22.1238 32.8649 22.1476 32.7513 22.1784 32.6456C22.2374 32.4359 22.3581 32.2404 22.5052 32.0959L22.5061 32.095Z" fill="#0D808A"/>
<path d="M22.4418 28.3575C22.4074 28.598 22.4215 28.857 22.4885 29.0745C22.5598 29.2983 22.6858 29.4815 22.8531 29.6127C23.0082 29.7352 23.1764 29.8065 23.3288 29.8541C23.4037 29.877 23.4768 29.8946 23.549 29.9114C23.6213 29.9281 23.6812 29.9334 23.7446 29.9422C23.6618 29.8999 23.579 29.8656 23.4812 29.8242C23.3843 29.7845 23.276 29.7422 23.165 29.7061C23.2857 29.6982 23.4213 29.7167 23.549 29.7546C23.6847 29.7995 23.808 29.8567 23.9349 29.9501C23.705 29.7537 23.4266 29.5643 23.1192 29.3397C23.2857 29.3916 23.4389 29.4639 23.5843 29.5634C23.7323 29.6656 23.8653 29.788 23.9886 29.9263C23.756 29.6471 23.5103 29.3432 23.2998 29.0085C23.5913 29.2533 23.8327 29.5757 24.0423 29.9008C23.9445 29.7299 23.8538 29.5555 23.7789 29.3731L22.5871 27.3128C22.603 27.4528 22.5669 27.6343 22.5325 27.8219C22.5008 28.0148 22.4585 28.1972 22.4435 28.3566L22.4418 28.3575Z" fill="#0D808A"/>
<path d="M21.3662 30.2082C21.2464 30.3033 21.0861 30.4328 20.9416 30.5596C20.7972 30.6856 20.6492 30.808 20.5188 30.8591C20.5232 30.8618 20.5285 30.8644 20.5329 30.8662H22.913C22.7254 30.8406 22.5395 30.801 22.3589 30.7393C22.7545 30.749 23.1412 30.8001 23.5041 30.838C23.3235 30.808 23.1473 30.7605 22.9791 30.6944C22.8188 30.6292 22.6655 30.5447 22.5254 30.4407C22.8813 30.5684 23.2099 30.6838 23.5076 30.7596C23.3605 30.7067 23.2301 30.6389 23.1077 30.5552C22.9949 30.4742 22.8919 30.3773 22.8117 30.2751C23.0469 30.4293 23.2601 30.5464 23.4486 30.6319C23.416 30.5799 23.3764 30.5253 23.3217 30.4645C23.2724 30.4055 23.2169 30.3438 23.15 30.2795C23.0152 30.1518 22.8646 30.0232 22.662 29.9404C22.4647 29.8602 22.2383 29.8391 22.0154 29.8911C21.7846 29.9386 21.5662 30.0584 21.3662 30.2064V30.2082Z" fill="#0D808A"/>
<path d="M22.5087 29.6356C22.3607 29.4902 22.2409 29.2947 22.1828 29.0842C22.1519 28.9785 22.1282 28.8639 22.1194 28.7512C22.1114 28.6402 22.1123 28.5257 22.1194 28.4147C22.122 28.3293 22.1396 28.2042 22.1555 28.0606C21.7547 28.1496 21.3301 28.4676 21.0984 28.9106C20.8853 29.307 20.8403 29.7739 20.939 30.1342C21.0641 30.0399 21.1856 29.9553 21.2596 29.9043C21.3459 29.8408 21.4499 29.7853 21.5521 29.7378C21.6551 29.6902 21.7564 29.6497 21.8692 29.6268C22.0894 29.5775 22.3026 29.5757 22.5096 29.6356H22.5087Z" fill="#0D808A"/>
<path d="M25.7133 27.7099C25.6015 27.7522 25.4887 27.8156 25.3874 27.8817C25.2861 27.9469 25.1936 28.0226 25.1152 28.1116C24.9576 28.2843 24.8633 28.4789 24.8334 28.6939C24.8052 28.8903 24.8289 29.0665 24.8624 29.2268C24.88 29.3061 24.9012 29.3792 24.9232 29.4435C24.9452 29.5113 24.9681 29.5774 24.9919 29.6302C24.9857 29.543 24.9769 29.4461 24.9637 29.3404C24.9496 29.2374 24.9302 29.1299 24.9073 29.011C25.0448 29.2101 25.1099 29.5007 25.0791 29.7967C25.132 29.5087 25.1637 29.1563 25.2007 28.7899C25.2421 28.9493 25.2518 29.1299 25.2386 29.3034C25.2262 29.4752 25.1848 29.6567 25.1249 29.8337C25.2526 29.4902 25.3936 29.1255 25.5777 28.7776C25.5072 29.1599 25.3531 29.5193 25.1751 29.8646C25.2747 29.6928 25.3804 29.5307 25.4993 29.3748L26.6911 27.3144C26.5801 27.3937 26.4022 27.458 26.2216 27.5223C26.0428 27.5804 25.856 27.6518 25.7142 27.7099H25.7133Z" fill="#0D808A"/>
<path d="M23.5745 27.7055C23.4301 27.6456 23.2389 27.5725 23.0575 27.5126C22.8734 27.4474 22.6937 27.3805 22.5853 27.2986C22.5853 27.3038 22.5853 27.3091 22.5853 27.3144L23.7772 29.3748C23.7032 29.1968 23.6433 29.0136 23.608 28.8295C23.7974 29.1775 23.9454 29.5369 24.096 29.8689C23.9674 29.5289 23.9075 29.166 23.9516 28.8278C24.0194 29.2004 24.0793 29.5342 24.1656 29.8372C24.1066 29.5272 24.1392 29.2347 24.237 28.9907C24.2229 29.277 24.2238 29.5078 24.2458 29.7218C24.3013 29.6135 24.355 29.4611 24.4017 29.2876C24.4457 29.1079 24.481 28.907 24.4519 28.6939C24.4228 28.4789 24.3286 28.2825 24.1718 28.1098C24.133 28.0667 24.0899 28.0244 24.0441 27.9848C23.9991 27.9478 23.9507 27.9125 23.8996 27.8791C23.7992 27.8139 23.6855 27.7478 23.5737 27.7064L23.5745 27.7055Z" fill="#0D808A"/>
<path d="M24.6404 28.405C24.6924 28.2032 24.8007 28.0139 24.954 27.8465C25.1055 27.6915 25.3028 27.5488 25.5019 27.4607C25.5759 27.4263 25.6983 27.3629 25.8278 27.3127C25.5468 27.0123 25.0571 26.8062 24.562 26.8247C24.1154 26.8308 23.6873 27.0317 23.4248 27.2977C23.5666 27.3532 23.7023 27.4219 23.7842 27.4598C23.9815 27.5479 24.1779 27.6915 24.3286 27.8456C24.481 28.0139 24.5893 28.2024 24.6413 28.4041L24.6404 28.405Z" fill="#0D808A"/>
<path d="M27.912 30.2204C27.7129 30.0715 27.4945 29.95 27.2637 29.9024C27.0408 29.8504 26.8153 29.8689 26.6171 29.9491C26.4322 30.0231 26.2921 30.1314 26.1723 30.2389C26.049 30.3499 25.9626 30.4556 25.8851 30.5534C26.0366 30.4547 26.1987 30.3296 26.3811 30.1702C26.3229 30.2803 26.2489 30.3843 26.1441 30.4776C26.0472 30.5692 25.9204 30.6503 25.7829 30.7119C25.9212 30.6617 26.0728 30.6009 26.2304 30.5322C26.3916 30.46 26.5537 30.3869 26.7184 30.3138C26.6568 30.3719 26.5907 30.4257 26.522 30.4732C26.4498 30.5217 26.3714 30.5657 26.2921 30.6027C26.1318 30.6785 25.9644 30.7322 25.7777 30.7701C26.1415 30.7084 26.5238 30.6485 26.9202 30.6344C26.5519 30.7648 26.1617 30.8115 25.7733 30.83C25.9706 30.83 26.1679 30.8405 26.3643 30.8661H28.7444C28.615 30.8097 28.4705 30.6882 28.3287 30.5648C28.1877 30.4397 28.0309 30.3138 27.9129 30.2195L27.912 30.2204Z" fill="#0D808A"/>
<path d="M26.8435 28.3656C26.8294 28.2044 26.7871 28.0159 26.7546 27.8203C26.7202 27.6283 26.6841 27.4451 26.7043 27.3059C26.6999 27.3086 26.6955 27.3112 26.6911 27.3138L25.4993 29.3742C25.6156 29.2236 25.7442 29.0818 25.8887 28.9549C25.6825 29.2923 25.4438 29.6015 25.2289 29.8992C25.346 29.7565 25.4773 29.6244 25.6138 29.5187C25.7521 29.4112 25.9072 29.3152 26.0613 29.2527C25.7785 29.4896 25.5081 29.7222 25.2932 29.9406C25.4103 29.842 25.5434 29.7539 25.6702 29.6984C25.7354 29.6693 25.8015 29.6438 25.8684 29.6235C25.9345 29.6041 25.997 29.5927 26.0622 29.583C25.9362 29.6464 25.8243 29.7063 25.7195 29.7688C25.6138 29.8323 25.5187 29.8939 25.4341 29.9538C25.5583 29.9477 25.7142 29.9212 25.8913 29.8719C26.0631 29.8243 26.2595 29.7503 26.4295 29.6182C26.5978 29.4878 26.722 29.3055 26.796 29.0818C26.8629 28.8651 26.8788 28.6061 26.8444 28.3656H26.8435Z" fill="#0D808A"/>
<path d="M26.7704 29.6391C26.9774 29.5792 27.1906 29.581 27.4117 29.6312C27.5244 29.655 27.6248 29.6964 27.7288 29.7439C27.8318 29.7924 27.934 29.8488 28.0212 29.9122C28.0891 29.9589 28.1965 30.0355 28.3128 30.121C28.4308 29.7281 28.3656 29.2004 28.0996 28.7785C27.8635 28.3971 27.4901 28.1196 27.1227 28.0315C27.1395 28.1883 27.1597 28.3275 27.1624 28.4217C27.1694 28.5327 27.1694 28.6455 27.1624 28.7565C27.1527 28.8692 27.1289 28.9829 27.0981 29.0886C27.039 29.2982 26.9184 29.4938 26.7713 29.6382L26.7704 29.6391Z" fill="#0D808A"/>
<path d="M25.0509 30.8671C25.0509 31.0952 24.8659 31.2802 24.6378 31.2802C24.4096 31.2802 24.2247 31.0952 24.2247 30.8671C24.2247 30.6389 24.4096 30.454 24.6378 30.454C24.8659 30.454 25.0509 30.6389 25.0509 30.8671Z" fill="#0D808A"/>
<path d="M29.2148 35.2901C30.0595 35.3377 30.9025 35.2223 31.6883 34.9616C32.0803 34.8294 32.4643 34.6691 32.8 34.4577C33.1356 34.2472 33.4271 33.975 33.5822 33.6623C33.7416 33.3513 33.7407 33.0078 33.6015 32.7224C33.5355 32.5806 33.4342 32.4652 33.3232 32.385C33.2113 32.3101 33.0854 32.2679 32.9479 32.2634C32.8132 32.2564 32.6775 32.2899 32.5753 32.348C32.5234 32.3762 32.482 32.4132 32.4476 32.4511C32.4141 32.4898 32.3912 32.526 32.3736 32.5744C32.3366 32.6678 32.3278 32.7858 32.3525 32.8853C32.3736 32.9875 32.4309 33.0527 32.4775 33.0835C32.7462 33.2632 32.8193 33.627 32.6396 33.8957C32.4599 34.1644 32.0961 34.2375 31.8275 34.0578C31.794 34.0358 31.764 34.0111 31.7367 33.9838L31.6848 33.9309C31.4275 33.6693 31.2928 33.3293 31.2725 33.0113C31.2479 32.6907 31.3174 32.3753 31.4786 32.0961C31.557 31.9569 31.6689 31.8265 31.7922 31.7244C31.9155 31.6222 32.0521 31.5403 32.1948 31.4856C32.4793 31.3755 32.7779 31.3509 33.0607 31.4011C33.3426 31.4469 33.6192 31.579 33.8332 31.7719C34.0429 31.9657 34.1935 32.2053 34.2772 32.459C34.3635 32.7118 34.3882 32.9796 34.3538 33.2403C34.3177 33.5055 34.2199 33.7451 34.0825 33.9538C33.805 34.3723 33.4095 34.6436 33.0096 34.8374C32.6035 35.0312 32.1842 35.1501 31.7632 35.2399C30.9175 35.417 30.0481 35.432 29.2148 35.2884V35.2901Z" fill="#0D808A"/>
<path d="M31.7967 35.1586C32.7462 34.8688 33.5928 34.2945 34.2138 33.5528C34.523 33.1802 34.7723 32.7565 35.0585 32.3416C35.2021 32.1337 35.3554 31.9276 35.5307 31.7338C35.706 31.5382 35.9042 31.3621 36.1129 31.2044C36.3244 31.0467 36.5551 30.9058 36.8097 30.8001C37.0643 30.6952 37.3444 30.623 37.636 30.6195C37.9364 30.6116 38.2385 30.6873 38.5054 30.8274C38.7723 30.9674 39.0154 31.1771 39.1819 31.4625C39.2647 31.6052 39.322 31.7681 39.3493 31.9382C39.3783 32.1064 39.3687 32.294 39.3246 32.4605C39.2356 32.7979 39.0348 33.0868 38.7609 33.2903C38.4896 33.4929 38.1213 33.6171 37.7426 33.566C37.3691 33.5149 37.0476 33.3185 36.8159 33.0551L36.8027 33.0401C36.6256 32.8393 36.6459 32.5336 36.8458 32.3566C37.0467 32.1795 37.3523 32.1989 37.5294 32.3997C37.54 32.4121 37.5505 32.4253 37.5602 32.4385C37.6439 32.5556 37.7672 32.6428 37.8853 32.6702C37.9998 32.6992 38.1416 32.6754 38.2755 32.5962C38.4085 32.5169 38.5177 32.383 38.568 32.2447C38.5935 32.1733 38.6049 32.1082 38.5988 32.0306C38.5935 31.9549 38.5768 31.8783 38.5415 31.8025C38.4023 31.4942 38.013 31.2423 37.6272 31.222C37.2167 31.1938 36.778 31.3541 36.3869 31.6008C36.1896 31.7267 36.002 31.8668 35.8328 32.0271C35.6611 32.1883 35.5025 32.368 35.3475 32.5565C35.0383 32.9335 34.7485 33.3467 34.3926 33.7122C33.6791 34.4363 32.7665 34.9437 31.7958 35.1569L31.7967 35.1586Z" fill="#0D808A"/>
<path d="M26.7176 9.97432C26.6039 10.0113 26.4903 10.0289 26.374 10.0272L27.0682 10.0386C26.951 9.99722 26.8338 9.97608 26.7176 9.97432Z" fill="#0D808A"/>
<path d="M27.4081 9.87859C27.2945 9.94994 27.1817 10.0001 27.0681 10.0389C27.1835 10.0389 27.2989 10.0477 27.4143 10.0548L27.7596 10.0759C27.6433 9.99046 27.5262 9.92439 27.409 9.87859H27.4081Z" fill="#0D808A"/>
<path d="M28.1049 9.80874C27.9877 9.9118 27.8732 10.0052 27.7596 10.0765C27.8741 10.0845 27.9886 10.088 28.1031 10.1029L28.4458 10.1391C28.3348 10.0096 28.2203 9.89947 28.1049 9.80874Z" fill="#0D808A"/>
<path d="M28.8061 9.7656C28.6828 9.90654 28.563 10.0343 28.4467 10.1382C28.5603 10.1514 28.6749 10.1611 28.7885 10.1761L29.1276 10.2272C29.0246 10.0536 28.9171 9.89949 28.8061 9.76472V9.7656Z" fill="#0D808A"/>
<path d="M29.5108 9.75267C29.3778 9.93061 29.2509 10.0892 29.1276 10.2283L29.4659 10.2794C29.5786 10.2988 29.6896 10.3226 29.8015 10.3446C29.7557 10.2363 29.709 10.1323 29.6606 10.0337C29.6121 9.93501 29.5619 9.83988 29.5108 9.75267Z" fill="#0D808A"/>
<path d="M30.2173 9.76937C30.0719 9.9799 29.9336 10.1719 29.8006 10.3446L30.1353 10.4107C30.2472 10.4318 30.3564 10.4626 30.4674 10.4882C30.3916 10.2301 30.3089 9.98519 30.2173 9.76937Z" fill="#0D808A"/>
<path d="M30.9255 9.81582C30.7643 10.0581 30.6119 10.2827 30.4674 10.4879L30.7977 10.5681C30.9078 10.5928 31.0162 10.6289 31.1246 10.6588C31.0673 10.3593 31.0021 10.0722 30.9255 9.81494V9.81582Z" fill="#0D808A"/>
<path d="M31.6346 9.89272L31.1246 10.66L31.4496 10.7542C31.558 10.7833 31.6645 10.8229 31.7711 10.8582C31.7368 10.5181 31.6918 10.1913 31.6346 9.89272Z" fill="#0D808A"/>
<path d="M32.3419 9.99906L31.7711 10.857L32.0909 10.9654C32.1975 10.9989 32.3014 11.0438 32.4062 11.0825C32.3974 10.7038 32.3772 10.3373 32.3419 9.99818V9.99906Z" fill="#0D808A"/>
<path d="M33.0457 10.1373L32.4053 11.0834L32.7189 11.205C32.8238 11.2428 32.9251 11.293 33.0281 11.3362C33.0484 10.9213 33.0554 10.5161 33.0466 10.1382L33.0457 10.1373Z" fill="#0D808A"/>
<path d="M33.7469 10.3067C33.4924 10.6653 33.2536 11.0088 33.0281 11.3356L33.3347 11.4695C33.4369 11.5144 33.5355 11.5664 33.636 11.614C33.6879 11.1638 33.7258 10.7243 33.7469 10.3067Z" fill="#0D808A"/>
<path d="M34.4419 10.5068C34.1574 10.8909 33.8887 11.2599 33.6359 11.6141L33.9354 11.7594L34.2288 11.9171C34.3168 11.4326 34.3873 10.9622 34.441 10.5068H34.4419Z" fill="#0D808A"/>
<path d="M35.129 10.7381C34.8127 11.1406 34.5115 11.537 34.2296 11.9158C34.3265 11.9686 34.426 12.018 34.5212 12.0743L34.8075 12.2426C34.9334 11.7282 35.04 11.2261 35.1299 10.7381H35.129Z" fill="#0D808A"/>
<path d="M35.8073 11.0009C35.4567 11.4237 35.1219 11.8404 34.8066 12.2429C34.9017 12.2984 34.9969 12.3539 35.0894 12.4147L35.3677 12.5926C35.5333 12.05 35.6795 11.5189 35.8073 11V11.0009Z" fill="#0D808A"/>
<path d="M36.4768 11.2933C36.0883 11.7364 35.7201 12.168 35.3677 12.5935C35.4611 12.6507 35.551 12.7151 35.6417 12.7776L35.9121 12.9652C36.1209 12.3971 36.3085 11.8395 36.4768 11.2933Z" fill="#0D808A"/>
<path d="M37.1348 11.6139C36.7058 12.0746 36.2997 12.5239 35.9121 12.9652C36.0011 13.0295 36.0883 13.0964 36.1764 13.1616C36.2636 13.2286 36.3534 13.2902 36.4371 13.3607C36.6943 12.7652 36.9234 12.1865 37.1348 11.6139Z" fill="#0D808A"/>
<path d="M37.7813 11.9628C37.3109 12.4376 36.8634 12.9036 36.4371 13.3608L36.6925 13.566C36.778 13.6329 36.8608 13.7052 36.9427 13.7765C37.2457 13.1626 37.5267 12.5556 37.7813 11.9628Z" fill="#0D808A"/>
<path d="M38.4155 12.3388C37.902 12.825 37.4113 13.3051 36.9427 13.7764L37.1902 13.9895L37.4298 14.2106C37.7822 13.5799 38.1099 12.9554 38.4155 12.3388Z" fill="#0D808A"/>
<path d="M39.033 12.745C38.4763 13.2366 37.9425 13.7263 37.4298 14.2108C37.5919 14.3553 37.7416 14.5129 37.8967 14.6627C38.3001 14.0188 38.678 13.3793 39.0321 12.7459L39.033 12.745Z" fill="#0D808A"/>
<path d="M39.6356 13.1774C39.0313 13.6769 38.4526 14.171 37.8967 14.6617L38.1205 14.896C38.1953 14.9735 38.2693 15.0519 38.3398 15.133C38.7987 14.4758 39.2304 13.8231 39.6347 13.1774H39.6356Z" fill="#0D808A"/>
<path d="M40.2231 13.6353C39.5704 14.1365 38.9423 14.6368 38.3407 15.1328L38.5556 15.3732L38.7626 15.619C39.2762 14.9566 39.7624 14.2951 40.2231 13.6362V13.6353Z" fill="#0D808A"/>
<path d="M40.7913 14.1234C40.0884 14.6211 39.4154 15.1179 38.7626 15.6183C38.8331 15.6993 38.8974 15.7839 38.9644 15.8676C39.0304 15.9513 39.0974 16.0332 39.1599 16.1195C39.7342 15.4527 40.276 14.7885 40.7922 14.1234H40.7913Z" fill="#0D808A"/>
<path d="M41.3418 14.6386C40.5869 15.1284 39.8584 15.6243 39.159 16.1194C39.2215 16.2048 39.2867 16.2885 39.3484 16.3739L39.529 16.632C40.1623 15.9714 40.7666 15.3063 41.3418 14.6386Z" fill="#0D808A"/>
<path d="M41.8712 15.1873C41.06 15.663 40.2813 16.1439 39.529 16.6328C39.588 16.7191 39.6435 16.8072 39.7016 16.8936C39.7607 16.9799 39.8109 17.0688 39.8655 17.1561C40.5658 16.5086 41.237 15.848 41.8721 15.1864L41.8712 15.1873Z" fill="#0D808A"/>
<path d="M42.3795 15.7735C41.5092 16.2218 40.675 16.6834 39.8655 17.1573C39.921 17.2445 39.9694 17.3335 40.0196 17.4207C40.0716 17.5088 40.1156 17.5969 40.1623 17.6841C40.9375 17.064 41.6774 16.4227 42.3804 15.7735H42.3795Z" fill="#0D808A"/>
<path d="M42.8631 16.4112C41.925 16.8112 41.03 17.2375 40.1614 17.6841C40.2099 17.7722 40.2478 17.8585 40.2892 17.9448C40.3314 18.0312 40.3623 18.114 40.3993 18.1976C41.2616 17.6374 42.0853 17.0349 42.8631 16.4121V16.4112Z" fill="#0D808A"/>
<path d="M26.5185 11.5311C25.3707 10.8995 24.0229 10.6925 22.7615 10.9013C22.4471 10.955 22.1326 11.0272 21.841 11.1373C21.5486 11.2483 21.2693 11.3946 21.0209 11.5751C20.7734 11.7557 20.5558 11.9733 20.4158 12.2208C20.2739 12.4683 20.222 12.7405 20.2695 13.003C20.288 13.1352 20.3409 13.2638 20.4008 13.3889L20.5056 13.5738C20.5444 13.6285 20.5849 13.6813 20.6298 13.7306C20.8113 13.928 21.0553 14.0707 21.3134 14.1402C21.5724 14.2107 21.8419 14.2063 22.0806 14.1244C22.3211 14.0425 22.5343 13.8839 22.662 13.691C22.7281 13.5915 22.7642 13.499 22.7862 13.3862C22.8065 13.2752 22.8073 13.1572 22.7871 13.0506C22.7677 12.944 22.7263 12.8489 22.6752 12.7846C22.6188 12.7273 22.5704 12.6859 22.507 12.6692C22.4418 12.6551 22.3634 12.6568 22.2832 12.6798C22.2022 12.7 22.1264 12.7529 22.0789 12.8048C22.0304 12.8577 22.011 12.907 22.011 12.9414C22.0137 12.9757 22.0313 13.0198 22.0648 13.0858L22.0841 13.1246C22.2145 13.3801 22.1141 13.6928 21.8586 13.8231C21.6032 13.9535 21.2905 13.8531 21.1601 13.5976C21.1601 13.5967 21.1575 13.5932 21.1575 13.5923C21.0456 13.3668 20.969 13.0867 21.0156 12.7925C21.0658 12.5009 21.2279 12.2578 21.4173 12.0904C21.6094 11.9222 21.8305 11.8112 22.0692 11.7636C22.307 11.7152 22.5651 11.7231 22.8109 11.813C23.0601 11.9037 23.2628 12.0896 23.4019 12.2922C23.5349 12.4983 23.601 12.722 23.6257 12.9379C23.6495 13.1545 23.6318 13.3686 23.5781 13.5756C23.5253 13.7817 23.4213 13.9905 23.2927 14.1535C23.032 14.4882 22.6708 14.7075 22.2859 14.8106C21.8956 14.9154 21.4851 14.8872 21.1213 14.7613C20.7567 14.6353 20.4299 14.4116 20.1867 14.1103C20.1268 14.0345 20.0722 13.9544 20.0229 13.8707L19.9013 13.6205C19.8318 13.4479 19.7727 13.2647 19.7569 13.0717C19.7119 12.6859 19.8256 12.2878 20.0317 11.983C20.237 11.6738 20.5127 11.4404 20.8042 11.2545C21.0976 11.0695 21.4129 10.9312 21.7388 10.8317C22.0674 10.7321 22.3977 10.6802 22.7298 10.6449C24.0591 10.5146 25.4174 10.8255 26.5202 11.5329L26.5185 11.5311Z" fill="#0D808A"/>
<path d="M19.9726 10.8799C19.9127 10.8799 19.8652 10.8315 19.8652 10.7725C19.8652 10.7135 19.9136 10.665 19.9726 10.665C20.0317 10.665 20.0801 10.7135 20.0801 10.7725C20.0801 10.8315 20.0317 10.8799 19.9726 10.8799Z" fill="#0D808A"/>
<path d="M19.4644 11.5335C19.5651 11.5335 19.6467 11.4519 19.6467 11.3512C19.6467 11.2505 19.5651 11.1689 19.4644 11.1689C19.3637 11.1689 19.282 11.2505 19.282 11.3512C19.282 11.4519 19.3637 11.5335 19.4644 11.5335Z" fill="#0D808A"/>
<path d="M19.1552 12.2939C19.0248 12.2939 18.9191 12.1882 18.9191 12.0578C18.9191 11.9275 19.0248 11.8218 19.1552 11.8218C19.2856 11.8218 19.3913 11.9275 19.3913 12.0578C19.3913 12.1882 19.2856 12.2939 19.1552 12.2939Z" fill="#0D808A"/>
<path d="M19.0662 13.093C18.9174 13.093 18.7967 12.9724 18.7967 12.8235C18.7967 12.6746 18.9174 12.5539 19.0662 12.5539C19.2151 12.5539 19.3358 12.6746 19.3358 12.8235C19.3358 12.9724 19.2151 13.093 19.0662 13.093Z" fill="#0D808A"/>
<path d="M19.1816 13.8724C19.0231 13.8724 18.8945 13.7438 18.8945 13.5852C18.8945 13.4267 19.0231 13.298 19.1816 13.298C19.3402 13.298 19.4688 13.4267 19.4688 13.5852C19.4688 13.7438 19.3402 13.8724 19.1816 13.8724Z" fill="#0D808A"/>
<path d="M19.4759 14.5875C19.3164 14.5875 19.1878 14.4589 19.1878 14.2995C19.1878 14.14 19.3164 14.0114 19.4759 14.0114C19.6353 14.0114 19.7639 14.14 19.7639 14.2995C19.7639 14.4589 19.6353 14.5875 19.4759 14.5875Z" fill="#0D808A"/>
<path d="M19.9568 15.1736C19.8053 15.1736 19.6819 15.0502 19.6819 14.8987C19.6819 14.7472 19.8053 14.6239 19.9568 14.6239C20.1083 14.6239 20.2316 14.7472 20.2316 14.8987C20.2316 15.0502 20.1083 15.1736 19.9568 15.1736Z" fill="#0D808A"/>
<path d="M20.6254 15.5266C20.4898 15.5266 20.3796 15.4165 20.3796 15.2808C20.3796 15.1452 20.4898 15.0351 20.6254 15.0351C20.7611 15.0351 20.8712 15.1452 20.8712 15.2808C20.8712 15.4165 20.7611 15.5266 20.6254 15.5266Z" fill="#0D808A"/>
<path d="M21.3741 15.6648C21.4836 15.6648 21.5723 15.5761 21.5723 15.4666C21.5723 15.3571 21.4836 15.2684 21.3741 15.2684C21.2646 15.2684 21.1759 15.3571 21.1759 15.4666C21.1759 15.5761 21.2646 15.6648 21.3741 15.6648Z" fill="#0D808A"/>
<path d="M22.1457 15.6299C22.0753 15.6299 22.018 15.5727 22.018 15.5022C22.018 15.4317 22.0753 15.3745 22.1457 15.3745C22.2162 15.3745 22.2735 15.4317 22.2735 15.5022C22.2735 15.5727 22.2162 15.6299 22.1457 15.6299Z" fill="#0D808A"/>
<path d="M22.913 15.4414C22.8962 15.4414 22.8821 15.4273 22.8821 15.4105C22.8821 15.3938 22.8962 15.3797 22.913 15.3797C22.9297 15.3797 22.9438 15.3938 22.9438 15.4105C22.9438 15.4273 22.9297 15.4414 22.913 15.4414Z" fill="#0D808A"/>
<path d="M39.7606 33.048C39.6611 33.011 39.6092 32.8991 39.6479 32.7996C39.6849 32.7 39.7968 32.6498 39.8963 32.6868C39.9958 32.7238 40.0461 32.8357 40.0091 32.937V32.9352C39.9809 33.0136 39.906 33.0612 39.8294 33.0612C39.8065 33.0612 39.7827 33.0568 39.7606 33.048ZM39.9765 32.3072C39.869 32.3019 39.7862 32.2103 39.7924 32.1046C39.7976 31.9971 39.8884 31.9143 39.995 31.9205C40.1024 31.9258 40.1835 32.0174 40.1791 32.1231C40.1738 32.227 40.0875 32.3072 39.9862 32.3072H39.9765ZM39.7166 31.399C39.6884 31.2959 39.7492 31.1893 39.8523 31.162C39.9553 31.1338 40.0619 31.1937 40.0892 31.2959C40.1174 31.399 40.0575 31.5056 39.9553 31.5346C39.9386 31.539 39.921 31.5417 39.9042 31.5399C39.8188 31.5399 39.7413 31.4844 39.7175 31.399H39.7166ZM39.4198 30.7586C39.3599 30.6705 39.3828 30.5498 39.4709 30.4899C39.5598 30.43 39.6796 30.4529 39.7395 30.541C39.7994 30.63 39.7765 30.7498 39.6884 30.8097C39.6541 30.8326 39.6171 30.8423 39.5801 30.8423C39.5184 30.8423 39.4576 30.8141 39.4198 30.7577V30.7586ZM38.9344 30.2389C38.8516 30.1728 38.8357 30.0504 38.9018 29.9676C38.9687 29.883 39.0903 29.8689 39.174 29.935C39.2586 30.001 39.2727 30.1217 39.2057 30.2063C39.1687 30.2547 39.1115 30.2803 39.0542 30.2803C39.0128 30.2803 38.9696 30.2662 38.9344 30.2389ZM38.316 29.8945C38.2165 29.8583 38.1636 29.7473 38.1989 29.6478C38.235 29.5483 38.346 29.4954 38.4455 29.5307C38.545 29.5668 38.5979 29.6778 38.5627 29.7773C38.5345 29.8575 38.4596 29.9059 38.3803 29.9059C38.3592 29.9059 38.3372 29.9015 38.316 29.8945Z" fill="#0D808A"/>
<path d="M17.1222 35.8289C16.8711 36.1416 16.6579 36.4076 16.5082 36.7441C16.3602 37.0815 16.2686 37.4911 16.3065 38.0918C16.9213 37.5017 17.1407 36.6164 17.1222 35.8289Z" fill="#0D808A"/>
<path d="M17.8039 36.0396C17.5943 36.3823 17.4181 36.673 17.3133 37.0262C17.2102 37.3803 17.1715 37.7979 17.286 38.3889C17.5511 38.0586 17.7132 37.6631 17.7907 37.2561C17.8682 36.85 17.8638 36.4307 17.8039 36.0396Z" fill="#0D808A"/>
<path d="M18.5068 36.1601C18.343 36.5283 18.2056 36.8366 18.1466 37.2013C18.0902 37.5642 18.1052 37.9853 18.2945 38.5561C18.7385 37.8285 18.7253 36.9168 18.506 36.1592L18.5068 36.1601Z" fill="#0D808A"/>
<path d="M38.1469 35.8645C38.0473 36.0468 37.939 36.2133 37.843 36.3736C37.7434 36.5348 37.6412 36.6943 37.5531 36.8704C37.4651 37.0475 37.3911 37.243 37.3567 37.4818C37.325 37.7249 37.3285 37.9988 37.4051 38.3327C37.7548 38.0077 37.9346 37.5875 38.0297 37.1541C38.1266 36.7225 38.1231 36.2688 38.1469 35.8645Z" fill="#0D808A"/>
<path d="M38.7899 35.9824C38.6181 36.3753 38.4728 36.7109 38.4102 37.1003C38.3495 37.4905 38.3697 37.9389 38.5758 38.5502C38.8075 38.1617 38.922 37.7195 38.9502 37.2764C38.9775 36.8342 38.9123 36.3894 38.7899 35.9824Z" fill="#0D808A"/>
<path d="M39.6153 36.0265C39.3034 36.8377 39.1519 37.4182 39.6056 38.603C39.9685 37.7909 39.9694 36.8184 39.6153 36.0265Z" fill="#0D808A"/>
</g>
</svg>
