<svg width="269" height="57" viewBox="0 0 269 57" fill="none" xmlns="http://www.w3.org/2000/svg">
<g filter="url(#filter0_d_14_1728)">
<path d="M257.426 19.4766V39H251.001V19.4766H246.037V13.832H262.357V19.4766H257.426Z" fill="#FFF8F2"/>
</g>
<g filter="url(#filter1_d_14_1728)">
<path d="M239.794 39L238.565 35.3643H229.833L228.505 39H221.599L231.692 13.832H236.756L246.767 39H239.794ZM234.282 21.668H234.183L231.593 30.2676H236.872L234.282 21.668ZM231.477 47.1514V42.0215H236.889V47.1514H231.477ZM235.776 11.624L234.216 9.66504L232.655 11.624H227.143L232.439 5.97949H236.108L241.222 11.624H235.776Z" fill="#FFF8F2"/>
</g>
<g filter="url(#filter2_d_14_1728)">
<path d="M213.678 39H207.054L198.654 13.832H205.245L210.308 31.4795H210.391L215.488 13.832H222.112L213.678 39Z" fill="#FFF8F2"/>
</g>
<g filter="url(#filter3_d_14_1728)">
<path d="M181.651 39V28.9395H173.417V39H166.992V13.832H173.417V23.2949H181.651V13.832H188.076V39H181.651Z" fill="#FFF8F2"/>
</g>
<g filter="url(#filter4_d_14_1728)">
<path d="M158.192 39L148.613 23.6934L148.53 23.7266L148.712 39H142.553V13.832H148.098L157.827 29.6533L157.893 29.5869L157.611 13.832H163.77V39H158.192Z" fill="#FFF8F2"/>
</g>
<g filter="url(#filter5_d_14_1728)">
<path d="M132.923 39V13.832H139.348V39H132.923Z" fill="#FFF8F2"/>
</g>
<g filter="url(#filter6_d_14_1728)">
<path d="M117.881 39V13.832H124.305V33.3555H131.76V39H117.881Z" fill="#FFF8F2"/>
</g>
<g filter="url(#filter7_d_14_1728)">
<path d="M99.7823 39L90.2032 23.6934L90.1202 23.7266L90.3028 39H84.1436V13.832H89.6885L99.4171 29.6533L99.4835 29.5869L99.2012 13.832H105.36V39H99.7823Z" fill="#FFF8F2"/>
</g>
<g filter="url(#filter8_d_14_1728)">
<path d="M75.9577 39L74.7292 35.3643H65.9968L64.6687 39H57.7624L67.8562 13.832H72.9196L82.9304 39H75.9577ZM70.446 21.668H70.3464L67.7566 30.2676H73.0359L70.446 21.668ZM67.657 12.6201L66.0632 9.2832L74.2146 4.90039L76.0241 8.91797L67.657 12.6201Z" fill="#FFF8F2"/>
</g>
<g filter="url(#filter9_d_14_1728)">
<path d="M57.6283 26.416C57.6283 30.1126 56.3334 33.2227 53.7435 35.7461C51.1648 38.2363 48.0215 39.4814 44.3138 39.4814C40.7058 39.4814 37.6123 38.2585 35.0336 35.8125C32.3995 33.3333 31.0824 30.3063 31.0824 26.7314C31.0824 24.8278 31.4089 23.0348 32.0619 21.3525C32.405 20.4561 32.9528 19.5153 33.7054 18.5303C36.3174 15.0882 39.8646 13.3672 44.347 13.3672C48.0437 13.3672 51.1758 14.6178 53.7435 17.1191C56.3334 19.6315 57.6283 22.7305 57.6283 26.416ZM51.2035 26.4492C51.2035 24.4238 50.5837 22.6973 49.3441 21.2695C48.0271 19.7643 46.3724 19.0117 44.3802 19.0117C42.3659 19.0117 40.7058 19.7422 39.3998 21.2031C38.1381 22.6087 37.5072 24.3242 37.5072 26.3496C37.5072 28.4193 38.1436 30.168 39.4164 31.5957C40.7334 33.0898 42.4102 33.8369 44.4467 33.8369C46.4056 33.8369 48.0381 33.0843 49.3441 31.5791C50.5837 30.1514 51.2035 28.4414 51.2035 26.4492Z" fill="#FFF8F2"/>
</g>
<g filter="url(#filter10_d_14_1728)">
<path d="M30.0518 26.3496C30.0518 30.179 28.9727 33.2337 26.8145 35.5137C24.6009 37.8379 21.5905 39 17.7832 39H8.28711V28.9395H6.0127V23.2949H8.28711V13.832H16.7539C17.9824 13.832 19.0615 13.8984 19.9912 14.0312C21.0648 14.1641 22.0277 14.391 22.8799 14.7119C24.7835 15.4313 26.4049 16.7041 27.7441 18.5303C29.2826 20.6663 30.0518 23.2728 30.0518 26.3496ZM23.627 26.4492C23.627 24.3353 23.14 22.6751 22.166 21.4688C21.1146 20.1406 19.5596 19.4766 17.501 19.4766H14.7119V23.2949H18.3809V28.9395H14.7119V33.3555H17.4678C19.5706 33.3555 21.1478 32.7135 22.1992 31.4297C23.151 30.2565 23.627 28.5964 23.627 26.4492Z" fill="#FFF8F2"/>
</g>
<g filter="url(#filter11_d_14_1728)">
<path fill-rule="evenodd" clip-rule="evenodd" d="M257.426 19.4766H262.357V13.832H246.037V19.4766H251.001V39H257.426V19.4766ZM247.001 23.4766V39C247.001 41.2091 248.792 43 251.001 43H257.426C259.635 43 261.426 41.2091 261.426 39V23.4766H262.357C264.566 23.4766 266.357 21.6857 266.357 19.4766V13.832C266.357 11.6229 264.566 9.83203 262.357 9.83203H246.037C243.828 9.83203 242.037 11.6229 242.037 13.832V19.4766C242.037 21.6857 243.828 23.4766 246.037 23.4766H247.001Z" fill="url(#paint0_linear_14_1728)"/>
</g>
<g filter="url(#filter12_d_14_1728)">
<path fill-rule="evenodd" clip-rule="evenodd" d="M240.889 43V47.1514C240.889 49.3605 239.098 51.1514 236.889 51.1514H231.477C229.267 51.1514 227.477 49.3605 227.477 47.1514V43H221.599C220.271 43 219.029 42.341 218.285 41.241C217.541 40.141 217.392 38.7436 217.886 37.5111L226.675 15.5966C225.271 15.4314 224.044 14.5319 223.473 13.2134C222.839 11.75 223.135 10.0501 224.226 8.88712L229.522 3.24259C230.278 2.43668 231.334 1.97949 232.439 1.97949H236.108C237.238 1.97949 238.315 2.45697 239.073 3.29401L244.186 8.93854C245.248 10.111 245.52 11.7993 244.878 13.2455C244.311 14.5258 243.122 15.4034 241.759 15.5879L250.483 37.5216C250.973 38.7537 250.821 40.1485 250.077 41.2457C249.332 42.343 248.092 43 246.767 43H240.889ZM236.756 13.832H231.692L221.599 39H228.505L229.833 35.3643H238.565L239.794 39H246.767L236.756 13.832ZM234.282 21.668H234.183L231.593 30.2676H236.872L234.282 21.668ZM232.655 11.624L234.216 9.66504L235.776 11.624H241.222L236.108 5.97949H232.439L227.144 11.624H232.655ZM231.477 47.1514H236.889V42.0215H231.477V47.1514Z" fill="url(#paint1_linear_14_1728)"/>
</g>
<g filter="url(#filter13_d_14_1728)">
<path fill-rule="evenodd" clip-rule="evenodd" d="M207.054 39H213.678L222.112 13.832H215.488L210.391 31.4795H210.308L205.245 13.832H198.654L207.054 39ZM210.362 17.164L209.09 12.7288C208.597 11.0138 207.029 9.83203 205.245 9.83203H198.654C197.368 9.83203 196.16 10.4504 195.408 11.4938C194.657 12.5373 194.452 13.8785 194.86 15.0984L203.26 40.2664C203.805 41.899 205.333 43 207.054 43H213.678C215.398 43 216.925 41.9012 217.471 40.2709L225.905 15.1029C226.314 13.8827 226.11 12.5403 225.359 11.4958C224.607 10.4512 223.399 9.83203 222.112 9.83203H215.488C213.706 9.83203 212.139 11.0104 211.645 12.7222L210.362 17.164Z" fill="url(#paint2_linear_14_1728)"/>
</g>
<g filter="url(#filter14_d_14_1728)">
<path fill-rule="evenodd" clip-rule="evenodd" d="M162.992 39C162.992 41.2091 164.783 43 166.992 43H173.417C175.626 43 177.417 41.2091 177.417 39V32.9395H177.651V39C177.651 41.2091 179.442 43 181.651 43H188.076C190.285 43 192.076 41.2091 192.076 39V13.832C192.076 11.6229 190.285 9.83203 188.076 9.83203H181.651C179.442 9.83203 177.651 11.6229 177.651 13.832V19.2949H177.417V13.832C177.417 11.6229 175.626 9.83203 173.417 9.83203H166.992C164.783 9.83203 162.992 11.6229 162.992 13.832H163.77V39H162.992ZM173.417 23.2949V13.832H166.992V39H173.417V28.9395H181.651V39H188.076V13.832H181.651V23.2949H173.417Z" fill="url(#paint3_linear_14_1728)"/>
</g>
<g filter="url(#filter15_d_14_1728)">
<path fill-rule="evenodd" clip-rule="evenodd" d="M138.553 39C138.553 41.2091 140.344 43 142.553 43H148.712C149.782 43 150.806 42.572 151.558 41.8115C152.309 41.051 152.725 40.0213 152.712 38.9522L152.698 37.7611L154.801 41.122C155.532 42.2904 156.814 43 158.192 43H163.77C165.979 43 167.77 41.2091 167.77 39H166.992V13.832H167.77C167.77 11.6229 165.979 9.83203 163.77 9.83203H157.611C156.538 9.83203 155.509 10.2634 154.757 11.029C154.005 11.7947 153.592 12.8306 153.611 13.9037L153.635 15.1995L151.506 11.7368C150.778 10.5532 149.488 9.83203 148.098 9.83203H142.553C140.344 9.83203 138.553 11.6229 138.553 13.832H139.348V39H138.553ZM157.893 29.5869L157.827 29.6533L148.098 13.832H142.553V39H148.712L148.53 23.7266L148.613 23.6934L158.192 39H163.77V13.832H157.611L157.893 29.5869Z" fill="url(#paint4_linear_14_1728)"/>
</g>
<g filter="url(#filter16_d_14_1728)">
<path fill-rule="evenodd" clip-rule="evenodd" d="M128.923 39C128.923 41.2091 130.714 43 132.923 43H139.348C141.557 43 143.348 41.2091 143.348 39H142.553V13.832H143.348C143.348 11.6229 141.557 9.83203 139.348 9.83203H132.923C130.714 9.83203 128.923 11.6229 128.923 13.832V33.3555H131.76V39H128.923ZM132.923 39H139.348V13.832H132.923V39Z" fill="url(#paint5_linear_14_1728)"/>
</g>
<g filter="url(#filter17_d_14_1728)">
<path fill-rule="evenodd" clip-rule="evenodd" d="M124.305 13.832H117.881V39H131.76V33.3555H124.305V13.832ZM128.305 29.3555V13.832C128.305 11.6229 126.515 9.83203 124.305 9.83203H117.881C115.672 9.83203 113.881 11.6229 113.881 13.832V39C113.881 41.2091 115.672 43 117.881 43H131.76C133.969 43 135.76 41.2091 135.76 39H132.923V29.5273C132.555 29.4156 132.164 29.3555 131.76 29.3555H128.305Z" fill="url(#paint6_linear_14_1728)"/>
</g>
<g filter="url(#filter18_d_14_1728)">
<path fill-rule="evenodd" clip-rule="evenodd" d="M80.1436 39C80.1436 41.2091 81.9345 43 84.1436 43H90.3028C91.3719 43 92.3966 42.572 93.1481 41.8115C93.8996 41.051 94.3153 40.0213 94.3025 38.9522L94.2883 37.7611L96.3915 41.122C97.1227 42.2904 98.404 43 99.7823 43H105.36C107.57 43 109.36 41.2091 109.36 39V13.832C109.36 11.6229 107.57 9.83203 105.36 9.83203H99.2012C98.1279 9.83203 97.0997 10.2634 96.3476 11.029C95.5955 11.7947 95.1826 12.8306 95.2019 13.9037L95.2251 15.1995L93.0959 11.7368C92.3681 10.5532 91.0781 9.83203 89.6885 9.83203H84.1436C81.9345 9.83203 80.1436 11.6229 80.1436 13.832V31.9938L82.9304 39H80.1436ZM99.4835 29.5869L99.4171 29.6533L89.6885 13.832H84.1436V39H90.3028L90.1202 23.7266L90.2032 23.6934L99.7823 39H105.36V13.832H99.2012L99.4835 29.5869Z" fill="url(#paint7_linear_14_1728)"/>
</g>
<g filter="url(#filter19_d_14_1728)">
<path fill-rule="evenodd" clip-rule="evenodd" d="M75.9577 43C74.242 43 72.7174 41.9059 72.1682 40.2805L71.8586 39.3643H68.7941L68.4258 40.3725C67.8494 41.9504 66.3485 43 64.6687 43H57.7624C56.4345 43 55.1931 42.341 54.4491 41.241C53.7051 40.141 53.5555 38.7436 54.0499 37.5111L55.745 33.2844C56.5089 32.0643 57.0405 30.739 57.3396 29.3084L63.6635 13.5401L62.4537 11.0071C61.5336 9.08066 62.2886 6.77118 64.1689 5.76017L72.3203 1.37735C73.2976 0.851904 74.4492 0.755985 75.4999 1.11252C76.5506 1.46905 77.406 2.246 77.8617 3.25768L79.6713 7.27526C80.1088 8.24672 80.1407 9.35262 79.7599 10.3477C79.3791 11.3428 78.617 12.1448 77.6426 12.5759L76.8622 12.9212L84.1436 31.2275V39H86.9304C86.9303 39.7897 86.6965 40.5735 86.2405 41.2457C85.4961 42.3429 84.2563 43 82.9304 43H75.9577ZM76.0241 8.91797L74.2146 4.90039L66.0632 9.2832L67.6569 12.6201L76.0241 8.91797ZM57.7624 39H64.6687L65.9968 35.3643H74.7292L75.9577 39H82.9304L72.9196 13.832H67.8562L57.7624 39ZM73.0358 30.2676L70.446 21.668H70.3464L67.7565 30.2676H73.0358Z" fill="url(#paint8_linear_14_1728)"/>
</g>
<g filter="url(#filter20_d_14_1728)">
<path fill-rule="evenodd" clip-rule="evenodd" d="M30.0481 26.7314C30.0506 26.605 30.0518 26.4778 30.0518 26.3496C30.0518 23.9701 29.5917 21.8719 28.6716 20.055C28.6677 20.0473 28.6638 20.0397 28.6599 20.032C28.5904 19.8956 28.5183 19.7607 28.4437 19.6275C28.9523 18.3964 29.6713 17.2224 30.523 16.107C33.9235 11.629 38.6705 9.36719 44.347 9.36719C49.0487 9.36719 53.192 10.9991 56.5317 14.251C59.9146 17.5342 61.6283 21.6761 61.6283 26.416C61.6283 27.8309 61.4763 29.1927 61.1735 30.4947L59.334 35.0814C58.5836 36.3449 57.6501 37.5245 56.535 38.611L56.5221 38.6235C53.1697 41.8608 49.0187 43.4814 44.3138 43.4814C39.7015 43.4814 35.6202 41.8793 32.2869 38.7204C30.5902 37.1223 29.2968 35.3152 28.4237 33.3277C29.4579 31.4827 29.9993 29.2839 30.0481 26.7314ZM35.0336 35.8125C37.6123 38.2585 40.7058 39.4814 44.3138 39.4814C48.0215 39.4814 51.1647 38.2363 53.7435 35.7461C56.3334 33.2227 57.6283 30.1126 57.6283 26.416C57.6283 22.7305 56.3334 19.6315 53.7435 17.1191C51.1758 14.6178 48.0437 13.3672 44.347 13.3672C39.8646 13.3672 36.3174 15.0882 33.7054 18.5303C32.9528 19.5153 32.405 20.4561 32.0619 21.3525C31.4089 23.0348 31.0824 24.8278 31.0824 26.7314C31.0824 30.3063 32.3994 33.3333 35.0336 35.8125ZM49.3441 31.5791C50.5837 30.1514 51.2035 28.4414 51.2035 26.4492C51.2035 24.4238 50.5837 22.6973 49.3441 21.2695C48.0271 19.7643 46.3724 19.0117 44.3802 19.0117C42.3659 19.0117 40.7058 19.7422 39.3998 21.2031C38.1381 22.6087 37.5072 24.3242 37.5072 26.3496C37.5072 28.4193 38.1436 30.168 39.4164 31.5957C40.7334 33.0898 42.4102 33.8369 44.4466 33.8369C46.4056 33.8369 48.0381 33.0843 49.3441 31.5791ZM46.3286 23.8977C45.7694 23.2609 45.2112 23.0117 44.3802 23.0117C43.4683 23.0117 42.9052 23.2836 42.3819 23.869L42.3764 23.8751C41.8237 24.4909 41.5072 25.2329 41.5072 26.3496C41.5072 27.525 41.8385 28.3017 42.4022 28.9339L42.417 28.9507C42.9554 29.5615 43.529 29.8369 44.4466 29.8369C45.2236 29.8369 45.7615 29.6046 46.3228 28.9577L46.3237 28.9567C46.8956 28.298 47.2035 27.5341 47.2035 26.4492C47.2035 25.3164 46.8863 24.5424 46.3286 23.8977Z" fill="url(#paint9_linear_14_1728)"/>
</g>
<g filter="url(#filter21_d_14_1728)">
<path fill-rule="evenodd" clip-rule="evenodd" d="M26.8145 35.5137C28.9727 33.2337 30.0518 30.179 30.0518 26.3496C30.0518 23.2728 29.2826 20.6663 27.7441 18.5303C26.4049 16.7041 24.7835 15.4313 22.8799 14.7119C22.0277 14.391 21.0648 14.1641 19.9912 14.0312C19.0615 13.8984 17.9824 13.832 16.7539 13.832H8.28711V23.2949H6.0127V28.9395H8.28711V39H17.7832C21.5905 39 24.6009 37.8379 26.8145 35.5137ZM18.3809 28.9395H14.7119V33.3555H17.4678C17.9052 33.3555 18.32 33.3277 18.7119 33.2721C20.2041 33.0606 21.3665 32.4465 22.1992 31.4297C23.151 30.2565 23.627 28.5964 23.627 26.4492C23.627 24.3353 23.14 22.6751 22.166 21.4688C21.9498 21.1956 21.7122 20.9505 21.4533 20.7335C20.7135 20.1134 19.7997 19.7227 18.7119 19.5615C18.6033 19.5454 18.4929 19.5316 18.3809 19.5201C18.0986 19.4911 17.8053 19.4766 17.501 19.4766H14.7119V23.2949H18.3809V28.9395ZM4.28711 32.5491C2.94181 31.9049 2.0127 30.5307 2.0127 28.9395V23.2949C2.0127 21.7037 2.94181 20.3295 4.28711 19.6852V13.832C4.28711 11.6229 6.07797 9.83203 8.28711 9.83203H16.7539C18.103 9.83203 19.3657 9.90362 20.5195 10.0661C21.837 10.2316 23.1032 10.5218 24.2897 10.9686L24.2939 10.9702C27.0021 11.9936 29.2261 13.7871 30.9698 16.1648L30.99 16.1926C31.7827 17.2933 32.4122 18.4696 32.8892 19.7094C32.5413 20.2727 32.2655 20.8204 32.0619 21.3525C31.4527 22.9219 31.1277 24.5876 31.0868 26.3496C31.0839 26.4764 31.0824 26.6037 31.0824 26.7314C31.0824 29.1417 31.6811 31.3029 32.8784 33.215C32.1714 35.0742 31.1309 36.7724 29.7194 38.2635L29.711 38.2723C26.6027 41.536 22.4645 43 17.7832 43H8.28711C6.07797 43 4.28711 41.2091 4.28711 39V32.5491Z" fill="url(#paint10_linear_14_1728)"/>
</g>
<g filter="url(#filter22_d_14_1728)">
<path d="M257.426 19.4766V39H251.001V19.4766H246.037V13.832H262.357V19.4766H257.426Z" fill="#F2FBFF"/>
</g>
<g filter="url(#filter23_d_14_1728)">
<path d="M239.794 39L238.565 35.3643H229.833L228.505 39H221.599L231.692 13.832H236.756L246.767 39H239.794ZM234.282 21.668H234.183L231.593 30.2676H236.872L234.282 21.668ZM231.477 47.1514V42.0215H236.889V47.1514H231.477ZM235.776 11.624L234.216 9.66504L232.655 11.624H227.143L232.439 5.97949H236.108L241.222 11.624H235.776Z" fill="#F2FBFF"/>
</g>
<g filter="url(#filter24_d_14_1728)">
<path d="M213.678 39H207.054L198.654 13.832H205.245L210.308 31.4795H210.391L215.488 13.832H222.112L213.678 39Z" fill="#F2FBFF"/>
</g>
<g filter="url(#filter25_d_14_1728)">
<path d="M181.651 39V28.9395H173.417V39H166.992V13.832H173.417V23.2949H181.651V13.832H188.076V39H181.651Z" fill="#F2FBFF"/>
</g>
<g filter="url(#filter26_d_14_1728)">
<path d="M158.192 39L148.613 23.6934L148.53 23.7266L148.712 39H142.553V13.832H148.098L157.827 29.6533L157.893 29.5869L157.611 13.832H163.77V39H158.192Z" fill="#F2FBFF"/>
</g>
<g filter="url(#filter27_d_14_1728)">
<path d="M132.923 39V13.832H139.348V39H132.923Z" fill="#F2FBFF"/>
</g>
<g filter="url(#filter28_d_14_1728)">
<path d="M117.881 39V13.832H124.305V33.3555H131.76V39H117.881Z" fill="#F2FBFF"/>
</g>
<g filter="url(#filter29_d_14_1728)">
<path d="M99.7823 39L90.2032 23.6934L90.1202 23.7266L90.3028 39H84.1436V13.832H89.6885L99.4171 29.6533L99.4835 29.5869L99.2012 13.832H105.36V39H99.7823Z" fill="#F2FBFF"/>
</g>
<g filter="url(#filter30_d_14_1728)">
<path d="M75.9577 39L74.7292 35.3643H65.9968L64.6687 39H57.7624L67.8562 13.832H72.9196L82.9304 39H75.9577ZM70.446 21.668H70.3464L67.7566 30.2676H73.0359L70.446 21.668ZM67.657 12.6201L66.0632 9.2832L74.2146 4.90039L76.0241 8.91797L67.657 12.6201Z" fill="#F2FBFF"/>
</g>
<g filter="url(#filter31_d_14_1728)">
<path d="M57.6283 26.416C57.6283 30.1126 56.3334 33.2227 53.7435 35.7461C51.1648 38.2363 48.0215 39.4814 44.3138 39.4814C40.7058 39.4814 37.6123 38.2585 35.0336 35.8125C32.3995 33.3333 31.0824 30.3063 31.0824 26.7314C31.0824 24.8278 31.4089 23.0348 32.0619 21.3525C32.405 20.4561 32.9528 19.5153 33.7054 18.5303C36.3174 15.0882 39.8646 13.3672 44.347 13.3672C48.0437 13.3672 51.1758 14.6178 53.7435 17.1191C56.3334 19.6315 57.6283 22.7305 57.6283 26.416ZM51.2035 26.4492C51.2035 24.4238 50.5837 22.6973 49.3441 21.2695C48.0271 19.7643 46.3724 19.0117 44.3802 19.0117C42.3659 19.0117 40.7058 19.7422 39.3998 21.2031C38.1381 22.6087 37.5072 24.3242 37.5072 26.3496C37.5072 28.4193 38.1436 30.168 39.4164 31.5957C40.7334 33.0898 42.4102 33.8369 44.4467 33.8369C46.4056 33.8369 48.0381 33.0843 49.3441 31.5791C50.5837 30.1514 51.2035 28.4414 51.2035 26.4492Z" fill="#F2FBFF"/>
</g>
<g filter="url(#filter32_d_14_1728)">
<path d="M30.0518 26.3496C30.0518 30.179 28.9727 33.2337 26.8145 35.5137C24.6009 37.8379 21.5905 39 17.7832 39H8.28711V28.9395H6.0127V23.2949H8.28711V13.832H16.7539C17.9824 13.832 19.0615 13.8984 19.9912 14.0312C21.0648 14.1641 22.0277 14.391 22.8799 14.7119C24.7835 15.4313 26.4049 16.7041 27.7441 18.5303C29.2826 20.6663 30.0518 23.2728 30.0518 26.3496ZM23.627 26.4492C23.627 24.3353 23.14 22.6751 22.166 21.4688C21.1146 20.1406 19.5596 19.4766 17.501 19.4766H14.7119V23.2949H18.3809V28.9395H14.7119V33.3555H17.4678C19.5706 33.3555 21.1478 32.7135 22.1992 31.4297C23.151 30.2565 23.627 28.5964 23.627 26.4492Z" fill="#F2FBFF"/>
</g>
<defs>
<filter id="filter0_d_14_1728" x="244.037" y="13.832" width="20.3193" height="30.168" filterUnits="userSpaceOnUse" color-interpolation-filters="sRGB">
<feFlood flood-opacity="0" result="BackgroundImageFix"/>
<feColorMatrix in="SourceAlpha" type="matrix" values="0 0 0 0 0 0 0 0 0 0 0 0 0 0 0 0 0 0 127 0" result="hardAlpha"/>
<feOffset dy="3"/>
<feGaussianBlur stdDeviation="1"/>
<feComposite in2="hardAlpha" operator="out"/>
<feColorMatrix type="matrix" values="0 0 0 0 0.0683585 0 0 0 0 0.039462 0 0 0 0 0.150602 0 0 0 0.25 0"/>
<feBlend mode="normal" in2="BackgroundImageFix" result="effect1_dropShadow_14_1728"/>
<feBlend mode="normal" in="SourceGraphic" in2="effect1_dropShadow_14_1728" result="shape"/>
</filter>
<filter id="filter1_d_14_1728" x="219.599" y="5.97949" width="29.168" height="46.1719" filterUnits="userSpaceOnUse" color-interpolation-filters="sRGB">
<feFlood flood-opacity="0" result="BackgroundImageFix"/>
<feColorMatrix in="SourceAlpha" type="matrix" values="0 0 0 0 0 0 0 0 0 0 0 0 0 0 0 0 0 0 127 0" result="hardAlpha"/>
<feOffset dy="3"/>
<feGaussianBlur stdDeviation="1"/>
<feComposite in2="hardAlpha" operator="out"/>
<feColorMatrix type="matrix" values="0 0 0 0 0.0683585 0 0 0 0 0.039462 0 0 0 0 0.150602 0 0 0 0.25 0"/>
<feBlend mode="normal" in2="BackgroundImageFix" result="effect1_dropShadow_14_1728"/>
<feBlend mode="normal" in="SourceGraphic" in2="effect1_dropShadow_14_1728" result="shape"/>
</filter>
<filter id="filter2_d_14_1728" x="196.654" y="13.832" width="27.458" height="30.168" filterUnits="userSpaceOnUse" color-interpolation-filters="sRGB">
<feFlood flood-opacity="0" result="BackgroundImageFix"/>
<feColorMatrix in="SourceAlpha" type="matrix" values="0 0 0 0 0 0 0 0 0 0 0 0 0 0 0 0 0 0 127 0" result="hardAlpha"/>
<feOffset dy="3"/>
<feGaussianBlur stdDeviation="1"/>
<feComposite in2="hardAlpha" operator="out"/>
<feColorMatrix type="matrix" values="0 0 0 0 0.0683585 0 0 0 0 0.039462 0 0 0 0 0.150602 0 0 0 0.25 0"/>
<feBlend mode="normal" in2="BackgroundImageFix" result="effect1_dropShadow_14_1728"/>
<feBlend mode="normal" in="SourceGraphic" in2="effect1_dropShadow_14_1728" result="shape"/>
</filter>
<filter id="filter3_d_14_1728" x="164.992" y="13.832" width="25.084" height="30.168" filterUnits="userSpaceOnUse" color-interpolation-filters="sRGB">
<feFlood flood-opacity="0" result="BackgroundImageFix"/>
<feColorMatrix in="SourceAlpha" type="matrix" values="0 0 0 0 0 0 0 0 0 0 0 0 0 0 0 0 0 0 127 0" result="hardAlpha"/>
<feOffset dy="3"/>
<feGaussianBlur stdDeviation="1"/>
<feComposite in2="hardAlpha" operator="out"/>
<feColorMatrix type="matrix" values="0 0 0 0 0.0683585 0 0 0 0 0.039462 0 0 0 0 0.150602 0 0 0 0.25 0"/>
<feBlend mode="normal" in2="BackgroundImageFix" result="effect1_dropShadow_14_1728"/>
<feBlend mode="normal" in="SourceGraphic" in2="effect1_dropShadow_14_1728" result="shape"/>
</filter>
<filter id="filter4_d_14_1728" x="140.553" y="13.832" width="25.2168" height="30.168" filterUnits="userSpaceOnUse" color-interpolation-filters="sRGB">
<feFlood flood-opacity="0" result="BackgroundImageFix"/>
<feColorMatrix in="SourceAlpha" type="matrix" values="0 0 0 0 0 0 0 0 0 0 0 0 0 0 0 0 0 0 127 0" result="hardAlpha"/>
<feOffset dy="3"/>
<feGaussianBlur stdDeviation="1"/>
<feComposite in2="hardAlpha" operator="out"/>
<feColorMatrix type="matrix" values="0 0 0 0 0.0683585 0 0 0 0 0.039462 0 0 0 0 0.150602 0 0 0 0.25 0"/>
<feBlend mode="normal" in2="BackgroundImageFix" result="effect1_dropShadow_14_1728"/>
<feBlend mode="normal" in="SourceGraphic" in2="effect1_dropShadow_14_1728" result="shape"/>
</filter>
<filter id="filter5_d_14_1728" x="130.923" y="13.832" width="10.4248" height="30.168" filterUnits="userSpaceOnUse" color-interpolation-filters="sRGB">
<feFlood flood-opacity="0" result="BackgroundImageFix"/>
<feColorMatrix in="SourceAlpha" type="matrix" values="0 0 0 0 0 0 0 0 0 0 0 0 0 0 0 0 0 0 127 0" result="hardAlpha"/>
<feOffset dy="3"/>
<feGaussianBlur stdDeviation="1"/>
<feComposite in2="hardAlpha" operator="out"/>
<feColorMatrix type="matrix" values="0 0 0 0 0.0683585 0 0 0 0 0.039462 0 0 0 0 0.150602 0 0 0 0.25 0"/>
<feBlend mode="normal" in2="BackgroundImageFix" result="effect1_dropShadow_14_1728"/>
<feBlend mode="normal" in="SourceGraphic" in2="effect1_dropShadow_14_1728" result="shape"/>
</filter>
<filter id="filter6_d_14_1728" x="115.881" y="13.832" width="17.8789" height="30.168" filterUnits="userSpaceOnUse" color-interpolation-filters="sRGB">
<feFlood flood-opacity="0" result="BackgroundImageFix"/>
<feColorMatrix in="SourceAlpha" type="matrix" values="0 0 0 0 0 0 0 0 0 0 0 0 0 0 0 0 0 0 127 0" result="hardAlpha"/>
<feOffset dy="3"/>
<feGaussianBlur stdDeviation="1"/>
<feComposite in2="hardAlpha" operator="out"/>
<feColorMatrix type="matrix" values="0 0 0 0 0.0683585 0 0 0 0 0.039462 0 0 0 0 0.150602 0 0 0 0.25 0"/>
<feBlend mode="normal" in2="BackgroundImageFix" result="effect1_dropShadow_14_1728"/>
<feBlend mode="normal" in="SourceGraphic" in2="effect1_dropShadow_14_1728" result="shape"/>
</filter>
<filter id="filter7_d_14_1728" x="82.1436" y="13.832" width="25.2168" height="30.168" filterUnits="userSpaceOnUse" color-interpolation-filters="sRGB">
<feFlood flood-opacity="0" result="BackgroundImageFix"/>
<feColorMatrix in="SourceAlpha" type="matrix" values="0 0 0 0 0 0 0 0 0 0 0 0 0 0 0 0 0 0 127 0" result="hardAlpha"/>
<feOffset dy="3"/>
<feGaussianBlur stdDeviation="1"/>
<feComposite in2="hardAlpha" operator="out"/>
<feColorMatrix type="matrix" values="0 0 0 0 0.0683585 0 0 0 0 0.039462 0 0 0 0 0.150602 0 0 0 0.25 0"/>
<feBlend mode="normal" in2="BackgroundImageFix" result="effect1_dropShadow_14_1728"/>
<feBlend mode="normal" in="SourceGraphic" in2="effect1_dropShadow_14_1728" result="shape"/>
</filter>
<filter id="filter8_d_14_1728" x="55.7624" y="4.90039" width="29.168" height="39.0996" filterUnits="userSpaceOnUse" color-interpolation-filters="sRGB">
<feFlood flood-opacity="0" result="BackgroundImageFix"/>
<feColorMatrix in="SourceAlpha" type="matrix" values="0 0 0 0 0 0 0 0 0 0 0 0 0 0 0 0 0 0 127 0" result="hardAlpha"/>
<feOffset dy="3"/>
<feGaussianBlur stdDeviation="1"/>
<feComposite in2="hardAlpha" operator="out"/>
<feColorMatrix type="matrix" values="0 0 0 0 0.0683585 0 0 0 0 0.039462 0 0 0 0 0.150602 0 0 0 0.25 0"/>
<feBlend mode="normal" in2="BackgroundImageFix" result="effect1_dropShadow_14_1728"/>
<feBlend mode="normal" in="SourceGraphic" in2="effect1_dropShadow_14_1728" result="shape"/>
</filter>
<filter id="filter9_d_14_1728" x="29.0824" y="13.3672" width="30.5459" height="31.1143" filterUnits="userSpaceOnUse" color-interpolation-filters="sRGB">
<feFlood flood-opacity="0" result="BackgroundImageFix"/>
<feColorMatrix in="SourceAlpha" type="matrix" values="0 0 0 0 0 0 0 0 0 0 0 0 0 0 0 0 0 0 127 0" result="hardAlpha"/>
<feOffset dy="3"/>
<feGaussianBlur stdDeviation="1"/>
<feComposite in2="hardAlpha" operator="out"/>
<feColorMatrix type="matrix" values="0 0 0 0 0.0683585 0 0 0 0 0.039462 0 0 0 0 0.150602 0 0 0 0.25 0"/>
<feBlend mode="normal" in2="BackgroundImageFix" result="effect1_dropShadow_14_1728"/>
<feBlend mode="normal" in="SourceGraphic" in2="effect1_dropShadow_14_1728" result="shape"/>
</filter>
<filter id="filter10_d_14_1728" x="4.0127" y="13.832" width="28.0391" height="30.168" filterUnits="userSpaceOnUse" color-interpolation-filters="sRGB">
<feFlood flood-opacity="0" result="BackgroundImageFix"/>
<feColorMatrix in="SourceAlpha" type="matrix" values="0 0 0 0 0 0 0 0 0 0 0 0 0 0 0 0 0 0 127 0" result="hardAlpha"/>
<feOffset dy="3"/>
<feGaussianBlur stdDeviation="1"/>
<feComposite in2="hardAlpha" operator="out"/>
<feColorMatrix type="matrix" values="0 0 0 0 0.0683585 0 0 0 0 0.039462 0 0 0 0 0.150602 0 0 0 0.25 0"/>
<feBlend mode="normal" in2="BackgroundImageFix" result="effect1_dropShadow_14_1728"/>
<feBlend mode="normal" in="SourceGraphic" in2="effect1_dropShadow_14_1728" result="shape"/>
</filter>
<filter id="filter11_d_14_1728" x="240.037" y="9.83203" width="28.3193" height="38.168" filterUnits="userSpaceOnUse" color-interpolation-filters="sRGB">
<feFlood flood-opacity="0" result="BackgroundImageFix"/>
<feColorMatrix in="SourceAlpha" type="matrix" values="0 0 0 0 0 0 0 0 0 0 0 0 0 0 0 0 0 0 127 0" result="hardAlpha"/>
<feOffset dy="3"/>
<feGaussianBlur stdDeviation="1"/>
<feComposite in2="hardAlpha" operator="out"/>
<feColorMatrix type="matrix" values="0 0 0 0 0.0683585 0 0 0 0 0.039462 0 0 0 0 0.150602 0 0 0 0.25 0"/>
<feBlend mode="normal" in2="BackgroundImageFix" result="effect1_dropShadow_14_1728"/>
<feBlend mode="normal" in="SourceGraphic" in2="effect1_dropShadow_14_1728" result="shape"/>
</filter>
<filter id="filter12_d_14_1728" x="215.599" y="1.97949" width="37.168" height="54.1719" filterUnits="userSpaceOnUse" color-interpolation-filters="sRGB">
<feFlood flood-opacity="0" result="BackgroundImageFix"/>
<feColorMatrix in="SourceAlpha" type="matrix" values="0 0 0 0 0 0 0 0 0 0 0 0 0 0 0 0 0 0 127 0" result="hardAlpha"/>
<feOffset dy="3"/>
<feGaussianBlur stdDeviation="1"/>
<feComposite in2="hardAlpha" operator="out"/>
<feColorMatrix type="matrix" values="0 0 0 0 0.0683585 0 0 0 0 0.039462 0 0 0 0 0.150602 0 0 0 0.25 0"/>
<feBlend mode="normal" in2="BackgroundImageFix" result="effect1_dropShadow_14_1728"/>
<feBlend mode="normal" in="SourceGraphic" in2="effect1_dropShadow_14_1728" result="shape"/>
</filter>
<filter id="filter13_d_14_1728" x="192.654" y="9.83203" width="35.4581" height="38.168" filterUnits="userSpaceOnUse" color-interpolation-filters="sRGB">
<feFlood flood-opacity="0" result="BackgroundImageFix"/>
<feColorMatrix in="SourceAlpha" type="matrix" values="0 0 0 0 0 0 0 0 0 0 0 0 0 0 0 0 0 0 127 0" result="hardAlpha"/>
<feOffset dy="3"/>
<feGaussianBlur stdDeviation="1"/>
<feComposite in2="hardAlpha" operator="out"/>
<feColorMatrix type="matrix" values="0 0 0 0 0.0683585 0 0 0 0 0.039462 0 0 0 0 0.150602 0 0 0 0.25 0"/>
<feBlend mode="normal" in2="BackgroundImageFix" result="effect1_dropShadow_14_1728"/>
<feBlend mode="normal" in="SourceGraphic" in2="effect1_dropShadow_14_1728" result="shape"/>
</filter>
<filter id="filter14_d_14_1728" x="160.992" y="9.83203" width="33.084" height="38.168" filterUnits="userSpaceOnUse" color-interpolation-filters="sRGB">
<feFlood flood-opacity="0" result="BackgroundImageFix"/>
<feColorMatrix in="SourceAlpha" type="matrix" values="0 0 0 0 0 0 0 0 0 0 0 0 0 0 0 0 0 0 127 0" result="hardAlpha"/>
<feOffset dy="3"/>
<feGaussianBlur stdDeviation="1"/>
<feComposite in2="hardAlpha" operator="out"/>
<feColorMatrix type="matrix" values="0 0 0 0 0.0683585 0 0 0 0 0.039462 0 0 0 0 0.150602 0 0 0 0.25 0"/>
<feBlend mode="normal" in2="BackgroundImageFix" result="effect1_dropShadow_14_1728"/>
<feBlend mode="normal" in="SourceGraphic" in2="effect1_dropShadow_14_1728" result="shape"/>
</filter>
<filter id="filter15_d_14_1728" x="136.553" y="9.83203" width="33.2168" height="38.168" filterUnits="userSpaceOnUse" color-interpolation-filters="sRGB">
<feFlood flood-opacity="0" result="BackgroundImageFix"/>
<feColorMatrix in="SourceAlpha" type="matrix" values="0 0 0 0 0 0 0 0 0 0 0 0 0 0 0 0 0 0 127 0" result="hardAlpha"/>
<feOffset dy="3"/>
<feGaussianBlur stdDeviation="1"/>
<feComposite in2="hardAlpha" operator="out"/>
<feColorMatrix type="matrix" values="0 0 0 0 0.0683585 0 0 0 0 0.039462 0 0 0 0 0.150602 0 0 0 0.25 0"/>
<feBlend mode="normal" in2="BackgroundImageFix" result="effect1_dropShadow_14_1728"/>
<feBlend mode="normal" in="SourceGraphic" in2="effect1_dropShadow_14_1728" result="shape"/>
</filter>
<filter id="filter16_d_14_1728" x="126.923" y="9.83203" width="18.4248" height="38.168" filterUnits="userSpaceOnUse" color-interpolation-filters="sRGB">
<feFlood flood-opacity="0" result="BackgroundImageFix"/>
<feColorMatrix in="SourceAlpha" type="matrix" values="0 0 0 0 0 0 0 0 0 0 0 0 0 0 0 0 0 0 127 0" result="hardAlpha"/>
<feOffset dy="3"/>
<feGaussianBlur stdDeviation="1"/>
<feComposite in2="hardAlpha" operator="out"/>
<feColorMatrix type="matrix" values="0 0 0 0 0.0683585 0 0 0 0 0.039462 0 0 0 0 0.150602 0 0 0 0.25 0"/>
<feBlend mode="normal" in2="BackgroundImageFix" result="effect1_dropShadow_14_1728"/>
<feBlend mode="normal" in="SourceGraphic" in2="effect1_dropShadow_14_1728" result="shape"/>
</filter>
<filter id="filter17_d_14_1728" x="111.881" y="9.83203" width="25.8789" height="38.168" filterUnits="userSpaceOnUse" color-interpolation-filters="sRGB">
<feFlood flood-opacity="0" result="BackgroundImageFix"/>
<feColorMatrix in="SourceAlpha" type="matrix" values="0 0 0 0 0 0 0 0 0 0 0 0 0 0 0 0 0 0 127 0" result="hardAlpha"/>
<feOffset dy="3"/>
<feGaussianBlur stdDeviation="1"/>
<feComposite in2="hardAlpha" operator="out"/>
<feColorMatrix type="matrix" values="0 0 0 0 0.0683585 0 0 0 0 0.039462 0 0 0 0 0.150602 0 0 0 0.25 0"/>
<feBlend mode="normal" in2="BackgroundImageFix" result="effect1_dropShadow_14_1728"/>
<feBlend mode="normal" in="SourceGraphic" in2="effect1_dropShadow_14_1728" result="shape"/>
</filter>
<filter id="filter18_d_14_1728" x="78.1436" y="9.83203" width="33.2168" height="38.168" filterUnits="userSpaceOnUse" color-interpolation-filters="sRGB">
<feFlood flood-opacity="0" result="BackgroundImageFix"/>
<feColorMatrix in="SourceAlpha" type="matrix" values="0 0 0 0 0 0 0 0 0 0 0 0 0 0 0 0 0 0 127 0" result="hardAlpha"/>
<feOffset dy="3"/>
<feGaussianBlur stdDeviation="1"/>
<feComposite in2="hardAlpha" operator="out"/>
<feColorMatrix type="matrix" values="0 0 0 0 0.0683585 0 0 0 0 0.039462 0 0 0 0 0.150602 0 0 0 0.25 0"/>
<feBlend mode="normal" in2="BackgroundImageFix" result="effect1_dropShadow_14_1728"/>
<feBlend mode="normal" in="SourceGraphic" in2="effect1_dropShadow_14_1728" result="shape"/>
</filter>
<filter id="filter19_d_14_1728" x="51.7624" y="0.900383" width="37.168" height="47.0996" filterUnits="userSpaceOnUse" color-interpolation-filters="sRGB">
<feFlood flood-opacity="0" result="BackgroundImageFix"/>
<feColorMatrix in="SourceAlpha" type="matrix" values="0 0 0 0 0 0 0 0 0 0 0 0 0 0 0 0 0 0 127 0" result="hardAlpha"/>
<feOffset dy="3"/>
<feGaussianBlur stdDeviation="1"/>
<feComposite in2="hardAlpha" operator="out"/>
<feColorMatrix type="matrix" values="0 0 0 0 0.0683585 0 0 0 0 0.039462 0 0 0 0 0.150602 0 0 0 0.25 0"/>
<feBlend mode="normal" in2="BackgroundImageFix" result="effect1_dropShadow_14_1728"/>
<feBlend mode="normal" in="SourceGraphic" in2="effect1_dropShadow_14_1728" result="shape"/>
</filter>
<filter id="filter20_d_14_1728" x="26.4237" y="9.36719" width="37.2046" height="39.1143" filterUnits="userSpaceOnUse" color-interpolation-filters="sRGB">
<feFlood flood-opacity="0" result="BackgroundImageFix"/>
<feColorMatrix in="SourceAlpha" type="matrix" values="0 0 0 0 0 0 0 0 0 0 0 0 0 0 0 0 0 0 127 0" result="hardAlpha"/>
<feOffset dy="3"/>
<feGaussianBlur stdDeviation="1"/>
<feComposite in2="hardAlpha" operator="out"/>
<feColorMatrix type="matrix" values="0 0 0 0 0.0683585 0 0 0 0 0.039462 0 0 0 0 0.150602 0 0 0 0.25 0"/>
<feBlend mode="normal" in2="BackgroundImageFix" result="effect1_dropShadow_14_1728"/>
<feBlend mode="normal" in="SourceGraphic" in2="effect1_dropShadow_14_1728" result="shape"/>
</filter>
<filter id="filter21_d_14_1728" x="0.0126953" y="9.83203" width="34.8765" height="38.168" filterUnits="userSpaceOnUse" color-interpolation-filters="sRGB">
<feFlood flood-opacity="0" result="BackgroundImageFix"/>
<feColorMatrix in="SourceAlpha" type="matrix" values="0 0 0 0 0 0 0 0 0 0 0 0 0 0 0 0 0 0 127 0" result="hardAlpha"/>
<feOffset dy="3"/>
<feGaussianBlur stdDeviation="1"/>
<feComposite in2="hardAlpha" operator="out"/>
<feColorMatrix type="matrix" values="0 0 0 0 0.0683585 0 0 0 0 0.039462 0 0 0 0 0.150602 0 0 0 0.25 0"/>
<feBlend mode="normal" in2="BackgroundImageFix" result="effect1_dropShadow_14_1728"/>
<feBlend mode="normal" in="SourceGraphic" in2="effect1_dropShadow_14_1728" result="shape"/>
</filter>
<filter id="filter22_d_14_1728" x="246.037" y="13.832" width="17.6193" height="26.468" filterUnits="userSpaceOnUse" color-interpolation-filters="sRGB">
<feFlood flood-opacity="0" result="BackgroundImageFix"/>
<feColorMatrix in="SourceAlpha" type="matrix" values="0 0 0 0 0 0 0 0 0 0 0 0 0 0 0 0 0 0 127 0" result="hardAlpha"/>
<feOffset dx="1" dy="1"/>
<feGaussianBlur stdDeviation="0.15"/>
<feComposite in2="hardAlpha" operator="out"/>
<feColorMatrix type="matrix" values="0 0 0 0 0.113725 0 0 0 0 0.345098 0 0 0 0 0.4 0 0 0 1 0"/>
<feBlend mode="normal" in2="BackgroundImageFix" result="effect1_dropShadow_14_1728"/>
<feBlend mode="normal" in="SourceGraphic" in2="effect1_dropShadow_14_1728" result="shape"/>
</filter>
<filter id="filter23_d_14_1728" x="221.599" y="5.97949" width="26.468" height="42.4719" filterUnits="userSpaceOnUse" color-interpolation-filters="sRGB">
<feFlood flood-opacity="0" result="BackgroundImageFix"/>
<feColorMatrix in="SourceAlpha" type="matrix" values="0 0 0 0 0 0 0 0 0 0 0 0 0 0 0 0 0 0 127 0" result="hardAlpha"/>
<feOffset dx="1" dy="1"/>
<feGaussianBlur stdDeviation="0.15"/>
<feComposite in2="hardAlpha" operator="out"/>
<feColorMatrix type="matrix" values="0 0 0 0 0.113725 0 0 0 0 0.345098 0 0 0 0 0.4 0 0 0 1 0"/>
<feBlend mode="normal" in2="BackgroundImageFix" result="effect1_dropShadow_14_1728"/>
<feBlend mode="normal" in="SourceGraphic" in2="effect1_dropShadow_14_1728" result="shape"/>
</filter>
<filter id="filter24_d_14_1728" x="198.654" y="13.832" width="24.758" height="26.468" filterUnits="userSpaceOnUse" color-interpolation-filters="sRGB">
<feFlood flood-opacity="0" result="BackgroundImageFix"/>
<feColorMatrix in="SourceAlpha" type="matrix" values="0 0 0 0 0 0 0 0 0 0 0 0 0 0 0 0 0 0 127 0" result="hardAlpha"/>
<feOffset dx="1" dy="1"/>
<feGaussianBlur stdDeviation="0.15"/>
<feComposite in2="hardAlpha" operator="out"/>
<feColorMatrix type="matrix" values="0 0 0 0 0.113725 0 0 0 0 0.345098 0 0 0 0 0.4 0 0 0 1 0"/>
<feBlend mode="normal" in2="BackgroundImageFix" result="effect1_dropShadow_14_1728"/>
<feBlend mode="normal" in="SourceGraphic" in2="effect1_dropShadow_14_1728" result="shape"/>
</filter>
<filter id="filter25_d_14_1728" x="166.992" y="13.832" width="22.384" height="26.468" filterUnits="userSpaceOnUse" color-interpolation-filters="sRGB">
<feFlood flood-opacity="0" result="BackgroundImageFix"/>
<feColorMatrix in="SourceAlpha" type="matrix" values="0 0 0 0 0 0 0 0 0 0 0 0 0 0 0 0 0 0 127 0" result="hardAlpha"/>
<feOffset dx="1" dy="1"/>
<feGaussianBlur stdDeviation="0.15"/>
<feComposite in2="hardAlpha" operator="out"/>
<feColorMatrix type="matrix" values="0 0 0 0 0.113725 0 0 0 0 0.345098 0 0 0 0 0.4 0 0 0 1 0"/>
<feBlend mode="normal" in2="BackgroundImageFix" result="effect1_dropShadow_14_1728"/>
<feBlend mode="normal" in="SourceGraphic" in2="effect1_dropShadow_14_1728" result="shape"/>
</filter>
<filter id="filter26_d_14_1728" x="142.553" y="13.832" width="22.5168" height="26.468" filterUnits="userSpaceOnUse" color-interpolation-filters="sRGB">
<feFlood flood-opacity="0" result="BackgroundImageFix"/>
<feColorMatrix in="SourceAlpha" type="matrix" values="0 0 0 0 0 0 0 0 0 0 0 0 0 0 0 0 0 0 127 0" result="hardAlpha"/>
<feOffset dx="1" dy="1"/>
<feGaussianBlur stdDeviation="0.15"/>
<feComposite in2="hardAlpha" operator="out"/>
<feColorMatrix type="matrix" values="0 0 0 0 0.113725 0 0 0 0 0.345098 0 0 0 0 0.4 0 0 0 1 0"/>
<feBlend mode="normal" in2="BackgroundImageFix" result="effect1_dropShadow_14_1728"/>
<feBlend mode="normal" in="SourceGraphic" in2="effect1_dropShadow_14_1728" result="shape"/>
</filter>
<filter id="filter27_d_14_1728" x="132.923" y="13.832" width="7.7248" height="26.468" filterUnits="userSpaceOnUse" color-interpolation-filters="sRGB">
<feFlood flood-opacity="0" result="BackgroundImageFix"/>
<feColorMatrix in="SourceAlpha" type="matrix" values="0 0 0 0 0 0 0 0 0 0 0 0 0 0 0 0 0 0 127 0" result="hardAlpha"/>
<feOffset dx="1" dy="1"/>
<feGaussianBlur stdDeviation="0.15"/>
<feComposite in2="hardAlpha" operator="out"/>
<feColorMatrix type="matrix" values="0 0 0 0 0.113725 0 0 0 0 0.345098 0 0 0 0 0.4 0 0 0 1 0"/>
<feBlend mode="normal" in2="BackgroundImageFix" result="effect1_dropShadow_14_1728"/>
<feBlend mode="normal" in="SourceGraphic" in2="effect1_dropShadow_14_1728" result="shape"/>
</filter>
<filter id="filter28_d_14_1728" x="117.881" y="13.832" width="15.1789" height="26.468" filterUnits="userSpaceOnUse" color-interpolation-filters="sRGB">
<feFlood flood-opacity="0" result="BackgroundImageFix"/>
<feColorMatrix in="SourceAlpha" type="matrix" values="0 0 0 0 0 0 0 0 0 0 0 0 0 0 0 0 0 0 127 0" result="hardAlpha"/>
<feOffset dx="1" dy="1"/>
<feGaussianBlur stdDeviation="0.15"/>
<feComposite in2="hardAlpha" operator="out"/>
<feColorMatrix type="matrix" values="0 0 0 0 0.113725 0 0 0 0 0.345098 0 0 0 0 0.4 0 0 0 1 0"/>
<feBlend mode="normal" in2="BackgroundImageFix" result="effect1_dropShadow_14_1728"/>
<feBlend mode="normal" in="SourceGraphic" in2="effect1_dropShadow_14_1728" result="shape"/>
</filter>
<filter id="filter29_d_14_1728" x="84.1436" y="13.832" width="22.5168" height="26.468" filterUnits="userSpaceOnUse" color-interpolation-filters="sRGB">
<feFlood flood-opacity="0" result="BackgroundImageFix"/>
<feColorMatrix in="SourceAlpha" type="matrix" values="0 0 0 0 0 0 0 0 0 0 0 0 0 0 0 0 0 0 127 0" result="hardAlpha"/>
<feOffset dx="1" dy="1"/>
<feGaussianBlur stdDeviation="0.15"/>
<feComposite in2="hardAlpha" operator="out"/>
<feColorMatrix type="matrix" values="0 0 0 0 0.113725 0 0 0 0 0.345098 0 0 0 0 0.4 0 0 0 1 0"/>
<feBlend mode="normal" in2="BackgroundImageFix" result="effect1_dropShadow_14_1728"/>
<feBlend mode="normal" in="SourceGraphic" in2="effect1_dropShadow_14_1728" result="shape"/>
</filter>
<filter id="filter30_d_14_1728" x="57.7624" y="4.90039" width="26.468" height="35.3996" filterUnits="userSpaceOnUse" color-interpolation-filters="sRGB">
<feFlood flood-opacity="0" result="BackgroundImageFix"/>
<feColorMatrix in="SourceAlpha" type="matrix" values="0 0 0 0 0 0 0 0 0 0 0 0 0 0 0 0 0 0 127 0" result="hardAlpha"/>
<feOffset dx="1" dy="1"/>
<feGaussianBlur stdDeviation="0.15"/>
<feComposite in2="hardAlpha" operator="out"/>
<feColorMatrix type="matrix" values="0 0 0 0 0.113725 0 0 0 0 0.345098 0 0 0 0 0.4 0 0 0 1 0"/>
<feBlend mode="normal" in2="BackgroundImageFix" result="effect1_dropShadow_14_1728"/>
<feBlend mode="normal" in="SourceGraphic" in2="effect1_dropShadow_14_1728" result="shape"/>
</filter>
<filter id="filter31_d_14_1728" x="31.0824" y="13.3672" width="27.8459" height="27.4143" filterUnits="userSpaceOnUse" color-interpolation-filters="sRGB">
<feFlood flood-opacity="0" result="BackgroundImageFix"/>
<feColorMatrix in="SourceAlpha" type="matrix" values="0 0 0 0 0 0 0 0 0 0 0 0 0 0 0 0 0 0 127 0" result="hardAlpha"/>
<feOffset dx="1" dy="1"/>
<feGaussianBlur stdDeviation="0.15"/>
<feComposite in2="hardAlpha" operator="out"/>
<feColorMatrix type="matrix" values="0 0 0 0 0.113725 0 0 0 0 0.345098 0 0 0 0 0.4 0 0 0 1 0"/>
<feBlend mode="normal" in2="BackgroundImageFix" result="effect1_dropShadow_14_1728"/>
<feBlend mode="normal" in="SourceGraphic" in2="effect1_dropShadow_14_1728" result="shape"/>
</filter>
<filter id="filter32_d_14_1728" x="6.0127" y="13.832" width="25.3391" height="26.468" filterUnits="userSpaceOnUse" color-interpolation-filters="sRGB">
<feFlood flood-opacity="0" result="BackgroundImageFix"/>
<feColorMatrix in="SourceAlpha" type="matrix" values="0 0 0 0 0 0 0 0 0 0 0 0 0 0 0 0 0 0 127 0" result="hardAlpha"/>
<feOffset dx="1" dy="1"/>
<feGaussianBlur stdDeviation="0.15"/>
<feComposite in2="hardAlpha" operator="out"/>
<feColorMatrix type="matrix" values="0 0 0 0 0.113725 0 0 0 0 0.345098 0 0 0 0 0.4 0 0 0 1 0"/>
<feBlend mode="normal" in2="BackgroundImageFix" result="effect1_dropShadow_14_1728"/>
<feBlend mode="normal" in="SourceGraphic" in2="effect1_dropShadow_14_1728" result="shape"/>
</filter>
<linearGradient id="paint0_linear_14_1728" x1="149.806" y1="54.579" x2="144.888" y2="0.0387789" gradientUnits="userSpaceOnUse">
<stop stop-color="#1D5666"/>
<stop offset="1" stop-color="#5FDABC"/>
</linearGradient>
<linearGradient id="paint1_linear_14_1728" x1="149.806" y1="54.579" x2="144.888" y2="0.0387799" gradientUnits="userSpaceOnUse">
<stop stop-color="#1D5666"/>
<stop offset="1" stop-color="#5FDABC"/>
</linearGradient>
<linearGradient id="paint2_linear_14_1728" x1="149.806" y1="54.579" x2="144.888" y2="0.0387781" gradientUnits="userSpaceOnUse">
<stop stop-color="#1D5666"/>
<stop offset="1" stop-color="#5FDABC"/>
</linearGradient>
<linearGradient id="paint3_linear_14_1728" x1="149.806" y1="54.579" x2="144.888" y2="0.0387791" gradientUnits="userSpaceOnUse">
<stop stop-color="#1D5666"/>
<stop offset="1" stop-color="#5FDABC"/>
</linearGradient>
<linearGradient id="paint4_linear_14_1728" x1="149.806" y1="54.579" x2="144.888" y2="0.0387779" gradientUnits="userSpaceOnUse">
<stop stop-color="#1D5666"/>
<stop offset="1" stop-color="#5FDABC"/>
</linearGradient>
<linearGradient id="paint5_linear_14_1728" x1="149.806" y1="54.579" x2="144.888" y2="0.0387804" gradientUnits="userSpaceOnUse">
<stop stop-color="#1D5666"/>
<stop offset="1" stop-color="#5FDABC"/>
</linearGradient>
<linearGradient id="paint6_linear_14_1728" x1="149.806" y1="54.579" x2="144.888" y2="0.0387804" gradientUnits="userSpaceOnUse">
<stop stop-color="#1D5666"/>
<stop offset="1" stop-color="#5FDABC"/>
</linearGradient>
<linearGradient id="paint7_linear_14_1728" x1="149.806" y1="54.579" x2="144.888" y2="0.038781" gradientUnits="userSpaceOnUse">
<stop stop-color="#1D5666"/>
<stop offset="1" stop-color="#5FDABC"/>
</linearGradient>
<linearGradient id="paint8_linear_14_1728" x1="149.806" y1="54.5789" x2="144.888" y2="0.0387777" gradientUnits="userSpaceOnUse">
<stop stop-color="#1D5666"/>
<stop offset="1" stop-color="#5FDABC"/>
</linearGradient>
<linearGradient id="paint9_linear_14_1728" x1="149.806" y1="54.579" x2="144.888" y2="0.0387809" gradientUnits="userSpaceOnUse">
<stop stop-color="#1D5666"/>
<stop offset="1" stop-color="#5FDABC"/>
</linearGradient>
<linearGradient id="paint10_linear_14_1728" x1="149.806" y1="54.579" x2="144.888" y2="0.0387776" gradientUnits="userSpaceOnUse">
<stop stop-color="#1D5666"/>
<stop offset="1" stop-color="#5FDABC"/>
</linearGradient>
</defs>
</svg>
