<svg width="56" height="97" viewBox="0 0 56 97" fill="none" xmlns="http://www.w3.org/2000/svg">
<path d="M32.2759 74.836H19.4483C19.4943 70.3431 19.8851 66.6691 20.6207 63.8142C21.4023 60.9125 22.6667 58.2682 24.4138 55.8813C26.1609 53.4944 28.4828 50.7799 31.3793 47.7378C33.4943 45.5381 35.4253 43.4788 37.1724 41.56C38.9655 39.5943 40.4138 37.4882 41.5172 35.2417C42.6207 32.9484 43.1724 30.2105 43.1724 27.028C43.1724 23.7987 42.5977 21.014 41.4483 18.6739C40.3448 16.3338 38.6897 14.5319 36.4828 13.2683C34.3218 12.0047 31.6322 11.3728 28.4138 11.3728C25.7471 11.3728 23.2184 11.8642 20.8276 12.8471C18.4368 13.8299 16.5057 15.351 15.0345 17.4103C13.5632 19.4227 12.8046 22.067 12.7586 25.3432H0C0.091954 20.0546 1.37931 15.5148 3.86207 11.7238C6.3908 7.9329 9.7931 5.03119 14.069 3.01871C18.3448 1.00624 23.1264 0 28.4138 0C34.2529 0 39.2184 1.07644 43.3103 3.22932C47.4483 5.3822 50.5977 8.47112 52.7586 12.4961C54.9195 16.4742 56 21.2012 56 26.677C56 30.8892 55.1494 34.7737 53.4483 38.3306C51.7931 41.8408 49.6552 45.1403 47.0345 48.2292C44.4138 51.3181 41.6322 54.2666 38.6897 57.0748C36.1609 59.4616 34.4598 62.1527 33.5862 65.1481C32.7126 68.1434 32.2759 71.3727 32.2759 74.836Z" fill="white" fill-opacity="0.5"/>
<path d="M20.8276 84.2933C19.5402 85.7442 18.8965 87.5226 18.8965 89.6287C18.8965 91.6412 19.5402 93.3729 20.8276 94.8237C22.1149 96.2746 23.977 97 26.4138 97C28.8965 97 30.7816 96.2746 32.069 94.8237C33.3563 93.3729 34 91.6412 34 89.6287C34 87.5226 33.3563 85.7442 32.069 84.2933C30.7816 82.8425 28.8965 82.117 26.4138 82.117C23.977 82.117 22.1149 82.8425 20.8276 84.2933Z" fill="white" fill-opacity="0.5"/>
</svg>
