<svg width="45" height="27" viewBox="0 0 45 27" fill="none" xmlns="http://www.w3.org/2000/svg">
<g clip-path="url(#clip0_46_96)">
<path d="M44.5 6.5L38.5 0H0V27H38.5L44.5 21V6.5Z" fill="url(#paint0_linear_46_96)"/>
</g>
<path d="M5.71191 8.89062H6.93262V13.6416C6.93262 14.182 6.81543 14.6344 6.58105 14.999C6.34668 15.3636 6.02767 15.6387 5.62402 15.8242C5.22363 16.0065 4.77604 16.0977 4.28125 16.0977C3.77018 16.0977 3.31445 16.0065 2.91406 15.8242C2.51367 15.6387 2.19792 15.3636 1.9668 14.999C1.73893 14.6344 1.625 14.182 1.625 13.6416V8.89062H2.8457V13.6416C2.8457 13.9834 2.9043 14.265 3.02148 14.4863C3.13867 14.7044 3.30469 14.8656 3.51953 14.9697C3.73438 15.0739 3.98828 15.126 4.28125 15.126C4.57422 15.126 4.8265 15.0739 5.03809 14.9697C5.25293 14.8656 5.41895 14.7044 5.53613 14.4863C5.65332 14.265 5.71191 13.9834 5.71191 13.6416V8.89062ZM8.93008 11.7227V16H7.75332V10.7168H8.87637L8.93008 11.7227ZM10.5463 10.6826L10.5365 11.7764C10.4649 11.7633 10.3868 11.7536 10.3021 11.7471C10.2208 11.7406 10.1394 11.7373 10.058 11.7373C9.85618 11.7373 9.67878 11.7666 9.52578 11.8252C9.37279 11.8805 9.24421 11.9619 9.14004 12.0693C9.03913 12.1735 8.961 12.3005 8.90566 12.4502C8.85033 12.5999 8.81777 12.7676 8.80801 12.9531L8.53945 12.9727C8.53945 12.6406 8.57201 12.333 8.63711 12.0498C8.70221 11.7666 8.79987 11.5176 8.93008 11.3027C9.06354 11.0879 9.22956 10.9202 9.42812 10.7998C9.62995 10.6794 9.8627 10.6191 10.1264 10.6191C10.198 10.6191 10.2745 10.6257 10.3559 10.6387C10.4405 10.6517 10.504 10.6663 10.5463 10.6826ZM14.0623 14.7549V10.7168H15.2439V16H14.1307L14.0623 14.7549ZM14.2283 13.6562L14.6238 13.6465C14.6238 14.0013 14.5848 14.3285 14.5066 14.6279C14.4285 14.9242 14.3081 15.1829 14.1453 15.4043C13.9826 15.6224 13.7742 15.7933 13.5203 15.917C13.2664 16.0374 12.962 16.0977 12.6072 16.0977C12.3501 16.0977 12.1141 16.0602 11.8992 15.9854C11.6844 15.9105 11.4988 15.7949 11.3426 15.6387C11.1896 15.4824 11.0708 15.279 10.9861 15.0283C10.9015 14.7777 10.8592 14.4782 10.8592 14.1299V10.7168H12.0359V14.1396C12.0359 14.3317 12.0587 14.4928 12.1043 14.623C12.1499 14.75 12.2117 14.8525 12.2898 14.9307C12.368 15.0088 12.4591 15.0641 12.5633 15.0967C12.6674 15.1292 12.7781 15.1455 12.8953 15.1455C13.2306 15.1455 13.4943 15.0804 13.6863 14.9502C13.8816 14.8167 14.02 14.6377 14.1014 14.4131C14.186 14.1885 14.2283 13.9362 14.2283 13.6562ZM18.4719 10.7168V11.5762H15.4934V10.7168H18.4719ZM16.3527 9.42285H17.5295V14.54C17.5295 14.7028 17.5523 14.8281 17.5979 14.916C17.6467 15.0007 17.7134 15.0576 17.798 15.0869C17.8827 15.1162 17.982 15.1309 18.0959 15.1309C18.1773 15.1309 18.2554 15.126 18.3303 15.1162C18.4051 15.1064 18.4654 15.0967 18.5109 15.0869L18.5158 15.9854C18.4182 16.0146 18.3042 16.0407 18.174 16.0635C18.0471 16.0863 17.9006 16.0977 17.7346 16.0977C17.4644 16.0977 17.2251 16.0505 17.0168 15.9561C16.8085 15.8584 16.6457 15.7005 16.5285 15.4824C16.4113 15.2643 16.3527 14.9746 16.3527 14.6133V9.42285ZM18.6383 13.417V13.3047C18.6383 12.9238 18.6936 12.5706 18.8043 12.2451C18.915 11.9163 19.0745 11.6315 19.2828 11.3906C19.4944 11.1465 19.7516 10.9577 20.0543 10.8242C20.3603 10.6875 20.7053 10.6191 21.0895 10.6191C21.4768 10.6191 21.8219 10.6875 22.1246 10.8242C22.4306 10.9577 22.6894 11.1465 22.901 11.3906C23.1126 11.6315 23.2737 11.9163 23.3844 12.2451C23.4951 12.5706 23.5504 12.9238 23.5504 13.3047V13.417C23.5504 13.7979 23.4951 14.151 23.3844 14.4766C23.2737 14.8021 23.1126 15.0869 22.901 15.3311C22.6894 15.5719 22.4322 15.7607 22.1295 15.8975C21.8268 16.0309 21.4833 16.0977 21.0992 16.0977C20.7118 16.0977 20.3652 16.0309 20.0592 15.8975C19.7564 15.7607 19.4993 15.5719 19.2877 15.3311C19.0761 15.0869 18.915 14.8021 18.8043 14.4766C18.6936 14.151 18.6383 13.7979 18.6383 13.417ZM19.815 13.3047V13.417C19.815 13.6546 19.8395 13.8792 19.8883 14.0908C19.9371 14.3024 20.0136 14.488 20.1178 14.6475C20.2219 14.807 20.3554 14.9323 20.5182 15.0234C20.6809 15.1146 20.8746 15.1602 21.0992 15.1602C21.3173 15.1602 21.5061 15.1146 21.6656 15.0234C21.8284 14.9323 21.9618 14.807 22.066 14.6475C22.1702 14.488 22.2467 14.3024 22.2955 14.0908C22.3476 13.8792 22.3736 13.6546 22.3736 13.417V13.3047C22.3736 13.0703 22.3476 12.849 22.2955 12.6406C22.2467 12.429 22.1686 12.2419 22.0611 12.0791C21.957 11.9163 21.8235 11.7894 21.6607 11.6982C21.5012 11.6038 21.3108 11.5566 21.0895 11.5566C20.8681 11.5566 20.676 11.6038 20.5133 11.6982C20.3538 11.7894 20.2219 11.9163 20.1178 12.0791C20.0136 12.2419 19.9371 12.429 19.8883 12.6406C19.8395 12.849 19.815 13.0703 19.815 13.3047ZM25.3037 11.8447V16H24.127V10.7168H25.2354L25.3037 11.8447ZM25.0938 13.1631L24.7129 13.1582C24.7161 12.7839 24.7682 12.4404 24.8691 12.1279C24.9733 11.8154 25.1165 11.5469 25.2988 11.3223C25.4844 11.0977 25.7057 10.9251 25.9629 10.8047C26.2201 10.681 26.5065 10.6191 26.8223 10.6191C27.0762 10.6191 27.3057 10.6549 27.5107 10.7266C27.7191 10.7949 27.8965 10.9072 28.043 11.0635C28.1927 11.2197 28.3066 11.4232 28.3848 11.6738C28.4629 11.9212 28.502 12.2256 28.502 12.5869V16H27.3203V12.582C27.3203 12.3281 27.2829 12.1279 27.208 11.9814C27.1364 11.8317 27.0306 11.7259 26.8906 11.6641C26.7539 11.599 26.583 11.5664 26.3779 11.5664C26.1761 11.5664 25.9954 11.6087 25.8359 11.6934C25.6764 11.778 25.5413 11.8936 25.4307 12.04C25.3232 12.1865 25.2402 12.3558 25.1816 12.5479C25.123 12.7399 25.0938 12.945 25.0938 13.1631ZM32.5258 14.9062V8.5H33.7074V16H32.6381L32.5258 14.9062ZM29.0883 13.417V13.3145C29.0883 12.9141 29.1355 12.5495 29.2299 12.2207C29.3243 11.8887 29.461 11.6038 29.64 11.3662C29.8191 11.1253 30.0372 10.9414 30.2943 10.8145C30.5515 10.6842 30.8412 10.6191 31.1635 10.6191C31.4825 10.6191 31.7624 10.681 32.0033 10.8047C32.2442 10.9284 32.4493 11.1058 32.6186 11.3369C32.7878 11.5648 32.9229 11.8382 33.0238 12.1572C33.1247 12.473 33.1964 12.8245 33.2387 13.2119V13.5391C33.1964 13.9167 33.1247 14.2617 33.0238 14.5742C32.9229 14.8867 32.7878 15.1569 32.6186 15.3848C32.4493 15.6126 32.2426 15.7884 31.9984 15.9121C31.7576 16.0358 31.476 16.0977 31.1537 16.0977C30.8347 16.0977 30.5466 16.0309 30.2895 15.8975C30.0355 15.764 29.8191 15.5768 29.64 15.3359C29.461 15.0951 29.3243 14.8118 29.2299 14.4863C29.1355 14.1576 29.0883 13.8011 29.0883 13.417ZM30.265 13.3145V13.417C30.265 13.6579 30.2862 13.8825 30.3285 14.0908C30.3741 14.2992 30.4441 14.4831 30.5385 14.6426C30.6329 14.7988 30.7549 14.9225 30.9047 15.0137C31.0577 15.1016 31.24 15.1455 31.4516 15.1455C31.7185 15.1455 31.9382 15.0869 32.1107 14.9697C32.2833 14.8525 32.4184 14.6947 32.516 14.4961C32.6169 14.2943 32.6853 14.0697 32.7211 13.8223V12.9385C32.7016 12.7464 32.6609 12.5674 32.599 12.4014C32.5404 12.2354 32.4607 12.0905 32.3598 11.9668C32.2589 11.8398 32.1335 11.7422 31.9838 11.6738C31.8373 11.6022 31.6632 11.5664 31.4613 11.5664C31.2465 11.5664 31.0642 11.612 30.9145 11.7031C30.7647 11.7943 30.641 11.9196 30.5434 12.0791C30.449 12.2386 30.379 12.4242 30.3334 12.6357C30.2878 12.8473 30.265 13.0736 30.265 13.3145ZM36.867 16.0977C36.4764 16.0977 36.1232 16.0342 35.8074 15.9072C35.4949 15.777 35.228 15.5964 35.0066 15.3652C34.7885 15.1341 34.6209 14.8623 34.5037 14.5498C34.3865 14.2373 34.3279 13.9004 34.3279 13.5391V13.3438C34.3279 12.9303 34.3882 12.556 34.5086 12.2207C34.629 11.8854 34.7967 11.599 35.0115 11.3613C35.2264 11.1204 35.4803 10.9365 35.7732 10.8096C36.0662 10.6826 36.3836 10.6191 36.7254 10.6191C37.103 10.6191 37.4334 10.6826 37.7166 10.8096C37.9998 10.9365 38.2342 11.1156 38.4197 11.3467C38.6085 11.5745 38.7485 11.8464 38.8396 12.1621C38.9341 12.4779 38.9813 12.8262 38.9813 13.207V13.71H34.8992V12.8652H37.8191V12.7725C37.8126 12.5609 37.7703 12.3623 37.6922 12.1768C37.6173 11.9912 37.5018 11.8415 37.3455 11.7275C37.1893 11.6136 36.9809 11.5566 36.7205 11.5566C36.5252 11.5566 36.351 11.599 36.198 11.6836C36.0483 11.765 35.923 11.8838 35.8221 12.04C35.7212 12.1963 35.643 12.3851 35.5877 12.6064C35.5356 12.8245 35.5096 13.0703 35.5096 13.3438V13.5391C35.5096 13.7702 35.5405 13.985 35.6023 14.1836C35.6674 14.3789 35.7618 14.5498 35.8855 14.6963C36.0092 14.8428 36.159 14.9583 36.3348 15.043C36.5105 15.1243 36.7107 15.165 36.9354 15.165C37.2186 15.165 37.4708 15.1081 37.6922 14.9941C37.9135 14.8802 38.1056 14.7191 38.2684 14.5107L38.8885 15.1113C38.7745 15.2773 38.6264 15.4368 38.4441 15.5898C38.2618 15.7396 38.0389 15.8617 37.7752 15.9561C37.5148 16.0505 37.212 16.0977 36.867 16.0977Z" fill="white"/>
<defs>
<linearGradient id="paint0_linear_46_96" x1="22.25" y1="27" x2="22.25" y2="0" gradientUnits="userSpaceOnUse">
<stop stop-color="#0E5655"/>
<stop offset="1" stop-color="#2FCDA9"/>
</linearGradient>
<clipPath id="clip0_46_96">
<rect width="44.5" height="27" fill="white"/>
</clipPath>
</defs>
</svg>
