<svg width="45" height="27" viewBox="0 0 45 27" fill="none" xmlns="http://www.w3.org/2000/svg">
<path d="M0 20.5L6 27H44.5V0H6L0 6V20.5Z" fill="url(#paint0_linear_1_108)"/>
<path d="M44.5 12L6 27H44.5V12Z" fill="white" fill-opacity="0.15"/>
<path d="M44.5 21L34.5 27H44.5V21Z" fill="white" fill-opacity="0.1"/>
<path d="M11.377 9.46875V18H9.91797V9.46875H11.377ZM14.0547 9.46875V10.6406H7.26367V9.46875H14.0547ZM15.9536 9V18H14.5473V9H15.9536ZM15.7075 14.5957L15.2505 14.5898C15.2544 14.1523 15.3149 13.748 15.4321 13.377C15.5532 13.0059 15.7212 12.6836 15.936 12.4102C16.1548 12.1328 16.4165 11.9199 16.7212 11.7715C17.0259 11.6191 17.3637 11.543 17.7348 11.543C18.0473 11.543 18.3286 11.5859 18.5786 11.6719C18.8325 11.7578 19.0512 11.8965 19.2348 12.0879C19.4184 12.2754 19.5571 12.5215 19.6509 12.8262C19.7485 13.127 19.7973 13.4941 19.7973 13.9277V18H18.3794V13.916C18.3794 13.6113 18.3345 13.3691 18.2446 13.1895C18.1587 13.0098 18.0317 12.8809 17.8637 12.8027C17.6958 12.7207 17.4907 12.6797 17.2485 12.6797C16.9946 12.6797 16.77 12.7305 16.5747 12.832C16.3833 12.9336 16.2231 13.0723 16.0942 13.248C15.9653 13.4238 15.8677 13.627 15.8012 13.8574C15.7387 14.0879 15.7075 14.334 15.7075 14.5957ZM23.542 18.1172C23.0732 18.1172 22.6494 18.041 22.2705 17.8887C21.8955 17.7324 21.5752 17.5156 21.3095 17.2383C21.0478 16.9609 20.8466 16.6348 20.706 16.2598C20.5654 15.8848 20.4951 15.4805 20.4951 15.0469V14.8125C20.4951 14.3164 20.5673 13.8672 20.7119 13.4648C20.8564 13.0625 21.0576 12.7188 21.3154 12.4336C21.5732 12.1445 21.8779 11.9238 22.2295 11.7715C22.581 11.6191 22.9619 11.543 23.372 11.543C23.8252 11.543 24.2216 11.6191 24.5615 11.7715C24.9013 11.9238 25.1826 12.1387 25.4052 12.416C25.6318 12.6895 25.7998 13.0156 25.9091 13.3945C26.0224 13.7734 26.0791 14.1914 26.0791 14.6484V15.252H21.1806V14.2383H24.6845V14.127C24.6767 13.873 24.6259 13.6348 24.5322 13.4121C24.4423 13.1895 24.3037 13.0098 24.1162 12.873C23.9287 12.7363 23.6787 12.668 23.3662 12.668C23.1318 12.668 22.9228 12.7188 22.7392 12.8203C22.5595 12.918 22.4091 13.0605 22.288 13.248C22.167 13.4355 22.0732 13.6621 22.0068 13.9277C21.9443 14.1895 21.913 14.4844 21.913 14.8125V15.0469C21.913 15.3242 21.9502 15.582 22.0244 15.8203C22.1025 16.0547 22.2158 16.2598 22.3642 16.4355C22.5127 16.6113 22.6923 16.75 22.9033 16.8516C23.1142 16.9492 23.3545 16.998 23.624 16.998C23.9638 16.998 24.2666 16.9297 24.5322 16.793C24.7978 16.6562 25.0283 16.4629 25.2236 16.2129L25.9677 16.9336C25.831 17.1328 25.6533 17.3242 25.4345 17.5078C25.2158 17.6875 24.9482 17.834 24.6318 17.9473C24.3193 18.0605 23.956 18.1172 23.542 18.1172ZM23.7705 9.38672L25.3935 10.834H24.2802L23.2548 9.89648L22.2236 10.834H21.1162L22.7334 9.38672H23.7705ZM25.6748 10.0547H24.8779L24.831 9.33984C24.999 9.32812 25.1337 9.31055 25.2353 9.28711C25.3408 9.26367 25.417 9.22852 25.4638 9.18164C25.5146 9.13477 25.54 9.07422 25.54 9C25.54 8.90234 25.5048 8.82812 25.4345 8.77734C25.3681 8.72266 25.2763 8.68359 25.1591 8.66016C25.0459 8.63672 24.917 8.625 24.7724 8.625L24.8134 8.02148C25.0791 8.02148 25.3115 8.04492 25.5107 8.0918C25.7138 8.13477 25.8837 8.19922 26.0205 8.28516C26.1611 8.36719 26.2666 8.4668 26.3369 8.58398C26.4072 8.69727 26.4423 8.82812 26.4423 8.97656C26.4423 9.21875 26.3623 9.39648 26.2021 9.50977C26.042 9.62305 25.8662 9.69336 25.6748 9.7207V10.0547ZM30.7206 9V18H29.3027V9H30.7206ZM34.5824 18.1172C34.1137 18.1172 33.6898 18.041 33.3109 17.8887C32.9359 17.7324 32.6156 17.5156 32.35 17.2383C32.0883 16.9609 31.8871 16.6348 31.7465 16.2598C31.6059 15.8848 31.5355 15.4805 31.5355 15.0469V14.8125C31.5355 14.3164 31.6078 13.8672 31.7523 13.4648C31.8969 13.0625 32.098 12.7188 32.3559 12.4336C32.6137 12.1445 32.9184 11.9238 33.2699 11.7715C33.6215 11.6191 34.0023 11.543 34.4125 11.543C34.8656 11.543 35.2621 11.6191 35.602 11.7715C35.9418 11.9238 36.223 12.1387 36.4457 12.416C36.6723 12.6895 36.8402 13.0156 36.9496 13.3945C37.0629 13.7734 37.1195 14.1914 37.1195 14.6484V15.252H32.2211V14.2383H35.725V14.127C35.7172 13.873 35.6664 13.6348 35.5727 13.4121C35.4828 13.1895 35.3441 13.0098 35.1566 12.873C34.9691 12.7363 34.7191 12.668 34.4066 12.668C34.1723 12.668 33.9633 12.7188 33.7797 12.8203C33.6 12.918 33.4496 13.0605 33.3285 13.248C33.2074 13.4355 33.1137 13.6621 33.0473 13.9277C32.9848 14.1895 32.9535 14.4844 32.9535 14.8125V15.0469C32.9535 15.3242 32.9906 15.582 33.0648 15.8203C33.143 16.0547 33.2563 16.2598 33.4047 16.4355C33.5531 16.6113 33.7328 16.75 33.9438 16.8516C34.1547 16.9492 34.3949 16.998 34.6645 16.998C35.0043 16.998 35.307 16.9297 35.5727 16.793C35.8383 16.6562 36.0688 16.4629 36.2641 16.2129L37.0082 16.9336C36.8715 17.1328 36.6938 17.3242 36.475 17.5078C36.2563 17.6875 35.9887 17.834 35.6723 17.9473C35.3598 18.0605 34.9965 18.1172 34.5824 18.1172ZM34.723 9L36.3461 10.6172V10.6816H35.2035L34.307 9.76172L33.4105 10.6816H32.2914V10.6055L33.891 9H34.723ZM33.5688 19.4062C33.5688 19.2031 33.6391 19.0332 33.7797 18.8965C33.9242 18.7598 34.1215 18.6914 34.3715 18.6914C34.6215 18.6914 34.8188 18.7598 34.9633 18.8965C35.1078 19.0332 35.1801 19.2031 35.1801 19.4062C35.1801 19.6055 35.1078 19.7734 34.9633 19.9102C34.8188 20.0469 34.6215 20.1152 34.3715 20.1152C34.1215 20.1152 33.9242 20.0469 33.7797 19.9102C33.6391 19.7734 33.5688 19.6055 33.5688 19.4062Z" fill="white"/>
<defs>
<linearGradient id="paint0_linear_1_108" x1="22.25" y1="0" x2="22.25" y2="27" gradientUnits="userSpaceOnUse">
<stop stop-color="#2FCDA9"/>
<stop offset="1" stop-color="#0E5655"/>
</linearGradient>
</defs>
</svg>
