<svg width="59" height="27" viewBox="0 0 59 27" fill="none" xmlns="http://www.w3.org/2000/svg">
<path d="M0 20.5L7.95506 27H59V0H7.95506L0 6V20.5Z" fill="url(#paint0_linear_12_5)"/>
<path d="M10.4912 9.83789L8.36719 16H7.08301L9.75879 8.89062H10.5791L10.4912 9.83789ZM12.2686 16L10.1396 9.83789L10.0469 8.89062H10.8721L13.5576 16H12.2686ZM12.166 13.3633V14.335H8.29883V13.3633H12.166ZM14.9252 11.791V16H13.7484V10.7168H14.8568L14.9252 11.791ZM14.7348 13.1631L14.3344 13.1582C14.3344 12.7936 14.3799 12.4567 14.4711 12.1475C14.5622 11.8382 14.6957 11.5697 14.8715 11.3418C15.0473 11.1107 15.2654 10.9333 15.5258 10.8096C15.7895 10.6826 16.0938 10.6191 16.4389 10.6191C16.6798 10.6191 16.8995 10.6549 17.098 10.7266C17.2999 10.7949 17.474 10.904 17.6205 11.0537C17.7702 11.2035 17.8842 11.3955 17.9623 11.6299C18.0437 11.8643 18.0844 12.1475 18.0844 12.4795V16H16.9076V12.582C16.9076 12.3249 16.8686 12.123 16.7904 11.9766C16.7156 11.8301 16.6065 11.7259 16.4633 11.6641C16.3233 11.599 16.1557 11.5664 15.9604 11.5664C15.739 11.5664 15.5502 11.6087 15.3939 11.6934C15.241 11.778 15.1156 11.8936 15.018 12.04C14.9203 12.1865 14.8487 12.3558 14.8031 12.5479C14.7576 12.7399 14.7348 12.945 14.7348 13.1631ZM18.0111 12.8506L17.4594 12.9727C17.4594 12.6536 17.5033 12.3525 17.5912 12.0693C17.6824 11.7829 17.8142 11.5322 17.9867 11.3174C18.1625 11.0993 18.379 10.9284 18.6361 10.8047C18.8933 10.681 19.1879 10.6191 19.5199 10.6191C19.7901 10.6191 20.031 10.6566 20.2426 10.7314C20.4574 10.8031 20.6397 10.917 20.7895 11.0732C20.9392 11.2295 21.0531 11.4329 21.1312 11.6836C21.2094 11.931 21.2484 12.2305 21.2484 12.582V16H20.0668V12.5771C20.0668 12.3102 20.0277 12.1035 19.9496 11.957C19.8747 11.8105 19.7673 11.7096 19.6273 11.6543C19.4874 11.5957 19.3197 11.5664 19.1244 11.5664C18.9421 11.5664 18.781 11.6006 18.641 11.6689C18.5043 11.734 18.3887 11.8268 18.2943 11.9473C18.1999 12.0645 18.1283 12.1995 18.0795 12.3525C18.0339 12.5055 18.0111 12.6715 18.0111 12.8506ZM25.0379 14.9404V12.4209C25.0379 12.2321 25.0037 12.0693 24.9354 11.9326C24.867 11.7959 24.7628 11.6901 24.6229 11.6152C24.4861 11.5404 24.3136 11.5029 24.1053 11.5029C23.9132 11.5029 23.7472 11.5355 23.6072 11.6006C23.4673 11.6657 23.3582 11.7536 23.2801 11.8643C23.202 11.9749 23.1629 12.1003 23.1629 12.2402H21.991C21.991 12.0319 22.0415 11.8301 22.1424 11.6348C22.2433 11.4395 22.3898 11.2653 22.5818 11.1123C22.7739 10.9593 23.0034 10.8389 23.2703 10.751C23.5372 10.6631 23.8367 10.6191 24.1687 10.6191C24.5659 10.6191 24.9174 10.6859 25.2234 10.8193C25.5327 10.9528 25.7752 11.1546 25.951 11.4248C26.13 11.6917 26.2195 12.027 26.2195 12.4307V14.7793C26.2195 15.0202 26.2358 15.2367 26.2684 15.4287C26.3042 15.6175 26.3546 15.7819 26.4197 15.9219V16H25.2137C25.1583 15.873 25.1144 15.7119 25.0818 15.5166C25.0525 15.318 25.0379 15.126 25.0379 14.9404ZM25.2088 12.7871L25.2186 13.5146H24.3738C24.1557 13.5146 23.9637 13.5358 23.7977 13.5781C23.6316 13.6172 23.4933 13.6758 23.3826 13.7539C23.2719 13.832 23.1889 13.9264 23.1336 14.0371C23.0783 14.1478 23.0506 14.2731 23.0506 14.4131C23.0506 14.5531 23.0831 14.6816 23.1482 14.7988C23.2133 14.9128 23.3077 15.0023 23.4314 15.0674C23.5584 15.1325 23.7114 15.165 23.8904 15.165C24.1313 15.165 24.3413 15.1162 24.5203 15.0186C24.7026 14.9176 24.8458 14.7956 24.95 14.6523C25.0542 14.5059 25.1095 14.3675 25.116 14.2373L25.4969 14.7598C25.4578 14.8932 25.3911 15.0365 25.2967 15.1895C25.2023 15.3424 25.0786 15.4889 24.9256 15.6289C24.7758 15.7656 24.5952 15.8779 24.3836 15.9658C24.1753 16.0537 23.9344 16.0977 23.6609 16.0977C23.3159 16.0977 23.0083 16.0293 22.7381 15.8926C22.4679 15.7526 22.2563 15.5654 22.1033 15.3311C21.9503 15.0934 21.8738 14.8249 21.8738 14.5254C21.8738 14.2454 21.9259 13.998 22.0301 13.7832C22.1375 13.5651 22.2937 13.3828 22.4988 13.2363C22.7072 13.0898 22.9611 12.9792 23.2605 12.9043C23.56 12.8262 23.9018 12.7871 24.2859 12.7871H25.2088ZM29.4719 10.7168V11.5762H26.4934V10.7168H29.4719ZM27.3527 9.42285H28.5295V14.54C28.5295 14.7028 28.5523 14.8281 28.5979 14.916C28.6467 15.0007 28.7134 15.0576 28.798 15.0869C28.8827 15.1162 28.982 15.1309 29.0959 15.1309C29.1773 15.1309 29.2554 15.126 29.3303 15.1162C29.4051 15.1064 29.4654 15.0967 29.5109 15.0869L29.5158 15.9854C29.4182 16.0146 29.3042 16.0407 29.174 16.0635C29.0471 16.0863 28.9006 16.0977 28.7346 16.0977C28.4644 16.0977 28.2251 16.0505 28.0168 15.9561C27.8085 15.8584 27.6457 15.7005 27.5285 15.4824C27.4113 15.2643 27.3527 14.9746 27.3527 14.6133V9.42285ZM32.3092 16.0977C31.9186 16.0977 31.5654 16.0342 31.2496 15.9072C30.9371 15.777 30.6702 15.5964 30.4488 15.3652C30.2307 15.1341 30.0631 14.8623 29.9459 14.5498C29.8287 14.2373 29.7701 13.9004 29.7701 13.5391V13.3438C29.7701 12.9303 29.8303 12.556 29.9508 12.2207C30.0712 11.8854 30.2389 11.599 30.4537 11.3613C30.6686 11.1204 30.9225 10.9365 31.2154 10.8096C31.5084 10.6826 31.8258 10.6191 32.1676 10.6191C32.5452 10.6191 32.8756 10.6826 33.1588 10.8096C33.442 10.9365 33.6764 11.1156 33.8619 11.3467C34.0507 11.5745 34.1907 11.8464 34.2818 12.1621C34.3762 12.4779 34.4234 12.8262 34.4234 13.207V13.71H30.3414V12.8652H33.2613V12.7725C33.2548 12.5609 33.2125 12.3623 33.1344 12.1768C33.0595 11.9912 32.9439 11.8415 32.7877 11.7275C32.6314 11.6136 32.4231 11.5566 32.1627 11.5566C31.9674 11.5566 31.7932 11.599 31.6402 11.6836C31.4905 11.765 31.3652 11.8838 31.2643 12.04C31.1633 12.1963 31.0852 12.3851 31.0299 12.6064C30.9778 12.8245 30.9518 13.0703 30.9518 13.3438V13.5391C30.9518 13.7702 30.9827 13.985 31.0445 14.1836C31.1096 14.3789 31.204 14.5498 31.3277 14.6963C31.4514 14.8428 31.6012 14.9583 31.777 15.043C31.9527 15.1243 32.1529 15.165 32.3775 15.165C32.6607 15.165 32.913 15.1081 33.1344 14.9941C33.3557 14.8802 33.5478 14.7191 33.7105 14.5107L34.3307 15.1113C34.2167 15.2773 34.0686 15.4368 33.8863 15.5898C33.704 15.7396 33.4811 15.8617 33.2174 15.9561C32.957 16.0505 32.6542 16.0977 32.3092 16.0977ZM38.3252 10.7168H39.3945V15.8535C39.3945 16.3288 39.2936 16.7324 39.0918 17.0645C38.89 17.3965 38.6084 17.6488 38.2471 17.8213C37.8857 17.9971 37.4674 18.085 36.9922 18.085C36.7904 18.085 36.5658 18.0557 36.3184 17.9971C36.0742 17.9385 35.8366 17.8441 35.6055 17.7139C35.3776 17.5869 35.1872 17.4193 35.0342 17.2109L35.5859 16.5176C35.7747 16.7422 35.9831 16.9066 36.2109 17.0107C36.4388 17.1149 36.6781 17.167 36.9287 17.167C37.1989 17.167 37.4284 17.1165 37.6172 17.0156C37.8092 16.918 37.9574 16.7731 38.0615 16.5811C38.1657 16.389 38.2178 16.1546 38.2178 15.8779V11.9131L38.3252 10.7168ZM34.7363 13.417V13.3145C34.7363 12.9141 34.7852 12.5495 34.8828 12.2207C34.9805 11.8887 35.1204 11.6038 35.3027 11.3662C35.485 11.1253 35.7064 10.9414 35.9668 10.8145C36.2272 10.6842 36.5218 10.6191 36.8506 10.6191C37.1924 10.6191 37.4837 10.681 37.7246 10.8047C37.9688 10.9284 38.1722 11.1058 38.335 11.3369C38.4977 11.5648 38.6247 11.8382 38.7158 12.1572C38.8102 12.473 38.8802 12.8245 38.9258 13.2119V13.5391C38.8835 13.9167 38.8118 14.2617 38.7109 14.5742C38.61 14.8867 38.4766 15.1569 38.3105 15.3848C38.1445 15.6126 37.9395 15.7884 37.6953 15.9121C37.4544 16.0358 37.1696 16.0977 36.8408 16.0977C36.5186 16.0977 36.2272 16.0309 35.9668 15.8975C35.7096 15.764 35.4883 15.5768 35.3027 15.3359C35.1204 15.0951 34.9805 14.8118 34.8828 14.4863C34.7852 14.1576 34.7363 13.8011 34.7363 13.417ZM35.9131 13.3145V13.417C35.9131 13.6579 35.9359 13.8825 35.9814 14.0908C36.0303 14.2992 36.1035 14.4831 36.2012 14.6426C36.3021 14.7988 36.429 14.9225 36.582 15.0137C36.7383 15.1016 36.9222 15.1455 37.1338 15.1455C37.4105 15.1455 37.6367 15.0869 37.8125 14.9697C37.9915 14.8525 38.1283 14.6947 38.2227 14.4961C38.3203 14.2943 38.3887 14.0697 38.4277 13.8223V12.9385C38.4082 12.7464 38.3675 12.5674 38.3057 12.4014C38.2471 12.2354 38.1673 12.0905 38.0664 11.9668C37.9655 11.8398 37.8385 11.7422 37.6855 11.6738C37.5326 11.6022 37.3519 11.5664 37.1436 11.5664C36.932 11.5664 36.748 11.612 36.5918 11.7031C36.4355 11.7943 36.307 11.9196 36.2061 12.0791C36.1084 12.2386 36.0352 12.4242 35.9863 12.6357C35.9375 12.8473 35.9131 13.0736 35.9131 13.3145ZM42.5443 16.0977C42.1537 16.0977 41.8005 16.0342 41.4848 15.9072C41.1723 15.777 40.9053 15.5964 40.684 15.3652C40.4659 15.1341 40.2982 14.8623 40.1811 14.5498C40.0639 14.2373 40.0053 13.9004 40.0053 13.5391V13.3438C40.0053 12.9303 40.0655 12.556 40.1859 12.2207C40.3064 11.8854 40.474 11.599 40.6889 11.3613C40.9037 11.1204 41.1576 10.9365 41.4506 10.8096C41.7436 10.6826 42.0609 10.6191 42.4027 10.6191C42.7803 10.6191 43.1107 10.6826 43.3939 10.8096C43.6771 10.9365 43.9115 11.1156 44.0971 11.3467C44.2859 11.5745 44.4258 11.8464 44.517 12.1621C44.6114 12.4779 44.6586 12.8262 44.6586 13.207V13.71H40.5766V12.8652H43.4965V12.7725C43.49 12.5609 43.4477 12.3623 43.3695 12.1768C43.2947 11.9912 43.1791 11.8415 43.0229 11.7275C42.8666 11.6136 42.6583 11.5566 42.3979 11.5566C42.2025 11.5566 42.0284 11.599 41.8754 11.6836C41.7256 11.765 41.6003 11.8838 41.4994 12.04C41.3985 12.1963 41.3204 12.3851 41.265 12.6064C41.213 12.8245 41.1869 13.0703 41.1869 13.3438V13.5391C41.1869 13.7702 41.2178 13.985 41.2797 14.1836C41.3448 14.3789 41.4392 14.5498 41.5629 14.6963C41.6866 14.8428 41.8363 14.9583 42.0121 15.043C42.1879 15.1243 42.3881 15.165 42.6127 15.165C42.8959 15.165 43.1482 15.1081 43.3695 14.9941C43.5909 14.8802 43.7829 14.7191 43.9457 14.5107L44.5658 15.1113C44.4519 15.2773 44.3038 15.4368 44.1215 15.5898C43.9392 15.7396 43.7162 15.8617 43.4525 15.9561C43.1921 16.0505 42.8894 16.0977 42.5443 16.0977ZM46.3631 8.5V16H45.1814V8.5H46.3631ZM49.6443 10.7168L47.3445 13.2656L46.0848 14.5547L45.7771 13.5586L46.7293 12.3818L48.2234 10.7168H49.6443ZM48.4773 16L46.7635 13.5195L47.5057 12.6943L49.8396 16H48.4773ZM49.7668 13.417V13.3047C49.7668 12.9238 49.8221 12.5706 49.9328 12.2451C50.0435 11.9163 50.203 11.6315 50.4113 11.3906C50.6229 11.1465 50.8801 10.9577 51.1828 10.8242C51.4888 10.6875 51.8339 10.6191 52.218 10.6191C52.6053 10.6191 52.9504 10.6875 53.2531 10.8242C53.5591 10.9577 53.8179 11.1465 54.0295 11.3906C54.2411 11.6315 54.4022 11.9163 54.5129 12.2451C54.6236 12.5706 54.6789 12.9238 54.6789 13.3047V13.417C54.6789 13.7979 54.6236 14.151 54.5129 14.4766C54.4022 14.8021 54.2411 15.0869 54.0295 15.3311C53.8179 15.5719 53.5607 15.7607 53.258 15.8975C52.9553 16.0309 52.6118 16.0977 52.2277 16.0977C51.8404 16.0977 51.4937 16.0309 51.1877 15.8975C50.885 15.7607 50.6278 15.5719 50.4162 15.3311C50.2046 15.0869 50.0435 14.8021 49.9328 14.4766C49.8221 14.151 49.7668 13.7979 49.7668 13.417ZM50.9436 13.3047V13.417C50.9436 13.6546 50.968 13.8792 51.0168 14.0908C51.0656 14.3024 51.1421 14.488 51.2463 14.6475C51.3505 14.807 51.4839 14.9323 51.6467 15.0234C51.8094 15.1146 52.0031 15.1602 52.2277 15.1602C52.4458 15.1602 52.6346 15.1146 52.7941 15.0234C52.9569 14.9323 53.0904 14.807 53.1945 14.6475C53.2987 14.488 53.3752 14.3024 53.424 14.0908C53.4761 13.8792 53.5021 13.6546 53.5021 13.417V13.3047C53.5021 13.0703 53.4761 12.849 53.424 12.6406C53.3752 12.429 53.2971 12.2419 53.1896 12.0791C53.0855 11.9163 52.952 11.7894 52.7893 11.6982C52.6298 11.6038 52.4393 11.5566 52.218 11.5566C51.9966 11.5566 51.8046 11.6038 51.6418 11.6982C51.4823 11.7894 51.3505 11.9163 51.2463 12.0791C51.1421 12.2419 51.0656 12.429 51.0168 12.6406C50.968 12.849 50.9436 13.0703 50.9436 13.3047Z" fill="white"/>
<defs>
<linearGradient id="paint0_linear_12_5" x1="29.5" y1="0" x2="29.5" y2="27" gradientUnits="userSpaceOnUse">
<stop stop-color="#2FCDA9"/>
<stop offset="1" stop-color="#0E5655"/>
</linearGradient>
</defs>
</svg>
