<svg width="54" height="27" viewBox="0 0 54 27" fill="none" xmlns="http://www.w3.org/2000/svg">
<path d="M0 20.5L7.2809 27H54V0H7.2809L0 6V20.5Z" fill="url(#paint0_linear_46_66)"/>
<path d="M8.49121 9.83789L6.36719 16H5.08301L7.75879 8.89062H8.5791L8.49121 9.83789ZM10.2686 16L8.13965 9.83789L8.04688 8.89062H8.87207L11.5576 16H10.2686ZM10.166 13.3633V14.335H6.29883V13.3633H10.166ZM12.9252 11.791V16H11.7484V10.7168H12.8568L12.9252 11.791ZM12.7348 13.1631L12.3344 13.1582C12.3344 12.7936 12.3799 12.4567 12.4711 12.1475C12.5622 11.8382 12.6957 11.5697 12.8715 11.3418C13.0473 11.1107 13.2654 10.9333 13.5258 10.8096C13.7895 10.6826 14.0938 10.6191 14.4389 10.6191C14.6798 10.6191 14.8995 10.6549 15.098 10.7266C15.2999 10.7949 15.474 10.904 15.6205 11.0537C15.7702 11.2035 15.8842 11.3955 15.9623 11.6299C16.0437 11.8643 16.0844 12.1475 16.0844 12.4795V16H14.9076V12.582C14.9076 12.3249 14.8686 12.123 14.7904 11.9766C14.7156 11.8301 14.6065 11.7259 14.4633 11.6641C14.3233 11.599 14.1557 11.5664 13.9604 11.5664C13.739 11.5664 13.5502 11.6087 13.3939 11.6934C13.241 11.778 13.1156 11.8936 13.018 12.04C12.9203 12.1865 12.8487 12.3558 12.8031 12.5479C12.7576 12.7399 12.7348 12.945 12.7348 13.1631ZM16.0111 12.8506L15.4594 12.9727C15.4594 12.6536 15.5033 12.3525 15.5912 12.0693C15.6824 11.7829 15.8142 11.5322 15.9867 11.3174C16.1625 11.0993 16.379 10.9284 16.6361 10.8047C16.8933 10.681 17.1879 10.6191 17.5199 10.6191C17.7901 10.6191 18.031 10.6566 18.2426 10.7314C18.4574 10.8031 18.6397 10.917 18.7895 11.0732C18.9392 11.2295 19.0531 11.4329 19.1312 11.6836C19.2094 11.931 19.2484 12.2305 19.2484 12.582V16H18.0668V12.5771C18.0668 12.3102 18.0277 12.1035 17.9496 11.957C17.8747 11.8105 17.7673 11.7096 17.6273 11.6543C17.4874 11.5957 17.3197 11.5664 17.1244 11.5664C16.9421 11.5664 16.781 11.6006 16.641 11.6689C16.5043 11.734 16.3887 11.8268 16.2943 11.9473C16.1999 12.0645 16.1283 12.1995 16.0795 12.3525C16.0339 12.5055 16.0111 12.6715 16.0111 12.8506ZM23.0379 14.9404V12.4209C23.0379 12.2321 23.0037 12.0693 22.9354 11.9326C22.867 11.7959 22.7628 11.6901 22.6229 11.6152C22.4861 11.5404 22.3136 11.5029 22.1053 11.5029C21.9132 11.5029 21.7472 11.5355 21.6072 11.6006C21.4673 11.6657 21.3582 11.7536 21.2801 11.8643C21.202 11.9749 21.1629 12.1003 21.1629 12.2402H19.991C19.991 12.0319 20.0415 11.8301 20.1424 11.6348C20.2433 11.4395 20.3898 11.2653 20.5818 11.1123C20.7739 10.9593 21.0034 10.8389 21.2703 10.751C21.5372 10.6631 21.8367 10.6191 22.1687 10.6191C22.5659 10.6191 22.9174 10.6859 23.2234 10.8193C23.5327 10.9528 23.7752 11.1546 23.951 11.4248C24.13 11.6917 24.2195 12.027 24.2195 12.4307V14.7793C24.2195 15.0202 24.2358 15.2367 24.2684 15.4287C24.3042 15.6175 24.3546 15.7819 24.4197 15.9219V16H23.2137C23.1583 15.873 23.1144 15.7119 23.0818 15.5166C23.0525 15.318 23.0379 15.126 23.0379 14.9404ZM23.2088 12.7871L23.2186 13.5146H22.3738C22.1557 13.5146 21.9637 13.5358 21.7977 13.5781C21.6316 13.6172 21.4933 13.6758 21.3826 13.7539C21.2719 13.832 21.1889 13.9264 21.1336 14.0371C21.0783 14.1478 21.0506 14.2731 21.0506 14.4131C21.0506 14.5531 21.0831 14.6816 21.1482 14.7988C21.2133 14.9128 21.3077 15.0023 21.4314 15.0674C21.5584 15.1325 21.7114 15.165 21.8904 15.165C22.1313 15.165 22.3413 15.1162 22.5203 15.0186C22.7026 14.9176 22.8458 14.7956 22.95 14.6523C23.0542 14.5059 23.1095 14.3675 23.116 14.2373L23.4969 14.7598C23.4578 14.8932 23.3911 15.0365 23.2967 15.1895C23.2023 15.3424 23.0786 15.4889 22.9256 15.6289C22.7758 15.7656 22.5952 15.8779 22.3836 15.9658C22.1753 16.0537 21.9344 16.0977 21.6609 16.0977C21.3159 16.0977 21.0083 16.0293 20.7381 15.8926C20.4679 15.7526 20.2563 15.5654 20.1033 15.3311C19.9503 15.0934 19.8738 14.8249 19.8738 14.5254C19.8738 14.2454 19.9259 13.998 20.0301 13.7832C20.1375 13.5651 20.2937 13.3828 20.4988 13.2363C20.7072 13.0898 20.9611 12.9792 21.2605 12.9043C21.56 12.8262 21.9018 12.7871 22.2859 12.7871H23.2088ZM27.4719 10.7168V11.5762H24.4934V10.7168H27.4719ZM25.3527 9.42285H26.5295V14.54C26.5295 14.7028 26.5523 14.8281 26.5979 14.916C26.6467 15.0007 26.7134 15.0576 26.798 15.0869C26.8827 15.1162 26.982 15.1309 27.0959 15.1309C27.1773 15.1309 27.2554 15.126 27.3303 15.1162C27.4051 15.1064 27.4654 15.0967 27.5109 15.0869L27.5158 15.9854C27.4182 16.0146 27.3042 16.0407 27.174 16.0635C27.0471 16.0863 26.9006 16.0977 26.7346 16.0977C26.4644 16.0977 26.2251 16.0505 26.0168 15.9561C25.8085 15.8584 25.6457 15.7005 25.5285 15.4824C25.4113 15.2643 25.3527 14.9746 25.3527 14.6133V9.42285ZM30.3092 16.0977C29.9186 16.0977 29.5654 16.0342 29.2496 15.9072C28.9371 15.777 28.6702 15.5964 28.4488 15.3652C28.2307 15.1341 28.0631 14.8623 27.9459 14.5498C27.8287 14.2373 27.7701 13.9004 27.7701 13.5391V13.3438C27.7701 12.9303 27.8303 12.556 27.9508 12.2207C28.0712 11.8854 28.2389 11.599 28.4537 11.3613C28.6686 11.1204 28.9225 10.9365 29.2154 10.8096C29.5084 10.6826 29.8258 10.6191 30.1676 10.6191C30.5452 10.6191 30.8756 10.6826 31.1588 10.8096C31.442 10.9365 31.6764 11.1156 31.8619 11.3467C32.0507 11.5745 32.1907 11.8464 32.2818 12.1621C32.3762 12.4779 32.4234 12.8262 32.4234 13.207V13.71H28.3414V12.8652H31.2613V12.7725C31.2548 12.5609 31.2125 12.3623 31.1344 12.1768C31.0595 11.9912 30.9439 11.8415 30.7877 11.7275C30.6314 11.6136 30.4231 11.5566 30.1627 11.5566C29.9674 11.5566 29.7932 11.599 29.6402 11.6836C29.4905 11.765 29.3652 11.8838 29.2643 12.04C29.1633 12.1963 29.0852 12.3851 29.0299 12.6064C28.9778 12.8245 28.9518 13.0703 28.9518 13.3438V13.5391C28.9518 13.7702 28.9827 13.985 29.0445 14.1836C29.1096 14.3789 29.204 14.5498 29.3277 14.6963C29.4514 14.8428 29.6012 14.9583 29.777 15.043C29.9527 15.1243 30.1529 15.165 30.3775 15.165C30.6607 15.165 30.913 15.1081 31.1344 14.9941C31.3557 14.8802 31.5478 14.7191 31.7105 14.5107L32.3307 15.1113C32.2167 15.2773 32.0686 15.4368 31.8863 15.5898C31.704 15.7396 31.4811 15.8617 31.2174 15.9561C30.957 16.0505 30.6542 16.0977 30.3092 16.0977ZM36.3252 10.7168H37.3945V15.8535C37.3945 16.3288 37.2936 16.7324 37.0918 17.0645C36.89 17.3965 36.6084 17.6488 36.2471 17.8213C35.8857 17.9971 35.4674 18.085 34.9922 18.085C34.7904 18.085 34.5658 18.0557 34.3184 17.9971C34.0742 17.9385 33.8366 17.8441 33.6055 17.7139C33.3776 17.5869 33.1872 17.4193 33.0342 17.2109L33.5859 16.5176C33.7747 16.7422 33.9831 16.9066 34.2109 17.0107C34.4388 17.1149 34.6781 17.167 34.9287 17.167C35.1989 17.167 35.4284 17.1165 35.6172 17.0156C35.8092 16.918 35.9574 16.7731 36.0615 16.5811C36.1657 16.389 36.2178 16.1546 36.2178 15.8779V11.9131L36.3252 10.7168ZM32.7363 13.417V13.3145C32.7363 12.9141 32.7852 12.5495 32.8828 12.2207C32.9805 11.8887 33.1204 11.6038 33.3027 11.3662C33.485 11.1253 33.7064 10.9414 33.9668 10.8145C34.2272 10.6842 34.5218 10.6191 34.8506 10.6191C35.1924 10.6191 35.4837 10.681 35.7246 10.8047C35.9688 10.9284 36.1722 11.1058 36.335 11.3369C36.4977 11.5648 36.6247 11.8382 36.7158 12.1572C36.8102 12.473 36.8802 12.8245 36.9258 13.2119V13.5391C36.8835 13.9167 36.8118 14.2617 36.7109 14.5742C36.61 14.8867 36.4766 15.1569 36.3105 15.3848C36.1445 15.6126 35.9395 15.7884 35.6953 15.9121C35.4544 16.0358 35.1696 16.0977 34.8408 16.0977C34.5186 16.0977 34.2272 16.0309 33.9668 15.8975C33.7096 15.764 33.4883 15.5768 33.3027 15.3359C33.1204 15.0951 32.9805 14.8118 32.8828 14.4863C32.7852 14.1576 32.7363 13.8011 32.7363 13.417ZM33.9131 13.3145V13.417C33.9131 13.6579 33.9359 13.8825 33.9814 14.0908C34.0303 14.2992 34.1035 14.4831 34.2012 14.6426C34.3021 14.7988 34.429 14.9225 34.582 15.0137C34.7383 15.1016 34.9222 15.1455 35.1338 15.1455C35.4105 15.1455 35.6367 15.0869 35.8125 14.9697C35.9915 14.8525 36.1283 14.6947 36.2227 14.4961C36.3203 14.2943 36.3887 14.0697 36.4277 13.8223V12.9385C36.4082 12.7464 36.3675 12.5674 36.3057 12.4014C36.2471 12.2354 36.1673 12.0905 36.0664 11.9668C35.9655 11.8398 35.8385 11.7422 35.6855 11.6738C35.5326 11.6022 35.3519 11.5664 35.1436 11.5664C34.932 11.5664 34.748 11.612 34.5918 11.7031C34.4355 11.7943 34.307 11.9196 34.2061 12.0791C34.1084 12.2386 34.0352 12.4242 33.9863 12.6357C33.9375 12.8473 33.9131 13.0736 33.9131 13.3145ZM40.5443 16.0977C40.1537 16.0977 39.8005 16.0342 39.4848 15.9072C39.1723 15.777 38.9053 15.5964 38.684 15.3652C38.4659 15.1341 38.2982 14.8623 38.1811 14.5498C38.0639 14.2373 38.0053 13.9004 38.0053 13.5391V13.3438C38.0053 12.9303 38.0655 12.556 38.1859 12.2207C38.3064 11.8854 38.474 11.599 38.6889 11.3613C38.9037 11.1204 39.1576 10.9365 39.4506 10.8096C39.7436 10.6826 40.0609 10.6191 40.4027 10.6191C40.7803 10.6191 41.1107 10.6826 41.3939 10.8096C41.6771 10.9365 41.9115 11.1156 42.0971 11.3467C42.2859 11.5745 42.4258 11.8464 42.517 12.1621C42.6114 12.4779 42.6586 12.8262 42.6586 13.207V13.71H38.5766V12.8652H41.4965V12.7725C41.49 12.5609 41.4477 12.3623 41.3695 12.1768C41.2947 11.9912 41.1791 11.8415 41.0229 11.7275C40.8666 11.6136 40.6583 11.5566 40.3979 11.5566C40.2025 11.5566 40.0284 11.599 39.8754 11.6836C39.7256 11.765 39.6003 11.8838 39.4994 12.04C39.3985 12.1963 39.3204 12.3851 39.265 12.6064C39.213 12.8245 39.1869 13.0703 39.1869 13.3438V13.5391C39.1869 13.7702 39.2178 13.985 39.2797 14.1836C39.3448 14.3789 39.4392 14.5498 39.5629 14.6963C39.6866 14.8428 39.8363 14.9583 40.0121 15.043C40.1879 15.1243 40.3881 15.165 40.6127 15.165C40.8959 15.165 41.1482 15.1081 41.3695 14.9941C41.5909 14.8802 41.7829 14.7191 41.9457 14.5107L42.5658 15.1113C42.4519 15.2773 42.3038 15.4368 42.1215 15.5898C41.9392 15.7396 41.7162 15.8617 41.4525 15.9561C41.1921 16.0505 40.8894 16.0977 40.5443 16.0977ZM44.3631 8.5V16H43.1814V8.5H44.3631ZM47.6443 10.7168L45.3445 13.2656L44.0848 14.5547L43.7771 13.5586L44.7293 12.3818L46.2234 10.7168H47.6443ZM46.4773 16L44.7635 13.5195L45.5057 12.6943L47.8396 16H46.4773ZM47.7668 13.417V13.3047C47.7668 12.9238 47.8221 12.5706 47.9328 12.2451C48.0435 11.9163 48.203 11.6315 48.4113 11.3906C48.6229 11.1465 48.8801 10.9577 49.1828 10.8242C49.4888 10.6875 49.8339 10.6191 50.218 10.6191C50.6053 10.6191 50.9504 10.6875 51.2531 10.8242C51.5591 10.9577 51.8179 11.1465 52.0295 11.3906C52.2411 11.6315 52.4022 11.9163 52.5129 12.2451C52.6236 12.5706 52.6789 12.9238 52.6789 13.3047V13.417C52.6789 13.7979 52.6236 14.151 52.5129 14.4766C52.4022 14.8021 52.2411 15.0869 52.0295 15.3311C51.8179 15.5719 51.5607 15.7607 51.258 15.8975C50.9553 16.0309 50.6118 16.0977 50.2277 16.0977C49.8404 16.0977 49.4937 16.0309 49.1877 15.8975C48.885 15.7607 48.6278 15.5719 48.4162 15.3311C48.2046 15.0869 48.0435 14.8021 47.9328 14.4766C47.8221 14.151 47.7668 13.7979 47.7668 13.417ZM48.9436 13.3047V13.417C48.9436 13.6546 48.968 13.8792 49.0168 14.0908C49.0656 14.3024 49.1421 14.488 49.2463 14.6475C49.3505 14.807 49.4839 14.9323 49.6467 15.0234C49.8094 15.1146 50.0031 15.1602 50.2277 15.1602C50.4458 15.1602 50.6346 15.1146 50.7941 15.0234C50.9569 14.9323 51.0904 14.807 51.1945 14.6475C51.2987 14.488 51.3752 14.3024 51.424 14.0908C51.4761 13.8792 51.5021 13.6546 51.5021 13.417V13.3047C51.5021 13.0703 51.4761 12.849 51.424 12.6406C51.3752 12.429 51.2971 12.2419 51.1896 12.0791C51.0855 11.9163 50.952 11.7894 50.7893 11.6982C50.6298 11.6038 50.4393 11.5566 50.218 11.5566C49.9966 11.5566 49.8046 11.6038 49.6418 11.6982C49.4823 11.7894 49.3505 11.9163 49.2463 12.0791C49.1421 12.2419 49.0656 12.429 49.0168 12.6406C48.968 12.849 48.9436 13.0703 48.9436 13.3047Z" fill="white"/>
<defs>
<linearGradient id="paint0_linear_46_66" x1="27" y1="0" x2="27" y2="27" gradientUnits="userSpaceOnUse">
<stop stop-color="#2FCDA9"/>
<stop offset="1" stop-color="#0E5655"/>
</linearGradient>
</defs>
</svg>
