<svg width="112" height="22" viewBox="0 0 112 22" fill="none" xmlns="http://www.w3.org/2000/svg">
<g filter="url(#filter0_d_1_3457)">
<path d="M1.44141 0.78125H3.62891L7.74023 11.748L11.8418 0.78125H14.0293L8.59961 15H6.86133L1.44141 0.78125ZM0.445312 0.78125H2.52539L2.88672 10.2734V15H0.445312V0.78125ZM12.9453 0.78125H15.0352V15H12.584V10.2734L12.9453 0.78125ZM23.2684 12.5098V4.43359H25.6316V15H23.4051L23.2684 12.5098ZM23.6004 10.3125L24.3914 10.293C24.3914 11.0026 24.3133 11.6569 24.157 12.2559C24.0008 12.8483 23.7599 13.3659 23.4344 13.8086C23.1089 14.2448 22.6922 14.5866 22.1844 14.834C21.6766 15.0749 21.0678 15.1953 20.3582 15.1953C19.8439 15.1953 19.3719 15.1204 18.9422 14.9707C18.5125 14.821 18.1414 14.5898 17.8289 14.2773C17.5229 13.9648 17.2853 13.5579 17.116 13.0566C16.9467 12.5553 16.8621 11.9564 16.8621 11.2598V4.43359H19.2156V11.2793C19.2156 11.6634 19.2612 11.9857 19.3523 12.2461C19.4435 12.5 19.5672 12.7051 19.7234 12.8613C19.8797 13.0176 20.062 13.1283 20.2703 13.1934C20.4786 13.2585 20.7 13.291 20.9344 13.291C21.6049 13.291 22.1323 13.1608 22.5164 12.9004C22.907 12.6335 23.1837 12.2754 23.3465 11.8262C23.5158 11.377 23.6004 10.8724 23.6004 10.3125ZM29.607 6.44531V15H27.2535V4.43359H29.4996L29.607 6.44531ZM32.8395 4.36523L32.8199 6.55273C32.6767 6.52669 32.5204 6.50716 32.3512 6.49414C32.1884 6.48112 32.0257 6.47461 31.8629 6.47461C31.4592 6.47461 31.1044 6.5332 30.7984 6.65039C30.4924 6.76107 30.2353 6.92383 30.027 7.13867C29.8251 7.34701 29.6689 7.60091 29.5582 7.90039C29.4475 8.19987 29.3824 8.53516 29.3629 8.90625L28.8258 8.94531C28.8258 8.28125 28.8909 7.66602 29.0211 7.09961C29.1513 6.5332 29.3466 6.03516 29.607 5.60547C29.874 5.17578 30.206 4.84049 30.6031 4.59961C31.0068 4.35872 31.4723 4.23828 31.9996 4.23828C32.1428 4.23828 32.2958 4.2513 32.4586 4.27734C32.6279 4.30339 32.7548 4.33268 32.8395 4.36523ZM39.1195 12.8809V7.8418C39.1195 7.46419 39.0512 7.13867 38.9145 6.86523C38.7777 6.5918 38.5694 6.38021 38.2895 6.23047C38.016 6.08073 37.671 6.00586 37.2543 6.00586C36.8702 6.00586 36.5381 6.07096 36.2582 6.20117C35.9783 6.33138 35.7602 6.50716 35.6039 6.72852C35.4477 6.94987 35.3695 7.20052 35.3695 7.48047H33.0258C33.0258 7.0638 33.1267 6.66016 33.3285 6.26953C33.5303 5.87891 33.8233 5.5306 34.2074 5.22461C34.5915 4.91862 35.0505 4.67773 35.5844 4.50195C36.1182 4.32617 36.7172 4.23828 37.3812 4.23828C38.1755 4.23828 38.8786 4.37174 39.4906 4.63867C40.1091 4.9056 40.5941 5.30924 40.9457 5.84961C41.3038 6.38346 41.4828 7.05404 41.4828 7.86133V12.5586C41.4828 13.0404 41.5154 13.4733 41.5805 13.8574C41.6521 14.235 41.753 14.5638 41.8832 14.8438V15H39.4711C39.3604 14.7461 39.2725 14.4238 39.2074 14.0332C39.1488 13.6361 39.1195 13.252 39.1195 12.8809ZM39.4613 8.57422L39.4809 10.0293H37.7914C37.3552 10.0293 36.9711 10.0716 36.6391 10.1562C36.307 10.2344 36.0303 10.3516 35.809 10.5078C35.5876 10.6641 35.4216 10.8529 35.3109 11.0742C35.2003 11.2956 35.1449 11.5462 35.1449 11.8262C35.1449 12.1061 35.21 12.3633 35.3402 12.5977C35.4704 12.8255 35.6592 13.0046 35.9066 13.1348C36.1605 13.265 36.4665 13.3301 36.8246 13.3301C37.3064 13.3301 37.7263 13.2324 38.0844 13.0371C38.449 12.8353 38.7354 12.5911 38.9437 12.3047C39.1521 12.0117 39.2628 11.735 39.2758 11.4746L40.0375 12.5195C39.9594 12.7865 39.8259 13.0729 39.6371 13.3789C39.4483 13.6849 39.2009 13.9779 38.8949 14.2578C38.5954 14.5312 38.2341 14.7559 37.8109 14.9316C37.3943 15.1074 36.9125 15.1953 36.3656 15.1953C35.6755 15.1953 35.0603 15.0586 34.5199 14.7852C33.9796 14.5052 33.5564 14.1309 33.2504 13.6621C32.9444 13.1868 32.7914 12.6497 32.7914 12.0508C32.7914 11.4909 32.8956 10.9961 33.1039 10.5664C33.3187 10.1302 33.6312 9.76562 34.0414 9.47266C34.4581 9.17969 34.9659 8.95833 35.5648 8.80859C36.1638 8.65234 36.8474 8.57422 37.6156 8.57422H39.4613ZM49.5891 12.8125V0H51.9523V15H49.8137L49.5891 12.8125ZM42.7141 9.83398V9.62891C42.7141 8.82812 42.8085 8.09896 42.9973 7.44141C43.1861 6.77734 43.4595 6.20768 43.8176 5.73242C44.1757 5.25065 44.6118 4.88281 45.1262 4.62891C45.6405 4.36849 46.2199 4.23828 46.8645 4.23828C47.5025 4.23828 48.0624 4.36198 48.5441 4.60938C49.0259 4.85677 49.4361 5.21159 49.7746 5.67383C50.1132 6.12956 50.3833 6.67643 50.5852 7.31445C50.787 7.94596 50.9302 8.64909 51.0148 9.42383V10.0781C50.9302 10.8333 50.787 11.5234 50.5852 12.1484C50.3833 12.7734 50.1132 13.3138 49.7746 13.7695C49.4361 14.2253 49.0227 14.5768 48.5344 14.8242C48.0526 15.0716 47.4895 15.1953 46.8449 15.1953C46.2069 15.1953 45.6307 15.0618 45.1164 14.7949C44.6086 14.528 44.1757 14.1536 43.8176 13.6719C43.4595 13.1901 43.1861 12.6237 42.9973 11.9727C42.8085 11.3151 42.7141 10.6022 42.7141 9.83398ZM45.0676 9.62891V9.83398C45.0676 10.3158 45.1099 10.765 45.1945 11.1816C45.2857 11.5983 45.4257 11.9661 45.6145 12.2852C45.8033 12.5977 46.0474 12.8451 46.3469 13.0273C46.6529 13.2031 47.0174 13.291 47.4406 13.291C47.9745 13.291 48.4139 13.1738 48.759 12.9395C49.104 12.7051 49.3742 12.3893 49.5695 11.9922C49.7714 11.5885 49.9081 11.1393 49.9797 10.6445V8.87695C49.9406 8.49284 49.8592 8.13477 49.7355 7.80273C49.6184 7.4707 49.4589 7.18099 49.257 6.93359C49.0552 6.67969 48.8046 6.48438 48.5051 6.34766C48.2121 6.20443 47.8638 6.13281 47.4602 6.13281C47.0305 6.13281 46.6659 6.22396 46.3664 6.40625C46.0669 6.58854 45.8195 6.83919 45.6242 7.1582C45.4354 7.47721 45.2954 7.84831 45.2043 8.27148C45.1132 8.69466 45.0676 9.14714 45.0676 9.62891ZM59.9707 12.5098V4.43359H62.334V15H60.1074L59.9707 12.5098ZM60.3027 10.3125L61.0938 10.293C61.0938 11.0026 61.0156 11.6569 60.8594 12.2559C60.7031 12.8483 60.4622 13.3659 60.1367 13.8086C59.8112 14.2448 59.3945 14.5866 58.8867 14.834C58.3789 15.0749 57.7702 15.1953 57.0605 15.1953C56.5462 15.1953 56.0742 15.1204 55.6445 14.9707C55.2148 14.821 54.8438 14.5898 54.5312 14.2773C54.2253 13.9648 53.9876 13.5579 53.8184 13.0566C53.6491 12.5553 53.5645 11.9564 53.5645 11.2598V4.43359H55.918V11.2793C55.918 11.6634 55.9635 11.9857 56.0547 12.2461C56.1458 12.5 56.2695 12.7051 56.4258 12.8613C56.582 13.0176 56.7643 13.1283 56.9727 13.1934C57.181 13.2585 57.4023 13.291 57.6367 13.291C58.3073 13.291 58.8346 13.1608 59.2188 12.9004C59.6094 12.6335 59.8861 12.2754 60.0488 11.8262C60.2181 11.377 60.3027 10.8724 60.3027 10.3125ZM68.7898 4.43359V6.15234H62.8328V4.43359H68.7898ZM64.5516 1.8457H66.9051V12.0801C66.9051 12.4056 66.9507 12.6562 67.0418 12.832C67.1395 13.0013 67.2729 13.1152 67.4422 13.1738C67.6115 13.2324 67.81 13.2617 68.0379 13.2617C68.2007 13.2617 68.3569 13.252 68.5066 13.2324C68.6564 13.2129 68.7768 13.1934 68.868 13.1738L68.8777 14.9707C68.6824 15.0293 68.4546 15.0814 68.1941 15.127C67.9402 15.1725 67.6473 15.1953 67.3152 15.1953C66.7749 15.1953 66.2964 15.1009 65.8797 14.9121C65.463 14.7168 65.1375 14.401 64.9031 13.9648C64.6688 13.5286 64.5516 12.9492 64.5516 12.2266V1.8457ZM76.1637 12.5098V4.43359H78.527V15H76.3004L76.1637 12.5098ZM76.4957 10.3125L77.2867 10.293C77.2867 11.0026 77.2086 11.6569 77.0523 12.2559C76.8961 12.8483 76.6552 13.3659 76.3297 13.8086C76.0042 14.2448 75.5875 14.5866 75.0797 14.834C74.5719 15.0749 73.9632 15.1953 73.2535 15.1953C72.7392 15.1953 72.2672 15.1204 71.8375 14.9707C71.4078 14.821 71.0367 14.5898 70.7242 14.2773C70.4182 13.9648 70.1806 13.5579 70.0113 13.0566C69.8421 12.5553 69.7574 11.9564 69.7574 11.2598V4.43359H72.1109V11.2793C72.1109 11.6634 72.1565 11.9857 72.2477 12.2461C72.3388 12.5 72.4625 12.7051 72.6188 12.8613C72.775 13.0176 72.9573 13.1283 73.1656 13.1934C73.374 13.2585 73.5953 13.291 73.8297 13.291C74.5003 13.291 75.0276 13.1608 75.4117 12.9004C75.8023 12.6335 76.079 12.2754 76.2418 11.8262C76.4111 11.377 76.4957 10.8724 76.4957 10.3125ZM82.473 6.68945V15H80.1195V4.43359H82.3363L82.473 6.68945ZM82.0531 9.32617L81.2914 9.31641C81.2979 8.56771 81.4021 7.88086 81.6039 7.25586C81.8122 6.63086 82.0987 6.09375 82.4633 5.64453C82.8344 5.19531 83.2771 4.85026 83.7914 4.60938C84.3057 4.36198 84.8786 4.23828 85.5102 4.23828C86.018 4.23828 86.477 4.3099 86.8871 4.45312C87.3038 4.58984 87.6586 4.81445 87.9516 5.12695C88.251 5.43945 88.4789 5.84635 88.6352 6.34766C88.7914 6.84245 88.8695 7.45117 88.8695 8.17383V15H86.5062V8.16406C86.5062 7.65625 86.4314 7.25586 86.2816 6.96289C86.1384 6.66341 85.9268 6.45182 85.6469 6.32812C85.3734 6.19792 85.0316 6.13281 84.6215 6.13281C84.2178 6.13281 83.8565 6.21745 83.5375 6.38672C83.2185 6.55599 82.9483 6.78711 82.727 7.08008C82.5121 7.37305 82.3461 7.71159 82.2289 8.0957C82.1117 8.47982 82.0531 8.88997 82.0531 9.32617ZM97.2395 4.43359H99.3781V14.707C99.3781 15.6576 99.1763 16.4648 98.7727 17.1289C98.369 17.793 97.8059 18.2975 97.0832 18.6426C96.3605 18.9941 95.524 19.1699 94.5734 19.1699C94.1698 19.1699 93.7206 19.1113 93.2258 18.9941C92.7375 18.877 92.2622 18.6882 91.8 18.4277C91.3443 18.1738 90.9634 17.8385 90.6574 17.4219L91.7609 16.0352C92.1385 16.4844 92.5552 16.8132 93.0109 17.0215C93.4667 17.2298 93.9452 17.334 94.4465 17.334C94.9869 17.334 95.4458 17.2331 95.8234 17.0312C96.2076 16.8359 96.5038 16.5462 96.7121 16.1621C96.9204 15.778 97.0246 15.3092 97.0246 14.7559V6.82617L97.2395 4.43359ZM90.0617 9.83398V9.62891C90.0617 8.82812 90.1594 8.09896 90.3547 7.44141C90.55 6.77734 90.83 6.20768 91.1945 5.73242C91.5591 5.25065 92.0018 4.88281 92.5227 4.62891C93.0435 4.36849 93.6327 4.23828 94.2902 4.23828C94.9738 4.23828 95.5565 4.36198 96.0383 4.60938C96.5266 4.85677 96.9335 5.21159 97.259 5.67383C97.5845 6.12956 97.8384 6.67643 98.0207 7.31445C98.2095 7.94596 98.3495 8.64909 98.4406 9.42383V10.0781C98.356 10.8333 98.2128 11.5234 98.0109 12.1484C97.8091 12.7734 97.5422 13.3138 97.2102 13.7695C96.8781 14.2253 96.468 14.5768 95.9797 14.8242C95.4979 15.0716 94.9283 15.1953 94.2707 15.1953C93.6262 15.1953 93.0435 15.0618 92.5227 14.7949C92.0083 14.528 91.5656 14.1536 91.1945 13.6719C90.83 13.1901 90.55 12.6237 90.3547 11.9727C90.1594 11.3151 90.0617 10.6022 90.0617 9.83398ZM92.4152 9.62891V9.83398C92.4152 10.3158 92.4608 10.765 92.552 11.1816C92.6496 11.5983 92.7961 11.9661 92.9914 12.2852C93.1932 12.5977 93.4471 12.8451 93.7531 13.0273C94.0656 13.2031 94.4335 13.291 94.8566 13.291C95.41 13.291 95.8625 13.1738 96.2141 12.9395C96.5721 12.7051 96.8456 12.3893 97.0344 11.9922C97.2297 11.5885 97.3664 11.1393 97.4445 10.6445V8.87695C97.4055 8.49284 97.3241 8.13477 97.2004 7.80273C97.0832 7.4707 96.9237 7.18099 96.7219 6.93359C96.5201 6.67969 96.2661 6.48438 95.9602 6.34766C95.6542 6.20443 95.2928 6.13281 94.8762 6.13281C94.453 6.13281 94.0852 6.22396 93.7727 6.40625C93.4602 6.58854 93.203 6.83919 93.0012 7.1582C92.8059 7.47721 92.6594 7.84831 92.5617 8.27148C92.4641 8.69466 92.4152 9.14714 92.4152 9.62891ZM106.977 12.8809V7.8418C106.977 7.46419 106.908 7.13867 106.771 6.86523C106.635 6.5918 106.426 6.38021 106.146 6.23047C105.873 6.08073 105.528 6.00586 105.111 6.00586C104.727 6.00586 104.395 6.07096 104.115 6.20117C103.835 6.33138 103.617 6.50716 103.461 6.72852C103.305 6.94987 103.227 7.20052 103.227 7.48047H100.883C100.883 7.0638 100.984 6.66016 101.186 6.26953C101.387 5.87891 101.68 5.5306 102.064 5.22461C102.449 4.91862 102.908 4.67773 103.441 4.50195C103.975 4.32617 104.574 4.23828 105.238 4.23828C106.033 4.23828 106.736 4.37174 107.348 4.63867C107.966 4.9056 108.451 5.30924 108.803 5.84961C109.161 6.38346 109.34 7.05404 109.34 7.86133V12.5586C109.34 13.0404 109.372 13.4733 109.438 13.8574C109.509 14.235 109.61 14.5638 109.74 14.8438V15H107.328C107.217 14.7461 107.13 14.4238 107.064 14.0332C107.006 13.6361 106.977 13.252 106.977 12.8809ZM107.318 8.57422L107.338 10.0293H105.648C105.212 10.0293 104.828 10.0716 104.496 10.1562C104.164 10.2344 103.887 10.3516 103.666 10.5078C103.445 10.6641 103.279 10.8529 103.168 11.0742C103.057 11.2956 103.002 11.5462 103.002 11.8262C103.002 12.1061 103.067 12.3633 103.197 12.5977C103.327 12.8255 103.516 13.0046 103.764 13.1348C104.018 13.265 104.324 13.3301 104.682 13.3301C105.163 13.3301 105.583 13.2324 105.941 13.0371C106.306 12.8353 106.592 12.5911 106.801 12.3047C107.009 12.0117 107.12 11.735 107.133 11.4746L107.895 12.5195C107.816 12.7865 107.683 13.0729 107.494 13.3789C107.305 13.6849 107.058 13.9779 106.752 14.2578C106.452 14.5312 106.091 14.7559 105.668 14.9316C105.251 15.1074 104.77 15.1953 104.223 15.1953C103.533 15.1953 102.917 15.0586 102.377 14.7852C101.837 14.5052 101.413 14.1309 101.107 13.6621C100.801 13.1868 100.648 12.6497 100.648 12.0508C100.648 11.4909 100.753 10.9961 100.961 10.5664C101.176 10.1302 101.488 9.76562 101.898 9.47266C102.315 9.17969 102.823 8.95833 103.422 8.80859C104.021 8.65234 104.704 8.57422 105.473 8.57422H107.318Z" fill="white"/>
</g>
<defs>
<filter id="filter0_d_1_3457" x="0.445312" y="0" width="111.295" height="21.1699" filterUnits="userSpaceOnUse" color-interpolation-filters="sRGB">
<feFlood flood-opacity="0" result="BackgroundImageFix"/>
<feColorMatrix in="SourceAlpha" type="matrix" values="0 0 0 0 0 0 0 0 0 0 0 0 0 0 0 0 0 0 127 0" result="hardAlpha"/>
<feOffset dx="1" dy="1"/>
<feGaussianBlur stdDeviation="0.5"/>
<feComposite in2="hardAlpha" operator="out"/>
<feColorMatrix type="matrix" values="0 0 0 0 0 0 0 0 0 0 0 0 0 0 0 0 0 0 0.25 0"/>
<feBlend mode="normal" in2="BackgroundImageFix" result="effect1_dropShadow_1_3457"/>
<feBlend mode="normal" in="SourceGraphic" in2="effect1_dropShadow_1_3457" result="shape"/>
</filter>
</defs>
</svg>
