<svg width="152" height="39" viewBox="0 0 152 39" fill="none" xmlns="http://www.w3.org/2000/svg">
<g filter="url(#filter0_d_3812_15292)">
<path d="M8 27.23V10.2H12.35V23.41H17.39V27.23H8ZM18.01 13.11V10.2H21.83V13.11H18.01ZM18.01 27.23V14.46H21.83V27.23H18.01ZM18.09 32.74V29.27H21.75V32.74H18.09ZM36.57 22.37C36.2 23.93 35.4 25.2 34.16 26.18C32.92 27.15 31.5 27.64 29.88 27.64C27.97 27.64 26.36 26.98 25.04 25.65C23.71 24.33 23.05 22.72 23.05 20.81C23.05 18.9 23.7 17.31 24.99 16C26.29 14.67 27.89 14.01 29.79 14.01C31.44 14.01 32.9 14.5 34.15 15.48C35.42 16.47 36.22 17.77 36.55 19.38H32.69C32.14 18.18 31.19 17.58 29.84 17.58C28.95 17.58 28.23 17.91 27.68 18.56C27.16 19.17 26.89 19.93 26.89 20.83C26.89 21.73 27.16 22.51 27.71 23.12C28.28 23.75 29.02 24.06 29.92 24.06C31.17 24.06 32.09 23.49 32.68 22.36H36.57V22.37ZM45.76 27.23V20.29C45.76 19.49 45.63 18.87 45.36 18.44C45.02 17.89 44.47 17.62 43.71 17.62C42.95 17.62 42.38 17.86 42.03 18.34C41.73 18.75 41.58 19.35 41.58 20.15V27.24H37.76V10.2H41.58V15.64H41.62C41.93 15.08 42.41 14.66 43.04 14.38C43.58 14.14 44.2 14.02 44.92 14.02C46.43 14.02 47.59 14.49 48.39 15.42C48.94 16.05 49.29 16.79 49.45 17.63C49.52 17.97 49.56 18.36 49.57 18.82C49.57 19 49.58 19.21 49.59 19.45V27.22H45.77L45.76 27.23ZM67.12 23.32C67.12 24.68 66.58 25.76 65.49 26.57C64.51 27.3 63.32 27.67 61.92 27.67C60.52 27.67 59.36 27.31 58.43 26.6C57.43 25.84 56.87 24.79 56.72 23.43H60.52C60.63 24.22 61.12 24.61 61.97 24.61C62.3 24.61 62.6 24.53 62.86 24.36C63.16 24.17 63.31 23.92 63.31 23.61C63.31 23.21 63.11 22.89 62.7 22.63L62.14 22.36L59.93 21.56C59.04 21.24 58.34 20.84 57.84 20.36C57.2 19.76 56.89 19.05 56.89 18.23C56.89 16.96 57.41 15.93 58.44 15.13C59.39 14.39 60.53 14.02 61.84 14.02C63.15 14.02 64.28 14.35 65.15 15.02C66.09 15.73 66.61 16.74 66.73 18.05H62.98C62.96 17.41 62.56 17.08 61.79 17.08C61.06 17.08 60.7 17.36 60.7 17.93C60.7 18.36 61.04 18.7 61.71 18.97C61.93 19.07 62.28 19.18 62.73 19.32C62.77 19.32 62.82 19.34 62.88 19.35L63.91 19.68C64.37 19.83 64.76 19.99 65.09 20.15C65.49 20.35 65.83 20.58 66.11 20.85C66.78 21.47 67.12 22.29 67.12 23.31V23.32ZM77.2 9.38C77.2 9.79 77.1 10.17 76.89 10.53C76.8 10.67 76.69 10.82 76.56 10.97C76.46 11.09 76.33 11.22 76.18 11.36L75.8 11.72C75.65 11.85 75.53 11.97 75.45 12.07C75.22 12.33 75.09 12.59 75.07 12.83H73.12C73.12 12.49 73.23 12.15 73.43 11.82C73.51 11.69 73.62 11.56 73.74 11.42C73.83 11.32 73.95 11.19 74.09 11.05L74.45 10.7C74.58 10.57 74.68 10.45 74.75 10.35C74.94 10.1 75.04 9.85 75.04 9.62C75.04 9.16 74.82 8.92 74.39 8.92C74.08 8.92 73.87 9.03 73.75 9.26C73.67 9.41 73.62 9.66 73.62 10H71.56V9.8C71.55 8.98 71.84 8.3 72.41 7.77C72.97 7.26 73.67 7.01 74.5 7.01C75.65 7.01 76.45 7.46 76.93 8.36C77.11 8.7 77.2 9.04 77.2 9.39V9.38ZM79.93 17.37V27.23H76.31V25.87H76.27C75.96 26.52 75.5 26.99 74.9 27.27C74.38 27.52 73.74 27.64 72.96 27.64C71.34 27.64 70.08 27.1 69.21 26.03C68.73 25.43 68.41 24.81 68.24 24.17C68.12 23.68 68.06 22.99 68.06 22.09V14.45H71.88V21.51C71.88 22.33 72 22.94 72.25 23.33C72.57 23.82 73.13 24.06 73.92 24.06C75.38 24.06 76.11 23.2 76.11 21.47V14.45H79.93V15.55C80.51 15.18 80.79 14.67 80.79 14.05H79.89V11.49H82.46V14.13C82.36 15.22 82 16.02 81.39 16.56C80.94 16.95 80.45 17.22 79.92 17.37H79.93ZM97.62 20.79C97.62 19.87 97.32 19.11 96.71 18.5C96.1 17.89 95.33 17.59 94.41 17.59C93.49 17.59 92.71 17.89 92.1 18.49C91.48 19.1 91.17 19.86 91.17 20.79C91.17 21.72 91.47 22.51 92.06 23.13C92.66 23.76 93.43 24.07 94.37 24.07C95.31 24.07 96.1 23.76 96.72 23.14C97.33 22.52 97.63 21.74 97.63 20.79H97.62ZM101.23 13.54V27.23H97.59V25.85H97.55C97.18 26.49 96.63 26.95 95.9 27.25C95.29 27.51 94.56 27.64 93.73 27.64C91.82 27.64 90.27 26.97 89.07 25.64C87.92 24.35 87.34 22.74 87.34 20.81C87.34 18.88 87.91 17.31 89.06 16.03C90.26 14.69 91.79 14.02 93.66 14.02C95.17 14.02 96.42 14.53 97.41 15.55V13.54H94.89V11.28H97.41V10.2H101.23V11.28H102.32V13.54H101.23ZM116.24 20.84C116.24 22.79 115.58 24.4 114.26 25.69C112.95 26.98 111.31 27.62 109.35 27.62C107.39 27.62 105.76 26.98 104.45 25.69C103.13 24.4 102.47 22.79 102.47 20.84C102.47 18.89 103.13 17.26 104.45 15.98C105.75 14.69 107.38 14.05 109.35 14.05C111.32 14.05 112.95 14.69 114.26 15.98C115.58 17.27 116.24 18.89 116.24 20.84ZM112.42 20.84C112.42 19.96 112.13 19.2 111.56 18.58C110.97 17.94 110.23 17.61 109.36 17.61C108.49 17.61 107.76 17.93 107.17 18.58C106.59 19.2 106.3 19.95 106.3 20.84C106.3 21.73 106.59 22.47 107.17 23.1C107.76 23.74 108.49 24.05 109.36 24.05C110.23 24.05 110.97 23.73 111.56 23.1C112.14 22.47 112.42 21.72 112.42 20.84ZM127.06 27.23V25.85H127.02C126.7 26.46 126.16 26.93 125.41 27.25C124.77 27.53 124.06 27.67 123.29 27.67C121.36 27.67 119.8 27.01 118.61 25.68C117.46 24.39 116.88 22.78 116.88 20.84C116.88 18.9 117.47 17.33 118.64 16.03C119.86 14.69 121.41 14.02 123.29 14.02C124.05 14.02 124.76 14.16 125.4 14.45C126.12 14.76 126.66 15.22 127.02 15.82H127.06V14.46H130.88V27.23H127.06ZM127.06 20.84C127.06 19.9 126.76 19.13 126.15 18.52C125.54 17.91 124.78 17.6 123.85 17.6C122.92 17.6 122.17 17.92 121.57 18.57C120.99 19.19 120.69 19.97 120.69 20.89C120.69 21.81 120.99 22.54 121.6 23.16C122.22 23.79 122.98 24.1 123.87 24.1C124.76 24.1 125.55 23.79 126.16 23.17C126.76 22.55 127.06 21.77 127.06 20.85V20.84ZM122.37 12.94L121.29 10.68L126.82 7.72L128.03 10.44L122.37 12.94ZM140.75 27.23V20.26C140.75 19.43 140.63 18.81 140.39 18.41C140.08 17.89 139.54 17.62 138.75 17.62C137.92 17.62 137.33 17.87 136.99 18.38C136.7 18.8 136.56 19.44 136.56 20.29V27.23H132.74V14.46H136.3V15.82H136.36C137.09 14.62 138.25 14.02 139.83 14.02C141.13 14.02 142.22 14.39 143.1 15.13C143.65 15.59 144.05 16.22 144.29 17.01C144.48 17.62 144.57 18.37 144.57 19.24V27.22H140.75V27.23Z" fill="#FFF8F2"/>
<path d="M8 27.23H5C5 28.89 6.34 30.23 8 30.23V27.23ZM8 10.2V7.2C6.34 7.2 5 8.54 5 10.2H8ZM12.35 10.2H15.35C15.35 8.54 14.01 7.2 12.35 7.2V10.2ZM12.35 23.41H9.35C9.35 25.07 10.69 26.41 12.35 26.41V23.41ZM17.39 23.41H20.39C20.39 21.75 19.05 20.41 17.39 20.41V23.41ZM17.39 27.23V30.23C19.05 30.23 20.39 28.89 20.39 27.23H17.39ZM11 27.23V10.2H5V27.23H11ZM8 13.2H12.35V7.2H8V13.2ZM9.35 10.2V23.41H15.35V10.2H9.35ZM12.35 26.41H17.39V20.41H12.35V26.41ZM14.39 23.41V27.23H20.39V23.41H14.39ZM17.39 24.23H8V30.23H17.39V24.23ZM18.01 13.11H15.01C15.01 14.77 16.35 16.11 18.01 16.11V13.11ZM18.01 10.2V7.2C16.35 7.2 15.01 8.54 15.01 10.2H18.01ZM21.83 10.2H24.83C24.83 8.54 23.49 7.2 21.83 7.2V10.2ZM21.83 13.11V16.11C23.49 16.11 24.83 14.77 24.83 13.11H21.83ZM18.01 27.23H15.01C15.01 28.89 16.35 30.23 18.01 30.23V27.23ZM18.01 14.46V11.46C16.35 11.46 15.01 12.8 15.01 14.46H18.01ZM21.83 14.46H24.83C24.83 12.8 23.49 11.46 21.83 11.46V14.46ZM21.83 27.23V30.23C23.49 30.23 24.83 28.89 24.83 27.23H21.83ZM18.09 32.74H15.09C15.09 34.4 16.43 35.74 18.09 35.74V32.74ZM18.09 29.27V26.27C16.43 26.27 15.09 27.61 15.09 29.27H18.09ZM21.75 29.27H24.75C24.75 27.61 23.41 26.27 21.75 26.27V29.27ZM21.75 32.74V35.74C23.41 35.74 24.75 34.4 24.75 32.74H21.75ZM21.01 13.11V10.2H15.01V13.11H21.01ZM18.01 13.2H21.83V7.2H18.01V13.2ZM18.83 10.2V13.11H24.83V10.2H18.83ZM21.83 10.11H18.01V16.11H21.83V10.11ZM21.01 27.23V14.46H15.01V27.23H21.01ZM18.01 17.46H21.83V11.46H18.01V17.46ZM18.83 14.46V27.23H24.83V14.46H18.83ZM21.83 24.23H18.01V30.23H21.83V24.23ZM21.09 32.74V29.27H15.09V32.74H21.09ZM18.09 32.27H21.75V26.27H18.09V32.27ZM18.75 29.27V32.74H24.75V29.27H18.75ZM21.75 29.74H18.09V35.74H21.75V29.74ZM36.57 22.37L39.49 23.06C39.7 22.17 39.49 21.23 38.92 20.51C38.35 19.79 37.48 19.37 36.57 19.37V22.37ZM25.04 25.65L27.17 23.53H27.16L25.04 25.65ZM24.99 16.01L27.12 18.12L24.98 16.01H24.99ZM34.15 15.49L32.3 17.85C32.3 17.85 32.3 17.85 32.31 17.85L34.15 15.48V15.49ZM36.55 19.39V22.39C37.45 22.39 38.3 21.98 38.87 21.29C39.44 20.59 39.67 19.67 39.48 18.79L36.54 19.39H36.55ZM32.69 19.39L29.97 20.65C30.46 21.71 31.52 22.39 32.69 22.39V19.39ZM27.68 18.57L29.96 20.52C29.96 20.52 29.97 20.51 29.98 20.5L27.68 18.57ZM27.71 23.13L25.48 25.14L27.7 23.13H27.71ZM32.69 22.37V19.37C31.57 19.37 30.55 19.99 30.03 20.98L32.69 22.37ZM33.65 21.69C33.44 22.6 33 23.27 32.3 23.83L36.02 28.54C37.8 27.13 38.98 25.28 39.5 23.07L33.66 21.69H33.65ZM32.3 23.83C31.61 24.37 30.84 24.65 29.88 24.65V30.65C32.15 30.65 34.24 29.95 36.02 28.55L32.31 23.84L32.3 23.83ZM29.88 24.64C28.75 24.64 27.91 24.28 27.17 23.54L22.92 27.77C24.81 29.68 27.2 30.64 29.89 30.64V24.64H29.88ZM27.15 23.53C26.4 22.79 26.05 21.95 26.05 20.82H20.05C20.05 23.51 21.02 25.89 22.92 27.79L27.15 23.54V23.53ZM26.05 20.81C26.05 19.68 26.4 18.84 27.13 18.11L22.86 13.89C20.99 15.78 20.05 18.15 20.05 20.81H26.05ZM27.13 18.11C27.86 17.37 28.68 17.02 29.79 17.02V11.02C27.11 11.02 24.73 11.99 22.86 13.9L27.14 18.11H27.13ZM29.79 17.02C30.8 17.02 31.6 17.3 32.3 17.85L36 13.13C34.2 11.72 32.09 11.02 29.79 11.02V17.02ZM32.31 17.86C33 18.4 33.43 19.07 33.61 19.99L39.49 18.79C39.02 16.49 37.84 14.56 35.99 13.12L32.31 17.86ZM36.55 16.39H32.69V22.39H36.55V16.39ZM35.41 18.13C34.93 17.1 34.2 16.16 33.16 15.5C32.12 14.84 30.96 14.59 29.84 14.59V20.59C29.96 20.59 30.01 20.6 30.02 20.61C30.02 20.61 30 20.61 29.96 20.58C29.92 20.56 29.9 20.53 29.9 20.53C29.9 20.53 29.93 20.56 29.97 20.65L35.42 18.13H35.41ZM29.83 14.59C28.1 14.59 26.52 15.27 25.38 16.64L29.98 20.5C29.98 20.5 29.98 20.5 29.96 20.52C29.94 20.54 29.91 20.56 29.87 20.57C29.84 20.59 29.81 20.59 29.8 20.59C29.79 20.59 29.8 20.59 29.84 20.59V14.59H29.83ZM25.4 16.62C24.36 17.84 23.9 19.31 23.9 20.84H29.9C29.9 20.68 29.92 20.61 29.93 20.58C29.93 20.56 29.95 20.54 29.97 20.52L25.41 16.62H25.4ZM23.89 20.84C23.89 22.4 24.37 23.91 25.48 25.14L29.94 21.12C29.94 21.12 29.93 21.1 29.92 21.09C29.92 21.07 29.89 21 29.89 20.84H23.89ZM25.49 25.14C26.67 26.44 28.24 27.07 29.93 27.07V21.07C29.88 21.07 29.85 21.07 29.85 21.07C29.85 21.07 29.85 21.07 29.88 21.08C29.89 21.08 29.9 21.08 29.91 21.1C29.92 21.1 29.93 21.11 29.94 21.12C29.96 21.13 29.96 21.14 29.95 21.12L25.5 25.15L25.49 25.14ZM29.92 27.07C31.01 27.07 32.11 26.82 33.12 26.2C34.12 25.59 34.84 24.72 35.34 23.76L30.02 20.98C29.97 21.07 29.94 21.11 29.93 21.12C29.93 21.12 29.93 21.11 29.97 21.09C30 21.07 30.03 21.06 30.03 21.06C30.03 21.06 30 21.06 29.91 21.06V27.06L29.92 27.07ZM32.69 25.37H36.58V19.37H32.69V25.37ZM45.76 27.23H42.76C42.76 28.89 44.1 30.23 45.76 30.23V27.23ZM42.02 18.33L39.6 16.55L42.03 18.33H42.02ZM41.57 27.23V30.23C43.23 30.23 44.57 28.89 44.57 27.23H41.57ZM37.75 27.23H34.75C34.75 28.89 36.09 30.23 37.75 30.23V27.23ZM37.75 10.2V7.2C36.09 7.2 34.75 8.54 34.75 10.2H37.75ZM41.57 10.2H44.57C44.57 8.54 43.23 7.2 41.57 7.2V10.2ZM41.57 15.64H38.57C38.57 17.3 39.91 18.64 41.57 18.64V15.64ZM41.62 15.64V18.64C42.71 18.64 43.71 18.05 44.24 17.11L41.62 15.64ZM43.03 14.38L44.24 17.13L43.02 14.38H43.03ZM48.38 15.42L46.1 17.37C46.1 17.37 46.1 17.38 46.11 17.39L48.37 15.42H48.38ZM49.43 17.64L46.48 18.19C46.48 18.19 46.48 18.22 46.48 18.23L49.42 17.64H49.43ZM49.56 18.83L46.56 18.93C46.56 18.93 46.56 18.95 46.56 18.96L49.56 18.84V18.83ZM49.58 19.45H52.58C52.58 19.45 52.58 19.39 52.58 19.36L49.58 19.45ZM49.58 27.23V30.23C51.24 30.23 52.58 28.89 52.58 27.23H49.58ZM48.76 27.23V20.29H42.76V27.23H48.76ZM48.76 20.29C48.76 19.22 48.59 17.96 47.9 16.85L42.8 20.01C42.72 19.88 42.71 19.81 42.72 19.86C42.73 19.91 42.75 20.04 42.75 20.28H48.75L48.76 20.29ZM47.91 16.86C46.92 15.25 45.28 14.61 43.71 14.61V20.61C43.71 20.61 43.59 20.61 43.36 20.5C43.11 20.38 42.92 20.18 42.81 20L47.92 16.85L47.91 16.86ZM43.7 14.61C42.29 14.61 40.68 15.08 39.6 16.55L44.44 20.1C44.29 20.31 44.08 20.46 43.88 20.54C43.7 20.61 43.62 20.6 43.7 20.6V14.6V14.61ZM39.59 16.57C38.76 17.71 38.57 19.05 38.57 20.14H44.57C44.57 20.03 44.57 19.96 44.58 19.9C44.58 19.84 44.59 19.82 44.59 19.82C44.59 19.82 44.56 19.93 44.44 20.1L39.59 16.57ZM38.57 20.14V27.23H44.57V20.14H38.57ZM41.57 24.23H37.75V30.23H41.57V24.23ZM40.75 27.23V10.2H34.75V27.23H40.75ZM37.75 13.2H41.57V7.2H37.75V13.2ZM38.57 10.2V15.64H44.57V10.2H38.57ZM41.57 18.64H41.61V12.64H41.57V18.64ZM44.23 17.1C44.23 17.1 44.23 17.1 44.23 17.11L44.21 17.13C44.21 17.13 44.23 17.12 44.26 17.11L41.84 11.62C40.66 12.14 39.67 12.99 39.02 14.16L44.26 17.09L44.23 17.1ZM44.25 17.12C44.33 17.08 44.53 17.02 44.91 17.02V11.02C43.86 11.02 42.81 11.2 41.82 11.64L44.26 17.12H44.25ZM44.91 17.02C45.76 17.02 46 17.25 46.1 17.37L50.66 13.47C49.16 11.72 47.08 11.02 44.91 11.02V17.02ZM46.11 17.39C46.29 17.6 46.42 17.84 46.48 18.18L52.38 17.08C52.13 15.73 51.55 14.49 50.64 13.45L46.11 17.39ZM46.49 18.22C46.52 18.35 46.55 18.58 46.56 18.92L52.56 18.72C52.54 18.15 52.49 17.58 52.38 17.04L46.5 18.22H46.49ZM46.56 18.95C46.56 19.12 46.57 19.32 46.58 19.55L52.58 19.36C52.58 19.11 52.56 18.89 52.56 18.7L46.57 18.95H46.56ZM46.58 19.45V27.22H52.58V19.45H46.58ZM49.58 24.23H45.76V30.23H49.58V24.23ZM65.49 26.56L63.7 24.15L65.5 26.56H65.49ZM58.43 26.6L60.25 24.21L58.44 26.6H58.43ZM56.72 23.43V20.43C55.87 20.43 55.06 20.79 54.49 21.42C53.92 22.05 53.65 22.9 53.74 23.74L56.72 23.43ZM60.52 23.43L63.49 23.01C63.28 21.53 62.01 20.43 60.52 20.43V23.43ZM62.85 24.36L61.26 21.82L62.86 24.36H62.85ZM62.7 22.63L64.3 20.09C64.2 20.03 64.1 19.97 64 19.92L62.7 22.62V22.63ZM62.14 22.36L63.44 19.66C63.35 19.62 63.25 19.58 63.16 19.54L62.14 22.36ZM57.83 20.36L59.9 18.19C59.9 18.19 59.89 18.18 59.88 18.17L57.82 20.35L57.83 20.36ZM65.15 15.02L63.32 17.4H63.33L65.15 15.02ZM66.73 18.05V21.05C67.57 21.05 68.38 20.7 68.95 20.07C69.52 19.45 69.8 18.61 69.72 17.77L66.73 18.04V18.05ZM62.98 18.05L59.98 18.15C60.04 19.77 61.36 21.05 62.98 21.05V18.05ZM61.71 18.98L62.9 16.23C62.9 16.23 62.85 16.21 62.82 16.2L61.71 18.99V18.98ZM62.73 19.33L61.88 22.21C61.97 22.24 62.05 22.26 62.14 22.27L62.73 19.33ZM62.88 19.36L63.78 16.5C63.72 16.48 63.66 16.47 63.61 16.45L62.88 19.36ZM63.91 19.69L64.84 16.84C64.84 16.84 64.82 16.84 64.81 16.83L63.91 19.69ZM66.11 20.86L64.05 23.04C64.05 23.04 64.07 23.06 64.08 23.07L66.11 20.86ZM64.12 23.32C64.12 23.73 64.02 23.92 63.7 24.16L67.28 28.97C69.13 27.59 70.12 25.62 70.12 23.32H64.12ZM63.7 24.16C63.31 24.45 62.77 24.66 61.93 24.66V30.66C63.88 30.66 65.73 30.14 67.3 28.96L63.71 24.16H63.7ZM61.92 24.66C61.06 24.66 60.56 24.45 60.24 24.2L56.61 28.98C58.16 30.16 59.99 30.66 61.92 30.66V24.66ZM60.24 24.21C59.97 24 59.77 23.73 59.7 23.12L53.73 23.75C53.95 25.85 54.89 27.69 56.61 28.99L60.24 24.21ZM56.72 26.43H60.52V20.43H56.72V26.43ZM57.55 23.85C57.68 24.78 58.1 25.84 59.07 26.64C60.02 27.41 61.1 27.61 61.97 27.61V21.61C61.97 21.61 62.4 21.61 62.86 21.99C63.35 22.39 63.47 22.87 63.49 23.01L57.55 23.86V23.85ZM61.97 27.61C62.83 27.61 63.68 27.39 64.45 26.9L61.26 21.82C61.37 21.75 61.5 21.69 61.63 21.66C61.76 21.62 61.88 21.61 61.97 21.61V27.61ZM64.44 26.91C65.49 26.25 66.3 25.1 66.3 23.61H60.3C60.3 23.27 60.39 22.87 60.61 22.5C60.83 22.14 61.09 21.93 61.26 21.82L64.44 26.91ZM66.3 23.61C66.3 21.96 65.36 20.77 64.29 20.09L61.09 25.17C61 25.11 60.79 24.96 60.59 24.65C60.39 24.32 60.29 23.95 60.29 23.61H66.29H66.3ZM64 19.93L63.44 19.66L60.84 25.07L61.4 25.34L64 19.93ZM63.15 19.54L60.94 18.74L58.91 24.38L61.12 25.18L63.15 19.54ZM60.94 18.74C60.31 18.51 60.01 18.3 59.9 18.19L55.76 22.53C56.65 23.38 57.75 23.97 58.9 24.38L60.94 18.74ZM59.89 18.18L59.84 18.13C59.84 18.13 59.84 18.13 59.86 18.16C59.86 18.18 59.88 18.2 59.88 18.22C59.88 18.24 59.88 18.24 59.88 18.23H53.88C53.88 19.94 54.58 21.42 55.78 22.55L59.89 18.18ZM59.88 18.23C59.88 17.93 59.94 17.76 60.27 17.5L56.59 12.76C54.85 14.11 53.88 16 53.88 18.23H59.88ZM60.27 17.5C60.64 17.21 61.11 17.02 61.83 17.02V11.02C59.91 11.02 58.11 11.57 56.58 12.77L60.27 17.5ZM61.83 17.02C62.66 17.02 63.08 17.22 63.32 17.4L66.97 12.64C65.47 11.49 63.68 11.02 61.83 11.02V17.02ZM63.33 17.41C63.51 17.55 63.69 17.74 63.74 18.33L69.71 17.78C69.52 15.74 68.64 13.92 66.95 12.63L63.32 17.41H63.33ZM66.73 15.05H62.98V21.05H66.73V15.05ZM65.98 17.95C65.95 17 65.6 15.85 64.56 15C63.61 14.23 62.53 14.09 61.79 14.09V20.09C61.79 20.09 61.67 20.09 61.5 20.04C61.32 19.99 61.05 19.88 60.77 19.66C60.13 19.14 59.99 18.46 59.98 18.16L65.98 17.95ZM61.79 14.08C61.12 14.08 60.06 14.2 59.12 14.93C58.04 15.77 57.7 16.96 57.7 17.93H63.7C63.7 18.1 63.67 18.39 63.53 18.73C63.38 19.09 63.13 19.41 62.82 19.65C62.52 19.88 62.24 19.99 62.07 20.03C61.9 20.07 61.79 20.07 61.79 20.07V14.07V14.08ZM57.7 17.94C57.7 20.32 59.66 21.39 60.6 21.77L62.83 16.2C62.71 16.15 62.88 16.2 63.11 16.44C63.24 16.57 63.4 16.78 63.52 17.05C63.64 17.33 63.71 17.64 63.71 17.94H57.71H57.7ZM60.52 21.74C60.92 21.91 61.4 22.07 61.89 22.21L63.59 16.46C63.16 16.33 62.96 16.26 62.91 16.24L60.52 21.75V21.74ZM62.14 22.27H62.12C62.12 22.27 62.13 22.27 62.15 22.27L63.61 16.45C63.53 16.43 63.43 16.41 63.32 16.38L62.14 22.26V22.27ZM61.97 22.23L63 22.56L64.8 16.84L63.77 16.51L61.97 22.23ZM62.98 22.54C63.34 22.66 63.59 22.76 63.75 22.84L66.43 17.47C65.94 17.22 65.4 17.01 64.84 16.83L62.97 22.53L62.98 22.54ZM63.75 22.85C63.94 22.94 64.02 23.02 64.05 23.04L68.17 18.68C67.64 18.18 67.05 17.79 66.43 17.48L63.75 22.85ZM64.08 23.06L64.1 23.08C64.1 23.08 64.1 23.1 64.11 23.13C64.11 23.17 64.12 23.23 64.12 23.32H70.12C70.12 21.57 69.5 19.91 68.14 18.66L64.07 23.07L64.08 23.06ZM76.88 10.53L79.42 12.13C79.42 12.13 79.45 12.09 79.46 12.06L76.88 10.52V10.53ZM76.56 10.96L78.82 12.94C78.82 12.94 78.84 12.92 78.85 12.91L76.56 10.97V10.96ZM76.17 11.36L78.23 13.54H78.24L76.17 11.36ZM75.79 11.72L77.8 13.95C77.8 13.95 77.83 13.92 77.85 13.9L75.79 11.72ZM75.44 12.06L77.69 14.05C77.69 14.05 77.72 14.02 77.73 14L75.44 12.06ZM75.06 12.83V15.83C76.61 15.83 77.91 14.65 78.05 13.1L75.06 12.83ZM73.11 12.83L70.11 12.76C70.09 13.57 70.4 14.35 70.96 14.92C71.52 15.5 72.3 15.82 73.1 15.82V12.82L73.11 12.83ZM73.42 11.82L70.9 10.19C70.9 10.19 70.87 10.23 70.86 10.25L73.42 11.82ZM73.74 11.41L75.98 13.41C75.98 13.41 76.01 13.38 76.02 13.36L73.74 11.41ZM74.09 11.04L72 8.89C72 8.89 71.98 8.91 71.97 8.92L74.09 11.04ZM74.44 10.69L76.53 12.84C76.53 12.84 76.59 12.78 76.62 12.75L74.44 10.69ZM73.75 9.26L76.38 10.71C76.38 10.71 76.39 10.69 76.4 10.68L73.75 9.27V9.26ZM73.61 10V13C75.24 13 76.57 11.7 76.61 10.07L73.61 10ZM71.56 10H68.56C68.56 11.66 69.9 13 71.56 13V10ZM71.56 9.9H74.56C74.56 9.79 74.56 9.68 74.54 9.57L71.56 9.9ZM71.55 9.8H68.55C68.55 9.91 68.55 10.02 68.57 10.13L71.55 9.8ZM72.41 7.76L70.39 5.54C70.39 5.54 70.38 5.55 70.37 5.56L72.4 7.77L72.41 7.76ZM76.93 8.35L74.27 9.74C74.27 9.74 74.27 9.75 74.27 9.76L76.92 8.35H76.93ZM79.93 17.37L79.12 14.48C77.83 14.84 76.93 16.02 76.93 17.37H79.93ZM79.93 27.23V30.23C81.59 30.23 82.93 28.89 82.93 27.23H79.93ZM76.31 27.23H73.31C73.31 28.89 74.65 30.23 76.31 30.23V27.23ZM76.31 25.87H79.31C79.31 24.21 77.97 22.87 76.31 22.87V25.87ZM76.26 25.87V22.87C75.11 22.87 74.06 23.53 73.56 24.57L76.26 25.87ZM69.2 26.04L66.86 27.91C66.86 27.91 66.87 27.93 66.88 27.94L69.2 26.04ZM68.23 24.17L65.32 24.89C65.32 24.89 65.32 24.91 65.32 24.92L68.23 24.18V24.17ZM68.05 14.46V11.46C66.39 11.46 65.05 12.8 65.05 14.46H68.05ZM71.87 14.46H74.87C74.87 12.8 73.53 11.46 71.87 11.46V14.46ZM72.24 23.34L69.71 24.95C69.71 24.95 69.73 24.98 69.74 25L72.24 23.34ZM76.11 14.46V11.46C74.45 11.46 73.11 12.8 73.11 14.46H76.11ZM79.93 14.46H82.93C82.93 12.8 81.59 11.46 79.93 11.46V14.46ZM79.93 15.56H76.93C76.93 16.66 77.53 17.67 78.5 18.2C79.47 18.72 80.64 18.68 81.57 18.08L79.94 15.56H79.93ZM80.79 14.05H83.79C83.79 12.39 82.45 11.05 80.79 11.05V14.05ZM79.89 14.05H76.89C76.89 15.71 78.23 17.05 79.89 17.05V14.05ZM79.89 11.49V8.49C78.23 8.49 76.89 9.83 76.89 11.49H79.89ZM82.46 11.49H85.46C85.46 9.83 84.12 8.49 82.46 8.49V11.49ZM82.46 14.13L85.45 14.42C85.45 14.32 85.46 14.23 85.46 14.13H82.46ZM81.4 16.56L83.36 18.83C83.36 18.83 83.36 18.83 83.37 18.82L81.39 16.56H81.4ZM74.2 9.38C74.2 9.33 74.2 9.26 74.23 9.18C74.25 9.1 74.28 9.04 74.31 8.99L79.46 12.06C79.95 11.24 80.2 10.33 80.2 9.38H74.2ZM74.35 8.92C74.35 8.92 74.33 8.96 74.27 9.02L78.84 12.91C79.04 12.67 79.24 12.41 79.42 12.13L74.35 8.93V8.92ZM74.3 8.99C74.3 8.99 74.21 9.09 74.11 9.18L78.24 13.53C78.44 13.34 78.63 13.14 78.81 12.94L74.29 8.99H74.3ZM74.12 9.17L73.74 9.53L77.85 13.9L78.23 13.54L74.12 9.17ZM73.79 9.49C73.59 9.67 73.36 9.89 73.16 10.13L77.74 14.01C77.74 14.01 77.72 14.04 77.71 14.04C77.72 14.03 77.75 14 77.79 13.96L73.78 9.5L73.79 9.49ZM73.2 10.08C72.71 10.63 72.18 11.46 72.08 12.56L78.06 13.1C78.01 13.7 77.72 14.03 77.7 14.05L73.21 10.07L73.2 10.08ZM75.06 9.83H73.11V15.83H75.06V9.83ZM76.11 12.89C76.11 13 76.09 13.11 76.06 13.21C76.03 13.3 76 13.36 75.98 13.39L70.87 10.25C70.42 10.98 70.13 11.83 70.11 12.76L76.11 12.89ZM75.94 13.45C75.94 13.45 75.92 13.47 75.93 13.47C75.93 13.47 75.95 13.45 75.97 13.42L71.5 9.42C71.29 9.65 71.09 9.91 70.9 10.19L75.94 13.45ZM76.02 13.37C76.02 13.37 76.1 13.28 76.21 13.17L71.97 8.93C71.8 9.1 71.62 9.29 71.47 9.47L76.03 13.37H76.02ZM76.17 13.2L76.53 12.85L72.36 8.54L72 8.89L76.17 13.2ZM76.63 12.75C76.8 12.57 76.97 12.38 77.13 12.17L72.37 8.51C72.37 8.51 72.37 8.51 72.35 8.53C72.33 8.55 72.3 8.58 72.26 8.63L76.62 12.75H76.63ZM77.13 12.17C77.58 11.59 78.04 10.72 78.04 9.62H72.04C72.04 8.98 72.31 8.6 72.36 8.53L77.13 12.17ZM78.04 9.62C78.04 8.97 77.89 7.93 77.07 7.05C76.21 6.13 75.12 5.93 74.39 5.93V11.93C74.09 11.93 73.33 11.84 72.69 11.15C72.08 10.5 72.04 9.81 72.04 9.62H78.04ZM74.39 5.92C73.25 5.92 71.86 6.42 71.1 7.85L76.39 10.67C76.18 11.06 75.85 11.42 75.39 11.66C74.96 11.88 74.59 11.92 74.38 11.92V5.92H74.39ZM71.12 7.81C70.67 8.63 70.62 9.5 70.61 9.93L76.61 10.06C76.61 9.99 76.61 10.01 76.61 10.09C76.61 10.13 76.59 10.21 76.56 10.3C76.53 10.4 76.48 10.54 76.39 10.7L71.13 7.81H71.12ZM73.61 7H71.55V13H73.61V7ZM74.56 10V9.98V9.96V9.94V9.92V9.9V9.88L68.56 9.87V9.89V9.91V9.93V9.95V9.97V9.99L74.56 10ZM74.54 9.57V9.47L68.57 10.13V10.23L74.54 9.57ZM74.55 9.8C74.55 9.8 74.55 9.76 74.55 9.78C74.55 9.79 74.55 9.82 74.53 9.85C74.52 9.88 74.5 9.91 74.48 9.94C74.46 9.96 74.45 9.98 74.45 9.97L70.38 5.56C69.15 6.69 68.55 8.18 68.55 9.8H74.55ZM74.43 9.99C74.43 9.99 74.43 9.99 74.42 9.99C74.41 9.99 74.4 10 74.39 10C74.39 10 74.39 10 74.4 10C74.42 10 74.45 10 74.5 10V4C73 4 71.56 4.48 70.4 5.54L74.43 9.99ZM74.5 10C74.68 10 74.64 10.03 74.5 9.96C74.43 9.92 74.37 9.88 74.33 9.82C74.28 9.77 74.26 9.74 74.27 9.74L79.58 6.95C79.1 6.04 78.38 5.25 77.42 4.71C76.48 4.19 75.46 4 74.5 4V10ZM74.28 9.76C74.28 9.76 74.24 9.69 74.23 9.62C74.21 9.55 74.2 9.47 74.2 9.39H80.2C80.2 8.5 79.97 7.68 79.58 6.95L74.29 9.77L74.28 9.76ZM76.93 17.37V27.23H82.93V17.37H76.93ZM79.93 24.23H76.31V30.23H79.93V24.23ZM79.31 27.23V25.87H73.31V27.23H79.31ZM76.31 22.87H76.27V28.87H76.31V22.87ZM73.56 24.56C73.56 24.56 73.53 24.61 73.53 24.62C73.53 24.62 73.55 24.6 73.57 24.59C73.58 24.58 73.6 24.57 73.6 24.57L76.17 29.99C77.44 29.38 78.37 28.39 78.95 27.18L73.55 24.57L73.56 24.56ZM73.6 24.56C73.6 24.56 73.43 24.64 72.95 24.64V30.64C74.02 30.64 75.15 30.47 76.19 29.98L73.6 24.57V24.56ZM72.95 24.64C72.05 24.64 71.72 24.38 71.52 24.13L66.88 27.93C68.43 29.82 70.6 30.64 72.95 30.64V24.64ZM71.54 24.16C71.29 23.84 71.18 23.6 71.14 23.43L65.33 24.92C65.62 26.04 66.16 27.03 66.86 27.91L71.55 24.16H71.54ZM71.15 23.45C71.12 23.31 71.06 22.9 71.06 22.09H65.06C65.06 23.07 65.12 24.05 65.33 24.88L71.16 23.45H71.15ZM71.05 22.09V14.45H65.05V22.09H71.05ZM68.05 17.46H71.87V11.46H68.05V17.46ZM68.87 14.46V21.52H74.87V14.46H68.87ZM68.87 21.52C68.87 22.52 69 23.83 69.71 24.95L74.78 21.74C74.85 21.84 74.88 21.93 74.9 21.97C74.92 22.01 74.92 22.03 74.91 22C74.91 21.98 74.9 21.93 74.89 21.85C74.89 21.77 74.88 21.66 74.88 21.53H68.88L68.87 21.52ZM69.74 25C70.81 26.61 72.51 27.07 73.92 27.07V21.07C73.82 21.07 73.92 21.05 74.11 21.14C74.34 21.24 74.58 21.43 74.75 21.69L69.75 25H69.74ZM73.92 27.07C75.26 27.07 76.76 26.65 77.85 25.36C78.86 24.16 79.1 22.69 79.1 21.48H73.1C73.1 21.71 73.07 21.81 73.08 21.8C73.08 21.79 73.12 21.66 73.26 21.49C73.41 21.31 73.6 21.19 73.77 21.12C73.92 21.06 73.99 21.07 73.91 21.07V27.07H73.92ZM79.11 21.48V14.46H73.11V21.48H79.11ZM76.11 17.46H79.93V11.46H76.11V17.46ZM76.93 14.46V15.56H82.93V14.46H76.93ZM81.56 18.07C82.89 17.2 83.79 15.8 83.79 14.05H77.79C77.79 13.89 77.83 13.65 77.97 13.4C78.1 13.17 78.25 13.06 78.29 13.04L81.56 18.07ZM80.79 11.05H79.89V17.05H80.79V11.05ZM82.89 14.05V11.49H76.89V14.05H82.89ZM79.89 14.49H82.46V8.49H79.89V14.49ZM79.46 11.49V14.13H85.46V11.49H79.46ZM79.48 13.84C79.45 14.14 79.4 14.29 79.37 14.34C79.35 14.38 79.37 14.34 79.42 14.3L83.38 18.81C84.74 17.62 85.3 15.99 85.46 14.42L79.49 13.84H79.48ZM79.43 14.29C79.29 14.41 79.19 14.46 79.11 14.48L80.74 20.26C81.73 19.98 82.61 19.49 83.36 18.83L79.43 14.3V14.29ZM96.71 18.5L98.83 16.38C98.83 16.38 98.83 16.38 98.82 16.37L96.71 18.5ZM92.04 23.13L94.21 21.06C94.21 21.06 94.21 21.06 94.2 21.05L92.04 23.13ZM96.71 23.14L98.84 25.25C98.84 25.25 98.84 25.25 98.85 25.24L96.7 23.14H96.71ZM101.23 13.54V10.54C99.57 10.54 98.23 11.88 98.23 13.54H101.23ZM101.23 27.23V30.23C102.89 30.23 104.23 28.89 104.23 27.23H101.23ZM97.59 27.23H94.59C94.59 28.89 95.93 30.23 97.59 30.23V27.23ZM97.59 25.84H100.59C100.59 24.18 99.25 22.84 97.59 22.84V25.84ZM97.55 25.84V22.84C96.49 22.84 95.5 23.4 94.96 24.32L97.55 25.84ZM95.9 27.25L94.76 24.48C94.76 24.48 94.74 24.48 94.73 24.49L95.91 27.25H95.9ZM89.07 25.64L86.83 27.64L89.06 25.64H89.07ZM97.41 15.55L95.26 17.64C96.11 18.52 97.41 18.79 98.54 18.33C99.67 17.87 100.41 16.77 100.41 15.55H97.41ZM97.41 13.54H100.41C100.41 11.88 99.07 10.54 97.41 10.54V13.54ZM94.9 13.54H91.9C91.9 15.2 93.24 16.54 94.9 16.54V13.54ZM94.9 11.28V8.28C93.24 8.28 91.9 9.62 91.9 11.28H94.9ZM97.41 11.28V14.28C99.07 14.28 100.41 12.94 100.41 11.28H97.41ZM97.41 10.2V7.2C95.75 7.2 94.41 8.54 94.41 10.2H97.41ZM101.23 10.2H104.23C104.23 8.54 102.89 7.2 101.23 7.2V10.2ZM101.23 11.28H98.23C98.23 12.94 99.57 14.28 101.23 14.28V11.28ZM102.32 11.28H105.32C105.32 9.62 103.98 8.28 102.32 8.28V11.28ZM102.32 13.54V16.54C103.98 16.54 105.32 15.2 105.32 13.54H102.32ZM100.62 20.79C100.62 19.14 100.05 17.59 98.83 16.38L94.59 20.62L94.61 20.64C94.61 20.63 94.63 20.67 94.63 20.8H100.63L100.62 20.79ZM98.81 16.37C97.59 15.17 96.05 14.59 94.4 14.59V20.59C94.47 20.59 94.51 20.59 94.53 20.59C94.54 20.59 94.55 20.59 94.55 20.59C94.55 20.59 94.56 20.59 94.58 20.62L98.8 16.35L98.81 16.37ZM94.4 14.59C92.76 14.59 91.21 15.15 89.99 16.34L94.18 20.63L94.21 20.61C94.21 20.61 94.22 20.61 94.25 20.6C94.28 20.6 94.33 20.59 94.4 20.59V14.59ZM89.99 16.34C88.75 17.55 88.15 19.11 88.15 20.79H94.15C94.15 20.73 94.15 20.69 94.15 20.66C94.15 20.64 94.15 20.63 94.15 20.64V20.65C94.15 20.65 94.15 20.65 94.17 20.63L89.98 16.34H89.99ZM88.16 20.79C88.16 22.42 88.7 23.97 89.89 25.21L94.21 21.05L94.19 21.03C94.19 21.03 94.16 20.96 94.16 20.8H88.16V20.79ZM89.87 25.2C91.09 26.48 92.67 27.07 94.36 27.07V21.07C94.29 21.07 94.25 21.07 94.23 21.07C94.21 21.07 94.2 21.07 94.21 21.07C94.21 21.07 94.23 21.07 94.23 21.08C94.23 21.08 94.23 21.08 94.22 21.07L89.88 25.21L89.87 25.2ZM94.36 27.07C96.03 27.07 97.61 26.49 98.84 25.25L94.57 21.03C94.57 21.03 94.56 21.04 94.55 21.05C94.55 21.05 94.54 21.05 94.51 21.06C94.48 21.06 94.43 21.07 94.36 21.07V27.07ZM98.85 25.23C100.05 24 100.61 22.44 100.61 20.79H94.61C94.61 20.94 94.59 21 94.59 21C94.59 21 94.59 21.01 94.56 21.03L98.85 25.22V25.23ZM98.23 13.54V27.23H104.23V13.54H98.23ZM101.23 24.23H97.59V30.23H101.23V24.23ZM100.59 27.23V25.85H94.59V27.23H100.59ZM97.59 22.84H97.55V28.84H97.59V22.84ZM94.96 24.32C94.96 24.32 94.91 24.4 94.75 24.47L97.04 30.02C98.33 29.49 99.41 28.6 100.13 27.36L94.96 24.32ZM94.72 24.49C94.56 24.56 94.25 24.64 93.73 24.64V30.64C94.87 30.64 96.01 30.46 97.08 30.01L94.72 24.49ZM93.73 24.64C92.61 24.64 91.89 24.29 91.3 23.64L86.84 27.65C88.65 29.66 91.03 30.64 93.73 30.64V24.64ZM91.3 23.64C90.7 22.97 90.34 22.1 90.34 20.81H84.34C84.34 23.39 85.13 25.74 86.83 27.64L91.3 23.64ZM90.34 20.81C90.34 19.56 90.69 18.7 91.3 18.02L86.82 14.03C85.13 15.93 84.34 18.25 84.34 20.81H90.34ZM91.29 18.03C91.89 17.36 92.6 17.02 93.66 17.02V11.02C90.97 11.02 88.61 12.02 86.82 14.03L91.29 18.03ZM93.66 17.02C94.42 17.02 94.88 17.24 95.26 17.64L99.57 13.46C97.98 11.82 95.93 11.02 93.67 11.02V17.02H93.66ZM100.41 15.55V13.54H94.41V15.55H100.41ZM97.41 10.54H94.89V16.54H97.41V10.54ZM97.9 13.54V11.28H91.9V13.54H97.9ZM94.9 14.28H97.42V8.28H94.9V14.28ZM100.41 11.28V10.2H94.41V11.28H100.41ZM97.41 13.2H101.23V7.2H97.41V13.2ZM98.23 10.2V11.28H104.23V10.2H98.23ZM101.23 14.28H102.32V8.28H101.23V14.28ZM99.32 11.28V13.54H105.32V11.28H99.32ZM102.32 10.54H101.23V16.54H102.32V10.54ZM104.46 25.69L106.57 23.56H106.56L104.46 25.69ZM104.46 15.97L106.56 18.12H106.57L104.46 15.97ZM111.55 18.58L109.34 20.61C109.34 20.61 109.34 20.61 109.34 20.62L111.54 18.58H111.55ZM107.16 18.58L109.36 20.62C109.36 20.62 109.36 20.62 109.37 20.61L107.16 18.58ZM107.16 23.09L104.95 25.12C104.95 25.12 104.95 25.13 104.96 25.14L107.16 23.1V23.09ZM111.55 23.09L113.75 25.13C113.75 25.13 113.76 25.12 113.76 25.11L111.55 23.08V23.09ZM113.24 20.84C113.24 22.03 112.87 22.86 112.17 23.55L116.36 27.84C118.29 25.95 119.24 23.55 119.24 20.84H113.24ZM112.16 23.55C111.45 24.25 110.59 24.62 109.35 24.62V30.62C112.04 30.62 114.45 29.71 116.36 27.83L112.15 23.55H112.16ZM109.35 24.62C108.12 24.62 107.26 24.25 106.56 23.55L102.34 27.82C104.25 29.7 106.66 30.62 109.35 30.62V24.62ZM106.55 23.54C105.84 22.85 105.48 22.02 105.48 20.83H99.48C99.48 23.53 100.43 25.94 102.36 27.83L106.55 23.54ZM105.48 20.84C105.48 19.64 105.85 18.81 106.55 18.12L102.36 13.83C100.43 15.72 99.48 18.13 99.48 20.84H105.48ZM106.56 18.11C107.26 17.42 108.11 17.04 109.35 17.04V11.04C106.66 11.04 104.25 11.95 102.34 13.84L106.56 18.11ZM109.35 17.04C110.58 17.04 111.45 17.41 112.16 18.11L116.37 13.83C114.46 11.95 112.05 11.04 109.36 11.04V17.04H109.35ZM112.16 18.12C112.86 18.81 113.23 19.64 113.23 20.84H119.23C119.23 18.13 118.28 15.72 116.35 13.83L112.16 18.12ZM115.42 20.84C115.42 19.24 114.87 17.74 113.75 16.54L109.35 20.62C109.35 20.62 109.38 20.66 109.39 20.67V20.68C109.39 20.68 109.41 20.72 109.41 20.83H115.41L115.42 20.84ZM113.76 16.55C112.6 15.29 111.06 14.61 109.35 14.61V20.61C109.35 20.61 109.38 20.61 109.39 20.61C109.39 20.61 109.39 20.61 109.38 20.61C109.38 20.61 109.36 20.61 109.35 20.61C109.35 20.61 109.33 20.61 109.33 20.6H109.32C109.32 20.6 109.33 20.61 109.35 20.62L113.77 16.56L113.76 16.55ZM109.35 14.61C107.64 14.61 106.11 15.29 104.95 16.55L109.37 20.61L109.4 20.58C109.4 20.58 109.4 20.58 109.39 20.58C109.39 20.58 109.38 20.58 109.36 20.59C109.36 20.59 109.34 20.59 109.33 20.6C109.33 20.6 109.32 20.6 109.31 20.6C109.31 20.6 109.32 20.6 109.34 20.6V14.6L109.35 14.61ZM104.96 16.54C103.85 17.74 103.29 19.23 103.29 20.84H109.29C109.29 20.73 109.31 20.69 109.31 20.69C109.31 20.69 109.31 20.69 109.31 20.68C109.31 20.68 109.33 20.66 109.35 20.63L104.95 16.55L104.96 16.54ZM103.3 20.84C103.3 22.44 103.85 23.93 104.95 25.12L109.37 21.07C109.32 21.02 109.31 20.99 109.31 20.99C109.31 20.99 109.29 20.95 109.29 20.84H103.29H103.3ZM104.96 25.14C106.12 26.39 107.64 27.05 109.35 27.05V21.05H109.32C109.32 21.05 109.32 21.05 109.33 21.05C109.33 21.05 109.35 21.05 109.36 21.05C109.36 21.05 109.38 21.05 109.38 21.06H109.39C109.39 21.06 109.38 21.05 109.36 21.04L104.97 25.12L104.96 25.14ZM109.35 27.05C111.05 27.05 112.58 26.39 113.75 25.14L109.35 21.06L109.33 21.08C109.33 21.08 109.33 21.08 109.34 21.08C109.34 21.08 109.36 21.08 109.36 21.07H109.38H109.39C109.39 21.07 109.38 21.07 109.34 21.07V27.07L109.35 27.05ZM113.76 25.12C114.86 23.92 115.41 22.44 115.41 20.84H109.41C109.41 20.94 109.39 20.98 109.39 20.99C109.39 20.99 109.38 21.02 109.33 21.07L113.75 25.12H113.76ZM127.06 27.23H124.06C124.06 28.89 125.4 30.23 127.06 30.23V27.23ZM127.06 25.84H130.06C130.06 24.18 128.72 22.84 127.06 22.84V25.84ZM127.02 25.84V22.84C125.91 22.84 124.88 23.46 124.36 24.45L127.02 25.84ZM118.61 25.68L116.37 27.68C116.37 27.68 116.37 27.68 116.37 27.69L118.6 25.68H118.61ZM125.4 14.45L124.19 17.19H124.2L125.4 14.45ZM127.02 15.82L124.45 17.36C124.99 18.26 125.97 18.82 127.02 18.82V15.82ZM127.06 15.82V18.82C128.72 18.82 130.06 17.48 130.06 15.82H127.06ZM127.06 14.46V11.46C125.4 11.46 124.06 12.8 124.06 14.46H127.06ZM130.88 14.46H133.88C133.88 12.8 132.54 11.46 130.88 11.46V14.46ZM130.88 27.23V30.23C132.54 30.23 133.88 28.89 133.88 27.23H130.88ZM121.57 18.56L123.76 20.61C123.76 20.61 123.76 20.61 123.77 20.6L121.57 18.56ZM121.61 23.15L119.46 25.25C119.46 25.25 119.46 25.25 119.47 25.26L121.6 23.15H121.61ZM126.17 23.16L128.32 25.26C128.32 25.26 128.32 25.26 128.33 25.25L126.17 23.17V23.16ZM122.37 12.94L119.66 14.23C120.36 15.69 122.1 16.34 123.58 15.68L122.37 12.94ZM121.29 10.68L119.87 8.04C118.46 8.8 117.89 10.53 118.58 11.98L121.29 10.69V10.68ZM126.82 7.72L129.56 6.5C129.22 5.74 128.58 5.15 127.79 4.88C127 4.61 126.14 4.68 125.4 5.08L126.82 7.72ZM128.03 10.44L129.24 13.18C129.97 12.86 130.54 12.26 130.83 11.51C131.12 10.77 131.09 9.94 130.77 9.21L128.03 10.43V10.44ZM130.06 27.23V25.85H124.06V27.23H130.06ZM127.06 22.84H127.02V28.84H127.06V22.84ZM124.36 24.45C124.36 24.45 124.37 24.43 124.38 24.41C124.38 24.4 124.4 24.39 124.4 24.39C124.4 24.39 124.35 24.43 124.23 24.49L126.6 30C127.86 29.46 128.98 28.56 129.68 27.23L124.37 24.44L124.36 24.45ZM124.23 24.49C124 24.59 123.7 24.66 123.29 24.66V30.66C124.43 30.66 125.54 30.45 126.6 30L124.23 24.49ZM123.29 24.66C122.14 24.66 121.41 24.3 120.83 23.66L116.38 27.68C118.19 29.69 120.59 30.66 123.29 30.66V24.66ZM120.84 23.68C120.24 23.01 119.88 22.14 119.88 20.84H113.88C113.88 23.42 114.67 25.78 116.37 27.68L120.84 23.68ZM119.88 20.84C119.88 19.6 120.24 18.74 120.87 18.05L116.43 14.02C114.71 15.92 113.89 18.26 113.89 20.84H119.89H119.88ZM120.86 18.05C121.49 17.36 122.22 17.02 123.29 17.02V11.02C120.6 11.02 118.23 12.02 116.42 14.01L120.86 18.05ZM123.29 17.02C123.67 17.02 123.96 17.09 124.19 17.19L126.62 11.7C125.56 11.23 124.44 11.02 123.3 11.02V17.02H123.29ZM124.2 17.19C124.42 17.29 124.45 17.36 124.45 17.36L129.59 14.27C128.87 13.07 127.82 12.23 126.6 11.69L124.2 17.19ZM127.02 18.82H127.06V12.82H127.02V18.82ZM130.06 15.82V14.46H124.06V15.82H130.06ZM127.06 17.46H130.88V11.46H127.06V17.46ZM127.88 14.46V27.23H133.88V14.46H127.88ZM130.88 24.23H127.06V30.23H130.88V24.23ZM130.06 20.84C130.06 19.19 129.5 17.63 128.29 16.41L124.02 20.63L124.04 20.66C124.04 20.66 124.04 20.67 124.05 20.7C124.05 20.73 124.06 20.78 124.06 20.85H130.06V20.84ZM128.29 16.4C127.07 15.17 125.52 14.59 123.85 14.59V20.59C123.98 20.59 124.02 20.61 124.01 20.61C124.01 20.61 124.01 20.61 124 20.61C124 20.61 124 20.61 124.02 20.63L128.29 16.41V16.4ZM123.85 14.59C122.14 14.59 120.57 15.23 119.37 16.51L123.76 20.6C123.76 20.6 123.79 20.58 123.78 20.58C123.78 20.58 123.76 20.59 123.75 20.6C123.74 20.6 123.73 20.6 123.75 20.6C123.76 20.6 123.79 20.6 123.85 20.6V14.6V14.59ZM119.39 16.5C118.23 17.73 117.7 19.26 117.7 20.88H123.7C123.7 20.73 123.72 20.67 123.73 20.66C123.73 20.66 123.73 20.65 123.73 20.64C123.73 20.64 123.74 20.62 123.76 20.61L119.39 16.5ZM117.7 20.88C117.7 22.53 118.29 24.05 119.46 25.24L123.75 21.05C123.75 21.05 123.71 21.01 123.71 21C123.71 21 123.71 21 123.71 20.98C123.71 20.96 123.71 20.93 123.71 20.88H117.71H117.7ZM119.47 25.26C120.66 26.46 122.19 27.09 123.87 27.09V21.09C123.87 21.09 123.8 21.09 123.79 21.09C123.79 21.09 123.77 21.07 123.74 21.04L119.47 25.26ZM123.87 27.09C125.54 27.09 127.1 26.49 128.31 25.25L124.02 21.06L123.99 21.08C123.99 21.08 123.99 21.08 124 21.08C124 21.08 124 21.08 123.99 21.08C123.97 21.08 123.93 21.08 123.87 21.08V27.08V27.09ZM128.33 25.24C129.51 24.01 130.07 22.47 130.07 20.83H124.07C124.07 20.97 124.05 21.02 124.05 21.03C124.05 21.03 124.05 21.03 124.05 21.04C124.05 21.04 124.04 21.06 124.02 21.08L128.34 25.24H128.33ZM125.08 11.65L124 9.39L118.59 11.98L119.67 14.24L125.08 11.65ZM122.71 13.33L128.24 10.37L125.4 5.08L119.87 8.04L122.71 13.33ZM124.08 8.94L125.29 11.66L130.77 9.21L129.56 6.49L124.08 8.94ZM126.82 7.69L121.16 10.19L123.59 15.68L129.25 13.18L126.82 7.69ZM140.75 27.23H137.75C137.75 28.89 139.09 30.23 140.75 30.23V27.23ZM140.4 18.4L137.81 19.92C137.81 19.92 137.81 19.92 137.81 19.93L140.39 18.4H140.4ZM136.99 18.38L139.47 20.06L136.98 18.38H136.99ZM136.57 27.23V30.23C138.23 30.23 139.57 28.89 139.57 27.23H136.57ZM132.75 27.23H129.75C129.75 28.89 131.09 30.23 132.75 30.23V27.23ZM132.75 14.46V11.46C131.09 11.46 129.75 12.8 129.75 14.46H132.75ZM136.31 14.46H139.31C139.31 12.8 137.97 11.46 136.31 11.46V14.46ZM136.31 15.82H133.31C133.31 17.48 134.65 18.82 136.31 18.82V15.82ZM136.36 15.82V18.82C137.4 18.82 138.37 18.28 138.92 17.39L136.36 15.82ZM144.57 27.23V30.23C146.23 30.23 147.57 28.89 147.57 27.23H144.57ZM143.75 27.23V20.26H137.75V27.23H143.75ZM143.75 20.25C143.75 19.24 143.62 17.97 142.97 16.87L137.81 19.93C137.76 19.84 137.73 19.77 137.72 19.74C137.72 19.71 137.71 19.71 137.72 19.74C137.73 19.81 137.76 19.97 137.76 20.26H143.76L143.75 20.25ZM142.98 16.88C141.97 15.16 140.24 14.61 138.75 14.61V20.61C138.82 20.61 138.69 20.62 138.45 20.51C138.18 20.38 137.95 20.16 137.8 19.91L142.98 16.88ZM138.76 14.61C137.32 14.61 135.6 15.08 134.51 16.69L139.48 20.05C139.32 20.29 139.09 20.46 138.89 20.55C138.71 20.63 138.64 20.61 138.76 20.61V14.61ZM134.51 16.69C133.73 17.84 133.57 19.2 133.57 20.28H139.57C139.57 20.15 139.57 20.05 139.58 19.97C139.58 19.89 139.6 19.84 139.6 19.82C139.61 19.77 139.6 19.88 139.48 20.06L134.52 16.69H134.51ZM133.57 20.29V27.23H139.57V20.29H133.57ZM136.57 24.23H132.75V30.23H136.57V24.23ZM135.75 27.23V14.46H129.75V27.23H135.75ZM132.75 17.46H136.31V11.46H132.75V17.46ZM133.31 14.46V15.82H139.31V14.46H133.31ZM136.31 18.82H136.37V12.82H136.31V18.82ZM138.92 17.38C139.02 17.21 139.1 17.16 139.16 17.13C139.23 17.09 139.42 17.02 139.83 17.02V11.02C137.36 11.02 135.16 12.04 133.8 14.25L138.92 17.38ZM139.83 17.02C140.51 17.02 140.89 17.2 141.17 17.43L145.03 12.83C143.54 11.58 141.74 11.02 139.83 11.02V17.02ZM141.17 17.43C141.22 17.47 141.32 17.57 141.42 17.88L147.16 16.13C146.78 14.87 146.09 13.72 145.03 12.83L141.18 17.43H141.17ZM141.42 17.88C141.5 18.13 141.57 18.56 141.57 19.24H147.57C147.57 18.17 147.46 17.11 147.16 16.13L141.42 17.88ZM141.57 19.24V27.22H147.57V19.24H141.57ZM144.57 24.23H140.75V30.23H144.57V24.23Z" fill="url(#paint0_linear_3812_15292)"/>
</g>
<g filter="url(#filter1_d_3812_15292)">
<path d="M127.06 27.21V25.83H127.02C126.7 26.44 126.16 26.91 125.41 27.23C124.77 27.51 124.06 27.65 123.29 27.65C121.37 27.65 119.8 26.99 118.61 25.66C117.46 24.37 116.88 22.76 116.88 20.82C116.88 18.88 117.47 17.31 118.64 16.01C119.86 14.67 121.41 14 123.29 14C124.05 14 124.76 14.14 125.4 14.43C126.12 14.74 126.66 15.2 127.02 15.8H127.06V14.44H130.88V27.21H127.06ZM127.06 20.82C127.06 19.88 126.76 19.11 126.15 18.5C125.54 17.89 124.78 17.58 123.85 17.58C122.92 17.58 122.17 17.9 121.57 18.55C120.99 19.17 120.69 19.95 120.69 20.87C120.69 21.79 120.99 22.52 121.6 23.14C122.22 23.77 122.98 24.08 123.87 24.08C124.76 24.08 125.55 23.77 126.16 23.15C126.76 22.53 127.06 21.75 127.06 20.83V20.82ZM122.37 12.93L121.29 10.67L126.82 7.71L128.03 10.43L122.37 12.93Z" fill="#F2FBFF"/>
<path d="M140.75 27.21V20.24C140.75 19.41 140.63 18.79 140.39 18.39C140.08 17.87 139.54 17.6 138.75 17.6C137.92 17.6 137.33 17.85 136.99 18.36C136.7 18.78 136.56 19.42 136.56 20.27V27.21H132.74V14.44H136.3V15.8H136.36C137.09 14.6 138.25 14 139.83 14C141.13 14 142.21 14.37 143.1 15.11C143.65 15.57 144.05 16.2 144.29 16.99C144.48 17.6 144.57 18.35 144.57 19.22V27.2H140.75V27.21Z" fill="#F2FBFF"/>
<path d="M116.24 20.82C116.24 22.77 115.58 24.38 114.26 25.67C112.95 26.96 111.31 27.6 109.35 27.6C107.39 27.6 105.76 26.96 104.45 25.67C103.13 24.38 102.47 22.77 102.47 20.82C102.47 18.87 103.13 17.25 104.45 15.96C105.75 14.67 107.38 14.03 109.35 14.03C111.32 14.03 112.95 14.67 114.26 15.96C115.58 17.25 116.24 18.87 116.24 20.82ZM112.42 20.82C112.42 19.94 112.13 19.18 111.56 18.56C110.97 17.92 110.23 17.59 109.36 17.59C108.49 17.59 107.76 17.91 107.17 18.56C106.59 19.18 106.3 19.93 106.3 20.82C106.3 21.71 106.59 22.45 107.17 23.08C107.76 23.72 108.49 24.03 109.36 24.03C110.23 24.03 110.97 23.71 111.56 23.08C112.14 22.45 112.42 21.7 112.42 20.82Z" fill="#F2FBFF"/>
<path d="M97.6199 20.78C97.6199 19.86 97.3198 19.1 96.7098 18.49C96.0998 17.88 95.3299 17.58 94.4099 17.58C93.4899 17.58 92.7098 17.88 92.0998 18.48C91.4798 19.09 91.1698 19.85 91.1698 20.78C91.1698 21.71 91.4698 22.5 92.0598 23.12C92.6598 23.75 93.4299 24.06 94.3699 24.06C95.3099 24.06 96.0998 23.75 96.7198 23.13C97.3298 22.51 97.6298 21.73 97.6298 20.78H97.6199ZM101.23 13.52V27.21H97.5898V25.83H97.5499C97.1799 26.47 96.6298 26.93 95.8998 27.23C95.2898 27.49 94.5599 27.62 93.7299 27.62C91.8199 27.62 90.2698 26.95 89.0698 25.62C87.9198 24.33 87.3398 22.72 87.3398 20.79C87.3398 18.86 87.9098 17.29 89.0598 16.01C90.2598 14.67 91.7899 14 93.6599 14C95.1699 14 96.4199 14.51 97.4099 15.53V13.52H94.8898V11.26H97.4099V10.18H101.23V11.26H102.32V13.52H101.23Z" fill="#F2FBFF"/>
<path d="M77.2001 9.37C77.2001 9.78 77.1001 10.16 76.8901 10.52C76.8001 10.66 76.6901 10.81 76.5601 10.96C76.4601 11.08 76.3301 11.21 76.1801 11.35L75.8001 11.71C75.6501 11.84 75.5301 11.96 75.4501 12.06C75.2201 12.32 75.0901 12.58 75.0701 12.82H73.1201C73.1201 12.48 73.2301 12.14 73.4301 11.81C73.5101 11.68 73.6201 11.55 73.7401 11.41C73.8301 11.31 73.9501 11.18 74.0901 11.04L74.4501 10.69C74.5801 10.56 74.6801 10.44 74.7501 10.34C74.9401 10.09 75.0401 9.84 75.0401 9.61C75.0401 9.15 74.8201 8.91 74.3901 8.91C74.0801 8.91 73.8701 9.02 73.7501 9.25C73.6701 9.4 73.6201 9.65 73.6201 9.99H71.5601V9.79C71.5501 8.97 71.8401 8.29 72.4101 7.76C72.9701 7.25 73.6701 7 74.5001 7C75.6501 7 76.4501 7.45 76.9301 8.35C77.1101 8.69 77.2001 9.03 77.2001 9.38V9.37ZM79.9301 17.35V27.21H76.3101V25.85H76.2701C75.9601 26.5 75.5001 26.97 74.9001 27.25C74.3801 27.5 73.7401 27.62 72.9601 27.62C71.3401 27.62 70.0901 27.08 69.2101 26.01C68.7301 25.41 68.4101 24.79 68.2401 24.15C68.1201 23.66 68.0601 22.97 68.0601 22.07V14.43H71.8801V21.49C71.8801 22.31 72.0001 22.92 72.2501 23.31C72.5701 23.8 73.1301 24.04 73.9201 24.04C75.3801 24.04 76.1101 23.18 76.1101 21.45V14.43H79.9301V15.53C80.5101 15.16 80.7901 14.65 80.7901 14.03H79.8901V11.47H82.4601V14.11C82.3601 15.2 82.0001 16 81.3901 16.54C80.9401 16.93 80.4501 17.2 79.9201 17.35H79.9301Z" fill="#F2FBFF"/>
<path d="M67.1202 23.3C67.1202 24.66 66.5802 25.74 65.4902 26.55C64.5102 27.28 63.3202 27.65 61.9202 27.65C60.5202 27.65 59.3602 27.29 58.4302 26.58C57.4302 25.82 56.8702 24.77 56.7202 23.41H60.5202C60.6302 24.2 61.1202 24.59 61.9702 24.59C62.3002 24.59 62.6002 24.51 62.8602 24.34C63.1602 24.15 63.3102 23.9 63.3102 23.59C63.3102 23.19 63.1102 22.87 62.7002 22.61L62.1402 22.34L59.9302 21.54C59.0402 21.22 58.3402 20.82 57.8402 20.34C57.2002 19.74 56.8902 19.03 56.8902 18.21C56.8902 16.94 57.4102 15.91 58.4402 15.11C59.3902 14.37 60.5302 14 61.8402 14C63.1502 14 64.2802 14.33 65.1502 15C66.0902 15.71 66.6102 16.72 66.7302 18.03H62.9802C62.9602 17.39 62.5602 17.06 61.7902 17.06C61.0602 17.06 60.7002 17.34 60.7002 17.91C60.7002 18.34 61.0402 18.68 61.7102 18.95C61.9302 19.05 62.2802 19.16 62.7302 19.3C62.7702 19.3 62.8202 19.32 62.8802 19.33L63.9102 19.66C64.3702 19.81 64.7602 19.97 65.0902 20.13C65.4902 20.33 65.8302 20.56 66.1102 20.83C66.7802 21.45 67.1202 22.27 67.1202 23.29V23.3Z" fill="#F2FBFF"/>
<path d="M45.7598 27.21V20.27C45.7598 19.47 45.6298 18.85 45.3598 18.42C45.0198 17.87 44.4698 17.6 43.7098 17.6C42.9498 17.6 42.3798 17.84 42.0298 18.32C41.7298 18.73 41.5798 19.33 41.5798 20.13V27.22H37.7598V10.19H41.5798V15.63H41.6198C41.9298 15.07 42.4098 14.65 43.0298 14.37C43.5698 14.13 44.1898 14.01 44.9098 14.01C46.4198 14.01 47.5798 14.48 48.3798 15.41C48.9298 16.04 49.2798 16.78 49.4398 17.62C49.5098 17.96 49.5498 18.35 49.5598 18.81C49.5598 18.99 49.5698 19.2 49.5798 19.44V27.21H45.7598Z" fill="#F2FBFF"/>
<path d="M36.5698 22.36C36.1998 23.92 35.3998 25.19 34.1598 26.17C32.9198 27.14 31.4998 27.63 29.8798 27.63C27.9698 27.63 26.3598 26.97 25.0398 25.64C23.7098 24.32 23.0498 22.71 23.0498 20.8C23.0498 18.89 23.6998 17.3 24.9898 15.99C26.2898 14.66 27.8898 14 29.7898 14C31.4398 14 32.8998 14.49 34.1498 15.47C35.4198 16.46 36.2198 17.76 36.5498 19.37H32.6898C32.1398 18.17 31.1898 17.57 29.8398 17.57C28.9498 17.57 28.2298 17.9 27.6798 18.55C27.1598 19.16 26.8898 19.92 26.8898 20.82C26.8898 21.72 27.1598 22.5 27.7098 23.11C28.2798 23.74 29.0198 24.05 29.9198 24.05C31.1698 24.05 32.0898 23.48 32.6798 22.35H36.5698V22.36Z" fill="#F2FBFF"/>
<path d="M18.0098 13.1V10.19H21.8298V13.1H18.0098ZM18.0098 27.21V14.44H21.8298V27.21H18.0098ZM18.0898 32.73V29.26H21.7498V32.73H18.0898Z" fill="#F2FBFF"/>
<path d="M8 27.21V10.19H12.35V23.4H17.39V27.22H8V27.21Z" fill="#F2FBFF"/>
</g>
<defs>
<filter id="filter0_d_3812_15292" x="3" y="3" width="146.57" height="35.74" filterUnits="userSpaceOnUse" color-interpolation-filters="sRGB">
<feFlood flood-opacity="0" result="BackgroundImageFix"/>
<feColorMatrix in="SourceAlpha" type="matrix" values="0 0 0 0 0 0 0 0 0 0 0 0 0 0 0 0 0 0 127 0" result="hardAlpha"/>
<feOffset dy="1"/>
<feGaussianBlur stdDeviation="1"/>
<feComposite in2="hardAlpha" operator="out"/>
<feColorMatrix type="matrix" values="0 0 0 0 0.0235294 0 0 0 0 0.2 0 0 0 0 0.215686 0 0 0 1 0"/>
<feBlend mode="normal" in2="BackgroundImageFix" result="effect1_dropShadow_3812_15292"/>
<feBlend mode="normal" in="SourceGraphic" in2="effect1_dropShadow_3812_15292" result="shape"/>
</filter>
<filter id="filter1_d_3812_15292" x="8" y="7" width="137.87" height="27.03" filterUnits="userSpaceOnUse" color-interpolation-filters="sRGB">
<feFlood flood-opacity="0" result="BackgroundImageFix"/>
<feColorMatrix in="SourceAlpha" type="matrix" values="0 0 0 0 0 0 0 0 0 0 0 0 0 0 0 0 0 0 127 0" result="hardAlpha"/>
<feOffset dx="1" dy="1"/>
<feGaussianBlur stdDeviation="0.15"/>
<feComposite in2="hardAlpha" operator="out"/>
<feColorMatrix type="matrix" values="0 0 0 0 0.113725 0 0 0 0 0.345098 0 0 0 0 0.4 0 0 0 1 0"/>
<feBlend mode="normal" in2="BackgroundImageFix" result="effect1_dropShadow_3812_15292"/>
<feBlend mode="normal" in="SourceGraphic" in2="effect1_dropShadow_3812_15292" result="shape"/>
</filter>
<linearGradient id="paint0_linear_3812_15292" x1="78.04" y1="38.48" x2="73.87" y2="1.56" gradientUnits="userSpaceOnUse">
<stop stop-color="#1D5666"/>
<stop offset="1" stop-color="#5FDABC"/>
</linearGradient>
</defs>
</svg>
