<svg width="93" height="22" viewBox="0 0 93 22" fill="none" xmlns="http://www.w3.org/2000/svg">
<g filter="url(#filter0_d_1_34099)">
<path d="M7.29492 0.78125V15H4.86328V0.78125H7.29492ZM11.7578 0.78125V2.73438H0.439453V0.78125H11.7578ZM18.1355 12.5098V4.43359H20.4988V15H18.2723L18.1355 12.5098ZM18.4676 10.3125L19.2586 10.293C19.2586 11.0026 19.1805 11.6569 19.0242 12.2559C18.868 12.8483 18.6271 13.3659 18.3016 13.8086C17.976 14.2448 17.5594 14.5866 17.0516 14.834C16.5437 15.0749 15.935 15.1953 15.2254 15.1953C14.7111 15.1953 14.2391 15.1204 13.8094 14.9707C13.3797 14.821 13.0086 14.5898 12.6961 14.2773C12.3901 13.9648 12.1525 13.5579 11.9832 13.0566C11.8139 12.5553 11.7293 11.9564 11.7293 11.2598V4.43359H14.0828V11.2793C14.0828 11.6634 14.1284 11.9857 14.2195 12.2461C14.3107 12.5 14.4344 12.7051 14.5906 12.8613C14.7469 13.0176 14.9292 13.1283 15.1375 13.1934C15.3458 13.2585 15.5672 13.291 15.8016 13.291C16.4721 13.291 16.9995 13.1608 17.3836 12.9004C17.7742 12.6335 18.0509 12.2754 18.2137 11.8262C18.3829 11.377 18.4676 10.8724 18.4676 10.3125ZM24.4742 6.44531V15H22.1207V4.43359H24.3668L24.4742 6.44531ZM27.7066 4.36523L27.6871 6.55273C27.5439 6.52669 27.3876 6.50716 27.2184 6.49414C27.0556 6.48112 26.8928 6.47461 26.7301 6.47461C26.3264 6.47461 25.9716 6.5332 25.6656 6.65039C25.3596 6.76107 25.1025 6.92383 24.8941 7.13867C24.6923 7.34701 24.5361 7.60091 24.4254 7.90039C24.3147 8.19987 24.2496 8.53516 24.2301 8.90625L23.693 8.94531C23.693 8.28125 23.7581 7.66602 23.8883 7.09961C24.0185 6.5332 24.2138 6.03516 24.4742 5.60547C24.7411 5.17578 25.0732 4.84049 25.4703 4.59961C25.874 4.35872 26.3395 4.23828 26.8668 4.23828C27.01 4.23828 27.163 4.2513 27.3258 4.27734C27.4951 4.30339 27.622 4.33268 27.7066 4.36523ZM33.9867 12.8809V7.8418C33.9867 7.46419 33.9184 7.13867 33.7816 6.86523C33.6449 6.5918 33.4366 6.38021 33.1566 6.23047C32.8832 6.08073 32.5382 6.00586 32.1215 6.00586C31.7374 6.00586 31.4053 6.07096 31.1254 6.20117C30.8454 6.33138 30.6273 6.50716 30.4711 6.72852C30.3148 6.94987 30.2367 7.20052 30.2367 7.48047H27.893C27.893 7.0638 27.9939 6.66016 28.1957 6.26953C28.3975 5.87891 28.6905 5.5306 29.0746 5.22461C29.4587 4.91862 29.9177 4.67773 30.4516 4.50195C30.9854 4.32617 31.5844 4.23828 32.2484 4.23828C33.0427 4.23828 33.7458 4.37174 34.3578 4.63867C34.9763 4.9056 35.4613 5.30924 35.8129 5.84961C36.171 6.38346 36.35 7.05404 36.35 7.86133V12.5586C36.35 13.0404 36.3826 13.4733 36.4477 13.8574C36.5193 14.235 36.6202 14.5638 36.7504 14.8438V15H34.3383C34.2276 14.7461 34.1397 14.4238 34.0746 14.0332C34.016 13.6361 33.9867 13.252 33.9867 12.8809ZM34.3285 8.57422L34.348 10.0293H32.6586C32.2224 10.0293 31.8383 10.0716 31.5063 10.1562C31.1742 10.2344 30.8975 10.3516 30.6762 10.5078C30.4548 10.6641 30.2888 10.8529 30.1781 11.0742C30.0674 11.2956 30.0121 11.5462 30.0121 11.8262C30.0121 12.1061 30.0772 12.3633 30.2074 12.5977C30.3376 12.8255 30.5264 13.0046 30.7738 13.1348C31.0277 13.265 31.3337 13.3301 31.6918 13.3301C32.1736 13.3301 32.5935 13.2324 32.9516 13.0371C33.3161 12.8353 33.6026 12.5911 33.8109 12.3047C34.0193 12.0117 34.1299 11.735 34.143 11.4746L34.9047 12.5195C34.8266 12.7865 34.6931 13.0729 34.5043 13.3789C34.3155 13.6849 34.0681 13.9779 33.7621 14.2578C33.4626 14.5312 33.1013 14.7559 32.6781 14.9316C32.2615 15.1074 31.7797 15.1953 31.2328 15.1953C30.5427 15.1953 29.9275 15.0586 29.3871 14.7852C28.8467 14.5052 28.4236 14.1309 28.1176 13.6621C27.8116 13.1868 27.6586 12.6497 27.6586 12.0508C27.6586 11.4909 27.7628 10.9961 27.9711 10.5664C28.1859 10.1302 28.4984 9.76562 28.9086 9.47266C29.3253 9.17969 29.8331 8.95833 30.432 8.80859C31.031 8.65234 31.7146 8.57422 32.4828 8.57422H34.3285ZM38.0207 0H40.3742V12.7441L40.1496 15H38.0207V0ZM47.2687 9.61914V9.82422C47.2687 10.6055 47.1809 11.3249 47.0051 11.9824C46.8358 12.6335 46.5754 13.1999 46.2238 13.6816C45.8788 14.1634 45.4491 14.5378 44.9348 14.8047C44.427 15.0651 43.8378 15.1953 43.1672 15.1953C42.5096 15.1953 41.9367 15.0716 41.4484 14.8242C40.9602 14.5768 40.55 14.2253 40.218 13.7695C39.8924 13.3138 39.6288 12.7702 39.427 12.1387C39.2251 11.5072 39.0819 10.8105 38.9973 10.0488V9.39453C39.0819 8.6263 39.2251 7.92969 39.427 7.30469C39.6288 6.67318 39.8924 6.12956 40.218 5.67383C40.55 5.21159 40.9569 4.85677 41.4387 4.60938C41.927 4.36198 42.4966 4.23828 43.1477 4.23828C43.8247 4.23828 44.4204 4.36849 44.9348 4.62891C45.4556 4.88932 45.8885 5.26042 46.2336 5.74219C46.5786 6.21745 46.8358 6.78385 47.0051 7.44141C47.1809 8.09896 47.2687 8.82487 47.2687 9.61914ZM44.9152 9.82422V9.61914C44.9152 9.14388 44.8762 8.69792 44.798 8.28125C44.7199 7.85807 44.5897 7.48698 44.4074 7.16797C44.2316 6.84896 43.9908 6.59831 43.6848 6.41602C43.3853 6.22721 43.0109 6.13281 42.5617 6.13281C42.1451 6.13281 41.787 6.20443 41.4875 6.34766C41.188 6.49089 40.9374 6.6862 40.7355 6.93359C40.5337 7.18099 40.3742 7.46745 40.257 7.79297C40.1464 8.11849 40.0715 8.47005 40.0324 8.84766V10.6152C40.091 11.1035 40.2147 11.5527 40.4035 11.9629C40.5988 12.3665 40.8723 12.6921 41.2238 12.9395C41.5754 13.1803 42.0279 13.3008 42.5812 13.3008C43.0174 13.3008 43.3853 13.2129 43.6848 13.0371C43.9842 12.8613 44.2219 12.6172 44.3977 12.3047C44.5799 11.9857 44.7102 11.6146 44.7883 11.1914C44.8729 10.7682 44.9152 10.3125 44.9152 9.82422ZM54.418 12.8809V7.8418C54.418 7.46419 54.3496 7.13867 54.2129 6.86523C54.0762 6.5918 53.8678 6.38021 53.5879 6.23047C53.3145 6.08073 52.9694 6.00586 52.5527 6.00586C52.1686 6.00586 51.8366 6.07096 51.5566 6.20117C51.2767 6.33138 51.0586 6.50716 50.9023 6.72852C50.7461 6.94987 50.668 7.20052 50.668 7.48047H48.3242C48.3242 7.0638 48.4251 6.66016 48.627 6.26953C48.8288 5.87891 49.1217 5.5306 49.5059 5.22461C49.89 4.91862 50.349 4.67773 50.8828 4.50195C51.4167 4.32617 52.0156 4.23828 52.6797 4.23828C53.474 4.23828 54.1771 4.37174 54.7891 4.63867C55.4076 4.9056 55.8926 5.30924 56.2441 5.84961C56.6022 6.38346 56.7812 7.05404 56.7812 7.86133V12.5586C56.7812 13.0404 56.8138 13.4733 56.8789 13.8574C56.9505 14.235 57.0514 14.5638 57.1816 14.8438V15H54.7695C54.6589 14.7461 54.571 14.4238 54.5059 14.0332C54.4473 13.6361 54.418 13.252 54.418 12.8809ZM54.7598 8.57422L54.7793 10.0293H53.0898C52.6536 10.0293 52.2695 10.0716 51.9375 10.1562C51.6055 10.2344 51.3288 10.3516 51.1074 10.5078C50.8861 10.6641 50.7201 10.8529 50.6094 11.0742C50.4987 11.2956 50.4434 11.5462 50.4434 11.8262C50.4434 12.1061 50.5085 12.3633 50.6387 12.5977C50.7689 12.8255 50.9577 13.0046 51.2051 13.1348C51.459 13.265 51.765 13.3301 52.123 13.3301C52.6048 13.3301 53.0247 13.2324 53.3828 13.0371C53.7474 12.8353 54.0339 12.5911 54.2422 12.3047C54.4505 12.0117 54.5612 11.735 54.5742 11.4746L55.3359 12.5195C55.2578 12.7865 55.1243 13.0729 54.9355 13.3789C54.7467 13.6849 54.4993 13.9779 54.1934 14.2578C53.8939 14.5312 53.5326 14.7559 53.1094 14.9316C52.6927 15.1074 52.2109 15.1953 51.6641 15.1953C50.974 15.1953 50.3587 15.0586 49.8184 14.7852C49.278 14.5052 48.8548 14.1309 48.5488 13.6621C48.2428 13.1868 48.0898 12.6497 48.0898 12.0508C48.0898 11.4909 48.194 10.9961 48.4023 10.5664C48.6172 10.1302 48.9297 9.76562 49.3398 9.47266C49.7565 9.17969 50.2643 8.95833 50.8633 8.80859C51.4622 8.65234 52.1458 8.57422 52.9141 8.57422H54.7598ZM60.8152 0V15H58.452V0H60.8152ZM67.3777 4.43359L62.7781 9.53125L60.2586 12.1094L59.6434 10.1172L61.5477 7.76367L64.5359 4.43359H67.3777ZM65.0438 15L61.616 10.0391L63.1004 8.38867L67.7684 15H65.0438ZM72.5348 15.1953C71.7535 15.1953 71.0471 15.0684 70.4156 14.8145C69.7906 14.554 69.2568 14.1927 68.8141 13.7305C68.3779 13.2682 68.0426 12.7246 67.8082 12.0996C67.5738 11.4746 67.4566 10.8008 67.4566 10.0781V9.6875C67.4566 8.86068 67.5771 8.11198 67.818 7.44141C68.0589 6.77083 68.3941 6.19792 68.8238 5.72266C69.2535 5.24089 69.7613 4.87305 70.3473 4.61914C70.9332 4.36523 71.568 4.23828 72.2516 4.23828C73.0068 4.23828 73.6676 4.36523 74.234 4.61914C74.8004 4.87305 75.2691 5.23112 75.6402 5.69336C76.0178 6.14909 76.2978 6.69271 76.4801 7.32422C76.6689 7.95573 76.7633 8.65234 76.7633 9.41406V10.4199H68.5992V8.73047H74.4391V8.54492C74.426 8.12174 74.3414 7.72461 74.1852 7.35352C74.0354 6.98242 73.8043 6.68294 73.4918 6.45508C73.1793 6.22721 72.7626 6.11328 72.2418 6.11328C71.8512 6.11328 71.5029 6.19792 71.1969 6.36719C70.8974 6.52995 70.6467 6.76758 70.4449 7.08008C70.2431 7.39258 70.0869 7.77018 69.9762 8.21289C69.872 8.64909 69.8199 9.14062 69.8199 9.6875V10.0781C69.8199 10.5404 69.8818 10.9701 70.0055 11.3672C70.1357 11.7578 70.3245 12.0996 70.5719 12.3926C70.8193 12.6855 71.1188 12.9167 71.4703 13.0859C71.8219 13.2487 72.2223 13.3301 72.6715 13.3301C73.2379 13.3301 73.7424 13.2161 74.1852 12.9883C74.6279 12.7604 75.012 12.4382 75.3375 12.0215L76.5777 13.2227C76.3499 13.5547 76.0536 13.8737 75.6891 14.1797C75.3245 14.4792 74.8785 14.7233 74.3512 14.9121C73.8303 15.1009 73.2249 15.1953 72.5348 15.1953ZM77.9164 4.43359H80.2797V15.918C80.2797 16.6406 80.156 17.2493 79.9086 17.7441C79.6612 18.2454 79.2966 18.623 78.8148 18.877C78.3331 19.1374 77.7439 19.2676 77.0473 19.2676C76.8389 19.2676 76.6241 19.2513 76.4027 19.2188C76.1749 19.1927 75.96 19.1536 75.7582 19.1016L75.768 17.2656C75.9047 17.2917 76.0512 17.3112 76.2074 17.3242C76.3572 17.3438 76.5004 17.3535 76.6371 17.3535C76.9171 17.3535 77.1514 17.3047 77.3402 17.207C77.529 17.1094 77.6723 16.9564 77.7699 16.748C77.8676 16.5397 77.9164 16.263 77.9164 15.918V4.43359ZM77.7113 1.66016C77.7113 1.30208 77.8318 1.00586 78.0727 0.771484C78.3135 0.530599 78.6423 0.410156 79.059 0.410156C79.4822 0.410156 79.8109 0.530599 80.0453 0.771484C80.2862 1.00586 80.4066 1.30208 80.4066 1.66016C80.4066 2.01172 80.2862 2.30469 80.0453 2.53906C79.8109 2.77344 79.4822 2.89062 79.059 2.89062C78.6423 2.89062 78.3135 2.77344 78.0727 2.53906C77.8318 2.30469 77.7113 2.01172 77.7113 1.66016ZM86.677 15.1953C85.8957 15.1953 85.1893 15.0684 84.5578 14.8145C83.9328 14.554 83.399 14.1927 82.9563 13.7305C82.5201 13.2682 82.1848 12.7246 81.9504 12.0996C81.716 11.4746 81.5988 10.8008 81.5988 10.0781V9.6875C81.5988 8.86068 81.7193 8.11198 81.9602 7.44141C82.201 6.77083 82.5363 6.19792 82.966 5.72266C83.3957 5.24089 83.9035 4.87305 84.4895 4.61914C85.0754 4.36523 85.7102 4.23828 86.3938 4.23828C87.149 4.23828 87.8098 4.36523 88.3762 4.61914C88.9426 4.87305 89.4113 5.23112 89.7824 5.69336C90.16 6.14909 90.44 6.69271 90.6223 7.32422C90.8111 7.95573 90.9055 8.65234 90.9055 9.41406V10.4199H82.7414V8.73047H88.5813V8.54492C88.5682 8.12174 88.4836 7.72461 88.3273 7.35352C88.1776 6.98242 87.9465 6.68294 87.634 6.45508C87.3215 6.22721 86.9048 6.11328 86.384 6.11328C85.9934 6.11328 85.6451 6.19792 85.3391 6.36719C85.0396 6.52995 84.7889 6.76758 84.5871 7.08008C84.3853 7.39258 84.229 7.77018 84.1184 8.21289C84.0142 8.64909 83.9621 9.14062 83.9621 9.6875V10.0781C83.9621 10.5404 84.024 10.9701 84.1477 11.3672C84.2779 11.7578 84.4667 12.0996 84.7141 12.3926C84.9615 12.6855 85.2609 12.9167 85.6125 13.0859C85.9641 13.2487 86.3645 13.3301 86.8137 13.3301C87.3801 13.3301 87.8846 13.2161 88.3273 12.9883C88.7701 12.7604 89.1542 12.4382 89.4797 12.0215L90.7199 13.2227C90.4921 13.5547 90.1958 13.8737 89.8313 14.1797C89.4667 14.4792 89.0207 14.7233 88.4934 14.9121C87.9725 15.1009 87.3671 15.1953 86.677 15.1953Z" fill="url(#paint0_linear_1_34099)"/>
</g>
<defs>
<filter id="filter0_d_1_34099" x="0.439453" y="0" width="92.4661" height="21.2676" filterUnits="userSpaceOnUse" color-interpolation-filters="sRGB">
<feFlood flood-opacity="0" result="BackgroundImageFix"/>
<feColorMatrix in="SourceAlpha" type="matrix" values="0 0 0 0 0 0 0 0 0 0 0 0 0 0 0 0 0 0 127 0" result="hardAlpha"/>
<feOffset dx="1" dy="1"/>
<feGaussianBlur stdDeviation="0.5"/>
<feComposite in2="hardAlpha" operator="out"/>
<feColorMatrix type="matrix" values="0 0 0 0 0 0 0 0 0 0 0 0 0 0 0 0 0 0 0.25 0"/>
<feBlend mode="normal" in2="BackgroundImageFix" result="effect1_dropShadow_1_34099"/>
<feBlend mode="normal" in="SourceGraphic" in2="effect1_dropShadow_1_34099" result="shape"/>
</filter>
<linearGradient id="paint0_linear_1_34099" x1="43.6289" y1="-0.5" x2="43.6289" y2="18" gradientUnits="userSpaceOnUse">
<stop stop-color="#F3FE5C"/>
<stop offset="1" stop-color="#ECB926"/>
</linearGradient>
</defs>
</svg>
