<svg width="106" height="37" viewBox="0 0 106 37" fill="none" xmlns="http://www.w3.org/2000/svg">
<g filter="url(#filter0_d_3812_15290)">
<path d="M15.04 28.8014L10.39 21.4414H10.35V28.8014H6V11.7714H10.35V19.4314H10.39L15.2 11.7714H19.76L14.12 20.2614L20.12 28.8014H15.04ZM34.38 22.5714C34.38 22.9414 34.35 23.2714 34.29 23.5814H24.72C24.96 25.1914 25.96 25.9914 27.71 25.9914C28.62 25.9914 29.4 25.5914 30.03 24.8014H33.94C33.37 26.1314 32.55 27.1814 31.49 27.9714C30.36 28.8014 29.1 29.2214 27.71 29.2214C25.85 29.2214 24.25 28.5614 22.94 27.2314C21.61 25.9114 20.95 24.3214 20.95 22.4614C20.95 20.6014 21.6 18.9814 22.89 17.6414C24.2 16.2814 25.78 15.6014 27.64 15.6014C29.5 15.6014 31.19 16.2814 32.48 17.6414C33.75 18.9814 34.38 20.6214 34.38 22.5714ZM30.56 21.0014C30.25 19.5414 29.28 18.8114 27.66 18.8114C26.04 18.8114 25.08 19.5414 24.76 21.0014H30.56ZM31.59 12.2214L30.51 9.96144L36.04 7.00144L37.25 9.72144L31.59 12.2214ZM28.76 14.0814L27.7 12.7414L26.64 14.0814H22.91L26.5 10.2614H28.98L32.43 14.0814H28.75H28.76ZM41.08 18.9314V28.8014H37.26V18.9314H35.37V16.0314H37.26V11.7714H41.08V16.0314H42.92V18.9314H41.08ZM69.95 29.1014C69.46 29.1314 69.1 29.1414 68.87 29.1414C68.11 29.1414 67.4 29.0414 66.74 28.8514C65.94 28.6214 65.32 28.2714 64.88 27.8114C63.45 28.7014 61.86 29.1514 60.1 29.1514C57.64 29.1514 55.53 28.3114 53.78 26.6214C52 24.9114 51.11 22.8314 51.11 20.3814C51.11 17.9314 51.98 15.7814 53.72 14.0514C55.45 12.3314 57.56 11.4714 60.07 11.4714C62.58 11.4714 64.65 12.3014 66.43 13.9514C68.25 15.6414 69.16 17.7114 69.16 20.1614C69.16 22.0514 68.69 23.6914 67.76 25.0814C68.33 25.6014 69.07 25.8014 69.98 25.6514V29.1114L69.95 29.1014ZM64.78 20.0814C64.78 18.7014 64.34 17.5614 63.45 16.6414C62.56 15.7314 61.43 15.2714 60.06 15.2714C58.82 15.2714 57.78 15.6914 56.95 16.5214C56.17 17.2914 55.67 18.3114 55.46 19.5714C55.93 19.3714 56.32 19.2314 56.64 19.1514C57.04 19.0514 57.45 18.9914 57.88 18.9914C59.07 18.9914 60.25 19.3514 61.43 20.0714C62.43 20.6914 63.35 21.5314 64.2 22.5714C64.59 21.9014 64.78 21.0714 64.78 20.0714V20.0814ZM62.02 24.8914C61.66 24.4614 61.34 24.1114 61.07 23.8314C60.73 23.4814 60.38 23.1914 60.04 22.9714C59.25 22.4414 58.38 22.1714 57.42 22.1714C56.94 22.1714 56.44 22.2614 55.9 22.4514C56.71 24.3714 58.09 25.3314 60.04 25.3314C60.82 25.3314 61.48 25.1814 62.02 24.8914ZM79.8 28.8014V27.4414H79.76C79.45 28.0914 78.99 28.5614 78.39 28.8414C77.87 29.0914 77.23 29.2114 76.45 29.2114C74.83 29.2114 73.57 28.6714 72.7 27.6014C72.22 27.0014 71.9 26.3814 71.75 25.7414C71.62 25.2514 71.56 24.5614 71.56 23.6614V16.0214H75.38V23.0814C75.38 23.9014 75.51 24.5114 75.76 24.9014C76.07 25.3914 76.63 25.6314 77.42 25.6314C78.88 25.6314 79.61 24.7714 79.61 23.0414V16.0214H83.43V28.7914H79.81L79.8 28.8014ZM95.75 28.8014V27.4214H95.71C95.39 28.0314 94.85 28.5014 94.1 28.8214C93.46 29.1014 92.75 29.2414 91.98 29.2414C90.06 29.2414 88.49 28.5814 87.3 27.2514C86.15 25.9614 85.57 24.3514 85.57 22.4114C85.57 20.4714 86.16 18.9014 87.33 17.6014C88.55 16.2614 90.1 15.5914 91.98 15.5914C92.74 15.5914 93.45 15.7314 94.09 16.0214C94.81 16.3314 95.35 16.7914 95.71 17.3914H95.75V16.0314H99.57V28.8014H95.75ZM95.75 22.4114C95.75 21.4714 95.45 20.7014 94.84 20.0914C94.23 19.4814 93.47 19.1714 92.54 19.1714C91.61 19.1714 90.86 19.4914 90.26 20.1414C89.68 20.7614 89.38 21.5414 89.38 22.4614C89.38 23.3814 89.68 24.1114 90.29 24.7314C90.91 25.3614 91.67 25.6714 92.56 25.6714C93.45 25.6714 94.24 25.3614 94.85 24.7414C95.45 24.1214 95.75 23.3414 95.75 22.4214V22.4114ZM95.53 10.9514C95.53 11.3614 95.43 11.7414 95.22 12.1014C95.13 12.2414 95.02 12.3914 94.89 12.5414C94.79 12.6614 94.66 12.7914 94.51 12.9314L94.12 13.2914C93.98 13.4214 93.87 13.5414 93.78 13.6414C93.55 13.9014 93.42 14.1614 93.4 14.4014H91.45C91.45 14.0614 91.56 13.7214 91.76 13.3914C91.84 13.2614 91.95 13.1314 92.07 12.9914C92.16 12.8914 92.28 12.7614 92.42 12.6214L92.77 12.2714C92.9 12.1414 93 12.0214 93.08 11.9214C93.27 11.6714 93.37 11.4214 93.37 11.1914C93.37 10.7314 93.15 10.4914 92.72 10.4914C92.41 10.4914 92.2 10.6014 92.08 10.8314C92 10.9814 91.95 11.2314 91.95 11.5714H89.89C89.89 11.5714 89.89 11.5114 89.88 11.4714V11.3714C89.88 10.5514 90.17 9.87144 90.74 9.34144C91.3 8.83144 92 8.58144 92.83 8.58144C93.98 8.58144 94.78 9.03144 95.26 9.93144C95.44 10.2714 95.53 10.6114 95.53 10.9614V10.9514Z" fill="#FFF8F2"/>
<path d="M15.04 28.8014L12.5 30.4014C13.05 31.2714 14.01 31.8014 15.04 31.8014V28.8014ZM10.39 21.4414L12.93 19.8414C12.38 18.9714 11.42 18.4414 10.39 18.4414V21.4414ZM10.35 21.4414V18.4414C8.69 18.4414 7.35 19.7814 7.35 21.4414H10.35ZM10.35 28.8014V31.8014C12.01 31.8014 13.35 30.4614 13.35 28.8014H10.35ZM6 28.8014H3C3 30.4614 4.34 31.8014 6 31.8014V28.8014ZM6 11.7714V8.77144C4.34 8.77144 3 10.1114 3 11.7714H6ZM10.35 11.7714H13.35C13.35 10.1114 12.01 8.77144 10.35 8.77144V11.7714ZM10.35 19.4314H7.35C7.35 21.0914 8.69 22.4314 10.35 22.4314V19.4314ZM10.39 19.4314V22.4314C11.42 22.4314 12.38 21.9014 12.93 21.0214L10.39 19.4314ZM15.2 11.7714V8.77144C14.17 8.77144 13.21 9.30144 12.66 10.1814L15.2 11.7714ZM19.76 11.7714L22.26 13.4314C22.87 12.5114 22.93 11.3314 22.4 10.3514C21.88 9.38144 20.86 8.77144 19.76 8.77144V11.7714ZM14.12 20.2614L11.62 18.6014C10.94 19.6314 10.95 20.9714 11.66 21.9814L14.11 20.2614H14.12ZM20.12 28.8014V31.8014C21.24 31.8014 22.27 31.1814 22.78 30.1814C23.3 29.1914 23.22 27.9914 22.57 27.0714L20.12 28.7914V28.8014ZM17.58 27.2014L12.93 19.8414L7.86 23.0514L12.51 30.4114L17.58 27.2014ZM10.39 18.4414H10.35V24.4414H10.39V18.4414ZM7.35 21.4414V28.8014H13.35V21.4414H7.35ZM10.35 25.8014H6V31.8014H10.35V25.8014ZM9 28.8014V11.7714H3V28.8014H9ZM6 14.7714H10.35V8.77144H6V14.7714ZM7.35 11.7714V19.4314H13.35V11.7714H7.35ZM10.35 22.4314H10.39V16.4314H10.35V22.4314ZM12.93 21.0314L17.74 13.3714L12.66 10.1814L7.85 17.8414L12.93 21.0314ZM15.2 14.7714H19.76V8.77144H15.2V14.7714ZM17.26 10.1114L11.62 18.6014L16.62 21.9214L22.26 13.4314L17.26 10.1114ZM11.66 21.9914L17.66 30.5314L22.57 27.0814L16.57 18.5414L11.66 21.9914ZM20.12 25.8014H15.04V31.8014H20.12V25.8014ZM34.29 23.5814V26.5814C35.73 26.5814 36.96 25.5614 37.23 24.1514L34.29 23.5814ZM24.72 23.5814V20.5814C23.85 20.5814 23.02 20.9614 22.45 21.6214C21.88 22.2814 21.63 23.1614 21.75 24.0214L24.72 23.5814ZM30.03 24.8014V21.8014C29.12 21.8014 28.26 22.2114 27.69 22.9214L30.03 24.8014ZM33.94 24.8014L36.7 25.9814C37.1 25.0514 37 23.9914 36.45 23.1514C35.89 22.3114 34.95 21.8014 33.94 21.8014V24.8014ZM22.94 27.2314L25.07 25.1114C25.07 25.1114 25.07 25.1114 25.06 25.1014L22.94 27.2314ZM32.48 17.6414L34.66 15.5814L32.49 17.6414H32.48ZM30.56 21.0014V24.0014C31.47 24.0014 32.32 23.5914 32.89 22.8814C33.46 22.1714 33.68 21.2514 33.49 20.3614L30.56 20.9914V21.0014ZM24.77 21.0014L21.84 20.3714C21.65 21.2614 21.87 22.1814 22.44 22.8914C23.01 23.6014 23.87 24.0114 24.77 24.0114V21.0114V21.0014ZM31.59 12.2214L28.88 13.5114C29.58 14.9714 31.32 15.6214 32.8 14.9614L31.59 12.2214ZM30.52 9.96144L29.1 7.32144C27.69 8.08144 27.12 9.81144 27.81 11.2614L30.52 9.97144V9.96144ZM36.04 7.00144L38.78 5.78144C38.44 5.02144 37.8 4.43144 37.01 4.16144C36.22 3.89144 35.36 3.96144 34.62 4.36144L36.04 7.00144ZM37.25 9.72144L38.46 12.4614C39.19 12.1414 39.76 11.5414 40.05 10.7914C40.34 10.0514 40.31 9.22144 39.99 8.49144L37.25 9.71144V9.72144ZM28.76 14.0814L26.41 15.9414C26.98 16.6614 27.85 17.0814 28.76 17.0814V14.0814ZM27.71 12.7414L30.06 10.8814C29.49 10.1614 28.62 9.74144 27.71 9.74144C26.8 9.74144 25.92 10.1614 25.36 10.8814L27.71 12.7414ZM26.65 14.0814V17.0814C27.57 17.0814 28.44 16.6614 29 15.9414L26.65 14.0814ZM22.92 14.0814L20.74 12.0214C19.92 12.8914 19.7 14.1714 20.17 15.2714C20.64 16.3714 21.73 17.0814 22.92 17.0814V14.0814ZM26.52 10.2614V7.26144C25.69 7.26144 24.9 7.60144 24.34 8.20144L26.52 10.2614ZM29 10.2614L31.23 8.25144C30.66 7.62144 29.85 7.26144 29 7.26144V10.2614ZM32.45 14.0814V17.0814C33.64 17.0814 34.71 16.3814 35.19 15.3014C35.67 14.2214 35.47 12.9514 34.68 12.0714L32.45 14.0814ZM31.38 22.5714C31.38 22.7814 31.36 22.9214 31.35 23.0114L37.24 24.1614C37.34 23.6314 37.39 23.1014 37.39 22.5714H31.39H31.38ZM34.29 20.5814H24.72V26.5814H34.29V20.5814ZM21.75 24.0214C21.95 25.3614 22.53 26.7314 23.76 27.7214C24.96 28.6914 26.4 28.9914 27.71 28.9914V22.9914C27.5 22.9914 27.4 22.9614 27.38 22.9614C27.38 22.9614 27.38 22.9614 27.42 22.9814C27.45 23.0014 27.49 23.0214 27.54 23.0614C27.58 23.1014 27.62 23.1414 27.66 23.1814C27.69 23.2214 27.71 23.2514 27.72 23.2814C27.74 23.3214 27.72 23.2914 27.7 23.1514L21.77 24.0314L21.75 24.0214ZM27.71 28.9914C29.64 28.9914 31.24 28.0914 32.38 26.6814L27.7 22.9314C27.65 22.9914 27.62 23.0214 27.6 23.0314C27.59 23.0414 27.6 23.0314 27.61 23.0314C27.63 23.0214 27.66 23.0114 27.68 23.0014C27.71 23.0014 27.72 23.0014 27.71 23.0014V29.0014V28.9914ZM30.03 27.8014H33.94V21.8014H30.03V27.8014ZM31.18 23.6214C30.8 24.5014 30.3 25.1214 29.7 25.5614L33.27 30.3814C34.8 29.2514 35.93 27.7514 36.69 25.9814L31.18 23.6114V23.6214ZM29.72 25.5514C29.1 26.0114 28.46 26.2114 27.71 26.2114V32.2114C29.75 32.2114 31.63 31.5914 33.27 30.3814L29.72 25.5514ZM27.71 26.2114C26.65 26.2114 25.82 25.8714 25.06 25.1114L20.81 29.3414C22.69 31.2314 25.05 32.2114 27.71 32.2114V26.2114ZM25.05 25.1014C24.29 24.3414 23.95 23.5214 23.95 22.4514H17.95C17.95 25.1114 18.93 27.4714 20.82 29.3514L25.05 25.1014ZM23.95 22.4514C23.95 21.3514 24.3 20.5014 25.05 19.7214L20.74 15.5514C18.9 17.4514 17.95 19.8114 17.95 22.4514H23.95ZM25.05 19.7114C25.81 18.9214 26.61 18.5914 27.64 18.5914V12.5914C24.95 12.5914 22.59 13.6214 20.73 15.5514L25.05 19.7114ZM27.64 18.5914C28.78 18.5914 29.59 18.9514 30.31 19.7014L34.66 15.5714C32.78 13.5914 30.37 12.5914 27.65 12.5914V18.5914H27.64ZM30.3 19.6914C31.01 20.4414 31.38 21.3314 31.38 22.5614H37.38C37.38 19.8914 36.49 17.5014 34.66 15.5714L30.3 19.6914ZM33.49 20.3714C33.22 19.1114 32.59 17.8614 31.41 16.9714C30.26 16.1014 28.91 15.8214 27.66 15.8214V21.8214C27.84 21.8214 27.93 21.8414 27.93 21.8414C27.93 21.8414 27.87 21.8214 27.78 21.7614C27.74 21.7314 27.7 21.6914 27.67 21.6614C27.64 21.6214 27.62 21.5914 27.6 21.5714C27.57 21.5314 27.6 21.5414 27.62 21.6514L33.49 20.3914V20.3714ZM27.66 15.8114C26.42 15.8114 25.07 16.0914 23.91 16.9614C22.73 17.8514 22.1 19.1014 21.83 20.3614L27.7 21.6214C27.72 21.5114 27.74 21.5014 27.72 21.5414C27.71 21.5614 27.69 21.5914 27.65 21.6314C27.62 21.6714 27.58 21.7014 27.54 21.7314C27.45 21.8014 27.39 21.8114 27.39 21.8114C27.39 21.8114 27.48 21.7914 27.66 21.7914V15.7914V15.8114ZM24.77 24.0014H30.57V18.0014H24.77V24.0014ZM34.3 10.9314L33.22 8.67144L27.81 11.2614L28.89 13.5214L34.3 10.9314ZM31.93 12.6114L37.46 9.65144L34.62 4.36144L29.09 7.32144L31.93 12.6114ZM33.3 8.22144L34.51 10.9414L39.99 8.49144L38.78 5.77144L33.3 8.22144ZM36.04 6.97144L30.38 9.47144L32.81 14.9614L38.47 12.4614L36.04 6.97144ZM31.12 12.2214L30.06 10.8814L25.35 14.6014L26.41 15.9414L31.12 12.2214ZM25.35 10.8814L24.29 12.2214L29 15.9414L30.06 14.6014L25.35 10.8814ZM26.65 11.0814H22.92V17.0814H26.65V11.0814ZM25.11 16.1314L28.7 12.3114L24.33 8.20144L20.74 12.0214L25.11 16.1314ZM26.52 13.2614H29V7.26144H26.52V13.2614ZM26.77 12.2714L30.22 16.0914L34.67 12.0714L31.22 8.25144L26.77 12.2714ZM32.45 11.0814H28.77V17.0814H32.45V11.0814ZM41.08 18.9314V15.9314C39.42 15.9314 38.08 17.2714 38.08 18.9314H41.08ZM41.08 28.8014V31.8014C42.74 31.8014 44.08 30.4614 44.08 28.8014H41.08ZM37.27 28.8014H34.27C34.27 30.4614 35.61 31.8014 37.27 31.8014V28.8014ZM37.27 18.9314H40.27C40.27 17.2714 38.93 15.9314 37.27 15.9314V18.9314ZM35.38 18.9314H32.38C32.38 20.5914 33.72 21.9314 35.38 21.9314V18.9314ZM35.38 16.0314V13.0314C33.72 13.0314 32.38 14.3714 32.38 16.0314H35.38ZM37.27 16.0314V19.0314C38.93 19.0314 40.27 17.6914 40.27 16.0314H37.27ZM37.27 11.7714V8.77144C35.61 8.77144 34.27 10.1114 34.27 11.7714H37.27ZM41.08 11.7714H44.08C44.08 10.1114 42.74 8.77144 41.08 8.77144V11.7714ZM41.08 16.0314H38.08C38.08 17.6914 39.42 19.0314 41.08 19.0314V16.0314ZM42.93 16.0314H45.93C45.93 14.3714 44.59 13.0314 42.93 13.0314V16.0314ZM42.93 18.9314V21.9314C44.59 21.9314 45.93 20.5914 45.93 18.9314H42.93ZM38.08 18.9314V28.8014H44.08V18.9314H38.08ZM41.08 25.8014H37.26V31.8014H41.08V25.8014ZM40.27 28.8014V18.9314H34.27V28.8014H40.27ZM37.27 15.9314H35.38V21.9314H37.27V15.9314ZM38.38 18.9314V16.0314H32.38V18.9314H38.38ZM35.38 19.0314H37.27V13.0314H35.38V19.0314ZM40.27 16.0314V11.7714H34.27V16.0314H40.27ZM37.27 14.7714H41.09V8.77144H37.27V14.7714ZM38.08 11.7714V16.0314H44.08V11.7714H38.08ZM41.08 19.0314H42.92V13.0314H41.08V19.0314ZM39.93 16.0314V18.9314H45.93V16.0314H39.93ZM42.93 15.9314H41.09V21.9314H42.93V15.9314ZM69.95 29.1014L70.13 32.0914C71.71 31.9914 72.95 30.6814 72.95 29.1014H69.95ZM66.73 28.8514L67.58 25.9714C67.58 25.9714 67.57 25.9714 67.56 25.9714L66.73 28.8514ZM64.87 27.8114L67.04 25.7414C66.06 24.7114 64.49 24.5114 63.28 25.2614L64.87 27.8114ZM66.4 13.9414L64.35 16.1314L66.39 13.9414H66.4ZM67.72 25.0714L65.23 23.4014C64.4 24.6314 64.6 26.2814 65.69 27.2814L67.72 25.0714ZM69.95 25.6414H72.95C72.95 24.7614 72.57 23.9314 71.9 23.3614C71.23 22.7914 70.35 22.5414 69.49 22.6714L69.95 25.6314V25.6414ZM63.46 16.6514L65.62 14.5614L63.47 16.6514H63.46ZM56.95 16.5214L59.06 18.6514C59.06 18.6514 59.06 18.6514 59.07 18.6414L56.95 16.5214ZM55.46 19.5814L52.5 19.0714C52.31 20.1514 52.74 21.2514 53.6 21.9314C54.46 22.6114 55.63 22.7714 56.64 22.3314L55.46 19.5714V19.5814ZM56.64 19.1614L57.33 22.0814C57.33 22.0814 57.38 22.0714 57.4 22.0614L56.63 19.1614H56.64ZM61.42 20.0814L63.01 17.5314C63.01 17.5314 62.99 17.5314 62.99 17.5214L61.42 20.0814ZM64.2 22.5914L61.87 24.4814C62.49 25.2414 63.45 25.6514 64.43 25.5814C65.41 25.5014 66.29 24.9514 66.79 24.1014L64.2 22.5914ZM62.02 24.8914L63.45 27.5314C64.24 27.1014 64.8 26.3414 64.97 25.4514C65.14 24.5614 64.9 23.6514 64.32 22.9614L62.03 24.8914H62.02ZM61.06 23.8314L58.92 25.9314L58.94 25.9514L61.06 23.8314ZM60.03 22.9714L58.35 25.4614C58.35 25.4614 58.38 25.4814 58.39 25.4914L60.03 22.9814V22.9714ZM55.9 22.4514L54.9 19.6214C54.12 19.8914 53.49 20.4814 53.15 21.2414C52.82 22.0014 52.81 22.8614 53.13 23.6214L55.89 22.4514H55.9ZM69.76 26.1114C69.28 26.1414 69 26.1514 68.87 26.1514V32.1514C69.2 32.1514 69.64 32.1314 70.13 32.1014L69.76 26.1114ZM68.87 26.1514C68.36 26.1514 67.94 26.0914 67.59 25.9814L65.89 31.7314C66.85 32.0114 67.85 32.1414 68.87 32.1414V26.1414V26.1514ZM67.57 25.9714C67.13 25.8414 67.03 25.7214 67.04 25.7414L62.69 29.8814C63.59 30.8314 64.73 31.4014 65.89 31.7414L67.56 25.9814L67.57 25.9714ZM63.28 25.2614C62.35 25.8414 61.31 26.1414 60.08 26.1414V32.1414C62.37 32.1414 64.52 31.5514 66.45 30.3514L63.28 25.2614ZM60.09 26.1514C58.39 26.1514 57.03 25.6014 55.85 24.4614L51.69 28.7914C54.01 31.0214 56.87 32.1514 60.09 32.1514V26.1514ZM55.84 24.4514C54.65 23.3114 54.09 22.0114 54.09 20.3714H48.09C48.09 23.6514 49.32 26.5114 51.69 28.7814L55.84 24.4514ZM54.09 20.3814C54.09 18.6714 54.65 17.3314 55.81 16.1714L51.58 11.9214C49.27 14.2214 48.09 17.1014 48.09 20.3814H54.09ZM55.81 16.1714C56.96 15.0214 58.31 14.4614 60.04 14.4614V8.46144C56.77 8.46144 53.89 9.62144 51.58 11.9214L55.81 16.1714ZM60.04 14.4614C61.76 14.4614 63.14 15.0114 64.35 16.1414L68.44 11.7514C66.1 9.57144 63.25 8.46144 60.04 8.46144V14.4614ZM64.35 16.1414C65.57 17.2714 66.12 18.5514 66.12 20.1514H72.12C72.12 16.8514 70.85 13.9914 68.43 11.7414L64.34 16.1314L64.35 16.1414ZM66.13 20.1514C66.13 21.5214 65.8 22.5614 65.24 23.4014L70.22 26.7514C71.53 24.8014 72.13 22.5614 72.13 20.1614H66.13V20.1514ZM65.69 27.2814C67.07 28.5514 68.79 28.8614 70.41 28.6114L69.49 22.6814C69.35 22.7014 69.36 22.6814 69.46 22.7014C69.51 22.7114 69.57 22.7314 69.63 22.7714C69.69 22.8014 69.73 22.8414 69.77 22.8714L65.71 27.2814H65.69ZM66.95 25.6414V29.1014H72.95V25.6414H66.95ZM67.78 20.0814C67.78 18.0014 67.08 16.0814 65.61 14.5614L61.3 18.7314C61.59 19.0314 61.78 19.4114 61.78 20.0814H67.78ZM65.6 14.5514C64.1 13.0114 62.17 12.2714 60.06 12.2714V18.2714C60.69 18.2714 61.02 18.4514 61.3 18.7314L65.6 14.5414V14.5514ZM60.06 12.2814C58.07 12.2814 56.26 12.9814 54.83 14.4114L59.07 18.6514C59.3 18.4214 59.56 18.2814 60.06 18.2814V12.2814ZM54.84 14.3914C53.54 15.6714 52.8 17.3014 52.5 19.0714L58.41 20.0814C58.54 19.3214 58.8 18.9114 59.06 18.6514L54.84 14.3914ZM56.64 22.3414C57.03 22.1714 57.25 22.1014 57.33 22.0914L55.94 16.2514C55.39 16.3814 54.82 16.5914 54.27 16.8314L56.63 22.3414H56.64ZM57.4 22.0614C57.54 22.0214 57.69 22.0014 57.87 22.0014V16.0014C57.19 16.0014 56.53 16.0814 55.87 16.2614L57.4 22.0614ZM57.87 22.0114C58.43 22.0114 59.07 22.1714 59.85 22.6514L62.98 17.5314C61.41 16.5714 59.69 16.0114 57.87 16.0114V22.0114ZM59.83 22.6314C60.51 23.0514 61.19 23.6514 61.87 24.4814L66.52 20.6914C65.49 19.4214 64.32 18.3614 63.01 17.5314L59.83 22.6214V22.6314ZM66.79 24.1014C67.52 22.8614 67.78 21.4614 67.78 20.0814H61.78C61.78 20.7114 61.66 20.9814 61.61 21.0714L66.79 24.1014ZM64.31 22.9614C63.92 22.4914 63.54 22.0714 63.18 21.7214L58.94 25.9614C59.14 26.1614 59.4 26.4414 59.72 26.8314L64.31 22.9714V22.9614ZM63.21 21.7414C62.74 21.2614 62.23 20.8314 61.67 20.4614L58.39 25.4914C58.52 25.5714 58.7 25.7214 58.92 25.9414L63.21 21.7414ZM61.71 20.4814C60.42 19.6114 58.96 19.1714 57.41 19.1714V25.1714C57.78 25.1714 58.06 25.2614 58.35 25.4514L61.71 20.4814ZM57.41 19.1714C56.54 19.1714 55.69 19.3414 54.9 19.6214L56.89 25.2814C57.16 25.1914 57.32 25.1714 57.41 25.1714V19.1714ZM53.13 23.6214C53.7 24.9814 54.57 26.2014 55.83 27.0714C57.1 27.9514 58.56 28.3214 60.04 28.3214V22.3214C59.57 22.3214 59.36 22.2114 59.25 22.1414C59.13 22.0514 58.9 21.8414 58.66 21.2814L53.13 23.6114V23.6214ZM60.04 28.3314C61.19 28.3314 62.36 28.1214 63.45 27.5314L60.59 22.2514C60.59 22.2514 60.56 22.2714 60.47 22.2914C60.38 22.3114 60.24 22.3314 60.04 22.3314V28.3314ZM79.8 28.8014H76.8C76.8 30.4614 78.14 31.8014 79.8 31.8014V28.8014ZM79.8 27.4414H82.8C82.8 25.7814 81.46 24.4414 79.8 24.4414V27.4414ZM79.75 27.4414V24.4414C78.6 24.4414 77.55 25.1014 77.05 26.1414L79.75 27.4414ZM72.69 27.6114L70.35 29.4814C70.35 29.4814 70.36 29.5014 70.37 29.5114L72.69 27.6114ZM71.73 25.7414L74.64 25.0314C74.64 25.0314 74.64 25.0014 74.63 24.9814L71.73 25.7414ZM71.54 16.0314V13.0314C69.88 13.0314 68.54 14.3714 68.54 16.0314H71.54ZM75.36 16.0314H78.36C78.36 14.3714 77.02 13.0314 75.36 13.0314V16.0314ZM75.74 24.9114L78.26 23.2814C78.26 23.2814 78.26 23.2814 78.26 23.2714L75.75 24.9114H75.74ZM79.59 16.0314V13.0314C77.93 13.0314 76.59 14.3714 76.59 16.0314H79.59ZM83.41 16.0314H86.41C86.41 14.3714 85.07 13.0314 83.41 13.0314V16.0314ZM83.41 28.8014V31.8014C85.07 31.8014 86.41 30.4614 86.41 28.8014H83.41ZM82.8 28.8014V27.4414H76.8V28.8014H82.8ZM79.8 24.4414H79.76V30.4414H79.8V24.4414ZM77.05 26.1414C77.05 26.1414 77.02 26.1914 77.02 26.2014C77.02 26.2014 77.04 26.1814 77.06 26.1714C77.07 26.1614 77.09 26.1514 77.09 26.1514L79.66 31.5714C80.93 30.9614 81.86 29.9714 82.44 28.7614L77.04 26.1514L77.05 26.1414ZM77.09 26.1414C77.09 26.1414 76.92 26.2214 76.44 26.2214V32.2214C77.51 32.2214 78.64 32.0514 79.68 31.5614L77.09 26.1514V26.1414ZM76.44 26.2114C75.54 26.2114 75.21 25.9514 75.01 25.7014L70.37 29.5014C71.92 31.3914 74.09 32.2114 76.44 32.2114V26.2114ZM75.03 25.7314C74.78 25.4214 74.69 25.1914 74.65 25.0314L68.82 26.4514C69.1 27.5814 69.64 28.5914 70.35 29.4814L75.04 25.7314H75.03ZM74.63 24.9814C74.6 24.8614 74.54 24.4714 74.54 23.6614H68.54C68.54 24.6514 68.6 25.6414 68.83 26.5014L74.63 24.9814ZM74.54 23.6714V16.0314H68.54V23.6714H74.54ZM71.54 19.0314H75.36V13.0314H71.54V19.0314ZM72.36 16.0314V23.0914H78.36V16.0314H72.36ZM72.36 23.0914C72.36 24.1014 72.49 25.4314 73.23 26.5514L78.25 23.2714C78.32 23.3714 78.36 23.4614 78.37 23.5014C78.39 23.5514 78.39 23.5614 78.39 23.5414C78.39 23.5214 78.38 23.4714 78.37 23.3914C78.37 23.3114 78.36 23.2114 78.36 23.0814H72.36V23.0914ZM73.22 26.5414C74.28 28.1814 76.01 28.6414 77.4 28.6414V22.6414C77.3 22.6414 77.4 22.6214 77.6 22.7114C77.84 22.8114 78.09 23.0114 78.26 23.2814L73.22 26.5414ZM77.4 28.6414C78.74 28.6414 80.24 28.2214 81.33 26.9314C82.34 25.7314 82.59 24.2614 82.59 23.0514H76.59C76.59 23.2814 76.56 23.3814 76.57 23.3714C76.57 23.3614 76.61 23.2314 76.75 23.0614C76.9 22.8814 77.09 22.7614 77.26 22.6914C77.41 22.6314 77.48 22.6414 77.4 22.6414V28.6414ZM82.59 23.0514V16.0314H76.59V23.0514H82.59ZM79.59 19.0314H83.41V13.0314H79.59V19.0314ZM80.41 16.0314V28.8014H86.41V16.0314H80.41ZM83.41 25.8014H79.79V31.8014H83.41V25.8014ZM95.75 28.8014H92.75C92.75 30.4614 94.09 31.8014 95.75 31.8014V28.8014ZM95.75 27.4214H98.75C98.75 25.7614 97.41 24.4214 95.75 24.4214V27.4214ZM95.71 27.4214V24.4214C94.59 24.4214 93.57 25.0414 93.05 26.0314L95.71 27.4214ZM87.3 27.2514L85.06 29.2514C85.06 29.2514 85.06 29.2514 85.06 29.2614L87.29 27.2514H87.3ZM94.09 16.0214L92.88 18.7614H92.89L94.09 16.0214ZM95.71 17.3914L93.14 18.9314C93.68 19.8314 94.66 20.3914 95.71 20.3914V17.3914ZM95.75 17.3914V20.3914C97.41 20.3914 98.75 19.0514 98.75 17.3914H95.75ZM95.75 16.0314V13.0314C94.09 13.0314 92.75 14.3714 92.75 16.0314H95.75ZM99.57 16.0314H102.57C102.57 14.3714 101.23 13.0314 99.57 13.0314V16.0314ZM99.57 28.8014V31.8014C101.23 31.8014 102.57 30.4614 102.57 28.8014H99.57ZM90.26 20.1314L92.45 22.1814C92.45 22.1814 92.45 22.1814 92.46 22.1714L90.26 20.1314ZM90.3 24.7214L88.15 26.8214C88.15 26.8214 88.15 26.8214 88.16 26.8314L90.29 24.7214H90.3ZM94.86 24.7314L97.01 26.8314C97.01 26.8314 97.01 26.8314 97.02 26.8214L94.86 24.7414V24.7314ZM95.21 12.1014L97.75 13.7014C97.75 13.7014 97.78 13.6614 97.79 13.6314L95.21 12.0914V12.1014ZM94.89 12.5414L97.15 14.5214C97.15 14.5214 97.17 14.5014 97.18 14.4914L94.89 12.5514V12.5414ZM94.51 12.9314L96.53 15.1414C96.53 15.1414 96.56 15.1114 96.57 15.1014L94.5 12.9214L94.51 12.9314ZM94.11 13.2914L92.09 11.0814C92.09 11.0814 92.06 11.1014 92.05 11.1214L94.11 13.3014V13.2914ZM93.78 13.6414L96.03 15.6314C96.03 15.6314 96.06 15.6014 96.07 15.5814L93.78 13.6414ZM93.4 14.4014V17.4014C94.95 17.4014 96.25 16.2214 96.39 14.6714L93.4 14.4014ZM91.44 14.4014L88.44 14.3314C88.42 15.1414 88.73 15.9214 89.3 16.4914C89.86 17.0714 90.64 17.3914 91.44 17.3914V14.3914V14.4014ZM91.76 13.3914L89.24 11.7614C89.24 11.7614 89.21 11.8014 89.2 11.8214L91.76 13.3914ZM92.07 12.9914L94.31 14.9914C94.31 14.9914 94.34 14.9614 94.35 14.9414L92.07 12.9914ZM92.77 12.2714L94.89 14.3914C94.89 14.3914 94.93 14.3514 94.95 14.3314L92.77 12.2714ZM93.08 11.9214L95.37 13.8614C95.37 13.8614 95.43 13.7814 95.46 13.7414L93.08 11.9214ZM92.08 10.8314L94.71 12.2814C94.71 12.2814 94.72 12.2614 94.73 12.2514L92.08 10.8414V10.8314ZM91.95 11.5714V14.5714C93.58 14.5714 94.91 13.2714 94.95 11.6414L91.95 11.5714ZM89.89 11.5714H86.89C86.89 13.2314 88.23 14.5714 89.89 14.5714V11.5714ZM89.88 11.4714H86.88C86.88 11.6714 86.9 11.8614 86.94 12.0614L89.88 11.4714ZM90.75 9.34144L88.74 7.12144C88.74 7.12144 88.73 7.13144 88.72 7.14144L90.75 9.35144V9.34144ZM95.26 9.92144L92.6 11.3114C92.6 11.3114 92.6 11.3214 92.6 11.3314L95.25 9.92144H95.26ZM98.75 28.8014V27.4214H92.75V28.8014H98.75ZM95.75 24.4214H95.71V30.4214H95.75V24.4214ZM93.05 26.0214C93.05 26.0214 93.06 26.0014 93.07 25.9814C93.07 25.9714 93.09 25.9614 93.09 25.9614C93.09 25.9614 93.04 26.0014 92.92 26.0614L95.29 31.5714C96.55 31.0314 97.67 30.1314 98.37 28.8014L93.06 26.0114L93.05 26.0214ZM92.92 26.0714C92.69 26.1714 92.39 26.2414 91.98 26.2414V32.2414C93.12 32.2414 94.23 32.0314 95.29 31.5814L92.92 26.0714ZM91.98 26.2414C90.83 26.2414 90.1 25.8814 89.52 25.2414L85.07 29.2614C86.88 31.2714 89.28 32.2414 91.98 32.2414V26.2414ZM89.53 25.2514C88.93 24.5814 88.57 23.7114 88.57 22.4114H82.57C82.57 24.9914 83.36 27.3514 85.06 29.2514L89.53 25.2514ZM88.57 22.4114C88.57 21.1714 88.93 20.3114 89.55 19.6214L85.11 15.5914C83.39 17.4914 82.57 19.8314 82.57 22.4114H88.57ZM89.55 19.6214C90.18 18.9314 90.91 18.5914 91.98 18.5914V12.5914C89.29 12.5914 86.92 13.5914 85.11 15.5814L89.55 19.6214ZM91.98 18.5914C92.36 18.5914 92.65 18.6614 92.88 18.7614L95.3 13.2714C94.24 12.8014 93.12 12.5914 91.98 12.5914V18.5914ZM92.89 18.7714C93.11 18.8714 93.14 18.9414 93.14 18.9414L98.29 15.8514C97.57 14.6514 96.52 13.8114 95.3 13.2714L92.9 18.7714H92.89ZM95.71 20.3914H95.75V14.3914H95.71V20.3914ZM98.75 17.3914V16.0314H92.75V17.3914H98.75ZM95.75 19.0314H99.57V13.0314H95.75V19.0314ZM96.57 16.0314V28.8014H102.57V16.0314H96.57ZM99.57 25.8014H95.75V31.8014H99.57V25.8014ZM98.75 22.4114C98.75 20.7614 98.19 19.2014 96.97 17.9814L92.7 22.2014L92.72 22.2314C92.72 22.2314 92.72 22.2414 92.73 22.2714C92.73 22.3014 92.74 22.3514 92.74 22.4214H98.74L98.75 22.4114ZM96.98 17.9814C95.76 16.7514 94.21 16.1714 92.54 16.1714V22.1714C92.67 22.1714 92.71 22.1914 92.7 22.1914C92.7 22.1914 92.7 22.1914 92.69 22.1914C92.69 22.1914 92.69 22.1914 92.71 22.2114L96.98 17.9914V17.9814ZM92.54 16.1614C90.83 16.1614 89.26 16.8014 88.06 18.0814L92.45 22.1714C92.45 22.1714 92.48 22.1514 92.47 22.1514C92.47 22.1514 92.45 22.1614 92.44 22.1714C92.43 22.1714 92.42 22.1714 92.44 22.1714C92.45 22.1714 92.48 22.1714 92.54 22.1714V16.1714V16.1614ZM88.08 18.0714C86.92 19.3014 86.39 20.8314 86.39 22.4514H92.39C92.39 22.3014 92.41 22.2414 92.42 22.2314C92.42 22.2314 92.42 22.2214 92.42 22.2114C92.42 22.2114 92.43 22.1914 92.45 22.1814L88.08 18.0714ZM86.39 22.4514C86.39 24.1014 86.98 25.6214 88.15 26.8114L92.44 22.6214C92.44 22.6214 92.4 22.5814 92.4 22.5714C92.4 22.5714 92.4 22.5714 92.4 22.5514C92.4 22.5314 92.4 22.5014 92.4 22.4514H86.4H86.39ZM88.16 26.8314C89.35 28.0314 90.88 28.6614 92.56 28.6614V22.6614C92.56 22.6614 92.49 22.6614 92.48 22.6614C92.48 22.6614 92.46 22.6414 92.43 22.6114L88.16 26.8314ZM92.56 28.6714C94.23 28.6714 95.79 28.0714 97 26.8314L92.71 22.6414C92.71 22.6414 92.68 22.6614 92.69 22.6614C92.69 22.6614 92.69 22.6614 92.7 22.6614C92.7 22.6614 92.7 22.6614 92.68 22.6614C92.66 22.6614 92.62 22.6614 92.56 22.6614V28.6614V28.6714ZM97.02 26.8114C98.2 25.5814 98.76 24.0414 98.76 22.4014H92.76C92.76 22.5414 92.74 22.5914 92.74 22.6014C92.74 22.6014 92.74 22.6014 92.74 22.6114C92.74 22.6114 92.73 22.6314 92.71 22.6514L97.03 26.8114H97.02ZM92.53 10.9514C92.53 10.9014 92.53 10.8314 92.56 10.7514C92.58 10.6714 92.61 10.6114 92.64 10.5614L97.79 13.6314C98.28 12.8114 98.53 11.9014 98.53 10.9514H92.53ZM92.68 10.5014C92.68 10.5014 92.66 10.5414 92.61 10.6014L97.18 14.4914C97.38 14.2514 97.58 13.9914 97.76 13.7114L92.69 10.5114L92.68 10.5014ZM92.63 10.5614C92.63 10.5614 92.54 10.6614 92.44 10.7514L96.57 15.1014C96.77 14.9114 96.96 14.7114 97.14 14.5114L92.62 10.5614H92.63ZM92.48 10.7214L92.09 11.0814L96.14 15.5114L96.53 15.1514L92.48 10.7214ZM92.05 11.1114C91.87 11.2914 91.67 11.4814 91.49 11.7014L96.07 15.5814C96.07 15.5814 96.07 15.5914 96.08 15.5714C96.1 15.5514 96.13 15.5214 96.18 15.4714L92.05 11.1114ZM91.53 11.6514C91.04 12.2014 90.51 13.0314 90.41 14.1314L96.39 14.6714C96.34 15.2714 96.05 15.6014 96.03 15.6214L91.54 11.6414L91.53 11.6514ZM93.4 11.4014H91.45V17.4014H93.4V11.4014ZM94.44 14.4714C94.44 14.5814 94.42 14.6914 94.39 14.7914C94.36 14.8814 94.33 14.9414 94.31 14.9714L89.2 11.8314C88.75 12.5614 88.46 13.4114 88.44 14.3414L94.44 14.4714ZM94.27 15.0214C94.27 15.0214 94.25 15.0414 94.26 15.0414C94.26 15.0414 94.28 15.0214 94.3 14.9914L89.83 10.9914C89.62 11.2214 89.42 11.4814 89.23 11.7614L94.27 15.0214ZM94.35 14.9414C94.35 14.9414 94.43 14.8514 94.54 14.7414L90.3 10.5014C90.13 10.6714 89.95 10.8614 89.8 11.0414L94.36 14.9414H94.35ZM94.54 14.7414L94.89 14.3914L90.65 10.1514L90.3 10.5014L94.54 14.7414ZM94.95 14.3314C95.1 14.1714 95.24 14.0114 95.37 13.8614L90.79 9.98144C90.79 9.98144 90.69 10.0914 90.58 10.2114L94.94 14.3314H94.95ZM95.46 13.7414C95.9 13.1614 96.37 12.2914 96.37 11.1914H90.37C90.37 10.5514 90.64 10.1714 90.69 10.1014L95.46 13.7414ZM96.37 11.1914C96.37 10.5414 96.22 9.50144 95.4 8.62144C94.54 7.70144 93.45 7.50144 92.72 7.50144V13.5014C92.42 13.5014 91.66 13.4114 91.02 12.7214C90.41 12.0714 90.37 11.3814 90.37 11.1914H96.37ZM92.72 7.49144C91.58 7.49144 90.19 7.99144 89.43 9.42144L94.72 12.2414C94.51 12.6314 94.18 12.9914 93.72 13.2314C93.29 13.4514 92.92 13.4914 92.71 13.4914V7.49144H92.72ZM89.45 9.38144C89 10.2014 88.95 11.0714 88.94 11.5014L94.94 11.6314C94.94 11.5614 94.94 11.5814 94.94 11.6614C94.94 11.7014 94.92 11.7814 94.89 11.8714C94.86 11.9714 94.81 12.1114 94.72 12.2714L89.46 9.38144H89.45ZM91.95 8.57144H89.89V14.5714H91.95V8.57144ZM92.89 11.5714C92.89 11.3014 92.86 11.0614 92.82 10.8814L86.94 12.0614C86.92 11.9514 86.89 11.7914 86.89 11.5714H92.89ZM92.88 11.4714V11.3714H86.88V11.4714H92.88ZM92.88 11.3714C92.88 11.3714 92.88 11.3314 92.88 11.3514C92.88 11.3614 92.88 11.3914 92.86 11.4214C92.85 11.4514 92.83 11.4814 92.81 11.5114C92.79 11.5314 92.78 11.5514 92.78 11.5414L88.71 7.13144C87.48 8.26144 86.88 9.75144 86.88 11.3714H92.88ZM92.76 11.5614C92.76 11.5614 92.76 11.5614 92.75 11.5614C92.74 11.5614 92.73 11.5714 92.72 11.5714C92.72 11.5714 92.72 11.5714 92.73 11.5714C92.75 11.5714 92.78 11.5714 92.83 11.5714V5.57144C91.33 5.57144 89.89 6.05144 88.73 7.11144L92.76 11.5614ZM92.83 11.5714C93.01 11.5714 92.97 11.6014 92.83 11.5314C92.76 11.4914 92.7 11.4514 92.66 11.3914C92.61 11.3414 92.59 11.3114 92.6 11.3114L97.91 8.52144C97.43 7.61144 96.71 6.82144 95.75 6.28144C94.81 5.76144 93.79 5.57144 92.83 5.57144V11.5714ZM92.61 11.3314C92.61 11.3314 92.57 11.2614 92.56 11.1914C92.54 11.1214 92.53 11.0414 92.53 10.9614H98.53C98.53 10.0714 98.3 9.25144 97.91 8.52144L92.62 11.3414L92.61 11.3314Z" fill="url(#paint0_linear_3812_15290)"/>
</g>
<g filter="url(#filter1_d_3812_15290)">
<path d="M15.04 28.8L10.39 21.44H10.35V28.8H6V11.77H10.35V19.43H10.39L15.2 11.77H19.76L14.12 20.26L20.12 28.8H15.04ZM34.38 22.57C34.38 22.94 34.35 23.27 34.29 23.58H24.72C24.96 25.19 25.96 25.99 27.71 25.99C28.62 25.99 29.4 25.59 30.03 24.8H33.94C33.37 26.13 32.55 27.18 31.49 27.97C30.36 28.8 29.1 29.22 27.71 29.22C25.85 29.22 24.25 28.56 22.94 27.23C21.61 25.91 20.95 24.32 20.95 22.46C20.95 20.6 21.6 18.98 22.89 17.64C24.2 16.28 25.78 15.6 27.64 15.6C29.5 15.6 31.19 16.28 32.48 17.64C33.75 18.98 34.38 20.62 34.38 22.57ZM30.56 21C30.25 19.54 29.28 18.81 27.66 18.81C26.04 18.81 25.08 19.54 24.76 21H30.56ZM31.59 12.22L30.51 9.96L36.04 7L37.25 9.72L31.59 12.22ZM28.76 14.08L27.7 12.74L26.64 14.08H22.91L26.5 10.26H28.98L32.43 14.08H28.75H28.76ZM41.08 18.93V28.8H37.26V18.93H35.37V16.03H37.26V11.77H41.08V16.03H42.92V18.93H41.08ZM69.95 29.1C69.46 29.13 69.1 29.14 68.87 29.14C68.11 29.14 67.4 29.04 66.74 28.85C65.94 28.62 65.32 28.27 64.88 27.81C63.45 28.7 61.86 29.15 60.1 29.15C57.64 29.15 55.53 28.31 53.78 26.62C52 24.91 51.11 22.83 51.11 20.38C51.11 17.93 51.98 15.78 53.72 14.05C55.45 12.33 57.56 11.47 60.07 11.47C62.58 11.47 64.65 12.3 66.43 13.95C68.25 15.64 69.16 17.71 69.16 20.16C69.16 22.05 68.69 23.69 67.76 25.08C68.33 25.6 69.07 25.8 69.98 25.65V29.11L69.95 29.1ZM64.78 20.08C64.78 18.7 64.34 17.56 63.45 16.64C62.56 15.73 61.43 15.27 60.06 15.27C58.82 15.27 57.78 15.69 56.95 16.52C56.17 17.29 55.67 18.31 55.46 19.57C55.93 19.37 56.32 19.23 56.64 19.15C57.04 19.05 57.45 18.99 57.88 18.99C59.07 18.99 60.25 19.35 61.43 20.07C62.43 20.69 63.35 21.53 64.2 22.57C64.59 21.9 64.78 21.07 64.78 20.07V20.08ZM62.02 24.89C61.66 24.46 61.34 24.11 61.07 23.83C60.73 23.48 60.38 23.19 60.04 22.97C59.25 22.44 58.38 22.17 57.42 22.17C56.94 22.17 56.44 22.26 55.9 22.45C56.71 24.37 58.09 25.33 60.04 25.33C60.82 25.33 61.48 25.18 62.02 24.89ZM79.8 28.8V27.44H79.76C79.45 28.09 78.99 28.56 78.39 28.84C77.87 29.09 77.23 29.21 76.45 29.21C74.83 29.21 73.57 28.67 72.7 27.6C72.22 27 71.9 26.38 71.75 25.74C71.62 25.25 71.56 24.56 71.56 23.66V16.02H75.38V23.08C75.38 23.9 75.51 24.51 75.76 24.9C76.07 25.39 76.63 25.63 77.42 25.63C78.88 25.63 79.61 24.77 79.61 23.04V16.02H83.43V28.79H79.81L79.8 28.8ZM95.75 28.8V27.42H95.71C95.39 28.03 94.85 28.5 94.1 28.82C93.46 29.1 92.75 29.24 91.98 29.24C90.06 29.24 88.49 28.58 87.3 27.25C86.15 25.96 85.57 24.35 85.57 22.41C85.57 20.47 86.16 18.9 87.33 17.6C88.55 16.26 90.1 15.59 91.98 15.59C92.74 15.59 93.45 15.73 94.09 16.02C94.81 16.33 95.35 16.79 95.71 17.39H95.75V16.03H99.57V28.8H95.75ZM95.75 22.41C95.75 21.47 95.45 20.7 94.84 20.09C94.23 19.48 93.47 19.17 92.54 19.17C91.61 19.17 90.86 19.49 90.26 20.14C89.68 20.76 89.38 21.54 89.38 22.46C89.38 23.38 89.68 24.11 90.29 24.73C90.91 25.36 91.67 25.67 92.56 25.67C93.45 25.67 94.24 25.36 94.85 24.74C95.45 24.12 95.75 23.34 95.75 22.42V22.41ZM95.53 10.95C95.53 11.36 95.43 11.74 95.22 12.1C95.13 12.24 95.02 12.39 94.89 12.54C94.79 12.66 94.66 12.79 94.51 12.93L94.12 13.29C93.98 13.42 93.87 13.54 93.78 13.64C93.55 13.9 93.42 14.16 93.4 14.4H91.45C91.45 14.06 91.56 13.72 91.76 13.39C91.84 13.26 91.95 13.13 92.07 12.99C92.16 12.89 92.28 12.76 92.42 12.62L92.77 12.27C92.9 12.14 93 12.02 93.08 11.92C93.27 11.67 93.37 11.42 93.37 11.19C93.37 10.73 93.15 10.49 92.72 10.49C92.41 10.49 92.2 10.6 92.08 10.83C92 10.98 91.95 11.23 91.95 11.57H89.89C89.89 11.57 89.89 11.51 89.88 11.47V11.37C89.88 10.55 90.17 9.87 90.74 9.34C91.3 8.83 92 8.58 92.83 8.58C93.98 8.58 94.78 9.03 95.26 9.93C95.44 10.27 95.53 10.61 95.53 10.96V10.95Z" fill="#F2FBFF"/>
</g>
<defs>
<filter id="filter0_d_3812_15290" x="1" y="3" width="103.57" height="32.2414" filterUnits="userSpaceOnUse" color-interpolation-filters="sRGB">
<feFlood flood-opacity="0" result="BackgroundImageFix"/>
<feColorMatrix in="SourceAlpha" type="matrix" values="0 0 0 0 0 0 0 0 0 0 0 0 0 0 0 0 0 0 127 0" result="hardAlpha"/>
<feOffset dy="1"/>
<feGaussianBlur stdDeviation="1"/>
<feComposite in2="hardAlpha" operator="out"/>
<feColorMatrix type="matrix" values="0 0 0 0 0.0235294 0 0 0 0 0.2 0 0 0 0 0.215686 0 0 0 1 0"/>
<feBlend mode="normal" in2="BackgroundImageFix" result="effect1_dropShadow_3812_15290"/>
<feBlend mode="normal" in="SourceGraphic" in2="effect1_dropShadow_3812_15290" result="shape"/>
</filter>
<filter id="filter1_d_3812_15290" x="6" y="7" width="94.8698" height="23.54" filterUnits="userSpaceOnUse" color-interpolation-filters="sRGB">
<feFlood flood-opacity="0" result="BackgroundImageFix"/>
<feColorMatrix in="SourceAlpha" type="matrix" values="0 0 0 0 0 0 0 0 0 0 0 0 0 0 0 0 0 0 127 0" result="hardAlpha"/>
<feOffset dx="1" dy="1"/>
<feGaussianBlur stdDeviation="0.15"/>
<feComposite in2="hardAlpha" operator="out"/>
<feColorMatrix type="matrix" values="0 0 0 0 0.113725 0 0 0 0 0.345098 0 0 0 0 0.4 0 0 0 1 0"/>
<feBlend mode="normal" in2="BackgroundImageFix" result="effect1_dropShadow_3812_15290"/>
<feBlend mode="normal" in="SourceGraphic" in2="effect1_dropShadow_3812_15290" result="shape"/>
</filter>
<linearGradient id="paint0_linear_3812_15290" x1="55.61" y1="39.7414" x2="49.67" y2="3.32144" gradientUnits="userSpaceOnUse">
<stop stop-color="#1D5666"/>
<stop offset="1" stop-color="#5FDABC"/>
</linearGradient>
</defs>
</svg>
