<svg width="52" height="46" viewBox="0 0 52 46" fill="none" xmlns="http://www.w3.org/2000/svg">
<g opacity="0.5">
<path d="M37.2456 39.3103C40.2355 38.7643 42.9367 36.7884 44.48 34.1611C44.885 33.5166 45.1787 32.8199 45.427 32.1241C45.5216 31.7694 45.6498 31.4205 45.698 31.0647C45.7256 30.8883 45.7788 30.7109 45.7877 30.5355L45.8311 30.0103C45.8557 29.8339 45.8252 29.6673 45.8281 29.4959C45.8242 29.3263 45.8262 29.1608 45.7966 28.9597C45.7601 28.5734 45.7 28.196 45.632 27.8245C45.4891 27.0824 45.2772 26.3719 44.9836 25.7224C44.4011 24.4177 43.4955 23.376 42.31 22.6645C42.0114 22.4891 41.7058 22.3215 41.3767 22.1836C41.218 22.1057 41.0505 22.0436 40.882 21.9835C40.7214 21.9195 40.5331 21.8623 40.3508 21.8032C39.6097 21.5686 38.777 21.3597 37.9039 21.1005C37.0288 20.8374 36.1004 20.5339 35.1416 20.0254L34.7828 19.8303C34.6626 19.7573 34.5424 19.6745 34.4232 19.5957L34.0664 19.3523L33.7185 19.0576C33.6042 18.9561 33.4869 18.8625 33.3776 18.7512L33.0592 18.3954C32.8405 18.1658 32.6641 17.8908 32.4916 17.6129C32.3044 17.3419 32.1861 17.0413 32.059 16.7427C31.9181 16.4432 31.853 16.1416 31.7771 15.8381C31.6116 15.2359 31.5731 14.5855 31.6106 13.9666C31.6914 12.719 32.1181 11.5039 32.8828 10.4692L32.9144 10.4268C33.6003 9.49847 34.909 9.30236 35.8363 9.98924C36.7647 10.6751 36.9608 11.9839 36.2739 12.9112C36.2522 12.9408 36.2246 12.9752 36.2019 13.0028C35.9221 13.3409 35.726 13.807 35.6747 14.2781C35.652 14.5156 35.6451 14.7422 35.7092 14.9708C35.7348 15.0852 35.7407 15.2123 35.793 15.302C35.8334 15.3995 35.8521 15.5119 35.9191 15.5937C36.1113 15.9573 36.469 16.3072 37.0258 16.6343C37.5767 16.9595 38.2813 17.2384 39.047 17.4976C39.8157 17.7598 40.6484 18.0012 41.5403 18.3205C41.9788 18.4792 42.4647 18.6654 42.915 18.895C43.3723 19.1109 43.8168 19.372 44.2484 19.6529C45.1097 20.2215 45.9001 20.932 46.5534 21.746C47.2088 22.56 47.7252 23.4706 48.1016 24.4078C48.481 25.347 48.7225 26.3118 48.8683 27.2677C48.9383 27.7456 48.9935 28.2236 49.0201 28.6966C49.0437 28.9243 49.0398 29.1904 49.0368 29.4515C49.027 29.7107 49.0467 29.9768 49.0083 30.2281L48.9146 30.9879C48.8851 31.2421 48.8122 31.4806 48.7619 31.727C48.6663 32.2237 48.4889 32.6839 48.3352 33.154C47.9745 34.0675 47.5498 34.9485 47.0087 35.7477C45.9562 37.3629 44.5933 38.7564 42.986 39.8089C41.3885 40.8673 39.5191 41.6192 37.6072 41.8883C36.8997 41.9878 36.2798 41.4734 36.1803 40.7658C36.0837 40.077 36.5478 39.4384 37.2259 39.3132L37.2466 39.3093L37.2456 39.3103Z" fill="white"/>
<path d="M19.3717 9.81273C20.453 9.4209 20.9155 7.96086 20.4048 6.55163C19.8941 5.1424 18.6036 4.31763 17.5224 4.70946C16.4411 5.10128 15.9786 6.56133 16.4893 7.97056C17 9.37978 18.2905 10.2046 19.3717 9.81273Z" fill="white"/>
<path d="M17.5598 10.4403C18.4939 9.76954 18.5425 8.23876 17.6682 7.02121C16.794 5.80367 15.328 5.36042 14.3938 6.03119C13.4597 6.70195 13.4111 8.23273 14.2854 9.45027C15.1596 10.6678 16.6256 11.1111 17.5598 10.4403Z" fill="#1D8E7C"/>
<path d="M26.2969 13.0605C26.2969 16.6644 23.6371 17.1848 20.0332 17.1848C16.4292 17.1848 13.2471 16.6644 13.2471 13.0605C13.2471 9.45662 16.1681 6.53565 19.772 6.53565C23.3759 6.53565 26.2969 9.45662 26.2969 13.0605Z" fill="white"/>
<path d="M20.0331 18.4709L28.4678 18.4049L28.592 13.5258L24.5121 8.57965L20.0331 18.4709Z" fill="white"/>
<path d="M16.9123 10.2834C17.8465 9.61262 17.895 8.08184 17.0208 6.8643C16.1465 5.64675 14.6805 5.2035 13.7464 5.87427C12.8122 6.54503 12.7637 8.07581 13.6379 9.29336C14.5122 10.5109 15.9782 10.9542 16.9123 10.2834Z" fill="white"/>
<path d="M44.3952 33.0568L44.4395 33.9024C44.4395 33.6176 44.4238 33.3357 44.3952 33.0568Z" fill="white"/>
<path d="M14.3281 26.4509C12.1512 26.1661 9.99793 25.7956 7.88605 25.295C8.38766 30.4057 8.51478 34.9921 6.02447 39.4002C4.27032 39.4209 3.09069 40.7128 3.00003 42.0008H9.10706C10.2798 42.0008 11.3372 41.2943 11.7807 40.2083C12.8135 37.6766 14.5991 32.6851 14.3272 26.4509H14.3281Z" fill="white"/>
<path d="M19.7631 26.4509C17.5862 26.1661 14.2967 28.0217 12.1858 27.5211C12.6874 32.6318 13.7842 34.7634 11.7532 39.5558C9.999 39.5765 8.52669 40.7127 8.43701 42.0017H14.544C15.7168 42.0017 16.7742 41.2952 17.2176 40.2092C18.2504 37.6775 20.0361 32.686 19.7641 26.4518L19.7631 26.4509Z" fill="#1D8E7C"/>
<path d="M20.5761 26.4509C18.3992 26.1661 16.2459 25.7956 14.134 25.295C14.6356 30.4057 14.7628 34.9921 12.2725 39.4002C10.5183 39.4209 9.33868 40.7128 9.24802 42.0008H15.355C16.5278 42.0008 17.5852 41.2943 18.0287 40.2083C19.0614 37.6766 20.8471 32.6851 20.5751 26.4509H20.5761Z" fill="white"/>
<path d="M44.4011 34.8472L41.3245 38.6197L36.4404 38.394L35.7693 40.2309L31.3987 40.566C21.7213 41.5278 16.1661 37.5002 14.3538 35.878C14.2996 35.8307 14.2444 35.7795 14.1902 35.7283C10.6583 32.5353 7.45447 28.4308 7.45447 23.3092C7.45447 16.9085 10.877 11.31 15.9946 8.23627C18.0218 9.341 20.318 10.0407 22.5047 10.9661V14.2034L23.5149 14.3532C23.5149 14.3532 20.5219 21.1362 26.5511 22.0409C27.6588 22.2045 29.4455 21.6438 30.4112 21.5235C40.1951 20.2877 44.4011 28.0809 44.4011 34.8463V34.8472Z" fill="white"/>
<path d="M25.8573 17.7787C26.5507 17.7787 27.1128 17.2166 27.1128 16.5232C27.1128 15.8298 26.5507 15.2677 25.8573 15.2677C25.1639 15.2677 24.6018 15.8298 24.6018 16.5232C24.6018 17.2166 25.1639 17.7787 25.8573 17.7787Z" fill="#1D8E7C"/>
<path d="M25.8573 17.78L28.8462 17.6953L28.7684 16.7246L26.488 15.4395L25.8573 17.78Z" fill="#1D8E7C"/>
<path d="M28.3989 13.6785L27.0251 14.1249L28.3989 14.4787V13.6785Z" fill="#1D8E7C"/>
<path d="M23.165 14.1697C22.2357 13.814 21.2295 13.6149 20.2056 13.5903V13.5646C21.2216 13.4198 22.277 13.4464 23.3128 13.6543L23.165 14.1697Z" fill="#1D8E7C"/>
<path d="M23.4596 14.8404C22.3894 14.8296 21.3014 14.9991 20.2568 15.348L20.243 15.3154C21.2177 14.7951 22.2928 14.4305 23.4143 14.2511L23.4596 14.8404Z" fill="#1D8E7C"/>
<path d="M23.4724 15.5372C22.5224 15.6742 21.5911 16.1699 20.9229 16.9386L20.8697 16.8992C21.4196 16.0221 22.3056 15.3283 23.3502 15.0051L23.4734 15.5382L23.4724 15.5372Z" fill="#1D8E7C"/>
<path d="M22.8595 14.5878C22.8595 15.2461 23.3572 15.7999 24.0352 15.9724V13.2032C23.3562 13.3766 22.8595 13.9305 22.8595 14.5878Z" fill="white"/>
<path d="M22.1175 11.4277C22.1973 11.9185 22.622 12.294 23.1355 12.294C23.6489 12.294 24.0736 11.9185 24.1535 11.4277H22.1175Z" fill="#1D8E7C"/>
<path d="M24.1417 11.3575C24.1417 11.6354 23.917 11.8601 23.6391 11.8601C23.3612 11.8601 23.1365 11.6354 23.1365 11.3575C23.1365 11.0796 23.3612 10.8549 23.6391 10.8549C23.917 10.8549 24.1417 11.0796 24.1417 11.3575Z" fill="white"/>
<path d="M25.9658 16.3268C26.3294 16.0657 26.5738 15.6449 26.6191 15.1994C26.7167 15.161 26.833 15.2152 26.8941 15.3009C26.9562 15.3867 26.9739 15.4951 26.9818 15.5995C27.0025 15.8794 26.9591 16.1632 26.8556 16.4244C27.1878 16.3347 27.444 16.0174 27.4637 15.6744C27.6362 15.7217 27.7337 15.9178 27.7278 16.0972C27.7219 16.2765 27.6381 16.4421 27.5563 16.6018C27.9003 16.4874 28.1525 16.1405 28.1555 15.7779C28.1565 15.6261 27.2784 15.2911 27.1444 15.2378C26.8083 15.1058 26.3787 14.9392 26.014 14.9481C25.9727 15.1255 26.1096 15.4172 26.1087 15.6192C26.1087 15.8617 26.0604 16.1031 25.9658 16.3268Z" fill="white"/>
<path d="M27.8047 17.0716C27.715 17.2697 27.6243 17.4697 27.5021 17.65C27.3799 17.8304 27.2233 17.992 27.0291 18.0906C27.1168 18.0462 27.3868 18.1073 27.5002 18.0906C27.6086 18.0738 27.7939 18.06 27.8579 17.9595C27.9821 17.7673 27.8559 17.2736 27.8047 17.0716Z" fill="white"/>
<path d="M42.4674 35.1047C43.3945 31.1769 40.9619 27.2412 37.0341 26.3142C33.1063 25.3871 29.1706 27.8197 28.2436 31.7476C27.3165 35.6754 29.7491 39.611 33.6769 40.5381C37.6048 41.4651 41.5404 39.0325 42.4674 35.1047Z" fill="#1D8E7C"/>
<path d="M44.4395 33.9026C44.4395 38.3697 40.8179 41.9914 36.3507 41.9914H34.2073L34.8104 41.4642C31.4046 40.6364 28.8748 37.5646 28.8748 33.9026C28.8748 29.6059 32.3595 26.1222 36.6582 26.1222C40.6701 26.1222 43.9714 29.1575 44.3942 33.057C44.4228 33.3359 44.4385 33.6178 44.4385 33.9026H44.4395Z" fill="white"/>
<path d="M32.9785 39.3206C30.1945 37.805 26.7088 38.8328 25.1932 41.6158C25.1262 41.739 25.066 41.8642 25.0079 41.9903H35.4609C34.9642 40.8925 34.1187 39.9405 32.9795 39.3206H32.9785Z" fill="#1D8E7C"/>
<path d="M33.7205 39.7244C30.9464 38.2136 27.4765 39.2297 25.952 41.99H35.999C35.4885 41.0637 34.7178 40.2674 33.7205 39.7244Z" fill="white"/>
<path d="M20.7239 20.6448C20.8826 20.4408 21.0314 20.293 21.1773 20.2211C21.0294 20.1797 20.8836 20.1482 20.7377 20.1127C20.5929 20.0782 20.448 20.0604 20.3061 20.0131C20.4322 20.292 20.5741 20.4872 20.7239 20.6448Z" fill="#1D8E7C"/>
<path d="M19.7887 20.7369C19.9769 20.4501 20.1484 20.2047 20.3061 20.0136L19.8813 19.8992C19.7404 19.8687 19.6015 19.8263 19.4635 19.78C19.5522 20.1466 19.6616 20.4688 19.7877 20.7369H19.7887Z" fill="#1D8E7C"/>
<path d="M18.8436 20.7146L19.4645 19.7793L19.0516 19.6522C18.9136 19.6177 18.7816 19.5556 18.6465 19.5103C18.6899 19.939 18.754 20.3549 18.8436 20.7136V20.7146Z" fill="#1D8E7C"/>
<path d="M17.9026 20.5881C18.1736 20.2057 18.4209 19.846 18.6466 19.511L18.2445 19.3691L17.8513 19.2055C17.8444 19.6834 17.8622 20.1476 17.9026 20.5881Z" fill="#1D8E7C"/>
<path d="M16.9782 20.3576C17.2886 19.9722 17.5842 19.5741 17.8513 19.2055C17.7212 19.1484 17.5872 19.107 17.4611 19.041L17.0787 18.8616C17.0215 19.3681 16.988 19.8688 16.9782 20.3566V20.3576Z" fill="#1D8E7C"/>
<path d="M16.0794 20.0364C16.4322 19.6481 16.7653 19.2558 17.0787 18.8626C16.8195 18.7542 16.58 18.6025 16.3278 18.4822C16.2233 19.0006 16.1395 19.5209 16.0784 20.0364H16.0794Z" fill="#1D8E7C"/>
<path d="M15.2141 19.6288C15.6063 19.2494 15.972 18.8769 16.3277 18.4817C16.2006 18.4216 16.0853 18.3408 15.9631 18.2728L15.5994 18.0629C15.4516 18.5783 15.3225 19.1016 15.2131 19.6288H15.2141Z" fill="#1D8E7C"/>
<path d="M14.3913 19.1419C14.8111 18.792 15.2151 18.4314 15.6005 18.0628L15.2496 17.8322C15.1343 17.7533 15.0102 17.6873 14.8998 17.6006C14.7086 18.1101 14.545 18.6147 14.3903 19.1409L14.3913 19.1419Z" fill="#1D8E7C"/>
<path d="M13.6177 18.5769C14.0562 18.2694 14.4859 17.9422 14.8998 17.6003C14.6781 17.4308 14.4357 17.2859 14.2218 17.1056C14.007 17.5815 13.804 18.0733 13.6177 18.5769Z" fill="#1D8E7C"/>
<path d="M12.9061 17.9386C13.3485 17.6854 13.79 17.4065 14.2227 17.1059L13.8896 16.8487C13.7743 16.7669 13.6757 16.6674 13.5663 16.5787C13.3466 17.0044 13.116 17.4695 12.9061 17.9396V17.9386Z" fill="#1D8E7C"/>
<path d="M12.2646 17.232C12.6932 17.0438 13.1298 16.825 13.5654 16.5786L13.2402 16.3066L12.9288 16.0179C12.7189 16.3894 12.4932 16.7964 12.2646 17.231V17.232Z" fill="#1D8E7C"/>
<path d="M11.7117 16.4552C12.0911 16.3517 12.5109 16.196 12.9288 16.0176C12.8253 15.92 12.7129 15.8304 12.6154 15.7259L12.3109 15.4224L11.7117 16.4542V16.4552Z" fill="#1D8E7C"/>
<path d="M11.2535 15.6246C11.5679 15.6 11.9236 15.532 12.3099 15.4236C12.0941 15.2275 11.9177 15.0018 11.7058 14.7939C11.5935 15.0333 11.4388 15.3103 11.2525 15.6246H11.2535Z" fill="#1D8E7C"/>
<path d="M10.9086 14.7456C11.1264 14.7998 11.3826 14.8244 11.7068 14.7938C11.5984 14.6914 11.5107 14.5741 11.4112 14.4637C11.3136 14.3514 11.2062 14.243 11.1027 14.1306C11.1017 14.2962 11.0308 14.5002 10.9096 14.7456H10.9086Z" fill="#1D8E7C"/>
<path d="M20.7742 23.8317C20.9388 23.5213 21.0984 23.27 21.261 23.1054C21.0836 23.0738 20.9072 23.0482 20.7318 23.0246C20.5564 23.0009 20.382 22.9871 20.2085 22.9556C20.3908 23.3173 20.581 23.6011 20.7732 23.8307L20.7742 23.8317Z" fill="#1D8E7C"/>
<path d="M19.6922 24.0315C19.8735 23.6235 20.045 23.2619 20.2095 22.9574C19.8626 22.9002 19.5177 22.8736 19.1777 22.8125C19.3374 23.2688 19.5108 23.6787 19.6931 24.0325L19.6922 24.0315Z" fill="#1D8E7C"/>
<path d="M18.5924 24.1304L19.1768 22.8119C18.8358 22.7596 18.4968 22.7143 18.1617 22.6493C18.2888 23.1726 18.4327 23.6801 18.5924 24.1304Z" fill="#1D8E7C"/>
<path d="M17.4828 24.1301C17.7272 23.6167 17.9528 23.115 18.1618 22.6489C17.9942 22.6184 17.8257 22.5957 17.6592 22.5622L17.1625 22.4607C17.2492 23.0362 17.3566 23.595 17.4828 24.1301Z" fill="#1D8E7C"/>
<path d="M16.3722 24.0265C16.656 23.5002 16.9191 22.972 17.1635 22.4605C16.8304 22.4044 16.5081 22.3088 16.181 22.2408C16.2233 22.8439 16.2864 23.4421 16.3722 24.0265Z" fill="#1D8E7C"/>
<path d="M15.2674 23.8244C15.5946 23.2933 15.8961 22.7729 16.1799 22.2408C16.0164 22.2053 15.8587 22.1521 15.6971 22.1107C15.5374 22.0644 15.3738 22.0299 15.2171 21.9766C15.2083 22.6005 15.229 23.2075 15.2674 23.8234V23.8244Z" fill="#1D8E7C"/>
<path d="M14.1814 23.5201C14.549 23.0126 14.8949 22.4962 15.2181 21.9778C14.9047 21.8704 14.5825 21.7886 14.277 21.6635C14.2218 22.2754 14.1883 22.9022 14.1814 23.5201Z" fill="#1D8E7C"/>
<path d="M13.1239 23.1111C13.527 22.646 13.9123 22.1601 14.276 21.6635L13.8098 21.4949L13.3555 21.3028C13.2609 21.8842 13.1821 22.4893 13.1239 23.1111Z" fill="#1D8E7C"/>
<path d="M12.1187 22.5803C12.5405 22.191 12.9554 21.7594 13.3555 21.3021C13.2018 21.241 13.05 21.1769 12.9032 21.1021L12.4548 20.8912C12.3326 21.4233 12.2183 21.988 12.1177 22.5803H12.1187Z" fill="#1D8E7C"/>
<path d="M11.1776 21.9423C11.6092 21.628 12.034 21.2811 12.4557 20.8908C12.3069 20.8189 12.166 20.7341 12.0182 20.6583C11.8733 20.5784 11.7206 20.5085 11.5826 20.4168C11.4387 20.8977 11.3087 21.3984 11.1786 21.9423H11.1776Z" fill="#1D8E7C"/>
<path d="M10.3193 21.2016C10.7342 20.9838 11.1579 20.7206 11.5817 20.4171L11.151 20.1599C11.0012 20.0801 10.8721 19.9746 10.7292 19.884C10.607 20.2762 10.4563 20.7285 10.3193 21.2006V21.2016Z" fill="#1D8E7C"/>
<path d="M9.57123 20.3576C9.92502 20.2591 10.3261 20.0896 10.7302 19.8846C10.5902 19.79 10.4424 19.7033 10.3074 19.6008L9.8925 19.2963C9.8176 19.5988 9.70624 19.9536 9.57221 20.3576H9.57123Z" fill="#1D8E7C"/>
<path d="M8.95633 19.4224C9.22044 19.4382 9.53086 19.4008 9.89254 19.2963C9.82454 19.2441 9.74669 19.1997 9.68165 19.1435L9.47864 18.98C9.34166 18.8706 9.20073 18.7632 9.05488 18.6577C9.08346 18.8538 9.0401 19.113 8.95732 19.4234L8.95633 19.4224Z" fill="#1D8E7C"/>
<path d="M21.0146 26.4972C21.1349 26.2636 21.2561 26.0833 21.3872 25.9719C21.0895 25.9404 20.7969 25.9295 20.5061 25.9138C20.6776 26.1621 20.8481 26.3533 21.0156 26.4972H21.0146Z" fill="#1D8E7C"/>
<path d="M20.1425 26.7356C20.2647 26.4173 20.3839 26.1394 20.5052 25.9137C20.2125 25.8871 19.9247 25.8802 19.636 25.8595C19.8015 26.1975 19.971 26.4843 20.1425 26.7356Z" fill="#1D8E7C"/>
<path d="M19.2546 26.9077C19.3866 26.5233 19.5128 26.1735 19.636 25.8601C19.3472 25.8364 19.0614 25.8266 18.7756 25.801C18.9294 26.205 19.089 26.5716 19.2556 26.9067L19.2546 26.9077Z" fill="#1D8E7C"/>
<path d="M18.3568 27.019L18.7756 25.8019C18.4899 25.7723 18.2051 25.7644 17.9212 25.7319C18.0582 26.1882 18.2031 26.6189 18.3568 27.019Z" fill="#1D8E7C"/>
<path d="M17.4522 27.0726L17.9213 25.7314C17.6374 25.7018 17.3546 25.685 17.0728 25.6496C17.189 26.1413 17.3162 26.6212 17.4531 27.0736L17.4522 27.0726Z" fill="#1D8E7C"/>
<path d="M16.5456 27.0729C16.7318 26.586 16.9072 26.1101 17.0718 25.6498C16.79 25.6183 16.5071 25.5937 16.2273 25.5533C16.3229 26.0677 16.4283 26.5831 16.5456 27.0729Z" fill="#1D8E7C"/>
<path d="M15.6399 27.0189C15.8459 26.5242 16.042 26.0344 16.2273 25.5535C15.9464 25.5199 15.6655 25.4864 15.3857 25.4421C15.4596 25.9703 15.5443 26.5015 15.6389 27.0189H15.6399Z" fill="#1D8E7C"/>
<path d="M14.7381 26.9139C14.9638 26.4232 15.1806 25.9314 15.3866 25.4416C15.1057 25.4052 14.8268 25.3628 14.5479 25.3145C14.6021 25.8447 14.6652 26.3788 14.7381 26.9139Z" fill="#1D8E7C"/>
<path d="M13.8443 26.7556C14.0867 26.2846 14.3222 25.7987 14.5479 25.3149C14.268 25.2745 13.9901 25.2232 13.7112 25.173C13.7477 25.6913 13.7911 26.2205 13.8443 26.7556Z" fill="#1D8E7C"/>
<path d="M12.9624 26.544C13.2176 26.1065 13.4699 25.6403 13.7113 25.1732C13.4315 25.1299 13.1545 25.0707 12.8756 25.0195C12.8993 25.5112 12.9269 26.0207 12.9624 26.544Z" fill="#1D8E7C"/>
<path d="M12.0951 26.2774C12.3582 25.8842 12.6194 25.4594 12.8756 25.0189C12.5947 24.9716 12.3188 24.9075 12.0389 24.8543L12.0961 26.2774H12.0951Z" fill="#1D8E7C"/>
<path d="M11.2475 25.9552C11.5097 25.6211 11.7748 25.2516 12.0379 24.8544C11.756 24.8052 11.4801 24.7342 11.1973 24.681L11.2465 25.9562L11.2475 25.9552Z" fill="#1D8E7C"/>
<path d="M10.4247 25.577C10.676 25.3169 10.9342 25.0202 11.1973 24.6812C10.9145 24.627 10.6375 24.5551 10.3517 24.5009C10.3843 24.8182 10.4069 25.1809 10.4247 25.577Z" fill="#1D8E7C"/>
<path d="M9.6324 25.1397C9.86004 24.9722 10.0995 24.7633 10.3518 24.5001C10.069 24.439 9.78613 24.371 9.4964 24.3149C9.55848 24.5386 9.60086 24.8165 9.63141 25.1397H9.6324Z" fill="#1D8E7C"/>
<path d="M8.87844 24.6365C9.06371 24.5852 9.26967 24.4818 9.49732 24.3142C9.20956 24.2541 8.92279 24.1851 8.6232 24.1388C8.7385 24.2354 8.81833 24.4079 8.87844 24.6365Z" fill="#1D8E7C"/>
<path d="M21.1625 29.8778C21.2216 29.6028 21.2926 29.3801 21.3911 29.2342C21.0906 29.2608 20.8068 29.321 20.5141 29.3525C20.7427 29.587 20.9615 29.7644 21.1625 29.8778Z" fill="#1D8E7C"/>
<path d="M20.3574 30.3142C20.4037 29.9466 20.454 29.6234 20.5141 29.3524C20.2264 29.3948 19.9416 29.4372 19.6558 29.4716C19.8913 29.7939 20.1268 30.0777 20.3564 30.3142H20.3574Z" fill="#1D8E7C"/>
<path d="M19.5109 30.6641L19.6568 29.4707C19.3749 29.516 19.0881 29.5377 18.8083 29.5791C19.0389 29.9723 19.2734 30.335 19.5109 30.6641Z" fill="#1D8E7C"/>
<path d="M18.6358 30.9417L18.8082 29.5797C18.5244 29.6024 18.2455 29.6467 17.9637 29.6645C18.1795 30.1168 18.4052 30.5455 18.6358 30.9417Z" fill="#1D8E7C"/>
<path d="M17.74 31.1495C17.8247 30.6361 17.8986 30.1394 17.9637 29.6644C17.6828 29.692 17.4029 29.7147 17.1221 29.7324C17.3162 30.2182 17.5232 30.6932 17.739 31.1495H17.74Z" fill="#1D8E7C"/>
<path d="M16.8283 31.281C16.9397 30.7597 17.0373 30.2423 17.122 29.7328C16.8431 29.7594 16.5613 29.7614 16.2824 29.7821C16.4509 30.2877 16.6332 30.7893 16.8283 31.281Z" fill="#1D8E7C"/>
<path d="M15.909 31.3447C16.0469 30.8224 16.1711 30.2992 16.2825 29.7828C16.0026 29.7847 15.7227 29.8074 15.4428 29.8054C15.5847 30.3208 15.7405 30.8362 15.91 31.3447H15.909Z" fill="#1D8E7C"/>
<path d="M14.9885 31.3382C15.153 30.8356 15.3048 30.3221 15.4428 29.8048C15.1629 29.8126 14.882 29.8146 14.6012 29.8136C14.7175 30.3083 14.8465 30.8188 14.9885 31.3372V31.3382Z" fill="#1D8E7C"/>
<path d="M14.072 31.2475C14.2602 30.7931 14.4366 30.3132 14.6012 29.8136C14.3194 29.8215 14.0395 29.8057 13.7557 29.8116C13.8513 30.2659 13.9557 30.7468 14.071 31.2465L14.072 31.2475Z" fill="#1D8E7C"/>
<path d="M13.1673 31.0787C13.3713 30.6885 13.5693 30.2627 13.7566 29.8124L12.9051 29.7946L13.1673 31.0787Z" fill="#1D8E7C"/>
<path d="M12.2824 30.8291C12.4923 30.5276 12.7012 30.1787 12.9042 29.7934L12.041 29.7717C12.1237 30.0713 12.2016 30.428 12.2824 30.8281V30.8291Z" fill="#1D8E7C"/>
<path d="M11.4309 30.4795C11.626 30.311 11.832 30.0695 12.0409 29.7729C11.8951 29.7709 11.7492 29.7709 11.6024 29.765C11.5295 29.762 11.4555 29.7611 11.3806 29.762H11.2693L11.2131 29.764H11.1845L11.1707 29.765H11.1638H11.1599H11.1579C11.152 29.7857 11.1707 29.7187 11.1451 29.8113L11.1579 29.765V29.766V29.768L11.1619 29.7719L11.1668 29.7798L11.1766 29.7956L11.1964 29.8291L11.2338 29.902C11.2584 29.9532 11.2811 30.0084 11.3038 30.0685C11.3491 30.1888 11.3905 30.3267 11.4319 30.4785L11.4309 30.4795Z" fill="#1D8E7C"/>
<mask id="mask0_31_826" style="mask-type:luminance" maskUnits="userSpaceOnUse" x="13" y="12" width="32" height="27">
<path d="M13.2472 12.8386V25.5257C13.2472 32.1353 18.8082 37.5831 25.8879 37.9092L41.3265 38.6198L44.4022 34.8483C44.4022 28.084 40.1942 20.2879 30.4113 21.5237C29.4455 21.6459 27.6608 22.2066 26.5531 22.041C20.523 21.1403 23.5159 14.3533 23.5159 14.3533L13.2481 12.8386H13.2472Z" fill="white"/>
</mask>
<g mask="url(#mask0_31_826)">
<path d="M25.7036 26.4294C26.2012 26.3802 26.7304 26.2747 27.2616 26.1151C27.1877 26.0106 27.1059 25.9081 27.034 25.7987C26.9679 25.6864 26.8871 25.579 26.83 25.4597C26.4634 25.7396 26.0977 26.055 25.7036 26.4285V26.4294Z" fill="#1D8E7C"/>
<path d="M25.4542 25.4529C25.877 25.5012 26.3451 25.5041 26.8309 25.4598C26.7689 25.3425 26.7028 25.2252 26.6516 25.1011C26.5934 24.9789 26.5422 24.8537 26.4988 24.7246C26.1726 24.9326 25.8228 25.172 25.4552 25.4529H25.4542Z" fill="#1D8E7C"/>
<path d="M25.3587 24.4709C25.7017 24.5872 26.0771 24.6759 26.4979 24.7242C26.4467 24.5971 26.4112 24.465 26.3718 24.332C26.3284 24.1999 26.3077 24.0629 26.2742 23.9269C26.0052 24.0817 25.6859 24.262 25.3587 24.4699V24.4709Z" fill="#1D8E7C"/>
<path d="M25.408 23.5043C25.6603 23.6659 25.9431 23.8098 26.2742 23.9281C26.22 23.6541 26.1855 23.3742 26.1707 23.0904L25.407 23.5053L25.408 23.5043Z" fill="#1D8E7C"/>
<path d="M25.6011 22.572C25.74 22.7524 25.943 22.9298 26.1717 23.0894C26.1717 22.9485 26.1569 22.8036 26.1677 22.6607C26.1736 22.5178 26.1766 22.373 26.1953 22.2291C26.0268 22.3365 25.8346 22.4498 25.6011 22.571V22.572Z" fill="#1D8E7C"/>
<path d="M25.9233 21.6941C25.9677 21.8695 26.0573 22.0508 26.1953 22.2312C26.2071 22.0863 26.2278 21.9424 26.2564 21.7995C26.2781 21.6537 26.3155 21.5128 26.351 21.3699C26.2426 21.4842 26.0948 21.5867 25.9243 21.6941H25.9233Z" fill="#1D8E7C"/>
<path d="M26.3688 20.8889C26.3284 21.0367 26.3087 21.1944 26.3511 21.3698C26.3816 21.2239 26.4368 21.0879 26.4802 20.9451C26.5285 20.8041 26.5896 20.6681 26.6448 20.5272C26.5866 20.6662 26.4901 20.7805 26.3698 20.8899L26.3688 20.8889Z" fill="#1D8E7C"/>
<path d="M29.6417 25.6529C30.1295 25.5129 30.637 25.3079 31.1278 25.0557C31.0351 24.9611 30.9317 24.8734 30.843 24.7728C30.7533 24.6733 30.6606 24.5738 30.5808 24.4654C30.2635 24.8152 29.9531 25.2074 29.6417 25.6539V25.6529Z" fill="#1D8E7C"/>
<path d="M29.1785 24.7073C29.6318 24.6777 30.096 24.6008 30.5799 24.4638C30.4921 24.3594 30.4182 24.246 30.3424 24.1327C30.2665 24.0194 30.2014 23.8992 30.1334 23.7789C29.8279 24.043 29.5017 24.3535 29.1785 24.7073Z" fill="#1D8E7C"/>
<path d="M28.8956 23.7061C29.276 23.7771 29.7027 23.7997 30.1343 23.779C30.0762 23.6559 30.0082 23.5337 29.9609 23.4046C29.9047 23.2774 29.8613 23.1464 29.82 23.0133C29.5292 23.2075 29.2168 23.4371 28.8966 23.7071L28.8956 23.7061Z" fill="#1D8E7C"/>
<path d="M28.803 22.6825C28.9528 22.7554 29.1184 22.8195 29.2859 22.8747C29.4544 22.9299 29.6288 22.9772 29.819 23.0126C29.7392 22.7466 29.6791 22.4696 29.6564 22.1878C29.3913 22.3238 29.1154 22.4854 28.804 22.6815L28.803 22.6825Z" fill="#1D8E7C"/>
<path d="M28.9173 21.6746C29.1242 21.8687 29.3647 22.0431 29.6554 22.189C29.6377 22.0481 29.6386 21.9062 29.6357 21.7633C29.6327 21.6913 29.6426 21.6213 29.6455 21.5494C29.6505 21.4785 29.6514 21.4055 29.6643 21.3346C29.549 21.3809 29.4376 21.4331 29.3124 21.4893C29.1902 21.5455 29.0513 21.6066 28.9173 21.6736V21.6746Z" fill="#1D8E7C"/>
<path d="M29.2405 20.7283C29.3342 20.9372 29.48 21.1432 29.6653 21.3344C29.683 21.1915 29.7057 21.0486 29.7422 20.9076C29.7688 20.7628 29.8239 20.6287 29.8653 20.4859C29.6929 20.5637 29.4711 20.6356 29.2405 20.7283Z" fill="#1D8E7C"/>
<path d="M33.3894 24.7362C33.8644 24.6485 34.3788 24.5007 34.907 24.3075C34.7228 24.1075 34.5365 23.9035 34.3798 23.6847C34.0714 23.9882 33.7393 24.3381 33.3894 24.7362Z" fill="#1D8E7C"/>
<path d="M33.0731 23.7833C33.4741 23.8021 33.9097 23.7705 34.3808 23.6848C34.2221 23.467 34.0714 23.2394 33.9551 22.9989C33.687 23.2157 33.3924 23.4749 33.0731 23.7833Z" fill="#1D8E7C"/>
<path d="M32.9282 22.7852C33.0731 22.8443 33.2347 22.8916 33.4082 22.9271C33.5806 22.9635 33.759 22.9882 33.9561 23C33.8969 22.8798 33.8398 22.7566 33.7964 22.6305C33.7472 22.5043 33.7127 22.3742 33.6782 22.2422C33.4663 22.388 33.2091 22.5654 32.9292 22.7852H32.9282Z" fill="#1D8E7C"/>
<path d="M33.0139 21.7905C33.1765 21.9669 33.4022 22.1226 33.6771 22.2418C33.6486 22.1098 33.6239 21.9738 33.6121 21.8368C33.6013 21.6998 33.5934 21.5589 33.6023 21.4179C33.4436 21.5273 33.2514 21.6456 33.0139 21.7914V21.7905Z" fill="#1D8E7C"/>
<path d="M33.348 20.8849C33.3578 20.9706 33.3894 21.0622 33.4307 21.1519C33.4702 21.2406 33.5273 21.3303 33.6012 21.417C33.6032 21.2751 33.6239 21.1332 33.6485 20.9903C33.6722 20.8464 33.7106 20.7055 33.75 20.5626C33.6574 20.6799 33.5204 20.7794 33.348 20.8849Z" fill="#1D8E7C"/>
</g>
<path d="M38.0871 36.0329C38.1601 35.8398 38.1965 35.623 38.1808 35.4308C38.163 35.2317 38.0931 35.0573 37.9787 34.9174C37.7609 34.6602 37.4919 34.5508 37.3017 34.4788C37.418 34.5725 37.5648 34.6759 37.7383 34.7814C37.5313 34.7469 37.3175 34.6316 37.145 34.4365C37.2997 34.6424 37.4949 34.8504 37.7077 35.0938C37.5796 35.0199 37.4653 34.9312 37.3638 34.8218C37.2603 34.7094 37.1726 34.5833 37.0958 34.4463C37.2367 34.7213 37.3845 35.0179 37.4968 35.3342C37.3007 35.077 37.1608 34.7656 37.0465 34.4571C37.0958 34.6168 37.1381 34.7784 37.1677 34.943L37.7748 36.8706C37.7876 36.7513 37.8516 36.6085 37.9147 36.4587C37.9768 36.3049 38.0457 36.161 38.0871 36.0319V36.0329Z" fill="#1D8E7C"/>
<path d="M39.32 34.6974C39.4373 34.6403 39.594 34.5634 39.7369 34.4846C39.8798 34.4067 40.0256 34.3328 40.1429 34.3141L40.133 34.3052L38.1601 33.8647C38.3109 33.9199 38.4577 33.9879 38.5957 34.0726C38.2695 33.9918 37.9591 33.8775 37.6644 33.779C37.8083 33.8371 37.9453 33.909 38.0724 33.9948C38.1936 34.0785 38.304 34.1771 38.4015 34.2884C38.1305 34.117 37.8792 33.9603 37.6467 33.842C37.759 33.913 37.8536 33.9938 37.9403 34.0854C38.0182 34.1731 38.0862 34.2727 38.1335 34.3722C37.967 34.2007 37.8122 34.0647 37.6723 33.9583C37.69 34.0076 37.7117 34.0598 37.7462 34.1199C37.7758 34.1781 37.8103 34.2392 37.8546 34.3052C37.9423 34.4353 38.0438 34.5703 38.1966 34.6767C38.3454 34.7802 38.5287 34.8383 38.7228 34.8374C38.9229 34.8403 39.1269 34.7822 39.319 34.6955L39.32 34.6974Z" fill="#1D8E7C"/>
<path d="M38.2675 34.9621C38.363 35.1099 38.4261 35.2942 38.436 35.4795C38.4419 35.5731 38.4399 35.6726 38.4271 35.7672C38.4133 35.8608 38.3916 35.9554 38.365 36.0461C38.3473 36.1171 38.3088 36.2166 38.2694 36.3329C38.6183 36.3329 39.0282 36.1476 39.3032 35.8244C39.5535 35.5356 39.6767 35.1572 39.6619 34.8399C39.5407 34.8951 39.4244 34.9424 39.3535 34.9709C39.0036 35.1158 38.5818 35.1414 38.2684 34.9631L38.2675 34.9621Z" fill="#1D8E7C"/>
<path d="M35.2559 35.9654C35.3564 35.9516 35.4619 35.919 35.5575 35.8836C35.654 35.8481 35.7437 35.8028 35.8255 35.7436C35.9881 35.6293 36.1024 35.4854 36.1675 35.313C36.2266 35.1553 36.2404 35.0055 36.2424 34.8656C36.2424 34.7966 36.2384 34.7325 36.2315 34.6744C36.2256 34.6143 36.2197 34.5551 36.2089 34.5069C36.198 34.5798 36.1872 34.6616 36.1793 34.7522C36.1714 34.8409 36.1685 34.9326 36.1655 35.0361C36.0886 34.8459 36.0876 34.5926 36.1685 34.3531C36.0719 34.5817 35.9802 34.8685 35.8817 35.1652C35.8768 35.0252 35.9024 34.8735 35.9457 34.7325C35.9881 34.5926 36.0561 34.4497 36.1379 34.3137C35.9684 34.5749 35.7841 34.8508 35.5673 35.105C35.6964 34.8015 35.8906 34.5325 36.1024 34.2792C35.9881 34.4024 35.8708 34.5187 35.7427 34.6251L34.3739 36.1122C34.4803 36.0669 34.64 36.0472 34.8016 36.0274C34.9603 36.0127 35.1278 35.988 35.2569 35.9654H35.2559Z" fill="#1D8E7C"/>
<path d="M37.0278 36.3639C37.1362 36.4398 37.2811 36.5364 37.421 36.6191C37.561 36.7078 37.6979 36.7955 37.7718 36.8842L37.7748 36.8704L37.1677 34.9428C37.1963 35.1045 37.2121 35.2671 37.2072 35.4257C37.1145 35.1025 37.0584 34.7773 36.9953 34.4747C37.0387 34.7802 37.0219 35.0926 36.9224 35.3646C36.9352 35.0434 36.947 34.7556 36.9312 34.4885C36.9224 34.7566 36.8416 34.9931 36.7154 35.1764C36.7805 34.9419 36.8218 34.7507 36.8435 34.5684C36.7775 34.6482 36.7046 34.7645 36.6336 34.8995C36.5646 35.0404 36.4976 35.2001 36.4819 35.3824C36.4661 35.5657 36.5085 35.746 36.606 35.9175C36.6543 36.0052 36.7164 36.087 36.7883 36.1589C36.8603 36.2319 36.9421 36.3067 37.0258 36.3619L37.0278 36.3639Z" fill="#1D8E7C"/>
<path d="M36.2739 35.5863C36.1941 35.744 36.0689 35.8809 35.9103 35.9913C35.7565 36.0918 35.5663 36.1736 35.385 36.2101C35.317 36.2249 35.2047 36.2544 35.0874 36.2722C35.2648 36.5727 35.6324 36.8339 36.0463 36.9108C36.4178 36.9886 36.81 36.9009 37.0761 36.7294C36.9687 36.6575 36.8691 36.5747 36.809 36.5284C36.6622 36.419 36.5252 36.2633 36.4296 36.1076C36.334 35.9401 36.2798 35.7637 36.2739 35.5863Z" fill="#1D8E7C"/>
<path d="M33.8989 33.4776C34.0359 33.6373 34.1945 33.7782 34.3768 33.861C34.5522 33.9457 34.7424 33.9714 34.9208 33.9418C35.0883 33.9142 35.2243 33.8511 35.3426 33.7831C35.4648 33.7141 35.5565 33.6422 35.6392 33.5752C35.4954 33.6294 35.3387 33.7023 35.1573 33.8009C35.2263 33.7201 35.3061 33.6481 35.4106 33.59C35.5072 33.5318 35.6284 33.4885 35.7536 33.4628C35.6294 33.4786 35.4924 33.5013 35.3495 33.5289C35.2046 33.5584 35.0568 33.589 34.905 33.6195C35.0272 33.5456 35.1632 33.4914 35.3121 33.4589C35.4589 33.4254 35.6077 33.4126 35.7693 33.4155C35.4559 33.3998 35.1278 33.3781 34.7976 33.317C35.1268 33.2766 35.4589 33.3111 35.7841 33.3673C35.6205 33.3298 35.4589 33.2855 35.3012 33.2283L33.3283 32.7878C33.4249 32.8578 33.5224 32.9859 33.617 33.115C33.7106 33.2441 33.8171 33.3781 33.8979 33.4776H33.8989Z" fill="#1D8E7C"/>
<path d="M34.4409 35.212C34.4232 35.349 34.4232 35.5126 34.4143 35.6801C34.4074 35.8457 34.4035 36.0043 34.3611 36.1157L34.3739 36.1118L35.7427 34.6247C35.6186 34.7281 35.4855 34.8218 35.3426 34.9006C35.5762 34.6592 35.8314 34.4473 36.064 34.2403C35.9398 34.3369 35.8078 34.4226 35.6747 34.4847C35.5407 34.5488 35.3949 34.5991 35.2549 34.6217C35.5338 34.4778 35.8009 34.3349 36.0187 34.193C35.7851 34.3162 35.5318 34.3684 35.315 34.3478C35.5427 34.2916 35.7408 34.2256 35.9043 34.1566C35.7999 34.1388 35.6659 34.1309 35.5111 34.1398C35.3594 34.1477 35.183 34.1723 35.0184 34.2502C34.8548 34.3271 34.7178 34.4552 34.6153 34.6276C34.5197 34.7952 34.4586 35.007 34.4429 35.212H34.4409Z" fill="#1D8E7C"/>
<path d="M34.7376 34.1706C34.5543 34.1814 34.3788 34.141 34.2044 34.0582C34.1157 34.0178 34.0398 33.9646 33.962 33.9064C33.8861 33.8473 33.8112 33.7823 33.7501 33.7123C33.7018 33.6581 33.6269 33.5743 33.5471 33.4856C33.3766 33.7892 33.3332 34.2386 33.4761 34.6377C33.6013 34.9974 33.8595 35.296 34.1482 35.4369C34.163 35.3039 34.1729 35.1846 34.1877 35.1058C34.2024 35.0131 34.2231 34.9185 34.2497 34.8289C34.2793 34.7372 34.3197 34.6475 34.3641 34.5657C34.4518 34.4031 34.5878 34.2632 34.7366 34.1706H34.7376Z" fill="#1D8E7C"/>
<path d="M35.3752 31.061C35.3022 31.2542 35.2658 31.471 35.2815 31.6632C35.2993 31.8613 35.3693 32.0367 35.4836 32.1766C35.7014 32.4338 35.9704 32.5432 36.1606 32.6151C36.0443 32.5215 35.8975 32.418 35.724 32.3126C35.931 32.3471 36.1448 32.4624 36.3173 32.6575C36.1626 32.4516 35.9674 32.2436 35.7546 32.0002C35.8827 32.0741 35.997 32.1628 36.0985 32.2722C36.202 32.3845 36.2897 32.5107 36.3666 32.6477C36.2256 32.3727 36.0778 32.0761 35.9655 31.7597C36.1616 32.017 36.3015 32.3284 36.4158 32.6368C36.3666 32.4772 36.3242 32.3156 36.2946 32.151L35.6876 30.2234C35.6748 30.3426 35.6107 30.4855 35.5476 30.6353C35.4855 30.789 35.4166 30.9329 35.3752 31.062V31.061Z" fill="#1D8E7C"/>
<path d="M34.1413 32.3963C34.024 32.4535 33.8673 32.5303 33.7244 32.6092C33.5815 32.687 33.4357 32.7609 33.3184 32.7797L33.3283 32.7885L35.3012 33.229C35.1504 33.1739 35.0036 33.1059 34.8656 33.0211C35.1918 33.1019 35.5022 33.2162 35.7969 33.3148C35.653 33.2566 35.516 33.1847 35.3889 33.099C35.2677 33.0152 35.1573 32.9166 35.0598 32.8053C35.3308 32.9768 35.5821 33.1334 35.8146 33.2517C35.7023 33.1808 35.6077 33.0999 35.521 33.0083C35.4431 32.9206 35.3751 32.8211 35.3278 32.7215C35.4944 32.893 35.6491 33.029 35.789 33.1354C35.7713 33.0861 35.7496 33.0339 35.7151 32.9738C35.6855 32.9157 35.6511 32.8546 35.6067 32.7895C35.519 32.6594 35.4175 32.5244 35.2647 32.418C35.1159 32.3145 34.9326 32.2564 34.7385 32.2574C34.5384 32.2544 34.3345 32.3125 34.1423 32.3993L34.1413 32.3963Z" fill="#1D8E7C"/>
<path d="M35.1938 32.1327C35.0982 31.9849 35.0352 31.8006 35.0253 31.6153C35.0194 31.5217 35.0214 31.4222 35.0342 31.3276C35.048 31.2339 35.0697 31.1393 35.0963 31.0487C35.114 30.9777 35.1524 30.8782 35.1919 30.7619C34.843 30.7619 34.433 30.9472 34.1581 31.2704C33.9078 31.5592 33.7846 31.9376 33.7994 32.2549C33.9206 32.1997 34.0369 32.1524 34.1078 32.1238C34.4577 31.979 34.8795 31.9533 35.1928 32.1317L35.1938 32.1327Z" fill="#1D8E7C"/>
<path d="M38.2065 31.1294C38.1059 31.1432 38.0005 31.1757 37.9049 31.2112C37.8083 31.2467 37.7187 31.292 37.6369 31.3512C37.4743 31.4655 37.3599 31.6094 37.2949 31.7818C37.2358 31.9395 37.222 32.0893 37.22 32.2292C37.22 32.2982 37.2239 32.3623 37.2308 32.4204C37.2368 32.4805 37.2427 32.5396 37.2535 32.5879C37.2643 32.515 37.2752 32.4332 37.2831 32.3426C37.291 32.2539 37.2939 32.1622 37.2969 32.0587C37.3737 32.2489 37.3747 32.5022 37.2939 32.7417C37.3905 32.513 37.4821 32.2263 37.5807 31.9296C37.5856 32.0696 37.56 32.2213 37.5166 32.3623C37.4743 32.5022 37.4072 32.6451 37.3245 32.7811C37.494 32.5199 37.6782 32.244 37.8951 31.9898C37.766 32.2933 37.5718 32.5623 37.3599 32.8156C37.4742 32.6924 37.5915 32.5761 37.7196 32.4697L39.0885 30.9826C38.982 31.0279 38.8224 31.0476 38.6608 31.0673C38.5021 31.0821 38.3346 31.1068 38.2055 31.1294H38.2065Z" fill="#1D8E7C"/>
<path d="M36.4336 30.7299C36.3251 30.6541 36.1803 30.5575 36.0403 30.4747C35.9004 30.386 35.7634 30.2983 35.6885 30.2096L35.6866 30.2224L36.2936 32.15C36.265 31.9884 36.2493 31.8258 36.2542 31.6662C36.3468 31.9894 36.403 32.3146 36.4661 32.6171C36.4227 32.3116 36.4395 31.9992 36.539 31.7273C36.5262 32.0485 36.5144 32.3363 36.5301 32.6033C36.539 32.3353 36.6198 32.0988 36.7459 31.9155C36.6809 32.15 36.6395 32.3412 36.6178 32.5235C36.6839 32.4437 36.7568 32.3274 36.8277 32.1924C36.8967 32.0515 36.9637 31.8918 36.9795 31.7095C36.9953 31.5262 36.9529 31.3459 36.8553 31.1744C36.8071 31.0867 36.745 31.0049 36.673 30.933C36.6011 30.86 36.5193 30.7851 36.4355 30.7299H36.4336Z" fill="#1D8E7C"/>
<path d="M37.1884 31.5074C37.2682 31.3497 37.3934 31.2127 37.5521 31.1023C37.7058 31.0018 37.896 30.92 38.0773 30.8835C38.1453 30.8688 38.2577 30.8392 38.3749 30.8215C38.1975 30.5209 37.83 30.2597 37.4161 30.1829C37.0445 30.105 36.6523 30.1927 36.3862 30.3642C36.4936 30.4361 36.5932 30.5189 36.6533 30.5652C36.8001 30.6746 36.9371 30.8303 37.0327 30.986C37.1283 31.1536 37.1825 31.33 37.1884 31.5074Z" fill="#1D8E7C"/>
<path d="M39.5634 33.6165C39.4264 33.4559 39.2678 33.316 39.0855 33.2332C38.91 33.1484 38.7198 33.1228 38.5415 33.1524C38.3739 33.18 38.2379 33.243 38.1197 33.311C37.9975 33.38 37.9058 33.452 37.8231 33.519C37.9669 33.4648 38.1236 33.3918 38.305 33.2933C38.236 33.3741 38.1561 33.446 38.0517 33.5042C37.9551 33.5623 37.8339 33.6057 37.7087 33.6313C37.8329 33.6155 37.9699 33.5929 38.1128 33.5653C38.2576 33.5357 38.4055 33.5052 38.5572 33.4746C38.435 33.5485 38.299 33.6027 38.1502 33.6353C38.0034 33.6688 37.8546 33.6816 37.693 33.6786C38.0063 33.6944 38.3345 33.7161 38.6646 33.7772C38.3355 33.8176 38.0034 33.7831 37.6782 33.7269C37.8418 33.7644 38.0034 33.8087 38.1611 33.8659L40.134 34.3064C40.0374 34.2364 39.9399 34.1083 39.8453 33.9792C39.7516 33.8501 39.6452 33.7161 39.5644 33.6165H39.5634Z" fill="#1D8E7C"/>
<path d="M39.0214 31.8821C39.0391 31.7451 39.0391 31.5815 39.048 31.414C39.0549 31.2484 39.0588 31.0897 39.1012 30.9784L39.0884 30.9823L37.7196 32.4694C37.8437 32.3659 37.9768 32.2723 38.1197 32.1935C37.8861 32.4349 37.6309 32.6468 37.3983 32.8537C37.5225 32.7572 37.6545 32.6714 37.7876 32.6093C37.9216 32.5453 38.0674 32.495 38.2074 32.4724C37.9285 32.6162 37.6614 32.7591 37.4436 32.901C37.6772 32.7779 37.9304 32.7256 38.1472 32.7463C37.9196 32.8025 37.7215 32.8695 37.5579 32.9375C37.6624 32.9553 37.7964 32.9631 37.9511 32.9543C38.1029 32.9464 38.2793 32.9217 38.4439 32.8439C38.6075 32.767 38.7445 32.6389 38.8469 32.4665C38.9425 32.2989 39.0036 32.087 39.0194 31.8821H39.0214Z" fill="#1D8E7C"/>
<path d="M38.7248 32.9237C38.9081 32.9128 39.0835 32.9532 39.2579 33.036C39.3466 33.0764 39.4225 33.1296 39.5004 33.1878C39.5762 33.2469 39.6511 33.3129 39.7122 33.3819C39.7605 33.4361 39.8354 33.5199 39.9152 33.6086C40.0857 33.3051 40.1291 32.8557 39.9862 32.4566C39.861 32.0969 39.6029 31.7983 39.3141 31.6573C39.2993 31.7904 39.2895 31.9096 39.2747 31.9885C39.2599 32.0811 39.2392 32.1757 39.2126 32.2654C39.183 32.357 39.1426 32.4467 39.0983 32.5285C39.0106 32.6911 38.8746 32.831 38.7258 32.9237H38.7248Z" fill="#1D8E7C"/>
<path d="M37.0732 33.6232C37.0308 33.8124 36.8435 33.9317 36.6543 33.8893C36.4651 33.8469 36.3459 33.6597 36.3883 33.4705C36.4306 33.2813 36.6179 33.162 36.8071 33.2044C36.9963 33.2468 37.1155 33.434 37.0732 33.6232Z" fill="#1D8E7C"/>
<path d="M36.4266 29.1404C36.4995 28.8428 36.535 28.6319 36.3497 28.2209C36.2531 28.5195 36.2935 28.8654 36.4266 29.1404Z" fill="#1D8E7C"/>
<path d="M36.0482 29.1838C36.0945 28.8793 36.1122 28.6655 35.8925 28.2742C35.8215 28.5817 35.8925 28.9227 36.0482 29.1838Z" fill="#1D8E7C"/>
<path d="M35.6747 29.2578C35.6944 28.9494 35.6934 28.7345 35.4411 28.365C35.3977 28.6784 35.4973 29.0124 35.6747 29.2578Z" fill="#1D8E7C"/>
<path d="M35.3091 29.362C35.3012 29.0516 35.2825 28.8377 34.9996 28.4928C34.9839 28.8101 35.112 29.1344 35.3091 29.362Z" fill="#1D8E7C"/>
<path d="M34.9533 29.4984C34.9365 29.3417 34.9188 29.2155 34.8656 29.0845C34.8124 28.9534 34.7257 28.8164 34.5699 28.6597C34.5818 28.978 34.7385 29.2904 34.9533 29.4984Z" fill="#1D8E7C"/>
<path d="M34.6104 29.6649C34.5532 29.3673 34.497 29.1603 34.1561 28.8627C34.1965 29.18 34.3788 29.4776 34.6104 29.6649Z" fill="#1D8E7C"/>
<path d="M34.2852 29.8638C34.2024 29.5711 34.1295 29.3711 33.7629 29.103C33.828 29.4125 34.0349 29.6914 34.2852 29.8638Z" fill="#1D8E7C"/>
<path d="M33.9777 30.0893C33.8693 29.8045 33.7786 29.6104 33.3923 29.3758C33.481 29.6754 33.7116 29.9366 33.9777 30.0893Z" fill="#1D8E7C"/>
<path d="M33.6909 30.3397C33.5578 30.0648 33.4514 29.8785 33.0464 29.6795C33.1617 29.9712 33.413 30.2116 33.6909 30.3397Z" fill="#1D8E7C"/>
<path d="M33.4258 30.614C33.2691 30.3499 33.1469 30.1744 32.7271 30.0108C32.8671 30.2917 33.139 30.5105 33.4258 30.614Z" fill="#1D8E7C"/>
<path d="M33.1844 30.9095C33.005 30.6592 32.867 30.4946 32.4374 30.3685C32.602 30.6375 32.8917 30.8316 33.1844 30.9095Z" fill="#1D8E7C"/>
<path d="M32.9695 31.2235C32.7685 30.989 32.6167 30.8362 32.1792 30.7485C32.3674 31.0028 32.6719 31.1723 32.9695 31.2235Z" fill="#1D8E7C"/>
<path d="M32.7823 31.555C32.5606 31.3392 32.396 31.1993 31.9535 31.15C32.1634 31.3875 32.4817 31.5304 32.7823 31.555Z" fill="#1D8E7C"/>
<path d="M32.6227 31.9008C32.3822 31.7047 32.2068 31.5795 31.7624 31.5687C31.9939 31.7875 32.3231 31.9018 32.6227 31.9008Z" fill="#1D8E7C"/>
<path d="M32.4936 32.2596C32.2432 32.0871 32.058 31.9768 31.6076 32.0034C31.8579 32.2024 32.1969 32.2872 32.4936 32.2596Z" fill="#1D8E7C"/>
<path d="M32.3999 32.6294C32.1358 32.4786 31.9436 32.386 31.4943 32.451C31.7574 32.6264 32.1003 32.6816 32.3999 32.6294Z" fill="#1D8E7C"/>
<path d="M32.3388 33.0051C32.0619 32.878 31.8618 32.8021 31.4213 32.9056C31.6943 33.0574 32.0422 33.083 32.3388 33.0051Z" fill="#1D8E7C"/>
<path d="M32.3103 33.3847C32.0216 33.2813 31.8156 33.2231 31.3879 33.3631C31.6747 33.4912 32.0235 33.4872 32.3103 33.3847Z" fill="#1D8E7C"/>
<path d="M32.3112 33.7663C32.0136 33.6874 31.8018 33.647 31.3908 33.8234C31.6894 33.9259 32.0363 33.8934 32.3112 33.7663Z" fill="#1D8E7C"/>
<path d="M32.3448 34.1468C32.0393 34.0946 31.8255 34.0719 31.4323 34.2828C31.7397 34.3597 32.0827 34.2966 32.3448 34.1468Z" fill="#1D8E7C"/>
<path d="M32.4088 34.5219C32.0994 34.4963 31.8836 34.4923 31.5121 34.7357C31.8264 34.786 32.1635 34.6924 32.4088 34.5219Z" fill="#1D8E7C"/>
<path d="M32.5054 34.8907C32.2019 34.8897 31.9871 34.9045 31.6303 35.1815C31.9496 35.2031 32.2768 35.0819 32.5054 34.8907Z" fill="#1D8E7C"/>
<path d="M32.6364 35.2478C32.3339 35.2734 32.123 35.306 31.7889 35.6134C32.1052 35.6085 32.4186 35.4607 32.6364 35.2478Z" fill="#1D8E7C"/>
<path d="M32.7991 35.5924C32.4985 35.6446 32.2906 35.6949 31.9861 36.0299C32.2975 36.0004 32.598 35.8249 32.7991 35.5924Z" fill="#1D8E7C"/>
<path d="M32.9903 35.9224C32.6946 36.0002 32.4916 36.0692 32.2186 36.4279C32.5271 36.3708 32.8119 36.1697 32.9903 35.9224Z" fill="#1D8E7C"/>
<path d="M33.208 36.2351C32.9193 36.3385 32.7222 36.4253 32.4827 36.8047C32.7863 36.7209 33.0523 36.4962 33.208 36.2351Z" fill="#1D8E7C"/>
<path d="M33.4514 36.5274C33.1716 36.6565 32.9833 36.759 32.7774 37.1571C33.073 37.0467 33.3194 36.8004 33.4514 36.5274Z" fill="#1D8E7C"/>
<path d="M33.7195 36.7997C33.4515 36.9525 33.2721 37.0717 33.1016 37.4846C33.3874 37.3486 33.6121 37.0816 33.7195 36.7997Z" fill="#1D8E7C"/>
<path d="M34.0082 37.0472C33.753 37.2236 33.5845 37.3576 33.4514 37.7823C33.7254 37.6217 33.9265 37.3369 34.0082 37.0472Z" fill="#1D8E7C"/>
<path d="M34.3177 37.2698C34.0783 37.4669 33.9216 37.6157 33.826 38.0503C34.0852 37.866 34.2616 37.5645 34.3177 37.2698Z" fill="#1D8E7C"/>
<path d="M34.6449 37.4657C34.4261 37.6786 34.2832 37.8392 34.2221 38.2856C34.4655 38.0787 34.6143 37.7633 34.6449 37.4657Z" fill="#1D8E7C"/>
<path d="M34.9888 37.6306C34.7898 37.8602 34.6617 38.0307 34.638 38.484C34.8617 38.2574 34.9829 37.9322 34.9888 37.6306Z" fill="#1D8E7C"/>
<path d="M35.3455 37.7633C35.1672 38.0097 35.0538 38.192 35.0696 38.6443C35.2716 38.4058 35.3633 38.0698 35.3455 37.7633Z" fill="#1D8E7C"/>
<path d="M35.7122 37.8648C35.5555 38.1269 35.4579 38.3181 35.5141 38.7665C35.6944 38.5103 35.7575 38.1673 35.7122 37.8648Z" fill="#1D8E7C"/>
<path d="M36.0866 37.9362C35.9525 38.2131 35.8727 38.4122 35.9673 38.8507C36.125 38.5787 36.1585 38.2318 36.0866 37.9362Z" fill="#1D8E7C"/>
<path d="M36.4661 37.9745C36.3557 38.2632 36.2936 38.4692 36.4257 38.8959C36.5597 38.6091 36.5636 38.2613 36.4661 37.9745Z" fill="#1D8E7C"/>
<path d="M36.8474 37.9825C36.7626 38.2811 36.7173 38.492 36.8848 38.9039C36.9942 38.6053 36.9676 38.2574 36.8474 37.9825Z" fill="#1D8E7C"/>
<path d="M37.2279 37.9594C37.1687 38.26 37.1411 38.4739 37.3441 38.874C37.4269 38.5655 37.3717 38.2216 37.2279 37.9594Z" fill="#1D8E7C"/>
<path d="M37.6043 37.9011C37.5698 38.2027 37.5619 38.4156 37.7984 38.8038C37.8546 38.4904 37.7698 38.1544 37.6043 37.9011Z" fill="#1D8E7C"/>
<path d="M37.9739 37.8075C37.966 38.112 37.9758 38.3259 38.2459 38.6895C38.2774 38.3791 38.1631 38.05 37.9739 37.8075Z" fill="#1D8E7C"/>
<path d="M38.3345 37.6847C38.3542 37.9902 38.3818 38.2021 38.6814 38.5401C38.6853 38.2267 38.5424 37.9084 38.3345 37.6847Z" fill="#1D8E7C"/>
<path d="M38.6824 37.5311C38.7287 37.8347 38.775 38.0446 39.1022 38.353C39.0786 38.0396 38.9091 37.7351 38.6824 37.5311Z" fill="#1D8E7C"/>
<path d="M39.0165 37.3483C39.0894 37.6479 39.1544 37.8529 39.5053 38.1308C39.454 37.8194 39.2589 37.5306 39.0165 37.3483Z" fill="#1D8E7C"/>
<path d="M39.3347 37.1376C39.4333 37.4303 39.5161 37.6294 39.8886 37.8748C39.8097 37.5683 39.591 37.2963 39.3347 37.1376Z" fill="#1D8E7C"/>
<path d="M39.6333 36.9013C39.7575 37.1851 39.857 37.3763 40.2483 37.5881C40.1428 37.2885 39.9014 37.0372 39.6333 36.9013Z" fill="#1D8E7C"/>
<path d="M39.9113 36.6407C39.9862 36.7787 40.0512 36.8901 40.1488 36.9916C40.2473 37.0931 40.3794 37.1867 40.5824 37.2734C40.4513 36.9837 40.1892 36.7531 39.9113 36.6417V36.6407Z" fill="#1D8E7C"/>
<path d="M40.1665 36.3569C40.3331 36.6121 40.4631 36.7826 40.8898 36.9294C40.7332 36.6505 40.4523 36.4436 40.1665 36.3569Z" fill="#1D8E7C"/>
<path d="M40.3942 36.0507C40.5804 36.2901 40.7243 36.4488 41.1648 36.5592C40.9864 36.296 40.6898 36.1147 40.3942 36.0507Z" fill="#1D8E7C"/>
<path d="M40.5943 35.7266C40.8022 35.9493 40.9579 36.0952 41.4053 36.1671C41.2102 35.9227 40.8988 35.767 40.5943 35.7266Z" fill="#1D8E7C"/>
<path d="M40.7647 35.3854C40.9913 35.5904 41.1599 35.7224 41.6102 35.754C41.3944 35.5273 41.0702 35.3992 40.7647 35.3854Z" fill="#1D8E7C"/>
<path d="M40.9067 35.0324C41.1521 35.2167 41.3314 35.334 41.7808 35.3271C41.5443 35.1192 41.2112 35.0196 40.9067 35.0324Z" fill="#1D8E7C"/>
<path d="M41.017 34.6692C41.2782 34.8318 41.4674 34.9333 41.9138 34.887C41.6595 34.7007 41.3176 34.6298 41.017 34.6692Z" fill="#1D8E7C"/>
<path d="M41.0969 34.2962C41.3728 34.4361 41.5709 34.5209 42.0084 34.4352C41.7374 34.2706 41.3915 34.2302 41.0969 34.2962Z" fill="#1D8E7C"/>
<path d="M41.1461 33.9182C41.4349 34.0345 41.6398 34.1015 42.0666 33.9783C41.7808 33.8384 41.4319 33.8275 41.1461 33.9182Z" fill="#1D8E7C"/>
<path d="M41.1639 33.5365C41.4536 33.6281 41.6625 33.6774 42.0853 33.5187C41.7867 33.4034 41.4388 33.4222 41.1639 33.5365Z" fill="#1D8E7C"/>
<path d="M41.1431 33.1556C41.4397 33.2216 41.6516 33.2531 42.0615 33.059C41.9137 33.0136 41.7491 33.0028 41.5915 33.0215C41.4348 33.0393 41.282 33.0856 41.1431 33.1556Z" fill="#1D8E7C"/>
<path d="M41.0909 32.7782C41.3935 32.8186 41.6073 32.8314 41.9976 32.6037C41.6911 32.5397 41.3521 32.6175 41.0909 32.7782Z" fill="#1D8E7C"/>
<path d="M41.0071 32.4072C41.3136 32.421 41.5284 32.4151 41.895 32.1549C41.5826 32.1175 41.2515 32.2249 41.0071 32.4072Z" fill="#1D8E7C"/>
<path d="M40.8928 32.0435C41.2003 32.0297 41.4141 32.006 41.7551 31.7153C41.4398 31.7054 41.1185 31.8414 40.8928 32.0435Z" fill="#1D8E7C"/>
<path d="M40.748 31.6921C41.0544 31.6517 41.2653 31.6093 41.5787 31.29C41.2624 31.3078 40.9539 31.4704 40.748 31.6921Z" fill="#1D8E7C"/>
<path d="M40.5745 31.3537C40.877 31.2867 41.084 31.2256 41.3668 30.8816C41.0524 30.9279 40.7587 31.1162 40.5745 31.3537Z" fill="#1D8E7C"/>
<path d="M40.3715 31.0307C40.5213 30.9834 40.6425 30.942 40.7607 30.8651C40.879 30.7883 40.9972 30.6759 41.1204 30.4926C40.81 30.5665 40.5341 30.7794 40.3715 31.0307Z" fill="#1D8E7C"/>
<path d="M40.1419 30.7263C40.4228 30.613 40.6159 30.5174 40.8416 30.1261C40.5381 30.2267 40.2809 30.4622 40.1419 30.7263Z" fill="#1D8E7C"/>
<path d="M39.8847 30.4439C40.1557 30.307 40.339 30.1966 40.5322 29.7856C40.2405 29.9098 40.0059 30.166 39.8847 30.4439Z" fill="#1D8E7C"/>
<path d="M39.6038 30.186C39.8629 30.0254 40.0354 29.8993 40.1921 29.4745C39.9152 29.6194 39.7023 29.8953 39.6038 30.186Z" fill="#1D8E7C"/>
<path d="M39.3032 29.9516C39.5476 29.7683 39.7102 29.6284 39.8285 29.1928C39.5644 29.3613 39.3761 29.654 39.3032 29.9516Z" fill="#1D8E7C"/>
<path d="M38.9839 29.7446C39.2126 29.5396 39.3624 29.3859 39.4422 28.9434C39.1929 29.1346 39.0303 29.4431 38.9839 29.7446Z" fill="#1D8E7C"/>
<path d="M38.6478 29.5653C38.8587 29.3406 38.9947 29.1741 39.0351 28.7276C38.8025 28.9405 38.6675 29.2618 38.6478 29.5653Z" fill="#1D8E7C"/>
<path d="M38.298 29.4144C38.4882 29.171 38.6104 28.9936 38.6114 28.5472C38.3976 28.7807 38.2911 29.1128 38.298 29.4144Z" fill="#1D8E7C"/>
<path d="M37.9364 29.295C38.1059 29.0349 38.2114 28.8476 38.173 28.4041C37.9808 28.6564 37.9029 28.9964 37.9364 29.295Z" fill="#1D8E7C"/>
<path d="M37.5668 29.2052C37.6407 29.0663 37.6978 28.952 37.7294 28.815C37.7599 28.677 37.7658 28.5144 37.7264 28.2976C37.5559 28.5676 37.5076 28.9125 37.5677 29.2062L37.5668 29.2052Z" fill="#1D8E7C"/>
<path d="M37.1893 29.1481C37.3105 28.8702 37.3815 28.6692 37.2692 28.2287C37.1223 28.5145 37.1046 28.8604 37.1893 29.1481Z" fill="#1D8E7C"/>
<path d="M36.808 29.1294C36.9056 28.8406 36.9588 28.6337 36.81 28.206C36.6888 28.4928 36.6996 28.8416 36.808 29.1294Z" fill="#1D8E7C"/>
<path d="M35.0952 12.3378C35.0302 12.1427 34.9306 11.9486 34.7671 11.8017C34.6074 11.6598 34.3867 11.578 34.16 11.5701C33.9323 11.5613 33.7086 11.6273 33.4938 11.7367C34.0969 11.7229 34.6626 11.985 35.0962 12.3378H35.0952Z" fill="#1D8E7C"/>
<path d="M34.8253 13.4652C34.7228 13.2898 34.5907 13.1183 34.4074 13.002C34.2251 12.8897 33.9945 12.8463 33.7688 12.8779C33.5412 12.9084 33.3303 13.0129 33.1401 13.1637C33.7304 13.0365 34.3325 13.2011 34.8253 13.4642V13.4652Z" fill="#1D8E7C"/>
<path d="M34.7878 14.5877C34.6489 14.4448 34.4843 14.3078 34.2803 14.2339C34.0783 14.1629 33.8437 14.1669 33.6299 14.2457C33.4131 14.3236 33.2288 14.4734 33.077 14.6665C33.625 14.4073 34.2488 14.4468 34.7868 14.5877H34.7878Z" fill="#1D8E7C"/>
<path d="M35.0174 15.6493C34.8499 15.5508 34.6528 15.4651 34.4389 15.4453C34.2271 15.4286 34.0004 15.4897 33.8132 15.6198C33.621 15.7508 33.486 15.943 33.3894 16.1736C33.8496 15.7755 34.4656 15.6592 35.0184 15.6493H35.0174Z" fill="#1D8E7C"/>
<path d="M35.523 16.5946C35.3347 16.5463 35.1199 16.5197 34.91 16.5601C34.7021 16.6025 34.501 16.7247 34.3571 16.9021C34.2093 17.0814 34.1334 17.3042 34.1049 17.5515C34.436 17.041 34.9947 16.7582 35.523 16.5936V16.5946Z" fill="#1D8E7C"/>
<path d="M36.2887 17.4082C36.0906 17.3944 35.8807 17.4082 35.6806 17.5047C35.4865 17.5994 35.3259 17.7698 35.2322 17.9758C35.1386 18.1808 35.11 18.4193 35.1307 18.6656C35.3466 18.0941 35.8088 17.6762 36.2887 17.4082Z" fill="#1D8E7C"/>
<path d="M37.2465 18.0852C37.0406 18.1069 36.8316 18.1562 36.6513 18.2892C36.4769 18.4183 36.3507 18.6154 36.2955 18.8332C36.2404 19.05 36.2542 19.2865 36.3133 19.5191C36.4315 18.9268 36.807 18.4301 37.2456 18.0852H37.2465Z" fill="#1D8E7C"/>
<path d="M38.3276 18.6451C38.1177 18.6904 37.9128 18.7653 37.7502 18.921C37.5954 19.0688 37.4979 19.2837 37.4713 19.5074C37.4456 19.7291 37.487 19.9597 37.5688 20.1785C37.622 19.5823 37.9216 19.0383 38.3286 18.6441L38.3276 18.6451Z" fill="#1D8E7C"/>
<path d="M39.4935 19.1222C39.2797 19.1814 39.0786 19.2691 38.9318 19.4327C38.7879 19.5923 38.7101 19.814 38.7002 20.0397C38.6903 20.2664 38.7475 20.495 38.8391 20.7039C38.8569 20.1087 39.1062 19.5401 39.4935 19.1213V19.1222Z" fill="#1D8E7C"/>
<path d="M40.7155 19.5617C40.4997 19.6219 40.2996 19.7145 40.1558 19.885C40.0158 20.0505 39.9478 20.2752 39.9458 20.4999C39.9439 20.7246 40.005 20.9503 40.0986 21.1582C40.1055 20.563 40.3331 19.9855 40.7155 19.5617Z" fill="#1D8E7C"/>
<path d="M41.9729 20.0119C41.7512 20.0681 41.5462 20.1568 41.4004 20.3253C41.2585 20.4889 41.1905 20.7136 41.1855 20.9392C41.1816 21.1639 41.2368 21.3896 41.3235 21.5966C41.3472 21.0043 41.5758 20.4278 41.9729 20.0119Z" fill="#1D8E7C"/>
<path d="M43.2443 20.5313C43.0136 20.5697 42.8008 20.6437 42.647 20.8033C42.4963 20.96 42.4194 21.1817 42.4026 21.4054C42.3859 21.6311 42.4263 21.8588 42.4943 22.0696C42.5613 21.4823 42.8146 20.9166 43.2452 20.5313H43.2443Z" fill="#1D8E7C"/>
<path d="M44.4997 21.1806C44.2622 21.1846 44.0405 21.2338 43.868 21.3836C43.7015 21.5255 43.6039 21.7394 43.5655 21.9592C43.53 22.176 43.5448 22.4066 43.5803 22.6244C43.7202 22.0488 44.0218 21.5078 44.4997 21.1806Z" fill="#1D8E7C"/>
<path d="M45.6892 22.0206C45.4566 21.9733 45.2132 22.0078 45.024 22.1211C44.8378 22.2355 44.7106 22.4335 44.6387 22.6444C44.5648 22.8583 44.5539 23.0741 44.549 23.2939C44.7836 22.7538 45.163 22.2561 45.6902 22.0196L45.6892 22.0206Z" fill="#1D8E7C"/>
<path d="M46.7259 23.0863C46.4943 23.0025 46.2667 22.9671 46.0518 23.0479C45.8459 23.1238 45.6843 23.2942 45.5739 23.4874C45.4655 23.6786 45.3955 23.8983 45.3512 24.1063C45.6882 23.6263 46.1533 23.2154 46.7259 23.0853V23.0863Z" fill="#1D8E7C"/>
<path d="M47.5232 24.3356C47.3103 24.2124 47.0964 24.1325 46.8718 24.169C46.6549 24.2025 46.4618 24.3375 46.315 24.5041C46.1691 24.6706 46.0558 24.8746 45.976 25.0707C46.3977 24.6647 46.9358 24.3563 47.5232 24.3356Z" fill="#1D8E7C"/>
<path d="M48.0701 25.6956C47.8849 25.5389 47.6818 25.4256 47.4601 25.4187C47.2413 25.4127 47.0275 25.5093 46.8521 25.6483C46.6747 25.7882 46.5318 25.9666 46.4185 26.1479C46.9023 25.8207 47.4897 25.6148 48.0701 25.6956Z" fill="#1D8E7C"/>
<path d="M48.3785 27.1155C48.2248 26.9322 48.0385 26.7893 47.8217 26.7459C47.6088 26.7045 47.3812 26.7647 47.1841 26.8731C46.986 26.9815 46.8185 27.1352 46.6776 27.2978C47.2077 27.0504 47.8227 26.945 48.3785 27.1165V27.1155Z" fill="#1D8E7C"/>
<path d="M48.4623 28.5593C48.3421 28.3553 48.1756 28.1858 47.9686 28.1099C47.7646 28.036 47.5301 28.0607 47.3192 28.1375C47.1063 28.2144 46.922 28.3415 46.7535 28.4805C47.3172 28.3159 47.942 28.307 48.4633 28.5593H48.4623Z" fill="#1D8E7C"/>
<path d="M48.3313 29.9926C48.2406 29.7748 48.1046 29.5846 47.9085 29.4791C47.7174 29.3757 47.4818 29.3648 47.2621 29.4092C47.0403 29.4545 46.8403 29.553 46.6511 29.6674C47.2364 29.5856 47.8504 29.6703 48.3313 29.9936V29.9926Z" fill="#1D8E7C"/>
<path d="M48.01 31.3816C47.945 31.1549 47.8396 30.9519 47.6553 30.8199C47.4789 30.6927 47.2473 30.6504 47.0236 30.6661C46.8009 30.6829 46.5841 30.7538 46.384 30.8455C46.9743 30.8366 47.5725 31.0022 48.01 31.3816Z" fill="#1D8E7C"/>
<path d="M47.531 32.7102C47.4887 32.4787 47.4098 32.2668 47.2423 32.115C47.0807 31.9682 46.857 31.8982 46.6333 31.8884C46.4115 31.8795 46.1839 31.9248 45.976 31.9948C46.5633 32.05 47.1378 32.2855 47.532 32.7102H47.531Z" fill="#1D8E7C"/>
<path d="M46.921 33.9704C46.8994 33.7358 46.8432 33.519 46.6914 33.3515C46.5456 33.1889 46.3297 33.0962 46.109 33.0637C45.8882 33.0322 45.6567 33.0539 45.4428 33.1061C46.0223 33.2174 46.5682 33.5111 46.921 33.9704Z" fill="#1D8E7C"/>
<path d="M46.2027 35.1606C46.2007 34.927 46.1603 34.7043 46.0272 34.526C45.8962 34.3515 45.6902 34.2392 45.4724 34.1869C45.2536 34.1347 45.0221 34.1387 44.8043 34.1722C45.3729 34.3318 45.8903 34.6738 46.2027 35.1606Z" fill="#1D8E7C"/>
</g>
</svg>
