<svg width="23" height="29" viewBox="0 0 23 29" fill="none" xmlns="http://www.w3.org/2000/svg">
<path d="M2.43164 28.9414V18.5H19.5745V28.9414L11.4793 24.6557L2.43164 28.9414Z" fill="url(#paint0_linear_1_74632)"/>
<ellipse cx="11.4705" cy="11.4705" rx="11.4705" ry="11.4705" fill="#CCE2F5"/>
<circle cx="11.4771" cy="11.4684" r="8.41168" fill="#AAC6D7"/>
<path fill-rule="evenodd" clip-rule="evenodd" d="M19.8774 11.9107C19.885 11.7642 19.8888 11.6167 19.8888 11.4683C19.8888 6.82268 16.1228 3.05664 11.4771 3.05664C6.83147 3.05664 3.06543 6.82268 3.06543 11.4683C3.06543 11.6167 3.06927 11.7642 3.07686 11.9107C3.30691 7.4707 6.97986 3.94141 11.4771 3.94141C15.9744 3.94141 19.6473 7.4707 19.8774 11.9107Z" fill="#7B9BAF"/>
<path d="M14.9238 14.4033V15.9414H8.11523V14.6289L11.335 11.1768C11.6585 10.8167 11.9137 10.5 12.1006 10.2266C12.2874 9.94857 12.4219 9.7002 12.5039 9.48145C12.5905 9.25814 12.6338 9.04622 12.6338 8.8457C12.6338 8.54492 12.5837 8.28743 12.4834 8.07324C12.3831 7.85449 12.235 7.68587 12.0391 7.56738C11.8477 7.44889 11.6107 7.38965 11.3281 7.38965C11.0273 7.38965 10.7676 7.46257 10.5488 7.6084C10.3346 7.75423 10.1706 7.95703 10.0566 8.2168C9.94727 8.47656 9.89258 8.77051 9.89258 9.09863H7.91699C7.91699 8.50618 8.05827 7.96387 8.34082 7.47168C8.62337 6.97493 9.02214 6.58073 9.53711 6.28906C10.0521 5.99284 10.6628 5.84473 11.3691 5.84473C12.0664 5.84473 12.6543 5.95866 13.1328 6.18652C13.6159 6.40983 13.9805 6.7334 14.2266 7.15723C14.4772 7.5765 14.6025 8.0778 14.6025 8.66113C14.6025 8.98926 14.5501 9.31055 14.4453 9.625C14.3405 9.9349 14.1901 10.2448 13.9941 10.5547C13.8027 10.86 13.5703 11.1699 13.2969 11.4844C13.0234 11.7988 12.7204 12.1247 12.3877 12.4619L10.6582 14.4033H14.9238Z" fill="white"/>
<defs>
<linearGradient id="paint0_linear_1_74632" x1="11.0031" y1="18.9414" x2="11.0031" y2="28.9414" gradientUnits="userSpaceOnUse">
<stop stop-color="#94B4C7"/>
<stop offset="1" stop-color="#CCE2F5"/>
</linearGradient>
</defs>
</svg>
