<svg width="23" height="29" viewBox="0 0 23 29" fill="none" xmlns="http://www.w3.org/2000/svg">
<path d="M2.43164 28.9414V17.9414H19.5745V28.9414L11.4793 24.6557L2.43164 28.9414Z" fill="url(#paint0_linear_1_74622)"/>
<ellipse cx="11.4705" cy="11.4705" rx="11.4705" ry="11.4705" fill="#FDE249"/>
<circle cx="11.4771" cy="11.4684" r="8.41168" fill="#FFB806"/>
<path fill-rule="evenodd" clip-rule="evenodd" d="M19.8774 11.9107C19.885 11.7642 19.8888 11.6167 19.8888 11.4683C19.8888 6.82268 16.1228 3.05664 11.4771 3.05664C6.83147 3.05664 3.06543 6.82268 3.06543 11.4683C3.06543 11.6167 3.06927 11.7642 3.07686 11.9107C3.30691 7.4707 6.97986 3.94141 11.4771 3.94141C15.9744 3.94141 19.6473 7.4707 19.8774 11.9107Z" fill="#F2A209"/>
<path d="M12.9141 5.96777V15.9414H10.9453V8.2373L8.58008 8.98926V7.4375L12.7021 5.96777H12.9141Z" fill="#D47842"/>
<defs>
<linearGradient id="paint0_linear_1_74622" x1="11.0031" y1="18.9414" x2="11.0031" y2="28.9414" gradientUnits="userSpaceOnUse">
<stop stop-color="#FFB806"/>
<stop offset="1" stop-color="#FDE249"/>
</linearGradient>
</defs>
</svg>
