<svg width="23" height="29" viewBox="0 0 23 29" fill="none" xmlns="http://www.w3.org/2000/svg">
<path d="M2.43164 28.9414V18H19.5745V28.9414L11.4793 24.6557L2.43164 28.9414Z" fill="url(#paint0_linear_1_74642)"/>
<ellipse cx="11.4705" cy="11.4705" rx="11.4705" ry="11.4705" fill="#E9C0A5"/>
<circle cx="11.4771" cy="11.4684" r="8.41168" fill="#D79D6C"/>
<path fill-rule="evenodd" clip-rule="evenodd" d="M19.8774 11.9107C19.885 11.7642 19.8888 11.6167 19.8888 11.4683C19.8888 6.82268 16.1228 3.05664 11.4771 3.05664C6.83147 3.05664 3.06543 6.82268 3.06543 11.4683C3.06543 11.6167 3.06927 11.7642 3.07686 11.9107C3.30691 7.4707 6.97986 3.94141 11.4771 3.94141C15.9744 3.94141 19.6473 7.4707 19.8774 11.9107Z" fill="#B78255"/>
<path d="M10.1318 10.1104H11.1846C11.5218 10.1104 11.7998 10.0534 12.0186 9.93945C12.2373 9.82096 12.3991 9.6569 12.5039 9.44727C12.6133 9.23307 12.668 8.9847 12.668 8.70215C12.668 8.44694 12.6178 8.22135 12.5176 8.02539C12.4219 7.82487 12.2738 7.66992 12.0732 7.56055C11.8727 7.44661 11.6198 7.38965 11.3145 7.38965C11.0729 7.38965 10.8496 7.4375 10.6445 7.5332C10.4395 7.62891 10.2754 7.76335 10.1523 7.93652C10.0293 8.1097 9.96777 8.31934 9.96777 8.56543H7.99219C7.99219 8.01855 8.13802 7.54232 8.42969 7.13672C8.72591 6.73112 9.1224 6.41439 9.61914 6.18652C10.1159 5.95866 10.6628 5.84473 11.2598 5.84473C11.9342 5.84473 12.5244 5.9541 13.0303 6.17285C13.5361 6.38704 13.9303 6.70378 14.2129 7.12305C14.4954 7.54232 14.6367 8.06185 14.6367 8.68164C14.6367 8.99609 14.5638 9.30143 14.418 9.59766C14.2721 9.88932 14.0625 10.1536 13.7891 10.3906C13.5202 10.623 13.1921 10.8099 12.8047 10.9512C12.4173 11.0879 11.9821 11.1562 11.499 11.1562H10.1318V10.1104ZM10.1318 11.6074V10.5889H11.499C12.0413 10.5889 12.5176 10.6504 12.9277 10.7734C13.3379 10.8965 13.682 11.0742 13.96 11.3066C14.238 11.5345 14.4476 11.8057 14.5889 12.1201C14.7301 12.43 14.8008 12.7741 14.8008 13.1523C14.8008 13.6172 14.7119 14.0319 14.5342 14.3965C14.3564 14.7565 14.1058 15.0618 13.7822 15.3125C13.4632 15.5632 13.0895 15.7546 12.6611 15.8867C12.2327 16.0143 11.7656 16.0781 11.2598 16.0781C10.8405 16.0781 10.4281 16.0212 10.0225 15.9072C9.62142 15.7887 9.25684 15.6133 8.92871 15.3809C8.60514 15.1439 8.34538 14.8477 8.14941 14.4922C7.95801 14.1322 7.8623 13.7061 7.8623 13.2139H9.83789C9.83789 13.4691 9.90169 13.6969 10.0293 13.8975C10.1569 14.098 10.3324 14.2552 10.5557 14.3691C10.7835 14.4831 11.0365 14.54 11.3145 14.54C11.6289 14.54 11.8978 14.4831 12.1211 14.3691C12.349 14.2507 12.5221 14.0866 12.6406 13.877C12.7637 13.6628 12.8252 13.4144 12.8252 13.1318C12.8252 12.7673 12.7591 12.4756 12.627 12.2568C12.4948 12.0335 12.3057 11.8695 12.0596 11.7646C11.8135 11.6598 11.5218 11.6074 11.1846 11.6074H10.1318Z" fill="white"/>
<defs>
<linearGradient id="paint0_linear_1_74642" x1="11.0031" y1="18.9414" x2="11.0031" y2="28.9414" gradientUnits="userSpaceOnUse">
<stop stop-color="#C78F5F"/>
<stop offset="1" stop-color="#E9C0A5"/>
</linearGradient>
</defs>
</svg>
